M48
; DRILL file {KiCad (7.0.0)} date Tue Dec 12 01:18:52 2023
; FORMAT={-:-/ absolute / metric / decimal}
; #@! TF.CreationDate,2023-12-12T01:18:52+01:00
; #@! TF.GenerationSoftware,Kicad,Pcbnew,(7.0.0)
; #@! TF.FileFunction,Plated,1,2,PTH
FMAT,2
METRIC
; #@! TA.AperFunction,Plated,PTH,ViaDrill
T1C0.400
; #@! TA.AperFunction,Plated,PTH,ComponentDrill
T2C0.800
; #@! TA.AperFunction,Plated,PTH,ComponentDrill
T3C0.900
; #@! TA.AperFunction,Plated,PTH,ComponentDrill
T4C0.950
; #@! TA.AperFunction,Plated,PTH,ComponentDrill
T5C1.000
; #@! TA.AperFunction,Plated,PTH,ComponentDrill
T6C1.500
; #@! TA.AperFunction,Plated,PTH,ComponentDrill
T7C2.700
; #@! TA.AperFunction,Plated,PTH,ComponentDrill
T8C4.500
%
G90
G05
T1
X45.7Y-132.0
X52.1Y-83.4
X78.86Y-125.984
X80.2Y-77.5
X80.25Y-76.5
X80.625Y-67.375
X81.25Y-76.5
X81.25Y-77.5
X81.525Y-64.775
X82.75Y-83.0
X82.75Y-114.55
X85.3Y-55.8
X86.5Y-42.0
X86.5Y-56.809
X87.75Y-117.087
X94.873Y-126.873
X97.46Y-126.822
X101.092Y-125.349
X105.283Y-132.461
X110.49Y-157.157
X111.75Y-51.75
X111.75Y-53.0
X116.8Y-124.3
X117.0Y-59.5
X119.054Y-126.746
X120.5Y-123.0
X135.1Y-55.2
X138.3Y-54.0
X173.75Y-110.5
T2
X43.66Y-79.11
X43.66Y-81.65
X43.66Y-84.19
X43.66Y-86.73
X43.66Y-89.27
X43.66Y-91.81
X43.66Y-94.35
X43.66Y-96.89
X43.698Y-103.175
X43.698Y-105.715
X43.698Y-108.255
X43.698Y-110.795
X43.698Y-113.335
X43.698Y-115.875
X43.698Y-118.415
X43.698Y-120.955
X56.36Y-79.11
X56.36Y-81.65
X56.36Y-84.19
X56.36Y-86.73
X56.36Y-89.27
X56.36Y-91.81
X56.36Y-94.35
X56.36Y-96.89
X56.398Y-103.175
X56.398Y-105.715
X56.398Y-108.255
X56.398Y-110.795
X56.398Y-113.335
X56.398Y-115.875
X56.398Y-118.415
X56.398Y-120.955
X66.16Y-79.11
X66.16Y-81.65
X66.16Y-84.19
X66.16Y-86.73
X66.16Y-89.27
X66.16Y-91.81
X66.16Y-94.35
X66.16Y-96.89
X66.16Y-103.11
X66.16Y-105.65
X66.16Y-108.19
X66.16Y-110.73
X66.16Y-113.27
X66.16Y-115.81
X66.16Y-118.35
X66.16Y-120.89
X78.86Y-79.11
X78.86Y-81.65
X78.86Y-84.19
X78.86Y-86.73
X78.86Y-89.27
X78.86Y-91.81
X78.86Y-94.35
X78.86Y-96.89
X78.86Y-103.11
X78.86Y-105.65
X78.86Y-108.19
X78.86Y-110.73
X78.86Y-113.27
X78.86Y-115.81
X78.86Y-118.35
X78.86Y-120.89
X89.205Y-33.62
X89.205Y-46.32
X89.205Y-56.226
X89.205Y-68.926
X91.745Y-33.62
X91.745Y-46.32
X91.745Y-56.226
X91.745Y-68.926
X94.285Y-33.62
X94.285Y-46.32
X94.285Y-56.226
X94.285Y-68.926
X96.825Y-33.62
X96.825Y-46.32
X96.825Y-56.226
X96.825Y-68.926
X99.365Y-33.62
X99.365Y-46.32
X99.365Y-56.226
X99.365Y-68.926
X101.905Y-33.62
X101.905Y-46.32
X101.905Y-56.226
X101.905Y-68.926
X104.445Y-33.62
X104.445Y-46.32
X104.445Y-56.226
X104.445Y-68.926
X106.985Y-33.62
X106.985Y-46.32
X106.985Y-56.226
X106.985Y-68.926
X113.11Y-33.64
X113.11Y-46.34
X113.132Y-56.226
X113.132Y-68.926
X115.65Y-33.64
X115.65Y-46.34
X115.672Y-56.226
X115.672Y-68.926
X118.19Y-33.64
X118.19Y-46.34
X118.212Y-56.226
X118.212Y-68.926
X120.73Y-33.64
X120.73Y-46.34
X120.752Y-56.226
X120.752Y-68.926
X123.27Y-33.64
X123.27Y-46.34
X123.292Y-56.226
X123.292Y-68.926
X125.81Y-33.64
X125.81Y-46.34
X125.832Y-56.226
X125.832Y-68.926
X128.35Y-33.64
X128.35Y-46.34
X128.372Y-56.226
X128.372Y-68.926
X130.89Y-33.64
X130.89Y-46.34
X130.912Y-56.226
X130.912Y-68.926
X141.16Y-79.11
X141.16Y-81.65
X141.16Y-84.19
X141.16Y-86.73
X141.16Y-89.27
X141.16Y-91.81
X141.16Y-94.35
X141.16Y-96.89
X141.16Y-103.11
X141.16Y-105.65
X141.16Y-108.19
X141.16Y-110.73
X141.16Y-113.27
X141.16Y-115.81
X141.16Y-118.35
X141.16Y-120.89
X153.86Y-79.11
X153.86Y-81.65
X153.86Y-84.19
X153.86Y-86.73
X153.86Y-89.27
X153.86Y-91.81
X153.86Y-94.35
X153.86Y-96.89
X153.86Y-103.11
X153.86Y-105.65
X153.86Y-108.19
X153.86Y-110.73
X153.86Y-113.27
X153.86Y-115.81
X153.86Y-118.35
X153.86Y-120.89
X163.66Y-79.11
X163.66Y-81.65
X163.66Y-84.19
X163.66Y-86.73
X163.66Y-89.27
X163.66Y-91.81
X163.66Y-94.35
X163.66Y-96.89
X163.66Y-103.11
X163.66Y-105.65
X163.66Y-108.19
X163.66Y-110.73
X163.66Y-113.27
X163.66Y-115.81
X163.66Y-118.35
X163.66Y-120.89
X176.36Y-79.11
X176.36Y-81.65
X176.36Y-84.19
X176.36Y-86.73
X176.36Y-89.27
X176.36Y-91.81
X176.36Y-94.35
X176.36Y-96.89
X176.36Y-103.11
X176.36Y-105.65
X176.36Y-108.19
X176.36Y-110.73
X176.36Y-113.27
X176.36Y-115.81
X176.36Y-118.35
X176.36Y-120.89
T3
X74.0Y-154.25
X76.0Y-154.25
X78.0Y-154.25
T4
X47.75Y-60.3
X47.75Y-68.3
X50.25Y-60.3
X50.25Y-68.3
X52.75Y-60.3
X52.75Y-68.3
X55.25Y-60.3
X55.25Y-68.3
X68.75Y-60.3
X68.75Y-68.3
X70.0Y-43.0
X70.0Y-51.3
X71.25Y-60.3
X71.25Y-68.3
X72.5Y-43.0
X72.5Y-51.3
X73.75Y-60.3
X73.75Y-68.3
X75.0Y-43.0
X75.0Y-51.3
X76.25Y-60.3
X76.25Y-68.3
X77.5Y-43.0
X77.5Y-51.3
X142.25Y-43.3
X142.25Y-51.3
X144.0Y-60.3
X144.0Y-68.3
X144.75Y-43.3
X144.75Y-51.3
X146.5Y-60.3
X146.5Y-68.3
X147.25Y-43.3
X147.25Y-51.3
X149.0Y-60.3
X149.0Y-68.3
X149.75Y-43.3
X149.75Y-51.3
X151.5Y-60.3
X151.5Y-68.3
X165.0Y-60.3
X165.0Y-68.3
X167.5Y-60.3
X167.5Y-68.3
X170.0Y-60.3
X170.0Y-68.3
X172.5Y-60.3
X172.5Y-68.3
T5
X84.832Y-137.264
X84.832Y-139.764
X97.3Y-131.757
X97.3Y-134.297
X97.3Y-136.837
X97.3Y-139.377
X97.3Y-141.917
X97.3Y-144.457
X97.3Y-146.997
X97.3Y-149.537
X97.3Y-152.077
X97.3Y-154.617
X97.3Y-157.157
X97.3Y-159.697
X97.3Y-162.237
X97.3Y-164.777
X97.3Y-167.317
X97.3Y-169.857
X97.3Y-172.397
X97.3Y-174.937
X97.3Y-177.477
X122.7Y-131.757
X122.7Y-134.297
X122.7Y-136.837
X122.7Y-139.377
X122.7Y-141.917
X122.7Y-144.457
X122.7Y-146.997
X122.7Y-149.537
X122.7Y-152.077
X122.7Y-154.617
X122.7Y-157.157
X122.7Y-159.697
X122.7Y-162.237
X122.7Y-164.777
X122.7Y-167.317
X122.7Y-169.857
X122.7Y-172.397
X122.7Y-174.937
X122.7Y-177.477
X137.5Y-152.095
X137.5Y-154.635
X137.5Y-157.175
X137.5Y-159.715
X137.5Y-162.255
X137.5Y-164.795
X144.755Y-152.2
X144.755Y-154.74
X144.755Y-157.28
X144.755Y-159.82
X155.3Y-135.5
X162.9Y-135.5
T6
X71.9Y-154.25
X80.1Y-154.25
T7
X137.5Y-132.628
X137.5Y-137.628
X144.78Y-132.628
X144.78Y-137.628
T8
X61.632Y-132.65
X61.632Y-139.85
X72.25Y-132.65
X72.25Y-139.85
T0
M30
