%TF.GenerationSoftware,KiCad,Pcbnew,(7.0.0)*%
%TF.CreationDate,2024-02-03T20:31:45+01:00*%
%TF.ProjectId,Helios_rcv_00xx,48656c69-6f73-45f7-9263-765f30307878,rev?*%
%TF.SameCoordinates,PX9d5b340PY5f5e100*%
%TF.FileFunction,Copper,L2,Bot*%
%TF.FilePolarity,Positive*%
%FSLAX46Y46*%
G04 Gerber Fmt 4.6, Leading zero omitted, Abs format (unit mm)*
G04 Created by KiCad (PCBNEW (7.0.0)) date 2024-02-03 20:31:45*
%MOMM*%
%LPD*%
G01*
G04 APERTURE LIST*
G04 Aperture macros list*
%AMRoundRect*
0 Rectangle with rounded corners*
0 $1 Rounding radius*
0 $2 $3 $4 $5 $6 $7 $8 $9 X,Y pos of 4 corners*
0 Add a 4 corners polygon primitive as box body*
4,1,4,$2,$3,$4,$5,$6,$7,$8,$9,$2,$3,0*
0 Add four circle primitives for the rounded corners*
1,1,$1+$1,$2,$3*
1,1,$1+$1,$4,$5*
1,1,$1+$1,$6,$7*
1,1,$1+$1,$8,$9*
0 Add four rect primitives between the rounded corners*
20,1,$1+$1,$2,$3,$4,$5,0*
20,1,$1+$1,$4,$5,$6,$7,0*
20,1,$1+$1,$6,$7,$8,$9,0*
20,1,$1+$1,$8,$9,$2,$3,0*%
G04 Aperture macros list end*
%TA.AperFunction,SMDPad,CuDef*%
%ADD10RoundRect,0.250000X0.450000X-0.262500X0.450000X0.262500X-0.450000X0.262500X-0.450000X-0.262500X0*%
%TD*%
%TA.AperFunction,SMDPad,CuDef*%
%ADD11R,1.000000X1.000000*%
%TD*%
%TA.AperFunction,SMDPad,CuDef*%
%ADD12RoundRect,0.100000X-0.100000X0.637500X-0.100000X-0.637500X0.100000X-0.637500X0.100000X0.637500X0*%
%TD*%
%TA.AperFunction,ComponentPad*%
%ADD13C,3.800000*%
%TD*%
%TA.AperFunction,ViaPad*%
%ADD14C,0.800000*%
%TD*%
%TA.AperFunction,Conductor*%
%ADD15C,0.250000*%
%TD*%
%TA.AperFunction,Conductor*%
%ADD16C,0.500000*%
%TD*%
%TA.AperFunction,Conductor*%
%ADD17C,0.200000*%
%TD*%
G04 APERTURE END LIST*
D10*
%TO.P,R5,1*%
%TO.N,VCC*%
X13150000Y-6862500D03*
%TO.P,R5,2*%
%TO.N,SDA*%
X13150000Y-5037500D03*
%TD*%
D11*
%TO.P,JP2,1,A*%
%TO.N,SCL*%
X6949999Y1299999D03*
%TO.P,JP2,2,C*%
%TO.N,Net-(JP1-C)*%
X6949999Y0D03*
%TO.P,JP2,3,B*%
%TO.N,SDA*%
X6949999Y-1299999D03*
%TD*%
D12*
%TO.P,U2,1,A0*%
%TO.N,unconnected-(U2-A0-Pad1)*%
X10825000Y2962500D03*
%TO.P,U2,2,A1*%
%TO.N,GND*%
X11475000Y2962500D03*
%TO.P,U2,3,~{RESET}*%
%TO.N,VCC*%
X12125000Y2962500D03*
%TO.P,U2,4,DGND*%
%TO.N,GND*%
X12775000Y2962500D03*
%TO.P,U2,5,AVSS*%
X13425000Y2962500D03*
%TO.P,U2,6,AIN3*%
%TO.N,F3*%
X14075000Y2962500D03*
%TO.P,U2,7,AIN2*%
%TO.N,F2*%
X14725000Y2962500D03*
%TO.P,U2,8,REFN*%
%TO.N,GND*%
X15375000Y2962500D03*
%TO.P,U2,9,REFP*%
%TO.N,VCC*%
X15375000Y-2762500D03*
%TO.P,U2,10,AIN1*%
%TO.N,F1*%
X14725000Y-2762500D03*
%TO.P,U2,11,AIN0*%
%TO.N,F0*%
X14075000Y-2762500D03*
%TO.P,U2,12,AVDD*%
%TO.N,VCC*%
X13425000Y-2762500D03*
%TO.P,U2,13,DVDD*%
X12775000Y-2762500D03*
%TO.P,U2,14,~{DRDY}*%
%TO.N,unconnected-(U2-~{DRDY}-Pad14)*%
X12125000Y-2762500D03*
%TO.P,U2,15,SDA*%
%TO.N,SDA*%
X11475000Y-2762500D03*
%TO.P,U2,16,SCL*%
%TO.N,SCL*%
X10825000Y-2762500D03*
%TD*%
D10*
%TO.P,R4,1*%
%TO.N,VCC*%
X11300000Y-6862500D03*
%TO.P,R4,2*%
%TO.N,SCL*%
X11300000Y-5037500D03*
%TD*%
D11*
%TO.P,JP1,1,A*%
%TO.N,GND*%
X8382499Y1299999D03*
%TO.P,JP1,2,C*%
%TO.N,Net-(JP1-C)*%
X8382499Y0D03*
%TO.P,JP1,3,B*%
%TO.N,VCC*%
X8382499Y-1299999D03*
%TD*%
D13*
%TO.P,J2,1,Pin_1*%
%TO.N,SCL*%
X3100000Y2500000D03*
%TO.P,J2,2,Pin_2*%
%TO.N,SDA*%
X3100000Y-2500000D03*
%TD*%
%TO.P,J1,1,Pin_1*%
%TO.N,GND*%
X-3100000Y2500000D03*
%TO.P,J1,2,Pin_2*%
%TO.N,VCC*%
X-3100000Y-2500000D03*
%TD*%
D14*
%TO.N,GND*%
X15086000Y5004000D03*
X9879000Y559000D03*
%TO.N,SDA*%
X11549500Y-400500D03*
%TO.N,F0*%
X-5742000Y1956000D03*
%TO.N,F1*%
X-10568000Y-4013000D03*
X5285977Y-19939D03*
X13440372Y-235128D03*
%TO.N,F2*%
X15396000Y1194000D03*
%TO.N,F3*%
X12050000Y5300000D03*
%TD*%
D15*
%TO.N,SCL*%
X6950000Y1800000D02*
X6950000Y1300000D01*
X10825000Y756000D02*
X9306000Y2275000D01*
X10825000Y-2762500D02*
X10825000Y756000D01*
X7425000Y2275000D02*
X6950000Y1800000D01*
X10825000Y-2762500D02*
X10825000Y-4562500D01*
D16*
X4300000Y1300000D02*
X3100000Y2500000D01*
D15*
X10825000Y-4562500D02*
X11300000Y-5037500D01*
D16*
X6950000Y1300000D02*
X4300000Y1300000D01*
D15*
X9306000Y2275000D02*
X7425000Y2275000D01*
D16*
%TO.N,SDA*%
X6950000Y-1300000D02*
X4300000Y-1300000D01*
D15*
X13061459Y-5037500D02*
X13150000Y-5037500D01*
X11475000Y-2762500D02*
X11475000Y-3451041D01*
X11549500Y-400500D02*
X11475000Y-475000D01*
X11475000Y-3451041D02*
X13061459Y-5037500D01*
D16*
X4300000Y-1300000D02*
X3100000Y-2500000D01*
D15*
X11475000Y-475000D02*
X11475000Y-2762500D01*
D16*
%TO.N,Net-(JP1-C)*%
X6950000Y0D02*
X8382500Y0D01*
%TO.N,VCC*%
X9050000Y-1300000D02*
X10000000Y-2250000D01*
D15*
X14981250Y-5007291D02*
X14981250Y-5031250D01*
D16*
X-3100000Y-2500000D02*
X-600000Y-5000000D01*
X7600000Y-2550000D02*
X5550000Y-2550000D01*
D15*
X15375000Y-2762500D02*
X15375000Y-4637500D01*
X12125000Y2962500D02*
X12125000Y2273959D01*
D16*
X10000000Y-5562500D02*
X11300000Y-6862500D01*
D15*
X15375000Y143000D02*
X15375000Y-2762500D01*
X15375000Y-4637500D02*
X14981250Y-5031250D01*
D16*
X11300000Y-6862500D02*
X13150000Y-6862500D01*
D15*
X13425000Y-2762500D02*
X13425000Y-3451041D01*
X14981250Y-5031250D02*
X13150000Y-6862500D01*
X13425000Y-3451041D02*
X14981250Y-5007291D01*
D16*
X8382500Y-1300000D02*
X8382500Y-1767500D01*
X10000000Y-2250000D02*
X10000000Y-5562500D01*
D15*
X13618000Y1900000D02*
X15375000Y143000D01*
X12775000Y-2762500D02*
X13425000Y-2762500D01*
D16*
X8382500Y-1300000D02*
X9050000Y-1300000D01*
D15*
X12498959Y1900000D02*
X13618000Y1900000D01*
D16*
X-600000Y-5000000D02*
X3100000Y-5000000D01*
X8382500Y-1767500D02*
X7600000Y-2550000D01*
D15*
X12125000Y2273959D02*
X12498959Y1900000D01*
D16*
X3100000Y-5000000D02*
G75*
G03*
X5550000Y-2550000I0J2450000D01*
G01*
D17*
%TO.N,F0*%
X-5758291Y1972291D02*
X-5758291Y2987150D01*
X-5742000Y1956000D02*
X-5758291Y1972291D01*
X-3084006Y5200000D02*
X3100000Y5200000D01*
X14075000Y-1859000D02*
X14075000Y-2762500D01*
X9516000Y2700000D02*
X14075000Y-1859000D01*
X5800000Y2700000D02*
X9516000Y2700000D01*
X-3100000Y5200021D02*
G75*
G03*
X-5758290Y2987150I2000J-2705521D01*
G01*
X5792888Y2695846D02*
G75*
G03*
X3100000Y5200000I-2692888J-195846D01*
G01*
D15*
%TO.N,F1*%
X14725000Y-1519756D02*
X14725000Y-2762500D01*
X5285977Y-19939D02*
X5285977Y-12932D01*
X-8973924Y-5924D02*
X-10568000Y-1600000D01*
X13440372Y-235128D02*
X14725000Y-1519756D01*
X-10568000Y-1600000D02*
X-10568000Y-4013000D01*
X5285977Y-19939D02*
X5271962Y-5924D01*
X5285977Y-12932D02*
X5278969Y-5924D01*
X5271962Y-5924D02*
X-8973924Y-5924D01*
%TO.N,F2*%
X15396000Y1194000D02*
X14725000Y1865000D01*
X14725000Y1865000D02*
X14725000Y2962500D01*
%TO.N,F3*%
X13050000Y5300000D02*
X12050000Y5300000D01*
X14075000Y2962500D02*
X14075000Y4275000D01*
X14075000Y4275000D02*
X13050000Y5300000D01*
%TD*%
%TA.AperFunction,Conductor*%
%TO.N,GND*%
G36*
X-8471056Y14664506D02*
G01*
X-8424854Y14618594D01*
X-5036826Y8739369D01*
X-5020263Y8677355D01*
X-5036927Y8615368D01*
X-5082352Y8570018D01*
X-5219400Y8491045D01*
X-5219430Y8491027D01*
X-5220939Y8490157D01*
X-5222400Y8489201D01*
X-5222418Y8489189D01*
X-5695358Y8179418D01*
X-5695391Y8179396D01*
X-5696846Y8178442D01*
X-5698266Y8177392D01*
X-5698281Y8177381D01*
X-6152766Y7841139D01*
X-6152800Y7841113D01*
X-6154194Y7840081D01*
X-6155533Y7838968D01*
X-6155562Y7838944D01*
X-6590122Y7477316D01*
X-6590134Y7477306D01*
X-6591490Y7476177D01*
X-6592784Y7474970D01*
X-6592794Y7474960D01*
X-7006004Y7089139D01*
X-7006035Y7089109D01*
X-7007312Y7087916D01*
X-7008517Y7086655D01*
X-7008543Y7086629D01*
X-7399088Y6677836D01*
X-7399108Y6677815D01*
X-7400304Y6676562D01*
X-7401432Y6675239D01*
X-7401447Y6675221D01*
X-7768037Y6244804D01*
X-7768053Y6244785D01*
X-7769185Y6243455D01*
X-7770237Y6242068D01*
X-7770260Y6242038D01*
X-8111674Y5791434D01*
X-8112754Y5790008D01*
X-8113744Y5788534D01*
X-8113748Y5788528D01*
X-8428911Y5319158D01*
X-8428922Y5319142D01*
X-8429892Y5317696D01*
X-8430785Y5316188D01*
X-8430786Y5316185D01*
X-8716447Y4833329D01*
X-8719565Y4828059D01*
X-8720359Y4826525D01*
X-8720368Y4826507D01*
X-8980023Y4324253D01*
X-8980829Y4322693D01*
X-8981542Y4321098D01*
X-8981551Y4321078D01*
X-9212115Y3804855D01*
X-9212127Y3804827D01*
X-9212834Y3803243D01*
X-9213452Y3801618D01*
X-9213459Y3801599D01*
X-9410066Y3283928D01*
X-9414823Y3271402D01*
X-9415350Y3269734D01*
X-9415357Y3269713D01*
X-9495704Y3015266D01*
X-9495704Y3015264D01*
X-9500466Y3000183D01*
X-9500541Y3000000D01*
X-9500532Y2999978D01*
X-9500627Y2999674D01*
X-9500175Y2999532D01*
X-9500099Y2999500D01*
X-9500076Y2999500D01*
X-9499674Y2999373D01*
X-9499634Y2999500D01*
X-6200500Y2999500D01*
X-6199901Y2999500D01*
X-6199500Y2999500D01*
X-6199500Y2999901D01*
X-6199459Y3000000D01*
X-6199496Y3000088D01*
X-6199487Y3000257D01*
X-6158599Y3001594D01*
X-6107304Y2978352D01*
X-6071579Y2934821D01*
X-6058791Y2879977D01*
X-6058791Y2530982D01*
X-6071579Y2476138D01*
X-6107305Y2432606D01*
X-6163836Y2389229D01*
X-6163840Y2389226D01*
X-6170282Y2384282D01*
X-6175226Y2377840D01*
X-6175229Y2377836D01*
X-6261589Y2265289D01*
X-6261592Y2265286D01*
X-6266536Y2258841D01*
X-6269645Y2251338D01*
X-6269646Y2251334D01*
X-6323934Y2120272D01*
X-6323936Y2120267D01*
X-6327044Y2112762D01*
X-6328104Y2104711D01*
X-6328106Y2104703D01*
X-6341912Y1999826D01*
X-6347682Y1956000D01*
X-6346621Y1947941D01*
X-6328106Y1807298D01*
X-6328105Y1807292D01*
X-6327044Y1799238D01*
X-6323935Y1791732D01*
X-6323934Y1791729D01*
X-6277608Y1679888D01*
X-6266536Y1653159D01*
X-6170282Y1527718D01*
X-6044841Y1431464D01*
X-5898762Y1370956D01*
X-5742000Y1350318D01*
X-5585238Y1370956D01*
X-5439159Y1431464D01*
X-5422043Y1444599D01*
X-5372184Y1467546D01*
X-5317298Y1466722D01*
X-5268145Y1442283D01*
X-5234359Y1399020D01*
X-5208953Y1345030D01*
X-5205209Y1338219D01*
X-5047570Y1089819D01*
X-5042994Y1083521D01*
X-4975727Y1002210D01*
X-4964425Y994442D01*
X-4952443Y1001112D01*
X-3453553Y2500000D01*
X-2741569Y2500000D01*
X-2734905Y2488458D01*
X-1247559Y1001112D01*
X-1235576Y994442D01*
X-1224277Y1002207D01*
X-1157003Y1083526D01*
X-1152432Y1089818D01*
X-994793Y1338218D01*
X-991051Y1345024D01*
X-865782Y1611235D01*
X-862922Y1618459D01*
X-772010Y1898255D01*
X-770074Y1905794D01*
X-714947Y2194780D01*
X-713973Y2202500D01*
X-695500Y2496106D01*
X-695500Y2503894D01*
X-713973Y2797501D01*
X-714947Y2805221D01*
X-770074Y3094207D01*
X-772010Y3101746D01*
X-862922Y3381542D01*
X-865782Y3388766D01*
X-991051Y3654977D01*
X-994793Y3661783D01*
X-1152431Y3910182D01*
X-1157007Y3916480D01*
X-1224275Y3997792D01*
X-1235577Y4005560D01*
X-1247559Y3998890D01*
X-2734905Y2511543D01*
X-2741569Y2500000D01*
X-3453553Y2500000D01*
X-3100000Y2853553D01*
X-1596073Y4357482D01*
X-1590169Y4366706D01*
X-1597440Y4374889D01*
X-1808321Y4528103D01*
X-1814885Y4532268D01*
X-2059666Y4666838D01*
X-2106261Y4711710D01*
X-2123918Y4773942D01*
X-2107831Y4836598D01*
X-2062377Y4882627D01*
X-1999928Y4899500D01*
X3052405Y4899500D01*
X3096430Y4899500D01*
X3103571Y4899294D01*
X3368790Y4883995D01*
X3382950Y4882356D01*
X3641142Y4837273D01*
X3655031Y4834013D01*
X3906314Y4759543D01*
X3919743Y4754706D01*
X4160800Y4651832D01*
X4173576Y4645486D01*
X4320962Y4561371D01*
X4401190Y4515584D01*
X4413167Y4507802D01*
X4624337Y4352585D01*
X4635339Y4343478D01*
X4748147Y4238575D01*
X4827256Y4165011D01*
X4837138Y4154698D01*
X4860596Y4127210D01*
X4955204Y4016346D01*
X5007259Y3955348D01*
X5015887Y3943970D01*
X5152919Y3739842D01*
X5161956Y3726381D01*
X5169220Y3714086D01*
X5181501Y3690262D01*
X5289304Y3481133D01*
X5295106Y3468082D01*
X5387602Y3222876D01*
X5391865Y3209244D01*
X5455551Y2955027D01*
X5458218Y2940996D01*
X5492717Y2677571D01*
X5493440Y2670465D01*
X5495873Y2637007D01*
X5496632Y2626580D01*
X5532536Y2538422D01*
X5551598Y2515833D01*
X5568523Y2495775D01*
X5593925Y2465673D01*
X5674790Y2415456D01*
X5767216Y2392685D01*
X5856421Y2399174D01*
X5865416Y2399500D01*
X6789811Y2399500D01*
X6846106Y2385985D01*
X6890129Y2348385D01*
X6912284Y2294898D01*
X6907742Y2237182D01*
X6877493Y2187821D01*
X6802435Y2112762D01*
X6733714Y2044041D01*
X6725744Y2036738D01*
X6717137Y2029515D01*
X6679840Y2007979D01*
X6637426Y2000500D01*
X6430252Y2000500D01*
X6424277Y1999312D01*
X6424271Y1999311D01*
X6383747Y1991250D01*
X6383745Y1991250D01*
X6371769Y1988867D01*
X6361618Y1982085D01*
X6361615Y1982083D01*
X6315601Y1951337D01*
X6315598Y1951335D01*
X6305448Y1944552D01*
X6298665Y1934402D01*
X6298663Y1934399D01*
X6267917Y1888385D01*
X6267915Y1888382D01*
X6261133Y1878231D01*
X6258750Y1866255D01*
X6258750Y1866253D01*
X6255579Y1850309D01*
X6232338Y1799014D01*
X6188806Y1763288D01*
X6133962Y1750500D01*
X5238508Y1750500D01*
X5181460Y1764402D01*
X5137204Y1802991D01*
X5115663Y1857615D01*
X5121667Y1916024D01*
X5127334Y1931968D01*
X5185798Y2213314D01*
X5205408Y2500000D01*
X5185798Y2786686D01*
X5127334Y3068032D01*
X5031104Y3338797D01*
X4898901Y3593936D01*
X4756143Y3796179D01*
X4735633Y3825236D01*
X4735630Y3825239D01*
X4733189Y3828698D01*
X4575266Y3997792D01*
X4539940Y4035617D01*
X4539938Y4035619D01*
X4537053Y4038708D01*
X4533771Y4041378D01*
X4533768Y4041381D01*
X4317429Y4217385D01*
X4317428Y4217386D01*
X4314147Y4220055D01*
X4176423Y4303807D01*
X4072243Y4367161D01*
X4072241Y4367162D01*
X4068625Y4369361D01*
X4064745Y4371047D01*
X4064738Y4371050D01*
X3808939Y4482159D01*
X3808929Y4482163D01*
X3805058Y4483844D01*
X3767269Y4494432D01*
X3532437Y4560229D01*
X3532424Y4560232D01*
X3528358Y4561371D01*
X3524168Y4561947D01*
X3524158Y4561949D01*
X3247875Y4599924D01*
X3247862Y4599925D01*
X3243678Y4600500D01*
X2956322Y4600500D01*
X2952138Y4599925D01*
X2952124Y4599924D01*
X2675841Y4561949D01*
X2675828Y4561947D01*
X2671642Y4561371D01*
X2667577Y4560233D01*
X2667562Y4560229D01*
X2399013Y4484985D01*
X2399008Y4484984D01*
X2394942Y4483844D01*
X2391075Y4482165D01*
X2391060Y4482159D01*
X2135261Y4371050D01*
X2135248Y4371044D01*
X2131375Y4369361D01*
X2127764Y4367166D01*
X2127756Y4367161D01*
X1889465Y4222252D01*
X1889460Y4222249D01*
X1885853Y4220055D01*
X1882578Y4217391D01*
X1882570Y4217385D01*
X1666231Y4041381D01*
X1666220Y4041372D01*
X1662947Y4038708D01*
X1660068Y4035626D01*
X1660059Y4035617D01*
X1469699Y3831791D01*
X1469694Y3831786D01*
X1466811Y3828698D01*
X1464375Y3825248D01*
X1464366Y3825236D01*
X1303545Y3597402D01*
X1303541Y3597397D01*
X1301099Y3593936D01*
X1299153Y3590182D01*
X1299149Y3590174D01*
X1170845Y3342560D01*
X1170840Y3342550D01*
X1168896Y3338797D01*
X1167479Y3334812D01*
X1167475Y3334801D01*
X1074085Y3072026D01*
X1072666Y3068032D01*
X1071804Y3063887D01*
X1071803Y3063881D01*
X1015063Y2790833D01*
X1015061Y2790823D01*
X1014202Y2786686D01*
X1013913Y2782471D01*
X1013913Y2782466D01*
X997220Y2538422D01*
X994592Y2500000D01*
X994881Y2495775D01*
X1013875Y2218086D01*
X1014202Y2213314D01*
X1015061Y2209176D01*
X1015063Y2209168D01*
X1056871Y2007979D01*
X1072666Y1931968D01*
X1074084Y1927977D01*
X1074085Y1927975D01*
X1164112Y1674662D01*
X1168896Y1661203D01*
X1170843Y1657445D01*
X1170845Y1657441D01*
X1250721Y1503289D01*
X1301099Y1406064D01*
X1303545Y1402599D01*
X1464366Y1174765D01*
X1464370Y1174760D01*
X1466811Y1171302D01*
X1469699Y1168210D01*
X1625757Y1001112D01*
X1662947Y961292D01*
X1666228Y958623D01*
X1666231Y958620D01*
X1749152Y891159D01*
X1885853Y779945D01*
X2131375Y630639D01*
X2271415Y569811D01*
X2300196Y557310D01*
X2352098Y515084D01*
X2374505Y452038D01*
X2360892Y386528D01*
X2315222Y337628D01*
X2250794Y319576D01*
X-1636341Y319576D01*
X-1696078Y334914D01*
X-1741038Y377133D01*
X-1760096Y435790D01*
X-1748540Y496372D01*
X-1709227Y543894D01*
X-1597440Y625113D01*
X-1590169Y633296D01*
X-1596073Y642520D01*
X-3088458Y2134905D01*
X-3100000Y2141569D01*
X-3111543Y2134905D01*
X-4603929Y642520D01*
X-4609833Y633296D01*
X-4602562Y625113D01*
X-4490774Y543894D01*
X-4451461Y496372D01*
X-4439905Y435790D01*
X-4458963Y377133D01*
X-4503923Y334914D01*
X-4563660Y319576D01*
X-8954297Y319576D01*
X-8965105Y320048D01*
X-8991925Y322395D01*
X-8991928Y322395D01*
X-9002731Y323340D01*
X-9039227Y313562D01*
X-9049775Y311223D01*
X-9076289Y306548D01*
X-9076293Y306547D01*
X-9086969Y304664D01*
X-9096358Y299245D01*
X-9099806Y297989D01*
X-9103136Y296437D01*
X-9113608Y293630D01*
X-9144553Y271964D01*
X-9153660Y266162D01*
X-9176984Y252696D01*
X-9176990Y252692D01*
X-9186379Y247270D01*
X-9193350Y238964D01*
X-9193351Y238962D01*
X-9210662Y218332D01*
X-9217968Y210360D01*
X-10784286Y-1355958D01*
X-10792258Y-1363264D01*
X-10812886Y-1380573D01*
X-10812888Y-1380574D01*
X-10821194Y-1387545D01*
X-10826616Y-1396934D01*
X-10826620Y-1396940D01*
X-10840086Y-1420264D01*
X-10845888Y-1429371D01*
X-10867554Y-1460316D01*
X-10870361Y-1470788D01*
X-10871913Y-1474118D01*
X-10873169Y-1477566D01*
X-10878588Y-1486955D01*
X-10880471Y-1497631D01*
X-10880472Y-1497635D01*
X-10885147Y-1524149D01*
X-10887486Y-1534697D01*
X-10897264Y-1571193D01*
X-10896319Y-1581996D01*
X-10896319Y-1581999D01*
X-10893972Y-1608819D01*
X-10893500Y-1619627D01*
X-10893500Y-3444701D01*
X-10906288Y-3499545D01*
X-10942014Y-3543077D01*
X-10989836Y-3579771D01*
X-10989840Y-3579774D01*
X-10996282Y-3584718D01*
X-11001226Y-3591160D01*
X-11001229Y-3591164D01*
X-11087589Y-3703711D01*
X-11087592Y-3703714D01*
X-11092536Y-3710159D01*
X-11095645Y-3717662D01*
X-11095646Y-3717666D01*
X-11149934Y-3848728D01*
X-11149936Y-3848733D01*
X-11153044Y-3856238D01*
X-11154104Y-3864289D01*
X-11154106Y-3864297D01*
X-11172298Y-4002482D01*
X-11173682Y-4013000D01*
X-11172621Y-4021059D01*
X-11154106Y-4161702D01*
X-11154105Y-4161708D01*
X-11153044Y-4169762D01*
X-11149935Y-4177268D01*
X-11149934Y-4177271D01*
X-11095831Y-4307887D01*
X-11092536Y-4315841D01*
X-10996282Y-4441282D01*
X-10870841Y-4537536D01*
X-10724762Y-4598044D01*
X-10568000Y-4618682D01*
X-10411238Y-4598044D01*
X-10265159Y-4537536D01*
X-10139718Y-4441282D01*
X-10043464Y-4315841D01*
X-9982956Y-4169762D01*
X-9962318Y-4013000D01*
X-9982956Y-3856238D01*
X-10043464Y-3710159D01*
X-10139718Y-3584718D01*
X-10155296Y-3572765D01*
X-10193986Y-3543077D01*
X-10229712Y-3499545D01*
X-10242500Y-3444701D01*
X-10242500Y-1786188D01*
X-10233061Y-1738735D01*
X-10206181Y-1698507D01*
X-8875417Y-367743D01*
X-8835189Y-340863D01*
X-8787736Y-331424D01*
X-3976483Y-331424D01*
X-3912055Y-349476D01*
X-3866385Y-398376D01*
X-3852772Y-463886D01*
X-3875179Y-526932D01*
X-3927081Y-569158D01*
X-4064739Y-628950D01*
X-4064752Y-628956D01*
X-4068625Y-630639D01*
X-4072236Y-632834D01*
X-4072244Y-632839D01*
X-4310535Y-777748D01*
X-4310540Y-777751D01*
X-4314147Y-779945D01*
X-4317422Y-782609D01*
X-4317430Y-782615D01*
X-4533769Y-958619D01*
X-4533780Y-958628D01*
X-4537053Y-961292D01*
X-4539932Y-964374D01*
X-4539941Y-964383D01*
X-4730301Y-1168209D01*
X-4730306Y-1168214D01*
X-4733189Y-1171302D01*
X-4735625Y-1174752D01*
X-4735634Y-1174764D01*
X-4896455Y-1402598D01*
X-4896459Y-1402603D01*
X-4898901Y-1406064D01*
X-4900847Y-1409818D01*
X-4900851Y-1409826D01*
X-5029155Y-1657440D01*
X-5029160Y-1657450D01*
X-5031104Y-1661203D01*
X-5032521Y-1665188D01*
X-5032525Y-1665199D01*
X-5125497Y-1926798D01*
X-5127334Y-1931968D01*
X-5128196Y-1936113D01*
X-5128197Y-1936119D01*
X-5184937Y-2209167D01*
X-5184939Y-2209177D01*
X-5185798Y-2213314D01*
X-5186087Y-2217529D01*
X-5186087Y-2217534D01*
X-5201339Y-2440512D01*
X-5205408Y-2500000D01*
X-5185798Y-2786686D01*
X-5184939Y-2790824D01*
X-5184937Y-2790832D01*
X-5130470Y-3052942D01*
X-5127334Y-3068032D01*
X-5125916Y-3072023D01*
X-5125915Y-3072025D01*
X-5041269Y-3310197D01*
X-5031104Y-3338797D01*
X-5029157Y-3342555D01*
X-5029155Y-3342559D01*
X-4900851Y-3590173D01*
X-4898901Y-3593936D01*
X-4896455Y-3597401D01*
X-4735634Y-3825235D01*
X-4735630Y-3825240D01*
X-4733189Y-3828698D01*
X-4537053Y-4038708D01*
X-4533772Y-4041377D01*
X-4533769Y-4041380D01*
X-4494423Y-4073390D01*
X-4314147Y-4220055D01*
X-4068625Y-4369361D01*
X-4064740Y-4371048D01*
X-4064739Y-4371049D01*
X-3850323Y-4464183D01*
X-3805058Y-4483844D01*
X-3613427Y-4537536D01*
X-3532438Y-4560228D01*
X-3532436Y-4560228D01*
X-3528358Y-4561371D01*
X-3243678Y-4600500D01*
X-2960559Y-4600500D01*
X-2956322Y-4600500D01*
X-2671642Y-4561371D01*
X-2394942Y-4483844D01*
X-2131375Y-4369361D01*
X-2050667Y-4320280D01*
X-1998920Y-4302878D01*
X-1944713Y-4309387D01*
X-1898557Y-4338547D01*
X-941370Y-5295733D01*
X-932104Y-5306101D01*
X-928019Y-5311224D01*
X-909879Y-5333970D01*
X-902202Y-5339204D01*
X-902201Y-5339205D01*
X-868091Y-5362461D01*
X-827020Y-5409487D01*
X-814071Y-5470565D01*
X-832527Y-5530211D01*
X-877708Y-5573303D01*
X-938161Y-5588915D01*
X-2419981Y-5586297D01*
X-2419982Y-5586296D01*
X-2419982Y-5586297D01*
X-3499766Y-5583889D01*
X-3499934Y-5583888D01*
X-3499934Y-5583867D01*
X-3500344Y-5583884D01*
X-3501203Y-5583877D01*
X-3613111Y-5582330D01*
X-3613659Y-5582321D01*
X-3798013Y-5578957D01*
X-3811676Y-5577951D01*
X-3947370Y-5560379D01*
X-3948999Y-5560157D01*
X-4104388Y-5537936D01*
X-4116760Y-5535520D01*
X-4254790Y-5501193D01*
X-4257440Y-5500502D01*
X-4403664Y-5460689D01*
X-4414609Y-5457156D01*
X-4477921Y-5433420D01*
X-4549775Y-5406481D01*
X-4553346Y-5405079D01*
X-4691588Y-5348312D01*
X-4701046Y-5343955D01*
X-4830446Y-5277630D01*
X-4834792Y-5275292D01*
X-4964035Y-5202414D01*
X-4971973Y-5197536D01*
X-5093414Y-5116471D01*
X-5098336Y-5113010D01*
X-5181613Y-5051364D01*
X-5217162Y-5025048D01*
X-5223592Y-5019949D01*
X-5335159Y-4925297D01*
X-5340406Y-4920580D01*
X-5447361Y-4818714D01*
X-5452360Y-4813671D01*
X-5552342Y-4706838D01*
X-5557730Y-4700683D01*
X-5651373Y-4586283D01*
X-5655077Y-4581527D01*
X-5656855Y-4579125D01*
X-5741978Y-4464155D01*
X-5747208Y-4456507D01*
X-5826294Y-4330965D01*
X-5828832Y-4326753D01*
X-5828928Y-4326587D01*
X-5901399Y-4200706D01*
X-5906211Y-4191471D01*
X-5969628Y-4056192D01*
X-5971203Y-4052693D01*
X-5984855Y-4021059D01*
X-6028415Y-3920125D01*
X-6032471Y-3909381D01*
X-6079388Y-3765183D01*
X-6080163Y-3762712D01*
X-6121191Y-3626450D01*
X-6124205Y-3614214D01*
X-6153982Y-3460024D01*
X-6154232Y-3458685D01*
X-6178430Y-3323795D01*
X-6180100Y-3310197D01*
X-6192638Y-3123084D01*
X-6199511Y-3013343D01*
X-6199459Y-3013217D01*
X-6199501Y-3013116D01*
X-6199503Y-3012715D01*
X-6199903Y-3012717D01*
X-6216086Y-3012728D01*
X-6216088Y-3012728D01*
X-9531312Y-3015106D01*
X-9531313Y-3015106D01*
X-9549099Y-3015119D01*
X-9549139Y-3014993D01*
X-9549542Y-3015119D01*
X-9549564Y-3015120D01*
X-9549640Y-3015151D01*
X-9550092Y-3015294D01*
X-9549997Y-3015597D01*
X-9550006Y-3015620D01*
X-9549937Y-3015788D01*
X-9545263Y-3030590D01*
X-9545263Y-3030592D01*
X-9472404Y-3261322D01*
X-9463841Y-3288439D01*
X-9463212Y-3290095D01*
X-9463211Y-3290098D01*
X-9281594Y-3768298D01*
X-9260795Y-3823060D01*
X-9260083Y-3824655D01*
X-9260076Y-3824671D01*
X-9156670Y-4056192D01*
X-9027577Y-4345224D01*
X-9026771Y-4346783D01*
X-8785611Y-4813259D01*
X-8764945Y-4853232D01*
X-8664213Y-5023498D01*
X-8477437Y-5339205D01*
X-8473756Y-5345426D01*
X-8472789Y-5346867D01*
X-8472784Y-5346874D01*
X-8227652Y-5711943D01*
X-8154958Y-5820204D01*
X-8153901Y-5821599D01*
X-8153891Y-5821613D01*
X-7982734Y-6047505D01*
X-7809590Y-6276020D01*
X-7808446Y-6277363D01*
X-7445795Y-6703148D01*
X-7438777Y-6711387D01*
X-7043728Y-7124887D01*
X-6625729Y-7515174D01*
X-6624367Y-7516307D01*
X-6624364Y-7516310D01*
X-6187509Y-7879838D01*
X-6187498Y-7879846D01*
X-6186142Y-7880975D01*
X-5726400Y-8221098D01*
X-5724940Y-8222054D01*
X-5724926Y-8222064D01*
X-5411086Y-8427620D01*
X-5248001Y-8534436D01*
X-5246458Y-8535325D01*
X-5108130Y-8615034D01*
X-5062703Y-8660384D01*
X-5046039Y-8722373D01*
X-5062603Y-8784388D01*
X-8424853Y-14618596D01*
X-8471056Y-14664507D01*
X-8534153Y-14680667D01*
X-8596737Y-14662617D01*
X-9177090Y-14309552D01*
X-9182061Y-14306363D01*
X-9663178Y-13981304D01*
X-9663228Y-13981270D01*
X-9854768Y-13851395D01*
X-9859387Y-13848105D01*
X-10272927Y-13539031D01*
X-10273201Y-13538826D01*
X-10510405Y-13360518D01*
X-10514776Y-13357076D01*
X-10891369Y-13046599D01*
X-10891740Y-13046292D01*
X-11141641Y-12838632D01*
X-11145737Y-12835074D01*
X-11145748Y-12835064D01*
X-11495746Y-12517338D01*
X-11495978Y-12517126D01*
X-11747020Y-12286938D01*
X-11750813Y-12283308D01*
X-12078228Y-11956320D01*
X-12078761Y-11955785D01*
X-12325074Y-11706778D01*
X-12328620Y-11703041D01*
X-12635472Y-11365910D01*
X-12636070Y-11365248D01*
X-12874541Y-11099425D01*
X-12874543Y-11099423D01*
X-12874553Y-11099411D01*
X-12877775Y-11095670D01*
X-13165140Y-10748039D01*
X-13165665Y-10747398D01*
X-13394082Y-10466353D01*
X-13397082Y-10462510D01*
X-13595446Y-10197824D01*
X-13665367Y-10104525D01*
X-13665915Y-10103786D01*
X-13882520Y-9809014D01*
X-13885245Y-9805153D01*
X-14066088Y-9538243D01*
X-14134617Y-9437099D01*
X-14135225Y-9436191D01*
X-14338729Y-9128919D01*
X-14341162Y-9125094D01*
X-14571471Y-8747635D01*
X-14572215Y-8746400D01*
X-14613600Y-8676765D01*
X-14761668Y-8427620D01*
X-14763824Y-8423837D01*
X-14975038Y-8037412D01*
X-14975765Y-8036061D01*
X-14998277Y-7993598D01*
X-15150275Y-7706890D01*
X-15152229Y-7703043D01*
X-15214245Y-7575500D01*
X-15344154Y-7308327D01*
X-15344866Y-7306835D01*
X-15503736Y-6968255D01*
X-15505452Y-6964433D01*
X-15528372Y-6910959D01*
X-15677913Y-6562074D01*
X-15678518Y-6560633D01*
X-15821222Y-6213447D01*
X-15822694Y-6209692D01*
X-15828501Y-6194138D01*
X-15975409Y-5800618D01*
X-15976082Y-5798771D01*
X-15987134Y-5767649D01*
X-16101979Y-5444255D01*
X-16103222Y-5440569D01*
X-16236062Y-5025379D01*
X-16236622Y-5023574D01*
X-16345364Y-4662449D01*
X-16346354Y-4658971D01*
X-16459124Y-4238475D01*
X-16459644Y-4236465D01*
X-16550790Y-3869945D01*
X-16551605Y-3866452D01*
X-16644099Y-3441630D01*
X-16644579Y-3439312D01*
X-16717829Y-3068426D01*
X-16718440Y-3065086D01*
X-16790545Y-2636659D01*
X-16790916Y-2634298D01*
X-16846066Y-2259874D01*
X-16846498Y-2256643D01*
X-16898089Y-1825518D01*
X-16898358Y-1823030D01*
X-16935224Y-1446097D01*
X-16935491Y-1442948D01*
X-16935496Y-1442880D01*
X-16966469Y-1010191D01*
X-16966636Y-1007399D01*
X-16967295Y-993896D01*
X-16985099Y-628950D01*
X-16985205Y-626038D01*
X-16995536Y-192367D01*
X-16995571Y-189414D01*
X-16995571Y189414D01*
X-16995536Y192367D01*
X-16993272Y287409D01*
X-16985205Y626043D01*
X-16985096Y629013D01*
X-16966633Y1007452D01*
X-16966467Y1010211D01*
X-16963955Y1045298D01*
X-16935487Y1442999D01*
X-16935223Y1446115D01*
X-16898354Y1823074D01*
X-16898091Y1825498D01*
X-16846496Y2256664D01*
X-16846069Y2259856D01*
X-16790903Y2634389D01*
X-16790550Y2636625D01*
X-16718435Y3065113D01*
X-16717834Y3068402D01*
X-16644563Y3439395D01*
X-16644108Y3441588D01*
X-16551599Y3866484D01*
X-16550798Y3869916D01*
X-16459630Y4236520D01*
X-16459138Y4238424D01*
X-16346344Y4659009D01*
X-16345375Y4662416D01*
X-16236603Y5023640D01*
X-16236086Y5025302D01*
X-16103201Y5440634D01*
X-16101993Y5444218D01*
X-15976045Y5798878D01*
X-15975443Y5800529D01*
X-15822671Y6209755D01*
X-15821239Y6213407D01*
X-15678479Y6560729D01*
X-15677960Y6561966D01*
X-15505430Y6964486D01*
X-15503740Y6968247D01*
X-15344809Y7306958D01*
X-15344212Y7308209D01*
X-15152200Y7703104D01*
X-15150299Y7706845D01*
X-14975675Y8036232D01*
X-14975121Y8037261D01*
X-14763797Y8423888D01*
X-14761696Y8427574D01*
X-14572136Y8746535D01*
X-14571569Y8747476D01*
X-14341132Y9125144D01*
X-14338761Y9128871D01*
X-14135086Y9436402D01*
X-14134755Y9436897D01*
X-13885217Y9805195D01*
X-13882541Y9808988D01*
X-13665763Y10103993D01*
X-13665530Y10104308D01*
X-13397063Y10462538D01*
X-13394082Y10466355D01*
X-13394079Y10466359D01*
X-13165544Y10747548D01*
X-13165343Y10747794D01*
X-12877734Y11095721D01*
X-12874596Y11099364D01*
X-12635823Y11365525D01*
X-12328583Y11703083D01*
X-12325111Y11706742D01*
X-12078529Y11956021D01*
X-11750759Y12283363D01*
X-11747070Y12286893D01*
X-11495838Y12517255D01*
X-11145683Y12835124D01*
X-11141695Y12838588D01*
X-10891763Y13046275D01*
X-10514726Y13357118D01*
X-10510456Y13360481D01*
X-10273087Y13538913D01*
X-10272927Y13539032D01*
X-10117149Y13655460D01*
X-9859361Y13848127D01*
X-9854826Y13851357D01*
X-9663451Y13981120D01*
X-9182033Y14306383D01*
X-9177118Y14309536D01*
X-8596737Y14662618D01*
X-8534154Y14680667D01*
X-8471056Y14664506D01*
G37*
%TD.AperFunction*%
%TA.AperFunction,Conductor*%
G36*
X8595705Y14662493D02*
G01*
X9175861Y14309547D01*
X9180814Y14306370D01*
X9661641Y13981507D01*
X9661921Y13981318D01*
X9853547Y13851385D01*
X9858135Y13848117D01*
X9858149Y13848107D01*
X10271481Y13539189D01*
X10509191Y13360501D01*
X10513534Y13357080D01*
X10781164Y13136436D01*
X10889955Y13046745D01*
X10890326Y13046438D01*
X11140413Y12838624D01*
X11144501Y12835073D01*
X11494475Y12517369D01*
X11745751Y12286967D01*
X11745764Y12286955D01*
X11749585Y12283299D01*
X12076907Y11956405D01*
X12077440Y11955869D01*
X12323845Y11706769D01*
X12327391Y11703032D01*
X12634140Y11366014D01*
X12634738Y11365352D01*
X12873301Y11099425D01*
X12876573Y11095626D01*
X13163824Y10748133D01*
X13164478Y10747336D01*
X13392840Y10466359D01*
X13395840Y10462515D01*
X13664044Y10104638D01*
X13664740Y10103700D01*
X13881280Y9809016D01*
X13884013Y9805144D01*
X14133258Y9437278D01*
X14133985Y9436193D01*
X14337485Y9128926D01*
X14339954Y9125043D01*
X14570206Y8747678D01*
X14570950Y8746443D01*
X14760412Y8427650D01*
X14762623Y8423771D01*
X14973758Y8037488D01*
X14974507Y8036097D01*
X15149034Y7706893D01*
X15150994Y7703035D01*
X15342872Y7308415D01*
X15343612Y7306866D01*
X15502501Y6968247D01*
X15504217Y6964424D01*
X15676605Y6562236D01*
X15677323Y6560526D01*
X15819979Y6213456D01*
X15821458Y6209683D01*
X15974155Y5800658D01*
X15974837Y5798787D01*
X16100733Y5444275D01*
X16101984Y5440565D01*
X16234774Y5025534D01*
X16235406Y5023500D01*
X16344109Y4662505D01*
X16345143Y4658872D01*
X16457859Y4238575D01*
X16458426Y4236380D01*
X16549543Y3869979D01*
X16550370Y3866434D01*
X16642851Y3441671D01*
X16643339Y3439317D01*
X16716582Y3068460D01*
X16717212Y3065014D01*
X16789280Y2636811D01*
X16789676Y2634300D01*
X16844825Y2259885D01*
X16845271Y2256549D01*
X16896829Y1825695D01*
X16897118Y1823032D01*
X16933984Y1446099D01*
X16934257Y1442882D01*
X16965224Y1010263D01*
X16965393Y1007452D01*
X16983855Y629013D01*
X16983967Y625925D01*
X16994297Y192409D01*
X16994332Y189455D01*
X16994332Y-189455D01*
X16994297Y-192409D01*
X16983967Y-625923D01*
X16983855Y-629011D01*
X16965393Y-1007450D01*
X16965224Y-1010261D01*
X16934257Y-1442880D01*
X16933984Y-1446097D01*
X16897118Y-1823030D01*
X16896829Y-1825693D01*
X16845271Y-2256547D01*
X16844825Y-2259883D01*
X16789676Y-2634298D01*
X16789280Y-2636809D01*
X16717212Y-3065012D01*
X16716582Y-3068458D01*
X16643339Y-3439315D01*
X16642851Y-3441669D01*
X16550370Y-3866432D01*
X16549543Y-3869977D01*
X16458426Y-4236378D01*
X16457859Y-4238573D01*
X16345143Y-4658870D01*
X16344109Y-4662503D01*
X16235406Y-5023498D01*
X16234774Y-5025532D01*
X16101984Y-5440563D01*
X16100733Y-5444273D01*
X15974837Y-5798785D01*
X15974155Y-5800656D01*
X15821458Y-6209681D01*
X15819979Y-6213454D01*
X15677323Y-6560524D01*
X15676605Y-6562234D01*
X15504217Y-6964422D01*
X15502501Y-6968245D01*
X15343612Y-7306864D01*
X15342872Y-7308413D01*
X15150994Y-7703033D01*
X15149034Y-7706891D01*
X14974507Y-8036095D01*
X14973758Y-8037486D01*
X14762623Y-8423769D01*
X14760412Y-8427648D01*
X14570950Y-8746441D01*
X14570206Y-8747676D01*
X14339954Y-9125041D01*
X14337485Y-9128924D01*
X14133985Y-9436191D01*
X14133258Y-9437276D01*
X13884013Y-9805142D01*
X13881280Y-9809014D01*
X13664740Y-10103698D01*
X13664044Y-10104636D01*
X13395840Y-10462513D01*
X13392840Y-10466357D01*
X13164478Y-10747334D01*
X13163824Y-10748131D01*
X12876573Y-11095624D01*
X12873301Y-11099423D01*
X12634738Y-11365350D01*
X12634140Y-11366012D01*
X12327391Y-11703030D01*
X12323845Y-11706767D01*
X12077440Y-11955867D01*
X12076907Y-11956403D01*
X11749585Y-12283297D01*
X11745764Y-12286953D01*
X11494739Y-12517126D01*
X11494282Y-12517543D01*
X11144509Y-12835064D01*
X11140413Y-12838622D01*
X10890373Y-13046397D01*
X10890003Y-13046704D01*
X10513548Y-13357068D01*
X10509177Y-13360509D01*
X10271862Y-13538902D01*
X10271586Y-13539109D01*
X9858147Y-13848106D01*
X9853504Y-13851412D01*
X9662111Y-13981188D01*
X9661940Y-13981304D01*
X9180823Y-14306363D01*
X9175852Y-14309552D01*
X8595855Y-14662400D01*
X8533136Y-14680452D01*
X8469939Y-14664156D01*
X8423769Y-14618028D01*
X7415314Y-12854842D01*
X5086083Y-8782407D01*
X5069722Y-8720564D01*
X5086365Y-8658793D01*
X5131581Y-8613540D01*
X5271908Y-8532280D01*
X5749725Y-8217875D01*
X6208842Y-7876744D01*
X6647767Y-7509994D01*
X7065070Y-7118820D01*
X7459396Y-6704493D01*
X7829461Y-6268361D01*
X8174063Y-5811842D01*
X8492080Y-5336422D01*
X8782478Y-4843645D01*
X9044312Y-4335116D01*
X9276732Y-3812487D01*
X9309510Y-3725774D01*
X9350127Y-3671157D01*
X9413452Y-3646207D01*
X9480408Y-3658439D01*
X9530820Y-3704170D01*
X9549500Y-3769620D01*
X9549500Y-5530239D01*
X9548720Y-5544122D01*
X9545770Y-5570300D01*
X9545770Y-5570303D01*
X9544730Y-5579535D01*
X9548079Y-5597233D01*
X9555356Y-5635697D01*
X9556132Y-5640265D01*
X9563267Y-5687601D01*
X9564652Y-5696787D01*
X9568379Y-5704526D01*
X9569977Y-5712972D01*
X9574321Y-5721191D01*
X9596687Y-5763510D01*
X9598777Y-5767649D01*
X9619544Y-5810773D01*
X9619546Y-5810776D01*
X9623575Y-5819142D01*
X9629417Y-5825439D01*
X9633434Y-5833038D01*
X9640003Y-5839607D01*
X9640004Y-5839608D01*
X9673846Y-5873450D01*
X9677064Y-5876790D01*
X9715945Y-5918694D01*
X9721950Y-5922161D01*
X9727653Y-5927257D01*
X10363181Y-6562784D01*
X10390061Y-6603012D01*
X10399500Y-6650465D01*
X10399500Y-7179266D01*
X10399769Y-7182141D01*
X10399770Y-7182149D01*
X10401649Y-7202187D01*
X10401649Y-7202191D01*
X10402354Y-7209699D01*
X10404842Y-7216811D01*
X10404844Y-7216817D01*
X10444138Y-7329113D01*
X10444139Y-7329116D01*
X10447207Y-7337882D01*
X10452722Y-7345355D01*
X10452724Y-7345358D01*
X10519527Y-7435873D01*
X10527850Y-7447150D01*
X10637118Y-7527793D01*
X10765301Y-7572646D01*
X10795734Y-7575500D01*
X11801373Y-7575500D01*
X11804266Y-7575500D01*
X11834699Y-7572646D01*
X11962882Y-7527793D01*
X12072150Y-7447150D01*
X12125233Y-7375224D01*
X12169118Y-7338167D01*
X12225000Y-7324861D01*
X12280882Y-7338167D01*
X12324766Y-7375224D01*
X12377850Y-7447150D01*
X12487118Y-7527793D01*
X12615301Y-7572646D01*
X12645734Y-7575500D01*
X13651373Y-7575500D01*
X13654266Y-7575500D01*
X13684699Y-7572646D01*
X13812882Y-7527793D01*
X13922150Y-7447150D01*
X14002793Y-7337882D01*
X14047646Y-7209699D01*
X14050500Y-7179266D01*
X14050500Y-6545734D01*
X14047646Y-6515301D01*
X14045185Y-6508270D01*
X14047336Y-6446974D01*
X14078645Y-6394179D01*
X15197540Y-5275284D01*
X15205492Y-5267997D01*
X15234444Y-5243705D01*
X15239869Y-5234306D01*
X15243437Y-5230055D01*
X15250737Y-5222087D01*
X15591290Y-4881534D01*
X15599242Y-4874247D01*
X15628194Y-4849955D01*
X15647085Y-4817233D01*
X15652880Y-4808135D01*
X15674554Y-4777184D01*
X15677362Y-4766699D01*
X15678901Y-4763400D01*
X15680156Y-4759951D01*
X15685588Y-4750545D01*
X15692149Y-4713330D01*
X15694478Y-4702824D01*
X15704264Y-4666307D01*
X15700972Y-4628677D01*
X15700500Y-4617870D01*
X15700500Y-3646413D01*
X15706050Y-3609732D01*
X15720858Y-3579112D01*
X15727206Y-3572765D01*
X15772585Y-3469991D01*
X15775500Y-3444865D01*
X15775499Y-2080136D01*
X15772585Y-2055009D01*
X15727206Y-1952235D01*
X15720858Y-1945887D01*
X15706050Y-1915268D01*
X15700500Y-1878587D01*
X15700500Y123381D01*
X15700972Y134188D01*
X15701859Y144333D01*
X15704263Y171807D01*
X15698543Y193154D01*
X15694486Y208296D01*
X15692148Y218837D01*
X15685588Y256045D01*
X15680162Y265443D01*
X15678912Y268877D01*
X15677362Y272200D01*
X15674554Y282684D01*
X15652889Y313624D01*
X15647085Y322734D01*
X15628194Y355455D01*
X15619881Y362430D01*
X15619880Y362432D01*
X15599261Y379733D01*
X15591286Y387041D01*
X15554309Y424018D01*
X15523329Y475704D01*
X15520373Y535890D01*
X15546137Y590364D01*
X15594537Y626260D01*
X15601034Y628951D01*
X15698841Y669464D01*
X15824282Y765718D01*
X15920536Y891159D01*
X15981044Y1037238D01*
X16001682Y1194000D01*
X15981044Y1350762D01*
X15920536Y1496841D01*
X15824282Y1622282D01*
X15812750Y1631131D01*
X15777025Y1674662D01*
X15764237Y1729506D01*
X15777025Y1784350D01*
X15812751Y1827882D01*
X15896479Y1892129D01*
X15907868Y1903518D01*
X15994152Y2015964D01*
X16002209Y2029922D01*
X16056444Y2160857D01*
X16060617Y2176431D01*
X16074470Y2281658D01*
X16075000Y2289730D01*
X16075000Y2746174D01*
X16071549Y2759050D01*
X16058674Y2762500D01*
X15299000Y2762500D01*
X15237000Y2779113D01*
X15191613Y2824500D01*
X15175000Y2886500D01*
X15175000Y3178826D01*
X15575000Y3178826D01*
X15578450Y3165951D01*
X15591326Y3162500D01*
X16058673Y3162500D01*
X16071548Y3165951D01*
X16074999Y3178826D01*
X16074999Y3635267D01*
X16074469Y3643345D01*
X16060617Y3748571D01*
X16056444Y3764143D01*
X16002209Y3895079D01*
X15994152Y3909037D01*
X15907868Y4021483D01*
X15896482Y4032869D01*
X15784036Y4119153D01*
X15770078Y4127210D01*
X15639145Y4181444D01*
X15623568Y4185618D01*
X15592552Y4189702D01*
X15578873Y4187596D01*
X15575000Y4174308D01*
X15575000Y3178826D01*
X15175000Y3178826D01*
X15175000Y4174310D01*
X15171127Y4187595D01*
X15157446Y4189701D01*
X15126429Y4185618D01*
X15110857Y4181445D01*
X14979921Y4127210D01*
X14965963Y4119153D01*
X14853517Y4032869D01*
X14842126Y4021478D01*
X14786522Y3949013D01*
X14742991Y3913288D01*
X14688148Y3900500D01*
X14583714Y3900500D01*
X14583696Y3900500D01*
X14580136Y3900499D01*
X14576589Y3900088D01*
X14576577Y3900087D01*
X14564276Y3898660D01*
X14564274Y3898660D01*
X14555009Y3897585D01*
X14552628Y3896534D01*
X14500654Y3894661D01*
X14449200Y3917828D01*
X14413340Y3961397D01*
X14400500Y4016346D01*
X14400500Y4255373D01*
X14400972Y4266181D01*
X14403318Y4292999D01*
X14404264Y4303807D01*
X14394481Y4340315D01*
X14392145Y4350857D01*
X14390977Y4357482D01*
X14385588Y4388045D01*
X14380160Y4397445D01*
X14378910Y4400881D01*
X14377363Y4404199D01*
X14374554Y4414684D01*
X14352892Y4445621D01*
X14347080Y4454743D01*
X14342481Y4462709D01*
X14328194Y4487455D01*
X14319881Y4494430D01*
X14319880Y4494432D01*
X14299255Y4511738D01*
X14291280Y4519046D01*
X13294043Y5516283D01*
X13286734Y5524259D01*
X13262455Y5553194D01*
X13253062Y5558617D01*
X13253060Y5558619D01*
X13229735Y5572086D01*
X13220627Y5577888D01*
X13189684Y5599554D01*
X13179206Y5602362D01*
X13175873Y5603916D01*
X13172432Y5605169D01*
X13163045Y5610588D01*
X13152366Y5612472D01*
X13152361Y5612473D01*
X13125852Y5617148D01*
X13115297Y5619487D01*
X13089283Y5626457D01*
X13078807Y5629264D01*
X13068003Y5628319D01*
X13068000Y5628319D01*
X13041181Y5625972D01*
X13030373Y5625500D01*
X12618299Y5625500D01*
X12563455Y5638288D01*
X12519923Y5674014D01*
X12512748Y5683365D01*
X12478282Y5728282D01*
X12352841Y5824536D01*
X12345333Y5827646D01*
X12214271Y5881934D01*
X12214268Y5881935D01*
X12206762Y5885044D01*
X12198708Y5886105D01*
X12198702Y5886106D01*
X12058059Y5904621D01*
X12050000Y5905682D01*
X12041941Y5904621D01*
X11901297Y5886106D01*
X11901289Y5886104D01*
X11893238Y5885044D01*
X11885733Y5881936D01*
X11885728Y5881934D01*
X11754666Y5827646D01*
X11754662Y5827645D01*
X11747159Y5824536D01*
X11740714Y5819592D01*
X11740711Y5819589D01*
X11628164Y5733229D01*
X11628160Y5733226D01*
X11621718Y5728282D01*
X11616774Y5721840D01*
X11616771Y5721836D01*
X11530411Y5609289D01*
X11530408Y5609286D01*
X11525464Y5602841D01*
X11522355Y5595338D01*
X11522354Y5595334D01*
X11468066Y5464272D01*
X11468064Y5464267D01*
X11464956Y5456762D01*
X11463896Y5448711D01*
X11463894Y5448703D01*
X11449111Y5336406D01*
X11444318Y5300000D01*
X11445379Y5291941D01*
X11463894Y5151298D01*
X11463895Y5151292D01*
X11464956Y5143238D01*
X11468065Y5135732D01*
X11468066Y5135729D01*
X11482249Y5101489D01*
X11525464Y4997159D01*
X11621718Y4871718D01*
X11747159Y4775464D01*
X11893238Y4714956D01*
X12050000Y4694318D01*
X12206762Y4714956D01*
X12352841Y4775464D01*
X12478282Y4871718D01*
X12519923Y4925987D01*
X12563455Y4961712D01*
X12618299Y4974500D01*
X12863812Y4974500D01*
X12911265Y4965061D01*
X12951493Y4938181D01*
X13593488Y4296186D01*
X13625925Y4239291D01*
X13625000Y4182735D01*
X13625000Y2886500D01*
X13608387Y2824500D01*
X13563000Y2779113D01*
X13501000Y2762500D01*
X12649499Y2762500D01*
X12587499Y2779113D01*
X12542112Y2824500D01*
X12525499Y2886500D01*
X12525499Y3067612D01*
X12534938Y3115065D01*
X12561818Y3155293D01*
X12571211Y3164687D01*
X12575000Y3178826D01*
X12975000Y3178826D01*
X12978450Y3165951D01*
X12991326Y3162500D01*
X13208674Y3162500D01*
X13221549Y3165951D01*
X13225000Y3178826D01*
X13225000Y4174310D01*
X13221127Y4187595D01*
X13207446Y4189701D01*
X13176429Y4185618D01*
X13160857Y4181445D01*
X13147448Y4175891D01*
X13100000Y4166454D01*
X13052552Y4175891D01*
X13039145Y4181444D01*
X13023568Y4185618D01*
X12992552Y4189702D01*
X12978873Y4187596D01*
X12975000Y4174308D01*
X12975000Y3178826D01*
X12575000Y3178826D01*
X12575000Y4174310D01*
X12571127Y4187595D01*
X12557446Y4189701D01*
X12526429Y4185618D01*
X12510857Y4181445D01*
X12379921Y4127210D01*
X12365963Y4119153D01*
X12253517Y4032869D01*
X12242131Y4021483D01*
X12223376Y3997040D01*
X12179844Y3961315D01*
X12125000Y3948527D01*
X12070156Y3961315D01*
X12026624Y3997040D01*
X12007868Y4021483D01*
X11996482Y4032869D01*
X11884036Y4119153D01*
X11870078Y4127210D01*
X11739145Y4181444D01*
X11723568Y4185618D01*
X11692552Y4189702D01*
X11678873Y4187596D01*
X11675000Y4174308D01*
X11675000Y3178826D01*
X11678788Y3164687D01*
X11688181Y3155294D01*
X11715061Y3115066D01*
X11724500Y3067613D01*
X11724500Y2857388D01*
X11715061Y2809936D01*
X11688183Y2769708D01*
X11678788Y2760314D01*
X11675000Y2746174D01*
X11675000Y1750690D01*
X11678872Y1737406D01*
X11692553Y1735300D01*
X11723570Y1739383D01*
X11739142Y1743556D01*
X11870078Y1797791D01*
X11884040Y1805851D01*
X11938511Y1847648D01*
X11992465Y1871389D01*
X12051285Y1867534D01*
X12101679Y1836954D01*
X12254909Y1683724D01*
X12262218Y1675749D01*
X12274423Y1661203D01*
X12286504Y1646806D01*
X12319222Y1627917D01*
X12328338Y1622108D01*
X12359275Y1600446D01*
X12369760Y1597637D01*
X12373078Y1596090D01*
X12376514Y1594840D01*
X12385914Y1589412D01*
X12401613Y1586644D01*
X12423102Y1582855D01*
X12433644Y1580519D01*
X12470152Y1570736D01*
X12507778Y1574029D01*
X12518586Y1574500D01*
X13431812Y1574500D01*
X13479265Y1565061D01*
X13519493Y1538181D01*
X15013181Y44492D01*
X15040061Y4264D01*
X15049500Y-43189D01*
X15049500Y-1084567D01*
X15035985Y-1140862D01*
X14998385Y-1184885D01*
X14944898Y-1207040D01*
X14887182Y-1202498D01*
X14837819Y-1172248D01*
X14072383Y-406813D01*
X14042645Y-358990D01*
X14037125Y-302946D01*
X14044993Y-243187D01*
X14046054Y-235128D01*
X14025416Y-78366D01*
X13964908Y67713D01*
X13868654Y193154D01*
X13743213Y289408D01*
X13706382Y304664D01*
X13604643Y346806D01*
X13604640Y346807D01*
X13597134Y349916D01*
X13589080Y350977D01*
X13589074Y350978D01*
X13448431Y369493D01*
X13440372Y370554D01*
X13432313Y369493D01*
X13291669Y350978D01*
X13291661Y350976D01*
X13283610Y349916D01*
X13276105Y346808D01*
X13276100Y346806D01*
X13145038Y292518D01*
X13145034Y292517D01*
X13137531Y289408D01*
X13131086Y284464D01*
X13131083Y284461D01*
X13018536Y198101D01*
X13018532Y198098D01*
X13012090Y193154D01*
X13007146Y186712D01*
X13007143Y186708D01*
X12920783Y74161D01*
X12920780Y74158D01*
X12915836Y67713D01*
X12912727Y60210D01*
X12912726Y60206D01*
X12886515Y-3074D01*
X12850619Y-51474D01*
X12796145Y-77238D01*
X12735959Y-74282D01*
X12684273Y-43302D01*
X11109918Y1531053D01*
X11077823Y1586644D01*
X11077826Y1650835D01*
X11109925Y1706423D01*
X11165519Y1738513D01*
X11218113Y1738506D01*
X11218369Y1740444D01*
X11257447Y1735299D01*
X11271126Y1737405D01*
X11275000Y1750692D01*
X11275000Y4174310D01*
X11271127Y4187595D01*
X11257446Y4189701D01*
X11226429Y4185618D01*
X11210857Y4181445D01*
X11079921Y4127210D01*
X11065963Y4119153D01*
X10953517Y4032869D01*
X10942126Y4021478D01*
X10886522Y3949013D01*
X10842991Y3913288D01*
X10788148Y3900500D01*
X10683714Y3900500D01*
X10683696Y3900500D01*
X10680136Y3900499D01*
X10676589Y3900088D01*
X10676577Y3900087D01*
X10664277Y3898660D01*
X10664275Y3898660D01*
X10655009Y3897585D01*
X10646479Y3893820D01*
X10646476Y3893818D01*
X10562745Y3856847D01*
X10562743Y3856846D01*
X10552235Y3852206D01*
X10544112Y3844084D01*
X10544109Y3844081D01*
X10480919Y3780891D01*
X10480916Y3780888D01*
X10472794Y3772765D01*
X10468154Y3762257D01*
X10468153Y3762255D01*
X10431181Y3678523D01*
X10431179Y3678516D01*
X10427415Y3669991D01*
X10426340Y3660729D01*
X10426340Y3660727D01*
X10424911Y3648415D01*
X10424910Y3648401D01*
X10424500Y3644865D01*
X10424500Y3641291D01*
X10424500Y3641290D01*
X10424500Y2515833D01*
X10410985Y2459538D01*
X10373385Y2415515D01*
X10319898Y2393360D01*
X10262182Y2397902D01*
X10212819Y2428152D01*
X9765155Y2875816D01*
X9762797Y2878526D01*
X9759958Y2884228D01*
X9751466Y2891970D01*
X9751465Y2891971D01*
X9725681Y2915476D01*
X9721539Y2919432D01*
X9712852Y2928119D01*
X9708797Y2932174D01*
X9704066Y2935416D01*
X9703386Y2935980D01*
X9699067Y2939738D01*
X9697687Y2940996D01*
X9689907Y2948089D01*
X9685423Y2952177D01*
X9685421Y2952179D01*
X9676933Y2959916D01*
X9666220Y2964067D01*
X9659780Y2968054D01*
X9655902Y2970098D01*
X9648958Y2973164D01*
X9639481Y2979656D01*
X9628299Y2982287D01*
X9628295Y2982288D01*
X9615439Y2985312D01*
X9559492Y3015120D01*
X9525588Y3068684D01*
X9457631Y3283928D01*
X9457104Y3285598D01*
X9254593Y3818964D01*
X9022028Y4339928D01*
X9020778Y4342347D01*
X8907625Y4561371D01*
X8760166Y4846799D01*
X8469857Y5337931D01*
X8152042Y5811728D01*
X7848052Y6213407D01*
X7808826Y6265238D01*
X7808823Y6265241D01*
X7807755Y6266653D01*
X7643844Y6459357D01*
X7439266Y6699872D01*
X7439257Y6699882D01*
X7438113Y6701227D01*
X7089085Y7067110D01*
X7045525Y7112774D01*
X7045519Y7112780D01*
X7044317Y7114040D01*
X7043051Y7115224D01*
X7043040Y7115235D01*
X6628936Y7502546D01*
X6628925Y7502556D01*
X6627646Y7503752D01*
X6189452Y7869095D01*
X6188034Y7870147D01*
X6188023Y7870155D01*
X5732575Y8207835D01*
X5732561Y8207845D01*
X5731158Y8208885D01*
X5541431Y8333459D01*
X5255734Y8521047D01*
X5255715Y8521059D01*
X5254254Y8522018D01*
X5114730Y8602636D01*
X5069423Y8647929D01*
X5052768Y8709792D01*
X5069213Y8771710D01*
X8423705Y14618267D01*
X8469888Y14664304D01*
X8533044Y14680543D01*
X8595705Y14662493D01*
G37*
%TD.AperFunction*%
%TA.AperFunction,Conductor*%
G36*
X9561279Y1559395D02*
G01*
X10030854Y1089819D01*
X10463181Y657492D01*
X10490061Y617264D01*
X10499500Y569811D01*
X10499500Y-1810053D01*
X10485565Y-1867164D01*
X10446892Y-1911439D01*
X10392173Y-1932927D01*
X10333707Y-1926798D01*
X10299416Y-1904179D01*
X10297638Y-1906410D01*
X10290375Y-1900618D01*
X10284055Y-1893806D01*
X10278046Y-1890336D01*
X10272343Y-1885239D01*
X9391368Y-1004265D01*
X9382102Y-993896D01*
X9365676Y-973298D01*
X9365672Y-973294D01*
X9359879Y-966030D01*
X9312643Y-933825D01*
X9308870Y-931148D01*
X9302939Y-926771D01*
X9262882Y-897207D01*
X9254775Y-894370D01*
X9247673Y-889528D01*
X9238798Y-886790D01*
X9238795Y-886789D01*
X9193049Y-872679D01*
X9188642Y-871229D01*
X9161391Y-861693D01*
X9108737Y-825973D01*
X9080731Y-768846D01*
X9071367Y-721769D01*
X9064582Y-711614D01*
X9059908Y-700330D01*
X9061486Y-699676D01*
X9050926Y-674180D01*
X9050933Y-625779D01*
X9061486Y-600323D01*
X9059908Y-599670D01*
X9064581Y-588385D01*
X9071367Y-578231D01*
X9083000Y-519748D01*
X9083000Y263444D01*
X9096116Y318948D01*
X9132689Y362711D01*
X9232592Y437499D01*
X9245001Y449908D01*
X9320537Y550811D01*
X9328952Y566223D01*
X9373388Y685359D01*
X9376926Y700333D01*
X9382146Y748886D01*
X9382500Y755482D01*
X9382500Y1033674D01*
X9379049Y1046550D01*
X9366174Y1050000D01*
X8256500Y1050000D01*
X8194500Y1066613D01*
X8149113Y1112000D01*
X8132500Y1174000D01*
X8132500Y1426000D01*
X8149113Y1488000D01*
X8194500Y1533387D01*
X8256500Y1550000D01*
X9366174Y1550000D01*
X9380311Y1553789D01*
X9385916Y1559393D01*
X9441504Y1591487D01*
X9505692Y1591488D01*
X9561279Y1559395D01*
G37*
%TD.AperFunction*%
%TD*%
M02*
