solid ascii
  facet normal -1.000000e+00 0.000000e+00 0.000000e+00
    outer loop
      vertex   -4.000000e+00 2.600000e+01 -3.500000e+00
      vertex   -4.000000e+00 -2.600000e+01 -3.500000e+00
      vertex   -4.000000e+00 -2.600000e+01 3.500000e+00
    endloop
  endfacet
  facet normal -1.000000e+00 0.000000e+00 0.000000e+00
    outer loop
      vertex   -4.000000e+00 -2.600000e+01 3.500000e+00
      vertex   -4.000000e+00 2.600000e+01 3.500000e+00
      vertex   -4.000000e+00 2.600000e+01 -3.500000e+00
    endloop
  endfacet
  facet normal 1.084202e-16 0.000000e+00 -1.000000e+00
    outer loop
      vertex   4.000000e+00 2.600000e+01 -3.500000e+00
      vertex   4.000000e+00 -2.600000e+01 -3.500000e+00
      vertex   -4.000000e+00 -2.600000e+01 -3.500000e+00
    endloop
  endfacet
  facet normal 1.084202e-16 0.000000e+00 -1.000000e+00
    outer loop
      vertex   -4.000000e+00 -2.600000e+01 -3.500000e+00
      vertex   -4.000000e+00 2.600000e+01 -3.500000e+00
      vertex   4.000000e+00 2.600000e+01 -3.500000e+00
    endloop
  endfacet
  facet normal 1.000000e+00 0.000000e+00 0.000000e+00
    outer loop
      vertex   4.000000e+00 2.600000e+01 3.500000e+00
      vertex   4.000000e+00 -2.600000e+01 3.500000e+00
      vertex   4.000000e+00 -2.600000e+01 -3.500000e+00
    endloop
  endfacet
  facet normal 1.000000e+00 0.000000e+00 0.000000e+00
    outer loop
      vertex   4.000000e+00 -2.600000e+01 -3.500000e+00
      vertex   4.000000e+00 2.600000e+01 -3.500000e+00
      vertex   4.000000e+00 2.600000e+01 3.500000e+00
    endloop
  endfacet
  facet normal 0.000000e+00 -1.000000e+00 0.000000e+00
    outer loop
      vertex   -4.000000e+00 -2.600000e+01 3.500000e+00
      vertex   -4.000000e+00 -2.600000e+01 -3.500000e+00
      vertex   4.000000e+00 -2.600000e+01 -3.500000e+00
    endloop
  endfacet
  facet normal 0.000000e+00 -1.000000e+00 0.000000e+00
    outer loop
      vertex   4.000000e+00 -2.600000e+01 -3.500000e+00
      vertex   4.000000e+00 -2.600000e+01 3.500000e+00
      vertex   -4.000000e+00 -2.600000e+01 3.500000e+00
    endloop
  endfacet
  facet normal 0.000000e+00 1.000000e+00 0.000000e+00
    outer loop
      vertex   4.000000e+00 2.600000e+01 3.500000e+00
      vertex   4.000000e+00 2.600000e+01 -3.500000e+00
      vertex   -4.000000e+00 2.600000e+01 -3.500000e+00
    endloop
  endfacet
  facet normal 0.000000e+00 1.000000e+00 0.000000e+00
    outer loop
      vertex   -4.000000e+00 2.600000e+01 -3.500000e+00
      vertex   -4.000000e+00 2.600000e+01 3.500000e+00
      vertex   4.000000e+00 2.600000e+01 3.500000e+00
    endloop
  endfacet
  facet normal 1.445603e-16 -1.445603e-16 1.000000e+00
    outer loop
      vertex   -3.000000e+00 2.500000e+01 3.500000e+00
      vertex   3.000000e+00 2.500000e+01 3.500000e+00
      vertex   4.000000e+00 2.600000e+01 3.500000e+00
    endloop
  endfacet
  facet normal 1.084202e-16 1.084202e-16 1.000000e+00
    outer loop
      vertex   4.000000e+00 2.600000e+01 3.500000e+00
      vertex   -4.000000e+00 2.600000e+01 3.500000e+00
      vertex   -3.000000e+00 2.500000e+01 3.500000e+00
    endloop
  endfacet
  facet normal 0.000000e+00 -0.000000e+00 1.000000e+00
    outer loop
      vertex   -3.000000e+00 -2.500000e+01 3.500000e+00
      vertex   -3.000000e+00 2.500000e+01 3.500000e+00
      vertex   -4.000000e+00 2.600000e+01 3.500000e+00
    endloop
  endfacet
  facet normal 0.000000e+00 0.000000e+00 1.000000e+00
    outer loop
      vertex   -4.000000e+00 2.600000e+01 3.500000e+00
      vertex   -4.000000e+00 -2.600000e+01 3.500000e+00
      vertex   -3.000000e+00 -2.500000e+01 3.500000e+00
    endloop
  endfacet
  facet normal 6.505213e-16 -6.505213e-16 1.000000e+00
    outer loop
      vertex   3.000000e+00 -2.500000e+01 3.500000e+00
      vertex   -3.000000e+00 -2.500000e+01 3.500000e+00
      vertex   -4.000000e+00 -2.600000e+01 3.500000e+00
    endloop
  endfacet
  facet normal 1.084202e-16 3.144186e-15 1.000000e+00
    outer loop
      vertex   -4.000000e+00 -2.600000e+01 3.500000e+00
      vertex   4.000000e+00 -2.600000e+01 3.500000e+00
      vertex   3.000000e+00 -2.500000e+01 3.500000e+00
    endloop
  endfacet
  facet normal -3.096481e-15 -6.071532e-17 1.000000e+00
    outer loop
      vertex   3.000000e+00 2.500000e+01 3.500000e+00
      vertex   3.000000e+00 -2.500000e+01 3.500000e+00
      vertex   4.000000e+00 -2.600000e+01 3.500000e+00
    endloop
  endfacet
  facet normal 0.000000e+00 -0.000000e+00 1.000000e+00
    outer loop
      vertex   4.000000e+00 -2.600000e+01 3.500000e+00
      vertex   4.000000e+00 2.600000e+01 3.500000e+00
      vertex   3.000000e+00 2.500000e+01 3.500000e+00
    endloop
  endfacet
  facet normal 1.000000e+00 0.000000e+00 7.228014e-17
    outer loop
      vertex   -3.000000e+00 2.500000e+01 3.500000e+00
      vertex   -3.000000e+00 -2.500000e+01 3.500000e+00
      vertex   -3.000000e+00 -2.500000e+01 -2.500000e+00
    endloop
  endfacet
  facet normal 1.000000e+00 -0.000000e+00 7.228014e-17
    outer loop
      vertex   -3.000000e+00 -2.500000e+01 -2.500000e+00
      vertex   -3.000000e+00 2.500000e+01 -2.500000e+00
      vertex   -3.000000e+00 2.500000e+01 3.500000e+00
    endloop
  endfacet
  facet normal 7.228014e-17 0.000000e+00 1.000000e+00
    outer loop
      vertex   -3.000000e+00 2.500000e+01 -2.500000e+00
      vertex   -3.000000e+00 -2.500000e+01 -2.500000e+00
      vertex   3.000000e+00 -2.500000e+01 -2.500000e+00
    endloop
  endfacet
  facet normal 7.228014e-17 -0.000000e+00 1.000000e+00
    outer loop
      vertex   3.000000e+00 -2.500000e+01 -2.500000e+00
      vertex   3.000000e+00 2.500000e+01 -2.500000e+00
      vertex   -3.000000e+00 2.500000e+01 -2.500000e+00
    endloop
  endfacet
  facet normal -1.000000e+00 0.000000e+00 7.228014e-17
    outer loop
      vertex   3.000000e+00 2.500000e+01 -2.500000e+00
      vertex   3.000000e+00 -2.500000e+01 -2.500000e+00
      vertex   3.000000e+00 -2.500000e+01 3.500000e+00
    endloop
  endfacet
  facet normal -1.000000e+00 -4.388512e-33 7.228014e-17
    outer loop
      vertex   3.000000e+00 -2.500000e+01 3.500000e+00
      vertex   3.000000e+00 2.500000e+01 3.500000e+00
      vertex   3.000000e+00 2.500000e+01 -2.500000e+00
    endloop
  endfacet
  facet normal 0.000000e+00 1.000000e+00 0.000000e+00
    outer loop
      vertex   3.000000e+00 -2.500000e+01 3.500000e+00
      vertex   3.000000e+00 -2.500000e+01 -2.500000e+00
      vertex   -3.000000e+00 -2.500000e+01 -2.500000e+00
    endloop
  endfacet
  facet normal 0.000000e+00 1.000000e+00 -0.000000e+00
    outer loop
      vertex   -3.000000e+00 -2.500000e+01 -2.500000e+00
      vertex   -3.000000e+00 -2.500000e+01 3.500000e+00
      vertex   3.000000e+00 -2.500000e+01 3.500000e+00
    endloop
  endfacet
  facet normal 0.000000e+00 -1.000000e+00 0.000000e+00
    outer loop
      vertex   -3.000000e+00 2.500000e+01 3.500000e+00
      vertex   -3.000000e+00 2.500000e+01 -2.500000e+00
      vertex   3.000000e+00 2.500000e+01 -2.500000e+00
    endloop
  endfacet
  facet normal 0.000000e+00 -1.000000e+00 0.000000e+00
    outer loop
      vertex   3.000000e+00 2.500000e+01 -2.500000e+00
      vertex   3.000000e+00 2.500000e+01 3.500000e+00
      vertex   -3.000000e+00 2.500000e+01 3.500000e+00
    endloop
  endfacet
endsolid
