solid ascii
  facet normal 0.000000e+00 -0.000000e+00 -1.000000e+00
    outer loop
      vertex   6.000000e+00 2.600000e+01 -4.000000e+00
      vertex   6.000000e+00 -2.600000e+01 -4.000000e+00
      vertex   -6.000000e+00 -2.600000e+01 -4.000000e+00
    endloop
  endfacet
  facet normal 0.000000e+00 0.000000e+00 -1.000000e+00
    outer loop
      vertex   -6.000000e+00 -2.600000e+01 -4.000000e+00
      vertex   -6.000000e+00 2.600000e+01 -4.000000e+00
      vertex   6.000000e+00 2.600000e+01 -4.000000e+00
    endloop
  endfacet
  facet normal 1.000000e+00 0.000000e+00 0.000000e+00
    outer loop
      vertex   6.000000e+00 2.600000e+01 4.000000e+00
      vertex   6.000000e+00 -2.600000e+01 4.000000e+00
      vertex   6.000000e+00 -2.600000e+01 -4.000000e+00
    endloop
  endfacet
  facet normal 1.000000e+00 0.000000e+00 0.000000e+00
    outer loop
      vertex   6.000000e+00 -2.600000e+01 -4.000000e+00
      vertex   6.000000e+00 2.600000e+01 -4.000000e+00
      vertex   6.000000e+00 2.600000e+01 4.000000e+00
    endloop
  endfacet
  facet normal -1.000000e+00 0.000000e+00 0.000000e+00
    outer loop
      vertex   -6.000000e+00 2.600000e+01 -4.000000e+00
      vertex   -6.000000e+00 -2.600000e+01 -4.000000e+00
      vertex   -6.000000e+00 -2.600000e+01 4.000000e+00
    endloop
  endfacet
  facet normal -1.000000e+00 0.000000e+00 0.000000e+00
    outer loop
      vertex   -6.000000e+00 -2.600000e+01 4.000000e+00
      vertex   -6.000000e+00 2.600000e+01 4.000000e+00
      vertex   -6.000000e+00 2.600000e+01 -4.000000e+00
    endloop
  endfacet
  facet normal 0.000000e+00 -1.000000e+00 0.000000e+00
    outer loop
      vertex   6.000000e+00 -2.600000e+01 -4.000000e+00
      vertex   6.000000e+00 -2.600000e+01 4.000000e+00
      vertex   -6.000000e+00 -2.600000e+01 4.000000e+00
    endloop
  endfacet
  facet normal 0.000000e+00 -1.000000e+00 0.000000e+00
    outer loop
      vertex   -6.000000e+00 -2.600000e+01 4.000000e+00
      vertex   -6.000000e+00 -2.600000e+01 -4.000000e+00
      vertex   6.000000e+00 -2.600000e+01 -4.000000e+00
    endloop
  endfacet
  facet normal 0.000000e+00 1.000000e+00 0.000000e+00
    outer loop
      vertex   -6.000000e+00 2.600000e+01 -4.000000e+00
      vertex   -6.000000e+00 2.600000e+01 4.000000e+00
      vertex   6.000000e+00 2.600000e+01 4.000000e+00
    endloop
  endfacet
  facet normal 0.000000e+00 1.000000e+00 0.000000e+00
    outer loop
      vertex   6.000000e+00 2.600000e+01 4.000000e+00
      vertex   6.000000e+00 2.600000e+01 -4.000000e+00
      vertex   -6.000000e+00 2.600000e+01 -4.000000e+00
    endloop
  endfacet
  facet normal 0.000000e+00 -0.000000e+00 1.000000e+00
    outer loop
      vertex   -5.000000e+00 -2.500000e+01 4.000000e+00
      vertex   -5.000000e+00 2.500000e+01 4.000000e+00
      vertex   -6.000000e+00 2.600000e+01 4.000000e+00
    endloop
  endfacet
  facet normal 0.000000e+00 0.000000e+00 1.000000e+00
    outer loop
      vertex   -6.000000e+00 2.600000e+01 4.000000e+00
      vertex   -6.000000e+00 -2.600000e+01 4.000000e+00
      vertex   -5.000000e+00 -2.500000e+01 4.000000e+00
    endloop
  endfacet
  facet normal 0.000000e+00 0.000000e+00 1.000000e+00
    outer loop
      vertex   5.000000e+00 -2.500000e+01 4.000000e+00
      vertex   -5.000000e+00 -2.500000e+01 4.000000e+00
      vertex   -6.000000e+00 -2.600000e+01 4.000000e+00
    endloop
  endfacet
  facet normal 0.000000e+00 0.000000e+00 1.000000e+00
    outer loop
      vertex   -6.000000e+00 -2.600000e+01 4.000000e+00
      vertex   6.000000e+00 -2.600000e+01 4.000000e+00
      vertex   5.000000e+00 -2.500000e+01 4.000000e+00
    endloop
  endfacet
  facet normal 0.000000e+00 0.000000e+00 1.000000e+00
    outer loop
      vertex   5.000000e+00 2.500000e+01 4.000000e+00
      vertex   5.000000e+00 -2.500000e+01 4.000000e+00
      vertex   6.000000e+00 -2.600000e+01 4.000000e+00
    endloop
  endfacet
  facet normal 0.000000e+00 -0.000000e+00 1.000000e+00
    outer loop
      vertex   6.000000e+00 -2.600000e+01 4.000000e+00
      vertex   6.000000e+00 2.600000e+01 4.000000e+00
      vertex   5.000000e+00 2.500000e+01 4.000000e+00
    endloop
  endfacet
  facet normal 0.000000e+00 0.000000e+00 1.000000e+00
    outer loop
      vertex   -5.000000e+00 2.500000e+01 4.000000e+00
      vertex   5.000000e+00 2.500000e+01 4.000000e+00
      vertex   6.000000e+00 2.600000e+01 4.000000e+00
    endloop
  endfacet
  facet normal 0.000000e+00 0.000000e+00 1.000000e+00
    outer loop
      vertex   6.000000e+00 2.600000e+01 4.000000e+00
      vertex   -6.000000e+00 2.600000e+01 4.000000e+00
      vertex   -5.000000e+00 2.500000e+01 4.000000e+00
    endloop
  endfacet
  facet normal 1.000000e+00 0.000000e+00 1.239088e-16
    outer loop
      vertex   -5.000000e+00 2.500000e+01 4.000000e+00
      vertex   -5.000000e+00 -2.500000e+01 4.000000e+00
      vertex   -5.000000e+00 -2.500000e+01 -3.000000e+00
    endloop
  endfacet
  facet normal 1.000000e+00 -0.000000e+00 1.239088e-16
    outer loop
      vertex   -5.000000e+00 -2.500000e+01 -3.000000e+00
      vertex   -5.000000e+00 2.500000e+01 -3.000000e+00
      vertex   -5.000000e+00 2.500000e+01 4.000000e+00
    endloop
  endfacet
  facet normal -1.445603e-16 0.000000e+00 1.000000e+00
    outer loop
      vertex   -5.000000e+00 2.500000e+01 -3.000000e+00
      vertex   -5.000000e+00 -2.500000e+01 -3.000000e+00
      vertex   -2.000000e+00 -2.500000e+01 -3.000000e+00
    endloop
  endfacet
  facet normal -1.445603e-16 0.000000e+00 1.000000e+00
    outer loop
      vertex   -2.000000e+00 -2.500000e+01 -3.000000e+00
      vertex   -2.000000e+00 2.500000e+01 -3.000000e+00
      vertex   -5.000000e+00 2.500000e+01 -3.000000e+00
    endloop
  endfacet
  facet normal -1.000000e+00 0.000000e+00 2.478176e-16
    outer loop
      vertex   5.000000e+00 2.500000e+01 -3.000000e+00
      vertex   5.000000e+00 -2.500000e+01 -3.000000e+00
      vertex   5.000000e+00 -2.500000e+01 4.000000e+00
    endloop
  endfacet
  facet normal -1.000000e+00 0.000000e+00 2.478176e-16
    outer loop
      vertex   5.000000e+00 -2.500000e+01 4.000000e+00
      vertex   5.000000e+00 2.500000e+01 4.000000e+00
      vertex   5.000000e+00 2.500000e+01 -3.000000e+00
    endloop
  endfacet
  facet normal -1.445603e-16 0.000000e+00 1.000000e+00
    outer loop
      vertex   2.000000e+00 2.500000e+01 -3.000000e+00
      vertex   2.000000e+00 -2.500000e+01 -3.000000e+00
      vertex   5.000000e+00 -2.500000e+01 -3.000000e+00
    endloop
  endfacet
  facet normal -1.445603e-16 0.000000e+00 1.000000e+00
    outer loop
      vertex   5.000000e+00 -2.500000e+01 -3.000000e+00
      vertex   5.000000e+00 2.500000e+01 -3.000000e+00
      vertex   2.000000e+00 2.500000e+01 -3.000000e+00
    endloop
  endfacet
  facet normal 0.000000e+00 1.000000e+00 0.000000e+00
    outer loop
      vertex   -2.000000e+00 -2.500000e+01 1.000000e+00
      vertex   -2.000000e+00 -2.500000e+01 -3.000000e+00
      vertex   -5.000000e+00 -2.500000e+01 -3.000000e+00
    endloop
  endfacet
  facet normal 0.000000e+00 1.000000e+00 -0.000000e+00
    outer loop
      vertex   -5.000000e+00 -2.500000e+01 -3.000000e+00
      vertex   -5.000000e+00 -2.500000e+01 4.000000e+00
      vertex   -2.000000e+00 -2.500000e+01 1.000000e+00
    endloop
  endfacet
  facet normal 0.000000e+00 1.000000e+00 0.000000e+00
    outer loop
      vertex   2.000000e+00 -2.500000e+01 1.000000e+00
      vertex   -2.000000e+00 -2.500000e+01 1.000000e+00
      vertex   -5.000000e+00 -2.500000e+01 4.000000e+00
    endloop
  endfacet
  facet normal -0.000000e+00 1.000000e+00 0.000000e+00
    outer loop
      vertex   -5.000000e+00 -2.500000e+01 4.000000e+00
      vertex   5.000000e+00 -2.500000e+01 4.000000e+00
      vertex   2.000000e+00 -2.500000e+01 1.000000e+00
    endloop
  endfacet
  facet normal 0.000000e+00 1.000000e+00 0.000000e+00
    outer loop
      vertex   2.000000e+00 -2.500000e+01 -3.000000e+00
      vertex   2.000000e+00 -2.500000e+01 1.000000e+00
      vertex   5.000000e+00 -2.500000e+01 4.000000e+00
    endloop
  endfacet
  facet normal 0.000000e+00 1.000000e+00 0.000000e+00
    outer loop
      vertex   5.000000e+00 -2.500000e+01 4.000000e+00
      vertex   5.000000e+00 -2.500000e+01 -3.000000e+00
      vertex   2.000000e+00 -2.500000e+01 -3.000000e+00
    endloop
  endfacet
  facet normal 0.000000e+00 -1.000000e+00 0.000000e+00
    outer loop
      vertex   2.000000e+00 2.500000e+01 1.000000e+00
      vertex   2.000000e+00 2.500000e+01 -3.000000e+00
      vertex   5.000000e+00 2.500000e+01 -3.000000e+00
    endloop
  endfacet
  facet normal 0.000000e+00 -1.000000e+00 0.000000e+00
    outer loop
      vertex   5.000000e+00 2.500000e+01 -3.000000e+00
      vertex   5.000000e+00 2.500000e+01 4.000000e+00
      vertex   2.000000e+00 2.500000e+01 1.000000e+00
    endloop
  endfacet
  facet normal 0.000000e+00 -1.000000e+00 0.000000e+00
    outer loop
      vertex   -2.000000e+00 2.500000e+01 1.000000e+00
      vertex   2.000000e+00 2.500000e+01 1.000000e+00
      vertex   5.000000e+00 2.500000e+01 4.000000e+00
    endloop
  endfacet
  facet normal -0.000000e+00 -1.000000e+00 0.000000e+00
    outer loop
      vertex   5.000000e+00 2.500000e+01 4.000000e+00
      vertex   -5.000000e+00 2.500000e+01 4.000000e+00
      vertex   -2.000000e+00 2.500000e+01 1.000000e+00
    endloop
  endfacet
  facet normal 0.000000e+00 -1.000000e+00 0.000000e+00
    outer loop
      vertex   -2.000000e+00 2.500000e+01 -3.000000e+00
      vertex   -2.000000e+00 2.500000e+01 1.000000e+00
      vertex   -5.000000e+00 2.500000e+01 4.000000e+00
    endloop
  endfacet
  facet normal 0.000000e+00 -1.000000e+00 0.000000e+00
    outer loop
      vertex   -5.000000e+00 2.500000e+01 4.000000e+00
      vertex   -5.000000e+00 2.500000e+01 -3.000000e+00
      vertex   -2.000000e+00 2.500000e+01 -3.000000e+00
    endloop
  endfacet
  facet normal 1.000000e+00 0.000000e+00 0.000000e+00
    outer loop
      vertex   2.000000e+00 2.500000e+01 1.000000e+00
      vertex   2.000000e+00 -2.500000e+01 1.000000e+00
      vertex   2.000000e+00 -2.500000e+01 -3.000000e+00
    endloop
  endfacet
  facet normal 1.000000e+00 0.000000e+00 0.000000e+00
    outer loop
      vertex   2.000000e+00 -2.500000e+01 -3.000000e+00
      vertex   2.000000e+00 2.500000e+01 -3.000000e+00
      vertex   2.000000e+00 2.500000e+01 1.000000e+00
    endloop
  endfacet
  facet normal -7.047314e-16 0.000000e+00 1.000000e+00
    outer loop
      vertex   -2.000000e+00 2.500000e+01 1.000000e+00
      vertex   -2.000000e+00 -2.500000e+01 1.000000e+00
      vertex   2.000000e+00 -2.500000e+01 1.000000e+00
    endloop
  endfacet
  facet normal -7.047314e-16 0.000000e+00 1.000000e+00
    outer loop
      vertex   2.000000e+00 -2.500000e+01 1.000000e+00
      vertex   2.000000e+00 2.500000e+01 1.000000e+00
      vertex   -2.000000e+00 2.500000e+01 1.000000e+00
    endloop
  endfacet
  facet normal -1.000000e+00 -0.000000e+00 -1.084202e-16
    outer loop
      vertex   -2.000000e+00 2.500000e+01 -3.000000e+00
      vertex   -2.000000e+00 -2.500000e+01 -3.000000e+00
      vertex   -2.000000e+00 -2.500000e+01 1.000000e+00
    endloop
  endfacet
  facet normal -1.000000e+00 0.000000e+00 -1.084202e-16
    outer loop
      vertex   -2.000000e+00 -2.500000e+01 1.000000e+00
      vertex   -2.000000e+00 2.500000e+01 1.000000e+00
      vertex   -2.000000e+00 2.500000e+01 -3.000000e+00
    endloop
  endfacet
endsolid
