solid ascii
  facet normal 5.421011e-17 0.000000e+00 -1.000000e+00
    outer loop
      vertex   4.000000e+00 2.600000e+01 -2.500000e+00
      vertex   4.000000e+00 -2.600000e+01 -2.500000e+00
      vertex   -4.000000e+00 -2.600000e+01 -2.500000e+00
    endloop
  endfacet
  facet normal 5.421011e-17 0.000000e+00 -1.000000e+00
    outer loop
      vertex   -4.000000e+00 -2.600000e+01 -2.500000e+00
      vertex   -4.000000e+00 2.600000e+01 -2.500000e+00
      vertex   4.000000e+00 2.600000e+01 -2.500000e+00
    endloop
  endfacet
  facet normal 1.000000e+00 0.000000e+00 0.000000e+00
    outer loop
      vertex   4.000000e+00 2.600000e+01 2.500000e+00
      vertex   4.000000e+00 -2.600000e+01 2.500000e+00
      vertex   4.000000e+00 -2.600000e+01 -2.500000e+00
    endloop
  endfacet
  facet normal 1.000000e+00 0.000000e+00 0.000000e+00
    outer loop
      vertex   4.000000e+00 -2.600000e+01 -2.500000e+00
      vertex   4.000000e+00 2.600000e+01 -2.500000e+00
      vertex   4.000000e+00 2.600000e+01 2.500000e+00
    endloop
  endfacet
  facet normal -1.000000e+00 0.000000e+00 0.000000e+00
    outer loop
      vertex   -4.000000e+00 2.600000e+01 -2.500000e+00
      vertex   -4.000000e+00 -2.600000e+01 -2.500000e+00
      vertex   -4.000000e+00 -2.600000e+01 2.500000e+00
    endloop
  endfacet
  facet normal -1.000000e+00 0.000000e+00 0.000000e+00
    outer loop
      vertex   -4.000000e+00 -2.600000e+01 2.500000e+00
      vertex   -4.000000e+00 2.600000e+01 2.500000e+00
      vertex   -4.000000e+00 2.600000e+01 -2.500000e+00
    endloop
  endfacet
  facet normal 0.000000e+00 -1.000000e+00 0.000000e+00
    outer loop
      vertex   4.000000e+00 -2.600000e+01 -2.500000e+00
      vertex   4.000000e+00 -2.600000e+01 2.500000e+00
      vertex   -4.000000e+00 -2.600000e+01 2.500000e+00
    endloop
  endfacet
  facet normal 0.000000e+00 -1.000000e+00 0.000000e+00
    outer loop
      vertex   -4.000000e+00 -2.600000e+01 2.500000e+00
      vertex   -4.000000e+00 -2.600000e+01 -2.500000e+00
      vertex   4.000000e+00 -2.600000e+01 -2.500000e+00
    endloop
  endfacet
  facet normal 0.000000e+00 1.000000e+00 0.000000e+00
    outer loop
      vertex   -4.000000e+00 2.600000e+01 -2.500000e+00
      vertex   -4.000000e+00 2.600000e+01 2.500000e+00
      vertex   4.000000e+00 2.600000e+01 2.500000e+00
    endloop
  endfacet
  facet normal 0.000000e+00 1.000000e+00 0.000000e+00
    outer loop
      vertex   4.000000e+00 2.600000e+01 2.500000e+00
      vertex   4.000000e+00 2.600000e+01 -2.500000e+00
      vertex   -4.000000e+00 2.600000e+01 -2.500000e+00
    endloop
  endfacet
  facet normal -1.734723e-15 0.000000e+00 1.000000e+00
    outer loop
      vertex   -3.000000e+00 -2.500000e+01 2.500000e+00
      vertex   -3.000000e+00 2.500000e+01 2.500000e+00
      vertex   -4.000000e+00 2.600000e+01 2.500000e+00
    endloop
  endfacet
  facet normal -1.734723e-15 0.000000e+00 1.000000e+00
    outer loop
      vertex   -4.000000e+00 2.600000e+01 2.500000e+00
      vertex   -4.000000e+00 -2.600000e+01 2.500000e+00
      vertex   -3.000000e+00 -2.500000e+01 2.500000e+00
    endloop
  endfacet
  facet normal 0.000000e+00 -1.734723e-15 1.000000e+00
    outer loop
      vertex   3.000000e+00 -2.500000e+01 2.500000e+00
      vertex   -3.000000e+00 -2.500000e+01 2.500000e+00
      vertex   -4.000000e+00 -2.600000e+01 2.500000e+00
    endloop
  endfacet
  facet normal -5.421011e-17 -1.355253e-15 1.000000e+00
    outer loop
      vertex   -4.000000e+00 -2.600000e+01 2.500000e+00
      vertex   4.000000e+00 -2.600000e+01 2.500000e+00
      vertex   3.000000e+00 -2.500000e+01 2.500000e+00
    endloop
  endfacet
  facet normal 1.335737e-15 3.469447e-17 1.000000e+00
    outer loop
      vertex   3.000000e+00 2.500000e+01 2.500000e+00
      vertex   3.000000e+00 -2.500000e+01 2.500000e+00
      vertex   4.000000e+00 -2.600000e+01 2.500000e+00
    endloop
  endfacet
  facet normal -4.336809e-16 0.000000e+00 1.000000e+00
    outer loop
      vertex   4.000000e+00 -2.600000e+01 2.500000e+00
      vertex   4.000000e+00 2.600000e+01 2.500000e+00
      vertex   3.000000e+00 2.500000e+01 2.500000e+00
    endloop
  endfacet
  facet normal 2.891206e-16 -7.228014e-16 1.000000e+00
    outer loop
      vertex   -3.000000e+00 2.500000e+01 2.500000e+00
      vertex   3.000000e+00 2.500000e+01 2.500000e+00
      vertex   4.000000e+00 2.600000e+01 2.500000e+00
    endloop
  endfacet
  facet normal -5.421011e-17 1.680513e-15 1.000000e+00
    outer loop
      vertex   4.000000e+00 2.600000e+01 2.500000e+00
      vertex   -4.000000e+00 2.600000e+01 2.500000e+00
      vertex   -3.000000e+00 2.500000e+01 2.500000e+00
    endloop
  endfacet
  facet normal 1.000000e+00 0.000000e+00 2.168404e-16
    outer loop
      vertex   -3.000000e+00 2.500000e+01 2.500000e+00
      vertex   -3.000000e+00 -2.500000e+01 2.500000e+00
      vertex   -3.000000e+00 -2.500000e+01 -1.500000e+00
    endloop
  endfacet
  facet normal 1.000000e+00 -0.000000e+00 2.168404e-16
    outer loop
      vertex   -3.000000e+00 -2.500000e+01 -1.500000e+00
      vertex   -3.000000e+00 2.500000e+01 -1.500000e+00
      vertex   -3.000000e+00 2.500000e+01 2.500000e+00
    endloop
  endfacet
  facet normal -5.421011e-16 0.000000e+00 1.000000e+00
    outer loop
      vertex   -3.000000e+00 2.500000e+01 -1.500000e+00
      vertex   -3.000000e+00 -2.500000e+01 -1.500000e+00
      vertex   -1.000000e+00 -2.500000e+01 -1.500000e+00
    endloop
  endfacet
  facet normal -5.421011e-16 0.000000e+00 1.000000e+00
    outer loop
      vertex   -1.000000e+00 -2.500000e+01 -1.500000e+00
      vertex   -1.000000e+00 2.500000e+01 -1.500000e+00
      vertex   -3.000000e+00 2.500000e+01 -1.500000e+00
    endloop
  endfacet
  facet normal -1.000000e+00 0.000000e+00 2.168404e-16
    outer loop
      vertex   3.000000e+00 2.500000e+01 -1.500000e+00
      vertex   3.000000e+00 -2.500000e+01 -1.500000e+00
      vertex   3.000000e+00 -2.500000e+01 2.500000e+00
    endloop
  endfacet
  facet normal -1.000000e+00 7.523164e-33 2.168404e-16
    outer loop
      vertex   3.000000e+00 -2.500000e+01 2.500000e+00
      vertex   3.000000e+00 2.500000e+01 2.500000e+00
      vertex   3.000000e+00 2.500000e+01 -1.500000e+00
    endloop
  endfacet
  facet normal 5.421011e-16 0.000000e+00 1.000000e+00
    outer loop
      vertex   1.000000e+00 2.500000e+01 -1.500000e+00
      vertex   1.000000e+00 -2.500000e+01 -1.500000e+00
      vertex   3.000000e+00 -2.500000e+01 -1.500000e+00
    endloop
  endfacet
  facet normal 5.421011e-16 -0.000000e+00 1.000000e+00
    outer loop
      vertex   3.000000e+00 -2.500000e+01 -1.500000e+00
      vertex   3.000000e+00 2.500000e+01 -1.500000e+00
      vertex   1.000000e+00 2.500000e+01 -1.500000e+00
    endloop
  endfacet
  facet normal 0.000000e+00 1.000000e+00 0.000000e+00
    outer loop
      vertex   -1.000000e+00 -2.500000e+01 5.000000e-01
      vertex   -1.000000e+00 -2.500000e+01 -1.500000e+00
      vertex   -3.000000e+00 -2.500000e+01 -1.500000e+00
    endloop
  endfacet
  facet normal 0.000000e+00 1.000000e+00 -0.000000e+00
    outer loop
      vertex   -3.000000e+00 -2.500000e+01 -1.500000e+00
      vertex   -3.000000e+00 -2.500000e+01 2.500000e+00
      vertex   -1.000000e+00 -2.500000e+01 5.000000e-01
    endloop
  endfacet
  facet normal 0.000000e+00 1.000000e+00 0.000000e+00
    outer loop
      vertex   1.000000e+00 -2.500000e+01 5.000000e-01
      vertex   -1.000000e+00 -2.500000e+01 5.000000e-01
      vertex   -3.000000e+00 -2.500000e+01 2.500000e+00
    endloop
  endfacet
  facet normal -0.000000e+00 1.000000e+00 0.000000e+00
    outer loop
      vertex   -3.000000e+00 -2.500000e+01 2.500000e+00
      vertex   3.000000e+00 -2.500000e+01 2.500000e+00
      vertex   1.000000e+00 -2.500000e+01 5.000000e-01
    endloop
  endfacet
  facet normal 0.000000e+00 1.000000e+00 0.000000e+00
    outer loop
      vertex   1.000000e+00 -2.500000e+01 -1.500000e+00
      vertex   1.000000e+00 -2.500000e+01 5.000000e-01
      vertex   3.000000e+00 -2.500000e+01 2.500000e+00
    endloop
  endfacet
  facet normal 0.000000e+00 1.000000e+00 0.000000e+00
    outer loop
      vertex   3.000000e+00 -2.500000e+01 2.500000e+00
      vertex   3.000000e+00 -2.500000e+01 -1.500000e+00
      vertex   1.000000e+00 -2.500000e+01 -1.500000e+00
    endloop
  endfacet
  facet normal 0.000000e+00 -1.000000e+00 -0.000000e+00
    outer loop
      vertex   1.000000e+00 2.500000e+01 5.000000e-01
      vertex   1.000000e+00 2.500000e+01 -1.500000e+00
      vertex   3.000000e+00 2.500000e+01 -1.500000e+00
    endloop
  endfacet
  facet normal 0.000000e+00 -1.000000e+00 0.000000e+00
    outer loop
      vertex   3.000000e+00 2.500000e+01 -1.500000e+00
      vertex   3.000000e+00 2.500000e+01 2.500000e+00
      vertex   1.000000e+00 2.500000e+01 5.000000e-01
    endloop
  endfacet
  facet normal 0.000000e+00 -1.000000e+00 0.000000e+00
    outer loop
      vertex   -1.000000e+00 2.500000e+01 5.000000e-01
      vertex   1.000000e+00 2.500000e+01 5.000000e-01
      vertex   3.000000e+00 2.500000e+01 2.500000e+00
    endloop
  endfacet
  facet normal -0.000000e+00 -1.000000e+00 0.000000e+00
    outer loop
      vertex   3.000000e+00 2.500000e+01 2.500000e+00
      vertex   -3.000000e+00 2.500000e+01 2.500000e+00
      vertex   -1.000000e+00 2.500000e+01 5.000000e-01
    endloop
  endfacet
  facet normal 0.000000e+00 -1.000000e+00 0.000000e+00
    outer loop
      vertex   -1.000000e+00 2.500000e+01 -1.500000e+00
      vertex   -1.000000e+00 2.500000e+01 5.000000e-01
      vertex   -3.000000e+00 2.500000e+01 2.500000e+00
    endloop
  endfacet
  facet normal 0.000000e+00 -1.000000e+00 0.000000e+00
    outer loop
      vertex   -3.000000e+00 2.500000e+01 2.500000e+00
      vertex   -3.000000e+00 2.500000e+01 -1.500000e+00
      vertex   -1.000000e+00 2.500000e+01 -1.500000e+00
    endloop
  endfacet
  facet normal 1.000000e+00 0.000000e+00 -3.252607e-16
    outer loop
      vertex   1.000000e+00 2.500000e+01 5.000000e-01
      vertex   1.000000e+00 -2.500000e+01 5.000000e-01
      vertex   1.000000e+00 -2.500000e+01 -1.500000e+00
    endloop
  endfacet
  facet normal 1.000000e+00 0.000000e+00 -3.252607e-16
    outer loop
      vertex   1.000000e+00 -2.500000e+01 -1.500000e+00
      vertex   1.000000e+00 2.500000e+01 -1.500000e+00
      vertex   1.000000e+00 2.500000e+01 5.000000e-01
    endloop
  endfacet
  facet normal -3.252607e-16 0.000000e+00 1.000000e+00
    outer loop
      vertex   -1.000000e+00 2.500000e+01 5.000000e-01
      vertex   -1.000000e+00 -2.500000e+01 5.000000e-01
      vertex   1.000000e+00 -2.500000e+01 5.000000e-01
    endloop
  endfacet
  facet normal -3.252607e-16 0.000000e+00 1.000000e+00
    outer loop
      vertex   1.000000e+00 -2.500000e+01 5.000000e-01
      vertex   1.000000e+00 2.500000e+01 5.000000e-01
      vertex   -1.000000e+00 2.500000e+01 5.000000e-01
    endloop
  endfacet
  facet normal -1.000000e+00 -0.000000e+00 -3.252607e-16
    outer loop
      vertex   -1.000000e+00 2.500000e+01 -1.500000e+00
      vertex   -1.000000e+00 -2.500000e+01 -1.500000e+00
      vertex   -1.000000e+00 -2.500000e+01 5.000000e-01
    endloop
  endfacet
  facet normal -1.000000e+00 0.000000e+00 -3.252607e-16
    outer loop
      vertex   -1.000000e+00 -2.500000e+01 5.000000e-01
      vertex   -1.000000e+00 2.500000e+01 5.000000e-01
      vertex   -1.000000e+00 2.500000e+01 -1.500000e+00
    endloop
  endfacet
endsolid
