solid ascii
  facet normal -3.614007e-17 -0.000000e+00 -1.000000e+00
    outer loop
      vertex   6.000000e+00 2.600000e+01 -3.500000e+00
      vertex   6.000000e+00 -2.600000e+01 -3.500000e+00
      vertex   -6.000000e+00 -2.600000e+01 -3.500000e+00
    endloop
  endfacet
  facet normal -3.614007e-17 0.000000e+00 -1.000000e+00
    outer loop
      vertex   -6.000000e+00 -2.600000e+01 -3.500000e+00
      vertex   -6.000000e+00 2.600000e+01 -3.500000e+00
      vertex   6.000000e+00 2.600000e+01 -3.500000e+00
    endloop
  endfacet
  facet normal 1.000000e+00 0.000000e+00 0.000000e+00
    outer loop
      vertex   6.000000e+00 2.600000e+01 3.500000e+00
      vertex   6.000000e+00 -2.600000e+01 3.500000e+00
      vertex   6.000000e+00 -2.600000e+01 -3.500000e+00
    endloop
  endfacet
  facet normal 1.000000e+00 0.000000e+00 0.000000e+00
    outer loop
      vertex   6.000000e+00 -2.600000e+01 -3.500000e+00
      vertex   6.000000e+00 2.600000e+01 -3.500000e+00
      vertex   6.000000e+00 2.600000e+01 3.500000e+00
    endloop
  endfacet
  facet normal -1.000000e+00 0.000000e+00 0.000000e+00
    outer loop
      vertex   -6.000000e+00 2.600000e+01 -3.500000e+00
      vertex   -6.000000e+00 -2.600000e+01 -3.500000e+00
      vertex   -6.000000e+00 -2.600000e+01 3.500000e+00
    endloop
  endfacet
  facet normal -1.000000e+00 0.000000e+00 0.000000e+00
    outer loop
      vertex   -6.000000e+00 -2.600000e+01 3.500000e+00
      vertex   -6.000000e+00 2.600000e+01 3.500000e+00
      vertex   -6.000000e+00 2.600000e+01 -3.500000e+00
    endloop
  endfacet
  facet normal 0.000000e+00 -1.000000e+00 0.000000e+00
    outer loop
      vertex   6.000000e+00 -2.600000e+01 -3.500000e+00
      vertex   6.000000e+00 -2.600000e+01 3.500000e+00
      vertex   -6.000000e+00 -2.600000e+01 3.500000e+00
    endloop
  endfacet
  facet normal 0.000000e+00 -1.000000e+00 0.000000e+00
    outer loop
      vertex   -6.000000e+00 -2.600000e+01 3.500000e+00
      vertex   -6.000000e+00 -2.600000e+01 -3.500000e+00
      vertex   6.000000e+00 -2.600000e+01 -3.500000e+00
    endloop
  endfacet
  facet normal 0.000000e+00 1.000000e+00 0.000000e+00
    outer loop
      vertex   -6.000000e+00 2.600000e+01 -3.500000e+00
      vertex   -6.000000e+00 2.600000e+01 3.500000e+00
      vertex   6.000000e+00 2.600000e+01 3.500000e+00
    endloop
  endfacet
  facet normal 0.000000e+00 1.000000e+00 0.000000e+00
    outer loop
      vertex   6.000000e+00 2.600000e+01 3.500000e+00
      vertex   6.000000e+00 2.600000e+01 -3.500000e+00
      vertex   -6.000000e+00 2.600000e+01 -3.500000e+00
    endloop
  endfacet
  facet normal 3.469447e-15 -0.000000e+00 1.000000e+00
    outer loop
      vertex   -5.000000e+00 -2.500000e+01 3.500000e+00
      vertex   -5.000000e+00 2.500000e+01 3.500000e+00
      vertex   -6.000000e+00 2.600000e+01 3.500000e+00
    endloop
  endfacet
  facet normal 3.469447e-15 0.000000e+00 1.000000e+00
    outer loop
      vertex   -6.000000e+00 2.600000e+01 3.500000e+00
      vertex   -6.000000e+00 -2.600000e+01 3.500000e+00
      vertex   -5.000000e+00 -2.500000e+01 3.500000e+00
    endloop
  endfacet
  facet normal 0.000000e+00 3.469447e-15 1.000000e+00
    outer loop
      vertex   5.000000e+00 -2.500000e+01 3.500000e+00
      vertex   -5.000000e+00 -2.500000e+01 3.500000e+00
      vertex   -6.000000e+00 -2.600000e+01 3.500000e+00
    endloop
  endfacet
  facet normal 3.614007e-17 3.071906e-15 1.000000e+00
    outer loop
      vertex   -6.000000e+00 -2.600000e+01 3.500000e+00
      vertex   6.000000e+00 -2.600000e+01 3.500000e+00
      vertex   5.000000e+00 -2.500000e+01 3.500000e+00
    endloop
  endfacet
  facet normal -3.105155e-15 -6.938894e-17 1.000000e+00
    outer loop
      vertex   5.000000e+00 2.500000e+01 3.500000e+00
      vertex   5.000000e+00 -2.500000e+01 3.500000e+00
      vertex   6.000000e+00 -2.600000e+01 3.500000e+00
    endloop
  endfacet
  facet normal 4.336809e-16 -0.000000e+00 1.000000e+00
    outer loop
      vertex   6.000000e+00 -2.600000e+01 3.500000e+00
      vertex   6.000000e+00 2.600000e+01 3.500000e+00
      vertex   5.000000e+00 2.500000e+01 3.500000e+00
    endloop
  endfacet
  facet normal -3.469447e-16 7.806256e-16 1.000000e+00
    outer loop
      vertex   -5.000000e+00 2.500000e+01 3.500000e+00
      vertex   5.000000e+00 2.500000e+01 3.500000e+00
      vertex   6.000000e+00 2.600000e+01 3.500000e+00
    endloop
  endfacet
  facet normal 3.614007e-17 -3.433307e-15 1.000000e+00
    outer loop
      vertex   6.000000e+00 2.600000e+01 3.500000e+00
      vertex   -6.000000e+00 2.600000e+01 3.500000e+00
      vertex   -5.000000e+00 2.500000e+01 3.500000e+00
    endloop
  endfacet
  facet normal 1.000000e+00 0.000000e+00 5.782412e-16
    outer loop
      vertex   -5.000000e+00 2.500000e+01 3.500000e+00
      vertex   -5.000000e+00 -2.500000e+01 3.500000e+00
      vertex   -5.000000e+00 -2.500000e+01 -2.500000e+00
    endloop
  endfacet
  facet normal 1.000000e+00 -0.000000e+00 5.782412e-16
    outer loop
      vertex   -5.000000e+00 -2.500000e+01 -2.500000e+00
      vertex   -5.000000e+00 2.500000e+01 -2.500000e+00
      vertex   -5.000000e+00 2.500000e+01 3.500000e+00
    endloop
  endfacet
  facet normal -4.336809e-16 0.000000e+00 1.000000e+00
    outer loop
      vertex   -5.000000e+00 2.500000e+01 -2.500000e+00
      vertex   -5.000000e+00 -2.500000e+01 -2.500000e+00
      vertex   -1.000000e+00 -2.500000e+01 -2.500000e+00
    endloop
  endfacet
  facet normal -4.336809e-16 0.000000e+00 1.000000e+00
    outer loop
      vertex   -1.000000e+00 -2.500000e+01 -2.500000e+00
      vertex   -1.000000e+00 2.500000e+01 -2.500000e+00
      vertex   -5.000000e+00 2.500000e+01 -2.500000e+00
    endloop
  endfacet
  facet normal -1.000000e+00 0.000000e+00 5.782412e-16
    outer loop
      vertex   5.000000e+00 2.500000e+01 -2.500000e+00
      vertex   5.000000e+00 -2.500000e+01 -2.500000e+00
      vertex   5.000000e+00 -2.500000e+01 3.500000e+00
    endloop
  endfacet
  facet normal -1.000000e+00 -4.012354e-32 5.782412e-16
    outer loop
      vertex   5.000000e+00 -2.500000e+01 3.500000e+00
      vertex   5.000000e+00 2.500000e+01 3.500000e+00
      vertex   5.000000e+00 2.500000e+01 -2.500000e+00
    endloop
  endfacet
  facet normal 3.252607e-16 0.000000e+00 1.000000e+00
    outer loop
      vertex   1.000000e+00 2.500000e+01 -2.500000e+00
      vertex   1.000000e+00 -2.500000e+01 -2.500000e+00
      vertex   5.000000e+00 -2.500000e+01 -2.500000e+00
    endloop
  endfacet
  facet normal 3.252607e-16 -0.000000e+00 1.000000e+00
    outer loop
      vertex   5.000000e+00 -2.500000e+01 -2.500000e+00
      vertex   5.000000e+00 2.500000e+01 -2.500000e+00
      vertex   1.000000e+00 2.500000e+01 -2.500000e+00
    endloop
  endfacet
  facet normal 0.000000e+00 1.000000e+00 0.000000e+00
    outer loop
      vertex   -1.000000e+00 -2.500000e+01 -5.000000e-01
      vertex   -1.000000e+00 -2.500000e+01 -2.500000e+00
      vertex   -5.000000e+00 -2.500000e+01 -2.500000e+00
    endloop
  endfacet
  facet normal 0.000000e+00 1.000000e+00 -0.000000e+00
    outer loop
      vertex   -5.000000e+00 -2.500000e+01 -2.500000e+00
      vertex   -5.000000e+00 -2.500000e+01 3.500000e+00
      vertex   -1.000000e+00 -2.500000e+01 -5.000000e-01
    endloop
  endfacet
  facet normal 0.000000e+00 1.000000e+00 0.000000e+00
    outer loop
      vertex   1.000000e+00 -2.500000e+01 -5.000000e-01
      vertex   -1.000000e+00 -2.500000e+01 -5.000000e-01
      vertex   -5.000000e+00 -2.500000e+01 3.500000e+00
    endloop
  endfacet
  facet normal -0.000000e+00 1.000000e+00 0.000000e+00
    outer loop
      vertex   -5.000000e+00 -2.500000e+01 3.500000e+00
      vertex   5.000000e+00 -2.500000e+01 3.500000e+00
      vertex   1.000000e+00 -2.500000e+01 -5.000000e-01
    endloop
  endfacet
  facet normal 0.000000e+00 1.000000e+00 -0.000000e+00
    outer loop
      vertex   1.000000e+00 -2.500000e+01 -2.500000e+00
      vertex   1.000000e+00 -2.500000e+01 -5.000000e-01
      vertex   5.000000e+00 -2.500000e+01 3.500000e+00
    endloop
  endfacet
  facet normal 0.000000e+00 1.000000e+00 0.000000e+00
    outer loop
      vertex   5.000000e+00 -2.500000e+01 3.500000e+00
      vertex   5.000000e+00 -2.500000e+01 -2.500000e+00
      vertex   1.000000e+00 -2.500000e+01 -2.500000e+00
    endloop
  endfacet
  facet normal 0.000000e+00 -1.000000e+00 0.000000e+00
    outer loop
      vertex   1.000000e+00 2.500000e+01 -5.000000e-01
      vertex   1.000000e+00 2.500000e+01 -2.500000e+00
      vertex   5.000000e+00 2.500000e+01 -2.500000e+00
    endloop
  endfacet
  facet normal 0.000000e+00 -1.000000e+00 0.000000e+00
    outer loop
      vertex   5.000000e+00 2.500000e+01 -2.500000e+00
      vertex   5.000000e+00 2.500000e+01 3.500000e+00
      vertex   1.000000e+00 2.500000e+01 -5.000000e-01
    endloop
  endfacet
  facet normal 0.000000e+00 -1.000000e+00 0.000000e+00
    outer loop
      vertex   -1.000000e+00 2.500000e+01 -5.000000e-01
      vertex   1.000000e+00 2.500000e+01 -5.000000e-01
      vertex   5.000000e+00 2.500000e+01 3.500000e+00
    endloop
  endfacet
  facet normal 0.000000e+00 -1.000000e+00 0.000000e+00
    outer loop
      vertex   5.000000e+00 2.500000e+01 3.500000e+00
      vertex   -5.000000e+00 2.500000e+01 3.500000e+00
      vertex   -1.000000e+00 2.500000e+01 -5.000000e-01
    endloop
  endfacet
  facet normal 0.000000e+00 -1.000000e+00 0.000000e+00
    outer loop
      vertex   -1.000000e+00 2.500000e+01 -2.500000e+00
      vertex   -1.000000e+00 2.500000e+01 -5.000000e-01
      vertex   -5.000000e+00 2.500000e+01 3.500000e+00
    endloop
  endfacet
  facet normal 0.000000e+00 -1.000000e+00 0.000000e+00
    outer loop
      vertex   -5.000000e+00 2.500000e+01 3.500000e+00
      vertex   -5.000000e+00 2.500000e+01 -2.500000e+00
      vertex   -1.000000e+00 2.500000e+01 -2.500000e+00
    endloop
  endfacet
  facet normal 1.000000e+00 0.000000e+00 2.168404e-16
    outer loop
      vertex   1.000000e+00 2.500000e+01 -5.000000e-01
      vertex   1.000000e+00 -2.500000e+01 -5.000000e-01
      vertex   1.000000e+00 -2.500000e+01 -2.500000e+00
    endloop
  endfacet
  facet normal 1.000000e+00 -0.000000e+00 2.168404e-16
    outer loop
      vertex   1.000000e+00 -2.500000e+01 -2.500000e+00
      vertex   1.000000e+00 2.500000e+01 -2.500000e+00
      vertex   1.000000e+00 2.500000e+01 -5.000000e-01
    endloop
  endfacet
  facet normal -5.421011e-16 0.000000e+00 1.000000e+00
    outer loop
      vertex   -1.000000e+00 2.500000e+01 -5.000000e-01
      vertex   -1.000000e+00 -2.500000e+01 -5.000000e-01
      vertex   1.000000e+00 -2.500000e+01 -5.000000e-01
    endloop
  endfacet
  facet normal -5.421011e-16 0.000000e+00 1.000000e+00
    outer loop
      vertex   1.000000e+00 -2.500000e+01 -5.000000e-01
      vertex   1.000000e+00 2.500000e+01 -5.000000e-01
      vertex   -1.000000e+00 2.500000e+01 -5.000000e-01
    endloop
  endfacet
  facet normal -1.000000e+00 0.000000e+00 2.168404e-16
    outer loop
      vertex   -1.000000e+00 2.500000e+01 -2.500000e+00
      vertex   -1.000000e+00 -2.500000e+01 -2.500000e+00
      vertex   -1.000000e+00 -2.500000e+01 -5.000000e-01
    endloop
  endfacet
  facet normal -1.000000e+00 0.000000e+00 2.168404e-16
    outer loop
      vertex   -1.000000e+00 -2.500000e+01 -5.000000e-01
      vertex   -1.000000e+00 2.500000e+01 -5.000000e-01
      vertex   -1.000000e+00 2.500000e+01 -2.500000e+00
    endloop
  endfacet
endsolid
