solid ascii
  facet normal 0.000000e+00 -0.000000e+00 -1.000000e+00
    outer loop
      vertex   4.000000e+00 2.600000e+01 -2.250000e+00
      vertex   4.000000e+00 -2.600000e+01 -2.250000e+00
      vertex   -4.000000e+00 -2.600000e+01 -2.250000e+00
    endloop
  endfacet
  facet normal 0.000000e+00 0.000000e+00 -1.000000e+00
    outer loop
      vertex   -4.000000e+00 -2.600000e+01 -2.250000e+00
      vertex   -4.000000e+00 2.600000e+01 -2.250000e+00
      vertex   4.000000e+00 2.600000e+01 -2.250000e+00
    endloop
  endfacet
  facet normal 1.000000e+00 0.000000e+00 0.000000e+00
    outer loop
      vertex   4.000000e+00 2.600000e+01 2.250000e+00
      vertex   4.000000e+00 -2.600000e+01 2.250000e+00
      vertex   4.000000e+00 -2.600000e+01 -2.250000e+00
    endloop
  endfacet
  facet normal 1.000000e+00 0.000000e+00 0.000000e+00
    outer loop
      vertex   4.000000e+00 -2.600000e+01 -2.250000e+00
      vertex   4.000000e+00 2.600000e+01 -2.250000e+00
      vertex   4.000000e+00 2.600000e+01 2.250000e+00
    endloop
  endfacet
  facet normal -1.000000e+00 0.000000e+00 0.000000e+00
    outer loop
      vertex   -4.000000e+00 2.600000e+01 -2.250000e+00
      vertex   -4.000000e+00 -2.600000e+01 -2.250000e+00
      vertex   -4.000000e+00 -2.600000e+01 2.250000e+00
    endloop
  endfacet
  facet normal -1.000000e+00 0.000000e+00 0.000000e+00
    outer loop
      vertex   -4.000000e+00 -2.600000e+01 2.250000e+00
      vertex   -4.000000e+00 2.600000e+01 2.250000e+00
      vertex   -4.000000e+00 2.600000e+01 -2.250000e+00
    endloop
  endfacet
  facet normal 0.000000e+00 -1.000000e+00 0.000000e+00
    outer loop
      vertex   4.000000e+00 -2.600000e+01 -2.250000e+00
      vertex   4.000000e+00 -2.600000e+01 2.250000e+00
      vertex   -4.000000e+00 -2.600000e+01 2.250000e+00
    endloop
  endfacet
  facet normal 0.000000e+00 -1.000000e+00 0.000000e+00
    outer loop
      vertex   -4.000000e+00 -2.600000e+01 2.250000e+00
      vertex   -4.000000e+00 -2.600000e+01 -2.250000e+00
      vertex   4.000000e+00 -2.600000e+01 -2.250000e+00
    endloop
  endfacet
  facet normal 0.000000e+00 1.000000e+00 0.000000e+00
    outer loop
      vertex   -4.000000e+00 2.600000e+01 -2.250000e+00
      vertex   -4.000000e+00 2.600000e+01 2.250000e+00
      vertex   4.000000e+00 2.600000e+01 2.250000e+00
    endloop
  endfacet
  facet normal 0.000000e+00 1.000000e+00 0.000000e+00
    outer loop
      vertex   4.000000e+00 2.600000e+01 2.250000e+00
      vertex   4.000000e+00 2.600000e+01 -2.250000e+00
      vertex   -4.000000e+00 2.600000e+01 -2.250000e+00
    endloop
  endfacet
  facet normal -1.734723e-15 0.000000e+00 1.000000e+00
    outer loop
      vertex   -3.000000e+00 -2.500000e+01 2.250000e+00
      vertex   -3.000000e+00 2.500000e+01 2.250000e+00
      vertex   -4.000000e+00 2.600000e+01 2.250000e+00
    endloop
  endfacet
  facet normal -1.734723e-15 0.000000e+00 1.000000e+00
    outer loop
      vertex   -4.000000e+00 2.600000e+01 2.250000e+00
      vertex   -4.000000e+00 -2.600000e+01 2.250000e+00
      vertex   -3.000000e+00 -2.500000e+01 2.250000e+00
    endloop
  endfacet
  facet normal 0.000000e+00 -1.734723e-15 1.000000e+00
    outer loop
      vertex   3.000000e+00 -2.500000e+01 2.250000e+00
      vertex   -3.000000e+00 -2.500000e+01 2.250000e+00
      vertex   -4.000000e+00 -2.600000e+01 2.250000e+00
    endloop
  endfacet
  facet normal 0.000000e+00 -1.734723e-15 1.000000e+00
    outer loop
      vertex   -4.000000e+00 -2.600000e+01 2.250000e+00
      vertex   4.000000e+00 -2.600000e+01 2.250000e+00
      vertex   3.000000e+00 -2.500000e+01 2.250000e+00
    endloop
  endfacet
  facet normal 1.769418e-15 3.469447e-17 1.000000e+00
    outer loop
      vertex   3.000000e+00 2.500000e+01 2.250000e+00
      vertex   3.000000e+00 -2.500000e+01 2.250000e+00
      vertex   4.000000e+00 -2.600000e+01 2.250000e+00
    endloop
  endfacet
  facet normal 0.000000e+00 -0.000000e+00 1.000000e+00
    outer loop
      vertex   4.000000e+00 -2.600000e+01 2.250000e+00
      vertex   4.000000e+00 2.600000e+01 2.250000e+00
      vertex   3.000000e+00 2.500000e+01 2.250000e+00
    endloop
  endfacet
  facet normal 2.891206e-16 -2.891206e-16 1.000000e+00
    outer loop
      vertex   -3.000000e+00 2.500000e+01 2.250000e+00
      vertex   3.000000e+00 2.500000e+01 2.250000e+00
      vertex   4.000000e+00 2.600000e+01 2.250000e+00
    endloop
  endfacet
  facet normal 0.000000e+00 1.734723e-15 1.000000e+00
    outer loop
      vertex   4.000000e+00 2.600000e+01 2.250000e+00
      vertex   -4.000000e+00 2.600000e+01 2.250000e+00
      vertex   -3.000000e+00 2.500000e+01 2.250000e+00
    endloop
  endfacet
  facet normal 1.000000e+00 0.000000e+00 4.956353e-16
    outer loop
      vertex   -3.000000e+00 2.500000e+01 2.250000e+00
      vertex   -3.000000e+00 -2.500000e+01 2.250000e+00
      vertex   -3.000000e+00 -2.500000e+01 -1.250000e+00
    endloop
  endfacet
  facet normal 1.000000e+00 -0.000000e+00 4.956353e-16
    outer loop
      vertex   -3.000000e+00 -2.500000e+01 -1.250000e+00
      vertex   -3.000000e+00 2.500000e+01 -1.250000e+00
      vertex   -3.000000e+00 2.500000e+01 2.250000e+00
    endloop
  endfacet
  facet normal -3.469447e-16 0.000000e+00 1.000000e+00
    outer loop
      vertex   -3.000000e+00 2.500000e+01 -1.250000e+00
      vertex   -3.000000e+00 -2.500000e+01 -1.250000e+00
      vertex   -5.000000e-01 -2.500000e+01 -1.250000e+00
    endloop
  endfacet
  facet normal -3.469447e-16 0.000000e+00 1.000000e+00
    outer loop
      vertex   -5.000000e-01 -2.500000e+01 -1.250000e+00
      vertex   -5.000000e-01 2.500000e+01 -1.250000e+00
      vertex   -3.000000e+00 2.500000e+01 -1.250000e+00
    endloop
  endfacet
  facet normal -1.000000e+00 0.000000e+00 4.956353e-16
    outer loop
      vertex   3.000000e+00 2.500000e+01 -1.250000e+00
      vertex   3.000000e+00 -2.500000e+01 -1.250000e+00
      vertex   3.000000e+00 -2.500000e+01 2.250000e+00
    endloop
  endfacet
  facet normal -1.000000e+00 1.719580e-32 4.956353e-16
    outer loop
      vertex   3.000000e+00 -2.500000e+01 2.250000e+00
      vertex   3.000000e+00 2.500000e+01 2.250000e+00
      vertex   3.000000e+00 2.500000e+01 -1.250000e+00
    endloop
  endfacet
  facet normal 4.336809e-16 0.000000e+00 1.000000e+00
    outer loop
      vertex   5.000000e-01 2.500000e+01 -1.250000e+00
      vertex   5.000000e-01 -2.500000e+01 -1.250000e+00
      vertex   3.000000e+00 -2.500000e+01 -1.250000e+00
    endloop
  endfacet
  facet normal 4.336809e-16 -0.000000e+00 1.000000e+00
    outer loop
      vertex   3.000000e+00 -2.500000e+01 -1.250000e+00
      vertex   3.000000e+00 2.500000e+01 -1.250000e+00
      vertex   5.000000e-01 2.500000e+01 -1.250000e+00
    endloop
  endfacet
  facet normal 0.000000e+00 1.000000e+00 0.000000e+00
    outer loop
      vertex   -5.000000e-01 -2.500000e+01 -2.500000e-01
      vertex   -5.000000e-01 -2.500000e+01 -1.250000e+00
      vertex   -3.000000e+00 -2.500000e+01 -1.250000e+00
    endloop
  endfacet
  facet normal 0.000000e+00 1.000000e+00 -0.000000e+00
    outer loop
      vertex   -3.000000e+00 -2.500000e+01 -1.250000e+00
      vertex   -3.000000e+00 -2.500000e+01 2.250000e+00
      vertex   -5.000000e-01 -2.500000e+01 -2.500000e-01
    endloop
  endfacet
  facet normal 0.000000e+00 1.000000e+00 0.000000e+00
    outer loop
      vertex   5.000000e-01 -2.500000e+01 -2.500000e-01
      vertex   -5.000000e-01 -2.500000e+01 -2.500000e-01
      vertex   -3.000000e+00 -2.500000e+01 2.250000e+00
    endloop
  endfacet
  facet normal -0.000000e+00 1.000000e+00 0.000000e+00
    outer loop
      vertex   -3.000000e+00 -2.500000e+01 2.250000e+00
      vertex   3.000000e+00 -2.500000e+01 2.250000e+00
      vertex   5.000000e-01 -2.500000e+01 -2.500000e-01
    endloop
  endfacet
  facet normal 0.000000e+00 1.000000e+00 -0.000000e+00
    outer loop
      vertex   5.000000e-01 -2.500000e+01 -1.250000e+00
      vertex   5.000000e-01 -2.500000e+01 -2.500000e-01
      vertex   3.000000e+00 -2.500000e+01 2.250000e+00
    endloop
  endfacet
  facet normal 0.000000e+00 1.000000e+00 0.000000e+00
    outer loop
      vertex   3.000000e+00 -2.500000e+01 2.250000e+00
      vertex   3.000000e+00 -2.500000e+01 -1.250000e+00
      vertex   5.000000e-01 -2.500000e+01 -1.250000e+00
    endloop
  endfacet
  facet normal 0.000000e+00 -1.000000e+00 0.000000e+00
    outer loop
      vertex   5.000000e-01 2.500000e+01 -2.500000e-01
      vertex   5.000000e-01 2.500000e+01 -1.250000e+00
      vertex   3.000000e+00 2.500000e+01 -1.250000e+00
    endloop
  endfacet
  facet normal 0.000000e+00 -1.000000e+00 0.000000e+00
    outer loop
      vertex   3.000000e+00 2.500000e+01 -1.250000e+00
      vertex   3.000000e+00 2.500000e+01 2.250000e+00
      vertex   5.000000e-01 2.500000e+01 -2.500000e-01
    endloop
  endfacet
  facet normal 0.000000e+00 -1.000000e+00 0.000000e+00
    outer loop
      vertex   -5.000000e-01 2.500000e+01 -2.500000e-01
      vertex   5.000000e-01 2.500000e+01 -2.500000e-01
      vertex   3.000000e+00 2.500000e+01 2.250000e+00
    endloop
  endfacet
  facet normal -0.000000e+00 -1.000000e+00 0.000000e+00
    outer loop
      vertex   3.000000e+00 2.500000e+01 2.250000e+00
      vertex   -3.000000e+00 2.500000e+01 2.250000e+00
      vertex   -5.000000e-01 2.500000e+01 -2.500000e-01
    endloop
  endfacet
  facet normal 0.000000e+00 -1.000000e+00 0.000000e+00
    outer loop
      vertex   -5.000000e-01 2.500000e+01 -1.250000e+00
      vertex   -5.000000e-01 2.500000e+01 -2.500000e-01
      vertex   -3.000000e+00 2.500000e+01 2.250000e+00
    endloop
  endfacet
  facet normal 0.000000e+00 -1.000000e+00 0.000000e+00
    outer loop
      vertex   -3.000000e+00 2.500000e+01 2.250000e+00
      vertex   -3.000000e+00 2.500000e+01 -1.250000e+00
      vertex   -5.000000e-01 2.500000e+01 -1.250000e+00
    endloop
  endfacet
  facet normal 1.000000e+00 0.000000e+00 1.084202e-16
    outer loop
      vertex   5.000000e-01 2.500000e+01 -2.500000e-01
      vertex   5.000000e-01 -2.500000e+01 -2.500000e-01
      vertex   5.000000e-01 -2.500000e+01 -1.250000e+00
    endloop
  endfacet
  facet normal 1.000000e+00 -0.000000e+00 1.084202e-16
    outer loop
      vertex   5.000000e-01 -2.500000e+01 -1.250000e+00
      vertex   5.000000e-01 2.500000e+01 -1.250000e+00
      vertex   5.000000e-01 2.500000e+01 -2.500000e-01
    endloop
  endfacet
  facet normal -3.252607e-16 0.000000e+00 1.000000e+00
    outer loop
      vertex   -5.000000e-01 2.500000e+01 -2.500000e-01
      vertex   -5.000000e-01 -2.500000e+01 -2.500000e-01
      vertex   5.000000e-01 -2.500000e+01 -2.500000e-01
    endloop
  endfacet
  facet normal -3.252607e-16 0.000000e+00 1.000000e+00
    outer loop
      vertex   5.000000e-01 -2.500000e+01 -2.500000e-01
      vertex   5.000000e-01 2.500000e+01 -2.500000e-01
      vertex   -5.000000e-01 2.500000e+01 -2.500000e-01
    endloop
  endfacet
  facet normal -1.000000e+00 0.000000e+00 1.084202e-16
    outer loop
      vertex   -5.000000e-01 2.500000e+01 -1.250000e+00
      vertex   -5.000000e-01 -2.500000e+01 -1.250000e+00
      vertex   -5.000000e-01 -2.500000e+01 -2.500000e-01
    endloop
  endfacet
  facet normal -1.000000e+00 0.000000e+00 1.084202e-16
    outer loop
      vertex   -5.000000e-01 -2.500000e+01 -2.500000e-01
      vertex   -5.000000e-01 2.500000e+01 -2.500000e-01
      vertex   -5.000000e-01 2.500000e+01 -1.250000e+00
    endloop
  endfacet
endsolid
