%TF.GenerationSoftware,KiCad,Pcbnew,(7.0.0)*%
%TF.CreationDate,2023-11-14T12:34:17+01:00*%
%TF.ProjectId,Helios_PCB_emitter,48656c69-6f73-45f5-9043-425f656d6974,rev?*%
%TF.SameCoordinates,Original*%
%TF.FileFunction,Copper,L1,Top*%
%TF.FilePolarity,Positive*%
%FSLAX46Y46*%
G04 Gerber Fmt 4.6, Leading zero omitted, Abs format (unit mm)*
G04 Created by KiCad (PCBNEW (7.0.0)) date 2023-11-14 12:34:17*
%MOMM*%
%LPD*%
G01*
G04 APERTURE LIST*
G04 Aperture macros list*
%AMRotRect*
0 Rectangle, with rotation*
0 The origin of the aperture is its center*
0 $1 length*
0 $2 width*
0 $3 Rotation angle, in degrees counterclockwise*
0 Add horizontal line*
21,1,$1,$2,0,0,$3*%
G04 Aperture macros list end*
%TA.AperFunction,SMDPad,CuDef*%
%ADD10RotRect,1.500000X2.600000X135.000000*%
%TD*%
%TA.AperFunction,SMDPad,CuDef*%
%ADD11RotRect,1.500000X2.600000X225.000000*%
%TD*%
%TA.AperFunction,SMDPad,CuDef*%
%ADD12RotRect,1.500000X2.600000X315.000000*%
%TD*%
%TA.AperFunction,ComponentPad*%
%ADD13R,1.700000X1.700000*%
%TD*%
%TA.AperFunction,ComponentPad*%
%ADD14O,1.700000X1.700000*%
%TD*%
%TA.AperFunction,SMDPad,CuDef*%
%ADD15RotRect,1.500000X2.600000X45.000000*%
%TD*%
%TA.AperFunction,ViaPad*%
%ADD16C,0.800000*%
%TD*%
%TA.AperFunction,Conductor*%
%ADD17C,0.500000*%
%TD*%
G04 APERTURE END LIST*
D10*
%TO.P,D1,1,K*%
%TO.N,Net-(D0-K)*%
X175560659Y-110560659D03*
%TO.P,D1,2,A*%
%TO.N,Net-(D0-A)*%
X173439339Y-108439339D03*
%TD*%
D11*
%TO.P,D0,1,K*%
%TO.N,Net-(D0-K)*%
X175560659Y-89439339D03*
%TO.P,D0,2,A*%
%TO.N,Net-(D0-A)*%
X173439339Y-91560659D03*
%TD*%
D12*
%TO.P,D3,1,K*%
%TO.N,Net-(D0-K)*%
X154439339Y-89439339D03*
%TO.P,D3,2,A*%
%TO.N,Net-(D0-A)*%
X156560659Y-91560659D03*
%TD*%
D13*
%TO.P,J1,1,Pin_1*%
%TO.N,VCC*%
X162474999Y-101249399D03*
D14*
%TO.P,J1,2,Pin_2*%
X162474999Y-98709399D03*
%TO.P,J1,3,Pin_3*%
%TO.N,S0*%
X165014999Y-101249399D03*
%TO.P,J1,4,Pin_4*%
%TO.N,S1*%
X165014999Y-98709399D03*
%TO.P,J1,5,Pin_5*%
%TO.N,GND*%
X167554999Y-101249399D03*
%TO.P,J1,6,Pin_6*%
X167554999Y-98709399D03*
%TD*%
D15*
%TO.P,D2,1,K*%
%TO.N,Net-(D0-K)*%
X154439339Y-110560659D03*
%TO.P,D2,2,A*%
%TO.N,Net-(D0-A)*%
X156560659Y-108439339D03*
%TD*%
D16*
%TO.N,Net-(D0-K)*%
X178155600Y-97536000D03*
X151801600Y-97485200D03*
%TO.N,Net-(D0-A)*%
X156718000Y-98704400D03*
%TD*%
D17*
%TO.N,Net-(D0-K)*%
X178155600Y-97536000D02*
X178155600Y-107965720D01*
X178155600Y-107965720D02*
X175560660Y-110560660D01*
X151801600Y-92077080D02*
X154439340Y-89439340D01*
X178155600Y-92034280D02*
X175560660Y-89439340D01*
X151801600Y-97485200D02*
X151801600Y-92077080D01*
X151801600Y-107922920D02*
X154439340Y-110560660D01*
X151801600Y-97485200D02*
X151801600Y-107922920D01*
X178155600Y-97536000D02*
X178155600Y-92034280D01*
%TO.N,Net-(D0-A)*%
X175560660Y-93681980D02*
X173439340Y-91560660D01*
X160563000Y-102549400D02*
X175525660Y-102549400D01*
X156560660Y-108439340D02*
X154178000Y-106056680D01*
X154178000Y-106056680D02*
X154178000Y-98704400D01*
X154178000Y-97891600D02*
X154178000Y-93943320D01*
X154178000Y-98704400D02*
X154178000Y-97891600D01*
X175560660Y-102514400D02*
X175560660Y-106318020D01*
X175525660Y-102549400D02*
X175560660Y-102514400D01*
X175560660Y-102514400D02*
X175560660Y-93681980D01*
X154178000Y-93943320D02*
X156560660Y-91560660D01*
X156718000Y-98704400D02*
X154178000Y-98704400D01*
X175560660Y-106318020D02*
X173439340Y-108439340D01*
X156718000Y-98704400D02*
X160563000Y-102549400D01*
%TD*%
%TA.AperFunction,Conductor*%
%TO.N,GND*%
G36*
X156529222Y-85336528D02*
G01*
X156576168Y-85383179D01*
X159943540Y-91226560D01*
X159962175Y-91258897D01*
X159979005Y-91321911D01*
X159962073Y-91384898D01*
X159915915Y-91430980D01*
X159780618Y-91508945D01*
X159780597Y-91508957D01*
X159779061Y-91509843D01*
X159777573Y-91510817D01*
X159777561Y-91510825D01*
X159304647Y-91820579D01*
X159304620Y-91820597D01*
X159303154Y-91821558D01*
X159301731Y-91822610D01*
X159301712Y-91822624D01*
X158847258Y-92158844D01*
X158847240Y-92158857D01*
X158845806Y-92159919D01*
X158844449Y-92161048D01*
X158844420Y-92161071D01*
X158409894Y-92522670D01*
X158409868Y-92522692D01*
X158408510Y-92523823D01*
X158407199Y-92525046D01*
X158407190Y-92525055D01*
X157994006Y-92910853D01*
X157992688Y-92912084D01*
X157991464Y-92913364D01*
X157991449Y-92913380D01*
X157605581Y-93317278D01*
X157599696Y-93323438D01*
X157598543Y-93324790D01*
X157598531Y-93324805D01*
X157231990Y-93755164D01*
X157231969Y-93755189D01*
X157230815Y-93756545D01*
X157229725Y-93757982D01*
X157229719Y-93757991D01*
X156888338Y-94208550D01*
X156888328Y-94208563D01*
X156887246Y-94209992D01*
X156886240Y-94211489D01*
X156886238Y-94211493D01*
X156571102Y-94680822D01*
X156571084Y-94680848D01*
X156570108Y-94682304D01*
X156569208Y-94683824D01*
X156569205Y-94683830D01*
X156281347Y-95170398D01*
X156281334Y-95170420D01*
X156280435Y-95171941D01*
X156279616Y-95173524D01*
X156279605Y-95173545D01*
X156020005Y-95675692D01*
X156019992Y-95675717D01*
X156019171Y-95677307D01*
X156018443Y-95678936D01*
X156018429Y-95678966D01*
X155787908Y-96195094D01*
X155787898Y-96195116D01*
X155787166Y-96196757D01*
X155786527Y-96198437D01*
X155786523Y-96198449D01*
X155589924Y-96716098D01*
X155585177Y-96728598D01*
X155584646Y-96730278D01*
X155584634Y-96730314D01*
X155504414Y-96984360D01*
X155504414Y-96984362D01*
X155499534Y-96999817D01*
X155499459Y-97000000D01*
X155499468Y-97000022D01*
X155499373Y-97000326D01*
X155499825Y-97000468D01*
X155499901Y-97000500D01*
X155499923Y-97000499D01*
X155500326Y-97000627D01*
X155500366Y-97000499D01*
X174542143Y-96987076D01*
X174542184Y-96987203D01*
X174542586Y-96987076D01*
X174542610Y-96987076D01*
X174542688Y-96987043D01*
X174543137Y-96986902D01*
X174543041Y-96986598D01*
X174543051Y-96986576D01*
X174542981Y-96986407D01*
X174457104Y-96714402D01*
X174254593Y-96181036D01*
X174022028Y-95660072D01*
X173988553Y-95595277D01*
X173760983Y-95154782D01*
X173760979Y-95154776D01*
X173760166Y-95153201D01*
X173469857Y-94662069D01*
X173152042Y-94188272D01*
X173147382Y-94182115D01*
X173005267Y-93994330D01*
X172807755Y-93733347D01*
X172438113Y-93298773D01*
X172149963Y-92996708D01*
X172045550Y-92887252D01*
X172045540Y-92887242D01*
X172044317Y-92885960D01*
X171627646Y-92496248D01*
X171189452Y-92130905D01*
X171188017Y-92129841D01*
X171188003Y-92129830D01*
X170732611Y-91792192D01*
X170732604Y-91792187D01*
X170731158Y-91791115D01*
X170541431Y-91666541D01*
X170255773Y-91478979D01*
X170255763Y-91478973D01*
X170254254Y-91477982D01*
X170252701Y-91477085D01*
X170252687Y-91477076D01*
X170168192Y-91428255D01*
X170116457Y-91398362D01*
X170070418Y-91352338D01*
X170053495Y-91289478D01*
X170070205Y-91226562D01*
X173422685Y-85383511D01*
X173469611Y-85336733D01*
X173533786Y-85320232D01*
X173597458Y-85338573D01*
X174175822Y-85690429D01*
X174180853Y-85693656D01*
X174661767Y-86018578D01*
X174661910Y-86018737D01*
X174661939Y-86018695D01*
X174853484Y-86148573D01*
X174858187Y-86151922D01*
X175271481Y-86460811D01*
X175509196Y-86639504D01*
X175513531Y-86642918D01*
X175800374Y-86879401D01*
X175890131Y-86953400D01*
X175890507Y-86953712D01*
X176140375Y-87161345D01*
X176144537Y-87164960D01*
X176494330Y-87482499D01*
X176494615Y-87482760D01*
X176494908Y-87483028D01*
X176745740Y-87713024D01*
X176749622Y-87716739D01*
X177076899Y-88043587D01*
X177077441Y-88044132D01*
X177323804Y-88293190D01*
X177327407Y-88296986D01*
X177552629Y-88544432D01*
X177634296Y-88634158D01*
X177634871Y-88634795D01*
X177873256Y-88900524D01*
X177876581Y-88904384D01*
X178163858Y-89251908D01*
X178164522Y-89252718D01*
X178392808Y-89533601D01*
X178395857Y-89537507D01*
X178664045Y-89895364D01*
X178664752Y-89896317D01*
X178881254Y-90190949D01*
X178884031Y-90194883D01*
X179133269Y-90562739D01*
X179134007Y-90563841D01*
X179337465Y-90871044D01*
X179339974Y-90874990D01*
X179570202Y-91252315D01*
X179570958Y-91253570D01*
X179760392Y-91572317D01*
X179762621Y-91576226D01*
X179973765Y-91962524D01*
X179974500Y-91963890D01*
X180001928Y-92015626D01*
X180149012Y-92293065D01*
X180151004Y-92296985D01*
X180342878Y-92691597D01*
X180343630Y-92693172D01*
X180502492Y-93031732D01*
X180504235Y-93035616D01*
X180676617Y-93437793D01*
X180677346Y-93439531D01*
X180819951Y-93786475D01*
X180821455Y-93790308D01*
X180974169Y-94199378D01*
X180974861Y-94201280D01*
X181100718Y-94555684D01*
X181101990Y-94559453D01*
X181141297Y-94682304D01*
X181234780Y-94974483D01*
X181235410Y-94976512D01*
X181344098Y-95337459D01*
X181345149Y-95341151D01*
X181457855Y-95761410D01*
X181458431Y-95763640D01*
X181549540Y-96130009D01*
X181550380Y-96133612D01*
X181642844Y-96558294D01*
X181643340Y-96560686D01*
X181716578Y-96931521D01*
X181717219Y-96935022D01*
X181728071Y-96999499D01*
X181760130Y-97189988D01*
X181789272Y-97363136D01*
X181789674Y-97365687D01*
X181844827Y-97740131D01*
X181845279Y-97743521D01*
X181896819Y-98174223D01*
X181897114Y-98176929D01*
X181933987Y-98553929D01*
X181934263Y-98557198D01*
X181965222Y-98989701D01*
X181965394Y-98992557D01*
X181983854Y-99370956D01*
X181983968Y-99374095D01*
X181994296Y-99807549D01*
X181994332Y-99810550D01*
X181994332Y-100189450D01*
X181994296Y-100192451D01*
X181983968Y-100625903D01*
X181983854Y-100629042D01*
X181965394Y-101007441D01*
X181965222Y-101010297D01*
X181934263Y-101442800D01*
X181933987Y-101446069D01*
X181897114Y-101823069D01*
X181896819Y-101825775D01*
X181845279Y-102256477D01*
X181844827Y-102259867D01*
X181789674Y-102634311D01*
X181789272Y-102636862D01*
X181717219Y-103064976D01*
X181716578Y-103068477D01*
X181643340Y-103439312D01*
X181642844Y-103441704D01*
X181550380Y-103866386D01*
X181549540Y-103869989D01*
X181458431Y-104236358D01*
X181457855Y-104238588D01*
X181345149Y-104658847D01*
X181344098Y-104662539D01*
X181235410Y-105023486D01*
X181234768Y-105025553D01*
X181101990Y-105440545D01*
X181100718Y-105444314D01*
X180974861Y-105798718D01*
X180974169Y-105800620D01*
X180821455Y-106209690D01*
X180819951Y-106213523D01*
X180677346Y-106560467D01*
X180676617Y-106562205D01*
X180504235Y-106964382D01*
X180502492Y-106968266D01*
X180343630Y-107306826D01*
X180342878Y-107308401D01*
X180151004Y-107703013D01*
X180149012Y-107706933D01*
X179974508Y-108036094D01*
X179973747Y-108037508D01*
X179762639Y-108423740D01*
X179760392Y-108427681D01*
X179570958Y-108746428D01*
X179570202Y-108747683D01*
X179339974Y-109125008D01*
X179337465Y-109128954D01*
X179134007Y-109436157D01*
X179133269Y-109437259D01*
X178884031Y-109805115D01*
X178881254Y-109809049D01*
X178664752Y-110103681D01*
X178664045Y-110104634D01*
X178395857Y-110462491D01*
X178392808Y-110466397D01*
X178164522Y-110747280D01*
X178163858Y-110748090D01*
X177876581Y-111095614D01*
X177873256Y-111099474D01*
X177634871Y-111365203D01*
X177634263Y-111365877D01*
X177327407Y-111703012D01*
X177323804Y-111706808D01*
X177077441Y-111955866D01*
X177076899Y-111956411D01*
X176749622Y-112283259D01*
X176745740Y-112286974D01*
X176494710Y-112517152D01*
X176494245Y-112517576D01*
X176144537Y-112835038D01*
X176140375Y-112838653D01*
X175890507Y-113046286D01*
X175890131Y-113046598D01*
X175513570Y-113357050D01*
X175509128Y-113360547D01*
X175271866Y-113538899D01*
X175271587Y-113539109D01*
X174858203Y-113848065D01*
X174853485Y-113851425D01*
X174661940Y-113981304D01*
X174661766Y-113981421D01*
X174180863Y-114306336D01*
X174175811Y-114309577D01*
X173597255Y-114661548D01*
X173533659Y-114679889D01*
X173469541Y-114663465D01*
X173422595Y-114616809D01*
X171309579Y-110949569D01*
X173906664Y-110949569D01*
X173909085Y-110961741D01*
X173919802Y-111015626D01*
X173919803Y-111015628D01*
X173922224Y-111027800D01*
X173955352Y-111077380D01*
X175043940Y-112165968D01*
X175093520Y-112199096D01*
X175171751Y-112214656D01*
X175249983Y-112199096D01*
X175299562Y-112165968D01*
X177165968Y-110299562D01*
X177199096Y-110249983D01*
X177214656Y-110171751D01*
X177199096Y-110093520D01*
X177165968Y-110043940D01*
X177029319Y-109907291D01*
X176996708Y-109850808D01*
X176996708Y-109785586D01*
X177029317Y-109729106D01*
X178451266Y-108307156D01*
X178461782Y-108297758D01*
X178489570Y-108275599D01*
X178521765Y-108228376D01*
X178524428Y-108224621D01*
X178558393Y-108178603D01*
X178561230Y-108170494D01*
X178566072Y-108163393D01*
X178582906Y-108108812D01*
X178584379Y-108104336D01*
X178595471Y-108072638D01*
X178603246Y-108050420D01*
X178603567Y-108041832D01*
X178606100Y-108033622D01*
X178606100Y-107976506D01*
X178606188Y-107971795D01*
X178607379Y-107939955D01*
X178608324Y-107914710D01*
X178606522Y-107907986D01*
X178606100Y-107900463D01*
X178606100Y-97978099D01*
X178612787Y-97937598D01*
X178632137Y-97901395D01*
X178675109Y-97845392D01*
X178680136Y-97838841D01*
X178740644Y-97692762D01*
X178761282Y-97536000D01*
X178740644Y-97379238D01*
X178680136Y-97233159D01*
X178675110Y-97226609D01*
X178675109Y-97226607D01*
X178632137Y-97170605D01*
X178612787Y-97134402D01*
X178606100Y-97093901D01*
X178606100Y-92066659D01*
X178606892Y-92052552D01*
X178607035Y-92051281D01*
X178610870Y-92017245D01*
X178600243Y-91961085D01*
X178599460Y-91956474D01*
X178598419Y-91949569D01*
X178590948Y-91899993D01*
X178587220Y-91892253D01*
X178585623Y-91883808D01*
X178558915Y-91833276D01*
X178556809Y-91829104D01*
X178536124Y-91786149D01*
X178536122Y-91786146D01*
X178532025Y-91777638D01*
X178526179Y-91771338D01*
X178522165Y-91763742D01*
X178481790Y-91723367D01*
X178478521Y-91719974D01*
X178439655Y-91678086D01*
X178433624Y-91674604D01*
X178428001Y-91669578D01*
X177029320Y-90270897D01*
X176996708Y-90214413D01*
X176996709Y-90149190D01*
X177029318Y-90092709D01*
X177165968Y-89956060D01*
X177199096Y-89906480D01*
X177214656Y-89828249D01*
X177199096Y-89750017D01*
X177165968Y-89700438D01*
X175299562Y-87834032D01*
X175249983Y-87800904D01*
X175237808Y-87798482D01*
X175237807Y-87798482D01*
X175183923Y-87787765D01*
X175171751Y-87785344D01*
X175159579Y-87787765D01*
X175105693Y-87798482D01*
X175105689Y-87798483D01*
X175093520Y-87800904D01*
X175083201Y-87807798D01*
X175083198Y-87807800D01*
X175049087Y-87830592D01*
X175049080Y-87830596D01*
X175043940Y-87834032D01*
X175039567Y-87838404D01*
X175039562Y-87838409D01*
X173959729Y-88918242D01*
X173959724Y-88918247D01*
X173955352Y-88922620D01*
X173951916Y-88927760D01*
X173951912Y-88927767D01*
X173929120Y-88961878D01*
X173929118Y-88961881D01*
X173922224Y-88972200D01*
X173919803Y-88984369D01*
X173919802Y-88984373D01*
X173909239Y-89037481D01*
X173906664Y-89050431D01*
X173922224Y-89128663D01*
X173955352Y-89178242D01*
X175821758Y-91044648D01*
X175871337Y-91077776D01*
X175949569Y-91093336D01*
X176027800Y-91077776D01*
X176077380Y-91044648D01*
X176214027Y-90908001D01*
X176270511Y-90875389D01*
X176335733Y-90875389D01*
X176392217Y-90908001D01*
X177668195Y-92183979D01*
X177695509Y-92224856D01*
X177705100Y-92273074D01*
X177705100Y-97093901D01*
X177698413Y-97134402D01*
X177679063Y-97170605D01*
X177636090Y-97226607D01*
X177636085Y-97226614D01*
X177631064Y-97233159D01*
X177627906Y-97240782D01*
X177627903Y-97240788D01*
X177576180Y-97365660D01*
X177570556Y-97379238D01*
X177569479Y-97387418D01*
X177569477Y-97387426D01*
X177559397Y-97463999D01*
X177549918Y-97536000D01*
X177550996Y-97544188D01*
X177569477Y-97684573D01*
X177569478Y-97684579D01*
X177570556Y-97692762D01*
X177573715Y-97700390D01*
X177573716Y-97700391D01*
X177627903Y-97831211D01*
X177627904Y-97831214D01*
X177631064Y-97838841D01*
X177636087Y-97845388D01*
X177636090Y-97845392D01*
X177679063Y-97901395D01*
X177698413Y-97937598D01*
X177705100Y-97978099D01*
X177705100Y-107726927D01*
X177695509Y-107775145D01*
X177668195Y-107816022D01*
X176392217Y-109091999D01*
X176335733Y-109124611D01*
X176270511Y-109124611D01*
X176214027Y-109091999D01*
X176081757Y-108959729D01*
X176081757Y-108959728D01*
X176077380Y-108955352D01*
X176072230Y-108951911D01*
X176038121Y-108929120D01*
X176038120Y-108929119D01*
X176027800Y-108922224D01*
X176015628Y-108919803D01*
X176015626Y-108919802D01*
X175961741Y-108909085D01*
X175949569Y-108906664D01*
X175937397Y-108909085D01*
X175883512Y-108919802D01*
X175883509Y-108919802D01*
X175871337Y-108922224D01*
X175861017Y-108929119D01*
X175861016Y-108929120D01*
X175826904Y-108951913D01*
X175826900Y-108951915D01*
X175821758Y-108955352D01*
X175817384Y-108959725D01*
X175817379Y-108959730D01*
X173959730Y-110817379D01*
X173959725Y-110817384D01*
X173955352Y-110821758D01*
X173951915Y-110826900D01*
X173951913Y-110826904D01*
X173929120Y-110861016D01*
X173922224Y-110871337D01*
X173906664Y-110949569D01*
X171309579Y-110949569D01*
X170037270Y-108741416D01*
X170020445Y-108678403D01*
X170037382Y-108615417D01*
X170083540Y-108569340D01*
X170220424Y-108490473D01*
X170696391Y-108178759D01*
X171153795Y-107840394D01*
X171591146Y-107476480D01*
X172007020Y-107088204D01*
X172400061Y-106676831D01*
X172768988Y-106243700D01*
X173112600Y-105790224D01*
X173429776Y-105317880D01*
X173719483Y-104828207D01*
X173980777Y-104322802D01*
X174212807Y-103803310D01*
X174414816Y-103271424D01*
X174472748Y-103087960D01*
X174498799Y-103042109D01*
X174541333Y-103010936D01*
X174592900Y-102999900D01*
X174984160Y-102999900D01*
X175047160Y-103016781D01*
X175093279Y-103062900D01*
X175110160Y-103125900D01*
X175110160Y-106079226D01*
X175100569Y-106127444D01*
X175073255Y-106168322D01*
X174270896Y-106970679D01*
X174214412Y-107003290D01*
X174149190Y-107003290D01*
X174092706Y-106970678D01*
X173960437Y-106838409D01*
X173960436Y-106838408D01*
X173956060Y-106834032D01*
X173950910Y-106830591D01*
X173916801Y-106807800D01*
X173916800Y-106807799D01*
X173906480Y-106800904D01*
X173894308Y-106798483D01*
X173894306Y-106798482D01*
X173840421Y-106787765D01*
X173828249Y-106785344D01*
X173816077Y-106787765D01*
X173762192Y-106798482D01*
X173762189Y-106798482D01*
X173750017Y-106800904D01*
X173739697Y-106807799D01*
X173739696Y-106807800D01*
X173705584Y-106830593D01*
X173705580Y-106830595D01*
X173700438Y-106834032D01*
X173696064Y-106838405D01*
X173696059Y-106838410D01*
X171838410Y-108696059D01*
X171838405Y-108696064D01*
X171834032Y-108700438D01*
X171830595Y-108705580D01*
X171830593Y-108705584D01*
X171818886Y-108723105D01*
X171800904Y-108750017D01*
X171785344Y-108828249D01*
X171787765Y-108840421D01*
X171798482Y-108894306D01*
X171798483Y-108894308D01*
X171800904Y-108906480D01*
X171807799Y-108916800D01*
X171807800Y-108916801D01*
X171811423Y-108922224D01*
X171834032Y-108956060D01*
X172922620Y-110044648D01*
X172972200Y-110077776D01*
X173050431Y-110093336D01*
X173128663Y-110077776D01*
X173178242Y-110044648D01*
X175044648Y-108178242D01*
X175077776Y-108128663D01*
X175093336Y-108050431D01*
X175077776Y-107972200D01*
X175044648Y-107922620D01*
X174908000Y-107785971D01*
X174875388Y-107729488D01*
X174875388Y-107664266D01*
X174907997Y-107607784D01*
X175856329Y-106659452D01*
X175866837Y-106650062D01*
X175894630Y-106627899D01*
X175926851Y-106580638D01*
X175929497Y-106576908D01*
X175963453Y-106530902D01*
X175966289Y-106522795D01*
X175971132Y-106515693D01*
X175987973Y-106461089D01*
X175989445Y-106456618D01*
X176004752Y-106412874D01*
X176008306Y-106402719D01*
X176008627Y-106394132D01*
X176011160Y-106385922D01*
X176011160Y-106328822D01*
X176011248Y-106324110D01*
X176011970Y-106304817D01*
X176013385Y-106267010D01*
X176011582Y-106260283D01*
X176011160Y-106252754D01*
X176011160Y-102525186D01*
X176011248Y-102520475D01*
X176013384Y-102463390D01*
X176011582Y-102456666D01*
X176011160Y-102449143D01*
X176011160Y-93714359D01*
X176011952Y-93700252D01*
X176012095Y-93698981D01*
X176015930Y-93664945D01*
X176005308Y-93608810D01*
X176004521Y-93604176D01*
X175997415Y-93557030D01*
X175996008Y-93547693D01*
X175992282Y-93539956D01*
X175990684Y-93531509D01*
X175963974Y-93480972D01*
X175961881Y-93476828D01*
X175937085Y-93425338D01*
X175931241Y-93419039D01*
X175927226Y-93411443D01*
X175886851Y-93371068D01*
X175883581Y-93367674D01*
X175844715Y-93325786D01*
X175838684Y-93322304D01*
X175833061Y-93317278D01*
X174908000Y-92392217D01*
X174875388Y-92335733D01*
X174875389Y-92270510D01*
X174907998Y-92214029D01*
X175044648Y-92077380D01*
X175077776Y-92027800D01*
X175093336Y-91949569D01*
X175077776Y-91871337D01*
X175044648Y-91821758D01*
X173178242Y-89955352D01*
X173128663Y-89922224D01*
X173116488Y-89919802D01*
X173116487Y-89919802D01*
X173062603Y-89909085D01*
X173050431Y-89906664D01*
X173038259Y-89909085D01*
X172984373Y-89919802D01*
X172984369Y-89919803D01*
X172972200Y-89922224D01*
X172961881Y-89929118D01*
X172961878Y-89929120D01*
X172927767Y-89951912D01*
X172927760Y-89951916D01*
X172922620Y-89955352D01*
X172918247Y-89959724D01*
X172918242Y-89959729D01*
X171838409Y-91039562D01*
X171838404Y-91039567D01*
X171834032Y-91043940D01*
X171830596Y-91049080D01*
X171830592Y-91049087D01*
X171807800Y-91083198D01*
X171807798Y-91083201D01*
X171800904Y-91093520D01*
X171798483Y-91105689D01*
X171798482Y-91105693D01*
X171791066Y-91142980D01*
X171785344Y-91171751D01*
X171800904Y-91249983D01*
X171834032Y-91299562D01*
X173700438Y-93165968D01*
X173750017Y-93199096D01*
X173828249Y-93214656D01*
X173906480Y-93199096D01*
X173956060Y-93165968D01*
X174092709Y-93029318D01*
X174149190Y-92996709D01*
X174214413Y-92996708D01*
X174270897Y-93029320D01*
X175073255Y-93831678D01*
X175100569Y-93872555D01*
X175110160Y-93920773D01*
X175110160Y-101972900D01*
X175093279Y-102035900D01*
X175047160Y-102082019D01*
X174984160Y-102098900D01*
X168854960Y-102098900D01*
X168790462Y-102081141D01*
X168744146Y-102032869D01*
X168729068Y-101967692D01*
X168748475Y-101907111D01*
X168748086Y-101906901D01*
X168749206Y-101904830D01*
X168749478Y-101903983D01*
X168750567Y-101902315D01*
X168755511Y-101893178D01*
X168841729Y-101696623D01*
X168845099Y-101686808D01*
X168888013Y-101517343D01*
X168888248Y-101505965D01*
X168877160Y-101503400D01*
X167427000Y-101503400D01*
X167364000Y-101486519D01*
X167317881Y-101440400D01*
X167301000Y-101377400D01*
X167301000Y-100978810D01*
X167809000Y-100978810D01*
X167812506Y-100991893D01*
X167825590Y-100995400D01*
X168877160Y-100995400D01*
X168888248Y-100992834D01*
X168888013Y-100981456D01*
X168845099Y-100811991D01*
X168841729Y-100802176D01*
X168755511Y-100605621D01*
X168750568Y-100596486D01*
X168633177Y-100416806D01*
X168626789Y-100408600D01*
X168481432Y-100250699D01*
X168473788Y-100243662D01*
X168304411Y-100111831D01*
X168295718Y-100106152D01*
X168266267Y-100090214D01*
X168217995Y-100043898D01*
X168200236Y-99979400D01*
X168217995Y-99914902D01*
X168266267Y-99868586D01*
X168295718Y-99852647D01*
X168304411Y-99846968D01*
X168473788Y-99715137D01*
X168481432Y-99708100D01*
X168626789Y-99550199D01*
X168633177Y-99541993D01*
X168750568Y-99362313D01*
X168755511Y-99353178D01*
X168841729Y-99156623D01*
X168845099Y-99146808D01*
X168888013Y-98977343D01*
X168888248Y-98965965D01*
X168877160Y-98963400D01*
X167825590Y-98963400D01*
X167812506Y-98966906D01*
X167809000Y-98979990D01*
X167809000Y-100978810D01*
X167301000Y-100978810D01*
X167301000Y-98438810D01*
X167809000Y-98438810D01*
X167812506Y-98451893D01*
X167825590Y-98455400D01*
X168877160Y-98455400D01*
X168888248Y-98452834D01*
X168888013Y-98441456D01*
X168845099Y-98271991D01*
X168841729Y-98262176D01*
X168755511Y-98065621D01*
X168750568Y-98056486D01*
X168633177Y-97876806D01*
X168626789Y-97868600D01*
X168481432Y-97710699D01*
X168473788Y-97703662D01*
X168304411Y-97571831D01*
X168295718Y-97566152D01*
X168106957Y-97463999D01*
X168097440Y-97459824D01*
X167894442Y-97390135D01*
X167884372Y-97387585D01*
X167822538Y-97377267D01*
X167811401Y-97377843D01*
X167809000Y-97388736D01*
X167809000Y-98438810D01*
X167301000Y-98438810D01*
X167301000Y-97388736D01*
X167298598Y-97377843D01*
X167287461Y-97377267D01*
X167225627Y-97387585D01*
X167215557Y-97390135D01*
X167012559Y-97459824D01*
X167003042Y-97463999D01*
X166814281Y-97566152D01*
X166805588Y-97571831D01*
X166636211Y-97703662D01*
X166628567Y-97710699D01*
X166483210Y-97868600D01*
X166476822Y-97876806D01*
X166359431Y-98056486D01*
X166354488Y-98065621D01*
X166268270Y-98262176D01*
X166264897Y-98272000D01*
X166246525Y-98344551D01*
X166215028Y-98401136D01*
X166159584Y-98434602D01*
X166094840Y-98436107D01*
X166037900Y-98405255D01*
X166003806Y-98350194D01*
X165992027Y-98311364D01*
X165990232Y-98305446D01*
X165892685Y-98122950D01*
X165761410Y-97962990D01*
X165601450Y-97831715D01*
X165595993Y-97828798D01*
X165424409Y-97737083D01*
X165424402Y-97737080D01*
X165418954Y-97734168D01*
X165413039Y-97732373D01*
X165413035Y-97732372D01*
X165226859Y-97675897D01*
X165226856Y-97675896D01*
X165220934Y-97674100D01*
X165214774Y-97673493D01*
X165214768Y-97673492D01*
X165021163Y-97654424D01*
X165015000Y-97653817D01*
X165008837Y-97654424D01*
X164815231Y-97673492D01*
X164815223Y-97673493D01*
X164809066Y-97674100D01*
X164803145Y-97675895D01*
X164803140Y-97675897D01*
X164616964Y-97732372D01*
X164616956Y-97732375D01*
X164611046Y-97734168D01*
X164605600Y-97737078D01*
X164605590Y-97737083D01*
X164434006Y-97828798D01*
X164434000Y-97828801D01*
X164428550Y-97831715D01*
X164423773Y-97835635D01*
X164423769Y-97835638D01*
X164273369Y-97959067D01*
X164273363Y-97959072D01*
X164268590Y-97962990D01*
X164264672Y-97967763D01*
X164264667Y-97967769D01*
X164141238Y-98118169D01*
X164141235Y-98118173D01*
X164137315Y-98122950D01*
X164134401Y-98128400D01*
X164134398Y-98128406D01*
X164042683Y-98299990D01*
X164042678Y-98300000D01*
X164039768Y-98305446D01*
X164037975Y-98311356D01*
X164037972Y-98311364D01*
X163981497Y-98497540D01*
X163981495Y-98497545D01*
X163979700Y-98503466D01*
X163979093Y-98509623D01*
X163979092Y-98509631D01*
X163964909Y-98653639D01*
X163959417Y-98709400D01*
X163960024Y-98715563D01*
X163979092Y-98909168D01*
X163979093Y-98909174D01*
X163979700Y-98915334D01*
X163981496Y-98921256D01*
X163981497Y-98921259D01*
X164037972Y-99107435D01*
X164037973Y-99107439D01*
X164039768Y-99113354D01*
X164042680Y-99118802D01*
X164042683Y-99118809D01*
X164095649Y-99217900D01*
X164137315Y-99295850D01*
X164268590Y-99455810D01*
X164428550Y-99587085D01*
X164519798Y-99635858D01*
X164605590Y-99681716D01*
X164605592Y-99681717D01*
X164611046Y-99684632D01*
X164809066Y-99744700D01*
X165015000Y-99764983D01*
X165220934Y-99744700D01*
X165418954Y-99684632D01*
X165601450Y-99587085D01*
X165761410Y-99455810D01*
X165892685Y-99295850D01*
X165990232Y-99113354D01*
X166003806Y-99068604D01*
X166037900Y-99013545D01*
X166094840Y-98982692D01*
X166159583Y-98984197D01*
X166215028Y-99017663D01*
X166246525Y-99074249D01*
X166264896Y-99146796D01*
X166268270Y-99156623D01*
X166354488Y-99353178D01*
X166359431Y-99362313D01*
X166476822Y-99541993D01*
X166483210Y-99550199D01*
X166628567Y-99708100D01*
X166636211Y-99715137D01*
X166805588Y-99846968D01*
X166814285Y-99852650D01*
X166843733Y-99868587D01*
X166892004Y-99914903D01*
X166909763Y-99979400D01*
X166892004Y-100043897D01*
X166843733Y-100090213D01*
X166814285Y-100106149D01*
X166805588Y-100111831D01*
X166636211Y-100243662D01*
X166628567Y-100250699D01*
X166483210Y-100408600D01*
X166476822Y-100416806D01*
X166359431Y-100596486D01*
X166354488Y-100605621D01*
X166268270Y-100802176D01*
X166264897Y-100812000D01*
X166246525Y-100884551D01*
X166215028Y-100941136D01*
X166159584Y-100974602D01*
X166094840Y-100976107D01*
X166037900Y-100945255D01*
X166003806Y-100890194D01*
X165992027Y-100851364D01*
X165990232Y-100845446D01*
X165892685Y-100662950D01*
X165761410Y-100502990D01*
X165601450Y-100371715D01*
X165595993Y-100368798D01*
X165424409Y-100277083D01*
X165424402Y-100277080D01*
X165418954Y-100274168D01*
X165413039Y-100272373D01*
X165413035Y-100272372D01*
X165226859Y-100215897D01*
X165226856Y-100215896D01*
X165220934Y-100214100D01*
X165214774Y-100213493D01*
X165214768Y-100213492D01*
X165021163Y-100194424D01*
X165015000Y-100193817D01*
X165008837Y-100194424D01*
X164815231Y-100213492D01*
X164815223Y-100213493D01*
X164809066Y-100214100D01*
X164803145Y-100215895D01*
X164803140Y-100215897D01*
X164616964Y-100272372D01*
X164616956Y-100272375D01*
X164611046Y-100274168D01*
X164605600Y-100277078D01*
X164605590Y-100277083D01*
X164434006Y-100368798D01*
X164434000Y-100368801D01*
X164428550Y-100371715D01*
X164423773Y-100375635D01*
X164423769Y-100375638D01*
X164273369Y-100499067D01*
X164273363Y-100499072D01*
X164268590Y-100502990D01*
X164264672Y-100507763D01*
X164264667Y-100507769D01*
X164141238Y-100658169D01*
X164141235Y-100658173D01*
X164137315Y-100662950D01*
X164134401Y-100668400D01*
X164134398Y-100668406D01*
X164042683Y-100839990D01*
X164042678Y-100840000D01*
X164039768Y-100845446D01*
X164037975Y-100851356D01*
X164037972Y-100851364D01*
X163981497Y-101037540D01*
X163981495Y-101037545D01*
X163979700Y-101043466D01*
X163979093Y-101049623D01*
X163979092Y-101049631D01*
X163962893Y-101214110D01*
X163959417Y-101249400D01*
X163960024Y-101255563D01*
X163979092Y-101449168D01*
X163979093Y-101449174D01*
X163979700Y-101455334D01*
X163981496Y-101461256D01*
X163981497Y-101461259D01*
X164037972Y-101647435D01*
X164037973Y-101647439D01*
X164039768Y-101653354D01*
X164042680Y-101658802D01*
X164042683Y-101658809D01*
X164131930Y-101825775D01*
X164137315Y-101835850D01*
X164141235Y-101840626D01*
X164141238Y-101840631D01*
X164184189Y-101892967D01*
X164211842Y-101957477D01*
X164200691Y-102026772D01*
X164154199Y-102079352D01*
X164086789Y-102098900D01*
X163651500Y-102098900D01*
X163588500Y-102082019D01*
X163542381Y-102035900D01*
X163525500Y-101972900D01*
X163525500Y-100385839D01*
X163525500Y-100379652D01*
X163513867Y-100321169D01*
X163469552Y-100254848D01*
X163452811Y-100243662D01*
X163413547Y-100217426D01*
X163413546Y-100217425D01*
X163403231Y-100210533D01*
X163344748Y-100198900D01*
X161605252Y-100198900D01*
X161599184Y-100200106D01*
X161599183Y-100200107D01*
X161558939Y-100208112D01*
X161558937Y-100208112D01*
X161546769Y-100210533D01*
X161536454Y-100217424D01*
X161536452Y-100217426D01*
X161490761Y-100247956D01*
X161490758Y-100247958D01*
X161480448Y-100254848D01*
X161473558Y-100265158D01*
X161473556Y-100265161D01*
X161443026Y-100310852D01*
X161443024Y-100310854D01*
X161436133Y-100321169D01*
X161424500Y-100379652D01*
X161424500Y-100385839D01*
X161424500Y-101972900D01*
X161407619Y-102035900D01*
X161361500Y-102082019D01*
X161298500Y-102098900D01*
X160801793Y-102098900D01*
X160753575Y-102089309D01*
X160712698Y-102061995D01*
X157360103Y-98709400D01*
X161419417Y-98709400D01*
X161420024Y-98715563D01*
X161439092Y-98909168D01*
X161439093Y-98909174D01*
X161439700Y-98915334D01*
X161441496Y-98921256D01*
X161441497Y-98921259D01*
X161497972Y-99107435D01*
X161497973Y-99107439D01*
X161499768Y-99113354D01*
X161502680Y-99118802D01*
X161502683Y-99118809D01*
X161555649Y-99217900D01*
X161597315Y-99295850D01*
X161728590Y-99455810D01*
X161888550Y-99587085D01*
X161979798Y-99635858D01*
X162065590Y-99681716D01*
X162065592Y-99681717D01*
X162071046Y-99684632D01*
X162269066Y-99744700D01*
X162475000Y-99764983D01*
X162680934Y-99744700D01*
X162878954Y-99684632D01*
X163061450Y-99587085D01*
X163221410Y-99455810D01*
X163352685Y-99295850D01*
X163450232Y-99113354D01*
X163510300Y-98915334D01*
X163529415Y-98721260D01*
X163529976Y-98715563D01*
X163530583Y-98709400D01*
X163510300Y-98503466D01*
X163450232Y-98305446D01*
X163352685Y-98122950D01*
X163221410Y-97962990D01*
X163061450Y-97831715D01*
X163055993Y-97828798D01*
X162884409Y-97737083D01*
X162884402Y-97737080D01*
X162878954Y-97734168D01*
X162873039Y-97732373D01*
X162873035Y-97732372D01*
X162686859Y-97675897D01*
X162686856Y-97675896D01*
X162680934Y-97674100D01*
X162674774Y-97673493D01*
X162674768Y-97673492D01*
X162481163Y-97654424D01*
X162475000Y-97653817D01*
X162468837Y-97654424D01*
X162275231Y-97673492D01*
X162275223Y-97673493D01*
X162269066Y-97674100D01*
X162263145Y-97675895D01*
X162263140Y-97675897D01*
X162076964Y-97732372D01*
X162076956Y-97732375D01*
X162071046Y-97734168D01*
X162065600Y-97737078D01*
X162065590Y-97737083D01*
X161894006Y-97828798D01*
X161894000Y-97828801D01*
X161888550Y-97831715D01*
X161883773Y-97835635D01*
X161883769Y-97835638D01*
X161733369Y-97959067D01*
X161733363Y-97959072D01*
X161728590Y-97962990D01*
X161724672Y-97967763D01*
X161724667Y-97967769D01*
X161601238Y-98118169D01*
X161601235Y-98118173D01*
X161597315Y-98122950D01*
X161594401Y-98128400D01*
X161594398Y-98128406D01*
X161502683Y-98299990D01*
X161502678Y-98300000D01*
X161499768Y-98305446D01*
X161497975Y-98311356D01*
X161497972Y-98311364D01*
X161441497Y-98497540D01*
X161441495Y-98497545D01*
X161439700Y-98503466D01*
X161439093Y-98509623D01*
X161439092Y-98509631D01*
X161424909Y-98653639D01*
X161419417Y-98709400D01*
X157360103Y-98709400D01*
X157349162Y-98698459D01*
X157325251Y-98665092D01*
X157313335Y-98625809D01*
X157304302Y-98557198D01*
X157303044Y-98547638D01*
X157242536Y-98401559D01*
X157146282Y-98276118D01*
X157020841Y-98179864D01*
X157013214Y-98176704D01*
X157013211Y-98176703D01*
X156882391Y-98122516D01*
X156882390Y-98122515D01*
X156874762Y-98119356D01*
X156866579Y-98118278D01*
X156866573Y-98118277D01*
X156726188Y-98099796D01*
X156718000Y-98098718D01*
X156709812Y-98099796D01*
X156569426Y-98118277D01*
X156569418Y-98118279D01*
X156561238Y-98119356D01*
X156553611Y-98122515D01*
X156553608Y-98122516D01*
X156422788Y-98176703D01*
X156422782Y-98176706D01*
X156415159Y-98179864D01*
X156408614Y-98184885D01*
X156408607Y-98184890D01*
X156352605Y-98227863D01*
X156316402Y-98247213D01*
X156275901Y-98253900D01*
X154754500Y-98253900D01*
X154691500Y-98237019D01*
X154645381Y-98190900D01*
X154628500Y-98127900D01*
X154628500Y-94182115D01*
X154638091Y-94133897D01*
X154665404Y-94093020D01*
X154837651Y-93920773D01*
X155729103Y-93029318D01*
X155785586Y-92996708D01*
X155850808Y-92996708D01*
X155907292Y-93029320D01*
X156043940Y-93165968D01*
X156093520Y-93199096D01*
X156171751Y-93214656D01*
X156249983Y-93199096D01*
X156299562Y-93165968D01*
X158165968Y-91299562D01*
X158199096Y-91249983D01*
X158214656Y-91171751D01*
X158199096Y-91093520D01*
X158165968Y-91043940D01*
X157077380Y-89955352D01*
X157027800Y-89922224D01*
X157015628Y-89919803D01*
X157015626Y-89919802D01*
X156961741Y-89909085D01*
X156949569Y-89906664D01*
X156937397Y-89909085D01*
X156883512Y-89919802D01*
X156883509Y-89919802D01*
X156871337Y-89922224D01*
X156861017Y-89929119D01*
X156861016Y-89929120D01*
X156826904Y-89951913D01*
X156826900Y-89951915D01*
X156821758Y-89955352D01*
X156817384Y-89959725D01*
X156817379Y-89959730D01*
X154959730Y-91817379D01*
X154959725Y-91817384D01*
X154955352Y-91821758D01*
X154951915Y-91826900D01*
X154951913Y-91826904D01*
X154949032Y-91831216D01*
X154922224Y-91871337D01*
X154919802Y-91883509D01*
X154919802Y-91883512D01*
X154917130Y-91896947D01*
X154906664Y-91949569D01*
X154909085Y-91961741D01*
X154919802Y-92015626D01*
X154919803Y-92015628D01*
X154922224Y-92027800D01*
X154929119Y-92038120D01*
X154929120Y-92038121D01*
X154951911Y-92072231D01*
X154955352Y-92077380D01*
X154959727Y-92081755D01*
X154959729Y-92081757D01*
X155091999Y-92214027D01*
X155124611Y-92270511D01*
X155124611Y-92335733D01*
X155091999Y-92392217D01*
X153882342Y-93601873D01*
X153871815Y-93611282D01*
X153844030Y-93633441D01*
X153838714Y-93641237D01*
X153838710Y-93641242D01*
X153811840Y-93680652D01*
X153809117Y-93684490D01*
X153780810Y-93722844D01*
X153780806Y-93722851D01*
X153775207Y-93730438D01*
X153772370Y-93738544D01*
X153767528Y-93745647D01*
X153764748Y-93754657D01*
X153764747Y-93754661D01*
X153750690Y-93800234D01*
X153749218Y-93804707D01*
X153733470Y-93849712D01*
X153733468Y-93849720D01*
X153730354Y-93858621D01*
X153730032Y-93867206D01*
X153727500Y-93875418D01*
X153727500Y-93884854D01*
X153727500Y-93932535D01*
X153727412Y-93937245D01*
X153725276Y-93994330D01*
X153727077Y-94001053D01*
X153727500Y-94008577D01*
X153727500Y-98639443D01*
X153726118Y-98651705D01*
X153726492Y-98651734D01*
X153725786Y-98661147D01*
X153723685Y-98670354D01*
X153724390Y-98679765D01*
X153724390Y-98679770D01*
X153727148Y-98716563D01*
X153727500Y-98725979D01*
X153727500Y-106024301D01*
X153726707Y-106038408D01*
X153722730Y-106073715D01*
X153733352Y-106129857D01*
X153734135Y-106134463D01*
X153741245Y-106181636D01*
X153741246Y-106181639D01*
X153742652Y-106190967D01*
X153746379Y-106198706D01*
X153747977Y-106207152D01*
X153752387Y-106215497D01*
X153752388Y-106215498D01*
X153774674Y-106257665D01*
X153776796Y-106261869D01*
X153801575Y-106313322D01*
X153807417Y-106319619D01*
X153811434Y-106327218D01*
X153818113Y-106333896D01*
X153818113Y-106333897D01*
X153851819Y-106367603D01*
X153855065Y-106370971D01*
X153893945Y-106412874D01*
X153899972Y-106416353D01*
X153905592Y-106421376D01*
X155091998Y-107607781D01*
X155124610Y-107664264D01*
X155124610Y-107729487D01*
X155091999Y-107785971D01*
X154959728Y-107918243D01*
X154959723Y-107918248D01*
X154955352Y-107922620D01*
X154951914Y-107927765D01*
X154951911Y-107927769D01*
X154929120Y-107961878D01*
X154929118Y-107961881D01*
X154922224Y-107972200D01*
X154919803Y-107984369D01*
X154919802Y-107984373D01*
X154914950Y-108008769D01*
X154906664Y-108050431D01*
X154922224Y-108128663D01*
X154955352Y-108178242D01*
X156821758Y-110044648D01*
X156871337Y-110077776D01*
X156949569Y-110093336D01*
X157027800Y-110077776D01*
X157077380Y-110044648D01*
X158165968Y-108956060D01*
X158199096Y-108906480D01*
X158214656Y-108828249D01*
X158199096Y-108750017D01*
X158165968Y-108700438D01*
X156299562Y-106834032D01*
X156249983Y-106800904D01*
X156237808Y-106798482D01*
X156237807Y-106798482D01*
X156183923Y-106787765D01*
X156171751Y-106785344D01*
X156159579Y-106787765D01*
X156105693Y-106798482D01*
X156105689Y-106798483D01*
X156093520Y-106800904D01*
X156083201Y-106807798D01*
X156083198Y-106807800D01*
X156049089Y-106830591D01*
X156049088Y-106830592D01*
X156043940Y-106834032D01*
X156039568Y-106838403D01*
X156039563Y-106838408D01*
X155907291Y-106970679D01*
X155850807Y-107003290D01*
X155785585Y-107003290D01*
X155729101Y-106970678D01*
X154665405Y-105906982D01*
X154638091Y-105866105D01*
X154628500Y-105817887D01*
X154628500Y-99280900D01*
X154645381Y-99217900D01*
X154691500Y-99171781D01*
X154754500Y-99154900D01*
X156275901Y-99154900D01*
X156316402Y-99161587D01*
X156352605Y-99180937D01*
X156408607Y-99223909D01*
X156408609Y-99223910D01*
X156415159Y-99228936D01*
X156561238Y-99289444D01*
X156639410Y-99299735D01*
X156678691Y-99311651D01*
X156712058Y-99335562D01*
X160172722Y-102796225D01*
X160203454Y-102846364D01*
X160208082Y-102904990D01*
X160185600Y-102959331D01*
X160140903Y-102997549D01*
X160083730Y-103011320D01*
X155468966Y-103015104D01*
X155468965Y-103015104D01*
X155450901Y-103015119D01*
X155450861Y-103014993D01*
X155450458Y-103015119D01*
X155450436Y-103015120D01*
X155450360Y-103015151D01*
X155449908Y-103015294D01*
X155450003Y-103015597D01*
X155449994Y-103015620D01*
X155450063Y-103015788D01*
X155454803Y-103030799D01*
X155454803Y-103030801D01*
X155535618Y-103286727D01*
X155536159Y-103288439D01*
X155536796Y-103290116D01*
X155738561Y-103821366D01*
X155738568Y-103821384D01*
X155739205Y-103823060D01*
X155972423Y-104345224D01*
X155973246Y-104346815D01*
X155973247Y-104346818D01*
X156234226Y-104851630D01*
X156234237Y-104851651D01*
X156235055Y-104853232D01*
X156235970Y-104854779D01*
X156235973Y-104854784D01*
X156509029Y-105316329D01*
X156526244Y-105345426D01*
X156527237Y-105346905D01*
X156527239Y-105346908D01*
X156830614Y-105798718D01*
X156845042Y-105820204D01*
X156846131Y-105821642D01*
X156846138Y-105821651D01*
X157183583Y-106267010D01*
X157190410Y-106276020D01*
X157561223Y-106711387D01*
X157956272Y-107124887D01*
X157957583Y-107126111D01*
X157957589Y-107126117D01*
X158372947Y-107513938D01*
X158374271Y-107515174D01*
X158813858Y-107880975D01*
X159065542Y-108067174D01*
X159272164Y-108220036D01*
X159272172Y-108220041D01*
X159273600Y-108221098D01*
X159751999Y-108534436D01*
X159812571Y-108569339D01*
X159890137Y-108614035D01*
X159936296Y-108660117D01*
X159953229Y-108723105D01*
X159936398Y-108786121D01*
X156576170Y-114616821D01*
X156529222Y-114663472D01*
X156465107Y-114679893D01*
X156401514Y-114661552D01*
X155822951Y-114309577D01*
X155817899Y-114306336D01*
X155336995Y-113981421D01*
X155336853Y-113981259D01*
X155336823Y-113981304D01*
X155145277Y-113851425D01*
X155140558Y-113848064D01*
X154727073Y-113539031D01*
X154726794Y-113538822D01*
X154489643Y-113360554D01*
X154485201Y-113357057D01*
X154108502Y-113046493D01*
X154108126Y-113046181D01*
X153858397Y-112838663D01*
X153854235Y-112835048D01*
X153504316Y-112517394D01*
X153503852Y-112516970D01*
X153476939Y-112492293D01*
X153253016Y-112286971D01*
X153249190Y-112283310D01*
X152921746Y-111956295D01*
X152921319Y-111955866D01*
X152674956Y-111706808D01*
X152671353Y-111703012D01*
X152364475Y-111365852D01*
X152363867Y-111365178D01*
X152125503Y-111099474D01*
X152122178Y-111095614D01*
X152110723Y-111081757D01*
X151834871Y-110748052D01*
X151834243Y-110747286D01*
X151605950Y-110466394D01*
X151602901Y-110462488D01*
X151404554Y-110197824D01*
X151334685Y-110104594D01*
X151333999Y-110103669D01*
X151324627Y-110090915D01*
X151117503Y-109809046D01*
X151114736Y-109805126D01*
X151101495Y-109785584D01*
X150865454Y-109437205D01*
X150864736Y-109436132D01*
X150661297Y-109128958D01*
X150658788Y-109125012D01*
X150555269Y-108955352D01*
X150428465Y-108747531D01*
X150427799Y-108746425D01*
X150238365Y-108427675D01*
X150236173Y-108423831D01*
X150024910Y-108037316D01*
X150024288Y-108036160D01*
X149849741Y-107706920D01*
X149847774Y-107703048D01*
X149655832Y-107308298D01*
X149655156Y-107306881D01*
X149496269Y-106968266D01*
X149494531Y-106964393D01*
X149459140Y-106881824D01*
X149322100Y-106562104D01*
X149321414Y-106560467D01*
X149178798Y-106213497D01*
X149177324Y-106209739D01*
X149024556Y-105800525D01*
X149023899Y-105798718D01*
X148898037Y-105444302D01*
X148896772Y-105440550D01*
X148763930Y-105025351D01*
X148763386Y-105023602D01*
X148654650Y-104662495D01*
X148653637Y-104658938D01*
X148540879Y-104238489D01*
X148540352Y-104236448D01*
X148449213Y-103869958D01*
X148448385Y-103866405D01*
X148355900Y-103441625D01*
X148355421Y-103439312D01*
X148282182Y-103068477D01*
X148281551Y-103065030D01*
X148281193Y-103062900D01*
X148209458Y-102636676D01*
X148209085Y-102634308D01*
X148153933Y-102259867D01*
X148153487Y-102256521D01*
X148153482Y-102256477D01*
X148101923Y-101825613D01*
X148101646Y-101823069D01*
X148064773Y-101446069D01*
X148064508Y-101442928D01*
X148033531Y-101010191D01*
X148033366Y-101007438D01*
X148014901Y-100628954D01*
X148014796Y-100626074D01*
X148004465Y-100192409D01*
X148004429Y-100189408D01*
X148004429Y-99810592D01*
X148004465Y-99807591D01*
X148005480Y-99764983D01*
X148014796Y-99373920D01*
X148014901Y-99371051D01*
X148033366Y-98992551D01*
X148033531Y-98989819D01*
X148064509Y-98557058D01*
X148064773Y-98553929D01*
X148101647Y-98176909D01*
X148101920Y-98174411D01*
X148153492Y-97743432D01*
X148153933Y-97740131D01*
X148191483Y-97485200D01*
X151195918Y-97485200D01*
X151196996Y-97493388D01*
X151215477Y-97633773D01*
X151215478Y-97633779D01*
X151216556Y-97641962D01*
X151219715Y-97649590D01*
X151219716Y-97649591D01*
X151273903Y-97780411D01*
X151273904Y-97780414D01*
X151277064Y-97788041D01*
X151282087Y-97794588D01*
X151282090Y-97794592D01*
X151325063Y-97850595D01*
X151344413Y-97886798D01*
X151351100Y-97927299D01*
X151351100Y-107890541D01*
X151350308Y-107904648D01*
X151350110Y-107906410D01*
X151346330Y-107939955D01*
X151356952Y-107996097D01*
X151357735Y-108000703D01*
X151364845Y-108047876D01*
X151364846Y-108047879D01*
X151366252Y-108057207D01*
X151369979Y-108064946D01*
X151371577Y-108073392D01*
X151375987Y-108081737D01*
X151375988Y-108081738D01*
X151398274Y-108123905D01*
X151400396Y-108128109D01*
X151425175Y-108179562D01*
X151431017Y-108185859D01*
X151435034Y-108193458D01*
X151441713Y-108200137D01*
X151475419Y-108233843D01*
X151478665Y-108237211D01*
X151517545Y-108279114D01*
X151523572Y-108282593D01*
X151529192Y-108287616D01*
X152970678Y-109729101D01*
X153003290Y-109785584D01*
X153003290Y-109850807D01*
X152970679Y-109907291D01*
X152838408Y-110039563D01*
X152838403Y-110039568D01*
X152834032Y-110043940D01*
X152830594Y-110049085D01*
X152830591Y-110049089D01*
X152807800Y-110083198D01*
X152807798Y-110083201D01*
X152800904Y-110093520D01*
X152798483Y-110105689D01*
X152798482Y-110105693D01*
X152787919Y-110158801D01*
X152785344Y-110171751D01*
X152800904Y-110249983D01*
X152834032Y-110299562D01*
X154700438Y-112165968D01*
X154750017Y-112199096D01*
X154828249Y-112214656D01*
X154906480Y-112199096D01*
X154956060Y-112165968D01*
X156044648Y-111077380D01*
X156077776Y-111027800D01*
X156093336Y-110949569D01*
X156077776Y-110871337D01*
X156044648Y-110821758D01*
X154178242Y-108955352D01*
X154128663Y-108922224D01*
X154116488Y-108919802D01*
X154116487Y-108919802D01*
X154062603Y-108909085D01*
X154050431Y-108906664D01*
X154038259Y-108909085D01*
X153984373Y-108919802D01*
X153984369Y-108919803D01*
X153972200Y-108922224D01*
X153961881Y-108929118D01*
X153961878Y-108929120D01*
X153927769Y-108951911D01*
X153927768Y-108951912D01*
X153922620Y-108955352D01*
X153918248Y-108959723D01*
X153918243Y-108959728D01*
X153785971Y-109091999D01*
X153729487Y-109124610D01*
X153664265Y-109124610D01*
X153607781Y-109091998D01*
X152289005Y-107773222D01*
X152261691Y-107732345D01*
X152252100Y-107684127D01*
X152252100Y-97927299D01*
X152258787Y-97886798D01*
X152278137Y-97850595D01*
X152295061Y-97828538D01*
X152326136Y-97788041D01*
X152386644Y-97641962D01*
X152407282Y-97485200D01*
X152386644Y-97328438D01*
X152326136Y-97182359D01*
X152321110Y-97175809D01*
X152321109Y-97175807D01*
X152278137Y-97119805D01*
X152258787Y-97083602D01*
X152252100Y-97043101D01*
X152252100Y-92315875D01*
X152261691Y-92267657D01*
X152289004Y-92226780D01*
X152507817Y-92007967D01*
X153607783Y-90907998D01*
X153664266Y-90875388D01*
X153729488Y-90875388D01*
X153785972Y-90908000D01*
X153922620Y-91044648D01*
X153972200Y-91077776D01*
X154050431Y-91093336D01*
X154128663Y-91077776D01*
X154178242Y-91044648D01*
X156044648Y-89178242D01*
X156077776Y-89128663D01*
X156093336Y-89050431D01*
X156077776Y-88972200D01*
X156044648Y-88922620D01*
X154956060Y-87834032D01*
X154906480Y-87800904D01*
X154894308Y-87798483D01*
X154894306Y-87798482D01*
X154840421Y-87787765D01*
X154828249Y-87785344D01*
X154816077Y-87787765D01*
X154762192Y-87798482D01*
X154762189Y-87798482D01*
X154750017Y-87800904D01*
X154739697Y-87807799D01*
X154739696Y-87807800D01*
X154705584Y-87830593D01*
X154705580Y-87830595D01*
X154700438Y-87834032D01*
X154696064Y-87838405D01*
X154696059Y-87838410D01*
X152838410Y-89696059D01*
X152838405Y-89696064D01*
X152834032Y-89700438D01*
X152830595Y-89705580D01*
X152830593Y-89705584D01*
X152807800Y-89739696D01*
X152800904Y-89750017D01*
X152785344Y-89828249D01*
X152787765Y-89840421D01*
X152798482Y-89894306D01*
X152798483Y-89894308D01*
X152800904Y-89906480D01*
X152807799Y-89916800D01*
X152807800Y-89916801D01*
X152830591Y-89950911D01*
X152834032Y-89956060D01*
X152838407Y-89960435D01*
X152838409Y-89960437D01*
X152970679Y-90092707D01*
X153003291Y-90149191D01*
X153003291Y-90214413D01*
X152970679Y-90270897D01*
X151505942Y-91735633D01*
X151495415Y-91745042D01*
X151467630Y-91767201D01*
X151462314Y-91774997D01*
X151462310Y-91775002D01*
X151435440Y-91814412D01*
X151432717Y-91818250D01*
X151404410Y-91856604D01*
X151404406Y-91856611D01*
X151398807Y-91864198D01*
X151395970Y-91872304D01*
X151391128Y-91879407D01*
X151388348Y-91888417D01*
X151388347Y-91888421D01*
X151374290Y-91933994D01*
X151372818Y-91938467D01*
X151357070Y-91983472D01*
X151357068Y-91983480D01*
X151353954Y-91992381D01*
X151353632Y-92000966D01*
X151351100Y-92009178D01*
X151351100Y-92018614D01*
X151351100Y-92066295D01*
X151351012Y-92071005D01*
X151348876Y-92128090D01*
X151350677Y-92134813D01*
X151351100Y-92142337D01*
X151351100Y-97043101D01*
X151344413Y-97083602D01*
X151325063Y-97119805D01*
X151282090Y-97175807D01*
X151282085Y-97175814D01*
X151277064Y-97182359D01*
X151273906Y-97189982D01*
X151273903Y-97189988D01*
X151219716Y-97320808D01*
X151216556Y-97328438D01*
X151215479Y-97336618D01*
X151215477Y-97336626D01*
X151208433Y-97390135D01*
X151195918Y-97485200D01*
X148191483Y-97485200D01*
X148209090Y-97365660D01*
X148209453Y-97363352D01*
X148281560Y-96934914D01*
X148282184Y-96931510D01*
X148355441Y-96560588D01*
X148355891Y-96558415D01*
X148448391Y-96133562D01*
X148449205Y-96130071D01*
X148540365Y-95763497D01*
X148540863Y-95761569D01*
X148653646Y-95341026D01*
X148654639Y-95337539D01*
X148763406Y-94976333D01*
X148763909Y-94974713D01*
X148896791Y-94559390D01*
X148898024Y-94555735D01*
X149023957Y-94201118D01*
X149024524Y-94199558D01*
X149177339Y-93790218D01*
X149178781Y-93786544D01*
X149321482Y-93439367D01*
X149322058Y-93437994D01*
X149494550Y-93035560D01*
X149496254Y-93031764D01*
X149655210Y-92693002D01*
X149655774Y-92691820D01*
X149847796Y-92296904D01*
X149849716Y-92293126D01*
X150024359Y-91963705D01*
X150024831Y-91962826D01*
X150236199Y-91576119D01*
X150238337Y-91572371D01*
X150427893Y-91253416D01*
X150428357Y-91252646D01*
X150658820Y-90874935D01*
X150661264Y-90871090D01*
X150864877Y-90563654D01*
X150865316Y-90562998D01*
X151114781Y-90194807D01*
X151117467Y-90191002D01*
X151334177Y-89896088D01*
X151334509Y-89895641D01*
X151602934Y-89537467D01*
X151605917Y-89533645D01*
X151834470Y-89252434D01*
X151834599Y-89252276D01*
X152122231Y-88904321D01*
X152125449Y-88900586D01*
X152364213Y-88634436D01*
X152364216Y-88634431D01*
X152671404Y-88296931D01*
X152674927Y-88293220D01*
X152921446Y-88044004D01*
X153249238Y-87716640D01*
X153252965Y-87713074D01*
X153504040Y-87482855D01*
X153854274Y-87164915D01*
X153858358Y-87161368D01*
X154108303Y-86953670D01*
X154485250Y-86642902D01*
X154489566Y-86639503D01*
X154726704Y-86461242D01*
X154727043Y-86460989D01*
X154727073Y-86460968D01*
X154872523Y-86352259D01*
X155140587Y-86151912D01*
X155145239Y-86148599D01*
X155336823Y-86018695D01*
X155336848Y-86018732D01*
X155336987Y-86018584D01*
X155817928Y-85693644D01*
X155822921Y-85690440D01*
X156401514Y-85338446D01*
X156465106Y-85320106D01*
X156529222Y-85336528D01*
G37*
%TD.AperFunction*%
%TD*%
M02*
