%TF.GenerationSoftware,KiCad,Pcbnew,(7.0.0)*%
%TF.CreationDate,2023-11-20T17:09:25+01:00*%
%TF.ProjectId,Helios_PCB_female,48656c69-6f73-45f5-9043-425f66656d61,rev?*%
%TF.SameCoordinates,Original*%
%TF.FileFunction,Legend,Bot*%
%TF.FilePolarity,Positive*%
%FSLAX46Y46*%
G04 Gerber Fmt 4.6, Leading zero omitted, Abs format (unit mm)*
G04 Created by KiCad (PCBNEW (7.0.0)) date 2023-11-20 17:09:25*
%MOMM*%
%LPD*%
G01*
G04 APERTURE LIST*
%ADD10C,0.150000*%
G04 APERTURE END LIST*
D10*
X88798400Y-95173800D02*
X94208600Y-95173800D01*
X115798600Y-86461600D02*
X115798600Y-95199200D01*
X88798400Y-86436200D02*
X90093800Y-84759800D01*
X94208600Y-86461600D02*
X94208600Y-95173800D01*
X117094000Y-84785200D02*
X115798600Y-86461600D01*
X119913400Y-84785200D02*
X117094000Y-84785200D01*
X121208800Y-86487000D02*
X119913400Y-84785200D01*
X92913200Y-84759800D02*
X94208600Y-86461600D01*
X92913200Y-84759800D02*
X90093800Y-84759800D01*
X88798400Y-95173800D02*
X88798400Y-86436200D01*
X115798600Y-95199200D02*
X121208800Y-95199200D01*
X121208800Y-95199200D02*
X121208800Y-86487000D01*
X122793619Y-93090514D02*
X122793619Y-93566704D01*
X122793619Y-93566704D02*
X122317428Y-93614323D01*
X122317428Y-93614323D02*
X122365047Y-93566704D01*
X122365047Y-93566704D02*
X122412666Y-93471466D01*
X122412666Y-93471466D02*
X122412666Y-93233371D01*
X122412666Y-93233371D02*
X122365047Y-93138133D01*
X122365047Y-93138133D02*
X122317428Y-93090514D01*
X122317428Y-93090514D02*
X122222190Y-93042895D01*
X122222190Y-93042895D02*
X121984095Y-93042895D01*
X121984095Y-93042895D02*
X121888857Y-93090514D01*
X121888857Y-93090514D02*
X121841238Y-93138133D01*
X121841238Y-93138133D02*
X121793619Y-93233371D01*
X121793619Y-93233371D02*
X121793619Y-93471466D01*
X121793619Y-93471466D02*
X121841238Y-93566704D01*
X121841238Y-93566704D02*
X121888857Y-93614323D01*
X122793619Y-92757180D02*
X121793619Y-92423847D01*
X121793619Y-92423847D02*
X122793619Y-92090514D01*
X122746000Y-88833371D02*
X122793619Y-88928609D01*
X122793619Y-88928609D02*
X122793619Y-89071466D01*
X122793619Y-89071466D02*
X122746000Y-89214323D01*
X122746000Y-89214323D02*
X122650761Y-89309561D01*
X122650761Y-89309561D02*
X122555523Y-89357180D01*
X122555523Y-89357180D02*
X122365047Y-89404799D01*
X122365047Y-89404799D02*
X122222190Y-89404799D01*
X122222190Y-89404799D02*
X122031714Y-89357180D01*
X122031714Y-89357180D02*
X121936476Y-89309561D01*
X121936476Y-89309561D02*
X121841238Y-89214323D01*
X121841238Y-89214323D02*
X121793619Y-89071466D01*
X121793619Y-89071466D02*
X121793619Y-88976228D01*
X121793619Y-88976228D02*
X121841238Y-88833371D01*
X121841238Y-88833371D02*
X121888857Y-88785752D01*
X121888857Y-88785752D02*
X122222190Y-88785752D01*
X122222190Y-88785752D02*
X122222190Y-88976228D01*
X121793619Y-88357180D02*
X122793619Y-88357180D01*
X122793619Y-88357180D02*
X121793619Y-87785752D01*
X121793619Y-87785752D02*
X122793619Y-87785752D01*
X121793619Y-87309561D02*
X122793619Y-87309561D01*
X122793619Y-87309561D02*
X122793619Y-87071466D01*
X122793619Y-87071466D02*
X122746000Y-86928609D01*
X122746000Y-86928609D02*
X122650761Y-86833371D01*
X122650761Y-86833371D02*
X122555523Y-86785752D01*
X122555523Y-86785752D02*
X122365047Y-86738133D01*
X122365047Y-86738133D02*
X122222190Y-86738133D01*
X122222190Y-86738133D02*
X122031714Y-86785752D01*
X122031714Y-86785752D02*
X121936476Y-86833371D01*
X121936476Y-86833371D02*
X121841238Y-86928609D01*
X121841238Y-86928609D02*
X121793619Y-87071466D01*
X121793619Y-87071466D02*
X121793619Y-87309561D01*
X106778514Y-91898780D02*
X107254704Y-91898780D01*
X107254704Y-91898780D02*
X107302323Y-92374971D01*
X107302323Y-92374971D02*
X107254704Y-92327352D01*
X107254704Y-92327352D02*
X107159466Y-92279733D01*
X107159466Y-92279733D02*
X106921371Y-92279733D01*
X106921371Y-92279733D02*
X106826133Y-92327352D01*
X106826133Y-92327352D02*
X106778514Y-92374971D01*
X106778514Y-92374971D02*
X106730895Y-92470209D01*
X106730895Y-92470209D02*
X106730895Y-92708304D01*
X106730895Y-92708304D02*
X106778514Y-92803542D01*
X106778514Y-92803542D02*
X106826133Y-92851161D01*
X106826133Y-92851161D02*
X106921371Y-92898780D01*
X106921371Y-92898780D02*
X107159466Y-92898780D01*
X107159466Y-92898780D02*
X107254704Y-92851161D01*
X107254704Y-92851161D02*
X107302323Y-92803542D01*
X106445180Y-91898780D02*
X106111847Y-92898780D01*
X106111847Y-92898780D02*
X105778514Y-91898780D01*
X103721371Y-91946400D02*
X103816609Y-91898780D01*
X103816609Y-91898780D02*
X103959466Y-91898780D01*
X103959466Y-91898780D02*
X104102323Y-91946400D01*
X104102323Y-91946400D02*
X104197561Y-92041638D01*
X104197561Y-92041638D02*
X104245180Y-92136876D01*
X104245180Y-92136876D02*
X104292799Y-92327352D01*
X104292799Y-92327352D02*
X104292799Y-92470209D01*
X104292799Y-92470209D02*
X104245180Y-92660685D01*
X104245180Y-92660685D02*
X104197561Y-92755923D01*
X104197561Y-92755923D02*
X104102323Y-92851161D01*
X104102323Y-92851161D02*
X103959466Y-92898780D01*
X103959466Y-92898780D02*
X103864228Y-92898780D01*
X103864228Y-92898780D02*
X103721371Y-92851161D01*
X103721371Y-92851161D02*
X103673752Y-92803542D01*
X103673752Y-92803542D02*
X103673752Y-92470209D01*
X103673752Y-92470209D02*
X103864228Y-92470209D01*
X103245180Y-92898780D02*
X103245180Y-91898780D01*
X103245180Y-91898780D02*
X102673752Y-92898780D01*
X102673752Y-92898780D02*
X102673752Y-91898780D01*
X102197561Y-92898780D02*
X102197561Y-91898780D01*
X102197561Y-91898780D02*
X101959466Y-91898780D01*
X101959466Y-91898780D02*
X101816609Y-91946400D01*
X101816609Y-91946400D02*
X101721371Y-92041638D01*
X101721371Y-92041638D02*
X101673752Y-92136876D01*
X101673752Y-92136876D02*
X101626133Y-92327352D01*
X101626133Y-92327352D02*
X101626133Y-92470209D01*
X101626133Y-92470209D02*
X101673752Y-92660685D01*
X101673752Y-92660685D02*
X101721371Y-92755923D01*
X101721371Y-92755923D02*
X101816609Y-92851161D01*
X101816609Y-92851161D02*
X101959466Y-92898780D01*
X101959466Y-92898780D02*
X102197561Y-92898780D01*
X108673923Y-87567961D02*
X108531066Y-87615580D01*
X108531066Y-87615580D02*
X108292971Y-87615580D01*
X108292971Y-87615580D02*
X108197733Y-87567961D01*
X108197733Y-87567961D02*
X108150114Y-87520342D01*
X108150114Y-87520342D02*
X108102495Y-87425104D01*
X108102495Y-87425104D02*
X108102495Y-87329866D01*
X108102495Y-87329866D02*
X108150114Y-87234628D01*
X108150114Y-87234628D02*
X108197733Y-87187009D01*
X108197733Y-87187009D02*
X108292971Y-87139390D01*
X108292971Y-87139390D02*
X108483447Y-87091771D01*
X108483447Y-87091771D02*
X108578685Y-87044152D01*
X108578685Y-87044152D02*
X108626304Y-86996533D01*
X108626304Y-86996533D02*
X108673923Y-86901295D01*
X108673923Y-86901295D02*
X108673923Y-86806057D01*
X108673923Y-86806057D02*
X108626304Y-86710819D01*
X108626304Y-86710819D02*
X108578685Y-86663200D01*
X108578685Y-86663200D02*
X108483447Y-86615580D01*
X108483447Y-86615580D02*
X108245352Y-86615580D01*
X108245352Y-86615580D02*
X108102495Y-86663200D01*
X107102495Y-87520342D02*
X107150114Y-87567961D01*
X107150114Y-87567961D02*
X107292971Y-87615580D01*
X107292971Y-87615580D02*
X107388209Y-87615580D01*
X107388209Y-87615580D02*
X107531066Y-87567961D01*
X107531066Y-87567961D02*
X107626304Y-87472723D01*
X107626304Y-87472723D02*
X107673923Y-87377485D01*
X107673923Y-87377485D02*
X107721542Y-87187009D01*
X107721542Y-87187009D02*
X107721542Y-87044152D01*
X107721542Y-87044152D02*
X107673923Y-86853676D01*
X107673923Y-86853676D02*
X107626304Y-86758438D01*
X107626304Y-86758438D02*
X107531066Y-86663200D01*
X107531066Y-86663200D02*
X107388209Y-86615580D01*
X107388209Y-86615580D02*
X107292971Y-86615580D01*
X107292971Y-86615580D02*
X107150114Y-86663200D01*
X107150114Y-86663200D02*
X107102495Y-86710819D01*
X106197733Y-87615580D02*
X106673923Y-87615580D01*
X106673923Y-87615580D02*
X106673923Y-86615580D01*
X105340590Y-87615580D02*
X105912018Y-87615580D01*
X105626304Y-87615580D02*
X105626304Y-86615580D01*
X105626304Y-86615580D02*
X105721542Y-86758438D01*
X105721542Y-86758438D02*
X105816780Y-86853676D01*
X105816780Y-86853676D02*
X105912018Y-86901295D01*
X103759637Y-87567961D02*
X103616780Y-87615580D01*
X103616780Y-87615580D02*
X103378685Y-87615580D01*
X103378685Y-87615580D02*
X103283447Y-87567961D01*
X103283447Y-87567961D02*
X103235828Y-87520342D01*
X103235828Y-87520342D02*
X103188209Y-87425104D01*
X103188209Y-87425104D02*
X103188209Y-87329866D01*
X103188209Y-87329866D02*
X103235828Y-87234628D01*
X103235828Y-87234628D02*
X103283447Y-87187009D01*
X103283447Y-87187009D02*
X103378685Y-87139390D01*
X103378685Y-87139390D02*
X103569161Y-87091771D01*
X103569161Y-87091771D02*
X103664399Y-87044152D01*
X103664399Y-87044152D02*
X103712018Y-86996533D01*
X103712018Y-86996533D02*
X103759637Y-86901295D01*
X103759637Y-86901295D02*
X103759637Y-86806057D01*
X103759637Y-86806057D02*
X103712018Y-86710819D01*
X103712018Y-86710819D02*
X103664399Y-86663200D01*
X103664399Y-86663200D02*
X103569161Y-86615580D01*
X103569161Y-86615580D02*
X103331066Y-86615580D01*
X103331066Y-86615580D02*
X103188209Y-86663200D01*
X102759637Y-87615580D02*
X102759637Y-86615580D01*
X102759637Y-86615580D02*
X102521542Y-86615580D01*
X102521542Y-86615580D02*
X102378685Y-86663200D01*
X102378685Y-86663200D02*
X102283447Y-86758438D01*
X102283447Y-86758438D02*
X102235828Y-86853676D01*
X102235828Y-86853676D02*
X102188209Y-87044152D01*
X102188209Y-87044152D02*
X102188209Y-87187009D01*
X102188209Y-87187009D02*
X102235828Y-87377485D01*
X102235828Y-87377485D02*
X102283447Y-87472723D01*
X102283447Y-87472723D02*
X102378685Y-87567961D01*
X102378685Y-87567961D02*
X102521542Y-87615580D01*
X102521542Y-87615580D02*
X102759637Y-87615580D01*
X101807256Y-87329866D02*
X101331066Y-87329866D01*
X101902494Y-87615580D02*
X101569161Y-86615580D01*
X101569161Y-86615580D02*
X101235828Y-87615580D01*
X100378685Y-87615580D02*
X100950113Y-87615580D01*
X100664399Y-87615580D02*
X100664399Y-86615580D01*
X100664399Y-86615580D02*
X100759637Y-86758438D01*
X100759637Y-86758438D02*
X100854875Y-86853676D01*
X100854875Y-86853676D02*
X100950113Y-86901295D01*
X107810323Y-98083561D02*
X107667466Y-98131180D01*
X107667466Y-98131180D02*
X107429371Y-98131180D01*
X107429371Y-98131180D02*
X107334133Y-98083561D01*
X107334133Y-98083561D02*
X107286514Y-98035942D01*
X107286514Y-98035942D02*
X107238895Y-97940704D01*
X107238895Y-97940704D02*
X107238895Y-97845466D01*
X107238895Y-97845466D02*
X107286514Y-97750228D01*
X107286514Y-97750228D02*
X107334133Y-97702609D01*
X107334133Y-97702609D02*
X107429371Y-97654990D01*
X107429371Y-97654990D02*
X107619847Y-97607371D01*
X107619847Y-97607371D02*
X107715085Y-97559752D01*
X107715085Y-97559752D02*
X107762704Y-97512133D01*
X107762704Y-97512133D02*
X107810323Y-97416895D01*
X107810323Y-97416895D02*
X107810323Y-97321657D01*
X107810323Y-97321657D02*
X107762704Y-97226419D01*
X107762704Y-97226419D02*
X107715085Y-97178800D01*
X107715085Y-97178800D02*
X107619847Y-97131180D01*
X107619847Y-97131180D02*
X107381752Y-97131180D01*
X107381752Y-97131180D02*
X107238895Y-97178800D01*
X106238895Y-98035942D02*
X106286514Y-98083561D01*
X106286514Y-98083561D02*
X106429371Y-98131180D01*
X106429371Y-98131180D02*
X106524609Y-98131180D01*
X106524609Y-98131180D02*
X106667466Y-98083561D01*
X106667466Y-98083561D02*
X106762704Y-97988323D01*
X106762704Y-97988323D02*
X106810323Y-97893085D01*
X106810323Y-97893085D02*
X106857942Y-97702609D01*
X106857942Y-97702609D02*
X106857942Y-97559752D01*
X106857942Y-97559752D02*
X106810323Y-97369276D01*
X106810323Y-97369276D02*
X106762704Y-97274038D01*
X106762704Y-97274038D02*
X106667466Y-97178800D01*
X106667466Y-97178800D02*
X106524609Y-97131180D01*
X106524609Y-97131180D02*
X106429371Y-97131180D01*
X106429371Y-97131180D02*
X106286514Y-97178800D01*
X106286514Y-97178800D02*
X106238895Y-97226419D01*
X105334133Y-98131180D02*
X105810323Y-98131180D01*
X105810323Y-98131180D02*
X105810323Y-97131180D01*
X103848418Y-98083561D02*
X103705561Y-98131180D01*
X103705561Y-98131180D02*
X103467466Y-98131180D01*
X103467466Y-98131180D02*
X103372228Y-98083561D01*
X103372228Y-98083561D02*
X103324609Y-98035942D01*
X103324609Y-98035942D02*
X103276990Y-97940704D01*
X103276990Y-97940704D02*
X103276990Y-97845466D01*
X103276990Y-97845466D02*
X103324609Y-97750228D01*
X103324609Y-97750228D02*
X103372228Y-97702609D01*
X103372228Y-97702609D02*
X103467466Y-97654990D01*
X103467466Y-97654990D02*
X103657942Y-97607371D01*
X103657942Y-97607371D02*
X103753180Y-97559752D01*
X103753180Y-97559752D02*
X103800799Y-97512133D01*
X103800799Y-97512133D02*
X103848418Y-97416895D01*
X103848418Y-97416895D02*
X103848418Y-97321657D01*
X103848418Y-97321657D02*
X103800799Y-97226419D01*
X103800799Y-97226419D02*
X103753180Y-97178800D01*
X103753180Y-97178800D02*
X103657942Y-97131180D01*
X103657942Y-97131180D02*
X103419847Y-97131180D01*
X103419847Y-97131180D02*
X103276990Y-97178800D01*
X102848418Y-98131180D02*
X102848418Y-97131180D01*
X102848418Y-97131180D02*
X102610323Y-97131180D01*
X102610323Y-97131180D02*
X102467466Y-97178800D01*
X102467466Y-97178800D02*
X102372228Y-97274038D01*
X102372228Y-97274038D02*
X102324609Y-97369276D01*
X102324609Y-97369276D02*
X102276990Y-97559752D01*
X102276990Y-97559752D02*
X102276990Y-97702609D01*
X102276990Y-97702609D02*
X102324609Y-97893085D01*
X102324609Y-97893085D02*
X102372228Y-97988323D01*
X102372228Y-97988323D02*
X102467466Y-98083561D01*
X102467466Y-98083561D02*
X102610323Y-98131180D01*
X102610323Y-98131180D02*
X102848418Y-98131180D01*
X101896037Y-97845466D02*
X101419847Y-97845466D01*
X101991275Y-98131180D02*
X101657942Y-97131180D01*
X101657942Y-97131180D02*
X101324609Y-98131180D01*
X87293638Y-93960323D02*
X87246019Y-93817466D01*
X87246019Y-93817466D02*
X87246019Y-93579371D01*
X87246019Y-93579371D02*
X87293638Y-93484133D01*
X87293638Y-93484133D02*
X87341257Y-93436514D01*
X87341257Y-93436514D02*
X87436495Y-93388895D01*
X87436495Y-93388895D02*
X87531733Y-93388895D01*
X87531733Y-93388895D02*
X87626971Y-93436514D01*
X87626971Y-93436514D02*
X87674590Y-93484133D01*
X87674590Y-93484133D02*
X87722209Y-93579371D01*
X87722209Y-93579371D02*
X87769828Y-93769847D01*
X87769828Y-93769847D02*
X87817447Y-93865085D01*
X87817447Y-93865085D02*
X87865066Y-93912704D01*
X87865066Y-93912704D02*
X87960304Y-93960323D01*
X87960304Y-93960323D02*
X88055542Y-93960323D01*
X88055542Y-93960323D02*
X88150780Y-93912704D01*
X88150780Y-93912704D02*
X88198400Y-93865085D01*
X88198400Y-93865085D02*
X88246019Y-93769847D01*
X88246019Y-93769847D02*
X88246019Y-93531752D01*
X88246019Y-93531752D02*
X88198400Y-93388895D01*
X87246019Y-92960323D02*
X88246019Y-92960323D01*
X88246019Y-92960323D02*
X88246019Y-92722228D01*
X88246019Y-92722228D02*
X88198400Y-92579371D01*
X88198400Y-92579371D02*
X88103161Y-92484133D01*
X88103161Y-92484133D02*
X88007923Y-92436514D01*
X88007923Y-92436514D02*
X87817447Y-92388895D01*
X87817447Y-92388895D02*
X87674590Y-92388895D01*
X87674590Y-92388895D02*
X87484114Y-92436514D01*
X87484114Y-92436514D02*
X87388876Y-92484133D01*
X87388876Y-92484133D02*
X87293638Y-92579371D01*
X87293638Y-92579371D02*
X87246019Y-92722228D01*
X87246019Y-92722228D02*
X87246019Y-92960323D01*
X87531733Y-92007942D02*
X87531733Y-91531752D01*
X87246019Y-92103180D02*
X88246019Y-91769847D01*
X88246019Y-91769847D02*
X87246019Y-91436514D01*
X87293638Y-88750799D02*
X87246019Y-88607942D01*
X87246019Y-88607942D02*
X87246019Y-88369847D01*
X87246019Y-88369847D02*
X87293638Y-88274609D01*
X87293638Y-88274609D02*
X87341257Y-88226990D01*
X87341257Y-88226990D02*
X87436495Y-88179371D01*
X87436495Y-88179371D02*
X87531733Y-88179371D01*
X87531733Y-88179371D02*
X87626971Y-88226990D01*
X87626971Y-88226990D02*
X87674590Y-88274609D01*
X87674590Y-88274609D02*
X87722209Y-88369847D01*
X87722209Y-88369847D02*
X87769828Y-88560323D01*
X87769828Y-88560323D02*
X87817447Y-88655561D01*
X87817447Y-88655561D02*
X87865066Y-88703180D01*
X87865066Y-88703180D02*
X87960304Y-88750799D01*
X87960304Y-88750799D02*
X88055542Y-88750799D01*
X88055542Y-88750799D02*
X88150780Y-88703180D01*
X88150780Y-88703180D02*
X88198400Y-88655561D01*
X88198400Y-88655561D02*
X88246019Y-88560323D01*
X88246019Y-88560323D02*
X88246019Y-88322228D01*
X88246019Y-88322228D02*
X88198400Y-88179371D01*
X87341257Y-87179371D02*
X87293638Y-87226990D01*
X87293638Y-87226990D02*
X87246019Y-87369847D01*
X87246019Y-87369847D02*
X87246019Y-87465085D01*
X87246019Y-87465085D02*
X87293638Y-87607942D01*
X87293638Y-87607942D02*
X87388876Y-87703180D01*
X87388876Y-87703180D02*
X87484114Y-87750799D01*
X87484114Y-87750799D02*
X87674590Y-87798418D01*
X87674590Y-87798418D02*
X87817447Y-87798418D01*
X87817447Y-87798418D02*
X88007923Y-87750799D01*
X88007923Y-87750799D02*
X88103161Y-87703180D01*
X88103161Y-87703180D02*
X88198400Y-87607942D01*
X88198400Y-87607942D02*
X88246019Y-87465085D01*
X88246019Y-87465085D02*
X88246019Y-87369847D01*
X88246019Y-87369847D02*
X88198400Y-87226990D01*
X88198400Y-87226990D02*
X88150780Y-87179371D01*
X87246019Y-86274609D02*
X87246019Y-86750799D01*
X87246019Y-86750799D02*
X88246019Y-86750799D01*
M02*
