%TF.GenerationSoftware,KiCad,Pcbnew,(7.0.0)*%
%TF.CreationDate,2023-11-20T17:09:25+01:00*%
%TF.ProjectId,Helios_PCB_female,48656c69-6f73-45f5-9043-425f66656d61,rev?*%
%TF.SameCoordinates,Original*%
%TF.FileFunction,Copper,L1,Top*%
%TF.FilePolarity,Positive*%
%FSLAX46Y46*%
G04 Gerber Fmt 4.6, Leading zero omitted, Abs format (unit mm)*
G04 Created by KiCad (PCBNEW (7.0.0)) date 2023-11-20 17:09:25*
%MOMM*%
%LPD*%
G01*
G04 APERTURE LIST*
%TA.AperFunction,ComponentPad*%
%ADD10R,1.700000X1.700000*%
%TD*%
%TA.AperFunction,ComponentPad*%
%ADD11O,1.700000X1.700000*%
%TD*%
%TA.AperFunction,ComponentPad*%
%ADD12C,1.700000*%
%TD*%
%TA.AperFunction,ComponentPad*%
%ADD13R,3.800000X3.800000*%
%TD*%
%TA.AperFunction,ComponentPad*%
%ADD14C,3.800000*%
%TD*%
%TA.AperFunction,ComponentPad*%
%ADD15R,2.500000X2.500000*%
%TD*%
%TA.AperFunction,ComponentPad*%
%ADD16O,2.500000X2.500000*%
%TD*%
%TA.AperFunction,Conductor*%
%ADD17C,1.000000*%
%TD*%
G04 APERTURE END LIST*
D10*
%TO.P,BNO_055,1,Vin*%
%TO.N,+5V*%
X96215199Y-83522199D03*
D11*
%TO.P,BNO_055,2,3V3*%
%TO.N,unconnected-(IMU1-3V3-Pad2)*%
X96215199Y-86062199D03*
%TO.P,BNO_055,3,GND*%
%TO.N,GND*%
X96215199Y-88602199D03*
%TO.P,BNO_055,4,SDA*%
%TO.N,SDA1*%
X96215199Y-91142199D03*
%TO.P,BNO_055,5,SCL*%
%TO.N,SCL1*%
X96215199Y-93682199D03*
%TO.P,BNO_055,6,RST*%
%TO.N,unconnected-(IMU1-RST-Pad6)*%
X96215199Y-96222199D03*
%TO.P,BNO_055,7,ADR*%
%TO.N,unconnected-(IMU1-ADR-Pad7)*%
X113995199Y-93682199D03*
%TO.P,BNO_055,8,INT*%
%TO.N,unconnected-(IMU1-INT-Pad8)*%
X113995199Y-91142199D03*
%TO.P,BNO_055,9,PS1*%
%TO.N,unconnected-(IMU1-PS1-Pad9)*%
X113995199Y-88602199D03*
D12*
%TO.P,BNO_055,10,PS0*%
%TO.N,unconnected-(IMU1-PS0-Pad10)*%
X113995200Y-86062200D03*
%TD*%
D13*
%TO.P,J1,1,Pin_1*%
%TO.N,GND*%
X118499999Y-87499999D03*
D14*
%TO.P,J1,2,Pin_2*%
%TO.N,+5V*%
X118500000Y-92500000D03*
%TD*%
D13*
%TO.P,J3,1,Pin_1*%
%TO.N,SCL*%
X91499999Y-87474999D03*
D14*
%TO.P,J3,2,Pin_2*%
%TO.N,SDA*%
X91500000Y-92475000D03*
%TD*%
D10*
%TO.P,J4,1,Pin_1*%
%TO.N,SDA1*%
X103372999Y-84708999D03*
D11*
%TO.P,J4,2,Pin_2*%
%TO.N,SCL1*%
X105912999Y-84708999D03*
%TD*%
D10*
%TO.P,J7,1,Pin_1*%
%TO.N,SDA*%
X103304999Y-95059999D03*
D11*
%TO.P,J7,2,Pin_2*%
%TO.N,SCL*%
X105844999Y-95059999D03*
%TD*%
D15*
%TO.P,J2,1,Pin_1*%
%TO.N,+5V*%
X105999999Y-89872199D03*
D16*
%TO.P,J2,2,Pin_2*%
%TO.N,GND*%
X102999999Y-89872199D03*
%TD*%
D17*
%TO.N,+5V*%
X97644600Y-82092800D02*
X96215200Y-83522200D01*
X108966000Y-83312000D02*
X107746800Y-82092800D01*
X108966000Y-86906200D02*
X108966000Y-83312000D01*
X107746800Y-82092800D02*
X97644600Y-82092800D01*
X106000000Y-89872200D02*
X108966000Y-86906200D01*
%TO.N,SCL1*%
X96215200Y-93675200D02*
X96215200Y-93682200D01*
X104902000Y-87122000D02*
X102768400Y-87122000D01*
X102768400Y-87122000D02*
X96215200Y-93675200D01*
X105913000Y-86111000D02*
X104902000Y-87122000D01*
X105913000Y-84709000D02*
X105913000Y-86111000D01*
%TO.N,SCL*%
X97500000Y-101500000D02*
X94234000Y-98234000D01*
X94234000Y-90209000D02*
X91500000Y-87475000D01*
X105845000Y-96055000D02*
X100400000Y-101500000D01*
X100400000Y-101500000D02*
X97500000Y-101500000D01*
X94234000Y-98234000D02*
X94234000Y-90209000D01*
X105845000Y-95060000D02*
X105845000Y-96055000D01*
%TD*%
%TA.AperFunction,Conductor*%
%TO.N,GND*%
G36*
X105341262Y-71005495D02*
G01*
X105720209Y-71018535D01*
X105720928Y-71018564D01*
X106204192Y-71040583D01*
X106208458Y-71040851D01*
X106585290Y-71071160D01*
X106586156Y-71071235D01*
X107068956Y-71115321D01*
X107073151Y-71115778D01*
X107447100Y-71163193D01*
X107447805Y-71163286D01*
X107929344Y-71229472D01*
X107933527Y-71230122D01*
X108303578Y-71294400D01*
X108304591Y-71294582D01*
X108783611Y-71382799D01*
X108787850Y-71383658D01*
X109153329Y-71464561D01*
X109153900Y-71464690D01*
X109629961Y-71574978D01*
X109634281Y-71576062D01*
X109994055Y-71673200D01*
X109994962Y-71673449D01*
X110466678Y-71805618D01*
X110470979Y-71806909D01*
X110824490Y-71919982D01*
X110825479Y-71920303D01*
X111292031Y-72074247D01*
X111296237Y-72075721D01*
X111642780Y-72204358D01*
X111643399Y-72204590D01*
X112104218Y-72380279D01*
X112108399Y-72381963D01*
X112447032Y-72525653D01*
X112447638Y-72525913D01*
X112901612Y-72723102D01*
X112905737Y-72724986D01*
X113070104Y-72803810D01*
X113235444Y-72883101D01*
X113236352Y-72883541D01*
X113395035Y-72961233D01*
X113682506Y-73101982D01*
X113686565Y-73104066D01*
X114007006Y-73276232D01*
X114007464Y-73276480D01*
X114445240Y-73516112D01*
X114449301Y-73518437D01*
X114759551Y-73703940D01*
X114759882Y-73704139D01*
X115188284Y-73964656D01*
X115192287Y-73967197D01*
X115478762Y-74156837D01*
X115491363Y-74165178D01*
X115492048Y-74165635D01*
X115745476Y-74336016D01*
X115910110Y-74446700D01*
X115914041Y-74449455D01*
X116201534Y-74659340D01*
X116201965Y-74659657D01*
X116447698Y-74841634D01*
X116609123Y-74961177D01*
X116612957Y-74964134D01*
X116888014Y-75184962D01*
X116888624Y-75185455D01*
X117283982Y-75507103D01*
X117287657Y-75510215D01*
X117549697Y-75741127D01*
X117550175Y-75741551D01*
X117933154Y-76083243D01*
X117936762Y-76086594D01*
X118185064Y-76326499D01*
X118185463Y-76326886D01*
X118555342Y-76688440D01*
X118558822Y-76691981D01*
X118792762Y-76939731D01*
X118793228Y-76940226D01*
X119012477Y-77174985D01*
X119149260Y-77321443D01*
X119152594Y-77325162D01*
X119372007Y-77579985D01*
X119713604Y-77980866D01*
X119716799Y-77984774D01*
X119920777Y-78244896D01*
X119920922Y-78245081D01*
X120247279Y-78665423D01*
X120250317Y-78669506D01*
X120438385Y-78933418D01*
X120438706Y-78933872D01*
X120749117Y-79373623D01*
X120751988Y-79377874D01*
X120923610Y-79643702D01*
X120923834Y-79644051D01*
X121012257Y-79782268D01*
X121218109Y-80104043D01*
X121220804Y-80108456D01*
X121375517Y-80374077D01*
X121375755Y-80374487D01*
X121653232Y-80855092D01*
X121655743Y-80859660D01*
X121793272Y-81122827D01*
X121793472Y-81123211D01*
X122053616Y-81625266D01*
X122055933Y-81629981D01*
X122175745Y-81887345D01*
X122175642Y-81887392D01*
X122175911Y-81887700D01*
X122418391Y-82412895D01*
X122420508Y-82417749D01*
X122522512Y-82666018D01*
X122522644Y-82666342D01*
X122746819Y-83216382D01*
X122748718Y-83221345D01*
X122751622Y-83229448D01*
X122832403Y-83454963D01*
X122832343Y-83454984D01*
X122832507Y-83455254D01*
X123038204Y-84034030D01*
X123039895Y-84039135D01*
X123105103Y-84251356D01*
X123105181Y-84251612D01*
X123291940Y-84864136D01*
X123293407Y-84869352D01*
X123339878Y-85049655D01*
X123339934Y-85049875D01*
X123507504Y-85704998D01*
X123508740Y-85710315D01*
X123536206Y-85841498D01*
X123536244Y-85841681D01*
X123684428Y-86554785D01*
X123685428Y-86560192D01*
X123693878Y-86612375D01*
X123693901Y-86612519D01*
X123822089Y-87410108D01*
X123822858Y-87415701D01*
X123920462Y-88269485D01*
X123920975Y-88275107D01*
X123979617Y-89132426D01*
X123979874Y-89138065D01*
X123999435Y-89997176D01*
X123999435Y-90002822D01*
X123979874Y-90861934D01*
X123979617Y-90867573D01*
X123920975Y-91724892D01*
X123920462Y-91730514D01*
X123822858Y-92584298D01*
X123822089Y-92589891D01*
X123693901Y-93387480D01*
X123693878Y-93387625D01*
X123685428Y-93439807D01*
X123684428Y-93445213D01*
X123536244Y-94158318D01*
X123536206Y-94158501D01*
X123508740Y-94289683D01*
X123507504Y-94295000D01*
X123339934Y-94950124D01*
X123339878Y-94950344D01*
X123293407Y-95130646D01*
X123291940Y-95135862D01*
X123105181Y-95748387D01*
X123105103Y-95748643D01*
X123039895Y-95960863D01*
X123038204Y-95965968D01*
X122832537Y-96544659D01*
X122832434Y-96544950D01*
X122748727Y-96778632D01*
X122746819Y-96783616D01*
X122522644Y-97333657D01*
X122522511Y-97333981D01*
X122420507Y-97582249D01*
X122418391Y-97587103D01*
X122175942Y-98112229D01*
X122175777Y-98112584D01*
X122055933Y-98370017D01*
X122053616Y-98374732D01*
X121793472Y-98876787D01*
X121793272Y-98877171D01*
X121655743Y-99140338D01*
X121653232Y-99144906D01*
X121375755Y-99625511D01*
X121375517Y-99625921D01*
X121220804Y-99891542D01*
X121218109Y-99895955D01*
X120923889Y-100355862D01*
X120923610Y-100356296D01*
X120751988Y-100622124D01*
X120749117Y-100626375D01*
X120438706Y-101066126D01*
X120438385Y-101066580D01*
X120250317Y-101330492D01*
X120247279Y-101334575D01*
X119920999Y-101754818D01*
X119920631Y-101755289D01*
X119716799Y-102015224D01*
X119713604Y-102019132D01*
X119372156Y-102419840D01*
X119371740Y-102420325D01*
X119152602Y-102674827D01*
X119149260Y-102678555D01*
X118793228Y-103059772D01*
X118792762Y-103060267D01*
X118558822Y-103308017D01*
X118555342Y-103311558D01*
X118185463Y-103673112D01*
X118184945Y-103673615D01*
X117936762Y-103913404D01*
X117933154Y-103916755D01*
X117550175Y-104258447D01*
X117549604Y-104258953D01*
X117287682Y-104489762D01*
X117283956Y-104492917D01*
X116888639Y-104814531D01*
X116888014Y-104815036D01*
X116612957Y-105035864D01*
X116609123Y-105038821D01*
X116202102Y-105340240D01*
X116201421Y-105340741D01*
X115914041Y-105550543D01*
X115910110Y-105553298D01*
X115492100Y-105834328D01*
X115491363Y-105834820D01*
X115192287Y-106032801D01*
X115188269Y-106035351D01*
X114760171Y-106295684D01*
X114759376Y-106296163D01*
X114449306Y-106481558D01*
X114445212Y-106483902D01*
X114007678Y-106723402D01*
X114006826Y-106723863D01*
X113686615Y-106895906D01*
X113682454Y-106898042D01*
X113236352Y-107116457D01*
X113235444Y-107116897D01*
X112905782Y-107274991D01*
X112901565Y-107276917D01*
X112447828Y-107474003D01*
X112446862Y-107474418D01*
X112108439Y-107618019D01*
X112104177Y-107619735D01*
X111643581Y-107795339D01*
X111642559Y-107795723D01*
X111296282Y-107924261D01*
X111291985Y-107925767D01*
X110825568Y-108079666D01*
X110824490Y-108080016D01*
X110470979Y-108193089D01*
X110466657Y-108194386D01*
X109995066Y-108326520D01*
X109993933Y-108326831D01*
X109634289Y-108423934D01*
X109629953Y-108425022D01*
X109154186Y-108535243D01*
X109153000Y-108535511D01*
X108787901Y-108616329D01*
X108783559Y-108617209D01*
X108304718Y-108705393D01*
X108303481Y-108705615D01*
X107933602Y-108769864D01*
X107929266Y-108770538D01*
X107448098Y-108836673D01*
X107446811Y-108836843D01*
X107073213Y-108884213D01*
X107068891Y-108884684D01*
X106586411Y-108928741D01*
X106585076Y-108928856D01*
X106208473Y-108959146D01*
X106204176Y-108959416D01*
X105721321Y-108981417D01*
X105719942Y-108981473D01*
X105375751Y-108993317D01*
X105341262Y-108994504D01*
X105336999Y-108994577D01*
X104854540Y-108994577D01*
X104853119Y-108994569D01*
X104837158Y-108994385D01*
X104473320Y-108990214D01*
X104469098Y-108990093D01*
X103988069Y-108968176D01*
X103986608Y-108968101D01*
X103606523Y-108946287D01*
X103602352Y-108945977D01*
X103123610Y-108902262D01*
X103122113Y-108902116D01*
X102742612Y-108862815D01*
X102738500Y-108862320D01*
X102263082Y-108796975D01*
X102261553Y-108796755D01*
X101883403Y-108739969D01*
X101879359Y-108739293D01*
X101408192Y-108652522D01*
X101406633Y-108652225D01*
X101030743Y-108578016D01*
X101026774Y-108577165D01*
X100560675Y-108469185D01*
X100559092Y-108468807D01*
X100186346Y-108377282D01*
X100182460Y-108376261D01*
X99722433Y-108247367D01*
X99720830Y-108246906D01*
X99351996Y-108138190D01*
X99348199Y-108137004D01*
X98895117Y-107987503D01*
X98893497Y-107986956D01*
X98529483Y-107861254D01*
X98525784Y-107859911D01*
X98080487Y-107690139D01*
X98078855Y-107689503D01*
X97720450Y-107547030D01*
X97716854Y-107545535D01*
X97280278Y-107355903D01*
X97278639Y-107355177D01*
X96926625Y-107196188D01*
X96923139Y-107194548D01*
X96496104Y-106985466D01*
X96494463Y-106984647D01*
X96149653Y-106809456D01*
X96146282Y-106807678D01*
X95729656Y-106579623D01*
X95728018Y-106578710D01*
X95391151Y-106387638D01*
X95387900Y-106385728D01*
X94982524Y-106139213D01*
X94980894Y-106138205D01*
X94652731Y-105931632D01*
X94649605Y-105929598D01*
X94256167Y-105665087D01*
X94254552Y-105663982D01*
X93935902Y-105442371D01*
X93932905Y-105440220D01*
X93552299Y-105158364D01*
X93550703Y-105157162D01*
X93242145Y-104920865D01*
X93239300Y-104918619D01*
X92872208Y-104619967D01*
X92870637Y-104618668D01*
X92572999Y-104368273D01*
X92570274Y-104365912D01*
X92217333Y-104051021D01*
X92215792Y-104049622D01*
X91929786Y-103785696D01*
X91927202Y-103783242D01*
X91589146Y-103452796D01*
X91587692Y-103451351D01*
X91313815Y-103174315D01*
X91311389Y-103171791D01*
X90988940Y-102826532D01*
X90987478Y-102824938D01*
X90726427Y-102535458D01*
X90724131Y-102532839D01*
X90417927Y-102173493D01*
X90416570Y-102171871D01*
X90168807Y-101870411D01*
X90166708Y-101867784D01*
X89877356Y-101495105D01*
X89875997Y-101493321D01*
X89642174Y-101180631D01*
X89640176Y-101177880D01*
X89561612Y-101066580D01*
X89368274Y-100792683D01*
X89366991Y-100790830D01*
X89284984Y-100669982D01*
X89147584Y-100467503D01*
X89145749Y-100464718D01*
X89124451Y-100431427D01*
X88891759Y-100067696D01*
X88890550Y-100065767D01*
X88686117Y-99732593D01*
X88684446Y-99729785D01*
X88682241Y-99725965D01*
X88448829Y-99321686D01*
X88447723Y-99319727D01*
X88258679Y-98977347D01*
X88257145Y-98974479D01*
X88226099Y-98914563D01*
X88040446Y-98556268D01*
X88039400Y-98554200D01*
X87866182Y-98203371D01*
X87864794Y-98200464D01*
X87824056Y-98112229D01*
X87667416Y-97772959D01*
X87666496Y-97770914D01*
X87509420Y-97412228D01*
X87508226Y-97409402D01*
X87330561Y-96973480D01*
X87329685Y-96971269D01*
X87189189Y-96605681D01*
X87188137Y-96602834D01*
X87030518Y-96159336D01*
X87029776Y-96157180D01*
X86906139Y-95785388D01*
X86905219Y-95782498D01*
X86767983Y-95332401D01*
X86767335Y-95330194D01*
X86660842Y-94953012D01*
X86660046Y-94950049D01*
X86645951Y-94894943D01*
X86543484Y-94494348D01*
X86542910Y-94492002D01*
X86453807Y-94110271D01*
X86453187Y-94107462D01*
X86357474Y-93646868D01*
X86357004Y-93644477D01*
X86285479Y-93258970D01*
X86285003Y-93256224D01*
X86210358Y-92791781D01*
X86209996Y-92789361D01*
X86166469Y-92475000D01*
X89094754Y-92475000D01*
X89113720Y-92776457D01*
X89114447Y-92780269D01*
X89114449Y-92780283D01*
X89158133Y-93009281D01*
X89170319Y-93073160D01*
X89171523Y-93076867D01*
X89171524Y-93076869D01*
X89230692Y-93258970D01*
X89263659Y-93360430D01*
X89392267Y-93633736D01*
X89394349Y-93637017D01*
X89394352Y-93637022D01*
X89552024Y-93885474D01*
X89552028Y-93885480D01*
X89554115Y-93888768D01*
X89556594Y-93891765D01*
X89556598Y-93891770D01*
X89626263Y-93975980D01*
X89746651Y-94121504D01*
X89966838Y-94328274D01*
X90211205Y-94505816D01*
X90475896Y-94651332D01*
X90756738Y-94762525D01*
X91049302Y-94837642D01*
X91348973Y-94875500D01*
X91647133Y-94875500D01*
X91651027Y-94875500D01*
X91950698Y-94837642D01*
X92243262Y-94762525D01*
X92524104Y-94651332D01*
X92788795Y-94505816D01*
X93033162Y-94328274D01*
X93033574Y-94328841D01*
X93093968Y-94302713D01*
X93162302Y-94313540D01*
X93214198Y-94359296D01*
X93233500Y-94425736D01*
X93233500Y-98219722D01*
X93233460Y-98222862D01*
X93231243Y-98310363D01*
X93232351Y-98316548D01*
X93232352Y-98316554D01*
X93241648Y-98368420D01*
X93242957Y-98377748D01*
X93248289Y-98430180D01*
X93248290Y-98430185D01*
X93248926Y-98436438D01*
X93250807Y-98442435D01*
X93250810Y-98442447D01*
X93258032Y-98465466D01*
X93261772Y-98480702D01*
X93266031Y-98504464D01*
X93266035Y-98504478D01*
X93267142Y-98510653D01*
X93269471Y-98516483D01*
X93289020Y-98565425D01*
X93292179Y-98574298D01*
X93309841Y-98630588D01*
X93312891Y-98636083D01*
X93324603Y-98657184D01*
X93331337Y-98671363D01*
X93340290Y-98693778D01*
X93340292Y-98693783D01*
X93342623Y-98699617D01*
X93346082Y-98704866D01*
X93346085Y-98704871D01*
X93375080Y-98748867D01*
X93379961Y-98756923D01*
X93405536Y-98802999D01*
X93405538Y-98803002D01*
X93408591Y-98808502D01*
X93412689Y-98813275D01*
X93428404Y-98831581D01*
X93437855Y-98844116D01*
X93451133Y-98864263D01*
X93451138Y-98864269D01*
X93454598Y-98869519D01*
X93459045Y-98873966D01*
X93496300Y-98911221D01*
X93502705Y-98918131D01*
X93541134Y-98962895D01*
X93565198Y-98981522D01*
X93576968Y-98991889D01*
X93930975Y-99345896D01*
X93964355Y-99406738D01*
X93959816Y-99475987D01*
X93918781Y-99531952D01*
X93854103Y-99557105D01*
X93769982Y-99564465D01*
X93769977Y-99564465D01*
X93764592Y-99564937D01*
X93759371Y-99566335D01*
X93759365Y-99566337D01*
X93541569Y-99624694D01*
X93541557Y-99624698D01*
X93536337Y-99626097D01*
X93531432Y-99628383D01*
X93531427Y-99628386D01*
X93327081Y-99723675D01*
X93327077Y-99723677D01*
X93322171Y-99725965D01*
X93317738Y-99729068D01*
X93317731Y-99729073D01*
X93133034Y-99858399D01*
X93133029Y-99858402D01*
X93128599Y-99861505D01*
X93124775Y-99865328D01*
X93124769Y-99865334D01*
X92965336Y-100024767D01*
X92965330Y-100024773D01*
X92961505Y-100028599D01*
X92958406Y-100033023D01*
X92958399Y-100033033D01*
X92829066Y-100217740D01*
X92829061Y-100217747D01*
X92825965Y-100222170D01*
X92823683Y-100227061D01*
X92823678Y-100227072D01*
X92728386Y-100431427D01*
X92728383Y-100431432D01*
X92726097Y-100436337D01*
X92724698Y-100441557D01*
X92724694Y-100441569D01*
X92666337Y-100659365D01*
X92666335Y-100659371D01*
X92664937Y-100664592D01*
X92664465Y-100669977D01*
X92664465Y-100669982D01*
X92653892Y-100790830D01*
X92644341Y-100900000D01*
X92644813Y-100905395D01*
X92657105Y-101045898D01*
X92664937Y-101135408D01*
X92666336Y-101140630D01*
X92666337Y-101140634D01*
X92724694Y-101358430D01*
X92724697Y-101358438D01*
X92726097Y-101363663D01*
X92825965Y-101577829D01*
X92961505Y-101771401D01*
X93128599Y-101938495D01*
X93322171Y-102074035D01*
X93536337Y-102173903D01*
X93764592Y-102235063D01*
X93941034Y-102250500D01*
X94056258Y-102250500D01*
X94058966Y-102250500D01*
X94235408Y-102235063D01*
X94463663Y-102173903D01*
X94677829Y-102074035D01*
X94871401Y-101938495D01*
X95038495Y-101771401D01*
X95174035Y-101577830D01*
X95273903Y-101363663D01*
X95335063Y-101135408D01*
X95342894Y-101045897D01*
X95368046Y-100981219D01*
X95424011Y-100940183D01*
X95493260Y-100935644D01*
X95554103Y-100969024D01*
X96782450Y-102197371D01*
X96784643Y-102199620D01*
X96817002Y-102233662D01*
X96844941Y-102263053D01*
X96850102Y-102266645D01*
X96893361Y-102296755D01*
X96900874Y-102302419D01*
X96946592Y-102339697D01*
X96952166Y-102342608D01*
X96952173Y-102342613D01*
X96973557Y-102353783D01*
X96986985Y-102361918D01*
X97011951Y-102379295D01*
X97040105Y-102391377D01*
X97066165Y-102402560D01*
X97074675Y-102406602D01*
X97126951Y-102433909D01*
X97156195Y-102442276D01*
X97170979Y-102447539D01*
X97198942Y-102459540D01*
X97256727Y-102471414D01*
X97265869Y-102473657D01*
X97322582Y-102489886D01*
X97352914Y-102492195D01*
X97368442Y-102494372D01*
X97398259Y-102500500D01*
X97457254Y-102500500D01*
X97466669Y-102500858D01*
X97525476Y-102505336D01*
X97552693Y-102501869D01*
X97555653Y-102501493D01*
X97571318Y-102500500D01*
X100385722Y-102500500D01*
X100388862Y-102500539D01*
X100476363Y-102502757D01*
X100534458Y-102492344D01*
X100543739Y-102491042D01*
X100602438Y-102485074D01*
X100631464Y-102475966D01*
X100646713Y-102472224D01*
X100676653Y-102466858D01*
X100731423Y-102444980D01*
X100740303Y-102441818D01*
X100759994Y-102435640D01*
X100796588Y-102424159D01*
X100823194Y-102409390D01*
X100837362Y-102402662D01*
X100865617Y-102391377D01*
X100914891Y-102358902D01*
X100922910Y-102354043D01*
X100974502Y-102325409D01*
X100985961Y-102315570D01*
X100997583Y-102305594D01*
X101010125Y-102296137D01*
X101035519Y-102279402D01*
X101077238Y-102237681D01*
X101084122Y-102231301D01*
X101128895Y-102192866D01*
X101147524Y-102168798D01*
X101157884Y-102157035D01*
X106542389Y-96772529D01*
X106544559Y-96770413D01*
X106608053Y-96710059D01*
X106641752Y-96661641D01*
X106647428Y-96654113D01*
X106684698Y-96608407D01*
X106698782Y-96581444D01*
X106706919Y-96568013D01*
X106720704Y-96548208D01*
X106720703Y-96548208D01*
X106724295Y-96543049D01*
X106747568Y-96488815D01*
X106751598Y-96480331D01*
X106761376Y-96461614D01*
X106778909Y-96428049D01*
X106787278Y-96398797D01*
X106792538Y-96384023D01*
X106804540Y-96356058D01*
X106816416Y-96298262D01*
X106818649Y-96289162D01*
X106834887Y-96232418D01*
X106837197Y-96202077D01*
X106839378Y-96186528D01*
X106845500Y-96156741D01*
X106845500Y-96097759D01*
X106845858Y-96088344D01*
X106846051Y-96085802D01*
X106850337Y-96029524D01*
X106849542Y-96023282D01*
X106849448Y-96019565D01*
X106856359Y-95975489D01*
X106878422Y-95936712D01*
X106879663Y-95935232D01*
X106883495Y-95931401D01*
X107019035Y-95737830D01*
X107118903Y-95523663D01*
X107180063Y-95295408D01*
X107200659Y-95060000D01*
X107180063Y-94824592D01*
X107118903Y-94596337D01*
X107019035Y-94382171D01*
X106883495Y-94188599D01*
X106716401Y-94021505D01*
X106711970Y-94018402D01*
X106711966Y-94018399D01*
X106527259Y-93889066D01*
X106527257Y-93889064D01*
X106522830Y-93885965D01*
X106517933Y-93883681D01*
X106517927Y-93883678D01*
X106313572Y-93788386D01*
X106313570Y-93788385D01*
X106308663Y-93786097D01*
X106303438Y-93784697D01*
X106303430Y-93784694D01*
X106085634Y-93726337D01*
X106085630Y-93726336D01*
X106080408Y-93724937D01*
X106075020Y-93724465D01*
X106075017Y-93724465D01*
X105850395Y-93704813D01*
X105845000Y-93704341D01*
X105839605Y-93704813D01*
X105614982Y-93724465D01*
X105614977Y-93724465D01*
X105609592Y-93724937D01*
X105604371Y-93726335D01*
X105604365Y-93726337D01*
X105386569Y-93784694D01*
X105386557Y-93784698D01*
X105381337Y-93786097D01*
X105376432Y-93788383D01*
X105376427Y-93788386D01*
X105172081Y-93883675D01*
X105172077Y-93883677D01*
X105167171Y-93885965D01*
X105162738Y-93889068D01*
X105162731Y-93889073D01*
X104978034Y-94018399D01*
X104978029Y-94018402D01*
X104973599Y-94021505D01*
X104969775Y-94025328D01*
X104969775Y-94025329D01*
X104851673Y-94143431D01*
X104798926Y-94174726D01*
X104737633Y-94176915D01*
X104682789Y-94149462D01*
X104647810Y-94099082D01*
X104620304Y-94025336D01*
X104598796Y-93967669D01*
X104512546Y-93852454D01*
X104422030Y-93784694D01*
X104404431Y-93771519D01*
X104404430Y-93771518D01*
X104397331Y-93766204D01*
X104290442Y-93726337D01*
X104269752Y-93718620D01*
X104269750Y-93718619D01*
X104262483Y-93715909D01*
X104254770Y-93715079D01*
X104254767Y-93715079D01*
X104206180Y-93709855D01*
X104206169Y-93709854D01*
X104202873Y-93709500D01*
X104199550Y-93709500D01*
X102410439Y-93709500D01*
X102410420Y-93709500D01*
X102407128Y-93709501D01*
X102403850Y-93709853D01*
X102403838Y-93709854D01*
X102355231Y-93715079D01*
X102355225Y-93715080D01*
X102347517Y-93715909D01*
X102340252Y-93718618D01*
X102340246Y-93718620D01*
X102220980Y-93763104D01*
X102220978Y-93763104D01*
X102212669Y-93766204D01*
X102205572Y-93771516D01*
X102205568Y-93771519D01*
X102104550Y-93847141D01*
X102104546Y-93847144D01*
X102097454Y-93852454D01*
X102092144Y-93859546D01*
X102092141Y-93859550D01*
X102016519Y-93960568D01*
X102016516Y-93960572D01*
X102011204Y-93967669D01*
X102008104Y-93975978D01*
X102008104Y-93975980D01*
X101963620Y-94095247D01*
X101963619Y-94095250D01*
X101960909Y-94102517D01*
X101960079Y-94110227D01*
X101960079Y-94110232D01*
X101954855Y-94158819D01*
X101954854Y-94158831D01*
X101954500Y-94162127D01*
X101954500Y-94165448D01*
X101954500Y-94165449D01*
X101954500Y-95954560D01*
X101954500Y-95954578D01*
X101954501Y-95957872D01*
X101954853Y-95961150D01*
X101954854Y-95961161D01*
X101960079Y-96009768D01*
X101960080Y-96009773D01*
X101960909Y-96017483D01*
X101963619Y-96024749D01*
X101963620Y-96024753D01*
X101987338Y-96088344D01*
X102011204Y-96152331D01*
X102097454Y-96267546D01*
X102212669Y-96353796D01*
X102347517Y-96404091D01*
X102407127Y-96410500D01*
X103775217Y-96410499D01*
X103831512Y-96424014D01*
X103875535Y-96461614D01*
X103897690Y-96515101D01*
X103893148Y-96572817D01*
X103862898Y-96622180D01*
X100021899Y-100463181D01*
X99981671Y-100490061D01*
X99934218Y-100499500D01*
X97965783Y-100499500D01*
X97918330Y-100490061D01*
X97878102Y-100463181D01*
X95270819Y-97855899D01*
X95243939Y-97815671D01*
X95234500Y-97768218D01*
X95234500Y-97422365D01*
X95252491Y-97358037D01*
X95301243Y-97312376D01*
X95366610Y-97298631D01*
X95429622Y-97320789D01*
X95537370Y-97396235D01*
X95751537Y-97496103D01*
X95979792Y-97557263D01*
X96215200Y-97577859D01*
X96450608Y-97557263D01*
X96678863Y-97496103D01*
X96893030Y-97396235D01*
X97086601Y-97260695D01*
X97253695Y-97093601D01*
X97389235Y-96900030D01*
X97489103Y-96685863D01*
X97550263Y-96457608D01*
X97570859Y-96222200D01*
X97550263Y-95986792D01*
X97489103Y-95758537D01*
X97389235Y-95544371D01*
X97253695Y-95350799D01*
X97086601Y-95183705D01*
X97082168Y-95180601D01*
X97082161Y-95180595D01*
X96901042Y-95053775D01*
X96862176Y-95009457D01*
X96848165Y-94952200D01*
X96862176Y-94894943D01*
X96901042Y-94850625D01*
X97082161Y-94723804D01*
X97082161Y-94723803D01*
X97086601Y-94720695D01*
X97253695Y-94553601D01*
X97389235Y-94360030D01*
X97489103Y-94145863D01*
X97550263Y-93917608D01*
X97561914Y-93784429D01*
X97573060Y-93742834D01*
X97597758Y-93707561D01*
X97623119Y-93682200D01*
X112639541Y-93682200D01*
X112640013Y-93687595D01*
X112657613Y-93888768D01*
X112660137Y-93917608D01*
X112661536Y-93922830D01*
X112661537Y-93922834D01*
X112719894Y-94140630D01*
X112719897Y-94140638D01*
X112721297Y-94145863D01*
X112723585Y-94150770D01*
X112723586Y-94150772D01*
X112818878Y-94355127D01*
X112818881Y-94355133D01*
X112821165Y-94360030D01*
X112824264Y-94364457D01*
X112824266Y-94364459D01*
X112953599Y-94549166D01*
X112953602Y-94549170D01*
X112956705Y-94553601D01*
X113123799Y-94720695D01*
X113128231Y-94723798D01*
X113128233Y-94723800D01*
X113197607Y-94772376D01*
X113317370Y-94856235D01*
X113322270Y-94858520D01*
X113322272Y-94858521D01*
X113331110Y-94862642D01*
X113531537Y-94956103D01*
X113759792Y-95017263D01*
X113995200Y-95037859D01*
X114230608Y-95017263D01*
X114458863Y-94956103D01*
X114673030Y-94856235D01*
X114866601Y-94720695D01*
X115033695Y-94553601D01*
X115169235Y-94360030D01*
X115269103Y-94145863D01*
X115330263Y-93917608D01*
X115350859Y-93682200D01*
X115330263Y-93446792D01*
X115269103Y-93218537D01*
X115169235Y-93004371D01*
X115033695Y-92810799D01*
X114866601Y-92643705D01*
X114862168Y-92640601D01*
X114862161Y-92640595D01*
X114681042Y-92513775D01*
X114668962Y-92500000D01*
X116094754Y-92500000D01*
X116113720Y-92801457D01*
X116114447Y-92805269D01*
X116114449Y-92805283D01*
X116169588Y-93094330D01*
X116170319Y-93098160D01*
X116171523Y-93101867D01*
X116171524Y-93101869D01*
X116222569Y-93258970D01*
X116263659Y-93385430D01*
X116392267Y-93658736D01*
X116394349Y-93662017D01*
X116394352Y-93662022D01*
X116552024Y-93910474D01*
X116552028Y-93910480D01*
X116554115Y-93913768D01*
X116556594Y-93916765D01*
X116556598Y-93916770D01*
X116561613Y-93922832D01*
X116746651Y-94146504D01*
X116966838Y-94353274D01*
X117211205Y-94530816D01*
X117214612Y-94532689D01*
X117427003Y-94649453D01*
X117475896Y-94676332D01*
X117756738Y-94787525D01*
X118049302Y-94862642D01*
X118348973Y-94900500D01*
X118647133Y-94900500D01*
X118651027Y-94900500D01*
X118950698Y-94862642D01*
X119243262Y-94787525D01*
X119524104Y-94676332D01*
X119788795Y-94530816D01*
X120033162Y-94353274D01*
X120253349Y-94146504D01*
X120445885Y-93913768D01*
X120607733Y-93658736D01*
X120736341Y-93385430D01*
X120829681Y-93098160D01*
X120886280Y-92801457D01*
X120905246Y-92500000D01*
X120886280Y-92198543D01*
X120829681Y-91901840D01*
X120736341Y-91614570D01*
X120607733Y-91341264D01*
X120499092Y-91170073D01*
X120447975Y-91089525D01*
X120447973Y-91089522D01*
X120445885Y-91086232D01*
X120431625Y-91068995D01*
X120293115Y-90901565D01*
X120253349Y-90853496D01*
X120033162Y-90646726D01*
X120009178Y-90629301D01*
X119791944Y-90471472D01*
X119791945Y-90471472D01*
X119788795Y-90469184D01*
X119785391Y-90467313D01*
X119785387Y-90467310D01*
X119527521Y-90325546D01*
X119527514Y-90325542D01*
X119524104Y-90323668D01*
X119520478Y-90322232D01*
X119520473Y-90322230D01*
X119246890Y-90213911D01*
X119246884Y-90213909D01*
X119243262Y-90212475D01*
X119239484Y-90211505D01*
X119239481Y-90211504D01*
X118976972Y-90144104D01*
X118924837Y-90116150D01*
X118891586Y-90067223D01*
X118884787Y-90008459D01*
X118905986Y-89953232D01*
X118950360Y-89914111D01*
X119007809Y-89900000D01*
X120444518Y-89900000D01*
X120451114Y-89899646D01*
X120499667Y-89894426D01*
X120514641Y-89890888D01*
X120633777Y-89846452D01*
X120649189Y-89838037D01*
X120750092Y-89762501D01*
X120762501Y-89750092D01*
X120838037Y-89649189D01*
X120846452Y-89633777D01*
X120890888Y-89514641D01*
X120894426Y-89499667D01*
X120899646Y-89451114D01*
X120900000Y-89444518D01*
X120900000Y-87766326D01*
X120896549Y-87753450D01*
X120883674Y-87750000D01*
X116116326Y-87750000D01*
X116103450Y-87753450D01*
X116100000Y-87766326D01*
X116100000Y-89444518D01*
X116100353Y-89451114D01*
X116105573Y-89499667D01*
X116109111Y-89514641D01*
X116153547Y-89633777D01*
X116161962Y-89649189D01*
X116237498Y-89750092D01*
X116249907Y-89762501D01*
X116350810Y-89838037D01*
X116366222Y-89846452D01*
X116485358Y-89890888D01*
X116500332Y-89894426D01*
X116548885Y-89899646D01*
X116555482Y-89900000D01*
X117992191Y-89900000D01*
X118049640Y-89914111D01*
X118094014Y-89953232D01*
X118115213Y-90008459D01*
X118108414Y-90067223D01*
X118075163Y-90116150D01*
X118023028Y-90144104D01*
X117760518Y-90211504D01*
X117760511Y-90211506D01*
X117756738Y-90212475D01*
X117753120Y-90213907D01*
X117753109Y-90213911D01*
X117479526Y-90322230D01*
X117479515Y-90322234D01*
X117475896Y-90323668D01*
X117472491Y-90325539D01*
X117472478Y-90325546D01*
X117214612Y-90467310D01*
X117214600Y-90467317D01*
X117211205Y-90469184D01*
X117208061Y-90471467D01*
X117208055Y-90471472D01*
X116969994Y-90644432D01*
X116969983Y-90644440D01*
X116966838Y-90646726D01*
X116964003Y-90649387D01*
X116963996Y-90649394D01*
X116749488Y-90850831D01*
X116749481Y-90850838D01*
X116746651Y-90853496D01*
X116744176Y-90856487D01*
X116744172Y-90856492D01*
X116556598Y-91083229D01*
X116556588Y-91083241D01*
X116554115Y-91086232D01*
X116552033Y-91089511D01*
X116552024Y-91089525D01*
X116394352Y-91337977D01*
X116394345Y-91337988D01*
X116392267Y-91341264D01*
X116390614Y-91344774D01*
X116390611Y-91344782D01*
X116269774Y-91601575D01*
X116263659Y-91614570D01*
X116262457Y-91618267D01*
X116262455Y-91618274D01*
X116171524Y-91898130D01*
X116170319Y-91901840D01*
X116169590Y-91905660D01*
X116169588Y-91905669D01*
X116114449Y-92194716D01*
X116114446Y-92194732D01*
X116113720Y-92198543D01*
X116113475Y-92202434D01*
X116113475Y-92202436D01*
X116103880Y-92354943D01*
X116094754Y-92500000D01*
X114668962Y-92500000D01*
X114642176Y-92469457D01*
X114628165Y-92412200D01*
X114642176Y-92354943D01*
X114681042Y-92310625D01*
X114862161Y-92183804D01*
X114862161Y-92183803D01*
X114866601Y-92180695D01*
X115033695Y-92013601D01*
X115169235Y-91820030D01*
X115269103Y-91605863D01*
X115330263Y-91377608D01*
X115350859Y-91142200D01*
X115330263Y-90906792D01*
X115269103Y-90678537D01*
X115169235Y-90464371D01*
X115033695Y-90270799D01*
X114866601Y-90103705D01*
X114862168Y-90100601D01*
X114862161Y-90100595D01*
X114681042Y-89973775D01*
X114642176Y-89929457D01*
X114628165Y-89872200D01*
X114642176Y-89814943D01*
X114681042Y-89770625D01*
X114862161Y-89643804D01*
X114862161Y-89643803D01*
X114866601Y-89640695D01*
X115033695Y-89473601D01*
X115169235Y-89280030D01*
X115269103Y-89065863D01*
X115330263Y-88837608D01*
X115350859Y-88602200D01*
X115330263Y-88366792D01*
X115269103Y-88138537D01*
X115169235Y-87924371D01*
X115033695Y-87730799D01*
X114866601Y-87563705D01*
X114862168Y-87560601D01*
X114862161Y-87560595D01*
X114681042Y-87433775D01*
X114642176Y-87389457D01*
X114628165Y-87332200D01*
X114642176Y-87274943D01*
X114678368Y-87233674D01*
X116100000Y-87233674D01*
X116103450Y-87246549D01*
X116116326Y-87250000D01*
X118233674Y-87250000D01*
X118246549Y-87246549D01*
X118250000Y-87233674D01*
X118750000Y-87233674D01*
X118753450Y-87246549D01*
X118766326Y-87250000D01*
X120883674Y-87250000D01*
X120896549Y-87246549D01*
X120900000Y-87233674D01*
X120900000Y-85555482D01*
X120899646Y-85548885D01*
X120894426Y-85500332D01*
X120890888Y-85485358D01*
X120846452Y-85366222D01*
X120838037Y-85350810D01*
X120762501Y-85249907D01*
X120750092Y-85237498D01*
X120649189Y-85161962D01*
X120633777Y-85153547D01*
X120514641Y-85109111D01*
X120499667Y-85105573D01*
X120451114Y-85100353D01*
X120444518Y-85100000D01*
X118766326Y-85100000D01*
X118753450Y-85103450D01*
X118750000Y-85116326D01*
X118750000Y-87233674D01*
X118250000Y-87233674D01*
X118250000Y-85116326D01*
X118246549Y-85103450D01*
X118233674Y-85100000D01*
X116555482Y-85100000D01*
X116548885Y-85100353D01*
X116500332Y-85105573D01*
X116485358Y-85109111D01*
X116366222Y-85153547D01*
X116350810Y-85161962D01*
X116249907Y-85237498D01*
X116237498Y-85249907D01*
X116161962Y-85350810D01*
X116153547Y-85366222D01*
X116109111Y-85485358D01*
X116105573Y-85500332D01*
X116100353Y-85548885D01*
X116100000Y-85555482D01*
X116100000Y-87233674D01*
X114678368Y-87233674D01*
X114681042Y-87230625D01*
X114862161Y-87103804D01*
X114862161Y-87103803D01*
X114866601Y-87100695D01*
X115033695Y-86933601D01*
X115169235Y-86740030D01*
X115269103Y-86525863D01*
X115330263Y-86297608D01*
X115350859Y-86062200D01*
X115330263Y-85826792D01*
X115269103Y-85598537D01*
X115169235Y-85384371D01*
X115033695Y-85190799D01*
X114866601Y-85023705D01*
X114862170Y-85020602D01*
X114862166Y-85020599D01*
X114677459Y-84891266D01*
X114677457Y-84891264D01*
X114673030Y-84888165D01*
X114668133Y-84885881D01*
X114668127Y-84885878D01*
X114463772Y-84790586D01*
X114463770Y-84790585D01*
X114458863Y-84788297D01*
X114453638Y-84786897D01*
X114453630Y-84786894D01*
X114235834Y-84728537D01*
X114235830Y-84728536D01*
X114230608Y-84727137D01*
X114225220Y-84726665D01*
X114225217Y-84726665D01*
X114000595Y-84707013D01*
X113995200Y-84706541D01*
X113989805Y-84707013D01*
X113765182Y-84726665D01*
X113765177Y-84726665D01*
X113759792Y-84727137D01*
X113754571Y-84728535D01*
X113754565Y-84728537D01*
X113536769Y-84786894D01*
X113536757Y-84786898D01*
X113531537Y-84788297D01*
X113526632Y-84790583D01*
X113526627Y-84790586D01*
X113322281Y-84885875D01*
X113322277Y-84885877D01*
X113317371Y-84888165D01*
X113312938Y-84891268D01*
X113312931Y-84891273D01*
X113128234Y-85020599D01*
X113128229Y-85020602D01*
X113123799Y-85023705D01*
X113119975Y-85027528D01*
X113119969Y-85027534D01*
X112960534Y-85186969D01*
X112960528Y-85186975D01*
X112956705Y-85190799D01*
X112953602Y-85195229D01*
X112953599Y-85195234D01*
X112824273Y-85379931D01*
X112824268Y-85379938D01*
X112821165Y-85384371D01*
X112818877Y-85389277D01*
X112818875Y-85389281D01*
X112723586Y-85593627D01*
X112723583Y-85593632D01*
X112721297Y-85598537D01*
X112719898Y-85603757D01*
X112719894Y-85603769D01*
X112661537Y-85821565D01*
X112661535Y-85821571D01*
X112660137Y-85826792D01*
X112659665Y-85832177D01*
X112659665Y-85832182D01*
X112641511Y-86039683D01*
X112639541Y-86062200D01*
X112640013Y-86067595D01*
X112657543Y-86267966D01*
X112660137Y-86297608D01*
X112661536Y-86302830D01*
X112661537Y-86302834D01*
X112719894Y-86520630D01*
X112719897Y-86520638D01*
X112721297Y-86525863D01*
X112723585Y-86530770D01*
X112723586Y-86530772D01*
X112818878Y-86735127D01*
X112818881Y-86735133D01*
X112821165Y-86740030D01*
X112824264Y-86744457D01*
X112824266Y-86744459D01*
X112953599Y-86929166D01*
X112953602Y-86929170D01*
X112956705Y-86933601D01*
X113123799Y-87100695D01*
X113128232Y-87103799D01*
X113128238Y-87103804D01*
X113309358Y-87230625D01*
X113348224Y-87274943D01*
X113362235Y-87332200D01*
X113348224Y-87389457D01*
X113309359Y-87433775D01*
X113128241Y-87560595D01*
X113123799Y-87563705D01*
X113119975Y-87567528D01*
X113119969Y-87567534D01*
X112960534Y-87726969D01*
X112960528Y-87726975D01*
X112956705Y-87730799D01*
X112953602Y-87735229D01*
X112953599Y-87735234D01*
X112824273Y-87919931D01*
X112824268Y-87919938D01*
X112821165Y-87924371D01*
X112818877Y-87929277D01*
X112818875Y-87929281D01*
X112723586Y-88133627D01*
X112723583Y-88133632D01*
X112721297Y-88138537D01*
X112719898Y-88143757D01*
X112719894Y-88143769D01*
X112661537Y-88361565D01*
X112661535Y-88361571D01*
X112660137Y-88366792D01*
X112659665Y-88372177D01*
X112659665Y-88372182D01*
X112649264Y-88491066D01*
X112639541Y-88602200D01*
X112660137Y-88837608D01*
X112661536Y-88842830D01*
X112661537Y-88842834D01*
X112719894Y-89060630D01*
X112719897Y-89060638D01*
X112721297Y-89065863D01*
X112723585Y-89070770D01*
X112723586Y-89070772D01*
X112818878Y-89275127D01*
X112818881Y-89275133D01*
X112821165Y-89280030D01*
X112824264Y-89284457D01*
X112824266Y-89284459D01*
X112953599Y-89469166D01*
X112953602Y-89469170D01*
X112956705Y-89473601D01*
X113123799Y-89640695D01*
X113128232Y-89643799D01*
X113128238Y-89643804D01*
X113309358Y-89770625D01*
X113348224Y-89814943D01*
X113362235Y-89872200D01*
X113348224Y-89929457D01*
X113309359Y-89973775D01*
X113128241Y-90100595D01*
X113123799Y-90103705D01*
X113119975Y-90107528D01*
X113119969Y-90107534D01*
X112960534Y-90266969D01*
X112960528Y-90266975D01*
X112956705Y-90270799D01*
X112953602Y-90275229D01*
X112953599Y-90275234D01*
X112824273Y-90459931D01*
X112824268Y-90459938D01*
X112821165Y-90464371D01*
X112818877Y-90469277D01*
X112818875Y-90469281D01*
X112723586Y-90673627D01*
X112723583Y-90673632D01*
X112721297Y-90678537D01*
X112719898Y-90683757D01*
X112719894Y-90683769D01*
X112661537Y-90901565D01*
X112661535Y-90901571D01*
X112660137Y-90906792D01*
X112659665Y-90912177D01*
X112659665Y-90912182D01*
X112640013Y-91136805D01*
X112639541Y-91142200D01*
X112640013Y-91147595D01*
X112658265Y-91356219D01*
X112660137Y-91377608D01*
X112661536Y-91382830D01*
X112661537Y-91382834D01*
X112719894Y-91600630D01*
X112719897Y-91600638D01*
X112721297Y-91605863D01*
X112723585Y-91610770D01*
X112723586Y-91610772D01*
X112818878Y-91815127D01*
X112818881Y-91815133D01*
X112821165Y-91820030D01*
X112824264Y-91824457D01*
X112824266Y-91824459D01*
X112953599Y-92009166D01*
X112953602Y-92009170D01*
X112956705Y-92013601D01*
X113123799Y-92180695D01*
X113128232Y-92183799D01*
X113128238Y-92183804D01*
X113309358Y-92310625D01*
X113348224Y-92354943D01*
X113362235Y-92412200D01*
X113348224Y-92469457D01*
X113309359Y-92513775D01*
X113128241Y-92640595D01*
X113123799Y-92643705D01*
X113119975Y-92647528D01*
X113119969Y-92647534D01*
X112960534Y-92806969D01*
X112960528Y-92806975D01*
X112956705Y-92810799D01*
X112953602Y-92815229D01*
X112953599Y-92815234D01*
X112824273Y-92999931D01*
X112824268Y-92999938D01*
X112821165Y-93004371D01*
X112818877Y-93009277D01*
X112818875Y-93009281D01*
X112723586Y-93213627D01*
X112723583Y-93213632D01*
X112721297Y-93218537D01*
X112719898Y-93223757D01*
X112719894Y-93223769D01*
X112661537Y-93441565D01*
X112661535Y-93441571D01*
X112660137Y-93446792D01*
X112639541Y-93682200D01*
X97623119Y-93682200D01*
X101088743Y-90216576D01*
X101145448Y-90184190D01*
X101210748Y-90185106D01*
X101266526Y-90219072D01*
X101297312Y-90276666D01*
X101322027Y-90384946D01*
X101324755Y-90393791D01*
X101417185Y-90629301D01*
X101421204Y-90637647D01*
X101547707Y-90856755D01*
X101552920Y-90864400D01*
X101710669Y-91062212D01*
X101716963Y-91068995D01*
X101902429Y-91241083D01*
X101909669Y-91246858D01*
X102118709Y-91389377D01*
X102126731Y-91394008D01*
X102354681Y-91503784D01*
X102363291Y-91507164D01*
X102605065Y-91581741D01*
X102614081Y-91583799D01*
X102736762Y-91602289D01*
X102747668Y-91601575D01*
X102750000Y-91590901D01*
X102750000Y-89746200D01*
X102766613Y-89684200D01*
X102812000Y-89638813D01*
X102874000Y-89622200D01*
X103126000Y-89622200D01*
X103188000Y-89638813D01*
X103233387Y-89684200D01*
X103250000Y-89746200D01*
X103250000Y-91590901D01*
X103252331Y-91601575D01*
X103263237Y-91602289D01*
X103385918Y-91583799D01*
X103394934Y-91581741D01*
X103636708Y-91507164D01*
X103645318Y-91503784D01*
X103873268Y-91394009D01*
X103881289Y-91389378D01*
X104094167Y-91244242D01*
X104094796Y-91245165D01*
X104141628Y-91223250D01*
X104199562Y-91225231D01*
X104250266Y-91253328D01*
X104282658Y-91301401D01*
X104306204Y-91364531D01*
X104392454Y-91479746D01*
X104507669Y-91565996D01*
X104642517Y-91616291D01*
X104702127Y-91622700D01*
X107297872Y-91622699D01*
X107357483Y-91616291D01*
X107492331Y-91565996D01*
X107607546Y-91479746D01*
X107693796Y-91364531D01*
X107744091Y-91229683D01*
X107750500Y-91170073D01*
X107750499Y-89587981D01*
X107759938Y-89540529D01*
X107786815Y-89500304D01*
X109663409Y-87623710D01*
X109665579Y-87621594D01*
X109729053Y-87561259D01*
X109762763Y-87512824D01*
X109768405Y-87505341D01*
X109805697Y-87459608D01*
X109819781Y-87432643D01*
X109827909Y-87419225D01*
X109845295Y-87394249D01*
X109868568Y-87340015D01*
X109872595Y-87331536D01*
X109899909Y-87279249D01*
X109908275Y-87250008D01*
X109913539Y-87235219D01*
X109925540Y-87207258D01*
X109937421Y-87149438D01*
X109939650Y-87140355D01*
X109955886Y-87083618D01*
X109958195Y-87053282D01*
X109960376Y-87037739D01*
X109965234Y-87014101D01*
X109965233Y-87014101D01*
X109966500Y-87007941D01*
X109966500Y-86948956D01*
X109966858Y-86939540D01*
X109967648Y-86929166D01*
X109971337Y-86880724D01*
X109967493Y-86850548D01*
X109966500Y-86834883D01*
X109966500Y-83326238D01*
X109966540Y-83323097D01*
X109968756Y-83235637D01*
X109958349Y-83177572D01*
X109957042Y-83168253D01*
X109953113Y-83129619D01*
X109951074Y-83109562D01*
X109941966Y-83080536D01*
X109938223Y-83065284D01*
X109933967Y-83041533D01*
X109933965Y-83041529D01*
X109932858Y-83035347D01*
X109929310Y-83026465D01*
X109910976Y-82980565D01*
X109907816Y-82971689D01*
X109905532Y-82964412D01*
X109890159Y-82915412D01*
X109875396Y-82888814D01*
X109868660Y-82874631D01*
X109859708Y-82852220D01*
X109857377Y-82846383D01*
X109824917Y-82797131D01*
X109820036Y-82789073D01*
X109794463Y-82743000D01*
X109794462Y-82742999D01*
X109791409Y-82737498D01*
X109771591Y-82714413D01*
X109762140Y-82701879D01*
X109745402Y-82676481D01*
X109703692Y-82634771D01*
X109697287Y-82627860D01*
X109662960Y-82587874D01*
X109658866Y-82583105D01*
X109653896Y-82579258D01*
X109653891Y-82579253D01*
X109634805Y-82564479D01*
X109623026Y-82554105D01*
X108464366Y-81395446D01*
X108462173Y-81393197D01*
X108406190Y-81334303D01*
X108406189Y-81334302D01*
X108401859Y-81329747D01*
X108378370Y-81313398D01*
X108353442Y-81296047D01*
X108345919Y-81290375D01*
X108305080Y-81257075D01*
X108305077Y-81257073D01*
X108300207Y-81253102D01*
X108273237Y-81239013D01*
X108259824Y-81230887D01*
X108234849Y-81213505D01*
X108180617Y-81190232D01*
X108172151Y-81186211D01*
X108119849Y-81158891D01*
X108090602Y-81150522D01*
X108075821Y-81145259D01*
X108053641Y-81135741D01*
X108053635Y-81135739D01*
X108047858Y-81133260D01*
X108041705Y-81131995D01*
X108041691Y-81131991D01*
X107990073Y-81121383D01*
X107980926Y-81119138D01*
X107930265Y-81104642D01*
X107930253Y-81104639D01*
X107924218Y-81102913D01*
X107917954Y-81102435D01*
X107917949Y-81102435D01*
X107893875Y-81100602D01*
X107878333Y-81098422D01*
X107854702Y-81093566D01*
X107854701Y-81093565D01*
X107848541Y-81092300D01*
X107842252Y-81092300D01*
X107789559Y-81092300D01*
X107780144Y-81091942D01*
X107727594Y-81087940D01*
X107727589Y-81087940D01*
X107721324Y-81087463D01*
X107715090Y-81088256D01*
X107715084Y-81088257D01*
X107691149Y-81091306D01*
X107675483Y-81092300D01*
X97658878Y-81092300D01*
X97655737Y-81092260D01*
X97574524Y-81090202D01*
X97574521Y-81090202D01*
X97568237Y-81090043D01*
X97555867Y-81092260D01*
X97510178Y-81100448D01*
X97500854Y-81101755D01*
X97448421Y-81107088D01*
X97448407Y-81107090D01*
X97442162Y-81107726D01*
X97436168Y-81109606D01*
X97436165Y-81109607D01*
X97413126Y-81116835D01*
X97397892Y-81120574D01*
X97385324Y-81122827D01*
X97367947Y-81125942D01*
X97362114Y-81128271D01*
X97362096Y-81128277D01*
X97313167Y-81147821D01*
X97304297Y-81150979D01*
X97254011Y-81166757D01*
X97253996Y-81166763D01*
X97248012Y-81168641D01*
X97242522Y-81171687D01*
X97242515Y-81171691D01*
X97221409Y-81183405D01*
X97207240Y-81190134D01*
X97184825Y-81199088D01*
X97184813Y-81199093D01*
X97178983Y-81201423D01*
X97173736Y-81204880D01*
X97173734Y-81204882D01*
X97129733Y-81233880D01*
X97121681Y-81238758D01*
X97075599Y-81264337D01*
X97075594Y-81264339D01*
X97070098Y-81267391D01*
X97065333Y-81271481D01*
X97065325Y-81271487D01*
X97047006Y-81287213D01*
X97034484Y-81296654D01*
X97014339Y-81309932D01*
X97014331Y-81309937D01*
X97009082Y-81313398D01*
X97004634Y-81317845D01*
X97004630Y-81317849D01*
X96967381Y-81355097D01*
X96960475Y-81361498D01*
X96920475Y-81395838D01*
X96920469Y-81395843D01*
X96915705Y-81399934D01*
X96911860Y-81404900D01*
X96911860Y-81404901D01*
X96897080Y-81423995D01*
X96886708Y-81435770D01*
X96187097Y-82135381D01*
X96146869Y-82162261D01*
X96099416Y-82171700D01*
X95320639Y-82171700D01*
X95320620Y-82171700D01*
X95317328Y-82171701D01*
X95314050Y-82172053D01*
X95314038Y-82172054D01*
X95265431Y-82177279D01*
X95265425Y-82177280D01*
X95257717Y-82178109D01*
X95250452Y-82180818D01*
X95250446Y-82180820D01*
X95131180Y-82225304D01*
X95131178Y-82225304D01*
X95122869Y-82228404D01*
X95115772Y-82233716D01*
X95115768Y-82233719D01*
X95014750Y-82309341D01*
X95014746Y-82309344D01*
X95007654Y-82314654D01*
X95002344Y-82321746D01*
X95002341Y-82321750D01*
X94926719Y-82422768D01*
X94926716Y-82422772D01*
X94921404Y-82429869D01*
X94918304Y-82438178D01*
X94918304Y-82438180D01*
X94873820Y-82557447D01*
X94873819Y-82557450D01*
X94871109Y-82564717D01*
X94870279Y-82572427D01*
X94870279Y-82572432D01*
X94865055Y-82621019D01*
X94865054Y-82621031D01*
X94864700Y-82624327D01*
X94864700Y-82627648D01*
X94864700Y-82627649D01*
X94864700Y-84416760D01*
X94864700Y-84416778D01*
X94864701Y-84420072D01*
X94865053Y-84423350D01*
X94865054Y-84423361D01*
X94870279Y-84471968D01*
X94870280Y-84471973D01*
X94871109Y-84479683D01*
X94873819Y-84486949D01*
X94873820Y-84486953D01*
X94907417Y-84577031D01*
X94921404Y-84614531D01*
X94926718Y-84621630D01*
X94926719Y-84621631D01*
X94992123Y-84709000D01*
X95007654Y-84729746D01*
X95122869Y-84815996D01*
X95232605Y-84856925D01*
X95254282Y-84865010D01*
X95304662Y-84899989D01*
X95332115Y-84954833D01*
X95329926Y-85016126D01*
X95298631Y-85068872D01*
X95176705Y-85190799D01*
X95173602Y-85195229D01*
X95173599Y-85195234D01*
X95044273Y-85379931D01*
X95044268Y-85379938D01*
X95041165Y-85384371D01*
X95038877Y-85389277D01*
X95038875Y-85389281D01*
X94943586Y-85593627D01*
X94943583Y-85593632D01*
X94941297Y-85598537D01*
X94939898Y-85603757D01*
X94939894Y-85603769D01*
X94881537Y-85821565D01*
X94881535Y-85821571D01*
X94880137Y-85826792D01*
X94879665Y-85832177D01*
X94879665Y-85832182D01*
X94861511Y-86039683D01*
X94859541Y-86062200D01*
X94860013Y-86067595D01*
X94877543Y-86267966D01*
X94880137Y-86297608D01*
X94881536Y-86302830D01*
X94881537Y-86302834D01*
X94939894Y-86520630D01*
X94939897Y-86520638D01*
X94941297Y-86525863D01*
X94943585Y-86530770D01*
X94943586Y-86530772D01*
X95038878Y-86735127D01*
X95038881Y-86735133D01*
X95041165Y-86740030D01*
X95044264Y-86744457D01*
X95044266Y-86744459D01*
X95173599Y-86929166D01*
X95173602Y-86929170D01*
X95176705Y-86933601D01*
X95343799Y-87100695D01*
X95348231Y-87103798D01*
X95348233Y-87103800D01*
X95529795Y-87230931D01*
X95568660Y-87275249D01*
X95582671Y-87332506D01*
X95568660Y-87389763D01*
X95529795Y-87434081D01*
X95348552Y-87560988D01*
X95340292Y-87567919D01*
X95180919Y-87727292D01*
X95173984Y-87735557D01*
X95044708Y-87920182D01*
X95039310Y-87929532D01*
X94944056Y-88133802D01*
X94940368Y-88143936D01*
X94888256Y-88338419D01*
X94887888Y-88349648D01*
X94898831Y-88352200D01*
X97531569Y-88352200D01*
X97542511Y-88349648D01*
X97542143Y-88338419D01*
X97490031Y-88143936D01*
X97486343Y-88133802D01*
X97391089Y-87929532D01*
X97385691Y-87920182D01*
X97256415Y-87735557D01*
X97249480Y-87727292D01*
X97090109Y-87567921D01*
X97081843Y-87560984D01*
X96900605Y-87434080D01*
X96861740Y-87389762D01*
X96847729Y-87332505D01*
X96861740Y-87275248D01*
X96900606Y-87230930D01*
X97082161Y-87103804D01*
X97082161Y-87103803D01*
X97086601Y-87100695D01*
X97253695Y-86933601D01*
X97389235Y-86740030D01*
X97489103Y-86525863D01*
X97550263Y-86297608D01*
X97570859Y-86062200D01*
X97550263Y-85826792D01*
X97489103Y-85598537D01*
X97389235Y-85384371D01*
X97253695Y-85190799D01*
X97131769Y-85068873D01*
X97100473Y-85016127D01*
X97098284Y-84954834D01*
X97125737Y-84899989D01*
X97176116Y-84865010D01*
X97307531Y-84815996D01*
X97422746Y-84729746D01*
X97508996Y-84614531D01*
X97559291Y-84479683D01*
X97565700Y-84420073D01*
X97565699Y-83637981D01*
X97575138Y-83590529D01*
X97602018Y-83550301D01*
X98022701Y-83129619D01*
X98062929Y-83102739D01*
X98110382Y-83093300D01*
X107281017Y-83093300D01*
X107328470Y-83102739D01*
X107368698Y-83129619D01*
X107929181Y-83690101D01*
X107956061Y-83730329D01*
X107965500Y-83777782D01*
X107965500Y-86440417D01*
X107956061Y-86487870D01*
X107929181Y-86528098D01*
X106371898Y-88085381D01*
X106331670Y-88112261D01*
X106284217Y-88121700D01*
X105614632Y-88121700D01*
X105556110Y-88107021D01*
X105511443Y-88066461D01*
X105491206Y-88009621D01*
X105500191Y-87949959D01*
X105535351Y-87902830D01*
X105537519Y-87901402D01*
X105579243Y-87859675D01*
X105586112Y-87853308D01*
X105630895Y-87814866D01*
X105649524Y-87790798D01*
X105659884Y-87779035D01*
X106610390Y-86828528D01*
X106612560Y-86826412D01*
X106676053Y-86766059D01*
X106709752Y-86717641D01*
X106715428Y-86710113D01*
X106752698Y-86664407D01*
X106766782Y-86637444D01*
X106774919Y-86624013D01*
X106782919Y-86612519D01*
X106792295Y-86599049D01*
X106815568Y-86544815D01*
X106819598Y-86536331D01*
X106825067Y-86525863D01*
X106846909Y-86484049D01*
X106855278Y-86454797D01*
X106860538Y-86440023D01*
X106872540Y-86412058D01*
X106884416Y-86354262D01*
X106886649Y-86345162D01*
X106902887Y-86288418D01*
X106905197Y-86258077D01*
X106907378Y-86242528D01*
X106909613Y-86231654D01*
X106913500Y-86212741D01*
X106913500Y-86153759D01*
X106913858Y-86144344D01*
X106914423Y-86136926D01*
X106918337Y-86085524D01*
X106914493Y-86055348D01*
X106913500Y-86039683D01*
X106913500Y-85669758D01*
X106922939Y-85622305D01*
X106945100Y-85589138D01*
X106944189Y-85588373D01*
X106947662Y-85584233D01*
X106951495Y-85580401D01*
X107087035Y-85386830D01*
X107186903Y-85172663D01*
X107248063Y-84944408D01*
X107268659Y-84709000D01*
X107248063Y-84473592D01*
X107186903Y-84245337D01*
X107087035Y-84031171D01*
X106951495Y-83837599D01*
X106784401Y-83670505D01*
X106779970Y-83667402D01*
X106779966Y-83667399D01*
X106595259Y-83538066D01*
X106595257Y-83538064D01*
X106590830Y-83534965D01*
X106585933Y-83532681D01*
X106585927Y-83532678D01*
X106381572Y-83437386D01*
X106381570Y-83437385D01*
X106376663Y-83435097D01*
X106371438Y-83433697D01*
X106371430Y-83433694D01*
X106153634Y-83375337D01*
X106153630Y-83375336D01*
X106148408Y-83373937D01*
X106143020Y-83373465D01*
X106143017Y-83373465D01*
X105918395Y-83353813D01*
X105913000Y-83353341D01*
X105907605Y-83353813D01*
X105682982Y-83373465D01*
X105682977Y-83373465D01*
X105677592Y-83373937D01*
X105672371Y-83375335D01*
X105672365Y-83375337D01*
X105454569Y-83433694D01*
X105454557Y-83433698D01*
X105449337Y-83435097D01*
X105444432Y-83437383D01*
X105444427Y-83437386D01*
X105240081Y-83532675D01*
X105240077Y-83532677D01*
X105235171Y-83534965D01*
X105230738Y-83538068D01*
X105230731Y-83538073D01*
X105046034Y-83667399D01*
X105046029Y-83667402D01*
X105041599Y-83670505D01*
X105037775Y-83674328D01*
X105037775Y-83674329D01*
X104919673Y-83792431D01*
X104866926Y-83823726D01*
X104805633Y-83825915D01*
X104750789Y-83798462D01*
X104715810Y-83748082D01*
X104688304Y-83674336D01*
X104666796Y-83616669D01*
X104580546Y-83501454D01*
X104490030Y-83433694D01*
X104472431Y-83420519D01*
X104472430Y-83420518D01*
X104465331Y-83415204D01*
X104358442Y-83375337D01*
X104337752Y-83367620D01*
X104337750Y-83367619D01*
X104330483Y-83364909D01*
X104322770Y-83364079D01*
X104322767Y-83364079D01*
X104274180Y-83358855D01*
X104274169Y-83358854D01*
X104270873Y-83358500D01*
X104267550Y-83358500D01*
X102478439Y-83358500D01*
X102478420Y-83358500D01*
X102475128Y-83358501D01*
X102471850Y-83358853D01*
X102471838Y-83358854D01*
X102423231Y-83364079D01*
X102423225Y-83364080D01*
X102415517Y-83364909D01*
X102408252Y-83367618D01*
X102408246Y-83367620D01*
X102288980Y-83412104D01*
X102288978Y-83412104D01*
X102280669Y-83415204D01*
X102273572Y-83420516D01*
X102273568Y-83420519D01*
X102172550Y-83496141D01*
X102172546Y-83496144D01*
X102165454Y-83501454D01*
X102160144Y-83508546D01*
X102160141Y-83508550D01*
X102084519Y-83609568D01*
X102084516Y-83609572D01*
X102079204Y-83616669D01*
X102076104Y-83624978D01*
X102076104Y-83624980D01*
X102031620Y-83744247D01*
X102031619Y-83744250D01*
X102028909Y-83751517D01*
X102028079Y-83759227D01*
X102028079Y-83759232D01*
X102022855Y-83807819D01*
X102022854Y-83807831D01*
X102022500Y-83811127D01*
X102022500Y-83814448D01*
X102022500Y-83814449D01*
X102022500Y-85603560D01*
X102022500Y-85603578D01*
X102022501Y-85606872D01*
X102022853Y-85610150D01*
X102022854Y-85610161D01*
X102028079Y-85658768D01*
X102028080Y-85658773D01*
X102028909Y-85666483D01*
X102031619Y-85673749D01*
X102031620Y-85673753D01*
X102040134Y-85696579D01*
X102079204Y-85801331D01*
X102165454Y-85916546D01*
X102280669Y-86002796D01*
X102288980Y-86005896D01*
X102296762Y-86010145D01*
X102296285Y-86011018D01*
X102335222Y-86036934D01*
X102363495Y-86085986D01*
X102367016Y-86142492D01*
X102345052Y-86194675D01*
X102303888Y-86230181D01*
X102302783Y-86230623D01*
X102297539Y-86234078D01*
X102297533Y-86234082D01*
X102253523Y-86263086D01*
X102245473Y-86267963D01*
X102193898Y-86296591D01*
X102189129Y-86300684D01*
X102189126Y-86300687D01*
X102170814Y-86316407D01*
X102158287Y-86325852D01*
X102138131Y-86339136D01*
X102138119Y-86339145D01*
X102132881Y-86342598D01*
X102128439Y-86347039D01*
X102128435Y-86347043D01*
X102091174Y-86384303D01*
X102084268Y-86390704D01*
X102044273Y-86425040D01*
X102044269Y-86425043D01*
X102039505Y-86429134D01*
X102035660Y-86434100D01*
X102035660Y-86434101D01*
X102020880Y-86453194D01*
X102010508Y-86464969D01*
X97706025Y-90769453D01*
X97650437Y-90801547D01*
X97586250Y-90801547D01*
X97530663Y-90769453D01*
X97498569Y-90713865D01*
X97490505Y-90683769D01*
X97490504Y-90683767D01*
X97489103Y-90678537D01*
X97389235Y-90464371D01*
X97253695Y-90270799D01*
X97086601Y-90103705D01*
X97082170Y-90100602D01*
X97082166Y-90100599D01*
X96900605Y-89973469D01*
X96861740Y-89929151D01*
X96847729Y-89871894D01*
X96861740Y-89814637D01*
X96900606Y-89770319D01*
X97081838Y-89643419D01*
X97090109Y-89636478D01*
X97249478Y-89477109D01*
X97256415Y-89468843D01*
X97385698Y-89284208D01*
X97391086Y-89274876D01*
X97486343Y-89070597D01*
X97490031Y-89060463D01*
X97542143Y-88865980D01*
X97542511Y-88854751D01*
X97531569Y-88852200D01*
X94898831Y-88852200D01*
X94887888Y-88854751D01*
X94888256Y-88865980D01*
X94940368Y-89060463D01*
X94944058Y-89070602D01*
X95025655Y-89245587D01*
X95036349Y-89313103D01*
X95009639Y-89376027D01*
X94953643Y-89415235D01*
X94885379Y-89418813D01*
X94825592Y-89385672D01*
X93936818Y-88496898D01*
X93909938Y-88456670D01*
X93900499Y-88409217D01*
X93900499Y-85530439D01*
X93900499Y-85527128D01*
X93894091Y-85467517D01*
X93843796Y-85332669D01*
X93757546Y-85217454D01*
X93716831Y-85186975D01*
X93649431Y-85136519D01*
X93649430Y-85136518D01*
X93642331Y-85131204D01*
X93507483Y-85080909D01*
X93499770Y-85080079D01*
X93499767Y-85080079D01*
X93451180Y-85074855D01*
X93451169Y-85074854D01*
X93447873Y-85074500D01*
X93444550Y-85074500D01*
X89555439Y-85074500D01*
X89555420Y-85074500D01*
X89552128Y-85074501D01*
X89548850Y-85074853D01*
X89548838Y-85074854D01*
X89500231Y-85080079D01*
X89500225Y-85080080D01*
X89492517Y-85080909D01*
X89485252Y-85083618D01*
X89485246Y-85083620D01*
X89365980Y-85128104D01*
X89365978Y-85128104D01*
X89357669Y-85131204D01*
X89350572Y-85136516D01*
X89350568Y-85136519D01*
X89249550Y-85212141D01*
X89249546Y-85212144D01*
X89242454Y-85217454D01*
X89237144Y-85224546D01*
X89237141Y-85224550D01*
X89161519Y-85325568D01*
X89161516Y-85325572D01*
X89156204Y-85332669D01*
X89153104Y-85340978D01*
X89153104Y-85340980D01*
X89108620Y-85460247D01*
X89108619Y-85460250D01*
X89105909Y-85467517D01*
X89105079Y-85475227D01*
X89105079Y-85475232D01*
X89099855Y-85523819D01*
X89099854Y-85523831D01*
X89099500Y-85527127D01*
X89099500Y-85530448D01*
X89099500Y-85530449D01*
X89099500Y-89419560D01*
X89099500Y-89419578D01*
X89099501Y-89422872D01*
X89099853Y-89426150D01*
X89099854Y-89426161D01*
X89105079Y-89474768D01*
X89105080Y-89474773D01*
X89105909Y-89482483D01*
X89108619Y-89489749D01*
X89108620Y-89489753D01*
X89117903Y-89514641D01*
X89156204Y-89617331D01*
X89242454Y-89732546D01*
X89357669Y-89818796D01*
X89492517Y-89869091D01*
X89552127Y-89875500D01*
X90990247Y-89875499D01*
X91047694Y-89889610D01*
X91092067Y-89928730D01*
X91113267Y-89983958D01*
X91106468Y-90042722D01*
X91073217Y-90091649D01*
X91021083Y-90119603D01*
X90760514Y-90186505D01*
X90760506Y-90186507D01*
X90756738Y-90187475D01*
X90753120Y-90188907D01*
X90753109Y-90188911D01*
X90479526Y-90297230D01*
X90479515Y-90297234D01*
X90475896Y-90298668D01*
X90472491Y-90300539D01*
X90472478Y-90300546D01*
X90214612Y-90442310D01*
X90214600Y-90442317D01*
X90211205Y-90444184D01*
X90208061Y-90446467D01*
X90208055Y-90446472D01*
X89969994Y-90619432D01*
X89969983Y-90619440D01*
X89966838Y-90621726D01*
X89964003Y-90624387D01*
X89963996Y-90624394D01*
X89749488Y-90825831D01*
X89749481Y-90825838D01*
X89746651Y-90828496D01*
X89744176Y-90831487D01*
X89744172Y-90831492D01*
X89556598Y-91058229D01*
X89556588Y-91058241D01*
X89554115Y-91061232D01*
X89552033Y-91064511D01*
X89552024Y-91064525D01*
X89394352Y-91312977D01*
X89394345Y-91312988D01*
X89392267Y-91316264D01*
X89390614Y-91319774D01*
X89390611Y-91319782D01*
X89265315Y-91586050D01*
X89263659Y-91589570D01*
X89262457Y-91593267D01*
X89262455Y-91593274D01*
X89171524Y-91873130D01*
X89170319Y-91876840D01*
X89169590Y-91880660D01*
X89169588Y-91880669D01*
X89114449Y-92169716D01*
X89114446Y-92169732D01*
X89113720Y-92173543D01*
X89113475Y-92177434D01*
X89113475Y-92177436D01*
X89109489Y-92240790D01*
X89094754Y-92475000D01*
X86166469Y-92475000D01*
X86156213Y-92400928D01*
X86155858Y-92398124D01*
X86102439Y-91930847D01*
X86102189Y-91928418D01*
X86066266Y-91537879D01*
X86066036Y-91535007D01*
X86033947Y-91065886D01*
X86033805Y-91063397D01*
X86015822Y-90671576D01*
X86015729Y-90668862D01*
X86005026Y-90198818D01*
X86004995Y-90195997D01*
X86004995Y-89804003D01*
X86005027Y-89801181D01*
X86005377Y-89785814D01*
X86015729Y-89331132D01*
X86015822Y-89328428D01*
X86033805Y-88936592D01*
X86033946Y-88934127D01*
X86066039Y-88464951D01*
X86066268Y-88462095D01*
X86071132Y-88409217D01*
X86102191Y-88071562D01*
X86102437Y-88069170D01*
X86155861Y-87601854D01*
X86156210Y-87599093D01*
X86210000Y-87210610D01*
X86210354Y-87208246D01*
X86285008Y-86743744D01*
X86285473Y-86741058D01*
X86357011Y-86355486D01*
X86357467Y-86353166D01*
X86453195Y-85892501D01*
X86453799Y-85889762D01*
X86542921Y-85507953D01*
X86543473Y-85505694D01*
X86660066Y-85049875D01*
X86660831Y-85047027D01*
X86767350Y-84669753D01*
X86767967Y-84667652D01*
X86905233Y-84217453D01*
X86906124Y-84214657D01*
X87029795Y-83842760D01*
X87030493Y-83840732D01*
X87188166Y-83397081D01*
X87189169Y-83394369D01*
X87329711Y-83028663D01*
X87330532Y-83026590D01*
X87508249Y-82590540D01*
X87509396Y-82587826D01*
X87666529Y-82229010D01*
X87667380Y-82227119D01*
X87864828Y-81799461D01*
X87866153Y-81796688D01*
X88039441Y-81445715D01*
X88040401Y-81443819D01*
X88257191Y-81025432D01*
X88258645Y-81022715D01*
X88447773Y-80680182D01*
X88448776Y-80678406D01*
X88684492Y-80270134D01*
X88686077Y-80267471D01*
X88890608Y-79934137D01*
X88891698Y-79932399D01*
X89145808Y-79535189D01*
X89147538Y-79532563D01*
X89367077Y-79209042D01*
X89368195Y-79207428D01*
X89444026Y-79100000D01*
X114544341Y-79100000D01*
X114564937Y-79335408D01*
X114566336Y-79340630D01*
X114566337Y-79340634D01*
X114624694Y-79558430D01*
X114624697Y-79558438D01*
X114626097Y-79563663D01*
X114725965Y-79777829D01*
X114861505Y-79971401D01*
X115028599Y-80138495D01*
X115222171Y-80274035D01*
X115436337Y-80373903D01*
X115664592Y-80435063D01*
X115841034Y-80450500D01*
X115956258Y-80450500D01*
X115958966Y-80450500D01*
X116135408Y-80435063D01*
X116363663Y-80373903D01*
X116577829Y-80274035D01*
X116771401Y-80138495D01*
X116938495Y-79971401D01*
X117074035Y-79777830D01*
X117173903Y-79563663D01*
X117235063Y-79335408D01*
X117255659Y-79100000D01*
X117235063Y-78864592D01*
X117186572Y-78683619D01*
X117175305Y-78641569D01*
X117175304Y-78641567D01*
X117173903Y-78636337D01*
X117074035Y-78422171D01*
X116938495Y-78228599D01*
X116771401Y-78061505D01*
X116577829Y-77925965D01*
X116363663Y-77826097D01*
X116358438Y-77824697D01*
X116358430Y-77824694D01*
X116140634Y-77766337D01*
X116140630Y-77766336D01*
X116135408Y-77764937D01*
X116130020Y-77764465D01*
X116130017Y-77764465D01*
X115961664Y-77749736D01*
X115961662Y-77749735D01*
X115958966Y-77749500D01*
X115841034Y-77749500D01*
X115838338Y-77749735D01*
X115838335Y-77749736D01*
X115669982Y-77764465D01*
X115669977Y-77764465D01*
X115664592Y-77764937D01*
X115659371Y-77766335D01*
X115659365Y-77766337D01*
X115441569Y-77824694D01*
X115441557Y-77824698D01*
X115436337Y-77826097D01*
X115431432Y-77828383D01*
X115431427Y-77828386D01*
X115227081Y-77923675D01*
X115227077Y-77923677D01*
X115222171Y-77925965D01*
X115217738Y-77929068D01*
X115217731Y-77929073D01*
X115033034Y-78058399D01*
X115033029Y-78058402D01*
X115028599Y-78061505D01*
X115024775Y-78065328D01*
X115024769Y-78065334D01*
X114865336Y-78224767D01*
X114865330Y-78224773D01*
X114861505Y-78228599D01*
X114858406Y-78233023D01*
X114858399Y-78233033D01*
X114729066Y-78417740D01*
X114729061Y-78417747D01*
X114725965Y-78422170D01*
X114723683Y-78427061D01*
X114723678Y-78427072D01*
X114628386Y-78631427D01*
X114628383Y-78631432D01*
X114626097Y-78636337D01*
X114624698Y-78641557D01*
X114624694Y-78641569D01*
X114566337Y-78859365D01*
X114566335Y-78859371D01*
X114564937Y-78864592D01*
X114564465Y-78869977D01*
X114564465Y-78869982D01*
X114544813Y-79094605D01*
X114544341Y-79100000D01*
X89444026Y-79100000D01*
X89640237Y-78822032D01*
X89642115Y-78819447D01*
X89876079Y-78506568D01*
X89877270Y-78505005D01*
X90166764Y-78132143D01*
X90168749Y-78129658D01*
X90416663Y-77828016D01*
X90417834Y-77826616D01*
X90724209Y-77467069D01*
X90726349Y-77464628D01*
X90987546Y-77174985D01*
X90988873Y-77173538D01*
X91311438Y-76828155D01*
X91313746Y-76825754D01*
X91587806Y-76548533D01*
X91589088Y-76547258D01*
X91927228Y-76216730D01*
X91929725Y-76214359D01*
X92215945Y-75950236D01*
X92217181Y-75949114D01*
X92570339Y-75634029D01*
X92572933Y-75631781D01*
X92870778Y-75381212D01*
X92872047Y-75380163D01*
X93239385Y-75081311D01*
X93242076Y-75079186D01*
X93550821Y-74842746D01*
X93552109Y-74841776D01*
X93932976Y-74559726D01*
X93935863Y-74557654D01*
X94254552Y-74336016D01*
X94256137Y-74334930D01*
X94649670Y-74070357D01*
X94652665Y-74068408D01*
X94980979Y-73861740D01*
X94982429Y-73860843D01*
X95387973Y-73614226D01*
X95391078Y-73612402D01*
X95728185Y-73421194D01*
X95729483Y-73420471D01*
X96146375Y-73192270D01*
X96149559Y-73190591D01*
X96494584Y-73015290D01*
X96495984Y-73014591D01*
X96923222Y-72805410D01*
X96926542Y-72803849D01*
X97278795Y-72644751D01*
X97280109Y-72644169D01*
X97716922Y-72454434D01*
X97720382Y-72452996D01*
X98078992Y-72310441D01*
X98080353Y-72309910D01*
X98525894Y-72140046D01*
X98529375Y-72138782D01*
X98893572Y-72013016D01*
X98895039Y-72012520D01*
X99348320Y-71862955D01*
X99351894Y-71861839D01*
X99720900Y-71753071D01*
X99722318Y-71752664D01*
X100182516Y-71623722D01*
X100186291Y-71622730D01*
X100559227Y-71531158D01*
X100560539Y-71530845D01*
X101026831Y-71422820D01*
X101030686Y-71421994D01*
X101406732Y-71347754D01*
X101408083Y-71347496D01*
X101879390Y-71260699D01*
X101883373Y-71260033D01*
X102261687Y-71203223D01*
X102262940Y-71203043D01*
X102738574Y-71137668D01*
X102742538Y-71137191D01*
X103122316Y-71097862D01*
X103123409Y-71097755D01*
X103602387Y-71054018D01*
X103606489Y-71053713D01*
X103986824Y-71031885D01*
X103987810Y-71031835D01*
X104469207Y-71009901D01*
X104473214Y-71009787D01*
X104853119Y-71005430D01*
X104854539Y-71005423D01*
X105337000Y-71005423D01*
X105341262Y-71005495D01*
G37*
%TD.AperFunction*%
%TD*%
M02*
