%TF.GenerationSoftware,KiCad,Pcbnew,(7.0.0)*%
%TF.CreationDate,2023-11-14T12:36:05+01:00*%
%TF.ProjectId,Helios_PCB_female,48656c69-6f73-45f5-9043-425f66656d61,rev?*%
%TF.SameCoordinates,Original*%
%TF.FileFunction,Copper,L1,Top*%
%TF.FilePolarity,Positive*%
%FSLAX46Y46*%
G04 Gerber Fmt 4.6, Leading zero omitted, Abs format (unit mm)*
G04 Created by KiCad (PCBNEW (7.0.0)) date 2023-11-14 12:36:05*
%MOMM*%
%LPD*%
G01*
G04 APERTURE LIST*
%TA.AperFunction,ComponentPad*%
%ADD10R,3.800000X3.800000*%
%TD*%
%TA.AperFunction,ComponentPad*%
%ADD11C,3.800000*%
%TD*%
%TA.AperFunction,ComponentPad*%
%ADD12R,1.700000X1.700000*%
%TD*%
%TA.AperFunction,ComponentPad*%
%ADD13O,1.700000X1.700000*%
%TD*%
%TA.AperFunction,ComponentPad*%
%ADD14R,2.500000X2.500000*%
%TD*%
%TA.AperFunction,ComponentPad*%
%ADD15O,2.500000X2.500000*%
%TD*%
%TA.AperFunction,Conductor*%
%ADD16C,1.000000*%
%TD*%
G04 APERTURE END LIST*
D10*
%TO.P,J1,1,Pin_1*%
%TO.N,GND*%
X118499999Y-87499999D03*
D11*
%TO.P,J1,2,Pin_2*%
%TO.N,+5V*%
X118500000Y-92500000D03*
%TD*%
D10*
%TO.P,J3,1,Pin_1*%
%TO.N,SCL*%
X91499999Y-87474999D03*
D11*
%TO.P,J3,2,Pin_2*%
%TO.N,SDA*%
X91500000Y-92475000D03*
%TD*%
D12*
%TO.P,J4,1,Pin_1*%
%TO.N,SDA1*%
X103372999Y-84708999D03*
D13*
%TO.P,J4,2,Pin_2*%
%TO.N,SCL1*%
X105912999Y-84708999D03*
%TD*%
D12*
%TO.P,J7,1,Pin_1*%
%TO.N,SDA*%
X103304999Y-95059999D03*
D13*
%TO.P,J7,2,Pin_2*%
%TO.N,SCL*%
X105844999Y-95059999D03*
%TD*%
D12*
%TO.P,MPU1,1,VCC*%
%TO.N,+5V*%
X98379999Y-81105399D03*
D13*
%TO.P,MPU1,2,GND*%
%TO.N,GND*%
X98379999Y-83645399D03*
%TO.P,MPU1,3,SCL*%
%TO.N,SCL1*%
X98379999Y-86185399D03*
%TO.P,MPU1,4,SDA*%
%TO.N,SDA1*%
X98379999Y-88725399D03*
%TO.P,MPU1,5,XDA*%
%TO.N,unconnected-(MPU1-XDA-Pad5)*%
X98379999Y-91265399D03*
%TO.P,MPU1,6,XCL*%
%TO.N,unconnected-(MPU1-XCL-Pad6)*%
X98379999Y-93805399D03*
%TO.P,MPU1,7,AD0*%
%TO.N,unconnected-(MPU1-AD0-Pad7)*%
X98379999Y-96345399D03*
%TO.P,MPU1,8,INT*%
%TO.N,unconnected-(MPU1-INT-Pad8)*%
X98379999Y-98885399D03*
%TD*%
D14*
%TO.P,J2,1,Pin_1*%
%TO.N,+5V*%
X105999999Y-89872199D03*
D15*
%TO.P,J2,2,Pin_2*%
%TO.N,GND*%
X102999999Y-89872199D03*
%TD*%
D16*
%TO.N,+5V*%
X106005400Y-81105400D02*
X107900000Y-83000000D01*
X107900000Y-87972200D02*
X106000000Y-89872200D01*
X98380000Y-81105400D02*
X106005400Y-81105400D01*
X107900000Y-83000000D02*
X107900000Y-87972200D01*
%TO.N,SCL1*%
X105364081Y-86460000D02*
X98654600Y-86460000D01*
X105913000Y-85911081D02*
X105364081Y-86460000D01*
X105913000Y-84709000D02*
X105913000Y-85911081D01*
X98654600Y-86460000D02*
X98380000Y-86185400D01*
%TO.N,SCL*%
X100400000Y-101500000D02*
X97500000Y-101500000D01*
X95000000Y-99000000D02*
X95000000Y-90975000D01*
X105845000Y-96055000D02*
X100400000Y-101500000D01*
X95000000Y-90975000D02*
X91500000Y-87475000D01*
X105845000Y-95060000D02*
X105845000Y-96055000D01*
X97500000Y-101500000D02*
X95000000Y-99000000D01*
%TD*%
%TA.AperFunction,Conductor*%
%TO.N,GND*%
G36*
X105341262Y-71005495D02*
G01*
X105720209Y-71018535D01*
X105720928Y-71018564D01*
X106204192Y-71040583D01*
X106208458Y-71040851D01*
X106585290Y-71071160D01*
X106586156Y-71071235D01*
X107068956Y-71115321D01*
X107073151Y-71115778D01*
X107447100Y-71163193D01*
X107447805Y-71163286D01*
X107929344Y-71229472D01*
X107933527Y-71230122D01*
X108303578Y-71294400D01*
X108304591Y-71294582D01*
X108783611Y-71382799D01*
X108787850Y-71383658D01*
X109153329Y-71464561D01*
X109153900Y-71464690D01*
X109629961Y-71574978D01*
X109634281Y-71576062D01*
X109994055Y-71673200D01*
X109994962Y-71673449D01*
X110466678Y-71805618D01*
X110470979Y-71806909D01*
X110824490Y-71919982D01*
X110825479Y-71920303D01*
X111292031Y-72074247D01*
X111296237Y-72075721D01*
X111642780Y-72204358D01*
X111643399Y-72204590D01*
X112104218Y-72380279D01*
X112108399Y-72381963D01*
X112447032Y-72525653D01*
X112447638Y-72525913D01*
X112901612Y-72723102D01*
X112905737Y-72724986D01*
X113070104Y-72803810D01*
X113235444Y-72883101D01*
X113236352Y-72883541D01*
X113395035Y-72961233D01*
X113682506Y-73101982D01*
X113686565Y-73104066D01*
X114007006Y-73276232D01*
X114007464Y-73276480D01*
X114445240Y-73516112D01*
X114449301Y-73518437D01*
X114759551Y-73703940D01*
X114759882Y-73704139D01*
X115188284Y-73964656D01*
X115192287Y-73967197D01*
X115478762Y-74156837D01*
X115491363Y-74165178D01*
X115492048Y-74165635D01*
X115745476Y-74336016D01*
X115910110Y-74446700D01*
X115914041Y-74449455D01*
X116201534Y-74659340D01*
X116201965Y-74659657D01*
X116447698Y-74841634D01*
X116609123Y-74961177D01*
X116612957Y-74964134D01*
X116888014Y-75184962D01*
X116888624Y-75185455D01*
X117283982Y-75507103D01*
X117287657Y-75510215D01*
X117549697Y-75741127D01*
X117550175Y-75741551D01*
X117933154Y-76083243D01*
X117936762Y-76086594D01*
X118185064Y-76326499D01*
X118185463Y-76326886D01*
X118555342Y-76688440D01*
X118558822Y-76691981D01*
X118792762Y-76939731D01*
X118793228Y-76940226D01*
X119012477Y-77174985D01*
X119149260Y-77321443D01*
X119152594Y-77325162D01*
X119372007Y-77579985D01*
X119713604Y-77980866D01*
X119716799Y-77984774D01*
X119920777Y-78244896D01*
X119920922Y-78245081D01*
X120247279Y-78665423D01*
X120250317Y-78669506D01*
X120438385Y-78933418D01*
X120438706Y-78933872D01*
X120749117Y-79373623D01*
X120751988Y-79377874D01*
X120923610Y-79643702D01*
X120923834Y-79644051D01*
X121012257Y-79782268D01*
X121218109Y-80104043D01*
X121220804Y-80108456D01*
X121375517Y-80374077D01*
X121375755Y-80374487D01*
X121653232Y-80855092D01*
X121655743Y-80859660D01*
X121793272Y-81122827D01*
X121793472Y-81123211D01*
X122053616Y-81625266D01*
X122055933Y-81629981D01*
X122175745Y-81887345D01*
X122175642Y-81887392D01*
X122175911Y-81887700D01*
X122418391Y-82412895D01*
X122420508Y-82417749D01*
X122522512Y-82666018D01*
X122522644Y-82666342D01*
X122746819Y-83216382D01*
X122748718Y-83221345D01*
X122796170Y-83353813D01*
X122832403Y-83454963D01*
X122832343Y-83454984D01*
X122832507Y-83455254D01*
X123038204Y-84034030D01*
X123039895Y-84039135D01*
X123105103Y-84251356D01*
X123105181Y-84251612D01*
X123291940Y-84864136D01*
X123293407Y-84869352D01*
X123339878Y-85049655D01*
X123339934Y-85049875D01*
X123507504Y-85704998D01*
X123508740Y-85710315D01*
X123536206Y-85841498D01*
X123536244Y-85841681D01*
X123684428Y-86554785D01*
X123685428Y-86560192D01*
X123693878Y-86612375D01*
X123693901Y-86612519D01*
X123822089Y-87410108D01*
X123822858Y-87415701D01*
X123920462Y-88269485D01*
X123920975Y-88275107D01*
X123979617Y-89132426D01*
X123979874Y-89138065D01*
X123999435Y-89997176D01*
X123999435Y-90002822D01*
X123979874Y-90861934D01*
X123979617Y-90867573D01*
X123920975Y-91724892D01*
X123920462Y-91730514D01*
X123822858Y-92584298D01*
X123822089Y-92589891D01*
X123693901Y-93387480D01*
X123693878Y-93387625D01*
X123685428Y-93439807D01*
X123684428Y-93445213D01*
X123536244Y-94158318D01*
X123536206Y-94158501D01*
X123508740Y-94289683D01*
X123507504Y-94295000D01*
X123339934Y-94950124D01*
X123339878Y-94950344D01*
X123293407Y-95130646D01*
X123291940Y-95135862D01*
X123105181Y-95748387D01*
X123105103Y-95748643D01*
X123039895Y-95960863D01*
X123038204Y-95965968D01*
X122832537Y-96544659D01*
X122832434Y-96544950D01*
X122748727Y-96778632D01*
X122746819Y-96783616D01*
X122522644Y-97333657D01*
X122522511Y-97333981D01*
X122420507Y-97582249D01*
X122418391Y-97587103D01*
X122175942Y-98112229D01*
X122175777Y-98112584D01*
X122055933Y-98370017D01*
X122053616Y-98374732D01*
X121793472Y-98876787D01*
X121793272Y-98877171D01*
X121655743Y-99140338D01*
X121653232Y-99144906D01*
X121375755Y-99625511D01*
X121375517Y-99625921D01*
X121220804Y-99891542D01*
X121218109Y-99895955D01*
X120923889Y-100355862D01*
X120923610Y-100356296D01*
X120751988Y-100622124D01*
X120749117Y-100626375D01*
X120438706Y-101066126D01*
X120438385Y-101066580D01*
X120250317Y-101330492D01*
X120247279Y-101334575D01*
X119920999Y-101754818D01*
X119920631Y-101755289D01*
X119716799Y-102015224D01*
X119713604Y-102019132D01*
X119372156Y-102419840D01*
X119371740Y-102420325D01*
X119152602Y-102674827D01*
X119149260Y-102678555D01*
X118793228Y-103059772D01*
X118792762Y-103060267D01*
X118558822Y-103308017D01*
X118555342Y-103311558D01*
X118185463Y-103673112D01*
X118184945Y-103673615D01*
X117936762Y-103913404D01*
X117933154Y-103916755D01*
X117550175Y-104258447D01*
X117549604Y-104258953D01*
X117287682Y-104489762D01*
X117283956Y-104492917D01*
X116888639Y-104814531D01*
X116888014Y-104815036D01*
X116612957Y-105035864D01*
X116609123Y-105038821D01*
X116202102Y-105340240D01*
X116201421Y-105340741D01*
X115914041Y-105550543D01*
X115910110Y-105553298D01*
X115492100Y-105834328D01*
X115491363Y-105834820D01*
X115192287Y-106032801D01*
X115188269Y-106035351D01*
X114760171Y-106295684D01*
X114759376Y-106296163D01*
X114449306Y-106481558D01*
X114445212Y-106483902D01*
X114007678Y-106723402D01*
X114006826Y-106723863D01*
X113686615Y-106895906D01*
X113682454Y-106898042D01*
X113236352Y-107116457D01*
X113235444Y-107116897D01*
X112905782Y-107274991D01*
X112901565Y-107276917D01*
X112447828Y-107474003D01*
X112446862Y-107474418D01*
X112108439Y-107618019D01*
X112104177Y-107619735D01*
X111643581Y-107795339D01*
X111642559Y-107795723D01*
X111296282Y-107924261D01*
X111291985Y-107925767D01*
X110825568Y-108079666D01*
X110824490Y-108080016D01*
X110470979Y-108193089D01*
X110466657Y-108194386D01*
X109995066Y-108326520D01*
X109993933Y-108326831D01*
X109634289Y-108423934D01*
X109629953Y-108425022D01*
X109154186Y-108535243D01*
X109153000Y-108535511D01*
X108787901Y-108616329D01*
X108783559Y-108617209D01*
X108304718Y-108705393D01*
X108303481Y-108705615D01*
X107933602Y-108769864D01*
X107929266Y-108770538D01*
X107448098Y-108836673D01*
X107446811Y-108836843D01*
X107073213Y-108884213D01*
X107068891Y-108884684D01*
X106586411Y-108928741D01*
X106585076Y-108928856D01*
X106208473Y-108959146D01*
X106204176Y-108959416D01*
X105721321Y-108981417D01*
X105719942Y-108981473D01*
X105375751Y-108993317D01*
X105341262Y-108994504D01*
X105336999Y-108994577D01*
X104854540Y-108994577D01*
X104853119Y-108994569D01*
X104837158Y-108994385D01*
X104473320Y-108990214D01*
X104469098Y-108990093D01*
X103988069Y-108968176D01*
X103986608Y-108968101D01*
X103606523Y-108946287D01*
X103602352Y-108945977D01*
X103123610Y-108902262D01*
X103122113Y-108902116D01*
X102742612Y-108862815D01*
X102738500Y-108862320D01*
X102263082Y-108796975D01*
X102261553Y-108796755D01*
X101883403Y-108739969D01*
X101879359Y-108739293D01*
X101408192Y-108652522D01*
X101406633Y-108652225D01*
X101030743Y-108578016D01*
X101026774Y-108577165D01*
X100560675Y-108469185D01*
X100559092Y-108468807D01*
X100186346Y-108377282D01*
X100182460Y-108376261D01*
X99722433Y-108247367D01*
X99720830Y-108246906D01*
X99351996Y-108138190D01*
X99348199Y-108137004D01*
X98895117Y-107987503D01*
X98893497Y-107986956D01*
X98529483Y-107861254D01*
X98525784Y-107859911D01*
X98080487Y-107690139D01*
X98078855Y-107689503D01*
X97720450Y-107547030D01*
X97716854Y-107545535D01*
X97280278Y-107355903D01*
X97278639Y-107355177D01*
X96926625Y-107196188D01*
X96923139Y-107194548D01*
X96496104Y-106985466D01*
X96494463Y-106984647D01*
X96149653Y-106809456D01*
X96146282Y-106807678D01*
X95729656Y-106579623D01*
X95728018Y-106578710D01*
X95391151Y-106387638D01*
X95387900Y-106385728D01*
X94982524Y-106139213D01*
X94980894Y-106138205D01*
X94652731Y-105931632D01*
X94649605Y-105929598D01*
X94256167Y-105665087D01*
X94254552Y-105663982D01*
X93935902Y-105442371D01*
X93932905Y-105440220D01*
X93552299Y-105158364D01*
X93550703Y-105157162D01*
X93242145Y-104920865D01*
X93239300Y-104918619D01*
X92872208Y-104619967D01*
X92870637Y-104618668D01*
X92572999Y-104368273D01*
X92570274Y-104365912D01*
X92217333Y-104051021D01*
X92215792Y-104049622D01*
X91929786Y-103785696D01*
X91927202Y-103783242D01*
X91589146Y-103452796D01*
X91587692Y-103451351D01*
X91313815Y-103174315D01*
X91311389Y-103171791D01*
X90988940Y-102826532D01*
X90987478Y-102824938D01*
X90726427Y-102535458D01*
X90724131Y-102532839D01*
X90417927Y-102173493D01*
X90416570Y-102171871D01*
X90168807Y-101870411D01*
X90166708Y-101867784D01*
X89877356Y-101495105D01*
X89875997Y-101493321D01*
X89642174Y-101180631D01*
X89640176Y-101177880D01*
X89561612Y-101066580D01*
X89368274Y-100792683D01*
X89366991Y-100790830D01*
X89284984Y-100669982D01*
X89147584Y-100467503D01*
X89145749Y-100464718D01*
X89124451Y-100431427D01*
X88891759Y-100067696D01*
X88890550Y-100065767D01*
X88686117Y-99732593D01*
X88684446Y-99729785D01*
X88682241Y-99725965D01*
X88448829Y-99321686D01*
X88447723Y-99319727D01*
X88258679Y-98977347D01*
X88257145Y-98974479D01*
X88040446Y-98556268D01*
X88039400Y-98554200D01*
X87866182Y-98203371D01*
X87864794Y-98200464D01*
X87824056Y-98112229D01*
X87667416Y-97772959D01*
X87666496Y-97770914D01*
X87509420Y-97412228D01*
X87508226Y-97409402D01*
X87330561Y-96973480D01*
X87329685Y-96971269D01*
X87189189Y-96605681D01*
X87188137Y-96602834D01*
X87030518Y-96159336D01*
X87029776Y-96157180D01*
X86906139Y-95785388D01*
X86905219Y-95782498D01*
X86767983Y-95332401D01*
X86767335Y-95330194D01*
X86660842Y-94953012D01*
X86660046Y-94950049D01*
X86647247Y-94900011D01*
X86543484Y-94494348D01*
X86542910Y-94492002D01*
X86453807Y-94110271D01*
X86453187Y-94107462D01*
X86357474Y-93646868D01*
X86357004Y-93644477D01*
X86285479Y-93258970D01*
X86285003Y-93256224D01*
X86210358Y-92791781D01*
X86209996Y-92789361D01*
X86166469Y-92475000D01*
X89094754Y-92475000D01*
X89113720Y-92776457D01*
X89114447Y-92780269D01*
X89114449Y-92780283D01*
X89169588Y-93069330D01*
X89170319Y-93073160D01*
X89171523Y-93076867D01*
X89171524Y-93076869D01*
X89233292Y-93266972D01*
X89263659Y-93360430D01*
X89392267Y-93633736D01*
X89394349Y-93637017D01*
X89394352Y-93637022D01*
X89552024Y-93885474D01*
X89552028Y-93885480D01*
X89554115Y-93888768D01*
X89556594Y-93891765D01*
X89556598Y-93891770D01*
X89626263Y-93975980D01*
X89746651Y-94121504D01*
X89966838Y-94328274D01*
X90211205Y-94505816D01*
X90475896Y-94651332D01*
X90756738Y-94762525D01*
X91049302Y-94837642D01*
X91348973Y-94875500D01*
X91647133Y-94875500D01*
X91651027Y-94875500D01*
X91950698Y-94837642D01*
X92243262Y-94762525D01*
X92524104Y-94651332D01*
X92788795Y-94505816D01*
X93033162Y-94328274D01*
X93253349Y-94121504D01*
X93445885Y-93888768D01*
X93607733Y-93633736D01*
X93736341Y-93360430D01*
X93757569Y-93295096D01*
X93796459Y-93237871D01*
X93859959Y-93210393D01*
X93928297Y-93221216D01*
X93980197Y-93266972D01*
X93999500Y-93333415D01*
X93999500Y-98985722D01*
X93999460Y-98988862D01*
X93997243Y-99076363D01*
X93998351Y-99082548D01*
X93998352Y-99082554D01*
X94007648Y-99134420D01*
X94008957Y-99143748D01*
X94014289Y-99196180D01*
X94014290Y-99196185D01*
X94014926Y-99202438D01*
X94016807Y-99208435D01*
X94016810Y-99208447D01*
X94024032Y-99231466D01*
X94027772Y-99246702D01*
X94032031Y-99270464D01*
X94032035Y-99270478D01*
X94033142Y-99276653D01*
X94035471Y-99282483D01*
X94055020Y-99331425D01*
X94058178Y-99340297D01*
X94073264Y-99388376D01*
X94077275Y-99445826D01*
X94054900Y-99498892D01*
X94010967Y-99536127D01*
X93954952Y-99549500D01*
X93941034Y-99549500D01*
X93938338Y-99549735D01*
X93938335Y-99549736D01*
X93769982Y-99564465D01*
X93769977Y-99564465D01*
X93764592Y-99564937D01*
X93759371Y-99566335D01*
X93759365Y-99566337D01*
X93541569Y-99624694D01*
X93541557Y-99624698D01*
X93536337Y-99626097D01*
X93531432Y-99628383D01*
X93531427Y-99628386D01*
X93327081Y-99723675D01*
X93327077Y-99723677D01*
X93322171Y-99725965D01*
X93317738Y-99729068D01*
X93317731Y-99729073D01*
X93133034Y-99858399D01*
X93133029Y-99858402D01*
X93128599Y-99861505D01*
X93124775Y-99865328D01*
X93124769Y-99865334D01*
X92965336Y-100024767D01*
X92965330Y-100024773D01*
X92961505Y-100028599D01*
X92958406Y-100033023D01*
X92958399Y-100033033D01*
X92829066Y-100217740D01*
X92829061Y-100217747D01*
X92825965Y-100222170D01*
X92823683Y-100227061D01*
X92823678Y-100227072D01*
X92728386Y-100431427D01*
X92728383Y-100431432D01*
X92726097Y-100436337D01*
X92724698Y-100441557D01*
X92724694Y-100441569D01*
X92666337Y-100659365D01*
X92666335Y-100659371D01*
X92664937Y-100664592D01*
X92644341Y-100900000D01*
X92644813Y-100905395D01*
X92657105Y-101045897D01*
X92664937Y-101135408D01*
X92666336Y-101140630D01*
X92666337Y-101140634D01*
X92724694Y-101358430D01*
X92724697Y-101358438D01*
X92726097Y-101363663D01*
X92825965Y-101577829D01*
X92961505Y-101771401D01*
X93128599Y-101938495D01*
X93322171Y-102074035D01*
X93536337Y-102173903D01*
X93764592Y-102235063D01*
X93941034Y-102250500D01*
X94056258Y-102250500D01*
X94058966Y-102250500D01*
X94235408Y-102235063D01*
X94463663Y-102173903D01*
X94677829Y-102074035D01*
X94871401Y-101938495D01*
X95038495Y-101771401D01*
X95174035Y-101577830D01*
X95273903Y-101363663D01*
X95335063Y-101135408D01*
X95342894Y-101045895D01*
X95368046Y-100981218D01*
X95424011Y-100940182D01*
X95493260Y-100935643D01*
X95554102Y-100969022D01*
X96339897Y-101754818D01*
X96782432Y-102197353D01*
X96784624Y-102199601D01*
X96844941Y-102263053D01*
X96850108Y-102266649D01*
X96850110Y-102266651D01*
X96893362Y-102296755D01*
X96900871Y-102302416D01*
X96946593Y-102339698D01*
X96952171Y-102342611D01*
X96952170Y-102342611D01*
X96973556Y-102353782D01*
X96986980Y-102361915D01*
X97011951Y-102379295D01*
X97066163Y-102402559D01*
X97074675Y-102406602D01*
X97111886Y-102426040D01*
X97126951Y-102433909D01*
X97156199Y-102442277D01*
X97170975Y-102447538D01*
X97198942Y-102459540D01*
X97256718Y-102471413D01*
X97265866Y-102473658D01*
X97322582Y-102489887D01*
X97352916Y-102492196D01*
X97368463Y-102494377D01*
X97392095Y-102499234D01*
X97392102Y-102499234D01*
X97398259Y-102500500D01*
X97457241Y-102500500D01*
X97466656Y-102500858D01*
X97525476Y-102505337D01*
X97555651Y-102501493D01*
X97571317Y-102500500D01*
X100385722Y-102500500D01*
X100388862Y-102500539D01*
X100476363Y-102502757D01*
X100534458Y-102492344D01*
X100543739Y-102491042D01*
X100602438Y-102485074D01*
X100631464Y-102475966D01*
X100646713Y-102472224D01*
X100676653Y-102466858D01*
X100731423Y-102444980D01*
X100740303Y-102441818D01*
X100796588Y-102424159D01*
X100823194Y-102409390D01*
X100837362Y-102402662D01*
X100865617Y-102391377D01*
X100914891Y-102358902D01*
X100922910Y-102354043D01*
X100974502Y-102325409D01*
X100985961Y-102315570D01*
X100997583Y-102305594D01*
X101010125Y-102296137D01*
X101035519Y-102279402D01*
X101077238Y-102237681D01*
X101084122Y-102231301D01*
X101128895Y-102192866D01*
X101147524Y-102168798D01*
X101157884Y-102157035D01*
X106542389Y-96772529D01*
X106544559Y-96770413D01*
X106608053Y-96710059D01*
X106641752Y-96661641D01*
X106647428Y-96654113D01*
X106684698Y-96608407D01*
X106698782Y-96581444D01*
X106706919Y-96568013D01*
X106720704Y-96548208D01*
X106720703Y-96548208D01*
X106724295Y-96543049D01*
X106747568Y-96488815D01*
X106751598Y-96480331D01*
X106761376Y-96461614D01*
X106778909Y-96428049D01*
X106787278Y-96398797D01*
X106792538Y-96384023D01*
X106804540Y-96356058D01*
X106816416Y-96298262D01*
X106818649Y-96289162D01*
X106834887Y-96232418D01*
X106837197Y-96202077D01*
X106839378Y-96186528D01*
X106845500Y-96156741D01*
X106845500Y-96097759D01*
X106845858Y-96088344D01*
X106846051Y-96085802D01*
X106850337Y-96029524D01*
X106849542Y-96023282D01*
X106849448Y-96019565D01*
X106856359Y-95975489D01*
X106878422Y-95936712D01*
X106879663Y-95935232D01*
X106883495Y-95931401D01*
X107019035Y-95737830D01*
X107118903Y-95523663D01*
X107180063Y-95295408D01*
X107200659Y-95060000D01*
X107180063Y-94824592D01*
X107118903Y-94596337D01*
X107019035Y-94382171D01*
X106883495Y-94188599D01*
X106716401Y-94021505D01*
X106711970Y-94018402D01*
X106711966Y-94018399D01*
X106527259Y-93889066D01*
X106527257Y-93889064D01*
X106522830Y-93885965D01*
X106517933Y-93883681D01*
X106517927Y-93883678D01*
X106313572Y-93788386D01*
X106313570Y-93788385D01*
X106308663Y-93786097D01*
X106303438Y-93784697D01*
X106303430Y-93784694D01*
X106085634Y-93726337D01*
X106085630Y-93726336D01*
X106080408Y-93724937D01*
X106075020Y-93724465D01*
X106075017Y-93724465D01*
X105850395Y-93704813D01*
X105845000Y-93704341D01*
X105839605Y-93704813D01*
X105614982Y-93724465D01*
X105614977Y-93724465D01*
X105609592Y-93724937D01*
X105604371Y-93726335D01*
X105604365Y-93726337D01*
X105386569Y-93784694D01*
X105386557Y-93784698D01*
X105381337Y-93786097D01*
X105376432Y-93788383D01*
X105376427Y-93788386D01*
X105172081Y-93883675D01*
X105172077Y-93883677D01*
X105167171Y-93885965D01*
X105162738Y-93889068D01*
X105162731Y-93889073D01*
X104978034Y-94018399D01*
X104978029Y-94018402D01*
X104973599Y-94021505D01*
X104969775Y-94025328D01*
X104969775Y-94025329D01*
X104851673Y-94143431D01*
X104798926Y-94174726D01*
X104737633Y-94176915D01*
X104682789Y-94149462D01*
X104647810Y-94099082D01*
X104620304Y-94025336D01*
X104598796Y-93967669D01*
X104512546Y-93852454D01*
X104422030Y-93784694D01*
X104404431Y-93771519D01*
X104404430Y-93771518D01*
X104397331Y-93766204D01*
X104290442Y-93726337D01*
X104269752Y-93718620D01*
X104269750Y-93718619D01*
X104262483Y-93715909D01*
X104254770Y-93715079D01*
X104254767Y-93715079D01*
X104206180Y-93709855D01*
X104206169Y-93709854D01*
X104202873Y-93709500D01*
X104199550Y-93709500D01*
X102410439Y-93709500D01*
X102410420Y-93709500D01*
X102407128Y-93709501D01*
X102403850Y-93709853D01*
X102403838Y-93709854D01*
X102355231Y-93715079D01*
X102355225Y-93715080D01*
X102347517Y-93715909D01*
X102340252Y-93718618D01*
X102340246Y-93718620D01*
X102220980Y-93763104D01*
X102220978Y-93763104D01*
X102212669Y-93766204D01*
X102205572Y-93771516D01*
X102205568Y-93771519D01*
X102104550Y-93847141D01*
X102104546Y-93847144D01*
X102097454Y-93852454D01*
X102092144Y-93859546D01*
X102092141Y-93859550D01*
X102016519Y-93960568D01*
X102016516Y-93960572D01*
X102011204Y-93967669D01*
X102008104Y-93975978D01*
X102008104Y-93975980D01*
X101963620Y-94095247D01*
X101963619Y-94095250D01*
X101960909Y-94102517D01*
X101960079Y-94110227D01*
X101960079Y-94110232D01*
X101954855Y-94158819D01*
X101954854Y-94158831D01*
X101954500Y-94162127D01*
X101954500Y-94165448D01*
X101954500Y-94165449D01*
X101954500Y-95954560D01*
X101954500Y-95954578D01*
X101954501Y-95957872D01*
X101954853Y-95961150D01*
X101954854Y-95961161D01*
X101960079Y-96009768D01*
X101960080Y-96009773D01*
X101960909Y-96017483D01*
X101963619Y-96024749D01*
X101963620Y-96024753D01*
X101987338Y-96088344D01*
X102011204Y-96152331D01*
X102097454Y-96267546D01*
X102212669Y-96353796D01*
X102347517Y-96404091D01*
X102407127Y-96410500D01*
X103775217Y-96410499D01*
X103831512Y-96424014D01*
X103875535Y-96461614D01*
X103897690Y-96515101D01*
X103893148Y-96572817D01*
X103862898Y-96622180D01*
X100021899Y-100463181D01*
X99981671Y-100490061D01*
X99934218Y-100499500D01*
X97965783Y-100499500D01*
X97918330Y-100490061D01*
X97878102Y-100463181D01*
X97772570Y-100357649D01*
X97739428Y-100297859D01*
X97743009Y-100229592D01*
X97782222Y-100173596D01*
X97845151Y-100146891D01*
X97905852Y-100156511D01*
X97906343Y-100155163D01*
X97911427Y-100157013D01*
X97916337Y-100159303D01*
X98144592Y-100220463D01*
X98380000Y-100241059D01*
X98615408Y-100220463D01*
X98843663Y-100159303D01*
X99057830Y-100059435D01*
X99251401Y-99923895D01*
X99418495Y-99756801D01*
X99554035Y-99563230D01*
X99653903Y-99349063D01*
X99715063Y-99120808D01*
X99735659Y-98885400D01*
X99715063Y-98649992D01*
X99653903Y-98421737D01*
X99554035Y-98207571D01*
X99418495Y-98013999D01*
X99251401Y-97846905D01*
X99246968Y-97843801D01*
X99246961Y-97843795D01*
X99065842Y-97716975D01*
X99026976Y-97672657D01*
X99012965Y-97615400D01*
X99026976Y-97558143D01*
X99065842Y-97513825D01*
X99246961Y-97387004D01*
X99246961Y-97387003D01*
X99251401Y-97383895D01*
X99418495Y-97216801D01*
X99554035Y-97023230D01*
X99653903Y-96809063D01*
X99715063Y-96580808D01*
X99735659Y-96345400D01*
X99715063Y-96109992D01*
X99653903Y-95881737D01*
X99554035Y-95667571D01*
X99418495Y-95473999D01*
X99251401Y-95306905D01*
X99246970Y-95303802D01*
X99246966Y-95303799D01*
X99065841Y-95176974D01*
X99026976Y-95132656D01*
X99012965Y-95075399D01*
X99026976Y-95018142D01*
X99065839Y-94973826D01*
X99251401Y-94843895D01*
X99418495Y-94676801D01*
X99554035Y-94483230D01*
X99653903Y-94269063D01*
X99715063Y-94040808D01*
X99735659Y-93805400D01*
X99715063Y-93569992D01*
X99653903Y-93341737D01*
X99554035Y-93127571D01*
X99418495Y-92933999D01*
X99251401Y-92766905D01*
X99246968Y-92763801D01*
X99246961Y-92763795D01*
X99065842Y-92636975D01*
X99026976Y-92592657D01*
X99012965Y-92535400D01*
X99021628Y-92500000D01*
X116094754Y-92500000D01*
X116113720Y-92801457D01*
X116114447Y-92805269D01*
X116114449Y-92805283D01*
X116169588Y-93094330D01*
X116170319Y-93098160D01*
X116171523Y-93101867D01*
X116171524Y-93101869D01*
X116225169Y-93266972D01*
X116263659Y-93385430D01*
X116392267Y-93658736D01*
X116394349Y-93662017D01*
X116394352Y-93662022D01*
X116552024Y-93910474D01*
X116552028Y-93910480D01*
X116554115Y-93913768D01*
X116746651Y-94146504D01*
X116966838Y-94353274D01*
X117211205Y-94530816D01*
X117214612Y-94532689D01*
X117427003Y-94649453D01*
X117475896Y-94676332D01*
X117756738Y-94787525D01*
X118049302Y-94862642D01*
X118348973Y-94900500D01*
X118647133Y-94900500D01*
X118651027Y-94900500D01*
X118950698Y-94862642D01*
X119243262Y-94787525D01*
X119524104Y-94676332D01*
X119788795Y-94530816D01*
X120033162Y-94353274D01*
X120253349Y-94146504D01*
X120445885Y-93913768D01*
X120607733Y-93658736D01*
X120736341Y-93385430D01*
X120829681Y-93098160D01*
X120886280Y-92801457D01*
X120905246Y-92500000D01*
X120886280Y-92198543D01*
X120829681Y-91901840D01*
X120736341Y-91614570D01*
X120607733Y-91341264D01*
X120499092Y-91170073D01*
X120447975Y-91089525D01*
X120447973Y-91089522D01*
X120445885Y-91086232D01*
X120431625Y-91068995D01*
X120285575Y-90892451D01*
X120253349Y-90853496D01*
X120033162Y-90646726D01*
X120028811Y-90643565D01*
X119791944Y-90471472D01*
X119791945Y-90471472D01*
X119788795Y-90469184D01*
X119785391Y-90467313D01*
X119785387Y-90467310D01*
X119527521Y-90325546D01*
X119527514Y-90325542D01*
X119524104Y-90323668D01*
X119520478Y-90322232D01*
X119520473Y-90322230D01*
X119246890Y-90213911D01*
X119246884Y-90213909D01*
X119243262Y-90212475D01*
X119239484Y-90211505D01*
X119239481Y-90211504D01*
X118976972Y-90144104D01*
X118924837Y-90116150D01*
X118891586Y-90067223D01*
X118884787Y-90008459D01*
X118905986Y-89953232D01*
X118950360Y-89914111D01*
X119007809Y-89900000D01*
X120444518Y-89900000D01*
X120451114Y-89899646D01*
X120499667Y-89894426D01*
X120514641Y-89890888D01*
X120633777Y-89846452D01*
X120649189Y-89838037D01*
X120750092Y-89762501D01*
X120762501Y-89750092D01*
X120838037Y-89649189D01*
X120846452Y-89633777D01*
X120890888Y-89514641D01*
X120894426Y-89499667D01*
X120899646Y-89451114D01*
X120900000Y-89444518D01*
X120900000Y-87766326D01*
X120896549Y-87753450D01*
X120883674Y-87750000D01*
X116116326Y-87750000D01*
X116103450Y-87753450D01*
X116100000Y-87766326D01*
X116100000Y-89444518D01*
X116100353Y-89451114D01*
X116105573Y-89499667D01*
X116109111Y-89514641D01*
X116153547Y-89633777D01*
X116161962Y-89649189D01*
X116237498Y-89750092D01*
X116249907Y-89762501D01*
X116350810Y-89838037D01*
X116366222Y-89846452D01*
X116485358Y-89890888D01*
X116500332Y-89894426D01*
X116548885Y-89899646D01*
X116555482Y-89900000D01*
X117992191Y-89900000D01*
X118049640Y-89914111D01*
X118094014Y-89953232D01*
X118115213Y-90008459D01*
X118108414Y-90067223D01*
X118075163Y-90116150D01*
X118023028Y-90144104D01*
X117760518Y-90211504D01*
X117760511Y-90211506D01*
X117756738Y-90212475D01*
X117753120Y-90213907D01*
X117753109Y-90213911D01*
X117479526Y-90322230D01*
X117479515Y-90322234D01*
X117475896Y-90323668D01*
X117472491Y-90325539D01*
X117472478Y-90325546D01*
X117214612Y-90467310D01*
X117214600Y-90467317D01*
X117211205Y-90469184D01*
X117208061Y-90471467D01*
X117208055Y-90471472D01*
X116969994Y-90644432D01*
X116969983Y-90644440D01*
X116966838Y-90646726D01*
X116964003Y-90649387D01*
X116963996Y-90649394D01*
X116749488Y-90850831D01*
X116749481Y-90850838D01*
X116746651Y-90853496D01*
X116744176Y-90856487D01*
X116744172Y-90856492D01*
X116556598Y-91083229D01*
X116556588Y-91083241D01*
X116554115Y-91086232D01*
X116552033Y-91089511D01*
X116552024Y-91089525D01*
X116394352Y-91337977D01*
X116394345Y-91337988D01*
X116392267Y-91341264D01*
X116390614Y-91344774D01*
X116390611Y-91344782D01*
X116273680Y-91593274D01*
X116263659Y-91614570D01*
X116262457Y-91618267D01*
X116262455Y-91618274D01*
X116171524Y-91898130D01*
X116170319Y-91901840D01*
X116169590Y-91905660D01*
X116169588Y-91905669D01*
X116114449Y-92194716D01*
X116114446Y-92194732D01*
X116113720Y-92198543D01*
X116094754Y-92500000D01*
X99021628Y-92500000D01*
X99026976Y-92478143D01*
X99065842Y-92433825D01*
X99246961Y-92307004D01*
X99246961Y-92307003D01*
X99251401Y-92303895D01*
X99418495Y-92136801D01*
X99554035Y-91943230D01*
X99653903Y-91729063D01*
X99715063Y-91500808D01*
X99735659Y-91265400D01*
X99715063Y-91029992D01*
X99653903Y-90801737D01*
X99554035Y-90587571D01*
X99418495Y-90393999D01*
X99251401Y-90226905D01*
X99246968Y-90223801D01*
X99246961Y-90223795D01*
X99123128Y-90137087D01*
X101265546Y-90137087D01*
X101265725Y-90138276D01*
X101322026Y-90384943D01*
X101324755Y-90393791D01*
X101417185Y-90629301D01*
X101421204Y-90637647D01*
X101547707Y-90856755D01*
X101552920Y-90864400D01*
X101710669Y-91062212D01*
X101716963Y-91068995D01*
X101902429Y-91241083D01*
X101909669Y-91246858D01*
X102118709Y-91389377D01*
X102126731Y-91394008D01*
X102354681Y-91503784D01*
X102363291Y-91507164D01*
X102605065Y-91581741D01*
X102614081Y-91583799D01*
X102736762Y-91602289D01*
X102747668Y-91601575D01*
X102750000Y-91590901D01*
X102750000Y-90138526D01*
X102746549Y-90125650D01*
X102733674Y-90122200D01*
X101280938Y-90122200D01*
X101267809Y-90125893D01*
X101265546Y-90137087D01*
X99123128Y-90137087D01*
X99065842Y-90096975D01*
X99026976Y-90052657D01*
X99012965Y-89995400D01*
X99026976Y-89938143D01*
X99065842Y-89893825D01*
X99246961Y-89767004D01*
X99246961Y-89767003D01*
X99251401Y-89763895D01*
X99407984Y-89607312D01*
X101265546Y-89607312D01*
X101267809Y-89618506D01*
X101280938Y-89622200D01*
X102733674Y-89622200D01*
X102746549Y-89618749D01*
X102750000Y-89605874D01*
X102750000Y-88153499D01*
X102747668Y-88142824D01*
X102736762Y-88142110D01*
X102614081Y-88160600D01*
X102605065Y-88162658D01*
X102363291Y-88237235D01*
X102354681Y-88240615D01*
X102126731Y-88350391D01*
X102118709Y-88355022D01*
X101909669Y-88497541D01*
X101902429Y-88503316D01*
X101716963Y-88675404D01*
X101710669Y-88682187D01*
X101552920Y-88879999D01*
X101547707Y-88887644D01*
X101421204Y-89106752D01*
X101417185Y-89115098D01*
X101324755Y-89350608D01*
X101322026Y-89359456D01*
X101265725Y-89606123D01*
X101265546Y-89607312D01*
X99407984Y-89607312D01*
X99418495Y-89596801D01*
X99554035Y-89403230D01*
X99653903Y-89189063D01*
X99715063Y-88960808D01*
X99735659Y-88725400D01*
X99715063Y-88489992D01*
X99658539Y-88279038D01*
X99655305Y-88266969D01*
X99655304Y-88266967D01*
X99653903Y-88261737D01*
X99554035Y-88047571D01*
X99418495Y-87853999D01*
X99251401Y-87686905D01*
X99246966Y-87683799D01*
X99242816Y-87680317D01*
X99244044Y-87678853D01*
X99209883Y-87638845D01*
X99197510Y-87578000D01*
X99216186Y-87518784D01*
X99261227Y-87476045D01*
X99321340Y-87460500D01*
X105349803Y-87460500D01*
X105352943Y-87460539D01*
X105440444Y-87462757D01*
X105498539Y-87452344D01*
X105507820Y-87451042D01*
X105566519Y-87445074D01*
X105595545Y-87435966D01*
X105610794Y-87432224D01*
X105640734Y-87426858D01*
X105695504Y-87404980D01*
X105704384Y-87401818D01*
X105760669Y-87384159D01*
X105787275Y-87369390D01*
X105801443Y-87362662D01*
X105829698Y-87351377D01*
X105878972Y-87318902D01*
X105886991Y-87314043D01*
X105938583Y-87285409D01*
X105950042Y-87275570D01*
X105961664Y-87265594D01*
X105974206Y-87256137D01*
X105999600Y-87239402D01*
X106041319Y-87197681D01*
X106048203Y-87191301D01*
X106092976Y-87152866D01*
X106111601Y-87128802D01*
X106121960Y-87117040D01*
X106610409Y-86628591D01*
X106612579Y-86626475D01*
X106676053Y-86566140D01*
X106679642Y-86560982D01*
X106681416Y-86558917D01*
X106730088Y-86524304D01*
X106789296Y-86516459D01*
X106845303Y-86537202D01*
X106885117Y-86581722D01*
X106899500Y-86639689D01*
X106899500Y-87506418D01*
X106890061Y-87553871D01*
X106863181Y-87594099D01*
X106371898Y-88085381D01*
X106331670Y-88112261D01*
X106284217Y-88121700D01*
X104705439Y-88121700D01*
X104705420Y-88121700D01*
X104702128Y-88121701D01*
X104698850Y-88122053D01*
X104698838Y-88122054D01*
X104650231Y-88127279D01*
X104650225Y-88127280D01*
X104642517Y-88128109D01*
X104635252Y-88130818D01*
X104635246Y-88130820D01*
X104515980Y-88175304D01*
X104515978Y-88175304D01*
X104507669Y-88178404D01*
X104500572Y-88183716D01*
X104500568Y-88183719D01*
X104399550Y-88259341D01*
X104399546Y-88259344D01*
X104392454Y-88264654D01*
X104387144Y-88271746D01*
X104387141Y-88271750D01*
X104311519Y-88372768D01*
X104311516Y-88372772D01*
X104306204Y-88379869D01*
X104303106Y-88388174D01*
X104303101Y-88388184D01*
X104282657Y-88442998D01*
X104250271Y-88491066D01*
X104199577Y-88519164D01*
X104141651Y-88521154D01*
X104094793Y-88499238D01*
X104094167Y-88500158D01*
X103881289Y-88355021D01*
X103873268Y-88350390D01*
X103645318Y-88240615D01*
X103636708Y-88237235D01*
X103394934Y-88162658D01*
X103385918Y-88160600D01*
X103263237Y-88142110D01*
X103252331Y-88142824D01*
X103250000Y-88153499D01*
X103250000Y-91590901D01*
X103252331Y-91601575D01*
X103263237Y-91602289D01*
X103385918Y-91583799D01*
X103394934Y-91581741D01*
X103636708Y-91507164D01*
X103645318Y-91503784D01*
X103873268Y-91394009D01*
X103881289Y-91389378D01*
X104094167Y-91244242D01*
X104094796Y-91245165D01*
X104141628Y-91223250D01*
X104199562Y-91225231D01*
X104250266Y-91253328D01*
X104282658Y-91301401D01*
X104306204Y-91364531D01*
X104392454Y-91479746D01*
X104507669Y-91565996D01*
X104642517Y-91616291D01*
X104702127Y-91622700D01*
X107297872Y-91622699D01*
X107357483Y-91616291D01*
X107492331Y-91565996D01*
X107607546Y-91479746D01*
X107693796Y-91364531D01*
X107744091Y-91229683D01*
X107750500Y-91170073D01*
X107750499Y-89587981D01*
X107759938Y-89540529D01*
X107786815Y-89500304D01*
X108597409Y-88689710D01*
X108599579Y-88687594D01*
X108663053Y-88627259D01*
X108696748Y-88578848D01*
X108702422Y-88571323D01*
X108735721Y-88530485D01*
X108735723Y-88530481D01*
X108739698Y-88525607D01*
X108745386Y-88514717D01*
X108753782Y-88498644D01*
X108761919Y-88485213D01*
X108775704Y-88465408D01*
X108775703Y-88465408D01*
X108779295Y-88460249D01*
X108802568Y-88406015D01*
X108806598Y-88397531D01*
X108815825Y-88379869D01*
X108833909Y-88345249D01*
X108842278Y-88315997D01*
X108847538Y-88301223D01*
X108859540Y-88273258D01*
X108871416Y-88215462D01*
X108873649Y-88206362D01*
X108889887Y-88149618D01*
X108892197Y-88119277D01*
X108894378Y-88103728D01*
X108900500Y-88073941D01*
X108900500Y-88014958D01*
X108900858Y-88005543D01*
X108901051Y-88003001D01*
X108905337Y-87946723D01*
X108901493Y-87916547D01*
X108900500Y-87900882D01*
X108900500Y-87233674D01*
X116100000Y-87233674D01*
X116103450Y-87246549D01*
X116116326Y-87250000D01*
X118233674Y-87250000D01*
X118246549Y-87246549D01*
X118250000Y-87233674D01*
X118750000Y-87233674D01*
X118753450Y-87246549D01*
X118766326Y-87250000D01*
X120883674Y-87250000D01*
X120896549Y-87246549D01*
X120900000Y-87233674D01*
X120900000Y-85555482D01*
X120899646Y-85548885D01*
X120894426Y-85500332D01*
X120890888Y-85485358D01*
X120846452Y-85366222D01*
X120838037Y-85350810D01*
X120762501Y-85249907D01*
X120750092Y-85237498D01*
X120649189Y-85161962D01*
X120633777Y-85153547D01*
X120514641Y-85109111D01*
X120499667Y-85105573D01*
X120451114Y-85100353D01*
X120444518Y-85100000D01*
X118766326Y-85100000D01*
X118753450Y-85103450D01*
X118750000Y-85116326D01*
X118750000Y-87233674D01*
X118250000Y-87233674D01*
X118250000Y-85116326D01*
X118246549Y-85103450D01*
X118233674Y-85100000D01*
X116555482Y-85100000D01*
X116548885Y-85100353D01*
X116500332Y-85105573D01*
X116485358Y-85109111D01*
X116366222Y-85153547D01*
X116350810Y-85161962D01*
X116249907Y-85237498D01*
X116237498Y-85249907D01*
X116161962Y-85350810D01*
X116153547Y-85366222D01*
X116109111Y-85485358D01*
X116105573Y-85500332D01*
X116100353Y-85548885D01*
X116100000Y-85555482D01*
X116100000Y-87233674D01*
X108900500Y-87233674D01*
X108900500Y-83014262D01*
X108900540Y-83011121D01*
X108901513Y-82972732D01*
X108902757Y-82923637D01*
X108892349Y-82865573D01*
X108891041Y-82856242D01*
X108885074Y-82797562D01*
X108875964Y-82768528D01*
X108872227Y-82753305D01*
X108866858Y-82723347D01*
X108864524Y-82717503D01*
X108844976Y-82668565D01*
X108841816Y-82659689D01*
X108839487Y-82652265D01*
X108824159Y-82603412D01*
X108817070Y-82590641D01*
X108809396Y-82576814D01*
X108802660Y-82562631D01*
X108793708Y-82540220D01*
X108791377Y-82534383D01*
X108758917Y-82485131D01*
X108754036Y-82477073D01*
X108728463Y-82431000D01*
X108728462Y-82430999D01*
X108725409Y-82425498D01*
X108705591Y-82402413D01*
X108696140Y-82389879D01*
X108679402Y-82364481D01*
X108637691Y-82322770D01*
X108631287Y-82315860D01*
X108596960Y-82275874D01*
X108592866Y-82271105D01*
X108587896Y-82267258D01*
X108587891Y-82267253D01*
X108568805Y-82252479D01*
X108557026Y-82242105D01*
X106722966Y-80408046D01*
X106720773Y-80405797D01*
X106664790Y-80346903D01*
X106664789Y-80346902D01*
X106660459Y-80342347D01*
X106655297Y-80338754D01*
X106612042Y-80308647D01*
X106604519Y-80302975D01*
X106563680Y-80269675D01*
X106563677Y-80269673D01*
X106558807Y-80265702D01*
X106531837Y-80251613D01*
X106518424Y-80243487D01*
X106493449Y-80226105D01*
X106439217Y-80202832D01*
X106430751Y-80198811D01*
X106378449Y-80171491D01*
X106349202Y-80163122D01*
X106334421Y-80157859D01*
X106312241Y-80148341D01*
X106312235Y-80148339D01*
X106306458Y-80145860D01*
X106300305Y-80144595D01*
X106300291Y-80144591D01*
X106248673Y-80133983D01*
X106239526Y-80131738D01*
X106188865Y-80117242D01*
X106188853Y-80117239D01*
X106182818Y-80115513D01*
X106176554Y-80115035D01*
X106176549Y-80115035D01*
X106152475Y-80113202D01*
X106136933Y-80111022D01*
X106113302Y-80106166D01*
X106113301Y-80106165D01*
X106107141Y-80104900D01*
X106100852Y-80104900D01*
X106048159Y-80104900D01*
X106038744Y-80104542D01*
X105986194Y-80100540D01*
X105986189Y-80100540D01*
X105979924Y-80100063D01*
X105973690Y-80100856D01*
X105973684Y-80100857D01*
X105949749Y-80103906D01*
X105934083Y-80104900D01*
X99794142Y-80104900D01*
X99745330Y-80094888D01*
X99704399Y-80066470D01*
X99677960Y-80024234D01*
X99673796Y-80013069D01*
X99587546Y-79897854D01*
X99472331Y-79811604D01*
X99381778Y-79777830D01*
X99344752Y-79764020D01*
X99344750Y-79764019D01*
X99337483Y-79761309D01*
X99329770Y-79760479D01*
X99329767Y-79760479D01*
X99281180Y-79755255D01*
X99281169Y-79755254D01*
X99277873Y-79754900D01*
X99274550Y-79754900D01*
X97485439Y-79754900D01*
X97485420Y-79754900D01*
X97482128Y-79754901D01*
X97478850Y-79755253D01*
X97478838Y-79755254D01*
X97430231Y-79760479D01*
X97430225Y-79760480D01*
X97422517Y-79761309D01*
X97415252Y-79764018D01*
X97415246Y-79764020D01*
X97295980Y-79808504D01*
X97295978Y-79808504D01*
X97287669Y-79811604D01*
X97280572Y-79816916D01*
X97280568Y-79816919D01*
X97179550Y-79892541D01*
X97179546Y-79892544D01*
X97172454Y-79897854D01*
X97167144Y-79904946D01*
X97167141Y-79904950D01*
X97091519Y-80005968D01*
X97091516Y-80005972D01*
X97086204Y-80013069D01*
X97083104Y-80021378D01*
X97083104Y-80021380D01*
X97038620Y-80140647D01*
X97038619Y-80140650D01*
X97035909Y-80147917D01*
X97035079Y-80155627D01*
X97035079Y-80155632D01*
X97029855Y-80204219D01*
X97029854Y-80204231D01*
X97029500Y-80207527D01*
X97029500Y-80210848D01*
X97029500Y-80210849D01*
X97029500Y-81999960D01*
X97029500Y-81999978D01*
X97029501Y-82003272D01*
X97029853Y-82006550D01*
X97029854Y-82006561D01*
X97035079Y-82055168D01*
X97035080Y-82055173D01*
X97035909Y-82062883D01*
X97038619Y-82070149D01*
X97038620Y-82070153D01*
X97065499Y-82142219D01*
X97086204Y-82197731D01*
X97172454Y-82312946D01*
X97287669Y-82399196D01*
X97419598Y-82448402D01*
X97469977Y-82483381D01*
X97497431Y-82538225D01*
X97495242Y-82599518D01*
X97463947Y-82652265D01*
X97345714Y-82770498D01*
X97338784Y-82778757D01*
X97209508Y-82963382D01*
X97204110Y-82972732D01*
X97108856Y-83177002D01*
X97105168Y-83187136D01*
X97053056Y-83381619D01*
X97052688Y-83392848D01*
X97063631Y-83395400D01*
X99696369Y-83395400D01*
X99707311Y-83392848D01*
X99706943Y-83381619D01*
X99654831Y-83187136D01*
X99651143Y-83177002D01*
X99555889Y-82972732D01*
X99550491Y-82963382D01*
X99421215Y-82778757D01*
X99414280Y-82770492D01*
X99296053Y-82652265D01*
X99264757Y-82599519D01*
X99262568Y-82538225D01*
X99290022Y-82483381D01*
X99340398Y-82448403D01*
X99472331Y-82399196D01*
X99587546Y-82312946D01*
X99673796Y-82197731D01*
X99677960Y-82186564D01*
X99704399Y-82144330D01*
X99745330Y-82115912D01*
X99794142Y-82105900D01*
X105539617Y-82105900D01*
X105587070Y-82115339D01*
X105627298Y-82142219D01*
X106863181Y-83378101D01*
X106890061Y-83418329D01*
X106899500Y-83465782D01*
X106899500Y-83512896D01*
X106881509Y-83577224D01*
X106832757Y-83622885D01*
X106767390Y-83636630D01*
X106704376Y-83614471D01*
X106595259Y-83538066D01*
X106595257Y-83538064D01*
X106590830Y-83534965D01*
X106585933Y-83532681D01*
X106585927Y-83532678D01*
X106381572Y-83437386D01*
X106381570Y-83437385D01*
X106376663Y-83435097D01*
X106371438Y-83433697D01*
X106371430Y-83433694D01*
X106153634Y-83375337D01*
X106153630Y-83375336D01*
X106148408Y-83373937D01*
X106143020Y-83373465D01*
X106143017Y-83373465D01*
X105918395Y-83353813D01*
X105913000Y-83353341D01*
X105907605Y-83353813D01*
X105682982Y-83373465D01*
X105682977Y-83373465D01*
X105677592Y-83373937D01*
X105672371Y-83375335D01*
X105672365Y-83375337D01*
X105454569Y-83433694D01*
X105454557Y-83433698D01*
X105449337Y-83435097D01*
X105444432Y-83437383D01*
X105444427Y-83437386D01*
X105240081Y-83532675D01*
X105240077Y-83532677D01*
X105235171Y-83534965D01*
X105230738Y-83538068D01*
X105230731Y-83538073D01*
X105046034Y-83667399D01*
X105046029Y-83667402D01*
X105041599Y-83670505D01*
X105037775Y-83674328D01*
X105037775Y-83674329D01*
X104919673Y-83792431D01*
X104866926Y-83823726D01*
X104805633Y-83825915D01*
X104750789Y-83798462D01*
X104715810Y-83748082D01*
X104707725Y-83726405D01*
X104666796Y-83616669D01*
X104580546Y-83501454D01*
X104532894Y-83465782D01*
X104472431Y-83420519D01*
X104472430Y-83420518D01*
X104465331Y-83415204D01*
X104358442Y-83375337D01*
X104337752Y-83367620D01*
X104337750Y-83367619D01*
X104330483Y-83364909D01*
X104322770Y-83364079D01*
X104322767Y-83364079D01*
X104274180Y-83358855D01*
X104274169Y-83358854D01*
X104270873Y-83358500D01*
X104267550Y-83358500D01*
X102478439Y-83358500D01*
X102478420Y-83358500D01*
X102475128Y-83358501D01*
X102471850Y-83358853D01*
X102471838Y-83358854D01*
X102423231Y-83364079D01*
X102423225Y-83364080D01*
X102415517Y-83364909D01*
X102408252Y-83367618D01*
X102408246Y-83367620D01*
X102288980Y-83412104D01*
X102288978Y-83412104D01*
X102280669Y-83415204D01*
X102273572Y-83420516D01*
X102273568Y-83420519D01*
X102172550Y-83496141D01*
X102172546Y-83496144D01*
X102165454Y-83501454D01*
X102160144Y-83508546D01*
X102160141Y-83508550D01*
X102084519Y-83609568D01*
X102084516Y-83609572D01*
X102079204Y-83616669D01*
X102076104Y-83624978D01*
X102076104Y-83624980D01*
X102031620Y-83744247D01*
X102031619Y-83744250D01*
X102028909Y-83751517D01*
X102028079Y-83759227D01*
X102028079Y-83759232D01*
X102022855Y-83807819D01*
X102022854Y-83807831D01*
X102022500Y-83811127D01*
X102022500Y-83814448D01*
X102022500Y-83814449D01*
X102022501Y-85335500D01*
X102005888Y-85397500D01*
X101960501Y-85442887D01*
X101898501Y-85459500D01*
X99584925Y-85459500D01*
X99527668Y-85445489D01*
X99483350Y-85406623D01*
X99476962Y-85397500D01*
X99418495Y-85313999D01*
X99251401Y-85146905D01*
X99246970Y-85143802D01*
X99246966Y-85143799D01*
X99065405Y-85016669D01*
X99026540Y-84972351D01*
X99012529Y-84915094D01*
X99026540Y-84857837D01*
X99065406Y-84813519D01*
X99246638Y-84686619D01*
X99254909Y-84679678D01*
X99414278Y-84520309D01*
X99421215Y-84512043D01*
X99550498Y-84327408D01*
X99555886Y-84318076D01*
X99651143Y-84113797D01*
X99654831Y-84103663D01*
X99706943Y-83909180D01*
X99707311Y-83897951D01*
X99696369Y-83895400D01*
X97063631Y-83895400D01*
X97052688Y-83897951D01*
X97053056Y-83909180D01*
X97105168Y-84103663D01*
X97108856Y-84113797D01*
X97204113Y-84318076D01*
X97209501Y-84327408D01*
X97338784Y-84512043D01*
X97345721Y-84520309D01*
X97505090Y-84679678D01*
X97513356Y-84686615D01*
X97694595Y-84813520D01*
X97733460Y-84857838D01*
X97747471Y-84915095D01*
X97733460Y-84972352D01*
X97694594Y-85016670D01*
X97513034Y-85143799D01*
X97513029Y-85143802D01*
X97508599Y-85146905D01*
X97504775Y-85150728D01*
X97504769Y-85150734D01*
X97345334Y-85310169D01*
X97345328Y-85310175D01*
X97341505Y-85313999D01*
X97338402Y-85318429D01*
X97338399Y-85318434D01*
X97209073Y-85503131D01*
X97209068Y-85503138D01*
X97205965Y-85507571D01*
X97203677Y-85512477D01*
X97203675Y-85512481D01*
X97108386Y-85716827D01*
X97108383Y-85716832D01*
X97106097Y-85721737D01*
X97104698Y-85726957D01*
X97104694Y-85726969D01*
X97046337Y-85944765D01*
X97046335Y-85944771D01*
X97044937Y-85949992D01*
X97044465Y-85955377D01*
X97044465Y-85955382D01*
X97024813Y-86180005D01*
X97024341Y-86185400D01*
X97024813Y-86190795D01*
X97037918Y-86340590D01*
X97044937Y-86420808D01*
X97046336Y-86426030D01*
X97046337Y-86426034D01*
X97104694Y-86643830D01*
X97104697Y-86643838D01*
X97106097Y-86649063D01*
X97108385Y-86653970D01*
X97108386Y-86653972D01*
X97203678Y-86858327D01*
X97203681Y-86858333D01*
X97205965Y-86863230D01*
X97209064Y-86867657D01*
X97209066Y-86867659D01*
X97338399Y-87052366D01*
X97338402Y-87052370D01*
X97341505Y-87056801D01*
X97508599Y-87223895D01*
X97513032Y-87226999D01*
X97513038Y-87227004D01*
X97694158Y-87353825D01*
X97733024Y-87398143D01*
X97747035Y-87455400D01*
X97733024Y-87512657D01*
X97694158Y-87556975D01*
X97508599Y-87686905D01*
X97504775Y-87690728D01*
X97504769Y-87690734D01*
X97345334Y-87850169D01*
X97345328Y-87850175D01*
X97341505Y-87853999D01*
X97338402Y-87858429D01*
X97338399Y-87858434D01*
X97209073Y-88043131D01*
X97209068Y-88043138D01*
X97205965Y-88047571D01*
X97203677Y-88052477D01*
X97203675Y-88052481D01*
X97108386Y-88256827D01*
X97108383Y-88256832D01*
X97106097Y-88261737D01*
X97104698Y-88266957D01*
X97104694Y-88266969D01*
X97046337Y-88484765D01*
X97046335Y-88484771D01*
X97044937Y-88489992D01*
X97044465Y-88495377D01*
X97044465Y-88495382D01*
X97037163Y-88578848D01*
X97024341Y-88725400D01*
X97024813Y-88730795D01*
X97042588Y-88933967D01*
X97044937Y-88960808D01*
X97046336Y-88966030D01*
X97046337Y-88966034D01*
X97104694Y-89183830D01*
X97104697Y-89183838D01*
X97106097Y-89189063D01*
X97108385Y-89193970D01*
X97108386Y-89193972D01*
X97203678Y-89398327D01*
X97203681Y-89398333D01*
X97205965Y-89403230D01*
X97209064Y-89407657D01*
X97209066Y-89407659D01*
X97338399Y-89592366D01*
X97338402Y-89592370D01*
X97341505Y-89596801D01*
X97508599Y-89763895D01*
X97513032Y-89766999D01*
X97513038Y-89767004D01*
X97694158Y-89893825D01*
X97733024Y-89938143D01*
X97747035Y-89995400D01*
X97733024Y-90052657D01*
X97694159Y-90096975D01*
X97513041Y-90223795D01*
X97508599Y-90226905D01*
X97504775Y-90230728D01*
X97504769Y-90230734D01*
X97345334Y-90390169D01*
X97345328Y-90390175D01*
X97341505Y-90393999D01*
X97338402Y-90398429D01*
X97338399Y-90398434D01*
X97209073Y-90583131D01*
X97209068Y-90583138D01*
X97205965Y-90587571D01*
X97203677Y-90592477D01*
X97203675Y-90592481D01*
X97108386Y-90796827D01*
X97108383Y-90796832D01*
X97106097Y-90801737D01*
X97104698Y-90806957D01*
X97104694Y-90806969D01*
X97046337Y-91024765D01*
X97046335Y-91024771D01*
X97044937Y-91029992D01*
X97044465Y-91035377D01*
X97044465Y-91035382D01*
X97026192Y-91244242D01*
X97024341Y-91265400D01*
X97024813Y-91270795D01*
X97035533Y-91393330D01*
X97044937Y-91500808D01*
X97046336Y-91506030D01*
X97046337Y-91506034D01*
X97104694Y-91723830D01*
X97104697Y-91723838D01*
X97106097Y-91729063D01*
X97108385Y-91733970D01*
X97108386Y-91733972D01*
X97203678Y-91938327D01*
X97203681Y-91938333D01*
X97205965Y-91943230D01*
X97209064Y-91947657D01*
X97209066Y-91947659D01*
X97338399Y-92132366D01*
X97338402Y-92132370D01*
X97341505Y-92136801D01*
X97508599Y-92303895D01*
X97513032Y-92306999D01*
X97513038Y-92307004D01*
X97694158Y-92433825D01*
X97733024Y-92478143D01*
X97747035Y-92535400D01*
X97733024Y-92592657D01*
X97694159Y-92636975D01*
X97513041Y-92763795D01*
X97508599Y-92766905D01*
X97504775Y-92770728D01*
X97504769Y-92770734D01*
X97345334Y-92930169D01*
X97345328Y-92930175D01*
X97341505Y-92933999D01*
X97338402Y-92938429D01*
X97338399Y-92938434D01*
X97209073Y-93123131D01*
X97209068Y-93123138D01*
X97205965Y-93127571D01*
X97203677Y-93132477D01*
X97203675Y-93132481D01*
X97108386Y-93336827D01*
X97108383Y-93336832D01*
X97106097Y-93341737D01*
X97104698Y-93346957D01*
X97104694Y-93346969D01*
X97046337Y-93564765D01*
X97046335Y-93564771D01*
X97044937Y-93569992D01*
X97044465Y-93575377D01*
X97044465Y-93575382D01*
X97027770Y-93766204D01*
X97024341Y-93805400D01*
X97024813Y-93810795D01*
X97043582Y-94025329D01*
X97044937Y-94040808D01*
X97046336Y-94046030D01*
X97046337Y-94046034D01*
X97104694Y-94263830D01*
X97104697Y-94263838D01*
X97106097Y-94269063D01*
X97108385Y-94273970D01*
X97108386Y-94273972D01*
X97203678Y-94478327D01*
X97203681Y-94478333D01*
X97205965Y-94483230D01*
X97209064Y-94487657D01*
X97209066Y-94487659D01*
X97338399Y-94672366D01*
X97338402Y-94672370D01*
X97341505Y-94676801D01*
X97508599Y-94843895D01*
X97513032Y-94846999D01*
X97513038Y-94847004D01*
X97694158Y-94973825D01*
X97733024Y-95018143D01*
X97747035Y-95075400D01*
X97733024Y-95132657D01*
X97694160Y-95176974D01*
X97508599Y-95306905D01*
X97504775Y-95310728D01*
X97504769Y-95310734D01*
X97345334Y-95470169D01*
X97345328Y-95470175D01*
X97341505Y-95473999D01*
X97338402Y-95478429D01*
X97338399Y-95478434D01*
X97209073Y-95663131D01*
X97209068Y-95663138D01*
X97205965Y-95667571D01*
X97203677Y-95672477D01*
X97203675Y-95672481D01*
X97108386Y-95876827D01*
X97108383Y-95876832D01*
X97106097Y-95881737D01*
X97104698Y-95886957D01*
X97104694Y-95886969D01*
X97046337Y-96104765D01*
X97046335Y-96104771D01*
X97044937Y-96109992D01*
X97044465Y-96115377D01*
X97044465Y-96115382D01*
X97028464Y-96298278D01*
X97024341Y-96345400D01*
X97024813Y-96350795D01*
X97044382Y-96574471D01*
X97044937Y-96580808D01*
X97046336Y-96586030D01*
X97046337Y-96586034D01*
X97104694Y-96803830D01*
X97104697Y-96803838D01*
X97106097Y-96809063D01*
X97108385Y-96813970D01*
X97108386Y-96813972D01*
X97203678Y-97018327D01*
X97203681Y-97018333D01*
X97205965Y-97023230D01*
X97209064Y-97027657D01*
X97209066Y-97027659D01*
X97338399Y-97212366D01*
X97338402Y-97212370D01*
X97341505Y-97216801D01*
X97508599Y-97383895D01*
X97513032Y-97386999D01*
X97513038Y-97387004D01*
X97694158Y-97513825D01*
X97733024Y-97558143D01*
X97747035Y-97615400D01*
X97733024Y-97672657D01*
X97694159Y-97716975D01*
X97513041Y-97843795D01*
X97508599Y-97846905D01*
X97504775Y-97850728D01*
X97504769Y-97850734D01*
X97345334Y-98010169D01*
X97345328Y-98010175D01*
X97341505Y-98013999D01*
X97338402Y-98018429D01*
X97338399Y-98018434D01*
X97209073Y-98203131D01*
X97209068Y-98203138D01*
X97205965Y-98207571D01*
X97203677Y-98212477D01*
X97203675Y-98212481D01*
X97108386Y-98416827D01*
X97108383Y-98416832D01*
X97106097Y-98421737D01*
X97104698Y-98426957D01*
X97104694Y-98426969D01*
X97046337Y-98644765D01*
X97046335Y-98644771D01*
X97044937Y-98649992D01*
X97024341Y-98885400D01*
X97024813Y-98890795D01*
X97032385Y-98977347D01*
X97044937Y-99120808D01*
X97046336Y-99126030D01*
X97046337Y-99126034D01*
X97104694Y-99343830D01*
X97104697Y-99343838D01*
X97106097Y-99349063D01*
X97108385Y-99353970D01*
X97110237Y-99359057D01*
X97108893Y-99359545D01*
X97118505Y-99420271D01*
X97091792Y-99483191D01*
X97035796Y-99522395D01*
X96967534Y-99525970D01*
X96907750Y-99492830D01*
X96036819Y-98621899D01*
X96009939Y-98581671D01*
X96000500Y-98534218D01*
X96000500Y-90989237D01*
X96000540Y-90986096D01*
X96002756Y-90898636D01*
X95992345Y-90840554D01*
X95991042Y-90831260D01*
X95985074Y-90772562D01*
X95975966Y-90743536D01*
X95972223Y-90728284D01*
X95967967Y-90704533D01*
X95967965Y-90704529D01*
X95966858Y-90698347D01*
X95964526Y-90692508D01*
X95944976Y-90643565D01*
X95941816Y-90634689D01*
X95928573Y-90592481D01*
X95924159Y-90578412D01*
X95909396Y-90551814D01*
X95902660Y-90537631D01*
X95893708Y-90515220D01*
X95891377Y-90509383D01*
X95858917Y-90460131D01*
X95854036Y-90452073D01*
X95828463Y-90406000D01*
X95828462Y-90405999D01*
X95825409Y-90400498D01*
X95805591Y-90377413D01*
X95796140Y-90364879D01*
X95795482Y-90363880D01*
X95779402Y-90339481D01*
X95737692Y-90297771D01*
X95731287Y-90290860D01*
X95696960Y-90250874D01*
X95692866Y-90246105D01*
X95687896Y-90242258D01*
X95687891Y-90242253D01*
X95668805Y-90227479D01*
X95657026Y-90217105D01*
X94799377Y-89359456D01*
X93936817Y-88496897D01*
X93909938Y-88456670D01*
X93900499Y-88409217D01*
X93900499Y-85530439D01*
X93900499Y-85527128D01*
X93894091Y-85467517D01*
X93843796Y-85332669D01*
X93757546Y-85217454D01*
X93642331Y-85131204D01*
X93507483Y-85080909D01*
X93499770Y-85080079D01*
X93499767Y-85080079D01*
X93451180Y-85074855D01*
X93451169Y-85074854D01*
X93447873Y-85074500D01*
X93444550Y-85074500D01*
X89555439Y-85074500D01*
X89555420Y-85074500D01*
X89552128Y-85074501D01*
X89548850Y-85074853D01*
X89548838Y-85074854D01*
X89500231Y-85080079D01*
X89500225Y-85080080D01*
X89492517Y-85080909D01*
X89485252Y-85083618D01*
X89485246Y-85083620D01*
X89365980Y-85128104D01*
X89365978Y-85128104D01*
X89357669Y-85131204D01*
X89350572Y-85136516D01*
X89350568Y-85136519D01*
X89249550Y-85212141D01*
X89249546Y-85212144D01*
X89242454Y-85217454D01*
X89237144Y-85224546D01*
X89237141Y-85224550D01*
X89161519Y-85325568D01*
X89161516Y-85325572D01*
X89156204Y-85332669D01*
X89153104Y-85340978D01*
X89153104Y-85340980D01*
X89108620Y-85460247D01*
X89108619Y-85460250D01*
X89105909Y-85467517D01*
X89105079Y-85475227D01*
X89105079Y-85475232D01*
X89099855Y-85523819D01*
X89099854Y-85523831D01*
X89099500Y-85527127D01*
X89099500Y-85530448D01*
X89099500Y-85530449D01*
X89099500Y-89419560D01*
X89099500Y-89419578D01*
X89099501Y-89422872D01*
X89099853Y-89426150D01*
X89099854Y-89426161D01*
X89105079Y-89474768D01*
X89105080Y-89474773D01*
X89105909Y-89482483D01*
X89108619Y-89489749D01*
X89108620Y-89489753D01*
X89117903Y-89514641D01*
X89156204Y-89617331D01*
X89242454Y-89732546D01*
X89357669Y-89818796D01*
X89492517Y-89869091D01*
X89552127Y-89875500D01*
X90990247Y-89875499D01*
X91047694Y-89889610D01*
X91092067Y-89928730D01*
X91113267Y-89983958D01*
X91106468Y-90042722D01*
X91073217Y-90091649D01*
X91021083Y-90119603D01*
X90760514Y-90186505D01*
X90760506Y-90186507D01*
X90756738Y-90187475D01*
X90753120Y-90188907D01*
X90753109Y-90188911D01*
X90479526Y-90297230D01*
X90479515Y-90297234D01*
X90475896Y-90298668D01*
X90472491Y-90300539D01*
X90472478Y-90300546D01*
X90214612Y-90442310D01*
X90214600Y-90442317D01*
X90211205Y-90444184D01*
X90208061Y-90446467D01*
X90208055Y-90446472D01*
X89969994Y-90619432D01*
X89969983Y-90619440D01*
X89966838Y-90621726D01*
X89964003Y-90624387D01*
X89963996Y-90624394D01*
X89749488Y-90825831D01*
X89749481Y-90825838D01*
X89746651Y-90828496D01*
X89744176Y-90831487D01*
X89744172Y-90831492D01*
X89556598Y-91058229D01*
X89556588Y-91058241D01*
X89554115Y-91061232D01*
X89552033Y-91064511D01*
X89552024Y-91064525D01*
X89394352Y-91312977D01*
X89394345Y-91312988D01*
X89392267Y-91316264D01*
X89390614Y-91319774D01*
X89390611Y-91319782D01*
X89265315Y-91586050D01*
X89263659Y-91589570D01*
X89262457Y-91593267D01*
X89262455Y-91593274D01*
X89171524Y-91873130D01*
X89170319Y-91876840D01*
X89169590Y-91880660D01*
X89169588Y-91880669D01*
X89114449Y-92169716D01*
X89114446Y-92169732D01*
X89113720Y-92173543D01*
X89094754Y-92475000D01*
X86166469Y-92475000D01*
X86156213Y-92400928D01*
X86155858Y-92398124D01*
X86102439Y-91930847D01*
X86102189Y-91928418D01*
X86066266Y-91537879D01*
X86066036Y-91535007D01*
X86033947Y-91065886D01*
X86033805Y-91063397D01*
X86015822Y-90671576D01*
X86015729Y-90668862D01*
X86005026Y-90198818D01*
X86004995Y-90195997D01*
X86004995Y-89804003D01*
X86005027Y-89801181D01*
X86006751Y-89725449D01*
X86015729Y-89331132D01*
X86015822Y-89328428D01*
X86033805Y-88936592D01*
X86033946Y-88934127D01*
X86066039Y-88464951D01*
X86066268Y-88462095D01*
X86071132Y-88409217D01*
X86102191Y-88071562D01*
X86102437Y-88069170D01*
X86155861Y-87601854D01*
X86156210Y-87599093D01*
X86210000Y-87210610D01*
X86210354Y-87208246D01*
X86285008Y-86743744D01*
X86285473Y-86741058D01*
X86357011Y-86355486D01*
X86357467Y-86353166D01*
X86453195Y-85892501D01*
X86453799Y-85889762D01*
X86542921Y-85507953D01*
X86543473Y-85505694D01*
X86660066Y-85049875D01*
X86660831Y-85047027D01*
X86767350Y-84669753D01*
X86767967Y-84667652D01*
X86905233Y-84217453D01*
X86906124Y-84214657D01*
X87029795Y-83842760D01*
X87030493Y-83840732D01*
X87188166Y-83397081D01*
X87189169Y-83394369D01*
X87329711Y-83028663D01*
X87330532Y-83026590D01*
X87508249Y-82590540D01*
X87509396Y-82587826D01*
X87666529Y-82229010D01*
X87667380Y-82227119D01*
X87864828Y-81799461D01*
X87866153Y-81796688D01*
X88039441Y-81445715D01*
X88040401Y-81443819D01*
X88257191Y-81025432D01*
X88258645Y-81022715D01*
X88447773Y-80680182D01*
X88448776Y-80678406D01*
X88684492Y-80270134D01*
X88686077Y-80267471D01*
X88890608Y-79934137D01*
X88891698Y-79932399D01*
X89145808Y-79535189D01*
X89147538Y-79532563D01*
X89367077Y-79209042D01*
X89368195Y-79207428D01*
X89444026Y-79100000D01*
X114544341Y-79100000D01*
X114564937Y-79335408D01*
X114566336Y-79340630D01*
X114566337Y-79340634D01*
X114624694Y-79558430D01*
X114624697Y-79558438D01*
X114626097Y-79563663D01*
X114725965Y-79777829D01*
X114861505Y-79971401D01*
X115028599Y-80138495D01*
X115222171Y-80274035D01*
X115436337Y-80373903D01*
X115664592Y-80435063D01*
X115841034Y-80450500D01*
X115956258Y-80450500D01*
X115958966Y-80450500D01*
X116135408Y-80435063D01*
X116363663Y-80373903D01*
X116577829Y-80274035D01*
X116771401Y-80138495D01*
X116938495Y-79971401D01*
X117074035Y-79777830D01*
X117173903Y-79563663D01*
X117235063Y-79335408D01*
X117255659Y-79100000D01*
X117235063Y-78864592D01*
X117186572Y-78683619D01*
X117175305Y-78641569D01*
X117175304Y-78641567D01*
X117173903Y-78636337D01*
X117074035Y-78422171D01*
X116938495Y-78228599D01*
X116771401Y-78061505D01*
X116577829Y-77925965D01*
X116363663Y-77826097D01*
X116358438Y-77824697D01*
X116358430Y-77824694D01*
X116140634Y-77766337D01*
X116140630Y-77766336D01*
X116135408Y-77764937D01*
X116130020Y-77764465D01*
X116130017Y-77764465D01*
X115961664Y-77749736D01*
X115961662Y-77749735D01*
X115958966Y-77749500D01*
X115841034Y-77749500D01*
X115838338Y-77749735D01*
X115838335Y-77749736D01*
X115669982Y-77764465D01*
X115669977Y-77764465D01*
X115664592Y-77764937D01*
X115659371Y-77766335D01*
X115659365Y-77766337D01*
X115441569Y-77824694D01*
X115441557Y-77824698D01*
X115436337Y-77826097D01*
X115431432Y-77828383D01*
X115431427Y-77828386D01*
X115227081Y-77923675D01*
X115227077Y-77923677D01*
X115222171Y-77925965D01*
X115217738Y-77929068D01*
X115217731Y-77929073D01*
X115033034Y-78058399D01*
X115033029Y-78058402D01*
X115028599Y-78061505D01*
X115024775Y-78065328D01*
X115024769Y-78065334D01*
X114865336Y-78224767D01*
X114865330Y-78224773D01*
X114861505Y-78228599D01*
X114858406Y-78233023D01*
X114858399Y-78233033D01*
X114729066Y-78417740D01*
X114729061Y-78417747D01*
X114725965Y-78422170D01*
X114723683Y-78427061D01*
X114723678Y-78427072D01*
X114628386Y-78631427D01*
X114628383Y-78631432D01*
X114626097Y-78636337D01*
X114624698Y-78641557D01*
X114624694Y-78641569D01*
X114566337Y-78859365D01*
X114566335Y-78859371D01*
X114564937Y-78864592D01*
X114564465Y-78869977D01*
X114564465Y-78869982D01*
X114544813Y-79094605D01*
X114544341Y-79100000D01*
X89444026Y-79100000D01*
X89640237Y-78822032D01*
X89642115Y-78819447D01*
X89876079Y-78506568D01*
X89877270Y-78505005D01*
X90166764Y-78132143D01*
X90168749Y-78129658D01*
X90416663Y-77828016D01*
X90417834Y-77826616D01*
X90724209Y-77467069D01*
X90726349Y-77464628D01*
X90987546Y-77174985D01*
X90988873Y-77173538D01*
X91311438Y-76828155D01*
X91313746Y-76825754D01*
X91587806Y-76548533D01*
X91589088Y-76547258D01*
X91927228Y-76216730D01*
X91929725Y-76214359D01*
X92215945Y-75950236D01*
X92217181Y-75949114D01*
X92570339Y-75634029D01*
X92572933Y-75631781D01*
X92870778Y-75381212D01*
X92872047Y-75380163D01*
X93239385Y-75081311D01*
X93242076Y-75079186D01*
X93550821Y-74842746D01*
X93552109Y-74841776D01*
X93932976Y-74559726D01*
X93935863Y-74557654D01*
X94254552Y-74336016D01*
X94256137Y-74334930D01*
X94649670Y-74070357D01*
X94652665Y-74068408D01*
X94980979Y-73861740D01*
X94982429Y-73860843D01*
X95387973Y-73614226D01*
X95391078Y-73612402D01*
X95728185Y-73421194D01*
X95729483Y-73420471D01*
X96146375Y-73192270D01*
X96149559Y-73190591D01*
X96494584Y-73015290D01*
X96495984Y-73014591D01*
X96923222Y-72805410D01*
X96926542Y-72803849D01*
X97278795Y-72644751D01*
X97280109Y-72644169D01*
X97716922Y-72454434D01*
X97720382Y-72452996D01*
X98078992Y-72310441D01*
X98080353Y-72309910D01*
X98525894Y-72140046D01*
X98529375Y-72138782D01*
X98893572Y-72013016D01*
X98895039Y-72012520D01*
X99348320Y-71862955D01*
X99351894Y-71861839D01*
X99720900Y-71753071D01*
X99722318Y-71752664D01*
X100182516Y-71623722D01*
X100186291Y-71622730D01*
X100559227Y-71531158D01*
X100560539Y-71530845D01*
X101026831Y-71422820D01*
X101030686Y-71421994D01*
X101406732Y-71347754D01*
X101408083Y-71347496D01*
X101879390Y-71260699D01*
X101883373Y-71260033D01*
X102261687Y-71203223D01*
X102262940Y-71203043D01*
X102738574Y-71137668D01*
X102742538Y-71137191D01*
X103122316Y-71097862D01*
X103123409Y-71097755D01*
X103602387Y-71054018D01*
X103606489Y-71053713D01*
X103986824Y-71031885D01*
X103987810Y-71031835D01*
X104469207Y-71009901D01*
X104473214Y-71009787D01*
X104853119Y-71005430D01*
X104854539Y-71005423D01*
X105337000Y-71005423D01*
X105341262Y-71005495D01*
G37*
%TD.AperFunction*%
%TD*%
M02*
