M48
; DRILL file {KiCad (7.0.0)} date Mon Nov 20 17:09:30 2023
; FORMAT={-:-/ absolute / metric / decimal}
; #@! TF.CreationDate,2023-11-20T17:09:30+01:00
; #@! TF.GenerationSoftware,Kicad,Pcbnew,(7.0.0)
; #@! TF.FileFunction,Plated,1,2,PTH
FMAT,2
METRIC
; #@! TA.AperFunction,Plated,PTH,ComponentDrill
T1C1.000
; #@! TA.AperFunction,Plated,PTH,ComponentDrill
T2C1.500
; #@! TA.AperFunction,Plated,PTH,ComponentDrill
T3C2.700
%
G90
G05
T1
X96.215Y-83.522
X96.215Y-86.062
X96.215Y-88.602
X96.215Y-91.142
X96.215Y-93.682
X96.215Y-96.222
X103.305Y-95.06
X103.373Y-84.709
X105.845Y-95.06
X105.913Y-84.709
X113.995Y-86.062
X113.995Y-88.602
X113.995Y-91.142
X113.995Y-93.682
T2
X103.0Y-89.872
X106.0Y-89.872
T3
X91.5Y-87.475
X91.5Y-92.475
X118.5Y-87.5
X118.5Y-92.5
T0
M30
