%TF.GenerationSoftware,KiCad,Pcbnew,(7.0.0)*%
%TF.CreationDate,2024-02-03T20:31:02+01:00*%
%TF.ProjectId,Helios_IMU_M,48656c69-6f73-45f4-994d-555f4d2e6b69,rev?*%
%TF.SameCoordinates,PX9058260PY5c4edc0*%
%TF.FileFunction,Copper,L2,Bot*%
%TF.FilePolarity,Positive*%
%FSLAX46Y46*%
G04 Gerber Fmt 4.6, Leading zero omitted, Abs format (unit mm)*
G04 Created by KiCad (PCBNEW (7.0.0)) date 2024-02-03 20:31:02*
%MOMM*%
%LPD*%
G01*
G04 APERTURE LIST*
%TA.AperFunction,ComponentPad*%
%ADD10R,3.800000X3.800000*%
%TD*%
%TA.AperFunction,ComponentPad*%
%ADD11C,3.800000*%
%TD*%
%TA.AperFunction,ComponentPad*%
%ADD12R,1.700000X1.700000*%
%TD*%
%TA.AperFunction,ComponentPad*%
%ADD13O,1.700000X1.700000*%
%TD*%
%TA.AperFunction,ComponentPad*%
%ADD14C,1.700000*%
%TD*%
%TA.AperFunction,ComponentPad*%
%ADD15C,1.600000*%
%TD*%
%TA.AperFunction,ComponentPad*%
%ADD16O,1.600000X1.600000*%
%TD*%
%TA.AperFunction,Conductor*%
%ADD17C,1.000000*%
%TD*%
%TA.AperFunction,Conductor*%
%ADD18C,0.500000*%
%TD*%
G04 APERTURE END LIST*
D10*
%TO.P,J4,1,Pin_1*%
%TO.N,SCL*%
X14378999Y2644999D03*
D11*
%TO.P,J4,2,Pin_2*%
%TO.N,SDA*%
X14379000Y-2355000D03*
%TD*%
D10*
%TO.P,J3,1,Pin_1*%
%TO.N,GND*%
X-14355999Y2644999D03*
D11*
%TO.P,J3,2,Pin_2*%
%TO.N,VCC*%
X-14356000Y-2355000D03*
%TD*%
D12*
%TO.P,IMU1,1,Vin*%
%TO.N,VCC*%
X-8889999Y6349999D03*
D13*
%TO.P,IMU1,2,3V3*%
%TO.N,unconnected-(IMU1-3V3-Pad2)*%
X-8889999Y3809999D03*
%TO.P,IMU1,3,GND*%
%TO.N,GND*%
X-8889999Y1269999D03*
%TO.P,IMU1,4,SDA*%
%TO.N,SDA_OUT*%
X-8889999Y-1269999D03*
%TO.P,IMU1,5,SCL*%
%TO.N,SCL_OUT*%
X-8889999Y-3809999D03*
%TO.P,IMU1,6,RST*%
%TO.N,unconnected-(IMU1-RST-Pad6)*%
X-8889999Y-6349999D03*
%TO.P,IMU1,7,ADR*%
%TO.N,unconnected-(IMU1-ADR-Pad7)*%
X8889999Y-3809999D03*
%TO.P,IMU1,8,INT*%
%TO.N,unconnected-(IMU1-INT-Pad8)*%
X8889999Y-1269999D03*
%TO.P,IMU1,9,PS1*%
%TO.N,unconnected-(IMU1-PS1-Pad9)*%
X8889999Y1269999D03*
D14*
%TO.P,IMU1,10,PS0*%
%TO.N,unconnected-(IMU1-PS0-Pad10)*%
X8890000Y3810000D03*
%TD*%
D10*
%TO.P,J1,1,Pin_1*%
%TO.N,GND*%
X-3146999Y2644999D03*
D11*
%TO.P,J1,2,Pin_2*%
%TO.N,VCC*%
X-3147000Y-2355000D03*
%TD*%
D15*
%TO.P,RHT,1*%
%TO.N,VCC*%
X-8735000Y-9634000D03*
D16*
%TO.P,RHT,2*%
%TO.N,XORH*%
X-1114999Y-9633999D03*
%TD*%
D10*
%TO.P,J2,1,Pin_1*%
%TO.N,SCL*%
X3075999Y2644999D03*
D11*
%TO.P,J2,2,Pin_2*%
%TO.N,SDA*%
X3076000Y-2355000D03*
%TD*%
D15*
%TO.P,RHB,1*%
%TO.N,XORH*%
X1044000Y-9634000D03*
D16*
%TO.P,RHB,2*%
%TO.N,GND*%
X8663999Y-9633999D03*
%TD*%
D15*
%TO.P,RLB,1*%
%TO.N,XORL*%
X1044000Y-12682000D03*
D16*
%TO.P,RLB,2*%
%TO.N,GND*%
X8663999Y-12681999D03*
%TD*%
D15*
%TO.P,RLT,1*%
%TO.N,VCC*%
X-8735000Y-12682000D03*
D16*
%TO.P,RLT,2*%
%TO.N,XORL*%
X-1114999Y-12681999D03*
%TD*%
D17*
%TO.N,VCC*%
X-8735000Y-9634000D02*
X-6576000Y-9634000D01*
D18*
X-8890000Y6350000D02*
X-6449000Y3909000D01*
X-6449000Y947000D02*
X-3147000Y-2355000D01*
D17*
X-14356000Y-4013000D02*
X-8735000Y-9634000D01*
X-14356000Y-2355000D02*
X-14356000Y-4013000D01*
X-3147000Y-6205000D02*
X-3147000Y-2355000D01*
D18*
X-6449000Y3909000D02*
X-6449000Y947000D01*
D17*
X-6576000Y-9634000D02*
X-3147000Y-6205000D01*
%TO.N,SDA*%
X10656000Y-6078000D02*
X6799000Y-6078000D01*
X6799000Y-6078000D02*
X3076000Y-2355000D01*
X14379000Y-2355000D02*
X10656000Y-6078000D01*
%TO.N,SCL*%
X6545000Y6114000D02*
X3076000Y2645000D01*
X14379000Y2645000D02*
X10910000Y6114000D01*
X10910000Y6114000D02*
X6545000Y6114000D01*
%TD*%
%TA.AperFunction,Conductor*%
%TO.N,GND*%
G36*
X15990208Y9988358D02*
G01*
X16035520Y9943900D01*
X16439096Y9264568D01*
X16441880Y9259626D01*
X16453171Y9238472D01*
X16845967Y8502522D01*
X16848525Y8497454D01*
X17173970Y7814122D01*
X17174036Y7813983D01*
X17218712Y7719876D01*
X17220969Y7714835D01*
X17480388Y7099005D01*
X17480471Y7098806D01*
X17555682Y6919392D01*
X17557682Y6914310D01*
X17771255Y6334455D01*
X17771304Y6334178D01*
X17771351Y6334194D01*
X17855450Y6104279D01*
X17857194Y6099169D01*
X18034458Y5540243D01*
X18034560Y5539919D01*
X18117395Y5276229D01*
X18118885Y5271103D01*
X18264670Y4726003D01*
X18264773Y4725615D01*
X18340955Y4437026D01*
X18342193Y4431898D01*
X18459469Y3896253D01*
X18459567Y3895801D01*
X18525664Y3588425D01*
X18526653Y3583305D01*
X18617257Y3054707D01*
X18621331Y3030326D01*
X18671128Y2732225D01*
X18671871Y2727127D01*
X18736958Y2204799D01*
X18737029Y2204217D01*
X18777042Y1870247D01*
X18777544Y1865181D01*
X18818037Y1348298D01*
X18818086Y1347651D01*
X18843179Y1004306D01*
X18843444Y999284D01*
X18860031Y487427D01*
X18860052Y486718D01*
X18869400Y136279D01*
X18869433Y131311D01*
X18862646Y-375457D01*
X18862633Y-376228D01*
X18855653Y-732066D01*
X18855460Y-736968D01*
X18825761Y-1238198D01*
X18825709Y-1239029D01*
X18801963Y-1598867D01*
X18801549Y-1603694D01*
X18749369Y-2098969D01*
X18749273Y-2099859D01*
X18708450Y-2462224D01*
X18707823Y-2466965D01*
X18633490Y-2956305D01*
X18633342Y-2957250D01*
X18575316Y-3320343D01*
X18574483Y-3324990D01*
X18478406Y-3807518D01*
X18478203Y-3808515D01*
X18402833Y-4171457D01*
X18401800Y-4176000D01*
X18284359Y-4651114D01*
X18284095Y-4652162D01*
X18191378Y-5013707D01*
X18190154Y-5018138D01*
X18051745Y-5485166D01*
X18051415Y-5486259D01*
X17941387Y-5845352D01*
X17939980Y-5849664D01*
X17781051Y-6307817D01*
X17780651Y-6308952D01*
X17653391Y-6664624D01*
X17651808Y-6668808D01*
X17472768Y-7117472D01*
X17472293Y-7118645D01*
X17328017Y-7469744D01*
X17326267Y-7473795D01*
X17127549Y-7912313D01*
X17126995Y-7913518D01*
X16965952Y-8259016D01*
X16964045Y-8262927D01*
X16746120Y-8690603D01*
X16745483Y-8691836D01*
X16567962Y-9030784D01*
X16565907Y-9034549D01*
X16329299Y-9450633D01*
X16328575Y-9451889D01*
X16134863Y-9783456D01*
X16132668Y-9787069D01*
X15877941Y-10190814D01*
X15877127Y-10192088D01*
X15667616Y-10515362D01*
X15665292Y-10518819D01*
X15392933Y-10909648D01*
X15392025Y-10910933D01*
X15167189Y-11224996D01*
X15164745Y-11228293D01*
X14875417Y-11605420D01*
X14874414Y-11606711D01*
X14634660Y-11910831D01*
X14632106Y-11913964D01*
X14326339Y-12276837D01*
X14325236Y-12278127D01*
X14071124Y-12571454D01*
X14068470Y-12574420D01*
X13747006Y-12922279D01*
X13745803Y-12923563D01*
X13477815Y-13205425D01*
X13475071Y-13208221D01*
X13138557Y-13540472D01*
X13137252Y-13541742D01*
X12855953Y-13811437D01*
X12853127Y-13814063D01*
X12502225Y-14130142D01*
X12500818Y-14131390D01*
X12206906Y-14388163D01*
X12204009Y-14390616D01*
X11839449Y-14689941D01*
X11837937Y-14691163D01*
X11532008Y-14934420D01*
X11529052Y-14936700D01*
X11151640Y-15218677D01*
X11150023Y-15219864D01*
X10832658Y-15449073D01*
X10829650Y-15451179D01*
X10440152Y-15715296D01*
X10438431Y-15716442D01*
X10110429Y-15930965D01*
X10107380Y-15932896D01*
X9706630Y-16178647D01*
X9704805Y-16179745D01*
X9366770Y-16379133D01*
X9363688Y-16380892D01*
X8952455Y-16607851D01*
X8950528Y-16608892D01*
X8603297Y-16792602D01*
X8600192Y-16794189D01*
X8179363Y-17001910D01*
X8177335Y-17002889D01*
X7821656Y-17170488D01*
X7818538Y-17171905D01*
X7388877Y-17360044D01*
X7386748Y-17360952D01*
X7023400Y-17512037D01*
X7020277Y-17513286D01*
X6582817Y-17681422D01*
X6580592Y-17682253D01*
X6210343Y-17816474D01*
X6207224Y-17817558D01*
X5762751Y-17965421D01*
X5760430Y-17966168D01*
X5384116Y-18083190D01*
X5381011Y-18084111D01*
X4930472Y-18211409D01*
X4928060Y-18212065D01*
X4546575Y-18311594D01*
X4543489Y-18312357D01*
X4087664Y-18418883D01*
X4085165Y-18419440D01*
X3699387Y-18501232D01*
X3696330Y-18501840D01*
X3236248Y-18587364D01*
X3233665Y-18587816D01*
X2844363Y-18651697D01*
X2841342Y-18652154D01*
X2377976Y-18716510D01*
X2375313Y-18716851D01*
X1983344Y-18762665D01*
X1980368Y-18762976D01*
X1514658Y-18806045D01*
X1511921Y-18806268D01*
X1118143Y-18833906D01*
X1115216Y-18834076D01*
X648101Y-18855780D01*
X645295Y-18855879D01*
X250620Y-18865268D01*
X247751Y-18865303D01*
X-219852Y-18865605D01*
X-222722Y-18865574D01*
X-617399Y-18856692D01*
X-620205Y-18856597D01*
X-1087412Y-18835491D01*
X-1090338Y-18835324D01*
X-1484071Y-18808199D01*
X-1486809Y-18807980D01*
X-1952642Y-18765505D01*
X-1955619Y-18765197D01*
X-2347607Y-18719892D01*
X-2350270Y-18719555D01*
X-2813750Y-18655791D01*
X-2816771Y-18655337D01*
X-3206125Y-18591962D01*
X-3208709Y-18591514D01*
X-3668877Y-18506586D01*
X-3671934Y-18505982D01*
X-4057889Y-18424672D01*
X-4060390Y-18424118D01*
X-4516294Y-18318193D01*
X-4519380Y-18317434D01*
X-4900957Y-18218405D01*
X-4903370Y-18217753D01*
X-5354186Y-18091004D01*
X-5357293Y-18090086D01*
X-5733671Y-17973573D01*
X-5735992Y-17972829D01*
X-6180651Y-17825540D01*
X-6183771Y-17824461D01*
X-6554243Y-17690699D01*
X-6556470Y-17689870D01*
X-6994136Y-17522301D01*
X-6997261Y-17521056D01*
X-7360804Y-17370438D01*
X-7362933Y-17369533D01*
X-7792792Y-17181966D01*
X-7795912Y-17180553D01*
X-8151851Y-17013392D01*
X-8153881Y-17012416D01*
X-8574953Y-16805249D01*
X-8578059Y-16803666D01*
X-8925580Y-16620376D01*
X-8927510Y-16619336D01*
X-9338995Y-16392926D01*
X-9342078Y-16391172D01*
X-9680336Y-16192241D01*
X-9682093Y-16191188D01*
X-9898058Y-16059135D01*
X-10083228Y-15945911D01*
X-10086280Y-15943983D01*
X-10414651Y-15729822D01*
X-10416373Y-15728678D01*
X-10806157Y-15465097D01*
X-10809167Y-15462996D01*
X-11031772Y-15302662D01*
X-11126885Y-15234155D01*
X-11128362Y-15233072D01*
X-11506215Y-14951525D01*
X-11509133Y-14949281D01*
X-11815443Y-14706363D01*
X-11816956Y-14705144D01*
X-12181878Y-14406308D01*
X-12184737Y-14403893D01*
X-12479084Y-14147408D01*
X-12480418Y-14146227D01*
X-12831755Y-13830574D01*
X-12834583Y-13827952D01*
X-12849107Y-13814063D01*
X-13116133Y-13558710D01*
X-13117428Y-13557455D01*
X-13119515Y-13555400D01*
X-13454482Y-13225527D01*
X-13457216Y-13222747D01*
X-13471063Y-13208221D01*
X-13582673Y-13091134D01*
X-13725512Y-12941285D01*
X-13726716Y-12940004D01*
X-13965761Y-12682000D01*
X-9790583Y-12682000D01*
X-9789986Y-12688061D01*
X-9770898Y-12881869D01*
X-9770897Y-12881875D01*
X-9770300Y-12887934D01*
X-9768533Y-12893759D01*
X-9768532Y-12893764D01*
X-9721875Y-13047572D01*
X-9710232Y-13085954D01*
X-9707362Y-13091323D01*
X-9707360Y-13091328D01*
X-9637114Y-13222747D01*
X-9612685Y-13268450D01*
X-9481410Y-13428410D01*
X-9321450Y-13559685D01*
X-9138954Y-13657232D01*
X-8940934Y-13717300D01*
X-8735000Y-13737583D01*
X-8529066Y-13717300D01*
X-8331046Y-13657232D01*
X-8148550Y-13559685D01*
X-7988590Y-13428410D01*
X-7857315Y-13268450D01*
X-7759768Y-13085954D01*
X-7699700Y-12887934D01*
X-7679417Y-12682000D01*
X-2170583Y-12682000D01*
X-2169986Y-12688061D01*
X-2150898Y-12881869D01*
X-2150897Y-12881875D01*
X-2150300Y-12887934D01*
X-2148533Y-12893759D01*
X-2148532Y-12893764D01*
X-2101875Y-13047572D01*
X-2090232Y-13085954D01*
X-2087362Y-13091323D01*
X-2087360Y-13091328D01*
X-2017114Y-13222747D01*
X-1992685Y-13268450D01*
X-1861410Y-13428410D01*
X-1701450Y-13559685D01*
X-1518954Y-13657232D01*
X-1320934Y-13717300D01*
X-1115000Y-13737583D01*
X-909066Y-13717300D01*
X-711046Y-13657232D01*
X-528550Y-13559685D01*
X-368590Y-13428410D01*
X-237315Y-13268450D01*
X-144859Y-13095477D01*
X-99249Y-13047572D01*
X-35500Y-13029930D01*
X28249Y-13047572D01*
X73858Y-13095477D01*
X163441Y-13263075D01*
X163444Y-13263079D01*
X166315Y-13268450D01*
X297590Y-13428410D01*
X457550Y-13559685D01*
X640046Y-13657232D01*
X838066Y-13717300D01*
X1044000Y-13737583D01*
X1249934Y-13717300D01*
X1447954Y-13657232D01*
X1630450Y-13559685D01*
X1790410Y-13428410D01*
X1921685Y-13268450D01*
X2019232Y-13085954D01*
X2079300Y-12887934D01*
X2085570Y-12824275D01*
X7622931Y-12824275D01*
X7628595Y-12881780D01*
X7630958Y-12893658D01*
X7687464Y-13079934D01*
X7692103Y-13091134D01*
X7783857Y-13262795D01*
X7790599Y-13272884D01*
X7914082Y-13423348D01*
X7922651Y-13431917D01*
X8073115Y-13555400D01*
X8083204Y-13562142D01*
X8254865Y-13653896D01*
X8266065Y-13658535D01*
X8452341Y-13715041D01*
X8464219Y-13717404D01*
X8521724Y-13723068D01*
X8535230Y-13720610D01*
X8539000Y-13707411D01*
X8789000Y-13707411D01*
X8792769Y-13720610D01*
X8806275Y-13723068D01*
X8863780Y-13717404D01*
X8875658Y-13715041D01*
X9061934Y-13658535D01*
X9073134Y-13653896D01*
X9244795Y-13562142D01*
X9254884Y-13555400D01*
X9405348Y-13431917D01*
X9413917Y-13423348D01*
X9537400Y-13272884D01*
X9544142Y-13262795D01*
X9635896Y-13091134D01*
X9640535Y-13079934D01*
X9697041Y-12893658D01*
X9699404Y-12881780D01*
X9705068Y-12824275D01*
X9702610Y-12810769D01*
X9689411Y-12807000D01*
X8805326Y-12807000D01*
X8792450Y-12810450D01*
X8789000Y-12823326D01*
X8789000Y-13707411D01*
X8539000Y-13707411D01*
X8539000Y-12823326D01*
X8535549Y-12810450D01*
X8522674Y-12807000D01*
X7638589Y-12807000D01*
X7625389Y-12810769D01*
X7622931Y-12824275D01*
X2085570Y-12824275D01*
X2099583Y-12682000D01*
X2085570Y-12539724D01*
X7622931Y-12539724D01*
X7625389Y-12553230D01*
X7638589Y-12557000D01*
X8522674Y-12557000D01*
X8535549Y-12553549D01*
X8539000Y-12540674D01*
X8789000Y-12540674D01*
X8792450Y-12553549D01*
X8805326Y-12557000D01*
X9689411Y-12557000D01*
X9702610Y-12553230D01*
X9705068Y-12539724D01*
X9699404Y-12482219D01*
X9697041Y-12470341D01*
X9640535Y-12284065D01*
X9635896Y-12272865D01*
X9544142Y-12101204D01*
X9537400Y-12091115D01*
X9413917Y-11940651D01*
X9405348Y-11932082D01*
X9254884Y-11808599D01*
X9244795Y-11801857D01*
X9073134Y-11710103D01*
X9061934Y-11705464D01*
X8875658Y-11648958D01*
X8863780Y-11646595D01*
X8806275Y-11640931D01*
X8792769Y-11643389D01*
X8789000Y-11656589D01*
X8789000Y-12540674D01*
X8539000Y-12540674D01*
X8539000Y-11656589D01*
X8535230Y-11643389D01*
X8521724Y-11640931D01*
X8464219Y-11646595D01*
X8452341Y-11648958D01*
X8266065Y-11705464D01*
X8254865Y-11710103D01*
X8083204Y-11801857D01*
X8073115Y-11808599D01*
X7922651Y-11932082D01*
X7914082Y-11940651D01*
X7790599Y-12091115D01*
X7783857Y-12101204D01*
X7692103Y-12272865D01*
X7687464Y-12284065D01*
X7630958Y-12470341D01*
X7628595Y-12482219D01*
X7622931Y-12539724D01*
X2085570Y-12539724D01*
X2079300Y-12476066D01*
X2019232Y-12278046D01*
X1921685Y-12095550D01*
X1790410Y-11935590D01*
X1783174Y-11929652D01*
X1635157Y-11808178D01*
X1630450Y-11804315D01*
X1625079Y-11801444D01*
X1453328Y-11709640D01*
X1453323Y-11709638D01*
X1447954Y-11706768D01*
X1411356Y-11695666D01*
X1255764Y-11648468D01*
X1255759Y-11648467D01*
X1249934Y-11646700D01*
X1243875Y-11646103D01*
X1243869Y-11646102D01*
X1050061Y-11627014D01*
X1044000Y-11626417D01*
X1037939Y-11627014D01*
X844130Y-11646102D01*
X844122Y-11646103D01*
X838066Y-11646700D01*
X832242Y-11648466D01*
X832235Y-11648468D01*
X645877Y-11704999D01*
X645875Y-11704999D01*
X640046Y-11706768D01*
X634679Y-11709636D01*
X634671Y-11709640D01*
X462920Y-11801444D01*
X462915Y-11801447D01*
X457550Y-11804315D01*
X452846Y-11808174D01*
X452842Y-11808178D01*
X302296Y-11931727D01*
X302290Y-11931732D01*
X297590Y-11935590D01*
X293732Y-11940290D01*
X293727Y-11940296D01*
X170178Y-12090842D01*
X170174Y-12090846D01*
X166315Y-12095550D01*
X163447Y-12100915D01*
X163444Y-12100920D01*
X73858Y-12268523D01*
X28248Y-12316427D01*
X-35500Y-12334069D01*
X-99248Y-12316427D01*
X-144858Y-12268523D01*
X-234445Y-12100920D01*
X-237315Y-12095550D01*
X-368590Y-11935590D01*
X-375826Y-11929652D01*
X-523843Y-11808178D01*
X-528550Y-11804315D01*
X-533921Y-11801444D01*
X-705672Y-11709640D01*
X-705677Y-11709638D01*
X-711046Y-11706768D01*
X-747644Y-11695666D01*
X-903236Y-11648468D01*
X-903241Y-11648467D01*
X-909066Y-11646700D01*
X-915125Y-11646103D01*
X-915131Y-11646102D01*
X-1108939Y-11627014D01*
X-1115000Y-11626417D01*
X-1121061Y-11627014D01*
X-1314870Y-11646102D01*
X-1314878Y-11646103D01*
X-1320934Y-11646700D01*
X-1326758Y-11648466D01*
X-1326765Y-11648468D01*
X-1513123Y-11704999D01*
X-1513125Y-11704999D01*
X-1518954Y-11706768D01*
X-1524321Y-11709636D01*
X-1524329Y-11709640D01*
X-1696080Y-11801444D01*
X-1696085Y-11801447D01*
X-1701450Y-11804315D01*
X-1706154Y-11808174D01*
X-1706158Y-11808178D01*
X-1856704Y-11931727D01*
X-1856710Y-11931732D01*
X-1861410Y-11935590D01*
X-1865268Y-11940290D01*
X-1865273Y-11940296D01*
X-1988822Y-12090842D01*
X-1988826Y-12090846D01*
X-1992685Y-12095550D01*
X-1995553Y-12100915D01*
X-1995556Y-12100920D01*
X-2087360Y-12272671D01*
X-2087364Y-12272679D01*
X-2090232Y-12278046D01*
X-2092001Y-12283875D01*
X-2092001Y-12283877D01*
X-2148532Y-12470235D01*
X-2148534Y-12470242D01*
X-2150300Y-12476066D01*
X-2150897Y-12482122D01*
X-2150898Y-12482130D01*
X-2169110Y-12667040D01*
X-2170583Y-12682000D01*
X-7679417Y-12682000D01*
X-7699700Y-12476066D01*
X-7759768Y-12278046D01*
X-7857315Y-12095550D01*
X-7988590Y-11935590D01*
X-7995826Y-11929652D01*
X-8143843Y-11808178D01*
X-8148550Y-11804315D01*
X-8153921Y-11801444D01*
X-8325672Y-11709640D01*
X-8325677Y-11709638D01*
X-8331046Y-11706768D01*
X-8367644Y-11695666D01*
X-8523236Y-11648468D01*
X-8523241Y-11648467D01*
X-8529066Y-11646700D01*
X-8535125Y-11646103D01*
X-8535131Y-11646102D01*
X-8728939Y-11627014D01*
X-8735000Y-11626417D01*
X-8741061Y-11627014D01*
X-8934870Y-11646102D01*
X-8934878Y-11646103D01*
X-8940934Y-11646700D01*
X-8946758Y-11648466D01*
X-8946765Y-11648468D01*
X-9133123Y-11704999D01*
X-9133125Y-11704999D01*
X-9138954Y-11706768D01*
X-9144321Y-11709636D01*
X-9144329Y-11709640D01*
X-9316080Y-11801444D01*
X-9316085Y-11801447D01*
X-9321450Y-11804315D01*
X-9326154Y-11808174D01*
X-9326158Y-11808178D01*
X-9476704Y-11931727D01*
X-9476710Y-11931732D01*
X-9481410Y-11935590D01*
X-9485268Y-11940290D01*
X-9485273Y-11940296D01*
X-9608822Y-12090842D01*
X-9608826Y-12090846D01*
X-9612685Y-12095550D01*
X-9615553Y-12100915D01*
X-9615556Y-12100920D01*
X-9707360Y-12272671D01*
X-9707364Y-12272679D01*
X-9710232Y-12278046D01*
X-9712001Y-12283875D01*
X-9712001Y-12283877D01*
X-9768532Y-12470235D01*
X-9768534Y-12470242D01*
X-9770300Y-12476066D01*
X-9770897Y-12482122D01*
X-9770898Y-12482130D01*
X-9789110Y-12667040D01*
X-9790583Y-12682000D01*
X-13965761Y-12682000D01*
X-14048671Y-12592515D01*
X-14051330Y-12589552D01*
X-14093784Y-12540674D01*
X-14305841Y-12296526D01*
X-14306945Y-12295237D01*
X-14606811Y-11940296D01*
X-14613168Y-11932771D01*
X-14615717Y-11929652D01*
X-14711403Y-11808599D01*
X-14837977Y-11648468D01*
X-14855837Y-11625873D01*
X-14856842Y-11624584D01*
X-15146677Y-11247802D01*
X-15149125Y-11244508D01*
X-15160765Y-11228293D01*
X-15374396Y-10930693D01*
X-15375280Y-10929445D01*
X-15389114Y-10909648D01*
X-15648165Y-10538933D01*
X-15650451Y-10535541D01*
X-15860404Y-10212496D01*
X-15861145Y-10211339D01*
X-16116468Y-9807801D01*
X-16118664Y-9804196D01*
X-16130817Y-9783456D01*
X-16312819Y-9472852D01*
X-16313449Y-9471762D01*
X-16550667Y-9055851D01*
X-16552714Y-9052112D01*
X-16706092Y-8760177D01*
X-16730682Y-8713374D01*
X-16731276Y-8712229D01*
X-16949810Y-8284719D01*
X-16951688Y-8280881D01*
X-17113251Y-7935429D01*
X-17113726Y-7934398D01*
X-17313038Y-7496071D01*
X-17314784Y-7492042D01*
X-17459548Y-7141042D01*
X-17459956Y-7140038D01*
X-17639620Y-6691491D01*
X-17641185Y-6687369D01*
X-17768980Y-6331646D01*
X-17769246Y-6330894D01*
X-17928830Y-5872756D01*
X-17930228Y-5868496D01*
X-18040777Y-5509353D01*
X-18041101Y-5508280D01*
X-18047658Y-5486259D01*
X-18180083Y-5041526D01*
X-18181285Y-5037200D01*
X-18274575Y-4675356D01*
X-18274710Y-4674825D01*
X-18392814Y-4199656D01*
X-18393832Y-4195204D01*
X-18469768Y-3831884D01*
X-18469854Y-3831465D01*
X-18566590Y-3348867D01*
X-18567408Y-3344345D01*
X-18625971Y-2980891D01*
X-18626026Y-2980545D01*
X-18701045Y-2490945D01*
X-18701657Y-2486356D01*
X-18716626Y-2355000D01*
X-16511525Y-2355000D01*
X-16491448Y-2648511D01*
X-16490587Y-2652658D01*
X-16490585Y-2652667D01*
X-16432456Y-2932397D01*
X-16431592Y-2936554D01*
X-16430174Y-2940546D01*
X-16430171Y-2940554D01*
X-16334493Y-3209767D01*
X-16333072Y-3213764D01*
X-16331125Y-3217522D01*
X-16331123Y-3217526D01*
X-16228142Y-3416268D01*
X-16197722Y-3474976D01*
X-16195276Y-3478441D01*
X-16030510Y-3711863D01*
X-16030506Y-3711868D01*
X-16028065Y-3715326D01*
X-15827260Y-3930335D01*
X-15599049Y-4115999D01*
X-15347682Y-4268859D01*
X-15343797Y-4270546D01*
X-15343796Y-4270547D01*
X-15081728Y-4384379D01*
X-15081724Y-4384380D01*
X-15077841Y-4386067D01*
X-15039660Y-4396764D01*
X-14998506Y-4417124D01*
X-14967580Y-4451067D01*
X-14948712Y-4481656D01*
X-14943607Y-4486761D01*
X-14941458Y-4489479D01*
X-14941261Y-4489752D01*
X-14941027Y-4490007D01*
X-14938798Y-4492663D01*
X-14934830Y-4498696D01*
X-14929577Y-4503652D01*
X-14929576Y-4503653D01*
X-14880291Y-4550151D01*
X-14877704Y-4552664D01*
X-9821326Y-9609042D01*
X-9796913Y-9643706D01*
X-9785604Y-9684567D01*
X-9770897Y-9833878D01*
X-9770300Y-9839934D01*
X-9710232Y-10037954D01*
X-9707362Y-10043323D01*
X-9707360Y-10043328D01*
X-9646610Y-10156981D01*
X-9612685Y-10220450D01*
X-9608822Y-10225157D01*
X-9536719Y-10313016D01*
X-9481410Y-10380410D01*
X-9321450Y-10511685D01*
X-9138954Y-10609232D01*
X-8940934Y-10669300D01*
X-8735000Y-10689583D01*
X-8529066Y-10669300D01*
X-8331046Y-10609232D01*
X-8148550Y-10511685D01*
X-8027871Y-10412646D01*
X-7990980Y-10391748D01*
X-7949206Y-10384500D01*
X-6639707Y-10384500D01*
X-6621736Y-10385809D01*
X-6617840Y-10386379D01*
X-6597977Y-10389289D01*
X-6548632Y-10384972D01*
X-6537824Y-10384500D01*
X-6535900Y-10384500D01*
X-6532291Y-10384500D01*
X-6501450Y-10380894D01*
X-6497969Y-10380539D01*
X-6423203Y-10373999D01*
X-6416347Y-10371726D01*
X-6412957Y-10371027D01*
X-6412625Y-10370973D01*
X-6412272Y-10370873D01*
X-6408929Y-10370080D01*
X-6401745Y-10369241D01*
X-6331240Y-10343579D01*
X-6327882Y-10342412D01*
X-6256666Y-10318814D01*
X-6250514Y-10315018D01*
X-6247393Y-10313564D01*
X-6247071Y-10313430D01*
X-6246762Y-10313258D01*
X-6243685Y-10311712D01*
X-6236883Y-10309237D01*
X-6174163Y-10267984D01*
X-6171268Y-10266140D01*
X-6107344Y-10226712D01*
X-6102237Y-10221603D01*
X-6099524Y-10219459D01*
X-6099242Y-10219254D01*
X-6098971Y-10219007D01*
X-6096342Y-10216800D01*
X-6090304Y-10212830D01*
X-6038814Y-10158252D01*
X-6036369Y-10155735D01*
X-5514634Y-9634000D01*
X-2170583Y-9634000D01*
X-2169986Y-9640061D01*
X-2150898Y-9833869D01*
X-2150897Y-9833875D01*
X-2150300Y-9839934D01*
X-2148534Y-9845756D01*
X-2148532Y-9845764D01*
X-2101875Y-9999572D01*
X-2090232Y-10037954D01*
X-2087362Y-10043323D01*
X-2087360Y-10043328D01*
X-2026610Y-10156981D01*
X-1992685Y-10220450D01*
X-1988822Y-10225157D01*
X-1916719Y-10313016D01*
X-1861410Y-10380410D01*
X-1701450Y-10511685D01*
X-1518954Y-10609232D01*
X-1320934Y-10669300D01*
X-1115000Y-10689583D01*
X-909066Y-10669300D01*
X-711046Y-10609232D01*
X-528550Y-10511685D01*
X-368590Y-10380410D01*
X-237315Y-10220450D01*
X-169378Y-10093350D01*
X-144858Y-10047477D01*
X-99249Y-9999572D01*
X-35500Y-9981930D01*
X28249Y-9999572D01*
X73858Y-10047477D01*
X163441Y-10215075D01*
X163444Y-10215079D01*
X166315Y-10220450D01*
X170178Y-10225157D01*
X242281Y-10313016D01*
X297590Y-10380410D01*
X457550Y-10511685D01*
X640046Y-10609232D01*
X838066Y-10669300D01*
X1044000Y-10689583D01*
X1249934Y-10669300D01*
X1447954Y-10609232D01*
X1630450Y-10511685D01*
X1790410Y-10380410D01*
X1921685Y-10220450D01*
X2019232Y-10037954D01*
X2079300Y-9839934D01*
X2085570Y-9776275D01*
X7622931Y-9776275D01*
X7628595Y-9833780D01*
X7630958Y-9845658D01*
X7687464Y-10031934D01*
X7692103Y-10043134D01*
X7783857Y-10214795D01*
X7790599Y-10224884D01*
X7914082Y-10375348D01*
X7922651Y-10383917D01*
X8073115Y-10507400D01*
X8083204Y-10514142D01*
X8254865Y-10605896D01*
X8266065Y-10610535D01*
X8452341Y-10667041D01*
X8464219Y-10669404D01*
X8521724Y-10675068D01*
X8535230Y-10672610D01*
X8539000Y-10659411D01*
X8789000Y-10659411D01*
X8792769Y-10672610D01*
X8806275Y-10675068D01*
X8863780Y-10669404D01*
X8875658Y-10667041D01*
X9061934Y-10610535D01*
X9073134Y-10605896D01*
X9244795Y-10514142D01*
X9254884Y-10507400D01*
X9405348Y-10383917D01*
X9413917Y-10375348D01*
X9537400Y-10224884D01*
X9544142Y-10214795D01*
X9635896Y-10043134D01*
X9640535Y-10031934D01*
X9697041Y-9845658D01*
X9699404Y-9833780D01*
X9705068Y-9776275D01*
X9702610Y-9762769D01*
X9689411Y-9759000D01*
X8805326Y-9759000D01*
X8792450Y-9762450D01*
X8789000Y-9775326D01*
X8789000Y-10659411D01*
X8539000Y-10659411D01*
X8539000Y-9775326D01*
X8535549Y-9762450D01*
X8522674Y-9759000D01*
X7638589Y-9759000D01*
X7625389Y-9762769D01*
X7622931Y-9776275D01*
X2085570Y-9776275D01*
X2099583Y-9634000D01*
X2085570Y-9491724D01*
X7622931Y-9491724D01*
X7625389Y-9505230D01*
X7638589Y-9509000D01*
X8522674Y-9509000D01*
X8535549Y-9505549D01*
X8539000Y-9492674D01*
X8789000Y-9492674D01*
X8792450Y-9505549D01*
X8805326Y-9509000D01*
X9689411Y-9509000D01*
X9702610Y-9505230D01*
X9705068Y-9491724D01*
X9699404Y-9434219D01*
X9697041Y-9422341D01*
X9640535Y-9236065D01*
X9635896Y-9224865D01*
X9544142Y-9053204D01*
X9537400Y-9043115D01*
X9413917Y-8892651D01*
X9405348Y-8884082D01*
X9254884Y-8760599D01*
X9244795Y-8753857D01*
X9073134Y-8662103D01*
X9061934Y-8657464D01*
X8875658Y-8600958D01*
X8863780Y-8598595D01*
X8806275Y-8592931D01*
X8792769Y-8595389D01*
X8789000Y-8608589D01*
X8789000Y-9492674D01*
X8539000Y-9492674D01*
X8539000Y-8608589D01*
X8535230Y-8595389D01*
X8521724Y-8592931D01*
X8464219Y-8598595D01*
X8452341Y-8600958D01*
X8266065Y-8657464D01*
X8254865Y-8662103D01*
X8083204Y-8753857D01*
X8073115Y-8760599D01*
X7922651Y-8884082D01*
X7914082Y-8892651D01*
X7790599Y-9043115D01*
X7783857Y-9053204D01*
X7692103Y-9224865D01*
X7687464Y-9236065D01*
X7630958Y-9422341D01*
X7628595Y-9434219D01*
X7622931Y-9491724D01*
X2085570Y-9491724D01*
X2079300Y-9428066D01*
X2019232Y-9230046D01*
X1921685Y-9047550D01*
X1790410Y-8887590D01*
X1630450Y-8756315D01*
X1547822Y-8712149D01*
X1453328Y-8661640D01*
X1453323Y-8661638D01*
X1447954Y-8658768D01*
X1411356Y-8647666D01*
X1255764Y-8600468D01*
X1255759Y-8600467D01*
X1249934Y-8598700D01*
X1243875Y-8598103D01*
X1243869Y-8598102D01*
X1060253Y-8580017D01*
X1044000Y-8578417D01*
X1029040Y-8579890D01*
X844130Y-8598102D01*
X844122Y-8598103D01*
X838066Y-8598700D01*
X832242Y-8600466D01*
X832235Y-8600468D01*
X645877Y-8656999D01*
X645875Y-8656999D01*
X640046Y-8658768D01*
X634679Y-8661636D01*
X634671Y-8661640D01*
X462920Y-8753444D01*
X462919Y-8753445D01*
X457550Y-8756315D01*
X452846Y-8760174D01*
X452842Y-8760178D01*
X302296Y-8883727D01*
X302290Y-8883732D01*
X297590Y-8887590D01*
X293732Y-8892290D01*
X293727Y-8892296D01*
X170178Y-9042842D01*
X170174Y-9042846D01*
X166315Y-9047550D01*
X163447Y-9052915D01*
X163444Y-9052920D01*
X73858Y-9220523D01*
X28248Y-9268427D01*
X-35500Y-9286069D01*
X-99248Y-9268427D01*
X-144858Y-9220523D01*
X-234445Y-9052920D01*
X-237315Y-9047550D01*
X-368590Y-8887590D01*
X-528550Y-8756315D01*
X-611178Y-8712149D01*
X-705672Y-8661640D01*
X-705677Y-8661638D01*
X-711046Y-8658768D01*
X-747644Y-8647666D01*
X-903236Y-8600468D01*
X-903241Y-8600467D01*
X-909066Y-8598700D01*
X-915125Y-8598103D01*
X-915131Y-8598102D01*
X-1098747Y-8580017D01*
X-1115000Y-8578417D01*
X-1129960Y-8579890D01*
X-1314870Y-8598102D01*
X-1314878Y-8598103D01*
X-1320934Y-8598700D01*
X-1326758Y-8600466D01*
X-1326765Y-8600468D01*
X-1513123Y-8656999D01*
X-1513125Y-8656999D01*
X-1518954Y-8658768D01*
X-1524321Y-8661636D01*
X-1524329Y-8661640D01*
X-1696080Y-8753444D01*
X-1696081Y-8753445D01*
X-1701450Y-8756315D01*
X-1706154Y-8760174D01*
X-1706158Y-8760178D01*
X-1856704Y-8883727D01*
X-1856710Y-8883732D01*
X-1861410Y-8887590D01*
X-1865268Y-8892290D01*
X-1865273Y-8892296D01*
X-1988822Y-9042842D01*
X-1988826Y-9042846D01*
X-1992685Y-9047550D01*
X-1995553Y-9052915D01*
X-1995556Y-9052920D01*
X-2087360Y-9224671D01*
X-2087364Y-9224679D01*
X-2090232Y-9230046D01*
X-2092001Y-9235875D01*
X-2092001Y-9235877D01*
X-2148532Y-9422235D01*
X-2148534Y-9422242D01*
X-2150300Y-9428066D01*
X-2150897Y-9434122D01*
X-2150898Y-9434130D01*
X-2168125Y-9609042D01*
X-2170583Y-9634000D01*
X-5514634Y-9634000D01*
X-2661362Y-6780727D01*
X-2647738Y-6768953D01*
X-2628470Y-6754610D01*
X-2596628Y-6716661D01*
X-2589314Y-6708681D01*
X-2588733Y-6708099D01*
X-2585410Y-6704777D01*
X-2566164Y-6680433D01*
X-2563942Y-6677706D01*
X-2515698Y-6620214D01*
X-2512453Y-6613751D01*
X-2510560Y-6610874D01*
X-2510356Y-6610591D01*
X-2510179Y-6610274D01*
X-2508377Y-6607352D01*
X-2503889Y-6601677D01*
X-2472184Y-6533682D01*
X-2470645Y-6530502D01*
X-2436960Y-6463433D01*
X-2435294Y-6456398D01*
X-2434119Y-6453172D01*
X-2433980Y-6452836D01*
X-2433882Y-6452491D01*
X-2432800Y-6449224D01*
X-2429744Y-6442673D01*
X-2414566Y-6369157D01*
X-2413814Y-6365768D01*
X-2396500Y-6292721D01*
X-2396500Y-6285490D01*
X-2396098Y-6282051D01*
X-2396044Y-6281714D01*
X-2396028Y-6281360D01*
X-2395729Y-6277933D01*
X-2394267Y-6270856D01*
X-2396448Y-6195889D01*
X-2396500Y-6192283D01*
X-2396500Y-4454951D01*
X-2387329Y-4408151D01*
X-2361174Y-4368274D01*
X-2321902Y-4341217D01*
X-2252357Y-4311009D01*
X-2155318Y-4268859D01*
X-1903951Y-4115999D01*
X-1675740Y-3930335D01*
X-1474935Y-3715326D01*
X-1305278Y-3474976D01*
X-1169928Y-3213764D01*
X-1071408Y-2936554D01*
X-1011552Y-2648511D01*
X-991475Y-2355000D01*
X920475Y-2355000D01*
X940552Y-2648511D01*
X941413Y-2652658D01*
X941415Y-2652667D01*
X999544Y-2932397D01*
X1000408Y-2936554D01*
X1001826Y-2940546D01*
X1001829Y-2940554D01*
X1097507Y-3209767D01*
X1098928Y-3213764D01*
X1100875Y-3217522D01*
X1100877Y-3217526D01*
X1203858Y-3416268D01*
X1234278Y-3474976D01*
X1236724Y-3478441D01*
X1401490Y-3711863D01*
X1401494Y-3711868D01*
X1403935Y-3715326D01*
X1604740Y-3930335D01*
X1832951Y-4115999D01*
X2084318Y-4268859D01*
X2088203Y-4270546D01*
X2088204Y-4270547D01*
X2350272Y-4384379D01*
X2354159Y-4386067D01*
X2577775Y-4448721D01*
X2633365Y-4464297D01*
X2633367Y-4464297D01*
X2637445Y-4465440D01*
X2928902Y-4505500D01*
X3218861Y-4505500D01*
X3223098Y-4505500D01*
X3514555Y-4465440D01*
X3797841Y-4386067D01*
X3893239Y-4344629D01*
X3941223Y-4334373D01*
X3989435Y-4343536D01*
X4030316Y-4370684D01*
X6223270Y-6563638D01*
X6235052Y-6577271D01*
X6249390Y-6596530D01*
X6254917Y-6601167D01*
X6254922Y-6601173D01*
X6287337Y-6628372D01*
X6295313Y-6635681D01*
X6299223Y-6639591D01*
X6323556Y-6658831D01*
X6326310Y-6661073D01*
X6383786Y-6709302D01*
X6390245Y-6712546D01*
X6393134Y-6714446D01*
X6393413Y-6714648D01*
X6393713Y-6714815D01*
X6396654Y-6716629D01*
X6402323Y-6721111D01*
X6450832Y-6743731D01*
X6470321Y-6752819D01*
X6473534Y-6754374D01*
X6540567Y-6788040D01*
X6547594Y-6789705D01*
X6550835Y-6790885D01*
X6551163Y-6791020D01*
X6551503Y-6791117D01*
X6554774Y-6792201D01*
X6561327Y-6795257D01*
X6634815Y-6810429D01*
X6638293Y-6811201D01*
X6711279Y-6828500D01*
X6718509Y-6828500D01*
X6721949Y-6828902D01*
X6722285Y-6828956D01*
X6722640Y-6828972D01*
X6726066Y-6829271D01*
X6733144Y-6830733D01*
X6808110Y-6828552D01*
X6811717Y-6828500D01*
X10592293Y-6828500D01*
X10610264Y-6829809D01*
X10614160Y-6830379D01*
X10634023Y-6833289D01*
X10683368Y-6828972D01*
X10694176Y-6828500D01*
X10696100Y-6828500D01*
X10699709Y-6828500D01*
X10730550Y-6824894D01*
X10734031Y-6824539D01*
X10808797Y-6817999D01*
X10815653Y-6815726D01*
X10819043Y-6815027D01*
X10819375Y-6814973D01*
X10819728Y-6814873D01*
X10823071Y-6814080D01*
X10830255Y-6813241D01*
X10900760Y-6787579D01*
X10904118Y-6786412D01*
X10975334Y-6762814D01*
X10981486Y-6759018D01*
X10984607Y-6757564D01*
X10984929Y-6757430D01*
X10985238Y-6757258D01*
X10988315Y-6755712D01*
X10995117Y-6753237D01*
X11057837Y-6711984D01*
X11060732Y-6710140D01*
X11124656Y-6670712D01*
X11129763Y-6665603D01*
X11132476Y-6663459D01*
X11132758Y-6663254D01*
X11133029Y-6663007D01*
X11135659Y-6660799D01*
X11141696Y-6656830D01*
X11193185Y-6602253D01*
X11195630Y-6599736D01*
X13424684Y-4370682D01*
X13465563Y-4343536D01*
X13513775Y-4334373D01*
X13561762Y-4344630D01*
X13621744Y-4370684D01*
X13653272Y-4384379D01*
X13657159Y-4386067D01*
X13880775Y-4448721D01*
X13936365Y-4464297D01*
X13936367Y-4464297D01*
X13940445Y-4465440D01*
X14231902Y-4505500D01*
X14521861Y-4505500D01*
X14526098Y-4505500D01*
X14817555Y-4465440D01*
X15100841Y-4386067D01*
X15370682Y-4268859D01*
X15622049Y-4115999D01*
X15850260Y-3930335D01*
X16051065Y-3715326D01*
X16220722Y-3474976D01*
X16356072Y-3213764D01*
X16454592Y-2936554D01*
X16514448Y-2648511D01*
X16534525Y-2355000D01*
X16514448Y-2061489D01*
X16454592Y-1773446D01*
X16356072Y-1496236D01*
X16220722Y-1235024D01*
X16051065Y-994674D01*
X15850260Y-779665D01*
X15622049Y-594001D01*
X15509274Y-525421D01*
X15374300Y-443341D01*
X15374298Y-443340D01*
X15370682Y-441141D01*
X15366802Y-439455D01*
X15366795Y-439452D01*
X15104722Y-325618D01*
X15104712Y-325614D01*
X15100841Y-323933D01*
X15096769Y-322792D01*
X14821634Y-245702D01*
X14821621Y-245699D01*
X14817555Y-244560D01*
X14813368Y-243984D01*
X14813356Y-243982D01*
X14530295Y-205076D01*
X14530282Y-205075D01*
X14526098Y-204500D01*
X14231902Y-204500D01*
X14227718Y-205075D01*
X14227704Y-205076D01*
X13944643Y-243982D01*
X13944628Y-243984D01*
X13940445Y-244560D01*
X13936381Y-245698D01*
X13936365Y-245702D01*
X13661230Y-322792D01*
X13661225Y-322793D01*
X13657159Y-323933D01*
X13653291Y-325612D01*
X13653277Y-325618D01*
X13391204Y-439452D01*
X13391191Y-439458D01*
X13387318Y-441141D01*
X13383707Y-443336D01*
X13383699Y-443341D01*
X13139563Y-591804D01*
X13139557Y-591807D01*
X13135951Y-594001D01*
X13132676Y-596664D01*
X13132668Y-596671D01*
X12911025Y-776992D01*
X12911021Y-776995D01*
X12907740Y-779665D01*
X12904861Y-782747D01*
X12904852Y-782756D01*
X12709823Y-991581D01*
X12709818Y-991586D01*
X12706935Y-994674D01*
X12704499Y-998124D01*
X12704490Y-998136D01*
X12539724Y-1231558D01*
X12539720Y-1231563D01*
X12537278Y-1235024D01*
X12535332Y-1238778D01*
X12535328Y-1238786D01*
X12403877Y-1492473D01*
X12403872Y-1492483D01*
X12401928Y-1496236D01*
X12400511Y-1500221D01*
X12400507Y-1500232D01*
X12304829Y-1769445D01*
X12304825Y-1769457D01*
X12303408Y-1773446D01*
X12302545Y-1777596D01*
X12302544Y-1777602D01*
X12244415Y-2057332D01*
X12244413Y-2057343D01*
X12243552Y-2061489D01*
X12243263Y-2065713D01*
X12243262Y-2065721D01*
X12230224Y-2256329D01*
X12223475Y-2355000D01*
X12243552Y-2648511D01*
X12244413Y-2652658D01*
X12244415Y-2652667D01*
X12302544Y-2932397D01*
X12303408Y-2936554D01*
X12304826Y-2940546D01*
X12304829Y-2940554D01*
X12390624Y-3181959D01*
X12394742Y-3250782D01*
X12361465Y-3311165D01*
X10381451Y-5291181D01*
X10341223Y-5318061D01*
X10293770Y-5327500D01*
X7161230Y-5327500D01*
X7113777Y-5318061D01*
X7073549Y-5291181D01*
X5592368Y-3810000D01*
X7784785Y-3810000D01*
X7803603Y-4013083D01*
X7805171Y-4018594D01*
X7805173Y-4018604D01*
X7857847Y-4203731D01*
X7857849Y-4203737D01*
X7859418Y-4209250D01*
X7861976Y-4214387D01*
X7941263Y-4373619D01*
X7950327Y-4391821D01*
X7953779Y-4396392D01*
X8069778Y-4550001D01*
X8069783Y-4550006D01*
X8073236Y-4554579D01*
X8077472Y-4558440D01*
X8077476Y-4558445D01*
X8179130Y-4651114D01*
X8223959Y-4691981D01*
X8397363Y-4799348D01*
X8587544Y-4873024D01*
X8788024Y-4910500D01*
X8986247Y-4910500D01*
X8991976Y-4910500D01*
X9192456Y-4873024D01*
X9382637Y-4799348D01*
X9556041Y-4691981D01*
X9706764Y-4554579D01*
X9829673Y-4391821D01*
X9920582Y-4209250D01*
X9976397Y-4013083D01*
X9995215Y-3810000D01*
X9976397Y-3606917D01*
X9920582Y-3410750D01*
X9829673Y-3228179D01*
X9781176Y-3163959D01*
X9710221Y-3069998D01*
X9710217Y-3069994D01*
X9706764Y-3065421D01*
X9702527Y-3061558D01*
X9702523Y-3061554D01*
X9560275Y-2931879D01*
X9560276Y-2931879D01*
X9556041Y-2928019D01*
X9551171Y-2925004D01*
X9551169Y-2925002D01*
X9387511Y-2823670D01*
X9387512Y-2823670D01*
X9382637Y-2820652D01*
X9377294Y-2818582D01*
X9197803Y-2749047D01*
X9197798Y-2749045D01*
X9192456Y-2746976D01*
X9186818Y-2745922D01*
X8997605Y-2710552D01*
X8997602Y-2710551D01*
X8991976Y-2709500D01*
X8788024Y-2709500D01*
X8782398Y-2710551D01*
X8782394Y-2710552D01*
X8593181Y-2745922D01*
X8593178Y-2745922D01*
X8587544Y-2746976D01*
X8582203Y-2749044D01*
X8582196Y-2749047D01*
X8402705Y-2818582D01*
X8402700Y-2818584D01*
X8397363Y-2820652D01*
X8392491Y-2823668D01*
X8392488Y-2823670D01*
X8228830Y-2925002D01*
X8228822Y-2925007D01*
X8223959Y-2928019D01*
X8219728Y-2931875D01*
X8219724Y-2931879D01*
X8077476Y-3061554D01*
X8077466Y-3061564D01*
X8073236Y-3065421D01*
X8069787Y-3069987D01*
X8069778Y-3069998D01*
X7953779Y-3223607D01*
X7953776Y-3223611D01*
X7950327Y-3228179D01*
X7947774Y-3233304D01*
X7947772Y-3233309D01*
X7861976Y-3405612D01*
X7859418Y-3410750D01*
X7857850Y-3416258D01*
X7857847Y-3416268D01*
X7805173Y-3601395D01*
X7805170Y-3601406D01*
X7803603Y-3606917D01*
X7803073Y-3612627D01*
X7803073Y-3612632D01*
X7793271Y-3718418D01*
X7784785Y-3810000D01*
X5592368Y-3810000D01*
X5093534Y-3311166D01*
X5060257Y-3250783D01*
X5064375Y-3181960D01*
X5107167Y-3061554D01*
X5151592Y-2936554D01*
X5211448Y-2648511D01*
X5231525Y-2355000D01*
X5211448Y-2061489D01*
X5151592Y-1773446D01*
X5053072Y-1496236D01*
X4935845Y-1270000D01*
X7784785Y-1270000D01*
X7803603Y-1473083D01*
X7805171Y-1478594D01*
X7805173Y-1478604D01*
X7857847Y-1663731D01*
X7857849Y-1663737D01*
X7859418Y-1669250D01*
X7950327Y-1851821D01*
X7953779Y-1856392D01*
X8069778Y-2010001D01*
X8069783Y-2010006D01*
X8073236Y-2014579D01*
X8077472Y-2018440D01*
X8077476Y-2018445D01*
X8166784Y-2099859D01*
X8223959Y-2151981D01*
X8397363Y-2259348D01*
X8587544Y-2333024D01*
X8788024Y-2370500D01*
X8986247Y-2370500D01*
X8991976Y-2370500D01*
X9192456Y-2333024D01*
X9382637Y-2259348D01*
X9556041Y-2151981D01*
X9706764Y-2014579D01*
X9829673Y-1851821D01*
X9920582Y-1669250D01*
X9976397Y-1473083D01*
X9995215Y-1270000D01*
X9976397Y-1066917D01*
X9920582Y-870750D01*
X9829673Y-688179D01*
X9781176Y-623959D01*
X9710221Y-529998D01*
X9710217Y-529994D01*
X9706764Y-525421D01*
X9702527Y-521558D01*
X9702523Y-521554D01*
X9560275Y-391879D01*
X9560276Y-391879D01*
X9556041Y-388019D01*
X9551171Y-385004D01*
X9551169Y-385002D01*
X9387511Y-283670D01*
X9387512Y-283670D01*
X9382637Y-280652D01*
X9377294Y-278582D01*
X9197803Y-209047D01*
X9197798Y-209045D01*
X9192456Y-206976D01*
X9182292Y-205076D01*
X8997605Y-170552D01*
X8997602Y-170551D01*
X8991976Y-169500D01*
X8788024Y-169500D01*
X8782398Y-170551D01*
X8782394Y-170552D01*
X8593181Y-205922D01*
X8593178Y-205922D01*
X8587544Y-206976D01*
X8582203Y-209044D01*
X8582196Y-209047D01*
X8402705Y-278582D01*
X8402700Y-278584D01*
X8397363Y-280652D01*
X8392491Y-283668D01*
X8392488Y-283670D01*
X8228830Y-385002D01*
X8228822Y-385007D01*
X8223959Y-388019D01*
X8219728Y-391875D01*
X8219724Y-391879D01*
X8077476Y-521554D01*
X8077466Y-521564D01*
X8073236Y-525421D01*
X8069787Y-529987D01*
X8069778Y-529998D01*
X7953779Y-683607D01*
X7953776Y-683611D01*
X7950327Y-688179D01*
X7947774Y-693304D01*
X7947772Y-693309D01*
X7861976Y-865612D01*
X7859418Y-870750D01*
X7857850Y-876258D01*
X7857847Y-876268D01*
X7805173Y-1061395D01*
X7805170Y-1061406D01*
X7803603Y-1066917D01*
X7784785Y-1270000D01*
X4935845Y-1270000D01*
X4917722Y-1235024D01*
X4748065Y-994674D01*
X4547260Y-779665D01*
X4319049Y-594001D01*
X4206274Y-525421D01*
X4071300Y-443341D01*
X4071298Y-443340D01*
X4067682Y-441141D01*
X4063802Y-439455D01*
X4063795Y-439452D01*
X3801722Y-325618D01*
X3801712Y-325614D01*
X3797841Y-323933D01*
X3793769Y-322792D01*
X3518634Y-245702D01*
X3518621Y-245699D01*
X3514555Y-244560D01*
X3510368Y-243984D01*
X3510356Y-243982D01*
X3227295Y-205076D01*
X3227282Y-205075D01*
X3223098Y-204500D01*
X2928902Y-204500D01*
X2924718Y-205075D01*
X2924704Y-205076D01*
X2641643Y-243982D01*
X2641628Y-243984D01*
X2637445Y-244560D01*
X2633381Y-245698D01*
X2633365Y-245702D01*
X2358230Y-322792D01*
X2358225Y-322793D01*
X2354159Y-323933D01*
X2350291Y-325612D01*
X2350277Y-325618D01*
X2088204Y-439452D01*
X2088191Y-439458D01*
X2084318Y-441141D01*
X2080707Y-443336D01*
X2080699Y-443341D01*
X1836563Y-591804D01*
X1836557Y-591807D01*
X1832951Y-594001D01*
X1829676Y-596664D01*
X1829668Y-596671D01*
X1608025Y-776992D01*
X1608021Y-776995D01*
X1604740Y-779665D01*
X1601861Y-782747D01*
X1601852Y-782756D01*
X1406823Y-991581D01*
X1406818Y-991586D01*
X1403935Y-994674D01*
X1401499Y-998124D01*
X1401490Y-998136D01*
X1236724Y-1231558D01*
X1236720Y-1231563D01*
X1234278Y-1235024D01*
X1232332Y-1238778D01*
X1232328Y-1238786D01*
X1100877Y-1492473D01*
X1100872Y-1492483D01*
X1098928Y-1496236D01*
X1097511Y-1500221D01*
X1097507Y-1500232D01*
X1001829Y-1769445D01*
X1001825Y-1769457D01*
X1000408Y-1773446D01*
X999545Y-1777596D01*
X999544Y-1777602D01*
X941415Y-2057332D01*
X941413Y-2057343D01*
X940552Y-2061489D01*
X940263Y-2065713D01*
X940262Y-2065721D01*
X927224Y-2256329D01*
X920475Y-2355000D01*
X-991475Y-2355000D01*
X-1011552Y-2061489D01*
X-1071408Y-1773446D01*
X-1169928Y-1496236D01*
X-1305278Y-1235024D01*
X-1474935Y-994674D01*
X-1675740Y-779665D01*
X-1903951Y-594001D01*
X-2016726Y-525421D01*
X-2151700Y-443341D01*
X-2151702Y-443340D01*
X-2155318Y-441141D01*
X-2159198Y-439455D01*
X-2159205Y-439452D01*
X-2421278Y-325618D01*
X-2421288Y-325614D01*
X-2425159Y-323933D01*
X-2429231Y-322792D01*
X-2704366Y-245702D01*
X-2704379Y-245699D01*
X-2708445Y-244560D01*
X-2712632Y-243984D01*
X-2712644Y-243982D01*
X-2995705Y-205076D01*
X-2995718Y-205075D01*
X-2999902Y-204500D01*
X-3294098Y-204500D01*
X-3298282Y-205075D01*
X-3298296Y-205076D01*
X-3581357Y-243982D01*
X-3581372Y-243984D01*
X-3585555Y-244560D01*
X-3589619Y-245698D01*
X-3589635Y-245702D01*
X-3864770Y-322792D01*
X-3864775Y-322793D01*
X-3868841Y-323933D01*
X-3872709Y-325612D01*
X-3872723Y-325618D01*
X-4134799Y-439454D01*
X-4134804Y-439456D01*
X-4138682Y-441141D01*
X-4142293Y-443336D01*
X-4142301Y-443341D01*
X-4188754Y-471590D01*
X-4240502Y-488992D01*
X-4294707Y-482482D01*
X-4340863Y-453323D01*
X-5077505Y283319D01*
X-5107755Y332682D01*
X-5112297Y390398D01*
X-5090142Y443885D01*
X-5046119Y481485D01*
X-4989824Y495000D01*
X-3288326Y495000D01*
X-3275451Y498451D01*
X-3272000Y511326D01*
X-3022000Y511326D01*
X-3018550Y498451D01*
X-3005674Y495000D01*
X-1228472Y495000D01*
X-1216396Y496190D01*
X-1161434Y507123D01*
X-1139301Y516290D01*
X-1076914Y557976D01*
X-1059976Y574914D01*
X-1018290Y637301D01*
X-1009123Y659434D01*
X-998190Y714396D01*
X-997606Y720326D01*
X925500Y720326D01*
X926688Y714351D01*
X926689Y714347D01*
X937650Y659241D01*
X937651Y659238D01*
X940034Y647260D01*
X995399Y564399D01*
X1078260Y509034D01*
X1151326Y494500D01*
X4994579Y494500D01*
X5000674Y494500D01*
X5073740Y509034D01*
X5156601Y564399D01*
X5211966Y647260D01*
X5226500Y720326D01*
X5226500Y1270000D01*
X7784785Y1270000D01*
X7785314Y1264291D01*
X7796367Y1145000D01*
X7803603Y1066917D01*
X7805171Y1061406D01*
X7805173Y1061396D01*
X7857847Y876269D01*
X7857849Y876263D01*
X7859418Y870750D01*
X7861976Y865613D01*
X7916881Y755347D01*
X7950327Y688179D01*
X7953779Y683608D01*
X8069778Y529999D01*
X8069783Y529994D01*
X8073236Y525421D01*
X8077472Y521560D01*
X8077476Y521555D01*
X8141876Y462847D01*
X8223959Y388019D01*
X8397363Y280652D01*
X8587544Y206976D01*
X8788024Y169500D01*
X8986247Y169500D01*
X8991976Y169500D01*
X9192456Y206976D01*
X9382637Y280652D01*
X9556041Y388019D01*
X9706764Y525421D01*
X9829673Y688179D01*
X9920582Y870750D01*
X9976397Y1066917D01*
X9995215Y1270000D01*
X9976397Y1473083D01*
X9920582Y1669250D01*
X9829673Y1851821D01*
X9781176Y1916041D01*
X9710221Y2010002D01*
X9710217Y2010006D01*
X9706764Y2014579D01*
X9702527Y2018442D01*
X9702523Y2018446D01*
X9560275Y2148121D01*
X9560276Y2148121D01*
X9556041Y2151981D01*
X9551171Y2154996D01*
X9551169Y2154998D01*
X9387511Y2256330D01*
X9387512Y2256330D01*
X9382637Y2259348D01*
X9377294Y2261418D01*
X9197803Y2330953D01*
X9197798Y2330955D01*
X9192456Y2333024D01*
X9186818Y2334078D01*
X8997605Y2369448D01*
X8997602Y2369449D01*
X8991976Y2370500D01*
X8788024Y2370500D01*
X8782398Y2369449D01*
X8782394Y2369448D01*
X8593181Y2334078D01*
X8593178Y2334078D01*
X8587544Y2333024D01*
X8582203Y2330956D01*
X8582196Y2330953D01*
X8402705Y2261418D01*
X8402700Y2261416D01*
X8397363Y2259348D01*
X8392491Y2256332D01*
X8392488Y2256330D01*
X8228830Y2154998D01*
X8228822Y2154993D01*
X8223959Y2151981D01*
X8219728Y2148125D01*
X8219724Y2148121D01*
X8077476Y2018446D01*
X8077466Y2018436D01*
X8073236Y2014579D01*
X8069787Y2010013D01*
X8069778Y2010002D01*
X7953779Y1856393D01*
X7953776Y1856389D01*
X7950327Y1851821D01*
X7947774Y1846696D01*
X7947772Y1846691D01*
X7947640Y1846425D01*
X7859418Y1669250D01*
X7857850Y1663742D01*
X7857847Y1663732D01*
X7805173Y1478605D01*
X7805170Y1478594D01*
X7803603Y1473083D01*
X7803073Y1467373D01*
X7803073Y1467368D01*
X7785314Y1275709D01*
X7784785Y1270000D01*
X5226500Y1270000D01*
X5226500Y3682770D01*
X5235939Y3730223D01*
X5262819Y3770451D01*
X5302368Y3810000D01*
X7784785Y3810000D01*
X7785314Y3804291D01*
X7799580Y3650325D01*
X7803603Y3606917D01*
X7805171Y3601406D01*
X7805173Y3601396D01*
X7857847Y3416269D01*
X7857849Y3416263D01*
X7859418Y3410750D01*
X7950327Y3228179D01*
X7953779Y3223608D01*
X8069778Y3069999D01*
X8069783Y3069994D01*
X8073236Y3065421D01*
X8077472Y3061560D01*
X8077476Y3061555D01*
X8111733Y3030326D01*
X8223959Y2928019D01*
X8397363Y2820652D01*
X8587544Y2746976D01*
X8788024Y2709500D01*
X8986247Y2709500D01*
X8991976Y2709500D01*
X9192456Y2746976D01*
X9382637Y2820652D01*
X9556041Y2928019D01*
X9706764Y3065421D01*
X9829673Y3228179D01*
X9920582Y3410750D01*
X9976397Y3606917D01*
X9995215Y3810000D01*
X9976397Y4013083D01*
X9920582Y4209250D01*
X9829673Y4391821D01*
X9743125Y4506429D01*
X9710221Y4550002D01*
X9710217Y4550006D01*
X9706764Y4554579D01*
X9702527Y4558442D01*
X9702523Y4558446D01*
X9560275Y4688121D01*
X9560276Y4688121D01*
X9556041Y4691981D01*
X9551171Y4694996D01*
X9551169Y4694998D01*
X9393495Y4792625D01*
X9382637Y4799348D01*
X9368205Y4804939D01*
X9197803Y4870953D01*
X9197798Y4870955D01*
X9192456Y4873024D01*
X9180457Y4875267D01*
X8997605Y4909448D01*
X8997602Y4909449D01*
X8991976Y4910500D01*
X8788024Y4910500D01*
X8782398Y4909449D01*
X8782394Y4909448D01*
X8593181Y4874078D01*
X8593178Y4874078D01*
X8587544Y4873024D01*
X8582203Y4870956D01*
X8582196Y4870953D01*
X8402705Y4801418D01*
X8402700Y4801416D01*
X8397363Y4799348D01*
X8392494Y4796333D01*
X8392488Y4796330D01*
X8228830Y4694998D01*
X8228822Y4694993D01*
X8223959Y4691981D01*
X8219728Y4688125D01*
X8219724Y4688121D01*
X8077476Y4558446D01*
X8077466Y4558436D01*
X8073236Y4554579D01*
X8069787Y4550013D01*
X8069778Y4550002D01*
X7953779Y4396393D01*
X7953776Y4396389D01*
X7950327Y4391821D01*
X7947774Y4386696D01*
X7947772Y4386691D01*
X7861976Y4214388D01*
X7859418Y4209250D01*
X7857850Y4203742D01*
X7857847Y4203732D01*
X7805173Y4018605D01*
X7805170Y4018594D01*
X7803603Y4013083D01*
X7803073Y4007373D01*
X7803073Y4007368D01*
X7795615Y3926879D01*
X7784785Y3810000D01*
X5302368Y3810000D01*
X6819549Y5327181D01*
X6859777Y5354061D01*
X6907230Y5363500D01*
X10547770Y5363500D01*
X10595223Y5354061D01*
X10635451Y5327181D01*
X12192181Y3770451D01*
X12219061Y3730223D01*
X12228500Y3682770D01*
X12228500Y720326D01*
X12229688Y714351D01*
X12229689Y714347D01*
X12240650Y659241D01*
X12240651Y659238D01*
X12243034Y647260D01*
X12298399Y564399D01*
X12381260Y509034D01*
X12454326Y494500D01*
X16297579Y494500D01*
X16303674Y494500D01*
X16376740Y509034D01*
X16459601Y564399D01*
X16514966Y647260D01*
X16529500Y720326D01*
X16529500Y4569674D01*
X16514966Y4642740D01*
X16459601Y4725601D01*
X16376740Y4780966D01*
X16364762Y4783349D01*
X16364759Y4783350D01*
X16309653Y4794311D01*
X16309649Y4794312D01*
X16303674Y4795500D01*
X16297579Y4795500D01*
X13341229Y4795500D01*
X13293776Y4804939D01*
X13253548Y4831819D01*
X12380516Y5704851D01*
X11485729Y6599639D01*
X11473947Y6613273D01*
X11463925Y6626735D01*
X11463921Y6626739D01*
X11459610Y6632530D01*
X11421667Y6664369D01*
X11413691Y6671677D01*
X11412329Y6673039D01*
X11412329Y6673040D01*
X11409777Y6675591D01*
X11406953Y6677824D01*
X11406944Y6677832D01*
X11385445Y6694830D01*
X11382674Y6697087D01*
X11325214Y6745302D01*
X11318760Y6748544D01*
X11315859Y6750452D01*
X11315588Y6750648D01*
X11315292Y6750813D01*
X11312339Y6752634D01*
X11306677Y6757111D01*
X11300134Y6760162D01*
X11300131Y6760164D01*
X11238692Y6788814D01*
X11235446Y6790385D01*
X11230205Y6793017D01*
X11168433Y6824040D01*
X11161409Y6825705D01*
X11158151Y6826891D01*
X11157832Y6827023D01*
X11157504Y6827116D01*
X11154218Y6828205D01*
X11147673Y6831257D01*
X11140604Y6832717D01*
X11140600Y6832718D01*
X11074212Y6846426D01*
X11070691Y6847206D01*
X11004741Y6862837D01*
X11004734Y6862838D01*
X10997721Y6864500D01*
X10990510Y6864500D01*
X10987061Y6864903D01*
X10986727Y6864957D01*
X10986374Y6864972D01*
X10982929Y6865274D01*
X10975856Y6866734D01*
X10968638Y6866524D01*
X10900870Y6864552D01*
X10897263Y6864500D01*
X6608707Y6864500D01*
X6590736Y6865809D01*
X6574126Y6868242D01*
X6574124Y6868243D01*
X6566977Y6869289D01*
X6559784Y6868660D01*
X6559778Y6868660D01*
X6517631Y6864972D01*
X6506824Y6864500D01*
X6501291Y6864500D01*
X6497730Y6864084D01*
X6497715Y6864083D01*
X6470501Y6860902D01*
X6466916Y6860536D01*
X6399393Y6854629D01*
X6399385Y6854628D01*
X6392203Y6853999D01*
X6385352Y6851730D01*
X6381935Y6851024D01*
X6381619Y6850973D01*
X6381295Y6850881D01*
X6377913Y6850080D01*
X6370745Y6849241D01*
X6363968Y6846775D01*
X6363957Y6846772D01*
X6300231Y6823579D01*
X6296831Y6822397D01*
X6266863Y6812467D01*
X6225666Y6798814D01*
X6219528Y6795029D01*
X6216367Y6793555D01*
X6216061Y6793429D01*
X6215781Y6793272D01*
X6212659Y6791704D01*
X6205883Y6789237D01*
X6199855Y6785273D01*
X6199854Y6785272D01*
X6143220Y6748024D01*
X6140182Y6746089D01*
X6082492Y6710505D01*
X6082483Y6710499D01*
X6076345Y6706712D01*
X6071243Y6701611D01*
X6068504Y6699445D01*
X6068239Y6699255D01*
X6067995Y6699030D01*
X6065331Y6696795D01*
X6059304Y6692830D01*
X6054355Y6687586D01*
X6054353Y6687583D01*
X6007832Y6638274D01*
X6005320Y6635689D01*
X4201451Y4831819D01*
X4161223Y4804939D01*
X4113770Y4795500D01*
X1151326Y4795500D01*
X1145351Y4794312D01*
X1145346Y4794311D01*
X1090240Y4783350D01*
X1090235Y4783349D01*
X1078260Y4780966D01*
X1068105Y4774181D01*
X1068103Y4774180D01*
X1005551Y4732385D01*
X1005548Y4732383D01*
X995399Y4725601D01*
X988617Y4715452D01*
X988615Y4715449D01*
X946820Y4652897D01*
X946819Y4652895D01*
X940034Y4642740D01*
X937651Y4630765D01*
X937650Y4630760D01*
X926689Y4575654D01*
X926688Y4575649D01*
X925500Y4569674D01*
X925500Y720326D01*
X-997606Y720326D01*
X-997000Y726472D01*
X-997000Y2503674D01*
X-1000451Y2516550D01*
X-1013326Y2520000D01*
X-3005674Y2520000D01*
X-3018550Y2516550D01*
X-3022000Y2503674D01*
X-3022000Y511326D01*
X-3272000Y511326D01*
X-3272000Y2503674D01*
X-3275451Y2516550D01*
X-3288326Y2520000D01*
X-5280674Y2520000D01*
X-5293550Y2516550D01*
X-5297000Y2503674D01*
X-5297000Y802176D01*
X-5310515Y745881D01*
X-5348115Y701858D01*
X-5401602Y679703D01*
X-5459318Y684245D01*
X-5508681Y714495D01*
X-5912181Y1117995D01*
X-5939061Y1158223D01*
X-5948500Y1205676D01*
X-5948500Y2786326D01*
X-5297000Y2786326D01*
X-5293550Y2773451D01*
X-5280674Y2770000D01*
X-3288326Y2770000D01*
X-3275451Y2773451D01*
X-3272000Y2786326D01*
X-3022000Y2786326D01*
X-3018550Y2773451D01*
X-3005674Y2770000D01*
X-1013326Y2770000D01*
X-1000451Y2773451D01*
X-997000Y2786326D01*
X-997000Y4563528D01*
X-998190Y4575605D01*
X-1009123Y4630567D01*
X-1018290Y4652700D01*
X-1059976Y4715087D01*
X-1076914Y4732025D01*
X-1139301Y4773711D01*
X-1161434Y4782878D01*
X-1216396Y4793811D01*
X-1228472Y4795000D01*
X-3005674Y4795000D01*
X-3018550Y4791550D01*
X-3022000Y4778674D01*
X-3022000Y2786326D01*
X-3272000Y2786326D01*
X-3272000Y4778674D01*
X-3275451Y4791550D01*
X-3288326Y4795000D01*
X-5065528Y4795000D01*
X-5077605Y4793811D01*
X-5132567Y4782878D01*
X-5154700Y4773711D01*
X-5217087Y4732025D01*
X-5234025Y4715087D01*
X-5275711Y4652700D01*
X-5284878Y4630567D01*
X-5295811Y4575605D01*
X-5297000Y4563528D01*
X-5297000Y2786326D01*
X-5948500Y2786326D01*
X-5948500Y3841856D01*
X-5947044Y3855406D01*
X-5947159Y3855414D01*
X-5946527Y3864261D01*
X-5944641Y3872927D01*
X-5948185Y3922462D01*
X-5948500Y3931308D01*
X-5948500Y3940364D01*
X-5948500Y3944799D01*
X-5950422Y3958163D01*
X-5951367Y3966954D01*
X-5954909Y4016483D01*
X-5958010Y4024796D01*
X-5959894Y4033460D01*
X-5959780Y4033485D01*
X-5959963Y4034202D01*
X-5960075Y4034168D01*
X-5962573Y4042674D01*
X-5963835Y4051457D01*
X-5984470Y4096640D01*
X-5987841Y4104778D01*
X-6005204Y4151331D01*
X-6010522Y4158435D01*
X-6014770Y4166215D01*
X-6014668Y4166271D01*
X-6015047Y4166910D01*
X-6015145Y4166846D01*
X-6019939Y4174305D01*
X-6023623Y4182373D01*
X-6056148Y4219909D01*
X-6061702Y4226802D01*
X-6067122Y4234042D01*
X-6069780Y4237593D01*
X-6079317Y4247130D01*
X-6085349Y4253609D01*
X-6112065Y4284441D01*
X-6112064Y4284441D01*
X-6117872Y4291143D01*
X-6125334Y4295939D01*
X-6132035Y4301745D01*
X-6131960Y4301833D01*
X-6142572Y4310385D01*
X-7753181Y5920995D01*
X-7780061Y5961223D01*
X-7789500Y6008676D01*
X-7789500Y7218579D01*
X-7789500Y7224674D01*
X-7804034Y7297740D01*
X-7859399Y7380601D01*
X-7942260Y7435966D01*
X-7954238Y7438349D01*
X-7954241Y7438350D01*
X-8009347Y7449311D01*
X-8009351Y7449312D01*
X-8015326Y7450500D01*
X-9764674Y7450500D01*
X-9770649Y7449312D01*
X-9770654Y7449311D01*
X-9825760Y7438350D01*
X-9825765Y7438349D01*
X-9837740Y7435966D01*
X-9847895Y7429181D01*
X-9847897Y7429180D01*
X-9910449Y7387385D01*
X-9910452Y7387383D01*
X-9920601Y7380601D01*
X-9927383Y7370452D01*
X-9927385Y7370449D01*
X-9969180Y7307897D01*
X-9969181Y7307895D01*
X-9975966Y7297740D01*
X-9978349Y7285765D01*
X-9978350Y7285760D01*
X-9989311Y7230654D01*
X-9989312Y7230649D01*
X-9990500Y7224674D01*
X-9990500Y5475326D01*
X-9989312Y5469351D01*
X-9989311Y5469347D01*
X-9978350Y5414241D01*
X-9978349Y5414238D01*
X-9975966Y5402260D01*
X-9920601Y5319399D01*
X-9837740Y5264034D01*
X-9764674Y5249500D01*
X-8548676Y5249500D01*
X-8501223Y5240061D01*
X-8460995Y5213181D01*
X-8233547Y4985733D01*
X-8202777Y4934732D01*
X-8199339Y4875267D01*
X-8224026Y4821060D01*
X-8271142Y4784618D01*
X-8329814Y4774350D01*
X-8386504Y4792625D01*
X-8397363Y4799348D01*
X-8411795Y4804939D01*
X-8582197Y4870953D01*
X-8582202Y4870955D01*
X-8587544Y4873024D01*
X-8599543Y4875267D01*
X-8782395Y4909448D01*
X-8782398Y4909449D01*
X-8788024Y4910500D01*
X-8991976Y4910500D01*
X-8997602Y4909449D01*
X-8997606Y4909448D01*
X-9186819Y4874078D01*
X-9186822Y4874078D01*
X-9192456Y4873024D01*
X-9197797Y4870956D01*
X-9197804Y4870953D01*
X-9377295Y4801418D01*
X-9377300Y4801416D01*
X-9382637Y4799348D01*
X-9387506Y4796333D01*
X-9387512Y4796330D01*
X-9551170Y4694998D01*
X-9551178Y4694993D01*
X-9556041Y4691981D01*
X-9560272Y4688125D01*
X-9560276Y4688121D01*
X-9702524Y4558446D01*
X-9702534Y4558436D01*
X-9706764Y4554579D01*
X-9710213Y4550013D01*
X-9710222Y4550002D01*
X-9826221Y4396393D01*
X-9826224Y4396389D01*
X-9829673Y4391821D01*
X-9832226Y4386696D01*
X-9832228Y4386691D01*
X-9918024Y4214388D01*
X-9920582Y4209250D01*
X-9922150Y4203742D01*
X-9922153Y4203732D01*
X-9974827Y4018605D01*
X-9974830Y4018594D01*
X-9976397Y4013083D01*
X-9976927Y4007373D01*
X-9976927Y4007368D01*
X-9984385Y3926879D01*
X-9995215Y3810000D01*
X-9994686Y3804291D01*
X-9980420Y3650325D01*
X-9976397Y3606917D01*
X-9974829Y3601406D01*
X-9974827Y3601396D01*
X-9922153Y3416269D01*
X-9922151Y3416263D01*
X-9920582Y3410750D01*
X-9829673Y3228179D01*
X-9826221Y3223608D01*
X-9710222Y3069999D01*
X-9710217Y3069994D01*
X-9706764Y3065421D01*
X-9702528Y3061560D01*
X-9702524Y3061555D01*
X-9668267Y3030326D01*
X-9556041Y2928019D01*
X-9382637Y2820652D01*
X-9192456Y2746976D01*
X-8991976Y2709500D01*
X-8793753Y2709500D01*
X-8788024Y2709500D01*
X-8587544Y2746976D01*
X-8397363Y2820652D01*
X-8223959Y2928019D01*
X-8073236Y3065421D01*
X-7950327Y3228179D01*
X-7859418Y3410750D01*
X-7803603Y3606917D01*
X-7784785Y3810000D01*
X-7803603Y4013083D01*
X-7859418Y4209250D01*
X-7919641Y4330195D01*
X-7932001Y4398048D01*
X-7906197Y4462009D01*
X-7850213Y4502290D01*
X-7781368Y4506429D01*
X-7720960Y4473147D01*
X-6985819Y3738006D01*
X-6958939Y3697778D01*
X-6949500Y3650325D01*
X-6949500Y1014144D01*
X-6950957Y1000595D01*
X-6950841Y1000586D01*
X-6951475Y991738D01*
X-6953359Y983073D01*
X-6952727Y974233D01*
X-6952727Y974227D01*
X-6949816Y933539D01*
X-6949500Y924692D01*
X-6949500Y911201D01*
X-6948870Y906820D01*
X-6947580Y897845D01*
X-6946635Y889054D01*
X-6945326Y870750D01*
X-6943091Y839517D01*
X-6939994Y831211D01*
X-6938108Y822545D01*
X-6938221Y822521D01*
X-6938036Y821797D01*
X-6937925Y821829D01*
X-6935428Y813324D01*
X-6934165Y804543D01*
X-6930481Y796476D01*
X-6930480Y796473D01*
X-6913543Y759387D01*
X-6910155Y751210D01*
X-6895896Y712979D01*
X-6895895Y712977D01*
X-6892796Y704669D01*
X-6887481Y697569D01*
X-6883232Y689788D01*
X-6883334Y689733D01*
X-6882954Y689093D01*
X-6882857Y689155D01*
X-6878061Y681693D01*
X-6874377Y673627D01*
X-6841853Y636093D01*
X-6836312Y629215D01*
X-6828221Y618407D01*
X-6825084Y615271D01*
X-6825084Y615270D01*
X-6818678Y608864D01*
X-6812646Y602385D01*
X-6785935Y571558D01*
X-6785933Y571556D01*
X-6780128Y564857D01*
X-6772672Y560066D01*
X-6765963Y554252D01*
X-6766039Y554165D01*
X-6755429Y545615D01*
X-5048131Y-1161683D01*
X-5019947Y-1205190D01*
X-5012013Y-1256417D01*
X-5025714Y-1306412D01*
X-5122123Y-1492473D01*
X-5122128Y-1492483D01*
X-5124072Y-1496236D01*
X-5125489Y-1500221D01*
X-5125493Y-1500232D01*
X-5221171Y-1769445D01*
X-5221175Y-1769457D01*
X-5222592Y-1773446D01*
X-5223455Y-1777596D01*
X-5223456Y-1777602D01*
X-5281585Y-2057332D01*
X-5281587Y-2057343D01*
X-5282448Y-2061489D01*
X-5282737Y-2065713D01*
X-5282738Y-2065721D01*
X-5295776Y-2256329D01*
X-5302525Y-2355000D01*
X-5282448Y-2648511D01*
X-5281587Y-2652658D01*
X-5281585Y-2652667D01*
X-5223456Y-2932397D01*
X-5222592Y-2936554D01*
X-5221174Y-2940546D01*
X-5221171Y-2940554D01*
X-5125493Y-3209767D01*
X-5124072Y-3213764D01*
X-5122125Y-3217522D01*
X-5122123Y-3217526D01*
X-5019142Y-3416268D01*
X-4988722Y-3474976D01*
X-4986276Y-3478441D01*
X-4821510Y-3711863D01*
X-4821506Y-3711868D01*
X-4819065Y-3715326D01*
X-4618260Y-3930335D01*
X-4390049Y-4115999D01*
X-4138682Y-4268859D01*
X-4061997Y-4302168D01*
X-3972098Y-4341217D01*
X-3932826Y-4368274D01*
X-3906671Y-4408151D01*
X-3897500Y-4454951D01*
X-3897500Y-5842770D01*
X-3906939Y-5890223D01*
X-3933819Y-5930451D01*
X-6850549Y-8847181D01*
X-6890777Y-8874061D01*
X-6938230Y-8883500D01*
X-7949206Y-8883500D01*
X-7990980Y-8876252D01*
X-8027870Y-8855354D01*
X-8043739Y-8842331D01*
X-8148550Y-8756315D01*
X-8228886Y-8713374D01*
X-8325672Y-8661640D01*
X-8325677Y-8661638D01*
X-8331046Y-8658768D01*
X-8521622Y-8600958D01*
X-8523244Y-8600466D01*
X-8523245Y-8600465D01*
X-8529066Y-8598700D01*
X-8535118Y-8598103D01*
X-8535122Y-8598103D01*
X-8684433Y-8583396D01*
X-8725294Y-8572087D01*
X-8759958Y-8547674D01*
X-10957632Y-6350000D01*
X-9995215Y-6350000D01*
X-9994686Y-6355709D01*
X-9978345Y-6532069D01*
X-9976397Y-6553083D01*
X-9974829Y-6558594D01*
X-9974827Y-6558604D01*
X-9922153Y-6743731D01*
X-9922151Y-6743737D01*
X-9920582Y-6749250D01*
X-9829673Y-6931821D01*
X-9826221Y-6936392D01*
X-9710222Y-7090001D01*
X-9710217Y-7090006D01*
X-9706764Y-7094579D01*
X-9702528Y-7098440D01*
X-9702524Y-7098445D01*
X-9600773Y-7191203D01*
X-9556041Y-7231981D01*
X-9382637Y-7339348D01*
X-9192456Y-7413024D01*
X-8991976Y-7450500D01*
X-8793753Y-7450500D01*
X-8788024Y-7450500D01*
X-8587544Y-7413024D01*
X-8397363Y-7339348D01*
X-8223959Y-7231981D01*
X-8073236Y-7094579D01*
X-7950327Y-6931821D01*
X-7859418Y-6749250D01*
X-7803603Y-6553083D01*
X-7784785Y-6350000D01*
X-7803603Y-6146917D01*
X-7859418Y-5950750D01*
X-7950327Y-5768179D01*
X-7998824Y-5703959D01*
X-8069779Y-5609998D01*
X-8069783Y-5609994D01*
X-8073236Y-5605421D01*
X-8077473Y-5601558D01*
X-8077477Y-5601554D01*
X-8219725Y-5471879D01*
X-8219724Y-5471879D01*
X-8223959Y-5468019D01*
X-8228829Y-5465004D01*
X-8228831Y-5465002D01*
X-8392489Y-5363670D01*
X-8392488Y-5363670D01*
X-8397363Y-5360652D01*
X-8402706Y-5358582D01*
X-8582197Y-5289047D01*
X-8582202Y-5289045D01*
X-8587544Y-5286976D01*
X-8593182Y-5285922D01*
X-8782395Y-5250552D01*
X-8782398Y-5250551D01*
X-8788024Y-5249500D01*
X-8991976Y-5249500D01*
X-8997602Y-5250551D01*
X-8997606Y-5250552D01*
X-9186819Y-5285922D01*
X-9186822Y-5285922D01*
X-9192456Y-5286976D01*
X-9197797Y-5289044D01*
X-9197804Y-5289047D01*
X-9377295Y-5358582D01*
X-9377300Y-5358584D01*
X-9382637Y-5360652D01*
X-9387509Y-5363668D01*
X-9387512Y-5363670D01*
X-9551170Y-5465002D01*
X-9551178Y-5465007D01*
X-9556041Y-5468019D01*
X-9560272Y-5471875D01*
X-9560276Y-5471879D01*
X-9702524Y-5601554D01*
X-9702534Y-5601564D01*
X-9706764Y-5605421D01*
X-9710213Y-5609987D01*
X-9710222Y-5609998D01*
X-9826221Y-5763607D01*
X-9826224Y-5763611D01*
X-9829673Y-5768179D01*
X-9832226Y-5773304D01*
X-9832228Y-5773309D01*
X-9918024Y-5945612D01*
X-9920582Y-5950750D01*
X-9922150Y-5956258D01*
X-9922153Y-5956268D01*
X-9974827Y-6141395D01*
X-9974830Y-6141406D01*
X-9976397Y-6146917D01*
X-9976927Y-6152627D01*
X-9976927Y-6152632D01*
X-9993514Y-6331646D01*
X-9995215Y-6350000D01*
X-10957632Y-6350000D01*
X-13059180Y-4248452D01*
X-13092300Y-4188756D01*
X-13088804Y-4120578D01*
X-13049757Y-4064585D01*
X-12884740Y-3930335D01*
X-12772355Y-3810000D01*
X-9995215Y-3810000D01*
X-9976397Y-4013083D01*
X-9974829Y-4018594D01*
X-9974827Y-4018604D01*
X-9922153Y-4203731D01*
X-9922151Y-4203737D01*
X-9920582Y-4209250D01*
X-9918024Y-4214387D01*
X-9838737Y-4373619D01*
X-9829673Y-4391821D01*
X-9826221Y-4396392D01*
X-9710222Y-4550001D01*
X-9710217Y-4550006D01*
X-9706764Y-4554579D01*
X-9702528Y-4558440D01*
X-9702524Y-4558445D01*
X-9600870Y-4651114D01*
X-9556041Y-4691981D01*
X-9382637Y-4799348D01*
X-9192456Y-4873024D01*
X-8991976Y-4910500D01*
X-8793753Y-4910500D01*
X-8788024Y-4910500D01*
X-8587544Y-4873024D01*
X-8397363Y-4799348D01*
X-8223959Y-4691981D01*
X-8073236Y-4554579D01*
X-7950327Y-4391821D01*
X-7859418Y-4209250D01*
X-7803603Y-4013083D01*
X-7784785Y-3810000D01*
X-7803603Y-3606917D01*
X-7859418Y-3410750D01*
X-7950327Y-3228179D01*
X-7998824Y-3163959D01*
X-8069779Y-3069998D01*
X-8069783Y-3069994D01*
X-8073236Y-3065421D01*
X-8077473Y-3061558D01*
X-8077477Y-3061554D01*
X-8219725Y-2931879D01*
X-8219724Y-2931879D01*
X-8223959Y-2928019D01*
X-8228829Y-2925004D01*
X-8228831Y-2925002D01*
X-8392489Y-2823670D01*
X-8392488Y-2823670D01*
X-8397363Y-2820652D01*
X-8402706Y-2818582D01*
X-8582197Y-2749047D01*
X-8582202Y-2749045D01*
X-8587544Y-2746976D01*
X-8593182Y-2745922D01*
X-8782395Y-2710552D01*
X-8782398Y-2710551D01*
X-8788024Y-2709500D01*
X-8991976Y-2709500D01*
X-8997602Y-2710551D01*
X-8997606Y-2710552D01*
X-9186819Y-2745922D01*
X-9186822Y-2745922D01*
X-9192456Y-2746976D01*
X-9197797Y-2749044D01*
X-9197804Y-2749047D01*
X-9377295Y-2818582D01*
X-9377300Y-2818584D01*
X-9382637Y-2820652D01*
X-9387509Y-2823668D01*
X-9387512Y-2823670D01*
X-9551170Y-2925002D01*
X-9551178Y-2925007D01*
X-9556041Y-2928019D01*
X-9560272Y-2931875D01*
X-9560276Y-2931879D01*
X-9702524Y-3061554D01*
X-9702534Y-3061564D01*
X-9706764Y-3065421D01*
X-9710213Y-3069987D01*
X-9710222Y-3069998D01*
X-9826221Y-3223607D01*
X-9826224Y-3223611D01*
X-9829673Y-3228179D01*
X-9832226Y-3233304D01*
X-9832228Y-3233309D01*
X-9918024Y-3405612D01*
X-9920582Y-3410750D01*
X-9922150Y-3416258D01*
X-9922153Y-3416268D01*
X-9974827Y-3601395D01*
X-9974830Y-3601406D01*
X-9976397Y-3606917D01*
X-9976927Y-3612627D01*
X-9976927Y-3612632D01*
X-9986729Y-3718418D01*
X-9995215Y-3810000D01*
X-12772355Y-3810000D01*
X-12683935Y-3715326D01*
X-12514278Y-3474976D01*
X-12378928Y-3213764D01*
X-12280408Y-2936554D01*
X-12220552Y-2648511D01*
X-12200475Y-2355000D01*
X-12220552Y-2061489D01*
X-12280408Y-1773446D01*
X-12378928Y-1496236D01*
X-12496155Y-1270000D01*
X-9995215Y-1270000D01*
X-9976397Y-1473083D01*
X-9974829Y-1478594D01*
X-9974827Y-1478604D01*
X-9922153Y-1663731D01*
X-9922151Y-1663737D01*
X-9920582Y-1669250D01*
X-9829673Y-1851821D01*
X-9826221Y-1856392D01*
X-9710222Y-2010001D01*
X-9710217Y-2010006D01*
X-9706764Y-2014579D01*
X-9702528Y-2018440D01*
X-9702524Y-2018445D01*
X-9613216Y-2099859D01*
X-9556041Y-2151981D01*
X-9382637Y-2259348D01*
X-9192456Y-2333024D01*
X-8991976Y-2370500D01*
X-8793753Y-2370500D01*
X-8788024Y-2370500D01*
X-8587544Y-2333024D01*
X-8397363Y-2259348D01*
X-8223959Y-2151981D01*
X-8073236Y-2014579D01*
X-7950327Y-1851821D01*
X-7859418Y-1669250D01*
X-7803603Y-1473083D01*
X-7784785Y-1270000D01*
X-7803603Y-1066917D01*
X-7859418Y-870750D01*
X-7950327Y-688179D01*
X-7998824Y-623959D01*
X-8069779Y-529998D01*
X-8069783Y-529994D01*
X-8073236Y-525421D01*
X-8077473Y-521558D01*
X-8077477Y-521554D01*
X-8219725Y-391879D01*
X-8219724Y-391879D01*
X-8223959Y-388019D01*
X-8228829Y-385004D01*
X-8228831Y-385002D01*
X-8392489Y-283670D01*
X-8392488Y-283670D01*
X-8397363Y-280652D01*
X-8402706Y-278582D01*
X-8582197Y-209047D01*
X-8582202Y-209045D01*
X-8587544Y-206976D01*
X-8597708Y-205076D01*
X-8782395Y-170552D01*
X-8782398Y-170551D01*
X-8788024Y-169500D01*
X-8991976Y-169500D01*
X-8997602Y-170551D01*
X-8997606Y-170552D01*
X-9186819Y-205922D01*
X-9186822Y-205922D01*
X-9192456Y-206976D01*
X-9197797Y-209044D01*
X-9197804Y-209047D01*
X-9377295Y-278582D01*
X-9377300Y-278584D01*
X-9382637Y-280652D01*
X-9387509Y-283668D01*
X-9387512Y-283670D01*
X-9551170Y-385002D01*
X-9551178Y-385007D01*
X-9556041Y-388019D01*
X-9560272Y-391875D01*
X-9560276Y-391879D01*
X-9702524Y-521554D01*
X-9702534Y-521564D01*
X-9706764Y-525421D01*
X-9710213Y-529987D01*
X-9710222Y-529998D01*
X-9826221Y-683607D01*
X-9826224Y-683611D01*
X-9829673Y-688179D01*
X-9832226Y-693304D01*
X-9832228Y-693309D01*
X-9918024Y-865612D01*
X-9920582Y-870750D01*
X-9922150Y-876258D01*
X-9922153Y-876268D01*
X-9974827Y-1061395D01*
X-9974830Y-1061406D01*
X-9976397Y-1066917D01*
X-9995215Y-1270000D01*
X-12496155Y-1270000D01*
X-12514278Y-1235024D01*
X-12683935Y-994674D01*
X-12884740Y-779665D01*
X-13112951Y-594001D01*
X-13225726Y-525421D01*
X-13360700Y-443341D01*
X-13360702Y-443340D01*
X-13364318Y-441141D01*
X-13368198Y-439455D01*
X-13368205Y-439452D01*
X-13630278Y-325618D01*
X-13630288Y-325614D01*
X-13634159Y-323933D01*
X-13638231Y-322792D01*
X-13913366Y-245702D01*
X-13913379Y-245699D01*
X-13917445Y-244560D01*
X-13921632Y-243984D01*
X-13921644Y-243982D01*
X-14204705Y-205076D01*
X-14204718Y-205075D01*
X-14208902Y-204500D01*
X-14503098Y-204500D01*
X-14507282Y-205075D01*
X-14507296Y-205076D01*
X-14790357Y-243982D01*
X-14790372Y-243984D01*
X-14794555Y-244560D01*
X-14798619Y-245698D01*
X-14798635Y-245702D01*
X-15073770Y-322792D01*
X-15073775Y-322793D01*
X-15077841Y-323933D01*
X-15081709Y-325612D01*
X-15081723Y-325618D01*
X-15343796Y-439452D01*
X-15343809Y-439458D01*
X-15347682Y-441141D01*
X-15351293Y-443336D01*
X-15351301Y-443341D01*
X-15595437Y-591804D01*
X-15595443Y-591807D01*
X-15599049Y-594001D01*
X-15602324Y-596664D01*
X-15602332Y-596671D01*
X-15823975Y-776992D01*
X-15823979Y-776995D01*
X-15827260Y-779665D01*
X-15830139Y-782747D01*
X-15830148Y-782756D01*
X-16025177Y-991581D01*
X-16025182Y-991586D01*
X-16028065Y-994674D01*
X-16030501Y-998124D01*
X-16030510Y-998136D01*
X-16195276Y-1231558D01*
X-16195280Y-1231563D01*
X-16197722Y-1235024D01*
X-16199668Y-1238778D01*
X-16199672Y-1238786D01*
X-16331123Y-1492473D01*
X-16331128Y-1492483D01*
X-16333072Y-1496236D01*
X-16334489Y-1500221D01*
X-16334493Y-1500232D01*
X-16430171Y-1769445D01*
X-16430175Y-1769457D01*
X-16431592Y-1773446D01*
X-16432455Y-1777596D01*
X-16432456Y-1777602D01*
X-16490585Y-2057332D01*
X-16490587Y-2057343D01*
X-16491448Y-2061489D01*
X-16491737Y-2065713D01*
X-16491738Y-2065721D01*
X-16504776Y-2256329D01*
X-16511525Y-2355000D01*
X-18716626Y-2355000D01*
X-18742964Y-2123887D01*
X-18742981Y-2123739D01*
X-18795876Y-1627800D01*
X-18796286Y-1623071D01*
X-18820512Y-1263037D01*
X-18820520Y-1262910D01*
X-18850895Y-761190D01*
X-18851090Y-756416D01*
X-18858539Y-400129D01*
X-18865985Y107071D01*
X-18865959Y111916D01*
X-18857049Y462847D01*
X-18848846Y726472D01*
X-16506000Y726472D01*
X-16504811Y714396D01*
X-16493878Y659434D01*
X-16484711Y637301D01*
X-16443025Y574914D01*
X-16426087Y557976D01*
X-16363700Y516290D01*
X-16341567Y507123D01*
X-16286605Y496190D01*
X-16274528Y495000D01*
X-14497326Y495000D01*
X-14484451Y498451D01*
X-14481000Y511326D01*
X-14231000Y511326D01*
X-14227550Y498451D01*
X-14214674Y495000D01*
X-12437472Y495000D01*
X-12425396Y496190D01*
X-12370434Y507123D01*
X-12348301Y516290D01*
X-12285914Y557976D01*
X-12268976Y574914D01*
X-12227290Y637301D01*
X-12218123Y659434D01*
X-12207190Y714396D01*
X-12206000Y726472D01*
X-12206000Y1127775D01*
X-9981534Y1127775D01*
X-9976432Y1072718D01*
X-9974334Y1061494D01*
X-9921686Y876455D01*
X-9917555Y865792D01*
X-9831801Y693576D01*
X-9825794Y683873D01*
X-9709851Y530338D01*
X-9702153Y521894D01*
X-9559973Y392281D01*
X-9550869Y385405D01*
X-9387285Y284118D01*
X-9377072Y279032D01*
X-9197662Y209529D01*
X-9186686Y206406D01*
X-9028430Y176824D01*
X-9017402Y177206D01*
X-9015000Y187973D01*
X-8765000Y187973D01*
X-8762599Y177206D01*
X-8751571Y176824D01*
X-8593315Y206406D01*
X-8582339Y209529D01*
X-8402929Y279032D01*
X-8392716Y284118D01*
X-8229132Y385405D01*
X-8220028Y392281D01*
X-8077848Y521894D01*
X-8070150Y530338D01*
X-7954207Y683873D01*
X-7948200Y693576D01*
X-7862446Y865792D01*
X-7858315Y876455D01*
X-7805667Y1061494D01*
X-7803569Y1072718D01*
X-7798467Y1127775D01*
X-7800986Y1141250D01*
X-7814166Y1145000D01*
X-8748674Y1145000D01*
X-8761550Y1141550D01*
X-8765000Y1128674D01*
X-8765000Y187973D01*
X-9015000Y187973D01*
X-9015000Y1128674D01*
X-9018451Y1141550D01*
X-9031326Y1145000D01*
X-9965834Y1145000D01*
X-9979015Y1141250D01*
X-9981534Y1127775D01*
X-12206000Y1127775D01*
X-12206000Y1412226D01*
X-9981534Y1412226D01*
X-9979015Y1398751D01*
X-9965834Y1395000D01*
X-9031326Y1395000D01*
X-9018451Y1398451D01*
X-9015000Y1411326D01*
X-8765000Y1411326D01*
X-8761550Y1398451D01*
X-8748674Y1395000D01*
X-7814166Y1395000D01*
X-7800986Y1398751D01*
X-7798467Y1412226D01*
X-7803569Y1467283D01*
X-7805667Y1478507D01*
X-7858315Y1663546D01*
X-7862446Y1674209D01*
X-7948200Y1846425D01*
X-7954207Y1856128D01*
X-8070150Y2009663D01*
X-8077848Y2018107D01*
X-8220028Y2147720D01*
X-8229132Y2154596D01*
X-8392716Y2255883D01*
X-8402929Y2260969D01*
X-8582339Y2330472D01*
X-8593315Y2333595D01*
X-8751571Y2363177D01*
X-8762599Y2362795D01*
X-8765000Y2352027D01*
X-8765000Y1411326D01*
X-9015000Y1411326D01*
X-9015000Y2352027D01*
X-9017402Y2362795D01*
X-9028430Y2363177D01*
X-9186686Y2333595D01*
X-9197662Y2330472D01*
X-9377072Y2260969D01*
X-9387285Y2255883D01*
X-9550869Y2154596D01*
X-9559973Y2147720D01*
X-9702153Y2018107D01*
X-9709851Y2009663D01*
X-9825794Y1856128D01*
X-9831801Y1846425D01*
X-9917555Y1674209D01*
X-9921686Y1663546D01*
X-9974334Y1478507D01*
X-9976432Y1467283D01*
X-9981534Y1412226D01*
X-12206000Y1412226D01*
X-12206000Y2503674D01*
X-12209451Y2516550D01*
X-12222326Y2520000D01*
X-14214674Y2520000D01*
X-14227550Y2516550D01*
X-14231000Y2503674D01*
X-14231000Y511326D01*
X-14481000Y511326D01*
X-14481000Y2503674D01*
X-14484451Y2516550D01*
X-14497326Y2520000D01*
X-16489674Y2520000D01*
X-16502550Y2516550D01*
X-16506000Y2503674D01*
X-16506000Y726472D01*
X-18848846Y726472D01*
X-18841109Y975105D01*
X-18840858Y979981D01*
X-18816192Y1323571D01*
X-18776319Y1841101D01*
X-18775837Y1846022D01*
X-18736232Y2180235D01*
X-18671755Y2703165D01*
X-18671040Y2708112D01*
X-18658078Y2786326D01*
X-16506000Y2786326D01*
X-16502550Y2773451D01*
X-16489674Y2770000D01*
X-14497326Y2770000D01*
X-14484451Y2773451D01*
X-14481000Y2786326D01*
X-14231000Y2786326D01*
X-14227550Y2773451D01*
X-14214674Y2770000D01*
X-12222326Y2770000D01*
X-12209451Y2773451D01*
X-12206000Y2786326D01*
X-12206000Y4563528D01*
X-12207190Y4575605D01*
X-12218123Y4630567D01*
X-12227290Y4652700D01*
X-12268976Y4715087D01*
X-12285914Y4732025D01*
X-12348301Y4773711D01*
X-12370434Y4782878D01*
X-12425396Y4793811D01*
X-12437472Y4795000D01*
X-14214674Y4795000D01*
X-14227550Y4791550D01*
X-14231000Y4778674D01*
X-14231000Y2786326D01*
X-14481000Y2786326D01*
X-14481000Y4778674D01*
X-14484451Y4791550D01*
X-14497326Y4795000D01*
X-16274528Y4795000D01*
X-16286605Y4793811D01*
X-16341567Y4782878D01*
X-16363700Y4773711D01*
X-16426087Y4732025D01*
X-16443025Y4715087D01*
X-16484711Y4652700D01*
X-16493878Y4630567D01*
X-16504811Y4575605D01*
X-16506000Y4563528D01*
X-16506000Y2786326D01*
X-18658078Y2786326D01*
X-18617563Y3030787D01*
X-18527633Y3559537D01*
X-18526683Y3564491D01*
X-18460953Y3872091D01*
X-18344265Y4408354D01*
X-18343056Y4413391D01*
X-18267211Y4702204D01*
X-18122029Y5247867D01*
X-18120595Y5252825D01*
X-18038000Y5516935D01*
X-18037911Y5516908D01*
X-18037901Y5517250D01*
X-17861414Y6076222D01*
X-17859710Y6081236D01*
X-17775828Y6311473D01*
X-17775818Y6311500D01*
X-17775744Y6311473D01*
X-17775726Y6311755D01*
X-17562946Y6891755D01*
X-17560998Y6896726D01*
X-17486065Y7076128D01*
X-17227262Y7692714D01*
X-17225080Y7697604D01*
X-17180325Y7792195D01*
X-17180003Y7792873D01*
X-17179976Y7792860D01*
X-17179943Y7792999D01*
X-16855843Y8475768D01*
X-16853315Y8480795D01*
X-16450157Y9238504D01*
X-16447412Y9243389D01*
X-16044705Y9923254D01*
X-15999452Y9967769D01*
X-15938101Y9984057D01*
X15928834Y10004567D01*
X15990208Y9988358D01*
G37*
%TD.AperFunction*%
%TD*%
M02*
