%TF.GenerationSoftware,KiCad,Pcbnew,(7.0.0)*%
%TF.CreationDate,2024-02-03T20:31:02+01:00*%
%TF.ProjectId,Helios_IMU_M,48656c69-6f73-45f4-994d-555f4d2e6b69,rev?*%
%TF.SameCoordinates,PX9058260PY5c4edc0*%
%TF.FileFunction,Copper,L1,Top*%
%TF.FilePolarity,Positive*%
%FSLAX46Y46*%
G04 Gerber Fmt 4.6, Leading zero omitted, Abs format (unit mm)*
G04 Created by KiCad (PCBNEW (7.0.0)) date 2024-02-03 20:31:02*
%MOMM*%
%LPD*%
G01*
G04 APERTURE LIST*
%TA.AperFunction,ComponentPad*%
%ADD10R,3.800000X3.800000*%
%TD*%
%TA.AperFunction,ComponentPad*%
%ADD11C,3.800000*%
%TD*%
%TA.AperFunction,ComponentPad*%
%ADD12R,1.700000X1.700000*%
%TD*%
%TA.AperFunction,ComponentPad*%
%ADD13O,1.700000X1.700000*%
%TD*%
%TA.AperFunction,ComponentPad*%
%ADD14C,1.700000*%
%TD*%
%TA.AperFunction,SMDPad,CuDef*%
%ADD15R,1.425000X0.300000*%
%TD*%
%TA.AperFunction,ComponentPad*%
%ADD16C,1.600000*%
%TD*%
%TA.AperFunction,ComponentPad*%
%ADD17O,1.600000X1.600000*%
%TD*%
%TA.AperFunction,Conductor*%
%ADD18C,0.250000*%
%TD*%
%TA.AperFunction,Conductor*%
%ADD19C,0.500000*%
%TD*%
G04 APERTURE END LIST*
D10*
%TO.P,J4,1,Pin_1*%
%TO.N,SCL*%
X14378999Y2644999D03*
D11*
%TO.P,J4,2,Pin_2*%
%TO.N,SDA*%
X14379000Y-2355000D03*
%TD*%
D10*
%TO.P,J3,1,Pin_1*%
%TO.N,GND*%
X-14355999Y2644999D03*
D11*
%TO.P,J3,2,Pin_2*%
%TO.N,VCC*%
X-14356000Y-2355000D03*
%TD*%
D12*
%TO.P,IMU1,1,Vin*%
%TO.N,VCC*%
X-8889999Y6349999D03*
D13*
%TO.P,IMU1,2,3V3*%
%TO.N,unconnected-(IMU1-3V3-Pad2)*%
X-8889999Y3809999D03*
%TO.P,IMU1,3,GND*%
%TO.N,GND*%
X-8889999Y1269999D03*
%TO.P,IMU1,4,SDA*%
%TO.N,SDA_OUT*%
X-8889999Y-1269999D03*
%TO.P,IMU1,5,SCL*%
%TO.N,SCL_OUT*%
X-8889999Y-3809999D03*
%TO.P,IMU1,6,RST*%
%TO.N,unconnected-(IMU1-RST-Pad6)*%
X-8889999Y-6349999D03*
%TO.P,IMU1,7,ADR*%
%TO.N,unconnected-(IMU1-ADR-Pad7)*%
X8889999Y-3809999D03*
%TO.P,IMU1,8,INT*%
%TO.N,unconnected-(IMU1-INT-Pad8)*%
X8889999Y-1269999D03*
%TO.P,IMU1,9,PS1*%
%TO.N,unconnected-(IMU1-PS1-Pad9)*%
X8889999Y1269999D03*
D14*
%TO.P,IMU1,10,PS0*%
%TO.N,unconnected-(IMU1-PS0-Pad10)*%
X8890000Y3810000D03*
%TD*%
D15*
%TO.P,LTC4316,1,GND*%
%TO.N,GND*%
X2112999Y-16983999D03*
%TO.P,LTC4316,2,XORH*%
%TO.N,XORH*%
X2112999Y-16483999D03*
%TO.P,LTC4316,3,XORL*%
%TO.N,XORL*%
X2112999Y-15983999D03*
%TO.P,LTC4316,4,VCC*%
%TO.N,VCC*%
X2112999Y-15483999D03*
%TO.P,LTC4316,5,ENABLE*%
X2112999Y-14983999D03*
%TO.P,LTC4316,6,READY*%
%TO.N,unconnected-(IC1-READY-Pad6)*%
X-2310999Y-14983999D03*
%TO.P,LTC4316,7,SDAIN*%
%TO.N,SDA*%
X-2310999Y-15483999D03*
%TO.P,LTC4316,8,SDAOUT*%
%TO.N,SDA_OUT*%
X-2310999Y-15983999D03*
%TO.P,LTC4316,9,SCLOUT*%
%TO.N,SCL_OUT*%
X-2310999Y-16483999D03*
%TO.P,LTC4316,10,SCLIN*%
%TO.N,SCL*%
X-2310999Y-16983999D03*
%TD*%
D10*
%TO.P,J1,1,Pin_1*%
%TO.N,GND*%
X-3146999Y2644999D03*
D11*
%TO.P,J1,2,Pin_2*%
%TO.N,VCC*%
X-3147000Y-2355000D03*
%TD*%
D16*
%TO.P,RHT,1*%
%TO.N,VCC*%
X-8735000Y-9634000D03*
D17*
%TO.P,RHT,2*%
%TO.N,XORH*%
X-1114999Y-9633999D03*
%TD*%
D10*
%TO.P,J2,1,Pin_1*%
%TO.N,SCL*%
X3075999Y2644999D03*
D11*
%TO.P,J2,2,Pin_2*%
%TO.N,SDA*%
X3076000Y-2355000D03*
%TD*%
D16*
%TO.P,RHB,1*%
%TO.N,XORH*%
X1044000Y-9634000D03*
D17*
%TO.P,RHB,2*%
%TO.N,GND*%
X8663999Y-9633999D03*
%TD*%
D16*
%TO.P,RLB,1*%
%TO.N,XORL*%
X1044000Y-12682000D03*
D17*
%TO.P,RLB,2*%
%TO.N,GND*%
X8663999Y-12681999D03*
%TD*%
D16*
%TO.P,RLT,1*%
%TO.N,VCC*%
X-8735000Y-12682000D03*
D17*
%TO.P,RLT,2*%
%TO.N,XORL*%
X-1114999Y-12681999D03*
%TD*%
D18*
%TO.N,GND*%
X3600000Y-16984000D02*
X3838000Y-16746000D01*
X2113000Y-16984000D02*
X3600000Y-16984000D01*
%TO.N,XORH*%
X-2240000Y-10759000D02*
X-1115000Y-9634000D01*
X-2240000Y-13507104D02*
X-2240000Y-10759000D01*
X736896Y-16484000D02*
X-2240000Y-13507104D01*
D19*
X1044000Y-9634000D02*
X-1115000Y-9634000D01*
D18*
X2113000Y-16484000D02*
X736896Y-16484000D01*
D19*
%TO.N,XORL*%
X1044000Y-12682000D02*
X-99000Y-12682000D01*
D18*
X2113000Y-15984000D02*
X1100500Y-15984000D01*
X1100500Y-15984000D02*
X-99000Y-14784500D01*
X-99000Y-14784500D02*
X-99000Y-12682000D01*
D19*
X-99000Y-12682000D02*
X-1115000Y-12682000D01*
D18*
%TO.N,VCC*%
X2113000Y-14984000D02*
X3457000Y-13640000D01*
D19*
X-8735000Y-9634000D02*
X-8735000Y-12682000D01*
D18*
X3457000Y-8959000D02*
X-3147000Y-2355000D01*
X3457000Y-13640000D02*
X3457000Y-8959000D01*
X2113000Y-14984000D02*
X2113000Y-15484000D01*
D19*
X-3147000Y-4046000D02*
X-3147000Y-2355000D01*
D18*
%TO.N,SDA*%
X3076000Y-2355000D02*
X6055000Y-5334000D01*
X1075500Y-17459000D02*
X-899500Y-15484000D01*
X6055000Y-15924604D02*
X4520604Y-17459000D01*
X6055000Y-5334000D02*
X6055000Y-15924604D01*
X4520604Y-17459000D02*
X1075500Y-17459000D01*
X-899500Y-15484000D02*
X-2311000Y-15484000D01*
%TO.N,SDA_OUT*%
X-8890000Y-1270000D02*
X-6703000Y-3457000D01*
X-6703000Y-12604500D02*
X-3323500Y-15984000D01*
X-3323500Y-15984000D02*
X-2311000Y-15984000D01*
X-6703000Y-3457000D02*
X-6703000Y-12604500D01*
%TO.N,SCL_OUT*%
X-10513000Y-5433000D02*
X-8890000Y-3810000D01*
X-10513000Y-13317000D02*
X-10513000Y-5433000D01*
X-7346000Y-16484000D02*
X-10513000Y-13317000D01*
X-2311000Y-16484000D02*
X-7346000Y-16484000D01*
%TO.N,SCL*%
X4707000Y-17909000D02*
X-1386000Y-17909000D01*
X3076000Y2645000D02*
X6505000Y-784000D01*
X6505000Y-16111000D02*
X4707000Y-17909000D01*
X6505000Y-784000D02*
X6505000Y-16111000D01*
X-1386000Y-17909000D02*
X-2311000Y-16984000D01*
%TD*%
%TA.AperFunction,Conductor*%
%TO.N,GND*%
G36*
X15990208Y9988358D02*
G01*
X16035520Y9943900D01*
X16439096Y9264568D01*
X16441880Y9259626D01*
X16453171Y9238472D01*
X16845967Y8502522D01*
X16848525Y8497454D01*
X17173970Y7814122D01*
X17174036Y7813983D01*
X17218712Y7719876D01*
X17220969Y7714835D01*
X17480388Y7099005D01*
X17480471Y7098806D01*
X17555682Y6919392D01*
X17557682Y6914310D01*
X17771255Y6334455D01*
X17771304Y6334178D01*
X17771351Y6334194D01*
X17855450Y6104279D01*
X17857194Y6099169D01*
X18034458Y5540243D01*
X18034560Y5539919D01*
X18117395Y5276229D01*
X18118885Y5271103D01*
X18264670Y4726003D01*
X18264773Y4725615D01*
X18340955Y4437026D01*
X18342193Y4431898D01*
X18459469Y3896253D01*
X18459567Y3895801D01*
X18525664Y3588425D01*
X18526653Y3583305D01*
X18617257Y3054707D01*
X18621331Y3030326D01*
X18671128Y2732225D01*
X18671871Y2727127D01*
X18736958Y2204799D01*
X18737029Y2204217D01*
X18777042Y1870247D01*
X18777544Y1865181D01*
X18818037Y1348298D01*
X18818086Y1347651D01*
X18843179Y1004306D01*
X18843444Y999284D01*
X18860031Y487427D01*
X18860052Y486718D01*
X18869400Y136279D01*
X18869433Y131311D01*
X18862646Y-375457D01*
X18862633Y-376228D01*
X18855653Y-732066D01*
X18855460Y-736968D01*
X18825761Y-1238198D01*
X18825709Y-1239029D01*
X18801963Y-1598867D01*
X18801549Y-1603694D01*
X18749369Y-2098969D01*
X18749273Y-2099859D01*
X18708450Y-2462224D01*
X18707823Y-2466965D01*
X18633490Y-2956305D01*
X18633342Y-2957250D01*
X18575316Y-3320343D01*
X18574483Y-3324990D01*
X18478406Y-3807518D01*
X18478203Y-3808515D01*
X18402833Y-4171457D01*
X18401800Y-4176000D01*
X18284359Y-4651114D01*
X18284095Y-4652162D01*
X18191378Y-5013707D01*
X18190154Y-5018138D01*
X18051745Y-5485166D01*
X18051415Y-5486259D01*
X17941387Y-5845352D01*
X17939980Y-5849664D01*
X17781051Y-6307817D01*
X17780651Y-6308952D01*
X17653391Y-6664624D01*
X17651808Y-6668808D01*
X17472768Y-7117472D01*
X17472293Y-7118645D01*
X17328017Y-7469744D01*
X17326267Y-7473795D01*
X17127549Y-7912313D01*
X17126995Y-7913518D01*
X16965952Y-8259016D01*
X16964045Y-8262927D01*
X16746120Y-8690603D01*
X16745483Y-8691836D01*
X16567962Y-9030784D01*
X16565907Y-9034549D01*
X16329299Y-9450633D01*
X16328575Y-9451889D01*
X16134863Y-9783456D01*
X16132668Y-9787069D01*
X15877941Y-10190814D01*
X15877127Y-10192088D01*
X15667616Y-10515362D01*
X15665292Y-10518819D01*
X15392933Y-10909648D01*
X15392025Y-10910933D01*
X15167189Y-11224996D01*
X15164745Y-11228293D01*
X14875417Y-11605420D01*
X14874414Y-11606711D01*
X14634660Y-11910831D01*
X14632106Y-11913964D01*
X14326339Y-12276837D01*
X14325236Y-12278127D01*
X14071124Y-12571454D01*
X14068470Y-12574420D01*
X13747006Y-12922279D01*
X13745803Y-12923563D01*
X13477815Y-13205425D01*
X13475071Y-13208221D01*
X13138557Y-13540472D01*
X13137252Y-13541742D01*
X12855953Y-13811437D01*
X12853127Y-13814063D01*
X12502225Y-14130142D01*
X12500818Y-14131390D01*
X12206906Y-14388163D01*
X12204009Y-14390616D01*
X11839449Y-14689941D01*
X11837937Y-14691163D01*
X11532008Y-14934420D01*
X11529052Y-14936700D01*
X11151640Y-15218677D01*
X11150023Y-15219864D01*
X10832658Y-15449073D01*
X10829650Y-15451179D01*
X10440152Y-15715296D01*
X10438431Y-15716442D01*
X10110429Y-15930965D01*
X10107380Y-15932896D01*
X9706630Y-16178647D01*
X9704805Y-16179745D01*
X9366770Y-16379133D01*
X9363688Y-16380892D01*
X8952455Y-16607851D01*
X8950528Y-16608892D01*
X8603297Y-16792602D01*
X8600192Y-16794189D01*
X8179363Y-17001910D01*
X8177335Y-17002889D01*
X7821656Y-17170488D01*
X7818538Y-17171905D01*
X7388877Y-17360044D01*
X7386748Y-17360952D01*
X7023400Y-17512037D01*
X7020277Y-17513286D01*
X6582817Y-17681422D01*
X6580592Y-17682253D01*
X6210343Y-17816474D01*
X6207224Y-17817558D01*
X5762750Y-17965421D01*
X5760429Y-17966168D01*
X5399091Y-18078534D01*
X5333995Y-18080860D01*
X5276702Y-18049871D01*
X5243020Y-17994118D01*
X5242244Y-17928985D01*
X5274587Y-17872448D01*
X6733893Y-16413143D01*
X6753748Y-16397020D01*
X6762836Y-16391084D01*
X6782271Y-16366111D01*
X6785744Y-16362208D01*
X6785573Y-16362063D01*
X6788885Y-16358152D01*
X6792520Y-16354518D01*
X6804608Y-16337585D01*
X6807647Y-16333508D01*
X6839809Y-16292189D01*
X6842390Y-16284668D01*
X6847010Y-16278199D01*
X6861955Y-16227995D01*
X6863479Y-16223238D01*
X6880500Y-16173660D01*
X6880500Y-16165706D01*
X6882768Y-16158088D01*
X6880606Y-16105807D01*
X6880500Y-16100684D01*
X6880500Y-12824275D01*
X7622931Y-12824275D01*
X7628595Y-12881780D01*
X7630958Y-12893658D01*
X7687464Y-13079934D01*
X7692103Y-13091134D01*
X7783857Y-13262795D01*
X7790599Y-13272884D01*
X7914082Y-13423348D01*
X7922651Y-13431917D01*
X8073115Y-13555400D01*
X8083204Y-13562142D01*
X8254865Y-13653896D01*
X8266065Y-13658535D01*
X8452341Y-13715041D01*
X8464219Y-13717404D01*
X8521724Y-13723068D01*
X8535230Y-13720610D01*
X8539000Y-13707411D01*
X8789000Y-13707411D01*
X8792769Y-13720610D01*
X8806275Y-13723068D01*
X8863780Y-13717404D01*
X8875658Y-13715041D01*
X9061934Y-13658535D01*
X9073134Y-13653896D01*
X9244795Y-13562142D01*
X9254884Y-13555400D01*
X9405348Y-13431917D01*
X9413917Y-13423348D01*
X9537400Y-13272884D01*
X9544142Y-13262795D01*
X9635896Y-13091134D01*
X9640535Y-13079934D01*
X9697041Y-12893658D01*
X9699404Y-12881780D01*
X9705068Y-12824275D01*
X9702610Y-12810769D01*
X9689411Y-12807000D01*
X8805326Y-12807000D01*
X8792450Y-12810450D01*
X8789000Y-12823326D01*
X8789000Y-13707411D01*
X8539000Y-13707411D01*
X8539000Y-12823326D01*
X8535549Y-12810450D01*
X8522674Y-12807000D01*
X7638589Y-12807000D01*
X7625389Y-12810769D01*
X7622931Y-12824275D01*
X6880500Y-12824275D01*
X6880500Y-12539724D01*
X7622931Y-12539724D01*
X7625389Y-12553230D01*
X7638589Y-12557000D01*
X8522674Y-12557000D01*
X8535549Y-12553549D01*
X8539000Y-12540674D01*
X8789000Y-12540674D01*
X8792450Y-12553549D01*
X8805326Y-12557000D01*
X9689411Y-12557000D01*
X9702610Y-12553230D01*
X9705068Y-12539724D01*
X9699404Y-12482219D01*
X9697041Y-12470341D01*
X9640535Y-12284065D01*
X9635896Y-12272865D01*
X9544142Y-12101204D01*
X9537400Y-12091115D01*
X9413917Y-11940651D01*
X9405348Y-11932082D01*
X9254884Y-11808599D01*
X9244795Y-11801857D01*
X9073134Y-11710103D01*
X9061934Y-11705464D01*
X8875658Y-11648958D01*
X8863780Y-11646595D01*
X8806275Y-11640931D01*
X8792769Y-11643389D01*
X8789000Y-11656589D01*
X8789000Y-12540674D01*
X8539000Y-12540674D01*
X8539000Y-11656589D01*
X8535230Y-11643389D01*
X8521724Y-11640931D01*
X8464219Y-11646595D01*
X8452341Y-11648958D01*
X8266065Y-11705464D01*
X8254865Y-11710103D01*
X8083204Y-11801857D01*
X8073115Y-11808599D01*
X7922651Y-11932082D01*
X7914082Y-11940651D01*
X7790599Y-12091115D01*
X7783857Y-12101204D01*
X7692103Y-12272865D01*
X7687464Y-12284065D01*
X7630958Y-12470341D01*
X7628595Y-12482219D01*
X7622931Y-12539724D01*
X6880500Y-12539724D01*
X6880500Y-9776275D01*
X7622931Y-9776275D01*
X7628595Y-9833780D01*
X7630958Y-9845658D01*
X7687464Y-10031934D01*
X7692103Y-10043134D01*
X7783857Y-10214795D01*
X7790599Y-10224884D01*
X7914082Y-10375348D01*
X7922651Y-10383917D01*
X8073115Y-10507400D01*
X8083204Y-10514142D01*
X8254865Y-10605896D01*
X8266065Y-10610535D01*
X8452341Y-10667041D01*
X8464219Y-10669404D01*
X8521724Y-10675068D01*
X8535230Y-10672610D01*
X8539000Y-10659411D01*
X8789000Y-10659411D01*
X8792769Y-10672610D01*
X8806275Y-10675068D01*
X8863780Y-10669404D01*
X8875658Y-10667041D01*
X9061934Y-10610535D01*
X9073134Y-10605896D01*
X9244795Y-10514142D01*
X9254884Y-10507400D01*
X9405348Y-10383917D01*
X9413917Y-10375348D01*
X9537400Y-10224884D01*
X9544142Y-10214795D01*
X9635896Y-10043134D01*
X9640535Y-10031934D01*
X9697041Y-9845658D01*
X9699404Y-9833780D01*
X9705068Y-9776275D01*
X9702610Y-9762769D01*
X9689411Y-9759000D01*
X8805326Y-9759000D01*
X8792450Y-9762450D01*
X8789000Y-9775326D01*
X8789000Y-10659411D01*
X8539000Y-10659411D01*
X8539000Y-9775326D01*
X8535549Y-9762450D01*
X8522674Y-9759000D01*
X7638589Y-9759000D01*
X7625389Y-9762769D01*
X7622931Y-9776275D01*
X6880500Y-9776275D01*
X6880500Y-9491724D01*
X7622931Y-9491724D01*
X7625389Y-9505230D01*
X7638589Y-9509000D01*
X8522674Y-9509000D01*
X8535549Y-9505549D01*
X8539000Y-9492674D01*
X8789000Y-9492674D01*
X8792450Y-9505549D01*
X8805326Y-9509000D01*
X9689411Y-9509000D01*
X9702610Y-9505230D01*
X9705068Y-9491724D01*
X9699404Y-9434219D01*
X9697041Y-9422341D01*
X9640535Y-9236065D01*
X9635896Y-9224865D01*
X9544142Y-9053204D01*
X9537400Y-9043115D01*
X9413917Y-8892651D01*
X9405348Y-8884082D01*
X9254884Y-8760599D01*
X9244795Y-8753857D01*
X9073134Y-8662103D01*
X9061934Y-8657464D01*
X8875658Y-8600958D01*
X8863780Y-8598595D01*
X8806275Y-8592931D01*
X8792769Y-8595389D01*
X8789000Y-8608589D01*
X8789000Y-9492674D01*
X8539000Y-9492674D01*
X8539000Y-8608589D01*
X8535230Y-8595389D01*
X8521724Y-8592931D01*
X8464219Y-8598595D01*
X8452341Y-8600958D01*
X8266065Y-8657464D01*
X8254865Y-8662103D01*
X8083204Y-8753857D01*
X8073115Y-8760599D01*
X7922651Y-8884082D01*
X7914082Y-8892651D01*
X7790599Y-9043115D01*
X7783857Y-9053204D01*
X7692103Y-9224865D01*
X7687464Y-9236065D01*
X7630958Y-9422341D01*
X7628595Y-9434219D01*
X7622931Y-9491724D01*
X6880500Y-9491724D01*
X6880500Y-3810000D01*
X7784785Y-3810000D01*
X7803603Y-4013083D01*
X7805171Y-4018594D01*
X7805173Y-4018604D01*
X7857847Y-4203731D01*
X7857849Y-4203735D01*
X7859418Y-4209250D01*
X7950327Y-4391821D01*
X7953779Y-4396392D01*
X8069778Y-4550001D01*
X8069783Y-4550006D01*
X8073236Y-4554579D01*
X8077472Y-4558440D01*
X8077476Y-4558445D01*
X8099038Y-4578101D01*
X8223959Y-4691981D01*
X8397363Y-4799348D01*
X8587544Y-4873024D01*
X8788024Y-4910500D01*
X8986247Y-4910500D01*
X8991976Y-4910500D01*
X9192456Y-4873024D01*
X9382637Y-4799348D01*
X9556041Y-4691981D01*
X9706764Y-4554579D01*
X9829673Y-4391821D01*
X9920582Y-4209250D01*
X9976397Y-4013083D01*
X9995215Y-3810000D01*
X9976397Y-3606917D01*
X9961528Y-3554660D01*
X9922152Y-3416268D01*
X9920582Y-3410750D01*
X9829673Y-3228179D01*
X9781176Y-3163959D01*
X9710221Y-3069998D01*
X9710217Y-3069994D01*
X9706764Y-3065421D01*
X9702527Y-3061558D01*
X9702523Y-3061554D01*
X9560275Y-2931879D01*
X9560276Y-2931879D01*
X9556041Y-2928019D01*
X9551171Y-2925004D01*
X9551169Y-2925002D01*
X9387511Y-2823670D01*
X9387512Y-2823670D01*
X9382637Y-2820652D01*
X9377294Y-2818582D01*
X9197803Y-2749047D01*
X9197798Y-2749045D01*
X9192456Y-2746976D01*
X9186818Y-2745922D01*
X8997605Y-2710552D01*
X8997602Y-2710551D01*
X8991976Y-2709500D01*
X8788024Y-2709500D01*
X8782398Y-2710551D01*
X8782394Y-2710552D01*
X8593181Y-2745922D01*
X8593178Y-2745922D01*
X8587544Y-2746976D01*
X8582203Y-2749044D01*
X8582196Y-2749047D01*
X8402705Y-2818582D01*
X8402700Y-2818584D01*
X8397363Y-2820652D01*
X8392491Y-2823668D01*
X8392488Y-2823670D01*
X8228830Y-2925002D01*
X8228822Y-2925007D01*
X8223959Y-2928019D01*
X8219728Y-2931875D01*
X8219724Y-2931879D01*
X8077476Y-3061554D01*
X8077466Y-3061564D01*
X8073236Y-3065421D01*
X8069787Y-3069987D01*
X8069778Y-3069998D01*
X7953779Y-3223607D01*
X7953776Y-3223611D01*
X7950327Y-3228179D01*
X7947774Y-3233304D01*
X7947772Y-3233309D01*
X7863347Y-3402859D01*
X7859418Y-3410750D01*
X7857850Y-3416258D01*
X7857847Y-3416268D01*
X7805173Y-3601395D01*
X7805170Y-3601406D01*
X7803603Y-3606917D01*
X7803073Y-3612627D01*
X7803073Y-3612632D01*
X7793271Y-3718418D01*
X7784785Y-3810000D01*
X6880500Y-3810000D01*
X6880500Y-1270000D01*
X7784785Y-1270000D01*
X7803603Y-1473083D01*
X7805171Y-1478594D01*
X7805173Y-1478604D01*
X7857847Y-1663731D01*
X7857849Y-1663737D01*
X7859418Y-1669250D01*
X7950327Y-1851821D01*
X7953779Y-1856392D01*
X8069778Y-2010001D01*
X8069783Y-2010006D01*
X8073236Y-2014579D01*
X8077472Y-2018440D01*
X8077476Y-2018445D01*
X8166784Y-2099859D01*
X8223959Y-2151981D01*
X8397363Y-2259348D01*
X8587544Y-2333024D01*
X8788024Y-2370500D01*
X8986247Y-2370500D01*
X8991976Y-2370500D01*
X9074894Y-2355000D01*
X12223475Y-2355000D01*
X12243552Y-2648511D01*
X12244413Y-2652658D01*
X12244415Y-2652667D01*
X12302544Y-2932397D01*
X12303408Y-2936554D01*
X12304826Y-2940546D01*
X12304829Y-2940554D01*
X12400507Y-3209767D01*
X12401928Y-3213764D01*
X12403875Y-3217522D01*
X12403877Y-3217526D01*
X12535328Y-3471213D01*
X12537278Y-3474976D01*
X12561157Y-3508805D01*
X12704490Y-3711863D01*
X12704494Y-3711868D01*
X12706935Y-3715326D01*
X12907740Y-3930335D01*
X13135951Y-4115999D01*
X13387318Y-4268859D01*
X13391203Y-4270546D01*
X13391204Y-4270547D01*
X13547102Y-4338263D01*
X13657159Y-4386067D01*
X13880775Y-4448721D01*
X13936365Y-4464297D01*
X13936367Y-4464297D01*
X13940445Y-4465440D01*
X14231902Y-4505500D01*
X14521861Y-4505500D01*
X14526098Y-4505500D01*
X14817555Y-4465440D01*
X15100841Y-4386067D01*
X15370682Y-4268859D01*
X15622049Y-4115999D01*
X15850260Y-3930335D01*
X16051065Y-3715326D01*
X16220722Y-3474976D01*
X16356072Y-3213764D01*
X16454592Y-2936554D01*
X16514448Y-2648511D01*
X16534525Y-2355000D01*
X16514448Y-2061489D01*
X16454592Y-1773446D01*
X16356072Y-1496236D01*
X16220722Y-1235024D01*
X16051065Y-994674D01*
X15890679Y-822943D01*
X15853147Y-782756D01*
X15853145Y-782754D01*
X15850260Y-779665D01*
X15622049Y-594001D01*
X15370682Y-441141D01*
X15366802Y-439455D01*
X15366795Y-439452D01*
X15104722Y-325618D01*
X15104712Y-325614D01*
X15100841Y-323933D01*
X15096769Y-322792D01*
X14821634Y-245702D01*
X14821621Y-245699D01*
X14817555Y-244560D01*
X14813368Y-243984D01*
X14813356Y-243982D01*
X14530295Y-205076D01*
X14530282Y-205075D01*
X14526098Y-204500D01*
X14231902Y-204500D01*
X14227718Y-205075D01*
X14227704Y-205076D01*
X13944643Y-243982D01*
X13944628Y-243984D01*
X13940445Y-244560D01*
X13936381Y-245698D01*
X13936365Y-245702D01*
X13661230Y-322792D01*
X13661225Y-322793D01*
X13657159Y-323933D01*
X13653291Y-325612D01*
X13653277Y-325618D01*
X13391204Y-439452D01*
X13391191Y-439458D01*
X13387318Y-441141D01*
X13383707Y-443336D01*
X13383699Y-443341D01*
X13139563Y-591804D01*
X13139557Y-591807D01*
X13135951Y-594001D01*
X13132676Y-596664D01*
X13132668Y-596671D01*
X12911025Y-776992D01*
X12911021Y-776995D01*
X12907740Y-779665D01*
X12904861Y-782747D01*
X12904852Y-782756D01*
X12709823Y-991581D01*
X12709818Y-991586D01*
X12706935Y-994674D01*
X12704499Y-998124D01*
X12704490Y-998136D01*
X12539724Y-1231558D01*
X12539720Y-1231563D01*
X12537278Y-1235024D01*
X12535332Y-1238778D01*
X12535328Y-1238786D01*
X12403877Y-1492473D01*
X12403872Y-1492483D01*
X12401928Y-1496236D01*
X12400511Y-1500221D01*
X12400507Y-1500232D01*
X12304829Y-1769445D01*
X12304825Y-1769457D01*
X12303408Y-1773446D01*
X12302545Y-1777596D01*
X12302544Y-1777602D01*
X12244415Y-2057332D01*
X12244413Y-2057343D01*
X12243552Y-2061489D01*
X12243263Y-2065713D01*
X12243262Y-2065721D01*
X12227366Y-2298119D01*
X12223475Y-2355000D01*
X9074894Y-2355000D01*
X9192456Y-2333024D01*
X9382637Y-2259348D01*
X9556041Y-2151981D01*
X9706764Y-2014579D01*
X9829673Y-1851821D01*
X9920582Y-1669250D01*
X9976397Y-1473083D01*
X9995215Y-1270000D01*
X9976397Y-1066917D01*
X9920582Y-870750D01*
X9829673Y-688179D01*
X9770492Y-609811D01*
X9710221Y-529998D01*
X9710217Y-529994D01*
X9706764Y-525421D01*
X9702527Y-521558D01*
X9702523Y-521554D01*
X9560275Y-391879D01*
X9560276Y-391879D01*
X9556041Y-388019D01*
X9551171Y-385004D01*
X9551169Y-385002D01*
X9387511Y-283670D01*
X9387512Y-283670D01*
X9382637Y-280652D01*
X9377294Y-278582D01*
X9197803Y-209047D01*
X9197798Y-209045D01*
X9192456Y-206976D01*
X9182292Y-205076D01*
X8997605Y-170552D01*
X8997602Y-170551D01*
X8991976Y-169500D01*
X8788024Y-169500D01*
X8782398Y-170551D01*
X8782394Y-170552D01*
X8593181Y-205922D01*
X8593178Y-205922D01*
X8587544Y-206976D01*
X8582203Y-209044D01*
X8582196Y-209047D01*
X8402705Y-278582D01*
X8402700Y-278584D01*
X8397363Y-280652D01*
X8392491Y-283668D01*
X8392488Y-283670D01*
X8228830Y-385002D01*
X8228822Y-385007D01*
X8223959Y-388019D01*
X8219728Y-391875D01*
X8219724Y-391879D01*
X8077476Y-521554D01*
X8077466Y-521564D01*
X8073236Y-525421D01*
X8069787Y-529987D01*
X8069778Y-529998D01*
X7953779Y-683607D01*
X7953776Y-683611D01*
X7950327Y-688179D01*
X7947774Y-693304D01*
X7947772Y-693309D01*
X7876819Y-835803D01*
X7859418Y-870750D01*
X7857850Y-876258D01*
X7857847Y-876268D01*
X7805173Y-1061395D01*
X7805170Y-1061406D01*
X7803603Y-1066917D01*
X7784785Y-1270000D01*
X6880500Y-1270000D01*
X6880500Y-835803D01*
X6883139Y-810357D01*
X6883141Y-810343D01*
X6885367Y-799731D01*
X6881451Y-768324D01*
X6881128Y-763113D01*
X6880924Y-763130D01*
X6880500Y-758015D01*
X6880500Y-752886D01*
X6877069Y-732329D01*
X6876342Y-727340D01*
X6869865Y-675374D01*
X6866373Y-668232D01*
X6865065Y-660390D01*
X6840156Y-614363D01*
X6837814Y-609811D01*
X6819339Y-572020D01*
X6814826Y-562788D01*
X6809201Y-557163D01*
X6805419Y-550174D01*
X6766905Y-514719D01*
X6763231Y-511193D01*
X5262819Y989219D01*
X5235939Y1029447D01*
X5226500Y1076900D01*
X5226500Y1270000D01*
X7784785Y1270000D01*
X7785314Y1264291D01*
X7796367Y1145000D01*
X7803603Y1066917D01*
X7805171Y1061406D01*
X7805173Y1061396D01*
X7857847Y876269D01*
X7857849Y876263D01*
X7859418Y870750D01*
X7950327Y688179D01*
X7953779Y683608D01*
X8069778Y529999D01*
X8069783Y529994D01*
X8073236Y525421D01*
X8077472Y521560D01*
X8077476Y521555D01*
X8141876Y462847D01*
X8223959Y388019D01*
X8397363Y280652D01*
X8587544Y206976D01*
X8788024Y169500D01*
X8986247Y169500D01*
X8991976Y169500D01*
X9192456Y206976D01*
X9382637Y280652D01*
X9556041Y388019D01*
X9706764Y525421D01*
X9829673Y688179D01*
X9845680Y720326D01*
X12228500Y720326D01*
X12229688Y714351D01*
X12229689Y714347D01*
X12240650Y659241D01*
X12240651Y659238D01*
X12243034Y647260D01*
X12298399Y564399D01*
X12381260Y509034D01*
X12454326Y494500D01*
X16297579Y494500D01*
X16303674Y494500D01*
X16376740Y509034D01*
X16459601Y564399D01*
X16514966Y647260D01*
X16529500Y720326D01*
X16529500Y4569674D01*
X16514966Y4642740D01*
X16459601Y4725601D01*
X16376740Y4780966D01*
X16364762Y4783349D01*
X16364759Y4783350D01*
X16309653Y4794311D01*
X16309649Y4794312D01*
X16303674Y4795500D01*
X12454326Y4795500D01*
X12448351Y4794312D01*
X12448346Y4794311D01*
X12393240Y4783350D01*
X12393235Y4783349D01*
X12381260Y4780966D01*
X12371105Y4774181D01*
X12371103Y4774180D01*
X12308551Y4732385D01*
X12308548Y4732383D01*
X12298399Y4725601D01*
X12291617Y4715452D01*
X12291615Y4715449D01*
X12249820Y4652897D01*
X12249819Y4652895D01*
X12243034Y4642740D01*
X12240651Y4630765D01*
X12240650Y4630760D01*
X12229689Y4575654D01*
X12229688Y4575649D01*
X12228500Y4569674D01*
X12228500Y720326D01*
X9845680Y720326D01*
X9920582Y870750D01*
X9976397Y1066917D01*
X9995215Y1270000D01*
X9976397Y1473083D01*
X9920582Y1669250D01*
X9829673Y1851821D01*
X9781176Y1916041D01*
X9710221Y2010002D01*
X9710217Y2010006D01*
X9706764Y2014579D01*
X9702527Y2018442D01*
X9702523Y2018446D01*
X9560275Y2148121D01*
X9560276Y2148121D01*
X9556041Y2151981D01*
X9551171Y2154996D01*
X9551169Y2154998D01*
X9387511Y2256330D01*
X9387512Y2256330D01*
X9382637Y2259348D01*
X9377294Y2261418D01*
X9197803Y2330953D01*
X9197798Y2330955D01*
X9192456Y2333024D01*
X9186818Y2334078D01*
X8997605Y2369448D01*
X8997602Y2369449D01*
X8991976Y2370500D01*
X8788024Y2370500D01*
X8782398Y2369449D01*
X8782394Y2369448D01*
X8593181Y2334078D01*
X8593178Y2334078D01*
X8587544Y2333024D01*
X8582203Y2330956D01*
X8582196Y2330953D01*
X8402705Y2261418D01*
X8402700Y2261416D01*
X8397363Y2259348D01*
X8392491Y2256332D01*
X8392488Y2256330D01*
X8228830Y2154998D01*
X8228822Y2154993D01*
X8223959Y2151981D01*
X8219728Y2148125D01*
X8219724Y2148121D01*
X8077476Y2018446D01*
X8077466Y2018436D01*
X8073236Y2014579D01*
X8069787Y2010013D01*
X8069778Y2010002D01*
X7953779Y1856393D01*
X7953776Y1856389D01*
X7950327Y1851821D01*
X7947774Y1846696D01*
X7947772Y1846691D01*
X7947640Y1846425D01*
X7859418Y1669250D01*
X7857850Y1663742D01*
X7857847Y1663732D01*
X7805173Y1478605D01*
X7805170Y1478594D01*
X7803603Y1473083D01*
X7803073Y1467373D01*
X7803073Y1467368D01*
X7785314Y1275709D01*
X7784785Y1270000D01*
X5226500Y1270000D01*
X5226500Y3810000D01*
X7784785Y3810000D01*
X7803603Y3606917D01*
X7805171Y3601406D01*
X7805173Y3601396D01*
X7857847Y3416269D01*
X7857849Y3416263D01*
X7859418Y3410750D01*
X7950327Y3228179D01*
X7953779Y3223608D01*
X8069778Y3069999D01*
X8069783Y3069994D01*
X8073236Y3065421D01*
X8077472Y3061560D01*
X8077476Y3061555D01*
X8111733Y3030326D01*
X8223959Y2928019D01*
X8397363Y2820652D01*
X8587544Y2746976D01*
X8788024Y2709500D01*
X8986247Y2709500D01*
X8991976Y2709500D01*
X9192456Y2746976D01*
X9382637Y2820652D01*
X9556041Y2928019D01*
X9706764Y3065421D01*
X9829673Y3228179D01*
X9920582Y3410750D01*
X9976397Y3606917D01*
X9995215Y3810000D01*
X9976397Y4013083D01*
X9920582Y4209250D01*
X9829673Y4391821D01*
X9781176Y4456041D01*
X9710221Y4550002D01*
X9710217Y4550006D01*
X9706764Y4554579D01*
X9702527Y4558442D01*
X9702523Y4558446D01*
X9560275Y4688121D01*
X9560276Y4688121D01*
X9556041Y4691981D01*
X9551171Y4694996D01*
X9551169Y4694998D01*
X9395231Y4791550D01*
X9382637Y4799348D01*
X9377294Y4801418D01*
X9197803Y4870953D01*
X9197798Y4870955D01*
X9192456Y4873024D01*
X9186818Y4874078D01*
X8997605Y4909448D01*
X8997602Y4909449D01*
X8991976Y4910500D01*
X8788024Y4910500D01*
X8782398Y4909449D01*
X8782394Y4909448D01*
X8593181Y4874078D01*
X8593178Y4874078D01*
X8587544Y4873024D01*
X8582203Y4870956D01*
X8582196Y4870953D01*
X8402705Y4801418D01*
X8402700Y4801416D01*
X8397363Y4799348D01*
X8392491Y4796332D01*
X8392488Y4796330D01*
X8228830Y4694998D01*
X8228822Y4694993D01*
X8223959Y4691981D01*
X8219728Y4688125D01*
X8219724Y4688121D01*
X8077476Y4558446D01*
X8077466Y4558436D01*
X8073236Y4554579D01*
X8069787Y4550013D01*
X8069778Y4550002D01*
X7953779Y4396393D01*
X7953776Y4396389D01*
X7950327Y4391821D01*
X7947774Y4386696D01*
X7947772Y4386691D01*
X7861976Y4214388D01*
X7859418Y4209250D01*
X7857850Y4203742D01*
X7857847Y4203732D01*
X7805173Y4018605D01*
X7805170Y4018594D01*
X7803603Y4013083D01*
X7784785Y3810000D01*
X5226500Y3810000D01*
X5226500Y4563579D01*
X5226500Y4569674D01*
X5211966Y4642740D01*
X5156601Y4725601D01*
X5073740Y4780966D01*
X5061762Y4783349D01*
X5061759Y4783350D01*
X5006653Y4794311D01*
X5006649Y4794312D01*
X5000674Y4795500D01*
X1151326Y4795500D01*
X1145351Y4794312D01*
X1145346Y4794311D01*
X1090240Y4783350D01*
X1090235Y4783349D01*
X1078260Y4780966D01*
X1068105Y4774181D01*
X1068103Y4774180D01*
X1005551Y4732385D01*
X1005548Y4732383D01*
X995399Y4725601D01*
X988617Y4715452D01*
X988615Y4715449D01*
X946820Y4652897D01*
X946819Y4652895D01*
X940034Y4642740D01*
X937651Y4630765D01*
X937650Y4630760D01*
X926689Y4575654D01*
X926688Y4575649D01*
X925500Y4569674D01*
X925500Y720326D01*
X926688Y714351D01*
X926689Y714347D01*
X937650Y659241D01*
X937651Y659238D01*
X940034Y647260D01*
X995399Y564399D01*
X1078260Y509034D01*
X1151326Y494500D01*
X4644101Y494500D01*
X4691554Y485061D01*
X4731782Y458181D01*
X6093181Y-903218D01*
X6120061Y-943446D01*
X6129500Y-990899D01*
X6129500Y-4578101D01*
X6115985Y-4634396D01*
X6078385Y-4678419D01*
X6024898Y-4700574D01*
X5967182Y-4696032D01*
X5917819Y-4665782D01*
X4912665Y-3660628D01*
X4882590Y-3611801D01*
X4877701Y-3554663D01*
X4899044Y-3501436D01*
X4899046Y-3501433D01*
X4917722Y-3474976D01*
X5053072Y-3213764D01*
X5151592Y-2936554D01*
X5211448Y-2648511D01*
X5231525Y-2355000D01*
X5211448Y-2061489D01*
X5151592Y-1773446D01*
X5053072Y-1496236D01*
X4917722Y-1235024D01*
X4748065Y-994674D01*
X4587679Y-822943D01*
X4550147Y-782756D01*
X4550145Y-782754D01*
X4547260Y-779665D01*
X4319049Y-594001D01*
X4067682Y-441141D01*
X4063802Y-439455D01*
X4063795Y-439452D01*
X3801722Y-325618D01*
X3801712Y-325614D01*
X3797841Y-323933D01*
X3793769Y-322792D01*
X3518634Y-245702D01*
X3518621Y-245699D01*
X3514555Y-244560D01*
X3510368Y-243984D01*
X3510356Y-243982D01*
X3227295Y-205076D01*
X3227282Y-205075D01*
X3223098Y-204500D01*
X2928902Y-204500D01*
X2924718Y-205075D01*
X2924704Y-205076D01*
X2641643Y-243982D01*
X2641628Y-243984D01*
X2637445Y-244560D01*
X2633381Y-245698D01*
X2633365Y-245702D01*
X2358230Y-322792D01*
X2358225Y-322793D01*
X2354159Y-323933D01*
X2350291Y-325612D01*
X2350277Y-325618D01*
X2088204Y-439452D01*
X2088191Y-439458D01*
X2084318Y-441141D01*
X2080707Y-443336D01*
X2080699Y-443341D01*
X1836563Y-591804D01*
X1836557Y-591807D01*
X1832951Y-594001D01*
X1829676Y-596664D01*
X1829668Y-596671D01*
X1608025Y-776992D01*
X1608021Y-776995D01*
X1604740Y-779665D01*
X1601861Y-782747D01*
X1601852Y-782756D01*
X1406823Y-991581D01*
X1406818Y-991586D01*
X1403935Y-994674D01*
X1401499Y-998124D01*
X1401490Y-998136D01*
X1236724Y-1231558D01*
X1236720Y-1231563D01*
X1234278Y-1235024D01*
X1232332Y-1238778D01*
X1232328Y-1238786D01*
X1100877Y-1492473D01*
X1100872Y-1492483D01*
X1098928Y-1496236D01*
X1097511Y-1500221D01*
X1097507Y-1500232D01*
X1001829Y-1769445D01*
X1001825Y-1769457D01*
X1000408Y-1773446D01*
X999545Y-1777596D01*
X999544Y-1777602D01*
X941415Y-2057332D01*
X941413Y-2057343D01*
X940552Y-2061489D01*
X940263Y-2065713D01*
X940262Y-2065721D01*
X924366Y-2298119D01*
X920475Y-2355000D01*
X940552Y-2648511D01*
X941413Y-2652658D01*
X941415Y-2652667D01*
X999544Y-2932397D01*
X1000408Y-2936554D01*
X1001826Y-2940546D01*
X1001829Y-2940554D01*
X1097507Y-3209767D01*
X1098928Y-3213764D01*
X1100875Y-3217522D01*
X1100877Y-3217526D01*
X1232328Y-3471213D01*
X1234278Y-3474976D01*
X1258157Y-3508805D01*
X1401490Y-3711863D01*
X1401494Y-3711868D01*
X1403935Y-3715326D01*
X1604740Y-3930335D01*
X1832951Y-4115999D01*
X2084318Y-4268859D01*
X2088203Y-4270546D01*
X2088204Y-4270547D01*
X2244102Y-4338263D01*
X2354159Y-4386067D01*
X2577775Y-4448721D01*
X2633365Y-4464297D01*
X2633367Y-4464297D01*
X2637445Y-4465440D01*
X2928902Y-4505500D01*
X3218861Y-4505500D01*
X3223098Y-4505500D01*
X3514555Y-4465440D01*
X3797841Y-4386067D01*
X4067682Y-4268859D01*
X4227679Y-4171561D01*
X4279427Y-4154158D01*
X4333634Y-4160668D01*
X4379790Y-4189827D01*
X5643181Y-5453218D01*
X5670061Y-5493446D01*
X5679500Y-5540899D01*
X5679500Y-15717705D01*
X5670061Y-15765158D01*
X5643181Y-15805386D01*
X4401385Y-17047181D01*
X4361157Y-17074061D01*
X4313704Y-17083500D01*
X3144387Y-17083500D01*
X3088092Y-17069985D01*
X3044069Y-17032385D01*
X3021914Y-16978898D01*
X3026456Y-16921182D01*
X3056706Y-16871819D01*
X3071711Y-16856813D01*
X3075500Y-16842674D01*
X3075500Y-16815472D01*
X3074310Y-16803400D01*
X3065573Y-16759475D01*
X3065573Y-16711093D01*
X3076000Y-16658674D01*
X3076000Y-16309326D01*
X3065828Y-16258189D01*
X3065828Y-16209811D01*
X3076000Y-16158674D01*
X3076000Y-15809326D01*
X3065828Y-15758189D01*
X3065828Y-15709811D01*
X3076000Y-15658674D01*
X3076000Y-15309326D01*
X3065828Y-15258189D01*
X3065828Y-15209811D01*
X3076000Y-15158674D01*
X3076000Y-14809326D01*
X3061466Y-14736260D01*
X3054680Y-14726104D01*
X3054679Y-14726101D01*
X3050033Y-14719148D01*
X3030198Y-14666443D01*
X3035718Y-14610401D01*
X3065454Y-14562581D01*
X3685889Y-13942146D01*
X3705747Y-13926021D01*
X3714836Y-13920084D01*
X3734279Y-13895102D01*
X3737742Y-13891209D01*
X3737571Y-13891064D01*
X3740883Y-13887153D01*
X3744519Y-13883518D01*
X3756614Y-13866576D01*
X3759621Y-13862542D01*
X3791809Y-13821189D01*
X3794390Y-13813668D01*
X3799010Y-13807199D01*
X3813955Y-13756995D01*
X3815479Y-13752238D01*
X3832500Y-13702660D01*
X3832500Y-13694706D01*
X3834768Y-13687088D01*
X3832606Y-13634807D01*
X3832500Y-13629684D01*
X3832500Y-9010803D01*
X3835139Y-8985357D01*
X3835141Y-8985343D01*
X3837367Y-8974731D01*
X3833451Y-8943324D01*
X3833128Y-8938113D01*
X3832924Y-8938130D01*
X3832500Y-8933015D01*
X3832500Y-8927886D01*
X3829069Y-8907329D01*
X3828342Y-8902340D01*
X3821865Y-8850374D01*
X3818373Y-8843232D01*
X3817065Y-8835390D01*
X3792156Y-8789363D01*
X3789814Y-8784811D01*
X3775883Y-8756315D01*
X3766826Y-8737788D01*
X3761201Y-8732163D01*
X3757419Y-8725174D01*
X3718905Y-8689719D01*
X3715231Y-8686193D01*
X-1310335Y-3660627D01*
X-1340410Y-3611799D01*
X-1345298Y-3554660D01*
X-1323956Y-3501436D01*
X-1305278Y-3474976D01*
X-1169928Y-3213764D01*
X-1071408Y-2936554D01*
X-1011552Y-2648511D01*
X-991475Y-2355000D01*
X-1011552Y-2061489D01*
X-1071408Y-1773446D01*
X-1169928Y-1496236D01*
X-1305278Y-1235024D01*
X-1474935Y-994674D01*
X-1635321Y-822943D01*
X-1672853Y-782756D01*
X-1672855Y-782754D01*
X-1675740Y-779665D01*
X-1903951Y-594001D01*
X-2155318Y-441141D01*
X-2159198Y-439455D01*
X-2159205Y-439452D01*
X-2421278Y-325618D01*
X-2421288Y-325614D01*
X-2425159Y-323933D01*
X-2429231Y-322792D01*
X-2704366Y-245702D01*
X-2704379Y-245699D01*
X-2708445Y-244560D01*
X-2712632Y-243984D01*
X-2712644Y-243982D01*
X-2995705Y-205076D01*
X-2995718Y-205075D01*
X-2999902Y-204500D01*
X-3294098Y-204500D01*
X-3298282Y-205075D01*
X-3298296Y-205076D01*
X-3581357Y-243982D01*
X-3581372Y-243984D01*
X-3585555Y-244560D01*
X-3589619Y-245698D01*
X-3589635Y-245702D01*
X-3864770Y-322792D01*
X-3864775Y-322793D01*
X-3868841Y-323933D01*
X-3872709Y-325612D01*
X-3872723Y-325618D01*
X-4134796Y-439452D01*
X-4134809Y-439458D01*
X-4138682Y-441141D01*
X-4142293Y-443336D01*
X-4142301Y-443341D01*
X-4386437Y-591804D01*
X-4386443Y-591807D01*
X-4390049Y-594001D01*
X-4393324Y-596664D01*
X-4393332Y-596671D01*
X-4614975Y-776992D01*
X-4614979Y-776995D01*
X-4618260Y-779665D01*
X-4621139Y-782747D01*
X-4621148Y-782756D01*
X-4816177Y-991581D01*
X-4816182Y-991586D01*
X-4819065Y-994674D01*
X-4821501Y-998124D01*
X-4821510Y-998136D01*
X-4986276Y-1231558D01*
X-4986280Y-1231563D01*
X-4988722Y-1235024D01*
X-4990668Y-1238778D01*
X-4990672Y-1238786D01*
X-5122123Y-1492473D01*
X-5122128Y-1492483D01*
X-5124072Y-1496236D01*
X-5125489Y-1500221D01*
X-5125493Y-1500232D01*
X-5221171Y-1769445D01*
X-5221175Y-1769457D01*
X-5222592Y-1773446D01*
X-5223455Y-1777596D01*
X-5223456Y-1777602D01*
X-5281585Y-2057332D01*
X-5281587Y-2057343D01*
X-5282448Y-2061489D01*
X-5282737Y-2065713D01*
X-5282738Y-2065721D01*
X-5298634Y-2298119D01*
X-5302525Y-2355000D01*
X-5282448Y-2648511D01*
X-5281587Y-2652658D01*
X-5281585Y-2652667D01*
X-5223456Y-2932397D01*
X-5222592Y-2936554D01*
X-5221174Y-2940546D01*
X-5221171Y-2940554D01*
X-5125493Y-3209767D01*
X-5124072Y-3213764D01*
X-5122125Y-3217522D01*
X-5122123Y-3217526D01*
X-4990672Y-3471213D01*
X-4988722Y-3474976D01*
X-4964843Y-3508805D01*
X-4821510Y-3711863D01*
X-4821506Y-3711868D01*
X-4819065Y-3715326D01*
X-4618260Y-3930335D01*
X-4390049Y-4115999D01*
X-4138682Y-4268859D01*
X-4134797Y-4270546D01*
X-4134796Y-4270547D01*
X-3978898Y-4338263D01*
X-3868841Y-4386067D01*
X-3585555Y-4465440D01*
X-3399280Y-4491042D01*
X-3364656Y-4501092D01*
X-3364521Y-4501153D01*
X-3357053Y-4505953D01*
X-3218961Y-4546500D01*
X-3083910Y-4546500D01*
X-3075039Y-4546500D01*
X-2936947Y-4505953D01*
X-2929479Y-4501153D01*
X-2929347Y-4501093D01*
X-2894722Y-4491042D01*
X-2708445Y-4465440D01*
X-2425159Y-4386067D01*
X-2155318Y-4268859D01*
X-1995321Y-4171561D01*
X-1943573Y-4154158D01*
X-1889366Y-4160668D01*
X-1843210Y-4189827D01*
X3045181Y-9078218D01*
X3072061Y-9118446D01*
X3081500Y-9165899D01*
X3081500Y-13433101D01*
X3072061Y-13480554D01*
X3045181Y-13520782D01*
X2018781Y-14547181D01*
X1978553Y-14574061D01*
X1931100Y-14583500D01*
X1375826Y-14583500D01*
X1369851Y-14584688D01*
X1369846Y-14584689D01*
X1314740Y-14595650D01*
X1314735Y-14595651D01*
X1302760Y-14598034D01*
X1292605Y-14604819D01*
X1292603Y-14604820D01*
X1230051Y-14646615D01*
X1230048Y-14646617D01*
X1219899Y-14653399D01*
X1213117Y-14663548D01*
X1213115Y-14663551D01*
X1171320Y-14726103D01*
X1171319Y-14726105D01*
X1164534Y-14736260D01*
X1162151Y-14748235D01*
X1162150Y-14748240D01*
X1151189Y-14803346D01*
X1151188Y-14803351D01*
X1150000Y-14809326D01*
X1150000Y-15158674D01*
X1151188Y-15164649D01*
X1151189Y-15164653D01*
X1155616Y-15186907D01*
X1151930Y-15249417D01*
X1118170Y-15302155D01*
X1062946Y-15331673D01*
X1000340Y-15330443D01*
X946318Y-15298780D01*
X312819Y-14665281D01*
X285939Y-14625053D01*
X276500Y-14577600D01*
X276500Y-13669793D01*
X292609Y-13608673D01*
X336752Y-13563434D01*
X397457Y-13545830D01*
X458952Y-13560434D01*
X640046Y-13657232D01*
X838066Y-13717300D01*
X1044000Y-13737583D01*
X1249934Y-13717300D01*
X1447954Y-13657232D01*
X1630450Y-13559685D01*
X1790410Y-13428410D01*
X1921685Y-13268450D01*
X2019232Y-13085954D01*
X2079300Y-12887934D01*
X2099583Y-12682000D01*
X2079300Y-12476066D01*
X2019232Y-12278046D01*
X1921685Y-12095550D01*
X1790410Y-11935590D01*
X1783174Y-11929652D01*
X1635157Y-11808178D01*
X1630450Y-11804315D01*
X1611046Y-11793943D01*
X1453328Y-11709640D01*
X1453323Y-11709638D01*
X1447954Y-11706768D01*
X1374826Y-11684585D01*
X1255764Y-11648468D01*
X1255759Y-11648467D01*
X1249934Y-11646700D01*
X1243875Y-11646103D01*
X1243869Y-11646102D01*
X1050061Y-11627014D01*
X1044000Y-11626417D01*
X1037939Y-11627014D01*
X844130Y-11646102D01*
X844122Y-11646103D01*
X838066Y-11646700D01*
X832242Y-11648466D01*
X832235Y-11648468D01*
X645877Y-11704999D01*
X645875Y-11704999D01*
X640046Y-11706768D01*
X634679Y-11709636D01*
X634671Y-11709640D01*
X462920Y-11801444D01*
X462915Y-11801447D01*
X457550Y-11804315D01*
X452846Y-11808174D01*
X452842Y-11808178D01*
X302296Y-11931727D01*
X302290Y-11931732D01*
X297590Y-11935590D01*
X293732Y-11940290D01*
X293727Y-11940296D01*
X170178Y-12090842D01*
X170174Y-12090846D01*
X166315Y-12095550D01*
X155408Y-12115954D01*
X109800Y-12163858D01*
X46051Y-12181500D01*
X-63201Y-12181500D01*
X-117051Y-12181500D01*
X-180800Y-12163858D01*
X-226409Y-12115954D01*
X-237315Y-12095550D01*
X-368590Y-11935590D01*
X-375826Y-11929652D01*
X-523843Y-11808178D01*
X-528550Y-11804315D01*
X-547954Y-11793943D01*
X-705672Y-11709640D01*
X-705677Y-11709638D01*
X-711046Y-11706768D01*
X-784174Y-11684585D01*
X-903236Y-11648468D01*
X-903241Y-11648467D01*
X-909066Y-11646700D01*
X-915125Y-11646103D01*
X-915131Y-11646102D01*
X-1108939Y-11627014D01*
X-1115000Y-11626417D01*
X-1121061Y-11627014D01*
X-1314870Y-11646102D01*
X-1314878Y-11646103D01*
X-1320934Y-11646700D01*
X-1326758Y-11648466D01*
X-1326765Y-11648468D01*
X-1513123Y-11704999D01*
X-1513125Y-11704999D01*
X-1518954Y-11706768D01*
X-1524320Y-11709636D01*
X-1524334Y-11709642D01*
X-1682047Y-11793943D01*
X-1743543Y-11808548D01*
X-1804249Y-11790943D01*
X-1848391Y-11745704D01*
X-1864500Y-11684585D01*
X-1864500Y-10965899D01*
X-1855061Y-10918447D01*
X-1828184Y-10878220D01*
X-1602381Y-10652417D01*
X-1544834Y-10619817D01*
X-1478710Y-10621439D01*
X-1320934Y-10669300D01*
X-1115000Y-10689583D01*
X-909066Y-10669300D01*
X-711046Y-10609232D01*
X-528550Y-10511685D01*
X-368590Y-10380410D01*
X-237315Y-10220450D01*
X-226409Y-10200045D01*
X-180800Y-10152142D01*
X-117051Y-10134500D01*
X46051Y-10134500D01*
X109800Y-10152142D01*
X155408Y-10200045D01*
X166315Y-10220450D01*
X297590Y-10380410D01*
X457550Y-10511685D01*
X640046Y-10609232D01*
X838066Y-10669300D01*
X1044000Y-10689583D01*
X1249934Y-10669300D01*
X1447954Y-10609232D01*
X1630450Y-10511685D01*
X1790410Y-10380410D01*
X1921685Y-10220450D01*
X2019232Y-10037954D01*
X2079300Y-9839934D01*
X2099583Y-9634000D01*
X2079300Y-9428066D01*
X2019232Y-9230046D01*
X1921685Y-9047550D01*
X1790410Y-8887590D01*
X1630450Y-8756315D01*
X1625079Y-8753444D01*
X1453328Y-8661640D01*
X1453323Y-8661638D01*
X1447954Y-8658768D01*
X1411356Y-8647666D01*
X1255764Y-8600468D01*
X1255759Y-8600467D01*
X1249934Y-8598700D01*
X1243875Y-8598103D01*
X1243869Y-8598102D01*
X1050061Y-8579014D01*
X1044000Y-8578417D01*
X1037939Y-8579014D01*
X844130Y-8598102D01*
X844122Y-8598103D01*
X838066Y-8598700D01*
X832242Y-8600466D01*
X832235Y-8600468D01*
X645877Y-8656999D01*
X645875Y-8656999D01*
X640046Y-8658768D01*
X634679Y-8661636D01*
X634671Y-8661640D01*
X462920Y-8753444D01*
X462915Y-8753447D01*
X457550Y-8756315D01*
X452846Y-8760174D01*
X452842Y-8760178D01*
X302296Y-8883727D01*
X302290Y-8883732D01*
X297590Y-8887590D01*
X293732Y-8892290D01*
X293727Y-8892296D01*
X170178Y-9042842D01*
X170174Y-9042846D01*
X166315Y-9047550D01*
X155408Y-9067954D01*
X109800Y-9115858D01*
X46051Y-9133500D01*
X-117051Y-9133500D01*
X-180800Y-9115858D01*
X-226409Y-9067954D01*
X-237315Y-9047550D01*
X-368590Y-8887590D01*
X-528550Y-8756315D01*
X-533921Y-8753444D01*
X-705672Y-8661640D01*
X-705677Y-8661638D01*
X-711046Y-8658768D01*
X-747644Y-8647666D01*
X-903236Y-8600468D01*
X-903241Y-8600467D01*
X-909066Y-8598700D01*
X-915125Y-8598103D01*
X-915131Y-8598102D01*
X-1108939Y-8579014D01*
X-1115000Y-8578417D01*
X-1121061Y-8579014D01*
X-1314870Y-8598102D01*
X-1314878Y-8598103D01*
X-1320934Y-8598700D01*
X-1326758Y-8600466D01*
X-1326765Y-8600468D01*
X-1513123Y-8656999D01*
X-1513125Y-8656999D01*
X-1518954Y-8658768D01*
X-1524321Y-8661636D01*
X-1524329Y-8661640D01*
X-1696080Y-8753444D01*
X-1696085Y-8753447D01*
X-1701450Y-8756315D01*
X-1706154Y-8760174D01*
X-1706158Y-8760178D01*
X-1856704Y-8883727D01*
X-1856710Y-8883732D01*
X-1861410Y-8887590D01*
X-1865268Y-8892290D01*
X-1865273Y-8892296D01*
X-1988822Y-9042842D01*
X-1988826Y-9042846D01*
X-1992685Y-9047550D01*
X-1995553Y-9052915D01*
X-1995556Y-9052920D01*
X-2087360Y-9224671D01*
X-2087364Y-9224679D01*
X-2090232Y-9230046D01*
X-2092001Y-9235875D01*
X-2092001Y-9235877D01*
X-2148532Y-9422235D01*
X-2148534Y-9422242D01*
X-2150300Y-9428066D01*
X-2150897Y-9434122D01*
X-2150898Y-9434130D01*
X-2169110Y-9619040D01*
X-2170583Y-9634000D01*
X-2169986Y-9640061D01*
X-2150898Y-9833869D01*
X-2150897Y-9833875D01*
X-2150300Y-9839934D01*
X-2148533Y-9845759D01*
X-2148532Y-9845764D01*
X-2102441Y-9997705D01*
X-2100818Y-10063830D01*
X-2133421Y-10121381D01*
X-2468893Y-10456853D01*
X-2488742Y-10472973D01*
X-2497836Y-10478916D01*
X-2504142Y-10487017D01*
X-2504148Y-10487023D01*
X-2517280Y-10503895D01*
X-2520727Y-10507822D01*
X-2520582Y-10507945D01*
X-2523895Y-10511855D01*
X-2527520Y-10515482D01*
X-2530495Y-10519648D01*
X-2530502Y-10519657D01*
X-2539599Y-10532399D01*
X-2542658Y-10536501D01*
X-2568500Y-10569703D01*
X-2568504Y-10569710D01*
X-2574809Y-10577811D01*
X-2577391Y-10585331D01*
X-2582010Y-10591801D01*
X-2584940Y-10601641D01*
X-2584942Y-10601646D01*
X-2596944Y-10641957D01*
X-2598505Y-10646829D01*
X-2612164Y-10686619D01*
X-2612165Y-10686624D01*
X-2615500Y-10696340D01*
X-2615500Y-10704294D01*
X-2617768Y-10711912D01*
X-2617344Y-10722175D01*
X-2617344Y-10722179D01*
X-2615606Y-10764193D01*
X-2615500Y-10769316D01*
X-2615500Y-13455299D01*
X-2618140Y-13480748D01*
X-2618259Y-13481313D01*
X-2618260Y-13481320D01*
X-2620367Y-13491372D01*
X-2619097Y-13501562D01*
X-2619097Y-13501566D01*
X-2616452Y-13522780D01*
X-2616129Y-13527995D01*
X-2615923Y-13527978D01*
X-2615500Y-13533085D01*
X-2615500Y-13538218D01*
X-2614656Y-13543276D01*
X-2614655Y-13543288D01*
X-2612082Y-13558707D01*
X-2611343Y-13563774D01*
X-2608322Y-13588008D01*
X-2604866Y-13615730D01*
X-2601374Y-13622874D01*
X-2600065Y-13630714D01*
X-2575155Y-13676745D01*
X-2572829Y-13681265D01*
X-2554340Y-13719083D01*
X-2554339Y-13719085D01*
X-2549826Y-13728315D01*
X-2544203Y-13733938D01*
X-2540419Y-13740930D01*
X-2532862Y-13747886D01*
X-2532861Y-13747888D01*
X-2501918Y-13776373D01*
X-2498220Y-13779921D01*
X-1906322Y-14371819D01*
X-1876072Y-14421182D01*
X-1871530Y-14478898D01*
X-1893685Y-14532385D01*
X-1937708Y-14569985D01*
X-1994003Y-14583500D01*
X-3048174Y-14583500D01*
X-3054149Y-14584688D01*
X-3054154Y-14584689D01*
X-3109260Y-14595650D01*
X-3109265Y-14595651D01*
X-3121240Y-14598034D01*
X-3131395Y-14604819D01*
X-3131397Y-14604820D01*
X-3193949Y-14646615D01*
X-3193952Y-14646617D01*
X-3204101Y-14653399D01*
X-3210883Y-14663548D01*
X-3210885Y-14663551D01*
X-3252680Y-14726103D01*
X-3252681Y-14726105D01*
X-3259466Y-14736260D01*
X-3261849Y-14748235D01*
X-3261850Y-14748240D01*
X-3272811Y-14803346D01*
X-3272812Y-14803351D01*
X-3274000Y-14809326D01*
X-3274000Y-15158674D01*
X-3272812Y-15164647D01*
X-3272811Y-15164655D01*
X-3268384Y-15186909D01*
X-3272070Y-15249418D01*
X-3305830Y-15302156D01*
X-3361054Y-15331674D01*
X-3423660Y-15330444D01*
X-3477682Y-15298781D01*
X-4833539Y-13942924D01*
X-6291181Y-12485281D01*
X-6318061Y-12445053D01*
X-6327500Y-12397600D01*
X-6327500Y-3508805D01*
X-6324860Y-3483356D01*
X-6324742Y-3482790D01*
X-6324742Y-3482789D01*
X-6322633Y-3472732D01*
X-6326549Y-3441323D01*
X-6326872Y-3436113D01*
X-6327076Y-3436130D01*
X-6327500Y-3431018D01*
X-6327500Y-3425886D01*
X-6330926Y-3405362D01*
X-6331659Y-3400326D01*
X-6336863Y-3358572D01*
X-6338134Y-3348374D01*
X-6341627Y-3341229D01*
X-6342935Y-3333390D01*
X-6367842Y-3287366D01*
X-6370163Y-3282859D01*
X-6393174Y-3235789D01*
X-6398798Y-3230165D01*
X-6402581Y-3223174D01*
X-6410142Y-3216214D01*
X-6410143Y-3216212D01*
X-6441083Y-3187730D01*
X-6444781Y-3184182D01*
X-7830699Y-1798263D01*
X-7857211Y-1758914D01*
X-7867003Y-1712488D01*
X-7859272Y-1669291D01*
X-7859418Y-1669250D01*
X-7859418Y-1669249D01*
X-7803603Y-1473083D01*
X-7784785Y-1270000D01*
X-7803603Y-1066917D01*
X-7859418Y-870750D01*
X-7950327Y-688179D01*
X-8009508Y-609811D01*
X-8069779Y-529998D01*
X-8069783Y-529994D01*
X-8073236Y-525421D01*
X-8077473Y-521558D01*
X-8077477Y-521554D01*
X-8219725Y-391879D01*
X-8219724Y-391879D01*
X-8223959Y-388019D01*
X-8228829Y-385004D01*
X-8228831Y-385002D01*
X-8392489Y-283670D01*
X-8392488Y-283670D01*
X-8397363Y-280652D01*
X-8402706Y-278582D01*
X-8582197Y-209047D01*
X-8582202Y-209045D01*
X-8587544Y-206976D01*
X-8597708Y-205076D01*
X-8782395Y-170552D01*
X-8782398Y-170551D01*
X-8788024Y-169500D01*
X-8991976Y-169500D01*
X-8997602Y-170551D01*
X-8997606Y-170552D01*
X-9186819Y-205922D01*
X-9186822Y-205922D01*
X-9192456Y-206976D01*
X-9197797Y-209044D01*
X-9197804Y-209047D01*
X-9377295Y-278582D01*
X-9377300Y-278584D01*
X-9382637Y-280652D01*
X-9387509Y-283668D01*
X-9387512Y-283670D01*
X-9551170Y-385002D01*
X-9551178Y-385007D01*
X-9556041Y-388019D01*
X-9560272Y-391875D01*
X-9560276Y-391879D01*
X-9702524Y-521554D01*
X-9702534Y-521564D01*
X-9706764Y-525421D01*
X-9710213Y-529987D01*
X-9710222Y-529998D01*
X-9826221Y-683607D01*
X-9826224Y-683611D01*
X-9829673Y-688179D01*
X-9832226Y-693304D01*
X-9832228Y-693309D01*
X-9903181Y-835803D01*
X-9920582Y-870750D01*
X-9922150Y-876258D01*
X-9922153Y-876268D01*
X-9974827Y-1061395D01*
X-9974830Y-1061406D01*
X-9976397Y-1066917D01*
X-9995215Y-1270000D01*
X-9976397Y-1473083D01*
X-9974829Y-1478594D01*
X-9974827Y-1478604D01*
X-9922153Y-1663731D01*
X-9922151Y-1663737D01*
X-9920582Y-1669250D01*
X-9829673Y-1851821D01*
X-9826221Y-1856392D01*
X-9710222Y-2010001D01*
X-9710217Y-2010006D01*
X-9706764Y-2014579D01*
X-9702528Y-2018440D01*
X-9702524Y-2018445D01*
X-9613216Y-2099859D01*
X-9556041Y-2151981D01*
X-9382637Y-2259348D01*
X-9192456Y-2333024D01*
X-8991976Y-2370500D01*
X-8793753Y-2370500D01*
X-8788024Y-2370500D01*
X-8587544Y-2333024D01*
X-8497441Y-2298117D01*
X-8450746Y-2289760D01*
X-8404321Y-2299552D01*
X-8364973Y-2326064D01*
X-7114819Y-3576218D01*
X-7087939Y-3616446D01*
X-7078500Y-3663899D01*
X-7078500Y-12552695D01*
X-7081140Y-12578144D01*
X-7081259Y-12578709D01*
X-7081260Y-12578716D01*
X-7083367Y-12588768D01*
X-7082097Y-12598958D01*
X-7082097Y-12598962D01*
X-7079452Y-12620176D01*
X-7079129Y-12625391D01*
X-7078923Y-12625374D01*
X-7078500Y-12630481D01*
X-7078500Y-12635614D01*
X-7077656Y-12640672D01*
X-7077655Y-12640684D01*
X-7075082Y-12656103D01*
X-7074343Y-12661170D01*
X-7069137Y-12702930D01*
X-7067866Y-12713126D01*
X-7064374Y-12720270D01*
X-7063065Y-12728110D01*
X-7038155Y-12774141D01*
X-7035829Y-12778661D01*
X-7017340Y-12816479D01*
X-7017339Y-12816481D01*
X-7012826Y-12825711D01*
X-7007203Y-12831334D01*
X-7003419Y-12838326D01*
X-6995862Y-12845282D01*
X-6995861Y-12845284D01*
X-6964918Y-12873769D01*
X-6961220Y-12877317D01*
X-3941718Y-15896819D01*
X-3911468Y-15946182D01*
X-3906926Y-16003898D01*
X-3929081Y-16057385D01*
X-3973104Y-16094985D01*
X-4029399Y-16108500D01*
X-7139100Y-16108500D01*
X-7186553Y-16099061D01*
X-7226781Y-16072181D01*
X-10101181Y-13197781D01*
X-10128061Y-13157553D01*
X-10137500Y-13110100D01*
X-10137500Y-12682000D01*
X-9790583Y-12682000D01*
X-9789986Y-12688061D01*
X-9770898Y-12881869D01*
X-9770897Y-12881875D01*
X-9770300Y-12887934D01*
X-9768533Y-12893759D01*
X-9768532Y-12893764D01*
X-9721334Y-13049356D01*
X-9710232Y-13085954D01*
X-9707362Y-13091323D01*
X-9707360Y-13091328D01*
X-9637114Y-13222747D01*
X-9612685Y-13268450D01*
X-9481410Y-13428410D01*
X-9321450Y-13559685D01*
X-9138954Y-13657232D01*
X-8940934Y-13717300D01*
X-8735000Y-13737583D01*
X-8529066Y-13717300D01*
X-8331046Y-13657232D01*
X-8148550Y-13559685D01*
X-7988590Y-13428410D01*
X-7857315Y-13268450D01*
X-7759768Y-13085954D01*
X-7699700Y-12887934D01*
X-7679417Y-12682000D01*
X-7699700Y-12476066D01*
X-7759768Y-12278046D01*
X-7857315Y-12095550D01*
X-7988590Y-11935590D01*
X-7995826Y-11929652D01*
X-8143843Y-11808178D01*
X-8148550Y-11804315D01*
X-8168955Y-11793408D01*
X-8216858Y-11747800D01*
X-8234500Y-11684051D01*
X-8234500Y-10631949D01*
X-8216858Y-10568200D01*
X-8168955Y-10522591D01*
X-8148550Y-10511685D01*
X-7988590Y-10380410D01*
X-7857315Y-10220450D01*
X-7759768Y-10037954D01*
X-7699700Y-9839934D01*
X-7679417Y-9634000D01*
X-7699700Y-9428066D01*
X-7759768Y-9230046D01*
X-7857315Y-9047550D01*
X-7988590Y-8887590D01*
X-8148550Y-8756315D01*
X-8153921Y-8753444D01*
X-8325672Y-8661640D01*
X-8325677Y-8661638D01*
X-8331046Y-8658768D01*
X-8367644Y-8647666D01*
X-8523236Y-8600468D01*
X-8523241Y-8600467D01*
X-8529066Y-8598700D01*
X-8535125Y-8598103D01*
X-8535131Y-8598102D01*
X-8728939Y-8579014D01*
X-8735000Y-8578417D01*
X-8741061Y-8579014D01*
X-8934870Y-8598102D01*
X-8934878Y-8598103D01*
X-8940934Y-8598700D01*
X-8946758Y-8600466D01*
X-8946765Y-8600468D01*
X-9133123Y-8656999D01*
X-9133125Y-8656999D01*
X-9138954Y-8658768D01*
X-9144321Y-8661636D01*
X-9144329Y-8661640D01*
X-9316080Y-8753444D01*
X-9316085Y-8753447D01*
X-9321450Y-8756315D01*
X-9326154Y-8760174D01*
X-9326158Y-8760178D01*
X-9476704Y-8883727D01*
X-9476710Y-8883732D01*
X-9481410Y-8887590D01*
X-9485268Y-8892290D01*
X-9485273Y-8892296D01*
X-9608822Y-9042842D01*
X-9608826Y-9042846D01*
X-9612685Y-9047550D01*
X-9615553Y-9052915D01*
X-9615556Y-9052920D01*
X-9707360Y-9224671D01*
X-9707364Y-9224679D01*
X-9710232Y-9230046D01*
X-9712001Y-9235875D01*
X-9712001Y-9235877D01*
X-9768532Y-9422235D01*
X-9768534Y-9422242D01*
X-9770300Y-9428066D01*
X-9770897Y-9434122D01*
X-9770898Y-9434130D01*
X-9789110Y-9619040D01*
X-9790583Y-9634000D01*
X-9789986Y-9640061D01*
X-9770898Y-9833869D01*
X-9770897Y-9833875D01*
X-9770300Y-9839934D01*
X-9710232Y-10037954D01*
X-9707362Y-10043323D01*
X-9707360Y-10043328D01*
X-9680622Y-10093350D01*
X-9612685Y-10220450D01*
X-9481410Y-10380410D01*
X-9321450Y-10511685D01*
X-9301046Y-10522591D01*
X-9253142Y-10568200D01*
X-9235500Y-10631949D01*
X-9235500Y-11684051D01*
X-9253142Y-11747800D01*
X-9301046Y-11793408D01*
X-9321450Y-11804315D01*
X-9326154Y-11808174D01*
X-9326158Y-11808178D01*
X-9476704Y-11931727D01*
X-9476710Y-11931732D01*
X-9481410Y-11935590D01*
X-9485268Y-11940290D01*
X-9485273Y-11940296D01*
X-9608822Y-12090842D01*
X-9608826Y-12090846D01*
X-9612685Y-12095550D01*
X-9615553Y-12100915D01*
X-9615556Y-12100920D01*
X-9707360Y-12272671D01*
X-9707364Y-12272679D01*
X-9710232Y-12278046D01*
X-9712001Y-12283875D01*
X-9712001Y-12283877D01*
X-9768532Y-12470235D01*
X-9768534Y-12470242D01*
X-9770300Y-12476066D01*
X-9770897Y-12482122D01*
X-9770898Y-12482130D01*
X-9785246Y-12627814D01*
X-9790583Y-12682000D01*
X-10137500Y-12682000D01*
X-10137500Y-6840835D01*
X-10120115Y-6777517D01*
X-10072835Y-6731953D01*
X-10008918Y-6716920D01*
X-9946285Y-6736632D01*
X-9902500Y-6785564D01*
X-9829673Y-6931821D01*
X-9826221Y-6936392D01*
X-9710222Y-7090001D01*
X-9710217Y-7090006D01*
X-9706764Y-7094579D01*
X-9702528Y-7098440D01*
X-9702524Y-7098445D01*
X-9600773Y-7191203D01*
X-9556041Y-7231981D01*
X-9382637Y-7339348D01*
X-9192456Y-7413024D01*
X-8991976Y-7450500D01*
X-8793753Y-7450500D01*
X-8788024Y-7450500D01*
X-8587544Y-7413024D01*
X-8397363Y-7339348D01*
X-8223959Y-7231981D01*
X-8073236Y-7094579D01*
X-7950327Y-6931821D01*
X-7859418Y-6749250D01*
X-7803603Y-6553083D01*
X-7784785Y-6350000D01*
X-7803603Y-6146917D01*
X-7859418Y-5950750D01*
X-7950327Y-5768179D01*
X-8047199Y-5639899D01*
X-8069779Y-5609998D01*
X-8069783Y-5609994D01*
X-8073236Y-5605421D01*
X-8077473Y-5601558D01*
X-8077477Y-5601554D01*
X-8219725Y-5471879D01*
X-8219724Y-5471879D01*
X-8223959Y-5468019D01*
X-8228829Y-5465004D01*
X-8228831Y-5465002D01*
X-8346503Y-5392143D01*
X-8397363Y-5360652D01*
X-8402706Y-5358582D01*
X-8582197Y-5289047D01*
X-8582202Y-5289045D01*
X-8587544Y-5286976D01*
X-8648154Y-5275646D01*
X-8782395Y-5250552D01*
X-8782398Y-5250551D01*
X-8788024Y-5249500D01*
X-8991976Y-5249500D01*
X-8997602Y-5250551D01*
X-8997606Y-5250552D01*
X-9186819Y-5285922D01*
X-9186822Y-5285922D01*
X-9192456Y-5286976D01*
X-9197797Y-5289044D01*
X-9197804Y-5289047D01*
X-9377295Y-5358582D01*
X-9377300Y-5358584D01*
X-9382637Y-5360652D01*
X-9387509Y-5363668D01*
X-9387512Y-5363670D01*
X-9551170Y-5465002D01*
X-9551178Y-5465007D01*
X-9556041Y-5468019D01*
X-9560272Y-5471875D01*
X-9560276Y-5471879D01*
X-9702524Y-5601554D01*
X-9702534Y-5601564D01*
X-9706764Y-5605421D01*
X-9710213Y-5609987D01*
X-9710222Y-5609998D01*
X-9826221Y-5763607D01*
X-9826224Y-5763611D01*
X-9829673Y-5768179D01*
X-9832226Y-5773304D01*
X-9832228Y-5773309D01*
X-9902500Y-5914436D01*
X-9946285Y-5963368D01*
X-10008918Y-5983080D01*
X-10072835Y-5968047D01*
X-10120115Y-5922483D01*
X-10137500Y-5859165D01*
X-10137500Y-5639899D01*
X-10128061Y-5592446D01*
X-10101181Y-5552218D01*
X-9929816Y-5380853D01*
X-9415027Y-4866062D01*
X-9375682Y-4839554D01*
X-9329258Y-4829761D01*
X-9282555Y-4838120D01*
X-9197813Y-4870949D01*
X-9197810Y-4870949D01*
X-9192456Y-4873024D01*
X-8991976Y-4910500D01*
X-8793753Y-4910500D01*
X-8788024Y-4910500D01*
X-8587544Y-4873024D01*
X-8397363Y-4799348D01*
X-8223959Y-4691981D01*
X-8073236Y-4554579D01*
X-7950327Y-4391821D01*
X-7859418Y-4209250D01*
X-7803603Y-4013083D01*
X-7784785Y-3810000D01*
X-7803603Y-3606917D01*
X-7818472Y-3554660D01*
X-7857848Y-3416268D01*
X-7859418Y-3410750D01*
X-7950327Y-3228179D01*
X-7998824Y-3163959D01*
X-8069779Y-3069998D01*
X-8069783Y-3069994D01*
X-8073236Y-3065421D01*
X-8077473Y-3061558D01*
X-8077477Y-3061554D01*
X-8219725Y-2931879D01*
X-8219724Y-2931879D01*
X-8223959Y-2928019D01*
X-8228829Y-2925004D01*
X-8228831Y-2925002D01*
X-8392489Y-2823670D01*
X-8392488Y-2823670D01*
X-8397363Y-2820652D01*
X-8402706Y-2818582D01*
X-8582197Y-2749047D01*
X-8582202Y-2749045D01*
X-8587544Y-2746976D01*
X-8593182Y-2745922D01*
X-8782395Y-2710552D01*
X-8782398Y-2710551D01*
X-8788024Y-2709500D01*
X-8991976Y-2709500D01*
X-8997602Y-2710551D01*
X-8997606Y-2710552D01*
X-9186819Y-2745922D01*
X-9186822Y-2745922D01*
X-9192456Y-2746976D01*
X-9197797Y-2749044D01*
X-9197804Y-2749047D01*
X-9377295Y-2818582D01*
X-9377300Y-2818584D01*
X-9382637Y-2820652D01*
X-9387509Y-2823668D01*
X-9387512Y-2823670D01*
X-9551170Y-2925002D01*
X-9551178Y-2925007D01*
X-9556041Y-2928019D01*
X-9560272Y-2931875D01*
X-9560276Y-2931879D01*
X-9702524Y-3061554D01*
X-9702534Y-3061564D01*
X-9706764Y-3065421D01*
X-9710213Y-3069987D01*
X-9710222Y-3069998D01*
X-9826221Y-3223607D01*
X-9826224Y-3223611D01*
X-9829673Y-3228179D01*
X-9832226Y-3233304D01*
X-9832228Y-3233309D01*
X-9916653Y-3402859D01*
X-9920582Y-3410750D01*
X-9922150Y-3416258D01*
X-9922153Y-3416268D01*
X-9974827Y-3601395D01*
X-9974830Y-3601406D01*
X-9976397Y-3606917D01*
X-9976927Y-3612627D01*
X-9976927Y-3612632D01*
X-9986729Y-3718418D01*
X-9995215Y-3810000D01*
X-9976397Y-4013083D01*
X-9974829Y-4018594D01*
X-9974827Y-4018604D01*
X-9947115Y-4115999D01*
X-9920996Y-4207795D01*
X-9920995Y-4207800D01*
X-9920582Y-4209250D01*
X-9920728Y-4209291D01*
X-9912998Y-4252498D01*
X-9922792Y-4298918D01*
X-9949302Y-4338263D01*
X-10741893Y-5130853D01*
X-10761742Y-5146973D01*
X-10770836Y-5152916D01*
X-10777142Y-5161017D01*
X-10777148Y-5161023D01*
X-10790280Y-5177895D01*
X-10793727Y-5181822D01*
X-10793582Y-5181945D01*
X-10796895Y-5185855D01*
X-10800520Y-5189482D01*
X-10803495Y-5193648D01*
X-10803502Y-5193657D01*
X-10812599Y-5206399D01*
X-10815658Y-5210501D01*
X-10841500Y-5243703D01*
X-10841504Y-5243710D01*
X-10847809Y-5251811D01*
X-10850391Y-5259331D01*
X-10855010Y-5265801D01*
X-10857940Y-5275641D01*
X-10857942Y-5275646D01*
X-10869944Y-5315957D01*
X-10871505Y-5320829D01*
X-10885164Y-5360619D01*
X-10885165Y-5360624D01*
X-10888500Y-5370340D01*
X-10888500Y-5378294D01*
X-10890768Y-5385912D01*
X-10890344Y-5396175D01*
X-10890344Y-5396179D01*
X-10888606Y-5438193D01*
X-10888500Y-5443316D01*
X-10888500Y-13265195D01*
X-10891140Y-13290644D01*
X-10891259Y-13291209D01*
X-10891260Y-13291216D01*
X-10893367Y-13301268D01*
X-10892097Y-13311458D01*
X-10892097Y-13311462D01*
X-10889452Y-13332676D01*
X-10889129Y-13337891D01*
X-10888923Y-13337874D01*
X-10888500Y-13342981D01*
X-10888500Y-13348114D01*
X-10887656Y-13353172D01*
X-10887655Y-13353184D01*
X-10885082Y-13368603D01*
X-10884343Y-13373670D01*
X-10877866Y-13425626D01*
X-10874374Y-13432770D01*
X-10873065Y-13440610D01*
X-10848155Y-13486641D01*
X-10845829Y-13491161D01*
X-10827340Y-13528979D01*
X-10827339Y-13528981D01*
X-10822826Y-13538211D01*
X-10817203Y-13543834D01*
X-10813419Y-13550826D01*
X-10805862Y-13557782D01*
X-10805861Y-13557784D01*
X-10774918Y-13586269D01*
X-10771220Y-13589817D01*
X-7648150Y-16712887D01*
X-7632026Y-16732741D01*
X-7626084Y-16741836D01*
X-7617982Y-16748142D01*
X-7617979Y-16748145D01*
X-7601106Y-16761277D01*
X-7597192Y-16764734D01*
X-7597058Y-16764577D01*
X-7593152Y-16767885D01*
X-7589518Y-16771519D01*
X-7573798Y-16782742D01*
X-7572611Y-16783590D01*
X-7568500Y-16786655D01*
X-7527189Y-16818809D01*
X-7519669Y-16821390D01*
X-7513199Y-16826010D01*
X-7463060Y-16840937D01*
X-7458178Y-16842501D01*
X-7432891Y-16851181D01*
X-7408660Y-16859500D01*
X-7400707Y-16859500D01*
X-7393089Y-16861768D01*
X-7340809Y-16859606D01*
X-7335685Y-16859500D01*
X-3398000Y-16859500D01*
X-3336000Y-16876113D01*
X-3290613Y-16921500D01*
X-3274000Y-16983500D01*
X-3274000Y-17158674D01*
X-3272812Y-17164649D01*
X-3272811Y-17164653D01*
X-3261850Y-17219759D01*
X-3261849Y-17219762D01*
X-3259466Y-17231740D01*
X-3204101Y-17314601D01*
X-3121240Y-17369966D01*
X-3048174Y-17384500D01*
X-2492899Y-17384500D01*
X-2445446Y-17393939D01*
X-2405218Y-17420819D01*
X-1688150Y-18137887D01*
X-1672026Y-18157741D01*
X-1666084Y-18166836D01*
X-1657982Y-18173142D01*
X-1657979Y-18173145D01*
X-1641106Y-18186277D01*
X-1637189Y-18189737D01*
X-1637055Y-18189580D01*
X-1633146Y-18192891D01*
X-1629517Y-18196520D01*
X-1625345Y-18199498D01*
X-1625340Y-18199503D01*
X-1612605Y-18208595D01*
X-1608501Y-18211655D01*
X-1567189Y-18243809D01*
X-1559669Y-18246390D01*
X-1553199Y-18251010D01*
X-1543352Y-18253941D01*
X-1543349Y-18253943D01*
X-1503040Y-18265943D01*
X-1498196Y-18267494D01*
X-1448660Y-18284500D01*
X-1440709Y-18284500D01*
X-1433088Y-18286769D01*
X-1380794Y-18284605D01*
X-1375669Y-18284500D01*
X3519967Y-18284500D01*
X3578649Y-18299264D01*
X3623357Y-18340042D01*
X3643444Y-18397121D01*
X3634127Y-18456910D01*
X3597624Y-18505171D01*
X3542629Y-18530412D01*
X3236248Y-18587364D01*
X3233665Y-18587816D01*
X2844363Y-18651697D01*
X2841342Y-18652154D01*
X2377976Y-18716510D01*
X2375313Y-18716851D01*
X1983344Y-18762665D01*
X1980368Y-18762976D01*
X1514658Y-18806045D01*
X1511921Y-18806268D01*
X1118143Y-18833906D01*
X1115216Y-18834076D01*
X648101Y-18855780D01*
X645295Y-18855879D01*
X250620Y-18865268D01*
X247751Y-18865303D01*
X-219852Y-18865605D01*
X-222722Y-18865574D01*
X-617399Y-18856692D01*
X-620205Y-18856597D01*
X-1087412Y-18835491D01*
X-1090338Y-18835324D01*
X-1484071Y-18808199D01*
X-1486809Y-18807980D01*
X-1952642Y-18765505D01*
X-1955619Y-18765197D01*
X-2347607Y-18719892D01*
X-2350270Y-18719555D01*
X-2813750Y-18655791D01*
X-2816771Y-18655337D01*
X-3206125Y-18591962D01*
X-3208709Y-18591514D01*
X-3668877Y-18506586D01*
X-3671934Y-18505982D01*
X-4057889Y-18424672D01*
X-4060390Y-18424118D01*
X-4516294Y-18318193D01*
X-4519380Y-18317434D01*
X-4900957Y-18218405D01*
X-4903370Y-18217753D01*
X-5354186Y-18091004D01*
X-5357293Y-18090086D01*
X-5733671Y-17973573D01*
X-5735992Y-17972829D01*
X-6180651Y-17825540D01*
X-6183771Y-17824461D01*
X-6554243Y-17690699D01*
X-6556470Y-17689870D01*
X-6994136Y-17522301D01*
X-6997261Y-17521056D01*
X-7360804Y-17370438D01*
X-7362933Y-17369533D01*
X-7792792Y-17181966D01*
X-7795912Y-17180553D01*
X-8151851Y-17013392D01*
X-8153881Y-17012416D01*
X-8574953Y-16805249D01*
X-8578059Y-16803666D01*
X-8925580Y-16620376D01*
X-8927510Y-16619336D01*
X-9338995Y-16392926D01*
X-9342078Y-16391172D01*
X-9680336Y-16192241D01*
X-9682093Y-16191188D01*
X-9900920Y-16057385D01*
X-10083228Y-15945911D01*
X-10086280Y-15943983D01*
X-10414651Y-15729822D01*
X-10416373Y-15728678D01*
X-10806157Y-15465097D01*
X-10809167Y-15462996D01*
X-11037161Y-15298780D01*
X-11126885Y-15234155D01*
X-11128362Y-15233072D01*
X-11506215Y-14951525D01*
X-11509133Y-14949281D01*
X-11815443Y-14706363D01*
X-11816956Y-14705144D01*
X-12181878Y-14406308D01*
X-12184737Y-14403893D01*
X-12479084Y-14147408D01*
X-12480418Y-14146227D01*
X-12707564Y-13942151D01*
X-12831770Y-13830560D01*
X-12834583Y-13827952D01*
X-12843608Y-13819322D01*
X-13116133Y-13558710D01*
X-13117428Y-13557455D01*
X-13124159Y-13550826D01*
X-13454482Y-13225527D01*
X-13457216Y-13222747D01*
X-13471063Y-13208221D01*
X-13582673Y-13091134D01*
X-13725512Y-12941285D01*
X-13726716Y-12940004D01*
X-14048671Y-12592515D01*
X-14051330Y-12589552D01*
X-14061239Y-12578144D01*
X-14305841Y-12296526D01*
X-14306945Y-12295237D01*
X-14607606Y-11939355D01*
X-14613168Y-11932771D01*
X-14615717Y-11929652D01*
X-14711403Y-11808599D01*
X-14837977Y-11648468D01*
X-14855837Y-11625873D01*
X-14856842Y-11624584D01*
X-15146677Y-11247802D01*
X-15149125Y-11244508D01*
X-15160765Y-11228293D01*
X-15374396Y-10930693D01*
X-15375280Y-10929445D01*
X-15382965Y-10918447D01*
X-15648165Y-10538933D01*
X-15650451Y-10535541D01*
X-15860404Y-10212496D01*
X-15861145Y-10211339D01*
X-16116468Y-9807801D01*
X-16118664Y-9804196D01*
X-16130817Y-9783456D01*
X-16312819Y-9472852D01*
X-16313449Y-9471762D01*
X-16550667Y-9055851D01*
X-16552714Y-9052112D01*
X-16706092Y-8760178D01*
X-16730682Y-8713374D01*
X-16731276Y-8712229D01*
X-16949810Y-8284719D01*
X-16951688Y-8280881D01*
X-17113251Y-7935429D01*
X-17113726Y-7934398D01*
X-17313038Y-7496071D01*
X-17314784Y-7492042D01*
X-17459548Y-7141042D01*
X-17459956Y-7140038D01*
X-17639620Y-6691491D01*
X-17641185Y-6687369D01*
X-17768980Y-6331646D01*
X-17769246Y-6330894D01*
X-17928830Y-5872756D01*
X-17930228Y-5868496D01*
X-18040777Y-5509353D01*
X-18041101Y-5508280D01*
X-18047658Y-5486259D01*
X-18180083Y-5041526D01*
X-18181285Y-5037200D01*
X-18274575Y-4675356D01*
X-18274710Y-4674825D01*
X-18392814Y-4199656D01*
X-18393832Y-4195204D01*
X-18469768Y-3831884D01*
X-18469854Y-3831465D01*
X-18566590Y-3348867D01*
X-18567408Y-3344345D01*
X-18625971Y-2980891D01*
X-18626026Y-2980545D01*
X-18701045Y-2490945D01*
X-18701657Y-2486356D01*
X-18716626Y-2355000D01*
X-16511525Y-2355000D01*
X-16491448Y-2648511D01*
X-16490587Y-2652658D01*
X-16490585Y-2652667D01*
X-16432456Y-2932397D01*
X-16431592Y-2936554D01*
X-16430174Y-2940546D01*
X-16430171Y-2940554D01*
X-16334493Y-3209767D01*
X-16333072Y-3213764D01*
X-16331125Y-3217522D01*
X-16331123Y-3217526D01*
X-16199672Y-3471213D01*
X-16197722Y-3474976D01*
X-16173843Y-3508805D01*
X-16030510Y-3711863D01*
X-16030506Y-3711868D01*
X-16028065Y-3715326D01*
X-15827260Y-3930335D01*
X-15599049Y-4115999D01*
X-15347682Y-4268859D01*
X-15343797Y-4270546D01*
X-15343796Y-4270547D01*
X-15187898Y-4338263D01*
X-15077841Y-4386067D01*
X-14854225Y-4448721D01*
X-14798635Y-4464297D01*
X-14798633Y-4464297D01*
X-14794555Y-4465440D01*
X-14503098Y-4505500D01*
X-14213139Y-4505500D01*
X-14208902Y-4505500D01*
X-13917445Y-4465440D01*
X-13634159Y-4386067D01*
X-13364318Y-4268859D01*
X-13112951Y-4115999D01*
X-12884740Y-3930335D01*
X-12683935Y-3715326D01*
X-12514278Y-3474976D01*
X-12378928Y-3213764D01*
X-12280408Y-2936554D01*
X-12220552Y-2648511D01*
X-12200475Y-2355000D01*
X-12220552Y-2061489D01*
X-12280408Y-1773446D01*
X-12378928Y-1496236D01*
X-12514278Y-1235024D01*
X-12683935Y-994674D01*
X-12844321Y-822943D01*
X-12881853Y-782756D01*
X-12881855Y-782754D01*
X-12884740Y-779665D01*
X-13112951Y-594001D01*
X-13364318Y-441141D01*
X-13368198Y-439455D01*
X-13368205Y-439452D01*
X-13630278Y-325618D01*
X-13630288Y-325614D01*
X-13634159Y-323933D01*
X-13638231Y-322792D01*
X-13913366Y-245702D01*
X-13913379Y-245699D01*
X-13917445Y-244560D01*
X-13921632Y-243984D01*
X-13921644Y-243982D01*
X-14204705Y-205076D01*
X-14204718Y-205075D01*
X-14208902Y-204500D01*
X-14503098Y-204500D01*
X-14507282Y-205075D01*
X-14507296Y-205076D01*
X-14790357Y-243982D01*
X-14790372Y-243984D01*
X-14794555Y-244560D01*
X-14798619Y-245698D01*
X-14798635Y-245702D01*
X-15073770Y-322792D01*
X-15073775Y-322793D01*
X-15077841Y-323933D01*
X-15081709Y-325612D01*
X-15081723Y-325618D01*
X-15343796Y-439452D01*
X-15343809Y-439458D01*
X-15347682Y-441141D01*
X-15351293Y-443336D01*
X-15351301Y-443341D01*
X-15595437Y-591804D01*
X-15595443Y-591807D01*
X-15599049Y-594001D01*
X-15602324Y-596664D01*
X-15602332Y-596671D01*
X-15823975Y-776992D01*
X-15823979Y-776995D01*
X-15827260Y-779665D01*
X-15830139Y-782747D01*
X-15830148Y-782756D01*
X-16025177Y-991581D01*
X-16025182Y-991586D01*
X-16028065Y-994674D01*
X-16030501Y-998124D01*
X-16030510Y-998136D01*
X-16195276Y-1231558D01*
X-16195280Y-1231563D01*
X-16197722Y-1235024D01*
X-16199668Y-1238778D01*
X-16199672Y-1238786D01*
X-16331123Y-1492473D01*
X-16331128Y-1492483D01*
X-16333072Y-1496236D01*
X-16334489Y-1500221D01*
X-16334493Y-1500232D01*
X-16430171Y-1769445D01*
X-16430175Y-1769457D01*
X-16431592Y-1773446D01*
X-16432455Y-1777596D01*
X-16432456Y-1777602D01*
X-16490585Y-2057332D01*
X-16490587Y-2057343D01*
X-16491448Y-2061489D01*
X-16491737Y-2065713D01*
X-16491738Y-2065721D01*
X-16507634Y-2298119D01*
X-16511525Y-2355000D01*
X-18716626Y-2355000D01*
X-18742964Y-2123887D01*
X-18742981Y-2123739D01*
X-18795876Y-1627800D01*
X-18796286Y-1623071D01*
X-18820512Y-1263037D01*
X-18820520Y-1262910D01*
X-18850895Y-761190D01*
X-18851090Y-756416D01*
X-18858539Y-400129D01*
X-18865985Y107071D01*
X-18865959Y111916D01*
X-18857049Y462847D01*
X-18848846Y726472D01*
X-16506000Y726472D01*
X-16504811Y714396D01*
X-16493878Y659434D01*
X-16484711Y637301D01*
X-16443025Y574914D01*
X-16426087Y557976D01*
X-16363700Y516290D01*
X-16341567Y507123D01*
X-16286605Y496190D01*
X-16274528Y495000D01*
X-14497326Y495000D01*
X-14484451Y498451D01*
X-14481000Y511326D01*
X-14231000Y511326D01*
X-14227550Y498451D01*
X-14214674Y495000D01*
X-12437472Y495000D01*
X-12425396Y496190D01*
X-12370434Y507123D01*
X-12348301Y516290D01*
X-12285914Y557976D01*
X-12268976Y574914D01*
X-12227290Y637301D01*
X-12218123Y659434D01*
X-12207190Y714396D01*
X-12206000Y726472D01*
X-12206000Y1127775D01*
X-9981534Y1127775D01*
X-9976432Y1072718D01*
X-9974334Y1061494D01*
X-9921686Y876455D01*
X-9917555Y865792D01*
X-9831801Y693576D01*
X-9825794Y683873D01*
X-9709851Y530338D01*
X-9702153Y521894D01*
X-9559973Y392281D01*
X-9550869Y385405D01*
X-9387285Y284118D01*
X-9377072Y279032D01*
X-9197662Y209529D01*
X-9186686Y206406D01*
X-9028430Y176824D01*
X-9017402Y177206D01*
X-9015000Y187973D01*
X-8765000Y187973D01*
X-8762599Y177206D01*
X-8751571Y176824D01*
X-8593315Y206406D01*
X-8582339Y209529D01*
X-8402929Y279032D01*
X-8392716Y284118D01*
X-8229132Y385405D01*
X-8220028Y392281D01*
X-8077848Y521894D01*
X-8070150Y530338D01*
X-7954207Y683873D01*
X-7948200Y693576D01*
X-7931820Y726472D01*
X-5297000Y726472D01*
X-5295811Y714396D01*
X-5284878Y659434D01*
X-5275711Y637301D01*
X-5234025Y574914D01*
X-5217087Y557976D01*
X-5154700Y516290D01*
X-5132567Y507123D01*
X-5077605Y496190D01*
X-5065528Y495000D01*
X-3288326Y495000D01*
X-3275451Y498451D01*
X-3272000Y511326D01*
X-3022000Y511326D01*
X-3018550Y498451D01*
X-3005674Y495000D01*
X-1228472Y495000D01*
X-1216396Y496190D01*
X-1161434Y507123D01*
X-1139301Y516290D01*
X-1076914Y557976D01*
X-1059976Y574914D01*
X-1018290Y637301D01*
X-1009123Y659434D01*
X-998190Y714396D01*
X-997000Y726472D01*
X-997000Y2503674D01*
X-1000451Y2516550D01*
X-1013326Y2520000D01*
X-3005674Y2520000D01*
X-3018550Y2516550D01*
X-3022000Y2503674D01*
X-3022000Y511326D01*
X-3272000Y511326D01*
X-3272000Y2503674D01*
X-3275451Y2516550D01*
X-3288326Y2520000D01*
X-5280674Y2520000D01*
X-5293550Y2516550D01*
X-5297000Y2503674D01*
X-5297000Y726472D01*
X-7931820Y726472D01*
X-7862446Y865792D01*
X-7858315Y876455D01*
X-7805667Y1061494D01*
X-7803569Y1072718D01*
X-7798467Y1127775D01*
X-7800986Y1141250D01*
X-7814166Y1145000D01*
X-8748674Y1145000D01*
X-8761550Y1141550D01*
X-8765000Y1128674D01*
X-8765000Y187973D01*
X-9015000Y187973D01*
X-9015000Y1128674D01*
X-9018451Y1141550D01*
X-9031326Y1145000D01*
X-9965834Y1145000D01*
X-9979015Y1141250D01*
X-9981534Y1127775D01*
X-12206000Y1127775D01*
X-12206000Y1412226D01*
X-9981534Y1412226D01*
X-9979015Y1398751D01*
X-9965834Y1395000D01*
X-9031326Y1395000D01*
X-9018451Y1398451D01*
X-9015000Y1411326D01*
X-8765000Y1411326D01*
X-8761550Y1398451D01*
X-8748674Y1395000D01*
X-7814166Y1395000D01*
X-7800986Y1398751D01*
X-7798467Y1412226D01*
X-7803569Y1467283D01*
X-7805667Y1478507D01*
X-7858315Y1663546D01*
X-7862446Y1674209D01*
X-7948200Y1846425D01*
X-7954207Y1856128D01*
X-8070150Y2009663D01*
X-8077848Y2018107D01*
X-8220028Y2147720D01*
X-8229132Y2154596D01*
X-8392716Y2255883D01*
X-8402929Y2260969D01*
X-8582339Y2330472D01*
X-8593315Y2333595D01*
X-8751571Y2363177D01*
X-8762599Y2362795D01*
X-8765000Y2352027D01*
X-8765000Y1411326D01*
X-9015000Y1411326D01*
X-9015000Y2352027D01*
X-9017402Y2362795D01*
X-9028430Y2363177D01*
X-9186686Y2333595D01*
X-9197662Y2330472D01*
X-9377072Y2260969D01*
X-9387285Y2255883D01*
X-9550869Y2154596D01*
X-9559973Y2147720D01*
X-9702153Y2018107D01*
X-9709851Y2009663D01*
X-9825794Y1856128D01*
X-9831801Y1846425D01*
X-9917555Y1674209D01*
X-9921686Y1663546D01*
X-9974334Y1478507D01*
X-9976432Y1467283D01*
X-9981534Y1412226D01*
X-12206000Y1412226D01*
X-12206000Y2503674D01*
X-12209451Y2516550D01*
X-12222326Y2520000D01*
X-14214674Y2520000D01*
X-14227550Y2516550D01*
X-14231000Y2503674D01*
X-14231000Y511326D01*
X-14481000Y511326D01*
X-14481000Y2503674D01*
X-14484451Y2516550D01*
X-14497326Y2520000D01*
X-16489674Y2520000D01*
X-16502550Y2516550D01*
X-16506000Y2503674D01*
X-16506000Y726472D01*
X-18848846Y726472D01*
X-18841109Y975105D01*
X-18840858Y979981D01*
X-18816192Y1323571D01*
X-18776319Y1841101D01*
X-18775837Y1846022D01*
X-18736232Y2180235D01*
X-18671755Y2703165D01*
X-18671040Y2708112D01*
X-18658078Y2786326D01*
X-16506000Y2786326D01*
X-16502550Y2773451D01*
X-16489674Y2770000D01*
X-14497326Y2770000D01*
X-14484451Y2773451D01*
X-14481000Y2786326D01*
X-14231000Y2786326D01*
X-14227550Y2773451D01*
X-14214674Y2770000D01*
X-12222326Y2770000D01*
X-12209451Y2773451D01*
X-12206000Y2786326D01*
X-12206000Y3810000D01*
X-9995215Y3810000D01*
X-9976397Y3606917D01*
X-9974829Y3601406D01*
X-9974827Y3601396D01*
X-9922153Y3416269D01*
X-9922151Y3416263D01*
X-9920582Y3410750D01*
X-9829673Y3228179D01*
X-9826221Y3223608D01*
X-9710222Y3069999D01*
X-9710217Y3069994D01*
X-9706764Y3065421D01*
X-9702528Y3061560D01*
X-9702524Y3061555D01*
X-9668267Y3030326D01*
X-9556041Y2928019D01*
X-9382637Y2820652D01*
X-9192456Y2746976D01*
X-8991976Y2709500D01*
X-8793753Y2709500D01*
X-8788024Y2709500D01*
X-8587544Y2746976D01*
X-8485969Y2786326D01*
X-5297000Y2786326D01*
X-5293550Y2773451D01*
X-5280674Y2770000D01*
X-3288326Y2770000D01*
X-3275451Y2773451D01*
X-3272000Y2786326D01*
X-3022000Y2786326D01*
X-3018550Y2773451D01*
X-3005674Y2770000D01*
X-1013326Y2770000D01*
X-1000451Y2773451D01*
X-997000Y2786326D01*
X-997000Y4563528D01*
X-998190Y4575605D01*
X-1009123Y4630567D01*
X-1018290Y4652700D01*
X-1059976Y4715087D01*
X-1076914Y4732025D01*
X-1139301Y4773711D01*
X-1161434Y4782878D01*
X-1216396Y4793811D01*
X-1228472Y4795000D01*
X-3005674Y4795000D01*
X-3018550Y4791550D01*
X-3022000Y4778674D01*
X-3022000Y2786326D01*
X-3272000Y2786326D01*
X-3272000Y4778674D01*
X-3275451Y4791550D01*
X-3288326Y4795000D01*
X-5065528Y4795000D01*
X-5077605Y4793811D01*
X-5132567Y4782878D01*
X-5154700Y4773711D01*
X-5217087Y4732025D01*
X-5234025Y4715087D01*
X-5275711Y4652700D01*
X-5284878Y4630567D01*
X-5295811Y4575605D01*
X-5297000Y4563528D01*
X-5297000Y2786326D01*
X-8485969Y2786326D01*
X-8397363Y2820652D01*
X-8223959Y2928019D01*
X-8073236Y3065421D01*
X-7950327Y3228179D01*
X-7859418Y3410750D01*
X-7803603Y3606917D01*
X-7784785Y3810000D01*
X-7803603Y4013083D01*
X-7859418Y4209250D01*
X-7950327Y4391821D01*
X-7998824Y4456041D01*
X-8069779Y4550002D01*
X-8069783Y4550006D01*
X-8073236Y4554579D01*
X-8077473Y4558442D01*
X-8077477Y4558446D01*
X-8219725Y4688121D01*
X-8219724Y4688121D01*
X-8223959Y4691981D01*
X-8228829Y4694996D01*
X-8228831Y4694998D01*
X-8384769Y4791550D01*
X-8397363Y4799348D01*
X-8402706Y4801418D01*
X-8582197Y4870953D01*
X-8582202Y4870955D01*
X-8587544Y4873024D01*
X-8593182Y4874078D01*
X-8782395Y4909448D01*
X-8782398Y4909449D01*
X-8788024Y4910500D01*
X-8991976Y4910500D01*
X-8997602Y4909449D01*
X-8997606Y4909448D01*
X-9186819Y4874078D01*
X-9186822Y4874078D01*
X-9192456Y4873024D01*
X-9197797Y4870956D01*
X-9197804Y4870953D01*
X-9377295Y4801418D01*
X-9377300Y4801416D01*
X-9382637Y4799348D01*
X-9387509Y4796332D01*
X-9387512Y4796330D01*
X-9551170Y4694998D01*
X-9551178Y4694993D01*
X-9556041Y4691981D01*
X-9560272Y4688125D01*
X-9560276Y4688121D01*
X-9702524Y4558446D01*
X-9702534Y4558436D01*
X-9706764Y4554579D01*
X-9710213Y4550013D01*
X-9710222Y4550002D01*
X-9826221Y4396393D01*
X-9826224Y4396389D01*
X-9829673Y4391821D01*
X-9832226Y4386696D01*
X-9832228Y4386691D01*
X-9918024Y4214388D01*
X-9920582Y4209250D01*
X-9922150Y4203742D01*
X-9922153Y4203732D01*
X-9974827Y4018605D01*
X-9974830Y4018594D01*
X-9976397Y4013083D01*
X-9995215Y3810000D01*
X-12206000Y3810000D01*
X-12206000Y4563528D01*
X-12207190Y4575605D01*
X-12218123Y4630567D01*
X-12227290Y4652700D01*
X-12268976Y4715087D01*
X-12285914Y4732025D01*
X-12348301Y4773711D01*
X-12370434Y4782878D01*
X-12425396Y4793811D01*
X-12437472Y4795000D01*
X-14214674Y4795000D01*
X-14227550Y4791550D01*
X-14231000Y4778674D01*
X-14231000Y2786326D01*
X-14481000Y2786326D01*
X-14481000Y4778674D01*
X-14484451Y4791550D01*
X-14497326Y4795000D01*
X-16274528Y4795000D01*
X-16286605Y4793811D01*
X-16341567Y4782878D01*
X-16363700Y4773711D01*
X-16426087Y4732025D01*
X-16443025Y4715087D01*
X-16484711Y4652700D01*
X-16493878Y4630567D01*
X-16504811Y4575605D01*
X-16506000Y4563528D01*
X-16506000Y2786326D01*
X-18658078Y2786326D01*
X-18617563Y3030787D01*
X-18527633Y3559537D01*
X-18526683Y3564491D01*
X-18460953Y3872091D01*
X-18344265Y4408354D01*
X-18343056Y4413391D01*
X-18267211Y4702204D01*
X-18122029Y5247867D01*
X-18120595Y5252825D01*
X-18051012Y5475326D01*
X-9990500Y5475326D01*
X-9989312Y5469351D01*
X-9989311Y5469347D01*
X-9978350Y5414241D01*
X-9978349Y5414238D01*
X-9975966Y5402260D01*
X-9920601Y5319399D01*
X-9837740Y5264034D01*
X-9764674Y5249500D01*
X-8021421Y5249500D01*
X-8015326Y5249500D01*
X-7942260Y5264034D01*
X-7859399Y5319399D01*
X-7804034Y5402260D01*
X-7789500Y5475326D01*
X-7789500Y7224674D01*
X-7804034Y7297740D01*
X-7859399Y7380601D01*
X-7942260Y7435966D01*
X-7954238Y7438349D01*
X-7954241Y7438350D01*
X-8009347Y7449311D01*
X-8009351Y7449312D01*
X-8015326Y7450500D01*
X-9764674Y7450500D01*
X-9770649Y7449312D01*
X-9770654Y7449311D01*
X-9825760Y7438350D01*
X-9825765Y7438349D01*
X-9837740Y7435966D01*
X-9847895Y7429181D01*
X-9847897Y7429180D01*
X-9910449Y7387385D01*
X-9910452Y7387383D01*
X-9920601Y7380601D01*
X-9927383Y7370452D01*
X-9927385Y7370449D01*
X-9969180Y7307897D01*
X-9969181Y7307895D01*
X-9975966Y7297740D01*
X-9978349Y7285765D01*
X-9978350Y7285760D01*
X-9989311Y7230654D01*
X-9989312Y7230649D01*
X-9990500Y7224674D01*
X-9990500Y5475326D01*
X-18051012Y5475326D01*
X-18038000Y5516935D01*
X-18037911Y5516908D01*
X-18037901Y5517250D01*
X-17861414Y6076222D01*
X-17859710Y6081236D01*
X-17775828Y6311473D01*
X-17775818Y6311500D01*
X-17775744Y6311473D01*
X-17775726Y6311755D01*
X-17562946Y6891755D01*
X-17560998Y6896726D01*
X-17486065Y7076128D01*
X-17227262Y7692714D01*
X-17225080Y7697604D01*
X-17180325Y7792195D01*
X-17180003Y7792873D01*
X-17179976Y7792860D01*
X-17179943Y7792999D01*
X-16855843Y8475768D01*
X-16853315Y8480795D01*
X-16450157Y9238504D01*
X-16447412Y9243389D01*
X-16044705Y9923254D01*
X-15999452Y9967769D01*
X-15938101Y9984057D01*
X15928834Y10004567D01*
X15990208Y9988358D01*
G37*
%TD.AperFunction*%
%TD*%
M02*
