%TF.GenerationSoftware,KiCad,Pcbnew,(7.0.0)*%
%TF.CreationDate,2023-11-14T12:37:06+01:00*%
%TF.ProjectId,Helios_PCB_receiver,48656c69-6f73-45f5-9043-425f72656365,rev?*%
%TF.SameCoordinates,Original*%
%TF.FileFunction,Copper,L2,Bot*%
%TF.FilePolarity,Positive*%
%FSLAX46Y46*%
G04 Gerber Fmt 4.6, Leading zero omitted, Abs format (unit mm)*
G04 Created by KiCad (PCBNEW (7.0.0)) date 2023-11-14 12:37:06*
%MOMM*%
%LPD*%
G01*
G04 APERTURE LIST*
%TA.AperFunction,ComponentPad*%
%ADD10R,1.700000X1.700000*%
%TD*%
%TA.AperFunction,ComponentPad*%
%ADD11O,1.700000X1.700000*%
%TD*%
%TA.AperFunction,ViaPad*%
%ADD12C,0.800000*%
%TD*%
%TA.AperFunction,Conductor*%
%ADD13C,0.500000*%
%TD*%
G04 APERTURE END LIST*
D10*
%TO.P,J2,1,Pin_1*%
%TO.N,VCC*%
X161157999Y-101350999D03*
D11*
%TO.P,J2,2,Pin_2*%
%TO.N,GND*%
X161157999Y-98810999D03*
%TO.P,J2,3,Pin_3*%
%TO.N,VCC*%
X163697999Y-101350999D03*
%TO.P,J2,4,Pin_4*%
%TO.N,GND*%
X163697999Y-98810999D03*
%TD*%
D10*
%TO.P,J1,1,Pin_1*%
%TO.N,O0*%
X166364999Y-101350999D03*
D11*
%TO.P,J1,2,Pin_2*%
%TO.N,O3*%
X166364999Y-98810999D03*
%TO.P,J1,3,Pin_3*%
%TO.N,O1*%
X168904999Y-101350999D03*
%TO.P,J1,4,Pin_4*%
%TO.N,O2*%
X168904999Y-98810999D03*
%TD*%
D12*
%TO.N,VCC*%
X175750000Y-97800000D03*
%TD*%
D13*
%TO.N,VCC*%
X170899000Y-102651000D02*
X175750000Y-97800000D01*
X164998000Y-102651000D02*
X170899000Y-102651000D01*
X163698000Y-101351000D02*
X164998000Y-102651000D01*
%TD*%
%TA.AperFunction,NonConductor*%
G36*
X156529222Y-85336528D02*
G01*
X156576168Y-85383179D01*
X159738693Y-90871090D01*
X159962175Y-91258897D01*
X159979005Y-91321911D01*
X159962073Y-91384898D01*
X159915915Y-91430980D01*
X159780618Y-91508945D01*
X159780597Y-91508957D01*
X159779061Y-91509843D01*
X159777573Y-91510817D01*
X159777561Y-91510825D01*
X159304647Y-91820579D01*
X159304620Y-91820597D01*
X159303154Y-91821558D01*
X159301731Y-91822610D01*
X159301712Y-91822624D01*
X158847258Y-92158844D01*
X158847240Y-92158857D01*
X158845806Y-92159919D01*
X158844449Y-92161048D01*
X158844420Y-92161071D01*
X158409894Y-92522670D01*
X158409868Y-92522692D01*
X158408510Y-92523823D01*
X158407199Y-92525046D01*
X158407190Y-92525055D01*
X157994006Y-92910853D01*
X157992688Y-92912084D01*
X157991464Y-92913364D01*
X157991449Y-92913380D01*
X157600930Y-93322146D01*
X157599696Y-93323438D01*
X157598543Y-93324790D01*
X157598531Y-93324805D01*
X157231990Y-93755164D01*
X157231969Y-93755189D01*
X157230815Y-93756545D01*
X157229725Y-93757982D01*
X157229719Y-93757991D01*
X156888338Y-94208550D01*
X156888328Y-94208563D01*
X156887246Y-94209992D01*
X156886240Y-94211489D01*
X156886238Y-94211493D01*
X156571102Y-94680822D01*
X156571084Y-94680848D01*
X156570108Y-94682304D01*
X156569208Y-94683824D01*
X156569205Y-94683830D01*
X156281347Y-95170398D01*
X156281334Y-95170420D01*
X156280435Y-95171941D01*
X156279616Y-95173524D01*
X156279605Y-95173545D01*
X156020005Y-95675692D01*
X156019992Y-95675717D01*
X156019171Y-95677307D01*
X156018443Y-95678936D01*
X156018429Y-95678966D01*
X155787908Y-96195094D01*
X155787898Y-96195116D01*
X155787166Y-96196757D01*
X155786527Y-96198437D01*
X155786523Y-96198449D01*
X155589924Y-96716098D01*
X155585177Y-96728598D01*
X155584646Y-96730278D01*
X155584634Y-96730314D01*
X155504414Y-96984360D01*
X155504414Y-96984362D01*
X155499534Y-96999817D01*
X155499459Y-97000000D01*
X155499468Y-97000022D01*
X155499373Y-97000326D01*
X155499825Y-97000468D01*
X155499901Y-97000500D01*
X155499923Y-97000499D01*
X155500326Y-97000627D01*
X155500366Y-97000499D01*
X174542143Y-96987076D01*
X174542184Y-96987203D01*
X174542586Y-96987076D01*
X174542610Y-96987076D01*
X174542688Y-96987043D01*
X174543137Y-96986902D01*
X174543041Y-96986598D01*
X174543051Y-96986576D01*
X174542981Y-96986407D01*
X174457104Y-96714402D01*
X174254593Y-96181036D01*
X174022028Y-95660072D01*
X173988553Y-95595277D01*
X173760983Y-95154782D01*
X173760979Y-95154776D01*
X173760166Y-95153201D01*
X173469857Y-94662069D01*
X173152042Y-94188272D01*
X172807755Y-93733347D01*
X172438113Y-93298773D01*
X172069238Y-92912084D01*
X172045550Y-92887252D01*
X172045540Y-92887242D01*
X172044317Y-92885960D01*
X171627646Y-92496248D01*
X171189452Y-92130905D01*
X171188017Y-92129841D01*
X171188003Y-92129830D01*
X170732611Y-91792192D01*
X170732604Y-91792187D01*
X170731158Y-91791115D01*
X170541431Y-91666541D01*
X170255773Y-91478979D01*
X170255763Y-91478973D01*
X170254254Y-91477982D01*
X170252701Y-91477085D01*
X170252687Y-91477076D01*
X170168192Y-91428255D01*
X170116457Y-91398362D01*
X170070418Y-91352338D01*
X170053495Y-91289478D01*
X170070205Y-91226562D01*
X173422685Y-85383511D01*
X173469611Y-85336733D01*
X173533786Y-85320232D01*
X173597458Y-85338573D01*
X174175822Y-85690429D01*
X174180853Y-85693656D01*
X174661767Y-86018578D01*
X174661910Y-86018737D01*
X174661939Y-86018695D01*
X174853484Y-86148573D01*
X174858187Y-86151922D01*
X175271481Y-86460811D01*
X175509196Y-86639504D01*
X175513531Y-86642918D01*
X175800374Y-86879401D01*
X175890131Y-86953400D01*
X175890507Y-86953712D01*
X176140375Y-87161345D01*
X176144537Y-87164960D01*
X176494330Y-87482499D01*
X176494615Y-87482760D01*
X176494908Y-87483028D01*
X176745740Y-87713024D01*
X176749622Y-87716739D01*
X177076899Y-88043587D01*
X177077441Y-88044132D01*
X177323804Y-88293190D01*
X177327407Y-88296986D01*
X177552629Y-88544432D01*
X177634296Y-88634158D01*
X177634871Y-88634795D01*
X177873256Y-88900524D01*
X177876581Y-88904384D01*
X178163858Y-89251908D01*
X178164522Y-89252718D01*
X178392808Y-89533601D01*
X178395857Y-89537507D01*
X178664045Y-89895364D01*
X178664752Y-89896317D01*
X178881254Y-90190949D01*
X178884031Y-90194883D01*
X179133269Y-90562739D01*
X179134007Y-90563841D01*
X179337465Y-90871044D01*
X179339974Y-90874990D01*
X179570202Y-91252315D01*
X179570958Y-91253570D01*
X179760392Y-91572317D01*
X179762621Y-91576226D01*
X179973765Y-91962524D01*
X179974508Y-91963904D01*
X180149012Y-92293065D01*
X180151004Y-92296985D01*
X180342878Y-92691597D01*
X180343630Y-92693172D01*
X180502492Y-93031732D01*
X180504235Y-93035616D01*
X180676617Y-93437793D01*
X180677346Y-93439531D01*
X180819951Y-93786475D01*
X180821455Y-93790308D01*
X180974169Y-94199378D01*
X180974861Y-94201280D01*
X181100718Y-94555684D01*
X181101990Y-94559453D01*
X181141297Y-94682304D01*
X181234780Y-94974483D01*
X181235410Y-94976512D01*
X181344098Y-95337459D01*
X181345149Y-95341151D01*
X181457855Y-95761410D01*
X181458431Y-95763640D01*
X181549540Y-96130009D01*
X181550380Y-96133612D01*
X181642844Y-96558294D01*
X181643340Y-96560686D01*
X181716578Y-96931521D01*
X181717219Y-96935022D01*
X181728071Y-96999499D01*
X181774516Y-97275464D01*
X181789272Y-97363136D01*
X181789674Y-97365687D01*
X181844827Y-97740131D01*
X181845279Y-97743521D01*
X181896819Y-98174223D01*
X181897114Y-98176929D01*
X181933987Y-98553929D01*
X181934263Y-98557198D01*
X181965222Y-98989701D01*
X181965394Y-98992557D01*
X181983854Y-99370956D01*
X181983968Y-99374095D01*
X181994296Y-99807549D01*
X181994332Y-99810550D01*
X181994332Y-100189450D01*
X181994296Y-100192451D01*
X181983968Y-100625903D01*
X181983854Y-100629042D01*
X181965394Y-101007441D01*
X181965222Y-101010297D01*
X181934263Y-101442800D01*
X181933987Y-101446069D01*
X181897114Y-101823069D01*
X181896819Y-101825775D01*
X181845279Y-102256477D01*
X181844827Y-102259867D01*
X181789674Y-102634311D01*
X181789272Y-102636862D01*
X181717219Y-103064976D01*
X181716578Y-103068477D01*
X181643340Y-103439312D01*
X181642844Y-103441704D01*
X181550380Y-103866386D01*
X181549540Y-103869989D01*
X181458431Y-104236358D01*
X181457855Y-104238588D01*
X181345149Y-104658847D01*
X181344098Y-104662539D01*
X181235410Y-105023486D01*
X181234768Y-105025553D01*
X181101990Y-105440545D01*
X181100718Y-105444314D01*
X180974861Y-105798718D01*
X180974169Y-105800620D01*
X180821455Y-106209690D01*
X180819951Y-106213523D01*
X180677346Y-106560467D01*
X180676617Y-106562205D01*
X180504235Y-106964382D01*
X180502492Y-106968266D01*
X180343630Y-107306826D01*
X180342878Y-107308401D01*
X180151004Y-107703013D01*
X180149012Y-107706933D01*
X179974508Y-108036094D01*
X179973747Y-108037508D01*
X179762639Y-108423740D01*
X179760392Y-108427681D01*
X179570958Y-108746428D01*
X179570202Y-108747683D01*
X179339974Y-109125008D01*
X179337465Y-109128954D01*
X179134007Y-109436157D01*
X179133269Y-109437259D01*
X178884031Y-109805115D01*
X178881254Y-109809049D01*
X178664752Y-110103681D01*
X178664045Y-110104634D01*
X178395857Y-110462491D01*
X178392808Y-110466397D01*
X178164522Y-110747280D01*
X178163858Y-110748090D01*
X177876581Y-111095614D01*
X177873256Y-111099474D01*
X177634871Y-111365203D01*
X177634263Y-111365877D01*
X177327407Y-111703012D01*
X177323804Y-111706808D01*
X177077441Y-111955866D01*
X177076899Y-111956411D01*
X176749622Y-112283259D01*
X176745740Y-112286974D01*
X176494710Y-112517152D01*
X176494245Y-112517576D01*
X176144537Y-112835038D01*
X176140375Y-112838653D01*
X175890507Y-113046286D01*
X175890131Y-113046598D01*
X175513570Y-113357050D01*
X175509128Y-113360547D01*
X175271866Y-113538899D01*
X175271587Y-113539109D01*
X174858203Y-113848065D01*
X174853485Y-113851425D01*
X174661940Y-113981304D01*
X174661766Y-113981421D01*
X174180863Y-114306336D01*
X174175811Y-114309577D01*
X173597255Y-114661548D01*
X173533659Y-114679889D01*
X173469541Y-114663465D01*
X173422595Y-114616809D01*
X170037270Y-108741416D01*
X170020445Y-108678403D01*
X170037382Y-108615417D01*
X170083540Y-108569340D01*
X170220424Y-108490473D01*
X170696391Y-108178759D01*
X171153795Y-107840394D01*
X171591146Y-107476480D01*
X172007020Y-107088204D01*
X172400061Y-106676831D01*
X172768988Y-106243700D01*
X173112600Y-105790224D01*
X173429776Y-105317880D01*
X173719483Y-104828207D01*
X173980777Y-104322802D01*
X174212807Y-103803310D01*
X174414816Y-103271424D01*
X174500465Y-103000182D01*
X174500541Y-103000000D01*
X174500531Y-102999977D01*
X174500627Y-102999674D01*
X174500169Y-102999529D01*
X174500098Y-102999500D01*
X174500076Y-102999500D01*
X174499674Y-102999373D01*
X174499633Y-102999500D01*
X174481283Y-102999515D01*
X171489427Y-103001968D01*
X171432195Y-102988272D01*
X171387424Y-102950079D01*
X171364882Y-102895720D01*
X171369484Y-102837052D01*
X171400227Y-102786875D01*
X175755942Y-98431159D01*
X175789306Y-98407251D01*
X175828586Y-98395335D01*
X175906762Y-98385044D01*
X176052841Y-98324536D01*
X176178282Y-98228282D01*
X176274536Y-98102841D01*
X176335044Y-97956762D01*
X176355682Y-97800000D01*
X176335044Y-97643238D01*
X176274536Y-97497159D01*
X176178282Y-97371718D01*
X176052841Y-97275464D01*
X176045214Y-97272304D01*
X176045211Y-97272303D01*
X175914391Y-97218116D01*
X175914390Y-97218115D01*
X175906762Y-97214956D01*
X175898579Y-97213878D01*
X175898573Y-97213877D01*
X175758188Y-97195396D01*
X175750000Y-97194318D01*
X175741812Y-97195396D01*
X175601426Y-97213877D01*
X175601418Y-97213879D01*
X175593238Y-97214956D01*
X175585611Y-97218115D01*
X175585608Y-97218116D01*
X175454788Y-97272303D01*
X175454782Y-97272306D01*
X175447159Y-97275464D01*
X175440611Y-97280487D01*
X175440608Y-97280490D01*
X175328263Y-97366695D01*
X175328259Y-97366698D01*
X175321718Y-97371718D01*
X175316698Y-97378259D01*
X175316695Y-97378263D01*
X175230490Y-97490608D01*
X175230487Y-97490611D01*
X175225464Y-97497159D01*
X175222306Y-97504782D01*
X175222303Y-97504788D01*
X175168116Y-97635607D01*
X175168116Y-97635608D01*
X175164956Y-97643238D01*
X175163877Y-97651426D01*
X175163878Y-97651426D01*
X175154663Y-97721412D01*
X175142746Y-97760692D01*
X175118836Y-97794058D01*
X170749302Y-102163595D01*
X170708425Y-102190909D01*
X170660207Y-102200500D01*
X169833211Y-102200500D01*
X169765801Y-102180952D01*
X169719309Y-102128372D01*
X169708158Y-102059077D01*
X169735811Y-101994567D01*
X169778761Y-101942231D01*
X169778762Y-101942230D01*
X169782685Y-101937450D01*
X169880232Y-101754954D01*
X169940300Y-101556934D01*
X169960583Y-101351000D01*
X169940300Y-101145066D01*
X169880232Y-100947046D01*
X169782685Y-100764550D01*
X169651410Y-100604590D01*
X169491450Y-100473315D01*
X169485993Y-100470398D01*
X169314409Y-100378683D01*
X169314402Y-100378680D01*
X169308954Y-100375768D01*
X169303039Y-100373973D01*
X169303035Y-100373972D01*
X169116859Y-100317497D01*
X169116856Y-100317496D01*
X169110934Y-100315700D01*
X169104774Y-100315093D01*
X169104768Y-100315092D01*
X168911163Y-100296024D01*
X168905000Y-100295417D01*
X168898837Y-100296024D01*
X168705231Y-100315092D01*
X168705223Y-100315093D01*
X168699066Y-100315700D01*
X168693145Y-100317495D01*
X168693140Y-100317497D01*
X168506964Y-100373972D01*
X168506956Y-100373975D01*
X168501046Y-100375768D01*
X168495600Y-100378678D01*
X168495590Y-100378683D01*
X168324006Y-100470398D01*
X168324000Y-100470401D01*
X168318550Y-100473315D01*
X168313773Y-100477235D01*
X168313769Y-100477238D01*
X168163369Y-100600667D01*
X168163363Y-100600672D01*
X168158590Y-100604590D01*
X168154672Y-100609363D01*
X168154667Y-100609369D01*
X168031238Y-100759769D01*
X168031235Y-100759773D01*
X168027315Y-100764550D01*
X168024401Y-100770000D01*
X168024398Y-100770006D01*
X167932683Y-100941590D01*
X167932678Y-100941600D01*
X167929768Y-100947046D01*
X167927975Y-100952956D01*
X167927972Y-100952964D01*
X167871497Y-101139140D01*
X167871495Y-101139145D01*
X167869700Y-101145066D01*
X167869093Y-101151223D01*
X167869092Y-101151231D01*
X167850024Y-101344837D01*
X167849417Y-101351000D01*
X167850024Y-101357163D01*
X167869092Y-101550768D01*
X167869093Y-101550774D01*
X167869700Y-101556934D01*
X167871496Y-101562856D01*
X167871497Y-101562859D01*
X167927972Y-101749035D01*
X167927973Y-101749039D01*
X167929768Y-101754954D01*
X167932680Y-101760402D01*
X167932683Y-101760409D01*
X168024398Y-101931993D01*
X168027315Y-101937450D01*
X168031235Y-101942226D01*
X168031238Y-101942231D01*
X168074189Y-101994567D01*
X168101842Y-102059077D01*
X168090691Y-102128372D01*
X168044199Y-102180952D01*
X167976789Y-102200500D01*
X167541500Y-102200500D01*
X167478500Y-102183619D01*
X167432381Y-102137500D01*
X167415500Y-102074500D01*
X167415500Y-100487439D01*
X167415500Y-100481252D01*
X167403867Y-100422769D01*
X167359552Y-100356448D01*
X167293231Y-100312133D01*
X167234748Y-100300500D01*
X165495252Y-100300500D01*
X165489184Y-100301706D01*
X165489183Y-100301707D01*
X165448939Y-100309712D01*
X165448937Y-100309712D01*
X165436769Y-100312133D01*
X165426454Y-100319024D01*
X165426452Y-100319026D01*
X165380761Y-100349556D01*
X165380758Y-100349558D01*
X165370448Y-100356448D01*
X165363558Y-100366758D01*
X165363556Y-100366761D01*
X165333026Y-100412452D01*
X165333024Y-100412454D01*
X165326133Y-100422769D01*
X165314500Y-100481252D01*
X165314500Y-100487439D01*
X165314500Y-102026207D01*
X165300767Y-102083410D01*
X165262561Y-102128143D01*
X165208211Y-102150656D01*
X165149564Y-102146040D01*
X165099405Y-102115302D01*
X164741954Y-101757851D01*
X164708825Y-101699371D01*
X164710475Y-101632180D01*
X164731501Y-101562865D01*
X164731501Y-101562863D01*
X164733300Y-101556934D01*
X164753583Y-101351000D01*
X164733300Y-101145066D01*
X164673232Y-100947046D01*
X164575685Y-100764550D01*
X164444410Y-100604590D01*
X164284450Y-100473315D01*
X164278993Y-100470398D01*
X164107409Y-100378683D01*
X164107402Y-100378680D01*
X164101954Y-100375768D01*
X164096039Y-100373973D01*
X164096035Y-100373972D01*
X163909859Y-100317497D01*
X163909856Y-100317496D01*
X163903934Y-100315700D01*
X163897774Y-100315093D01*
X163897768Y-100315092D01*
X163704163Y-100296024D01*
X163698000Y-100295417D01*
X163691837Y-100296024D01*
X163498231Y-100315092D01*
X163498223Y-100315093D01*
X163492066Y-100315700D01*
X163486145Y-100317495D01*
X163486140Y-100317497D01*
X163299964Y-100373972D01*
X163299956Y-100373975D01*
X163294046Y-100375768D01*
X163288600Y-100378678D01*
X163288590Y-100378683D01*
X163117006Y-100470398D01*
X163117000Y-100470401D01*
X163111550Y-100473315D01*
X163106773Y-100477235D01*
X163106769Y-100477238D01*
X162956369Y-100600667D01*
X162956363Y-100600672D01*
X162951590Y-100604590D01*
X162947672Y-100609363D01*
X162947667Y-100609369D01*
X162824238Y-100759769D01*
X162824235Y-100759773D01*
X162820315Y-100764550D01*
X162817401Y-100770000D01*
X162817398Y-100770006D01*
X162725683Y-100941590D01*
X162725678Y-100941600D01*
X162722768Y-100947046D01*
X162720975Y-100952956D01*
X162720972Y-100952964D01*
X162664497Y-101139140D01*
X162664495Y-101139145D01*
X162662700Y-101145066D01*
X162662093Y-101151223D01*
X162662092Y-101151231D01*
X162643024Y-101344837D01*
X162642417Y-101351000D01*
X162643024Y-101357163D01*
X162662092Y-101550768D01*
X162662093Y-101550774D01*
X162662700Y-101556934D01*
X162664496Y-101562856D01*
X162664497Y-101562859D01*
X162720972Y-101749035D01*
X162720973Y-101749039D01*
X162722768Y-101754954D01*
X162725680Y-101760402D01*
X162725683Y-101760409D01*
X162817398Y-101931993D01*
X162820315Y-101937450D01*
X162824238Y-101942230D01*
X162940100Y-102083410D01*
X162951590Y-102097410D01*
X163111550Y-102228685D01*
X163163545Y-102256477D01*
X163288590Y-102323316D01*
X163288592Y-102323317D01*
X163294046Y-102326232D01*
X163492066Y-102386300D01*
X163698000Y-102406583D01*
X163903934Y-102386300D01*
X163979181Y-102363473D01*
X164046369Y-102361824D01*
X164104847Y-102394951D01*
X164324543Y-102614647D01*
X164502571Y-102792675D01*
X164533302Y-102842814D01*
X164537930Y-102901440D01*
X164515448Y-102955781D01*
X164470751Y-102993999D01*
X164413578Y-103007770D01*
X155468966Y-103015104D01*
X155468965Y-103015104D01*
X155450901Y-103015119D01*
X155450861Y-103014993D01*
X155450458Y-103015119D01*
X155450436Y-103015120D01*
X155450360Y-103015151D01*
X155449908Y-103015294D01*
X155450003Y-103015597D01*
X155449994Y-103015620D01*
X155450063Y-103015788D01*
X155454803Y-103030799D01*
X155454803Y-103030801D01*
X155535618Y-103286727D01*
X155536159Y-103288439D01*
X155536796Y-103290116D01*
X155738561Y-103821366D01*
X155738568Y-103821384D01*
X155739205Y-103823060D01*
X155972423Y-104345224D01*
X155973246Y-104346815D01*
X155973247Y-104346818D01*
X156234226Y-104851630D01*
X156234237Y-104851651D01*
X156235055Y-104853232D01*
X156235970Y-104854779D01*
X156235973Y-104854784D01*
X156509029Y-105316329D01*
X156526244Y-105345426D01*
X156527237Y-105346905D01*
X156527239Y-105346908D01*
X156830614Y-105798718D01*
X156845042Y-105820204D01*
X156846131Y-105821642D01*
X156846138Y-105821651D01*
X157164831Y-106242261D01*
X157190410Y-106276020D01*
X157561223Y-106711387D01*
X157956272Y-107124887D01*
X157957583Y-107126111D01*
X157957589Y-107126117D01*
X158372947Y-107513938D01*
X158374271Y-107515174D01*
X158813858Y-107880975D01*
X159023621Y-108036160D01*
X159272164Y-108220036D01*
X159272172Y-108220041D01*
X159273600Y-108221098D01*
X159751999Y-108534436D01*
X159812571Y-108569339D01*
X159890137Y-108614035D01*
X159936296Y-108660117D01*
X159953229Y-108723105D01*
X159936398Y-108786121D01*
X156576170Y-114616821D01*
X156529222Y-114663472D01*
X156465107Y-114679893D01*
X156401514Y-114661552D01*
X155822951Y-114309577D01*
X155817899Y-114306336D01*
X155336995Y-113981421D01*
X155336853Y-113981259D01*
X155336823Y-113981304D01*
X155145277Y-113851425D01*
X155140558Y-113848064D01*
X154727073Y-113539031D01*
X154726794Y-113538822D01*
X154489643Y-113360554D01*
X154485201Y-113357057D01*
X154108502Y-113046493D01*
X154108126Y-113046181D01*
X153858397Y-112838663D01*
X153854235Y-112835048D01*
X153504316Y-112517394D01*
X153503852Y-112516970D01*
X153476939Y-112492293D01*
X153253016Y-112286971D01*
X153249190Y-112283310D01*
X152921746Y-111956295D01*
X152921319Y-111955866D01*
X152674956Y-111706808D01*
X152671353Y-111703012D01*
X152364475Y-111365852D01*
X152363867Y-111365178D01*
X152125503Y-111099474D01*
X152122178Y-111095614D01*
X151834907Y-110748096D01*
X151834243Y-110747286D01*
X151605950Y-110466394D01*
X151602901Y-110462488D01*
X151334706Y-110104622D01*
X151333999Y-110103669D01*
X151117513Y-109809060D01*
X151114736Y-109805126D01*
X150865474Y-109437234D01*
X150864736Y-109436132D01*
X150661297Y-109128958D01*
X150658788Y-109125012D01*
X150658786Y-109125008D01*
X150428465Y-108747531D01*
X150427799Y-108746425D01*
X150238365Y-108427675D01*
X150236173Y-108423831D01*
X150024910Y-108037316D01*
X150024288Y-108036160D01*
X149849741Y-107706920D01*
X149847774Y-107703048D01*
X149655832Y-107308298D01*
X149655156Y-107306881D01*
X149496269Y-106968266D01*
X149494531Y-106964393D01*
X149459140Y-106881824D01*
X149322100Y-106562104D01*
X149321414Y-106560467D01*
X149178798Y-106213497D01*
X149177324Y-106209739D01*
X149024556Y-105800525D01*
X149023899Y-105798718D01*
X148898037Y-105444302D01*
X148896772Y-105440550D01*
X148763930Y-105025351D01*
X148763386Y-105023602D01*
X148654650Y-104662495D01*
X148653637Y-104658938D01*
X148540879Y-104238489D01*
X148540352Y-104236448D01*
X148449213Y-103869958D01*
X148448385Y-103866405D01*
X148355900Y-103441625D01*
X148355421Y-103439312D01*
X148282182Y-103068477D01*
X148281551Y-103065030D01*
X148281542Y-103064976D01*
X148209458Y-102636676D01*
X148209085Y-102634308D01*
X148153933Y-102259867D01*
X148153487Y-102256521D01*
X148150156Y-102228685D01*
X148149206Y-102220748D01*
X160107500Y-102220748D01*
X160119133Y-102279231D01*
X160126025Y-102289546D01*
X160126026Y-102289547D01*
X160150538Y-102326232D01*
X160163448Y-102345552D01*
X160229769Y-102389867D01*
X160288252Y-102401500D01*
X162021561Y-102401500D01*
X162027748Y-102401500D01*
X162086231Y-102389867D01*
X162152552Y-102345552D01*
X162196867Y-102279231D01*
X162208500Y-102220748D01*
X162208500Y-100481252D01*
X162196867Y-100422769D01*
X162152552Y-100356448D01*
X162086231Y-100312133D01*
X162027748Y-100300500D01*
X160288252Y-100300500D01*
X160282184Y-100301706D01*
X160282183Y-100301707D01*
X160241939Y-100309712D01*
X160241937Y-100309712D01*
X160229769Y-100312133D01*
X160219454Y-100319024D01*
X160219452Y-100319026D01*
X160173761Y-100349556D01*
X160173758Y-100349558D01*
X160163448Y-100356448D01*
X160156558Y-100366758D01*
X160156556Y-100366761D01*
X160126026Y-100412452D01*
X160126024Y-100412454D01*
X160119133Y-100422769D01*
X160107500Y-100481252D01*
X160107500Y-102220748D01*
X148149206Y-102220748D01*
X148101923Y-101825613D01*
X148101646Y-101823069D01*
X148064773Y-101446069D01*
X148064508Y-101442928D01*
X148033531Y-101010191D01*
X148033366Y-101007438D01*
X148014901Y-100628954D01*
X148014796Y-100626074D01*
X148004465Y-100192409D01*
X148004429Y-100189408D01*
X148004429Y-99810592D01*
X148004465Y-99807591D01*
X148007228Y-99691601D01*
X148014796Y-99373920D01*
X148014901Y-99371051D01*
X148033366Y-98992551D01*
X148033531Y-98989819D01*
X148046331Y-98811000D01*
X160102417Y-98811000D01*
X160103024Y-98817163D01*
X160122092Y-99010768D01*
X160122093Y-99010774D01*
X160122700Y-99016934D01*
X160124496Y-99022856D01*
X160124497Y-99022859D01*
X160180972Y-99209035D01*
X160180973Y-99209039D01*
X160182768Y-99214954D01*
X160185680Y-99220402D01*
X160185683Y-99220409D01*
X160266204Y-99371051D01*
X160280315Y-99397450D01*
X160411590Y-99557410D01*
X160571550Y-99688685D01*
X160662797Y-99737458D01*
X160748590Y-99783316D01*
X160748592Y-99783317D01*
X160754046Y-99786232D01*
X160952066Y-99846300D01*
X161158000Y-99866583D01*
X161363934Y-99846300D01*
X161561954Y-99786232D01*
X161744450Y-99688685D01*
X161904410Y-99557410D01*
X162035685Y-99397450D01*
X162133232Y-99214954D01*
X162193300Y-99016934D01*
X162213583Y-98811000D01*
X162642417Y-98811000D01*
X162643024Y-98817163D01*
X162662092Y-99010768D01*
X162662093Y-99010774D01*
X162662700Y-99016934D01*
X162664496Y-99022856D01*
X162664497Y-99022859D01*
X162720972Y-99209035D01*
X162720973Y-99209039D01*
X162722768Y-99214954D01*
X162725680Y-99220402D01*
X162725683Y-99220409D01*
X162806204Y-99371051D01*
X162820315Y-99397450D01*
X162951590Y-99557410D01*
X163111550Y-99688685D01*
X163202797Y-99737458D01*
X163288590Y-99783316D01*
X163288592Y-99783317D01*
X163294046Y-99786232D01*
X163492066Y-99846300D01*
X163698000Y-99866583D01*
X163903934Y-99846300D01*
X164101954Y-99786232D01*
X164284450Y-99688685D01*
X164444410Y-99557410D01*
X164575685Y-99397450D01*
X164673232Y-99214954D01*
X164733300Y-99016934D01*
X164753583Y-98811000D01*
X165309417Y-98811000D01*
X165310024Y-98817163D01*
X165329092Y-99010768D01*
X165329093Y-99010774D01*
X165329700Y-99016934D01*
X165331496Y-99022856D01*
X165331497Y-99022859D01*
X165387972Y-99209035D01*
X165387973Y-99209039D01*
X165389768Y-99214954D01*
X165392680Y-99220402D01*
X165392683Y-99220409D01*
X165473204Y-99371051D01*
X165487315Y-99397450D01*
X165618590Y-99557410D01*
X165778550Y-99688685D01*
X165869797Y-99737458D01*
X165955590Y-99783316D01*
X165955592Y-99783317D01*
X165961046Y-99786232D01*
X166159066Y-99846300D01*
X166365000Y-99866583D01*
X166570934Y-99846300D01*
X166768954Y-99786232D01*
X166951450Y-99688685D01*
X167111410Y-99557410D01*
X167242685Y-99397450D01*
X167340232Y-99214954D01*
X167400300Y-99016934D01*
X167420583Y-98811000D01*
X167849417Y-98811000D01*
X167850024Y-98817163D01*
X167869092Y-99010768D01*
X167869093Y-99010774D01*
X167869700Y-99016934D01*
X167871496Y-99022856D01*
X167871497Y-99022859D01*
X167927972Y-99209035D01*
X167927973Y-99209039D01*
X167929768Y-99214954D01*
X167932680Y-99220402D01*
X167932683Y-99220409D01*
X168013204Y-99371051D01*
X168027315Y-99397450D01*
X168158590Y-99557410D01*
X168318550Y-99688685D01*
X168409797Y-99737458D01*
X168495590Y-99783316D01*
X168495592Y-99783317D01*
X168501046Y-99786232D01*
X168699066Y-99846300D01*
X168905000Y-99866583D01*
X169110934Y-99846300D01*
X169308954Y-99786232D01*
X169491450Y-99688685D01*
X169651410Y-99557410D01*
X169782685Y-99397450D01*
X169880232Y-99214954D01*
X169940300Y-99016934D01*
X169960583Y-98811000D01*
X169940300Y-98605066D01*
X169880232Y-98407046D01*
X169876956Y-98400918D01*
X169785601Y-98230006D01*
X169782685Y-98224550D01*
X169651410Y-98064590D01*
X169491450Y-97933315D01*
X169485993Y-97930398D01*
X169314409Y-97838683D01*
X169314402Y-97838680D01*
X169308954Y-97835768D01*
X169303039Y-97833973D01*
X169303035Y-97833972D01*
X169116859Y-97777497D01*
X169116856Y-97777496D01*
X169110934Y-97775700D01*
X169104774Y-97775093D01*
X169104768Y-97775092D01*
X168911163Y-97756024D01*
X168905000Y-97755417D01*
X168898837Y-97756024D01*
X168705231Y-97775092D01*
X168705223Y-97775093D01*
X168699066Y-97775700D01*
X168693145Y-97777495D01*
X168693140Y-97777497D01*
X168506964Y-97833972D01*
X168506956Y-97833975D01*
X168501046Y-97835768D01*
X168495600Y-97838678D01*
X168495590Y-97838683D01*
X168324006Y-97930398D01*
X168324000Y-97930401D01*
X168318550Y-97933315D01*
X168313773Y-97937235D01*
X168313769Y-97937238D01*
X168163369Y-98060667D01*
X168163363Y-98060672D01*
X168158590Y-98064590D01*
X168154672Y-98069363D01*
X168154667Y-98069369D01*
X168031238Y-98219769D01*
X168031235Y-98219773D01*
X168027315Y-98224550D01*
X168024401Y-98230000D01*
X168024398Y-98230006D01*
X167932683Y-98401590D01*
X167932678Y-98401600D01*
X167929768Y-98407046D01*
X167927975Y-98412956D01*
X167927972Y-98412964D01*
X167871497Y-98599140D01*
X167871495Y-98599145D01*
X167869700Y-98605066D01*
X167869093Y-98611223D01*
X167869092Y-98611231D01*
X167851890Y-98785890D01*
X167849417Y-98811000D01*
X167420583Y-98811000D01*
X167400300Y-98605066D01*
X167340232Y-98407046D01*
X167336956Y-98400918D01*
X167245601Y-98230006D01*
X167242685Y-98224550D01*
X167111410Y-98064590D01*
X166951450Y-97933315D01*
X166945993Y-97930398D01*
X166774409Y-97838683D01*
X166774402Y-97838680D01*
X166768954Y-97835768D01*
X166763039Y-97833973D01*
X166763035Y-97833972D01*
X166576859Y-97777497D01*
X166576856Y-97777496D01*
X166570934Y-97775700D01*
X166564774Y-97775093D01*
X166564768Y-97775092D01*
X166371163Y-97756024D01*
X166365000Y-97755417D01*
X166358837Y-97756024D01*
X166165231Y-97775092D01*
X166165223Y-97775093D01*
X166159066Y-97775700D01*
X166153145Y-97777495D01*
X166153140Y-97777497D01*
X165966964Y-97833972D01*
X165966956Y-97833975D01*
X165961046Y-97835768D01*
X165955600Y-97838678D01*
X165955590Y-97838683D01*
X165784006Y-97930398D01*
X165784000Y-97930401D01*
X165778550Y-97933315D01*
X165773773Y-97937235D01*
X165773769Y-97937238D01*
X165623369Y-98060667D01*
X165623363Y-98060672D01*
X165618590Y-98064590D01*
X165614672Y-98069363D01*
X165614667Y-98069369D01*
X165491238Y-98219769D01*
X165491235Y-98219773D01*
X165487315Y-98224550D01*
X165484401Y-98230000D01*
X165484398Y-98230006D01*
X165392683Y-98401590D01*
X165392678Y-98401600D01*
X165389768Y-98407046D01*
X165387975Y-98412956D01*
X165387972Y-98412964D01*
X165331497Y-98599140D01*
X165331495Y-98599145D01*
X165329700Y-98605066D01*
X165329093Y-98611223D01*
X165329092Y-98611231D01*
X165311890Y-98785890D01*
X165309417Y-98811000D01*
X164753583Y-98811000D01*
X164733300Y-98605066D01*
X164673232Y-98407046D01*
X164669956Y-98400918D01*
X164578601Y-98230006D01*
X164575685Y-98224550D01*
X164444410Y-98064590D01*
X164284450Y-97933315D01*
X164278993Y-97930398D01*
X164107409Y-97838683D01*
X164107402Y-97838680D01*
X164101954Y-97835768D01*
X164096039Y-97833973D01*
X164096035Y-97833972D01*
X163909859Y-97777497D01*
X163909856Y-97777496D01*
X163903934Y-97775700D01*
X163897774Y-97775093D01*
X163897768Y-97775092D01*
X163704163Y-97756024D01*
X163698000Y-97755417D01*
X163691837Y-97756024D01*
X163498231Y-97775092D01*
X163498223Y-97775093D01*
X163492066Y-97775700D01*
X163486145Y-97777495D01*
X163486140Y-97777497D01*
X163299964Y-97833972D01*
X163299956Y-97833975D01*
X163294046Y-97835768D01*
X163288600Y-97838678D01*
X163288590Y-97838683D01*
X163117006Y-97930398D01*
X163117000Y-97930401D01*
X163111550Y-97933315D01*
X163106773Y-97937235D01*
X163106769Y-97937238D01*
X162956369Y-98060667D01*
X162956363Y-98060672D01*
X162951590Y-98064590D01*
X162947672Y-98069363D01*
X162947667Y-98069369D01*
X162824238Y-98219769D01*
X162824235Y-98219773D01*
X162820315Y-98224550D01*
X162817401Y-98230000D01*
X162817398Y-98230006D01*
X162725683Y-98401590D01*
X162725678Y-98401600D01*
X162722768Y-98407046D01*
X162720975Y-98412956D01*
X162720972Y-98412964D01*
X162664497Y-98599140D01*
X162664495Y-98599145D01*
X162662700Y-98605066D01*
X162662093Y-98611223D01*
X162662092Y-98611231D01*
X162644890Y-98785890D01*
X162642417Y-98811000D01*
X162213583Y-98811000D01*
X162193300Y-98605066D01*
X162133232Y-98407046D01*
X162129956Y-98400918D01*
X162038601Y-98230006D01*
X162035685Y-98224550D01*
X161904410Y-98064590D01*
X161744450Y-97933315D01*
X161738993Y-97930398D01*
X161567409Y-97838683D01*
X161567402Y-97838680D01*
X161561954Y-97835768D01*
X161556039Y-97833973D01*
X161556035Y-97833972D01*
X161369859Y-97777497D01*
X161369856Y-97777496D01*
X161363934Y-97775700D01*
X161357774Y-97775093D01*
X161357768Y-97775092D01*
X161164163Y-97756024D01*
X161158000Y-97755417D01*
X161151837Y-97756024D01*
X160958231Y-97775092D01*
X160958223Y-97775093D01*
X160952066Y-97775700D01*
X160946145Y-97777495D01*
X160946140Y-97777497D01*
X160759964Y-97833972D01*
X160759956Y-97833975D01*
X160754046Y-97835768D01*
X160748600Y-97838678D01*
X160748590Y-97838683D01*
X160577006Y-97930398D01*
X160577000Y-97930401D01*
X160571550Y-97933315D01*
X160566773Y-97937235D01*
X160566769Y-97937238D01*
X160416369Y-98060667D01*
X160416363Y-98060672D01*
X160411590Y-98064590D01*
X160407672Y-98069363D01*
X160407667Y-98069369D01*
X160284238Y-98219769D01*
X160284235Y-98219773D01*
X160280315Y-98224550D01*
X160277401Y-98230000D01*
X160277398Y-98230006D01*
X160185683Y-98401590D01*
X160185678Y-98401600D01*
X160182768Y-98407046D01*
X160180975Y-98412956D01*
X160180972Y-98412964D01*
X160124497Y-98599140D01*
X160124495Y-98599145D01*
X160122700Y-98605066D01*
X160122093Y-98611223D01*
X160122092Y-98611231D01*
X160104890Y-98785890D01*
X160102417Y-98811000D01*
X148046331Y-98811000D01*
X148064509Y-98557058D01*
X148064773Y-98553929D01*
X148101647Y-98176909D01*
X148101920Y-98174411D01*
X148153492Y-97743432D01*
X148153933Y-97740131D01*
X148209090Y-97365660D01*
X148209453Y-97363352D01*
X148281560Y-96934914D01*
X148282184Y-96931510D01*
X148355441Y-96560588D01*
X148355891Y-96558415D01*
X148448391Y-96133562D01*
X148449205Y-96130071D01*
X148540365Y-95763497D01*
X148540863Y-95761569D01*
X148653646Y-95341026D01*
X148654639Y-95337539D01*
X148763406Y-94976333D01*
X148763909Y-94974713D01*
X148896791Y-94559390D01*
X148898024Y-94555735D01*
X149023957Y-94201118D01*
X149024524Y-94199558D01*
X149177339Y-93790218D01*
X149178781Y-93786544D01*
X149321482Y-93439367D01*
X149322058Y-93437994D01*
X149494550Y-93035560D01*
X149496254Y-93031764D01*
X149655210Y-92693002D01*
X149655774Y-92691820D01*
X149847796Y-92296904D01*
X149849716Y-92293126D01*
X150024359Y-91963705D01*
X150024831Y-91962826D01*
X150236199Y-91576119D01*
X150238337Y-91572371D01*
X150427893Y-91253416D01*
X150428357Y-91252646D01*
X150658820Y-90874935D01*
X150661264Y-90871090D01*
X150864877Y-90563654D01*
X150865316Y-90562998D01*
X151114781Y-90194807D01*
X151117467Y-90191002D01*
X151334177Y-89896088D01*
X151334509Y-89895641D01*
X151602934Y-89537467D01*
X151605917Y-89533645D01*
X151834470Y-89252434D01*
X151834599Y-89252276D01*
X152122231Y-88904321D01*
X152125449Y-88900586D01*
X152364213Y-88634436D01*
X152364216Y-88634431D01*
X152671404Y-88296931D01*
X152674927Y-88293220D01*
X152921446Y-88044004D01*
X153249238Y-87716640D01*
X153252965Y-87713074D01*
X153504040Y-87482855D01*
X153854274Y-87164915D01*
X153858358Y-87161368D01*
X154108303Y-86953670D01*
X154485250Y-86642902D01*
X154489566Y-86639503D01*
X154726704Y-86461242D01*
X154727043Y-86460989D01*
X154727073Y-86460968D01*
X154872523Y-86352259D01*
X155140587Y-86151912D01*
X155145239Y-86148599D01*
X155336823Y-86018695D01*
X155336848Y-86018732D01*
X155336987Y-86018584D01*
X155817928Y-85693644D01*
X155822921Y-85690440D01*
X156401514Y-85338446D01*
X156465106Y-85320106D01*
X156529222Y-85336528D01*
G37*
%TD.AperFunction*%
M02*
