%TF.GenerationSoftware,KiCad,Pcbnew,(6.0.7)*%
%TF.CreationDate,2022-10-08T17:42:11+02:00*%
%TF.ProjectId,Helios_PCB_receiver,48656c69-6f73-45f5-9043-425f72656365,rev?*%
%TF.SameCoordinates,Original*%
%TF.FileFunction,Copper,L1,Top*%
%TF.FilePolarity,Positive*%
%FSLAX46Y46*%
G04 Gerber Fmt 4.6, Leading zero omitted, Abs format (unit mm)*
G04 Created by KiCad (PCBNEW (6.0.7)) date 2022-10-08 17:42:11*
%MOMM*%
%LPD*%
G01*
G04 APERTURE LIST*
G04 Aperture macros list*
%AMRotRect*
0 Rectangle, with rotation*
0 The origin of the aperture is its center*
0 $1 length*
0 $2 width*
0 $3 Rotation angle, in degrees counterclockwise*
0 Add horizontal line*
21,1,$1,$2,0,0,$3*%
G04 Aperture macros list end*
%TA.AperFunction,SMDPad,CuDef*%
%ADD10R,0.500000X1.500000*%
%TD*%
%TA.AperFunction,SMDPad,CuDef*%
%ADD11R,0.700000X1.300000*%
%TD*%
%TA.AperFunction,SMDPad,CuDef*%
%ADD12RotRect,1.900000X0.400000X225.000000*%
%TD*%
%TA.AperFunction,SMDPad,CuDef*%
%ADD13RotRect,1.900000X0.400000X45.000000*%
%TD*%
%TA.AperFunction,SMDPad,CuDef*%
%ADD14RotRect,1.900000X0.400000X315.000000*%
%TD*%
%TA.AperFunction,SMDPad,CuDef*%
%ADD15RotRect,1.900000X0.400000X135.000000*%
%TD*%
%TA.AperFunction,ComponentPad*%
%ADD16R,1.700000X1.700000*%
%TD*%
%TA.AperFunction,ComponentPad*%
%ADD17O,1.700000X1.700000*%
%TD*%
%TA.AperFunction,ViaPad*%
%ADD18C,0.800000*%
%TD*%
%TA.AperFunction,Conductor*%
%ADD19C,0.250000*%
%TD*%
%TA.AperFunction,Conductor*%
%ADD20C,0.500000*%
%TD*%
G04 APERTURE END LIST*
D10*
%TO.P,U1,1,OA*%
%TO.N,O2*%
X177025000Y-102200000D03*
%TO.P,U1,2,-IA*%
%TO.N,Net-(F2-Pad1)*%
X177675000Y-102200000D03*
%TO.P,U1,3,+IA*%
%TO.N,GND*%
X178325000Y-102200000D03*
%TO.P,U1,4,GND*%
X178975000Y-102200000D03*
%TO.P,U1,5,+IB*%
X178975000Y-97800000D03*
%TO.P,U1,6,-IB*%
%TO.N,Net-(F3-Pad1)*%
X178325000Y-97800000D03*
%TO.P,U1,7,OB*%
%TO.N,O3*%
X177675000Y-97800000D03*
%TO.P,U1,8,VCC*%
%TO.N,VCC*%
X177025000Y-97800000D03*
%TD*%
D11*
%TO.P,R0,1*%
%TO.N,O0*%
X153950000Y-94250000D03*
%TO.P,R0,2*%
%TO.N,Net-(F0-Pad1)*%
X152050000Y-94250000D03*
%TD*%
D12*
%TO.P,F2,1,K*%
%TO.N,Net-(F2-Pad1)*%
X174994975Y-109994975D03*
%TO.P,F2,2,A*%
%TO.N,GND*%
X174005025Y-109005025D03*
%TD*%
D13*
%TO.P,F0,1,K*%
%TO.N,Net-(F0-Pad1)*%
X155005025Y-90005025D03*
%TO.P,F0,2,A*%
%TO.N,GND*%
X155994975Y-90994975D03*
%TD*%
D11*
%TO.P,R3,1*%
%TO.N,O3*%
X176050000Y-94250000D03*
%TO.P,R3,2*%
%TO.N,Net-(F3-Pad1)*%
X177950000Y-94250000D03*
%TD*%
D10*
%TO.P,U0,1,OA*%
%TO.N,O0*%
X152975000Y-97800000D03*
%TO.P,U0,2,-IA*%
%TO.N,Net-(F0-Pad1)*%
X152325000Y-97800000D03*
%TO.P,U0,3,+IA*%
%TO.N,GND*%
X151675000Y-97800000D03*
%TO.P,U0,4,GND*%
X151025000Y-97800000D03*
%TO.P,U0,5,+IB*%
X151025000Y-102200000D03*
%TO.P,U0,6,-IB*%
%TO.N,Net-(F1-Pad1)*%
X151675000Y-102200000D03*
%TO.P,U0,7,OB*%
%TO.N,O1*%
X152325000Y-102200000D03*
%TO.P,U0,8,VCC*%
%TO.N,VCC*%
X152975000Y-102200000D03*
%TD*%
D14*
%TO.P,F3,1,K*%
%TO.N,Net-(F3-Pad1)*%
X174994975Y-90005025D03*
%TO.P,F3,2,A*%
%TO.N,GND*%
X174005025Y-90994975D03*
%TD*%
D15*
%TO.P,F1,1,K*%
%TO.N,Net-(F1-Pad1)*%
X155005025Y-109994975D03*
%TO.P,F1,2,A*%
%TO.N,GND*%
X155994975Y-109005025D03*
%TD*%
D11*
%TO.P,R2,1*%
%TO.N,O2*%
X176050000Y-106000000D03*
%TO.P,R2,2*%
%TO.N,Net-(F2-Pad1)*%
X177950000Y-106000000D03*
%TD*%
D16*
%TO.P,J0,1,Pin_1*%
%TO.N,VCC*%
X162475000Y-101275000D03*
D17*
%TO.P,J0,2,Pin_2*%
%TO.N,O0*%
X162475000Y-98735000D03*
%TO.P,J0,3,Pin_3*%
%TO.N,O1*%
X165015000Y-101275000D03*
%TO.P,J0,4,Pin_4*%
%TO.N,O3*%
X165015000Y-98735000D03*
%TO.P,J0,5,Pin_5*%
%TO.N,O2*%
X167555000Y-101275000D03*
%TO.P,J0,6,Pin_6*%
%TO.N,GND*%
X167555000Y-98735000D03*
%TD*%
D11*
%TO.P,R1,1*%
%TO.N,O1*%
X153950000Y-105750000D03*
%TO.P,R1,2*%
%TO.N,Net-(F1-Pad1)*%
X152050000Y-105750000D03*
%TD*%
D18*
%TO.N,VCC*%
X175750000Y-97800000D03*
%TD*%
D19*
%TO.N,Net-(F0-Pad1)*%
X152050000Y-96050000D02*
X152050000Y-94250000D01*
X152325000Y-96325000D02*
X152050000Y-96050000D01*
X155005025Y-90005025D02*
X152050000Y-92960050D01*
X152325000Y-97800000D02*
X152325000Y-96325000D01*
X152050000Y-92960050D02*
X152050000Y-94250000D01*
%TO.N,Net-(F1-Pad1)*%
X151675000Y-103675000D02*
X152050000Y-104050000D01*
X152050000Y-104050000D02*
X152050000Y-105750000D01*
X151675000Y-102200000D02*
X151675000Y-103675000D01*
X152050000Y-107039950D02*
X152050000Y-105750000D01*
X155005025Y-109994975D02*
X152050000Y-107039950D01*
%TO.N,Net-(F2-Pad1)*%
X177950000Y-103700000D02*
X177950000Y-106000000D01*
X177950000Y-106000000D02*
X177950000Y-107039950D01*
X177950000Y-107039950D02*
X174994975Y-109994975D01*
X177675000Y-103425000D02*
X177950000Y-103700000D01*
X177675000Y-102200000D02*
X177675000Y-103425000D01*
%TO.N,Net-(F3-Pad1)*%
X174994975Y-90005025D02*
X177950000Y-92960050D01*
X177950000Y-95900000D02*
X177950000Y-94250000D01*
X177950000Y-92960050D02*
X177950000Y-94250000D01*
X178325000Y-96275000D02*
X177950000Y-95900000D01*
X178325000Y-97800000D02*
X178325000Y-96275000D01*
%TO.N,O0*%
X153950000Y-94250000D02*
X153950000Y-95650000D01*
X153950000Y-95650000D02*
X152975000Y-96625000D01*
X162475000Y-98735000D02*
X155735000Y-98735000D01*
X155735000Y-98735000D02*
X154800000Y-97800000D01*
X152975000Y-96625000D02*
X152975000Y-97800000D01*
X154800000Y-97800000D02*
X152975000Y-97800000D01*
%TO.N,O1*%
X163840000Y-100100000D02*
X153425000Y-100100000D01*
X165015000Y-101275000D02*
X163840000Y-100100000D01*
X153950000Y-104850000D02*
X153550000Y-104450000D01*
X153950000Y-105750000D02*
X153950000Y-104850000D01*
X152325000Y-103225000D02*
X152325000Y-102200000D01*
X153550000Y-104450000D02*
X152325000Y-103225000D01*
X152325000Y-101200000D02*
X152325000Y-102200000D01*
X153425000Y-100100000D02*
X152325000Y-101200000D01*
%TO.N,O2*%
X175450000Y-102200000D02*
X177025000Y-102200000D01*
X176050000Y-104700000D02*
X177025000Y-103725000D01*
X176050000Y-106000000D02*
X176050000Y-104700000D01*
X167555000Y-101275000D02*
X174525000Y-101275000D01*
X177025000Y-103725000D02*
X177025000Y-102200000D01*
X174525000Y-101275000D02*
X175450000Y-102200000D01*
%TO.N,O3*%
X166190000Y-99910000D02*
X176565000Y-99910000D01*
X176565000Y-99910000D02*
X177675000Y-98800000D01*
X177675000Y-96800000D02*
X177675000Y-97800000D01*
X176050000Y-94250000D02*
X176050000Y-95175000D01*
X176050000Y-95175000D02*
X177675000Y-96800000D01*
X177675000Y-98800000D02*
X177675000Y-97800000D01*
X165015000Y-98735000D02*
X166190000Y-99910000D01*
D20*
%TO.N,VCC*%
X154800000Y-102200000D02*
X153025000Y-102200000D01*
X155725000Y-101275000D02*
X154800000Y-102200000D01*
X175750000Y-97800000D02*
X176975000Y-97800000D01*
X162475000Y-101275000D02*
X155725000Y-101275000D01*
%TD*%
%TA.AperFunction,Conductor*%
%TO.N,GND*%
G36*
X156466659Y-85619069D02*
G01*
X156505116Y-85660444D01*
X157757826Y-87834263D01*
X159586635Y-91007783D01*
X159691591Y-91189913D01*
X159708273Y-91258922D01*
X159684998Y-91325995D01*
X159648422Y-91360155D01*
X159430799Y-91493979D01*
X159430776Y-91493994D01*
X159429254Y-91494930D01*
X159427788Y-91495951D01*
X159427773Y-91495961D01*
X158954544Y-91825599D01*
X158954533Y-91825607D01*
X158953066Y-91826629D01*
X158496578Y-92184956D01*
X158495254Y-92186124D01*
X158495246Y-92186130D01*
X158343296Y-92320099D01*
X158061279Y-92568744D01*
X158060023Y-92569986D01*
X158060012Y-92569996D01*
X157837981Y-92789503D01*
X157648586Y-92976744D01*
X157259844Y-93407626D01*
X157258727Y-93409016D01*
X157258721Y-93409023D01*
X157251486Y-93418026D01*
X156896320Y-93859986D01*
X156559197Y-94332350D01*
X156558229Y-94333885D01*
X156558224Y-94333892D01*
X156430006Y-94537150D01*
X156249575Y-94823179D01*
X156248705Y-94824750D01*
X156248701Y-94824757D01*
X155972458Y-95323658D01*
X155968462Y-95330874D01*
X155716774Y-95853782D01*
X155606657Y-96120525D01*
X155501499Y-96375255D01*
X155495330Y-96390198D01*
X155494749Y-96391870D01*
X155494746Y-96391878D01*
X155436404Y-96559784D01*
X155348785Y-96811946D01*
X155307686Y-96930225D01*
X155306357Y-96933578D01*
X155304107Y-96937386D01*
X155303890Y-96938071D01*
X155303312Y-96945145D01*
X155303311Y-96945148D01*
X155303208Y-96946412D01*
X155303181Y-96946590D01*
X155299503Y-96954228D01*
X155299500Y-96968413D01*
X155299500Y-96968415D01*
X155299497Y-96986653D01*
X155299078Y-96996899D01*
X155296433Y-97029242D01*
X155299488Y-97037191D01*
X155299487Y-97045704D01*
X155307347Y-97062042D01*
X155313547Y-97074931D01*
X155317614Y-97084348D01*
X155329252Y-97114627D01*
X155335450Y-97120463D01*
X155339142Y-97128137D01*
X155364497Y-97148384D01*
X155372239Y-97155101D01*
X155395852Y-97177334D01*
X155403968Y-97179905D01*
X155410623Y-97185219D01*
X155438422Y-97191591D01*
X155442252Y-97192469D01*
X155452147Y-97195166D01*
X155469529Y-97200672D01*
X155469530Y-97200672D01*
X155483058Y-97204957D01*
X155505540Y-97201748D01*
X155523250Y-97200484D01*
X167112362Y-97192314D01*
X167180497Y-97212268D01*
X167227028Y-97265891D01*
X167237181Y-97336158D01*
X167207734Y-97400759D01*
X167151596Y-97438079D01*
X167031868Y-97477212D01*
X167022359Y-97481209D01*
X166833463Y-97579542D01*
X166824738Y-97585036D01*
X166654433Y-97712905D01*
X166646726Y-97719748D01*
X166499590Y-97873717D01*
X166493104Y-97881727D01*
X166373098Y-98057649D01*
X166368000Y-98066623D01*
X166278338Y-98259783D01*
X166274775Y-98269470D01*
X166246012Y-98373185D01*
X166208533Y-98433483D01*
X166144405Y-98463946D01*
X166073986Y-98454903D01*
X166019636Y-98409224D01*
X166003973Y-98375933D01*
X166002965Y-98372595D01*
X165990935Y-98332749D01*
X165894218Y-98150849D01*
X165795654Y-98029998D01*
X165767906Y-97995975D01*
X165767903Y-97995972D01*
X165764011Y-97991200D01*
X165722383Y-97956762D01*
X165610025Y-97863811D01*
X165610021Y-97863809D01*
X165605275Y-97859882D01*
X165424055Y-97761897D01*
X165227254Y-97700977D01*
X165221129Y-97700333D01*
X165221128Y-97700333D01*
X165028498Y-97680087D01*
X165028496Y-97680087D01*
X165022369Y-97679443D01*
X164935529Y-97687346D01*
X164823342Y-97697555D01*
X164823339Y-97697556D01*
X164817203Y-97698114D01*
X164619572Y-97756280D01*
X164437002Y-97851726D01*
X164432201Y-97855586D01*
X164432198Y-97855588D01*
X164399688Y-97881727D01*
X164276447Y-97980815D01*
X164144024Y-98138630D01*
X164141056Y-98144028D01*
X164141053Y-98144033D01*
X164091976Y-98233305D01*
X164044776Y-98319162D01*
X163982484Y-98515532D01*
X163981798Y-98521649D01*
X163981797Y-98521653D01*
X163960207Y-98714137D01*
X163959520Y-98720262D01*
X163960036Y-98726406D01*
X163975902Y-98915342D01*
X163976759Y-98925553D01*
X163978458Y-98931478D01*
X164016534Y-99064264D01*
X164033544Y-99123586D01*
X164036359Y-99129063D01*
X164036360Y-99129066D01*
X164124897Y-99301341D01*
X164127712Y-99306818D01*
X164255677Y-99468270D01*
X164260370Y-99472264D01*
X164260371Y-99472265D01*
X164378869Y-99573114D01*
X164412564Y-99601791D01*
X164417942Y-99604797D01*
X164417944Y-99604798D01*
X164456342Y-99626258D01*
X164592398Y-99702297D01*
X164667352Y-99726651D01*
X164782471Y-99764056D01*
X164782475Y-99764057D01*
X164788329Y-99765959D01*
X164992894Y-99790351D01*
X164999029Y-99789879D01*
X164999031Y-99789879D01*
X165055039Y-99785569D01*
X165198300Y-99774546D01*
X165204230Y-99772890D01*
X165204232Y-99772890D01*
X165390797Y-99720800D01*
X165390796Y-99720800D01*
X165396725Y-99719145D01*
X165402221Y-99716369D01*
X165409722Y-99712580D01*
X165479544Y-99699721D01*
X165545235Y-99726651D01*
X165555626Y-99735952D01*
X165945889Y-100126215D01*
X165953316Y-100134319D01*
X165977545Y-100163194D01*
X165987094Y-100168707D01*
X166010185Y-100182039D01*
X166019456Y-100187945D01*
X166050316Y-100209554D01*
X166060966Y-100212408D01*
X166064134Y-100213885D01*
X166067410Y-100215077D01*
X166076955Y-100220588D01*
X166110699Y-100226538D01*
X166114058Y-100227130D01*
X166124785Y-100229508D01*
X166161193Y-100239264D01*
X166172178Y-100238303D01*
X166172180Y-100238303D01*
X166198728Y-100235980D01*
X166209710Y-100235500D01*
X166813511Y-100235500D01*
X166881632Y-100255502D01*
X166928125Y-100309158D01*
X166938229Y-100379432D01*
X166908735Y-100444012D01*
X166892464Y-100459696D01*
X166816447Y-100520815D01*
X166684024Y-100678630D01*
X166681056Y-100684028D01*
X166681053Y-100684033D01*
X166590740Y-100848314D01*
X166584776Y-100859162D01*
X166522484Y-101055532D01*
X166521798Y-101061649D01*
X166521797Y-101061653D01*
X166510966Y-101158216D01*
X166499520Y-101260262D01*
X166500036Y-101266406D01*
X166513795Y-101430252D01*
X166516759Y-101465553D01*
X166518458Y-101471478D01*
X166566037Y-101637405D01*
X166573544Y-101663586D01*
X166576359Y-101669063D01*
X166576360Y-101669066D01*
X166643218Y-101799158D01*
X166667712Y-101846818D01*
X166795677Y-102008270D01*
X166800370Y-102012264D01*
X166800371Y-102012265D01*
X166875260Y-102076000D01*
X166952564Y-102141791D01*
X167132398Y-102242297D01*
X167216280Y-102269552D01*
X167322471Y-102304056D01*
X167322475Y-102304057D01*
X167328329Y-102305959D01*
X167532894Y-102330351D01*
X167539029Y-102329879D01*
X167539031Y-102329879D01*
X167611625Y-102324293D01*
X167738300Y-102314546D01*
X167744230Y-102312890D01*
X167744232Y-102312890D01*
X167930797Y-102260800D01*
X167930796Y-102260800D01*
X167936725Y-102259145D01*
X167942214Y-102256372D01*
X167942220Y-102256370D01*
X168115116Y-102169033D01*
X168120610Y-102166258D01*
X168282951Y-102039424D01*
X168361582Y-101948329D01*
X168413540Y-101888134D01*
X168413540Y-101888133D01*
X168417564Y-101883472D01*
X168438387Y-101846818D01*
X168501083Y-101736452D01*
X168519323Y-101704344D01*
X168525184Y-101686726D01*
X168565666Y-101628403D01*
X168631254Y-101601224D01*
X168644741Y-101600500D01*
X174337984Y-101600500D01*
X174406105Y-101620502D01*
X174427079Y-101637405D01*
X175205889Y-102416215D01*
X175213316Y-102424319D01*
X175237545Y-102453194D01*
X175247094Y-102458707D01*
X175270185Y-102472039D01*
X175279456Y-102477945D01*
X175310316Y-102499554D01*
X175320966Y-102502408D01*
X175324134Y-102503885D01*
X175327410Y-102505077D01*
X175336955Y-102510588D01*
X175370699Y-102516538D01*
X175374058Y-102517130D01*
X175384785Y-102519508D01*
X175421193Y-102529264D01*
X175432169Y-102528304D01*
X175432172Y-102528304D01*
X175458743Y-102525979D01*
X175469724Y-102525500D01*
X176448500Y-102525500D01*
X176516621Y-102545502D01*
X176563114Y-102599158D01*
X176574500Y-102651500D01*
X176574500Y-102969748D01*
X176575707Y-102975816D01*
X176583712Y-103016058D01*
X176586133Y-103028231D01*
X176630448Y-103094552D01*
X176640761Y-103101443D01*
X176640765Y-103101447D01*
X176643501Y-103103275D01*
X176648121Y-103108803D01*
X176649540Y-103110222D01*
X176649413Y-103110349D01*
X176689029Y-103157751D01*
X176699500Y-103208040D01*
X176699500Y-103537983D01*
X176679498Y-103606104D01*
X176662595Y-103627078D01*
X175833787Y-104455886D01*
X175825684Y-104463312D01*
X175805249Y-104480460D01*
X175796806Y-104487545D01*
X175791296Y-104497089D01*
X175791295Y-104497090D01*
X175777961Y-104520185D01*
X175772055Y-104529456D01*
X175750446Y-104560316D01*
X175747592Y-104570966D01*
X175746115Y-104574134D01*
X175744923Y-104577410D01*
X175739412Y-104586955D01*
X175736072Y-104605900D01*
X175732870Y-104624058D01*
X175730492Y-104634785D01*
X175720736Y-104671193D01*
X175721697Y-104682178D01*
X175721697Y-104682180D01*
X175724020Y-104708728D01*
X175724500Y-104719710D01*
X175724500Y-105037293D01*
X175704498Y-105105414D01*
X175650842Y-105151907D01*
X175645295Y-105153698D01*
X175645405Y-105153963D01*
X175633939Y-105158712D01*
X175621769Y-105161133D01*
X175555448Y-105205448D01*
X175511133Y-105271769D01*
X175499500Y-105330252D01*
X175499500Y-106669748D01*
X175511133Y-106728231D01*
X175555448Y-106794552D01*
X175621769Y-106838867D01*
X175633938Y-106841288D01*
X175633939Y-106841288D01*
X175657815Y-106846037D01*
X175680252Y-106850500D01*
X176124000Y-106850500D01*
X176192121Y-106870502D01*
X176238614Y-106924158D01*
X176250000Y-106976500D01*
X176250000Y-108227432D01*
X176229998Y-108295553D01*
X176213095Y-108316527D01*
X175853906Y-108675716D01*
X175791594Y-108709742D01*
X175720779Y-108704677D01*
X175675716Y-108675716D01*
X175310388Y-108310388D01*
X175284782Y-108273443D01*
X175253836Y-108205378D01*
X175245613Y-108192025D01*
X175213546Y-108152143D01*
X175209004Y-108147081D01*
X175190217Y-108128295D01*
X175176276Y-108120683D01*
X175174441Y-108120814D01*
X175167827Y-108125065D01*
X174005025Y-109287868D01*
X173128297Y-110164595D01*
X173120683Y-110178539D01*
X173120814Y-110180373D01*
X173125063Y-110186985D01*
X173147069Y-110208991D01*
X173152153Y-110213553D01*
X173192026Y-110245614D01*
X173205377Y-110253835D01*
X173273443Y-110284782D01*
X173310388Y-110310388D01*
X174250000Y-111250000D01*
X174466053Y-111033947D01*
X174519690Y-111005277D01*
X174519238Y-111004185D01*
X174530322Y-110999594D01*
X174530566Y-110999463D01*
X174542876Y-110997015D01*
X174592456Y-110963887D01*
X175963887Y-109592456D01*
X175997015Y-109542876D01*
X175999463Y-109530566D01*
X175999594Y-109530322D01*
X176004185Y-109519238D01*
X176005277Y-109519690D01*
X176033947Y-109466053D01*
X176250000Y-109250000D01*
X176246238Y-109246238D01*
X176252921Y-109234001D01*
X176261102Y-109196391D01*
X176282595Y-109167681D01*
X177200277Y-108250000D01*
X178166222Y-107284055D01*
X178174326Y-107276628D01*
X178194749Y-107259491D01*
X178203194Y-107252405D01*
X178222039Y-107219765D01*
X178227943Y-107210497D01*
X178243231Y-107188663D01*
X178249553Y-107179634D01*
X178252406Y-107168988D01*
X178253883Y-107165820D01*
X178255076Y-107162543D01*
X178260588Y-107152995D01*
X178267132Y-107115881D01*
X178269512Y-107105146D01*
X178276410Y-107079404D01*
X178279263Y-107068757D01*
X178275979Y-107031219D01*
X178275500Y-107020238D01*
X178275500Y-106962707D01*
X178295502Y-106894586D01*
X178349158Y-106848093D01*
X178354705Y-106846302D01*
X178354595Y-106846037D01*
X178366061Y-106841288D01*
X178378231Y-106838867D01*
X178444552Y-106794552D01*
X178488867Y-106728231D01*
X178500500Y-106669748D01*
X178500500Y-105330252D01*
X178488867Y-105271769D01*
X178444552Y-105205448D01*
X178378231Y-105161133D01*
X178366061Y-105158712D01*
X178354595Y-105153963D01*
X178356218Y-105150044D01*
X178314007Y-105127963D01*
X178278877Y-105066267D01*
X178275500Y-105037293D01*
X178275500Y-103719710D01*
X178275980Y-103708728D01*
X178278303Y-103682180D01*
X178278303Y-103682178D01*
X178279264Y-103671193D01*
X178269508Y-103634785D01*
X178267130Y-103624058D01*
X178263964Y-103606104D01*
X178260588Y-103586955D01*
X178255077Y-103577410D01*
X178253885Y-103574134D01*
X178252408Y-103570966D01*
X178249554Y-103560316D01*
X178227945Y-103529456D01*
X178222039Y-103520185D01*
X178208707Y-103497094D01*
X178203194Y-103487545D01*
X178174317Y-103463315D01*
X178166215Y-103455889D01*
X178150210Y-103439884D01*
X178575000Y-103439884D01*
X178579475Y-103455123D01*
X178580865Y-103456328D01*
X178588548Y-103457999D01*
X178619670Y-103457999D01*
X178626482Y-103457630D01*
X178636386Y-103456554D01*
X178663607Y-103456554D01*
X178673523Y-103457631D01*
X178680327Y-103458000D01*
X178706885Y-103458000D01*
X178722124Y-103453525D01*
X178723329Y-103452135D01*
X178725000Y-103444452D01*
X178725000Y-103439884D01*
X179225000Y-103439884D01*
X179229475Y-103455123D01*
X179230865Y-103456328D01*
X179238548Y-103457999D01*
X179269669Y-103457999D01*
X179276490Y-103457629D01*
X179327352Y-103452105D01*
X179342604Y-103448479D01*
X179463054Y-103403324D01*
X179478649Y-103394786D01*
X179580724Y-103318285D01*
X179593285Y-103305724D01*
X179669786Y-103203649D01*
X179678324Y-103188054D01*
X179723478Y-103067606D01*
X179727105Y-103052351D01*
X179732631Y-103001486D01*
X179733000Y-102994672D01*
X179733000Y-102468115D01*
X179728525Y-102452876D01*
X179727135Y-102451671D01*
X179719452Y-102450000D01*
X179243115Y-102450000D01*
X179227876Y-102454475D01*
X179226671Y-102455865D01*
X179225000Y-102463548D01*
X179225000Y-103439884D01*
X178725000Y-103439884D01*
X178725000Y-102468115D01*
X178720525Y-102452876D01*
X178719135Y-102451671D01*
X178711452Y-102450000D01*
X178593115Y-102450000D01*
X178577876Y-102454475D01*
X178576671Y-102455865D01*
X178575000Y-102463548D01*
X178575000Y-103439884D01*
X178150210Y-103439884D01*
X178111905Y-103401579D01*
X178077879Y-103339267D01*
X178075000Y-103312484D01*
X178075000Y-103124621D01*
X178096235Y-103054619D01*
X178106972Y-103038550D01*
X178113867Y-103028231D01*
X178125500Y-102969748D01*
X178125500Y-102076000D01*
X178145502Y-102007879D01*
X178199158Y-101961386D01*
X178251500Y-101950000D01*
X179714884Y-101950000D01*
X179730123Y-101945525D01*
X179731328Y-101944135D01*
X179732999Y-101936452D01*
X179732999Y-101808822D01*
X179742689Y-101775819D01*
X179741493Y-101775559D01*
X179747053Y-101750000D01*
X179750000Y-101750000D01*
X179750000Y-98250000D01*
X179744681Y-98250000D01*
X179738104Y-98227601D01*
X179733000Y-98192103D01*
X179733000Y-98068115D01*
X179728525Y-98052876D01*
X179727135Y-98051671D01*
X179719452Y-98050000D01*
X178901500Y-98050000D01*
X178833379Y-98029998D01*
X178786886Y-97976342D01*
X178775500Y-97924000D01*
X178775500Y-97531885D01*
X179225000Y-97531885D01*
X179229475Y-97547124D01*
X179230865Y-97548329D01*
X179238548Y-97550000D01*
X179714884Y-97550000D01*
X179730123Y-97545525D01*
X179731328Y-97544135D01*
X179732999Y-97536452D01*
X179732999Y-97005331D01*
X179732629Y-96998510D01*
X179727105Y-96947648D01*
X179723479Y-96932396D01*
X179678324Y-96811946D01*
X179669786Y-96796351D01*
X179593285Y-96694276D01*
X179580724Y-96681715D01*
X179478649Y-96605214D01*
X179463054Y-96596676D01*
X179342606Y-96551522D01*
X179327351Y-96547895D01*
X179276486Y-96542369D01*
X179269672Y-96542000D01*
X179243115Y-96542000D01*
X179227876Y-96546475D01*
X179226671Y-96547865D01*
X179225000Y-96555548D01*
X179225000Y-97531885D01*
X178775500Y-97531885D01*
X178775500Y-97030252D01*
X178763867Y-96971769D01*
X178746235Y-96945381D01*
X178725000Y-96875379D01*
X178725000Y-96560116D01*
X178720525Y-96544877D01*
X178694830Y-96522612D01*
X178696155Y-96521083D01*
X178687421Y-96516316D01*
X178653385Y-96454010D01*
X178650500Y-96427204D01*
X178650500Y-96294710D01*
X178650980Y-96283728D01*
X178653303Y-96257180D01*
X178653303Y-96257178D01*
X178654264Y-96246193D01*
X178644508Y-96209785D01*
X178642130Y-96199058D01*
X178639707Y-96185316D01*
X178635588Y-96161955D01*
X178630077Y-96152410D01*
X178628885Y-96149134D01*
X178627408Y-96145966D01*
X178624554Y-96135316D01*
X178602945Y-96104456D01*
X178597039Y-96095185D01*
X178583707Y-96072094D01*
X178578194Y-96062545D01*
X178549317Y-96038315D01*
X178541215Y-96030889D01*
X178312405Y-95802079D01*
X178278379Y-95739767D01*
X178275500Y-95712984D01*
X178275500Y-95212707D01*
X178295502Y-95144586D01*
X178349158Y-95098093D01*
X178354705Y-95096302D01*
X178354595Y-95096037D01*
X178366061Y-95091288D01*
X178378231Y-95088867D01*
X178444552Y-95044552D01*
X178488867Y-94978231D01*
X178500500Y-94919748D01*
X178500500Y-93580252D01*
X178488867Y-93521769D01*
X178444552Y-93455448D01*
X178378231Y-93411133D01*
X178366061Y-93408712D01*
X178354595Y-93403963D01*
X178356218Y-93400044D01*
X178314007Y-93377963D01*
X178278877Y-93316267D01*
X178275500Y-93287293D01*
X178275500Y-92979748D01*
X178275980Y-92968766D01*
X178278302Y-92942230D01*
X178278302Y-92942228D01*
X178279263Y-92931243D01*
X178269512Y-92894853D01*
X178267132Y-92884119D01*
X178262502Y-92857862D01*
X178260588Y-92847005D01*
X178255076Y-92837457D01*
X178253883Y-92834180D01*
X178252406Y-92831012D01*
X178249553Y-92820366D01*
X178227942Y-92789502D01*
X178222038Y-92780234D01*
X178208707Y-92757144D01*
X178203194Y-92747595D01*
X178174331Y-92723376D01*
X178166227Y-92715950D01*
X177244899Y-91794622D01*
X176281551Y-90831275D01*
X176247526Y-90768963D01*
X176245453Y-90754547D01*
X176250000Y-90750000D01*
X176033947Y-90533947D01*
X176005277Y-90480310D01*
X176004185Y-90480762D01*
X175999594Y-90469678D01*
X175999463Y-90469433D01*
X175999436Y-90469296D01*
X175997015Y-90457124D01*
X175963887Y-90407544D01*
X174592456Y-89036113D01*
X174542876Y-89002985D01*
X174530566Y-89000537D01*
X174530322Y-89000406D01*
X174519238Y-88995815D01*
X174519690Y-88994723D01*
X174466053Y-88966053D01*
X174250000Y-88750000D01*
X173310388Y-89689612D01*
X173273443Y-89715218D01*
X173205378Y-89746164D01*
X173192025Y-89754387D01*
X173152143Y-89786454D01*
X173147081Y-89790996D01*
X173128295Y-89809783D01*
X173120683Y-89823724D01*
X173120814Y-89825559D01*
X173125064Y-89832172D01*
X174005025Y-90712132D01*
X175164599Y-91871707D01*
X175178537Y-91879318D01*
X175180373Y-91879186D01*
X175186985Y-91874937D01*
X175208991Y-91852931D01*
X175213553Y-91847847D01*
X175245614Y-91807974D01*
X175253835Y-91794623D01*
X175284782Y-91726557D01*
X175310388Y-91689612D01*
X175675716Y-91324284D01*
X175738028Y-91290258D01*
X175808843Y-91295323D01*
X175853906Y-91324284D01*
X176213095Y-91683473D01*
X176247121Y-91745785D01*
X176250000Y-91772568D01*
X176250000Y-93273500D01*
X176229998Y-93341621D01*
X176176342Y-93388114D01*
X176124000Y-93399500D01*
X175680252Y-93399500D01*
X175674184Y-93400707D01*
X175633939Y-93408712D01*
X175633938Y-93408712D01*
X175621769Y-93411133D01*
X175555448Y-93455448D01*
X175511133Y-93521769D01*
X175499500Y-93580252D01*
X175499500Y-94919748D01*
X175511133Y-94978231D01*
X175555448Y-95044552D01*
X175621769Y-95088867D01*
X175633940Y-95091288D01*
X175645140Y-95095927D01*
X175700421Y-95140474D01*
X175721241Y-95198030D01*
X175720736Y-95203807D01*
X175723590Y-95214456D01*
X175730491Y-95240210D01*
X175732870Y-95250942D01*
X175739412Y-95288045D01*
X175744923Y-95297590D01*
X175746115Y-95300866D01*
X175747592Y-95304034D01*
X175750446Y-95314684D01*
X175761783Y-95330874D01*
X175772055Y-95345544D01*
X175777961Y-95354815D01*
X175790193Y-95376000D01*
X175796806Y-95387455D01*
X175805251Y-95394541D01*
X175825682Y-95411685D01*
X175833785Y-95419111D01*
X177049079Y-96634405D01*
X177083105Y-96696717D01*
X177078040Y-96767532D01*
X177035493Y-96824368D01*
X176968973Y-96849179D01*
X176959984Y-96849500D01*
X176755252Y-96849500D01*
X176749184Y-96850707D01*
X176708939Y-96858712D01*
X176708938Y-96858712D01*
X176696769Y-96861133D01*
X176630448Y-96905448D01*
X176586133Y-96971769D01*
X176583712Y-96983938D01*
X176583712Y-96983939D01*
X176577474Y-97015299D01*
X176574500Y-97030252D01*
X176574500Y-97223500D01*
X176554498Y-97291621D01*
X176500842Y-97338114D01*
X176448500Y-97349500D01*
X176192099Y-97349500D01*
X176123978Y-97329498D01*
X176115395Y-97323463D01*
X176059392Y-97280491D01*
X176052841Y-97275464D01*
X175906762Y-97214956D01*
X175750000Y-97194318D01*
X175593238Y-97214956D01*
X175447159Y-97275464D01*
X175321718Y-97371718D01*
X175225464Y-97497159D01*
X175164956Y-97643238D01*
X175144318Y-97800000D01*
X175164956Y-97956762D01*
X175225464Y-98102841D01*
X175321718Y-98228282D01*
X175328264Y-98233305D01*
X175350673Y-98250500D01*
X175447159Y-98324536D01*
X175593238Y-98385044D01*
X175601426Y-98386122D01*
X175671619Y-98395363D01*
X175750000Y-98405682D01*
X175758188Y-98404604D01*
X175898574Y-98386122D01*
X175906762Y-98385044D01*
X176052841Y-98324536D01*
X176115395Y-98276537D01*
X176181616Y-98250937D01*
X176192099Y-98250500D01*
X176374000Y-98250500D01*
X176442121Y-98270502D01*
X176488614Y-98324158D01*
X176500000Y-98376500D01*
X176500000Y-99458500D01*
X176479998Y-99526621D01*
X176426342Y-99573114D01*
X176374000Y-99584500D01*
X168852855Y-99584500D01*
X168784734Y-99564498D01*
X168738241Y-99510842D01*
X168728137Y-99440568D01*
X168739898Y-99402673D01*
X168819670Y-99241267D01*
X168823469Y-99231672D01*
X168885377Y-99027910D01*
X168887555Y-99017837D01*
X168888986Y-99006962D01*
X168886775Y-98992778D01*
X168873617Y-98989000D01*
X167427000Y-98989000D01*
X167358879Y-98968998D01*
X167312386Y-98915342D01*
X167301000Y-98863000D01*
X167301000Y-98607000D01*
X167321002Y-98538879D01*
X167374658Y-98492386D01*
X167427000Y-98481000D01*
X168873344Y-98481000D01*
X168886875Y-98477027D01*
X168888180Y-98467947D01*
X168846214Y-98300875D01*
X168842894Y-98291124D01*
X168757972Y-98095814D01*
X168753105Y-98086739D01*
X168637426Y-97907926D01*
X168631136Y-97899757D01*
X168487806Y-97742240D01*
X168480273Y-97735215D01*
X168313139Y-97603222D01*
X168304552Y-97597517D01*
X168118117Y-97494599D01*
X168108705Y-97490368D01*
X167956479Y-97436462D01*
X167898942Y-97394868D01*
X167873027Y-97328770D01*
X167886961Y-97259154D01*
X167936320Y-97208123D01*
X167998450Y-97191689D01*
X174518745Y-97187092D01*
X174537061Y-97188419D01*
X174558737Y-97191591D01*
X174572277Y-97187354D01*
X174572279Y-97187354D01*
X174590177Y-97181753D01*
X174599696Y-97179178D01*
X174631826Y-97171825D01*
X174638226Y-97166718D01*
X174646039Y-97164273D01*
X174656404Y-97154582D01*
X174670110Y-97141767D01*
X174677554Y-97135333D01*
X174703325Y-97114768D01*
X174706878Y-97107388D01*
X174712857Y-97101798D01*
X174724785Y-97071085D01*
X174728711Y-97062042D01*
X174736851Y-97045135D01*
X174743008Y-97032348D01*
X174743009Y-97024159D01*
X174745973Y-97016528D01*
X174743423Y-96983942D01*
X174743402Y-96983674D01*
X174743018Y-96973825D01*
X174743021Y-96955062D01*
X174743021Y-96955061D01*
X174743023Y-96940872D01*
X174739478Y-96933503D01*
X174739471Y-96933455D01*
X174739391Y-96932437D01*
X174738835Y-96925332D01*
X174738620Y-96924647D01*
X174736377Y-96920820D01*
X174735239Y-96917936D01*
X174717899Y-96868026D01*
X174546701Y-96375255D01*
X174431128Y-96095185D01*
X174325413Y-95839003D01*
X174325406Y-95838988D01*
X174324725Y-95837337D01*
X174316651Y-95820551D01*
X174103722Y-95377906D01*
X174072469Y-95312935D01*
X173988288Y-95160786D01*
X173791623Y-94805330D01*
X173791614Y-94805315D01*
X173790751Y-94803755D01*
X173480486Y-94311448D01*
X173142682Y-93837615D01*
X172778436Y-93383793D01*
X172774567Y-93379498D01*
X172390131Y-92952789D01*
X172390130Y-92952788D01*
X172388930Y-92951456D01*
X171975430Y-92542008D01*
X171539278Y-92156779D01*
X171081890Y-91797020D01*
X170972111Y-91720376D01*
X170854349Y-91638159D01*
X173651013Y-91638159D01*
X173651144Y-91639993D01*
X173655395Y-91646607D01*
X174207729Y-92198941D01*
X174212812Y-92203502D01*
X174252686Y-92235563D01*
X174266040Y-92243786D01*
X174383136Y-92297026D01*
X174400199Y-92302015D01*
X174526467Y-92320099D01*
X174544243Y-92320099D01*
X174670511Y-92302015D01*
X174687574Y-92297025D01*
X174804671Y-92243786D01*
X174818025Y-92235563D01*
X174857907Y-92203496D01*
X174862969Y-92198954D01*
X174881755Y-92180167D01*
X174889367Y-92166226D01*
X174889236Y-92164391D01*
X174884986Y-92157778D01*
X174017833Y-91290626D01*
X174003895Y-91283015D01*
X174002059Y-91283147D01*
X173995447Y-91287396D01*
X173658626Y-91624216D01*
X173651013Y-91638159D01*
X170854349Y-91638159D01*
X170606226Y-91464928D01*
X170606216Y-91464922D01*
X170604753Y-91463900D01*
X170603238Y-91462966D01*
X170603226Y-91462958D01*
X170445994Y-91366017D01*
X170383542Y-91327512D01*
X170336055Y-91274736D01*
X170324639Y-91204663D01*
X170340381Y-91157555D01*
X170732842Y-90473533D01*
X172679901Y-90473533D01*
X172697985Y-90599801D01*
X172702974Y-90616864D01*
X172756213Y-90733958D01*
X172764438Y-90747315D01*
X172796505Y-90787199D01*
X172801045Y-90792258D01*
X173350165Y-91341377D01*
X173364103Y-91348988D01*
X173365939Y-91348856D01*
X173372551Y-91344607D01*
X173709374Y-91007783D01*
X173716985Y-90993845D01*
X173716853Y-90992009D01*
X173712604Y-90985397D01*
X172845454Y-90118246D01*
X172831511Y-90110633D01*
X172829677Y-90110764D01*
X172823063Y-90115015D01*
X172801059Y-90137019D01*
X172796497Y-90142103D01*
X172764436Y-90181976D01*
X172756215Y-90195327D01*
X172702975Y-90312426D01*
X172697985Y-90329489D01*
X172679901Y-90455757D01*
X172679901Y-90473533D01*
X170732842Y-90473533D01*
X173494069Y-85660979D01*
X173545319Y-85611847D01*
X173614996Y-85598223D01*
X173668843Y-85616038D01*
X173742715Y-85660979D01*
X174067824Y-85858763D01*
X174072876Y-85862004D01*
X174730950Y-86306622D01*
X174735842Y-86310099D01*
X175372021Y-86785569D01*
X175376741Y-86789275D01*
X175989564Y-87294508D01*
X175994075Y-87298412D01*
X176260567Y-87540331D01*
X176582128Y-87832242D01*
X176586475Y-87836381D01*
X177148431Y-88397603D01*
X177152576Y-88401944D01*
X177687183Y-88989305D01*
X177691116Y-88993839D01*
X178197131Y-89605975D01*
X178200844Y-89610691D01*
X178279179Y-89715218D01*
X178638986Y-90195327D01*
X178677136Y-90246233D01*
X178680613Y-90251110D01*
X179074407Y-90832319D01*
X179126115Y-90908636D01*
X179129356Y-90913675D01*
X179377788Y-91320835D01*
X179543032Y-91591657D01*
X179546035Y-91596854D01*
X179593378Y-91683471D01*
X179899637Y-92243786D01*
X179926938Y-92293735D01*
X179929684Y-92299054D01*
X180260668Y-92979760D01*
X180276998Y-93013345D01*
X180279486Y-93018789D01*
X180417860Y-93341621D01*
X180592372Y-93748767D01*
X180594605Y-93754338D01*
X180872386Y-94498420D01*
X180874350Y-94504092D01*
X181116361Y-95260497D01*
X181118054Y-95266255D01*
X181170813Y-95462983D01*
X181292084Y-95915174D01*
X181323785Y-96033382D01*
X181325200Y-96039211D01*
X181350292Y-96154456D01*
X181494159Y-96815236D01*
X181495296Y-96821129D01*
X181563016Y-97223500D01*
X181623863Y-97585036D01*
X181627113Y-97604349D01*
X181627966Y-97610285D01*
X181638742Y-97700333D01*
X181722331Y-98398858D01*
X181722902Y-98404833D01*
X181779607Y-99197013D01*
X181779893Y-99203008D01*
X181787227Y-99510842D01*
X181796113Y-99883785D01*
X181798810Y-99996999D01*
X181798810Y-100002980D01*
X181789424Y-100396951D01*
X181779893Y-100796992D01*
X181779607Y-100802987D01*
X181722902Y-101595167D01*
X181722331Y-101601142D01*
X181674190Y-102003439D01*
X181636962Y-102314546D01*
X181627967Y-102389710D01*
X181627114Y-102395645D01*
X181605576Y-102523618D01*
X181495296Y-103178871D01*
X181494159Y-103184764D01*
X181409675Y-103572796D01*
X181347094Y-103860233D01*
X181325201Y-103960785D01*
X181323786Y-103966613D01*
X181265265Y-104184826D01*
X181118054Y-104733745D01*
X181116361Y-104739503D01*
X180874350Y-105495908D01*
X180872386Y-105501580D01*
X180594605Y-106245662D01*
X180592372Y-106251233D01*
X180520143Y-106419748D01*
X180281506Y-106976500D01*
X180279493Y-106981196D01*
X180277005Y-106986640D01*
X180006207Y-107543568D01*
X179929691Y-107700932D01*
X179926946Y-107706250D01*
X179613550Y-108279624D01*
X179546035Y-108403146D01*
X179543032Y-108408343D01*
X179177153Y-109007991D01*
X179129362Y-109086316D01*
X179126120Y-109091356D01*
X178828444Y-109530704D01*
X178680620Y-109748880D01*
X178677143Y-109753757D01*
X178578797Y-109884986D01*
X178200844Y-110389309D01*
X178197131Y-110394025D01*
X177691116Y-111006161D01*
X177687183Y-111010695D01*
X177152576Y-111598056D01*
X177148431Y-111602397D01*
X176586475Y-112163619D01*
X176582140Y-112167747D01*
X175994075Y-112701588D01*
X175989564Y-112705492D01*
X175376742Y-113210724D01*
X175372021Y-113214431D01*
X174735842Y-113689901D01*
X174730950Y-113693378D01*
X174072876Y-114137996D01*
X174067824Y-114141237D01*
X173668322Y-114384278D01*
X173599729Y-114402595D01*
X173532122Y-114380919D01*
X173493661Y-114339538D01*
X170730673Y-109544243D01*
X172679901Y-109544243D01*
X172697985Y-109670511D01*
X172702975Y-109687574D01*
X172756214Y-109804671D01*
X172764437Y-109818025D01*
X172796504Y-109857907D01*
X172801046Y-109862969D01*
X172819833Y-109881755D01*
X172833774Y-109889367D01*
X172835609Y-109889236D01*
X172842222Y-109884986D01*
X173709374Y-109017833D01*
X173716985Y-109003895D01*
X173716853Y-109002059D01*
X173712604Y-108995447D01*
X173375784Y-108658626D01*
X173361841Y-108651013D01*
X173360007Y-108651144D01*
X173353393Y-108655395D01*
X172801059Y-109207729D01*
X172796498Y-109212812D01*
X172764437Y-109252686D01*
X172756214Y-109266040D01*
X172702974Y-109383136D01*
X172697985Y-109400199D01*
X172679901Y-109526467D01*
X172679901Y-109544243D01*
X170730673Y-109544243D01*
X170307854Y-108810420D01*
X170291176Y-108741410D01*
X170314455Y-108674338D01*
X170351031Y-108640183D01*
X170570251Y-108505394D01*
X170571723Y-108504369D01*
X170571741Y-108504357D01*
X170773114Y-108364103D01*
X173651012Y-108364103D01*
X173651144Y-108365939D01*
X173655393Y-108372551D01*
X173992217Y-108709374D01*
X174006155Y-108716985D01*
X174007991Y-108716853D01*
X174014603Y-108712604D01*
X174881754Y-107845454D01*
X174889367Y-107831511D01*
X174889236Y-107829677D01*
X174884985Y-107823063D01*
X174862981Y-107801059D01*
X174857897Y-107796497D01*
X174818024Y-107764436D01*
X174804673Y-107756215D01*
X174687574Y-107702975D01*
X174670511Y-107697985D01*
X174544243Y-107679901D01*
X174526467Y-107679901D01*
X174400199Y-107697985D01*
X174383136Y-107702974D01*
X174266042Y-107756213D01*
X174252685Y-107764438D01*
X174212801Y-107796505D01*
X174207742Y-107801045D01*
X173658623Y-108350165D01*
X173651012Y-108364103D01*
X170773114Y-108364103D01*
X170971955Y-108225612D01*
X171046498Y-108173694D01*
X171114038Y-108120683D01*
X171501641Y-107816461D01*
X171501654Y-107816451D01*
X171503043Y-107815360D01*
X171938397Y-107431558D01*
X171939652Y-107430318D01*
X171939661Y-107430309D01*
X172231171Y-107142138D01*
X172351142Y-107023541D01*
X172739932Y-106592637D01*
X173103502Y-106140250D01*
X173322483Y-105833439D01*
X173439601Y-105669346D01*
X173439604Y-105669342D01*
X173440665Y-105667855D01*
X173690535Y-105271769D01*
X173749367Y-105178510D01*
X173749371Y-105178504D01*
X173750325Y-105176991D01*
X173967488Y-104784805D01*
X174030602Y-104670825D01*
X174030605Y-104670818D01*
X174031470Y-104669257D01*
X174122345Y-104480460D01*
X174282407Y-104147927D01*
X174282411Y-104147919D01*
X174283186Y-104146308D01*
X174504652Y-103609848D01*
X174520346Y-103564684D01*
X174664264Y-103150500D01*
X174692315Y-103069773D01*
X174693643Y-103066422D01*
X174695893Y-103062614D01*
X174696110Y-103061929D01*
X174696689Y-103054852D01*
X174696690Y-103054845D01*
X174696794Y-103053575D01*
X174696822Y-103053394D01*
X174700502Y-103045749D01*
X174700503Y-103023448D01*
X174700504Y-103013351D01*
X174700923Y-103003088D01*
X174702411Y-102984899D01*
X174702411Y-102984896D01*
X174703567Y-102970758D01*
X174700507Y-102962796D01*
X174700507Y-102954273D01*
X174686444Y-102925048D01*
X174682385Y-102915649D01*
X174670748Y-102885373D01*
X174664541Y-102879529D01*
X174660843Y-102871844D01*
X174635504Y-102851614D01*
X174627760Y-102844898D01*
X174604148Y-102822666D01*
X174596020Y-102820091D01*
X174589356Y-102814771D01*
X174557761Y-102807533D01*
X174547848Y-102804833D01*
X174530469Y-102799328D01*
X174516942Y-102795043D01*
X174494446Y-102798254D01*
X174476750Y-102799518D01*
X155474308Y-102815100D01*
X155455967Y-102813773D01*
X155448348Y-102812658D01*
X155448343Y-102812658D01*
X155434308Y-102810605D01*
X155420771Y-102814841D01*
X155420767Y-102814841D01*
X155402831Y-102820454D01*
X155393347Y-102823020D01*
X155361198Y-102830381D01*
X155354808Y-102835482D01*
X155347006Y-102837923D01*
X155322911Y-102860452D01*
X155315492Y-102866865D01*
X155289706Y-102887447D01*
X155286160Y-102894814D01*
X155280188Y-102900398D01*
X155275052Y-102913624D01*
X155268251Y-102931135D01*
X155264329Y-102940168D01*
X155250032Y-102969871D01*
X155250032Y-102978047D01*
X155247072Y-102985668D01*
X155248179Y-102999812D01*
X155248179Y-102999813D01*
X155249645Y-103018538D01*
X155250029Y-103028372D01*
X155250027Y-103061347D01*
X155253568Y-103068705D01*
X155253575Y-103068753D01*
X155254210Y-103076864D01*
X155254425Y-103077549D01*
X155256664Y-103081369D01*
X155257790Y-103084221D01*
X155441004Y-103611495D01*
X155446821Y-103628237D01*
X155447497Y-103629875D01*
X155447501Y-103629885D01*
X155523790Y-103814684D01*
X155669400Y-104167402D01*
X155922380Y-104692988D01*
X155923260Y-104694578D01*
X155923264Y-104694585D01*
X156204061Y-105201706D01*
X156204935Y-105203284D01*
X156516146Y-105696627D01*
X156517203Y-105698108D01*
X156832761Y-106140250D01*
X156854999Y-106171409D01*
X156856122Y-106172806D01*
X156856130Y-106172817D01*
X157196243Y-106596037D01*
X157220390Y-106626084D01*
X157221581Y-106627404D01*
X157221592Y-106627417D01*
X157321856Y-106738547D01*
X157611127Y-107059170D01*
X157612402Y-107060430D01*
X157612413Y-107060442D01*
X157831098Y-107276635D01*
X158025939Y-107469257D01*
X158027261Y-107470423D01*
X158027269Y-107470430D01*
X158462133Y-107853826D01*
X158463473Y-107855007D01*
X158464882Y-107856113D01*
X158464888Y-107856118D01*
X158507722Y-107889740D01*
X158922304Y-108215165D01*
X158923777Y-108216191D01*
X158923781Y-108216194D01*
X159399456Y-108547526D01*
X159399470Y-108547535D01*
X159400937Y-108548557D01*
X159402474Y-108549502D01*
X159402486Y-108549510D01*
X159421219Y-108561029D01*
X159607729Y-108675717D01*
X159622630Y-108684880D01*
X159670180Y-108737600D01*
X159681679Y-108807660D01*
X159665800Y-108855124D01*
X157271044Y-113010526D01*
X156505121Y-114339562D01*
X156453777Y-114388596D01*
X156384074Y-114402087D01*
X156330466Y-114384293D01*
X155930939Y-114141236D01*
X155925887Y-114137995D01*
X155267813Y-113693377D01*
X155262921Y-113689900D01*
X154626742Y-113214431D01*
X154622021Y-113210724D01*
X154009212Y-112705503D01*
X154004696Y-112701596D01*
X153416619Y-112167742D01*
X153412278Y-112163608D01*
X153128838Y-111880539D01*
X152850315Y-111602380D01*
X152846202Y-111598073D01*
X152311578Y-111010694D01*
X152307646Y-111006161D01*
X152306013Y-111004185D01*
X151801619Y-110394009D01*
X151797932Y-110389327D01*
X151321620Y-109753757D01*
X151318143Y-109748880D01*
X151276606Y-109687574D01*
X150872642Y-109091356D01*
X150869400Y-109086316D01*
X150821610Y-109007991D01*
X150455730Y-108408343D01*
X150452727Y-108403146D01*
X150385212Y-108279624D01*
X150071816Y-107706250D01*
X150069071Y-107700932D01*
X149992555Y-107543568D01*
X149721757Y-106986640D01*
X149719269Y-106981196D01*
X149717257Y-106976500D01*
X149478619Y-106419748D01*
X149406390Y-106251233D01*
X149404157Y-106245662D01*
X149126376Y-105501580D01*
X149124412Y-105495908D01*
X148882401Y-104739503D01*
X148880708Y-104733745D01*
X148733497Y-104184826D01*
X148674976Y-103966613D01*
X148673561Y-103960785D01*
X148651669Y-103860233D01*
X148589087Y-103572796D01*
X148504603Y-103184764D01*
X148503466Y-103178871D01*
X148472465Y-102994669D01*
X150267001Y-102994669D01*
X150267371Y-103001490D01*
X150272895Y-103052352D01*
X150276521Y-103067604D01*
X150321676Y-103188054D01*
X150330214Y-103203649D01*
X150406715Y-103305724D01*
X150419276Y-103318285D01*
X150521351Y-103394786D01*
X150536946Y-103403324D01*
X150657394Y-103448478D01*
X150672649Y-103452105D01*
X150723514Y-103457631D01*
X150730328Y-103458000D01*
X150756885Y-103458000D01*
X150772124Y-103453525D01*
X150773329Y-103452135D01*
X150775000Y-103444452D01*
X150775000Y-102468115D01*
X150770525Y-102452876D01*
X150769135Y-102451671D01*
X150761452Y-102450000D01*
X150285116Y-102450000D01*
X150269877Y-102454475D01*
X150268672Y-102455865D01*
X150267001Y-102463548D01*
X150267001Y-102994669D01*
X148472465Y-102994669D01*
X148393186Y-102523618D01*
X148371648Y-102395645D01*
X148370795Y-102389710D01*
X148361801Y-102314546D01*
X148324572Y-102003439D01*
X148294244Y-101750000D01*
X150250000Y-101750000D01*
X150255319Y-101750000D01*
X150261896Y-101772399D01*
X150267000Y-101807897D01*
X150267000Y-101931885D01*
X150271475Y-101947124D01*
X150272865Y-101948329D01*
X150280548Y-101950000D01*
X151098500Y-101950000D01*
X151166621Y-101970002D01*
X151213114Y-102023658D01*
X151224500Y-102076000D01*
X151224500Y-102969748D01*
X151236133Y-103028231D01*
X151243028Y-103038550D01*
X151253765Y-103054619D01*
X151275000Y-103124621D01*
X151275000Y-103439884D01*
X151279475Y-103455123D01*
X151305170Y-103477388D01*
X151303845Y-103478917D01*
X151312579Y-103483684D01*
X151346615Y-103545990D01*
X151349500Y-103572796D01*
X151349500Y-103655290D01*
X151349020Y-103666272D01*
X151345736Y-103703807D01*
X151352216Y-103727988D01*
X151355491Y-103740210D01*
X151357870Y-103750942D01*
X151364412Y-103788045D01*
X151369923Y-103797590D01*
X151371115Y-103800866D01*
X151372592Y-103804034D01*
X151375446Y-103814684D01*
X151381770Y-103823715D01*
X151397055Y-103845544D01*
X151402961Y-103854815D01*
X151408659Y-103864684D01*
X151421806Y-103887455D01*
X151450682Y-103911685D01*
X151458785Y-103919111D01*
X151687595Y-104147921D01*
X151721621Y-104210233D01*
X151724500Y-104237016D01*
X151724500Y-104787293D01*
X151704498Y-104855414D01*
X151650842Y-104901907D01*
X151645295Y-104903698D01*
X151645405Y-104903963D01*
X151633939Y-104908712D01*
X151621769Y-104911133D01*
X151555448Y-104955448D01*
X151511133Y-105021769D01*
X151499500Y-105080252D01*
X151499500Y-106419748D01*
X151511133Y-106478231D01*
X151555448Y-106544552D01*
X151621769Y-106588867D01*
X151633939Y-106591288D01*
X151645405Y-106596037D01*
X151643782Y-106599956D01*
X151685993Y-106622037D01*
X151721123Y-106683733D01*
X151724500Y-106712707D01*
X151724500Y-107020240D01*
X151724020Y-107031219D01*
X151720736Y-107068757D01*
X151723590Y-107079406D01*
X151730491Y-107105160D01*
X151732868Y-107115881D01*
X151739412Y-107152995D01*
X151744923Y-107162540D01*
X151746115Y-107165816D01*
X151747592Y-107168984D01*
X151750446Y-107179634D01*
X151756770Y-107188665D01*
X151772055Y-107210494D01*
X151777961Y-107219765D01*
X151777962Y-107219766D01*
X151796806Y-107252405D01*
X151805251Y-107259491D01*
X151825682Y-107276635D01*
X151833785Y-107284061D01*
X153718449Y-109168725D01*
X153752475Y-109231037D01*
X153754547Y-109245453D01*
X153750000Y-109250000D01*
X153966053Y-109466053D01*
X153994723Y-109519690D01*
X153995815Y-109519238D01*
X154000406Y-109530322D01*
X154000537Y-109530566D01*
X154002985Y-109542876D01*
X154036113Y-109592456D01*
X155407544Y-110963887D01*
X155457124Y-110997015D01*
X155469434Y-110999463D01*
X155469678Y-110999594D01*
X155480762Y-111004185D01*
X155480310Y-111005277D01*
X155533947Y-111033947D01*
X155750000Y-111250000D01*
X156689612Y-110310388D01*
X156726557Y-110284782D01*
X156794622Y-110253836D01*
X156807975Y-110245613D01*
X156847857Y-110213546D01*
X156852919Y-110209004D01*
X156871705Y-110190217D01*
X156879317Y-110176276D01*
X156879186Y-110174441D01*
X156874935Y-110167827D01*
X155713262Y-109006155D01*
X156283015Y-109006155D01*
X156283147Y-109007991D01*
X156287396Y-109014603D01*
X157154546Y-109881754D01*
X157168489Y-109889367D01*
X157170323Y-109889236D01*
X157176937Y-109884985D01*
X157198941Y-109862981D01*
X157203503Y-109857897D01*
X157235564Y-109818024D01*
X157243785Y-109804673D01*
X157297025Y-109687574D01*
X157302015Y-109670511D01*
X157320099Y-109544243D01*
X157320099Y-109526467D01*
X157302015Y-109400199D01*
X157297026Y-109383136D01*
X157243787Y-109266042D01*
X157235562Y-109252685D01*
X157203495Y-109212801D01*
X157198955Y-109207742D01*
X156649835Y-108658623D01*
X156635897Y-108651012D01*
X156634061Y-108651144D01*
X156627449Y-108655393D01*
X156290626Y-108992217D01*
X156283015Y-109006155D01*
X155713262Y-109006155D01*
X155712132Y-109005025D01*
X154835405Y-108128297D01*
X154821461Y-108120683D01*
X154819627Y-108120814D01*
X154813015Y-108125063D01*
X154791009Y-108147069D01*
X154786447Y-108152153D01*
X154754386Y-108192026D01*
X154746165Y-108205377D01*
X154715218Y-108273443D01*
X154689612Y-108310388D01*
X154324283Y-108675717D01*
X154261971Y-108709743D01*
X154191156Y-108704678D01*
X154146093Y-108675717D01*
X153786905Y-108316529D01*
X153752879Y-108254217D01*
X153750000Y-108227434D01*
X153750000Y-107833774D01*
X155110633Y-107833774D01*
X155110764Y-107835609D01*
X155115014Y-107842222D01*
X155982167Y-108709374D01*
X155996105Y-108716985D01*
X155997941Y-108716853D01*
X156004553Y-108712604D01*
X156341374Y-108375784D01*
X156348987Y-108361841D01*
X156348856Y-108360007D01*
X156344605Y-108353393D01*
X155792271Y-107801059D01*
X155787188Y-107796498D01*
X155747314Y-107764437D01*
X155733960Y-107756214D01*
X155616864Y-107702974D01*
X155599801Y-107697985D01*
X155473533Y-107679901D01*
X155455757Y-107679901D01*
X155329489Y-107697985D01*
X155312426Y-107702975D01*
X155195329Y-107756214D01*
X155181975Y-107764437D01*
X155142093Y-107796504D01*
X155137031Y-107801046D01*
X155118245Y-107819833D01*
X155110633Y-107833774D01*
X153750000Y-107833774D01*
X153750000Y-106726500D01*
X153770002Y-106658379D01*
X153823658Y-106611886D01*
X153876000Y-106600500D01*
X154319748Y-106600500D01*
X154352587Y-106593968D01*
X154366061Y-106591288D01*
X154366062Y-106591288D01*
X154378231Y-106588867D01*
X154444552Y-106544552D01*
X154488867Y-106478231D01*
X154500500Y-106419748D01*
X154500500Y-105080252D01*
X154488867Y-105021769D01*
X154444552Y-104955448D01*
X154378231Y-104911133D01*
X154366061Y-104908712D01*
X154354595Y-104903963D01*
X154356116Y-104900291D01*
X154313083Y-104877779D01*
X154278869Y-104819723D01*
X154269512Y-104784805D01*
X154267132Y-104774069D01*
X154262502Y-104747812D01*
X154260588Y-104736955D01*
X154255076Y-104727407D01*
X154253883Y-104724130D01*
X154252406Y-104720962D01*
X154249553Y-104710316D01*
X154227942Y-104679452D01*
X154222038Y-104670184D01*
X154208704Y-104647089D01*
X154203194Y-104637545D01*
X154174330Y-104613325D01*
X154166227Y-104605900D01*
X153760028Y-104199702D01*
X152925922Y-103365596D01*
X152891897Y-103303283D01*
X152896961Y-103232468D01*
X152939508Y-103175632D01*
X153006028Y-103150821D01*
X153015017Y-103150500D01*
X153244748Y-103150500D01*
X153250816Y-103149293D01*
X153291061Y-103141288D01*
X153291062Y-103141288D01*
X153303231Y-103138867D01*
X153369552Y-103094552D01*
X153413867Y-103028231D01*
X153416289Y-103016058D01*
X153424293Y-102975816D01*
X153425500Y-102969748D01*
X153425500Y-102776500D01*
X153445502Y-102708379D01*
X153499158Y-102661886D01*
X153551500Y-102650500D01*
X154765780Y-102650500D01*
X154780589Y-102651373D01*
X154814310Y-102655364D01*
X154823574Y-102653672D01*
X154823575Y-102653672D01*
X154872001Y-102644828D01*
X154875904Y-102644178D01*
X154924645Y-102636850D01*
X154924646Y-102636850D01*
X154933962Y-102635449D01*
X154940475Y-102632321D01*
X154947573Y-102631025D01*
X154999647Y-102603975D01*
X155003137Y-102602232D01*
X155056079Y-102576809D01*
X155061365Y-102571923D01*
X155061413Y-102571890D01*
X155067788Y-102568579D01*
X155072828Y-102564275D01*
X155110055Y-102527048D01*
X155113621Y-102523618D01*
X155135582Y-102503318D01*
X155155556Y-102484854D01*
X155159249Y-102478495D01*
X155164766Y-102472337D01*
X155874698Y-101762405D01*
X155937010Y-101728379D01*
X155963793Y-101725500D01*
X161298500Y-101725500D01*
X161366621Y-101745502D01*
X161413114Y-101799158D01*
X161424500Y-101851500D01*
X161424500Y-102144748D01*
X161425707Y-102150816D01*
X161429331Y-102169033D01*
X161436133Y-102203231D01*
X161480448Y-102269552D01*
X161546769Y-102313867D01*
X161558938Y-102316288D01*
X161558939Y-102316288D01*
X161599184Y-102324293D01*
X161605252Y-102325500D01*
X163344748Y-102325500D01*
X163350816Y-102324293D01*
X163391061Y-102316288D01*
X163391062Y-102316288D01*
X163403231Y-102313867D01*
X163469552Y-102269552D01*
X163513867Y-102203231D01*
X163520670Y-102169033D01*
X163524293Y-102150816D01*
X163525500Y-102144748D01*
X163525500Y-100551500D01*
X163545502Y-100483379D01*
X163599158Y-100436886D01*
X163651500Y-100425500D01*
X163652984Y-100425500D01*
X163721105Y-100445502D01*
X163742079Y-100462405D01*
X164013257Y-100733583D01*
X164047283Y-100795895D01*
X164044264Y-100860776D01*
X163982484Y-101055532D01*
X163981798Y-101061649D01*
X163981797Y-101061653D01*
X163970966Y-101158216D01*
X163959520Y-101260262D01*
X163960036Y-101266406D01*
X163973795Y-101430252D01*
X163976759Y-101465553D01*
X163978458Y-101471478D01*
X164026037Y-101637405D01*
X164033544Y-101663586D01*
X164036359Y-101669063D01*
X164036360Y-101669066D01*
X164103218Y-101799158D01*
X164127712Y-101846818D01*
X164255677Y-102008270D01*
X164260370Y-102012264D01*
X164260371Y-102012265D01*
X164335260Y-102076000D01*
X164412564Y-102141791D01*
X164592398Y-102242297D01*
X164676280Y-102269552D01*
X164782471Y-102304056D01*
X164782475Y-102304057D01*
X164788329Y-102305959D01*
X164992894Y-102330351D01*
X164999029Y-102329879D01*
X164999031Y-102329879D01*
X165071625Y-102324293D01*
X165198300Y-102314546D01*
X165204230Y-102312890D01*
X165204232Y-102312890D01*
X165390797Y-102260800D01*
X165390796Y-102260800D01*
X165396725Y-102259145D01*
X165402214Y-102256372D01*
X165402220Y-102256370D01*
X165575116Y-102169033D01*
X165580610Y-102166258D01*
X165742951Y-102039424D01*
X165821582Y-101948329D01*
X165873540Y-101888134D01*
X165873540Y-101888133D01*
X165877564Y-101883472D01*
X165898387Y-101846818D01*
X165961083Y-101736452D01*
X165979323Y-101704344D01*
X166044351Y-101508863D01*
X166070171Y-101304474D01*
X166070583Y-101275000D01*
X166050480Y-101069970D01*
X165990935Y-100872749D01*
X165894218Y-100690849D01*
X165820859Y-100600902D01*
X165767906Y-100535975D01*
X165767903Y-100535972D01*
X165764011Y-100531200D01*
X165759262Y-100527271D01*
X165610025Y-100403811D01*
X165610021Y-100403809D01*
X165605275Y-100399882D01*
X165424055Y-100301897D01*
X165227254Y-100240977D01*
X165221129Y-100240333D01*
X165221128Y-100240333D01*
X165028498Y-100220087D01*
X165028496Y-100220087D01*
X165022369Y-100219443D01*
X164937901Y-100227130D01*
X164823342Y-100237555D01*
X164823339Y-100237556D01*
X164817203Y-100238114D01*
X164619572Y-100296280D01*
X164614108Y-100299137D01*
X164609781Y-100300885D01*
X164539128Y-100307860D01*
X164473482Y-100273156D01*
X164084111Y-99883785D01*
X164076684Y-99875681D01*
X164059541Y-99855251D01*
X164059542Y-99855251D01*
X164052455Y-99846806D01*
X164042906Y-99841293D01*
X164019815Y-99827961D01*
X164010544Y-99822055D01*
X163988715Y-99806770D01*
X163979684Y-99800446D01*
X163969034Y-99797592D01*
X163965866Y-99796115D01*
X163962590Y-99794923D01*
X163953045Y-99789412D01*
X163919301Y-99783462D01*
X163915942Y-99782870D01*
X163905215Y-99780492D01*
X163868807Y-99770736D01*
X163857822Y-99771697D01*
X163857820Y-99771697D01*
X163831272Y-99774020D01*
X163820290Y-99774500D01*
X163216800Y-99774500D01*
X163148679Y-99754498D01*
X163102186Y-99700842D01*
X163092082Y-99630568D01*
X163121576Y-99565988D01*
X163139227Y-99549210D01*
X163183432Y-99514674D01*
X163202951Y-99499424D01*
X163238276Y-99458500D01*
X163333540Y-99348134D01*
X163333540Y-99348133D01*
X163337564Y-99343472D01*
X163358387Y-99306818D01*
X163376056Y-99275714D01*
X163439323Y-99164344D01*
X163504351Y-98968863D01*
X163530171Y-98764474D01*
X163530583Y-98735000D01*
X163510480Y-98529970D01*
X163450935Y-98332749D01*
X163354218Y-98150849D01*
X163255654Y-98029998D01*
X163227906Y-97995975D01*
X163227903Y-97995972D01*
X163224011Y-97991200D01*
X163182383Y-97956762D01*
X163070025Y-97863811D01*
X163070021Y-97863809D01*
X163065275Y-97859882D01*
X162884055Y-97761897D01*
X162687254Y-97700977D01*
X162681129Y-97700333D01*
X162681128Y-97700333D01*
X162488498Y-97680087D01*
X162488496Y-97680087D01*
X162482369Y-97679443D01*
X162395529Y-97687346D01*
X162283342Y-97697555D01*
X162283339Y-97697556D01*
X162277203Y-97698114D01*
X162079572Y-97756280D01*
X161897002Y-97851726D01*
X161892201Y-97855586D01*
X161892198Y-97855588D01*
X161859688Y-97881727D01*
X161736447Y-97980815D01*
X161604024Y-98138630D01*
X161601056Y-98144028D01*
X161601053Y-98144033D01*
X161551976Y-98233305D01*
X161504776Y-98319162D01*
X161502914Y-98325031D01*
X161500485Y-98330699D01*
X161498458Y-98329830D01*
X161464342Y-98380481D01*
X161399140Y-98408575D01*
X161383901Y-98409500D01*
X155922016Y-98409500D01*
X155853895Y-98389498D01*
X155832921Y-98372595D01*
X155044111Y-97583785D01*
X155036684Y-97575681D01*
X155019541Y-97555251D01*
X155019542Y-97555251D01*
X155012455Y-97546806D01*
X154994521Y-97536452D01*
X154979815Y-97527961D01*
X154970544Y-97522055D01*
X154948715Y-97506770D01*
X154939684Y-97500446D01*
X154929034Y-97497592D01*
X154925866Y-97496115D01*
X154922590Y-97494923D01*
X154913045Y-97489412D01*
X154879301Y-97483462D01*
X154875942Y-97482870D01*
X154865215Y-97480492D01*
X154828807Y-97470736D01*
X154817822Y-97471697D01*
X154817820Y-97471697D01*
X154791272Y-97474020D01*
X154780290Y-97474500D01*
X153551500Y-97474500D01*
X153483379Y-97454498D01*
X153436886Y-97400842D01*
X153425500Y-97348500D01*
X153425500Y-97030252D01*
X153422526Y-97015299D01*
X153416288Y-96983939D01*
X153416288Y-96983938D01*
X153413867Y-96971769D01*
X153369552Y-96905448D01*
X153359239Y-96898557D01*
X153350460Y-96889778D01*
X153353481Y-96886757D01*
X153323012Y-96850326D01*
X153314138Y-96779886D01*
X153349428Y-96710898D01*
X153737155Y-96323172D01*
X154166228Y-95894099D01*
X154174332Y-95886673D01*
X154194750Y-95869540D01*
X154203194Y-95862455D01*
X154208704Y-95852912D01*
X154208707Y-95852908D01*
X154222036Y-95829821D01*
X154227941Y-95820551D01*
X154243232Y-95798713D01*
X154249554Y-95789684D01*
X154252407Y-95779036D01*
X154253886Y-95775865D01*
X154255078Y-95772589D01*
X154260588Y-95763045D01*
X154267134Y-95725924D01*
X154269508Y-95715217D01*
X154279263Y-95678807D01*
X154275979Y-95641269D01*
X154275500Y-95630288D01*
X154275500Y-95212707D01*
X154295502Y-95144586D01*
X154349158Y-95098093D01*
X154354705Y-95096302D01*
X154354595Y-95096037D01*
X154366061Y-95091288D01*
X154378231Y-95088867D01*
X154444552Y-95044552D01*
X154488867Y-94978231D01*
X154500500Y-94919748D01*
X154500500Y-93580252D01*
X154488867Y-93521769D01*
X154444552Y-93455448D01*
X154378231Y-93411133D01*
X154366062Y-93408712D01*
X154366061Y-93408712D01*
X154325816Y-93400707D01*
X154319748Y-93399500D01*
X153876000Y-93399500D01*
X153807879Y-93379498D01*
X153761386Y-93325842D01*
X153750000Y-93273500D01*
X153750000Y-92168489D01*
X155110633Y-92168489D01*
X155110764Y-92170323D01*
X155115015Y-92176937D01*
X155137019Y-92198941D01*
X155142103Y-92203503D01*
X155181976Y-92235564D01*
X155195327Y-92243785D01*
X155312426Y-92297025D01*
X155329489Y-92302015D01*
X155455757Y-92320099D01*
X155473533Y-92320099D01*
X155599801Y-92302015D01*
X155616864Y-92297026D01*
X155733958Y-92243787D01*
X155747315Y-92235562D01*
X155787199Y-92203495D01*
X155792258Y-92198955D01*
X156341377Y-91649835D01*
X156348988Y-91635897D01*
X156348856Y-91634061D01*
X156344607Y-91627449D01*
X156007783Y-91290626D01*
X155993845Y-91283015D01*
X155992009Y-91283147D01*
X155985397Y-91287396D01*
X155118246Y-92154546D01*
X155110633Y-92168489D01*
X153750000Y-92168489D01*
X153750000Y-91772566D01*
X153770002Y-91704445D01*
X153786905Y-91683471D01*
X154146093Y-91324283D01*
X154208405Y-91290257D01*
X154279220Y-91295322D01*
X154324283Y-91324283D01*
X154689612Y-91689612D01*
X154715218Y-91726557D01*
X154746164Y-91794622D01*
X154754387Y-91807975D01*
X154786454Y-91847857D01*
X154790996Y-91852919D01*
X154809783Y-91871705D01*
X154823724Y-91879317D01*
X154825559Y-91879186D01*
X154832173Y-91874935D01*
X155711002Y-90996105D01*
X156283015Y-90996105D01*
X156283147Y-90997941D01*
X156287396Y-91004553D01*
X156624216Y-91341374D01*
X156638159Y-91348987D01*
X156639993Y-91348856D01*
X156646607Y-91344605D01*
X157198941Y-90792271D01*
X157203502Y-90787188D01*
X157235563Y-90747314D01*
X157243786Y-90733960D01*
X157297026Y-90616864D01*
X157302015Y-90599801D01*
X157320099Y-90473533D01*
X157320099Y-90455757D01*
X157302015Y-90329489D01*
X157297025Y-90312426D01*
X157243786Y-90195329D01*
X157235563Y-90181975D01*
X157203496Y-90142093D01*
X157198954Y-90137031D01*
X157180167Y-90118245D01*
X157166226Y-90110633D01*
X157164391Y-90110764D01*
X157157778Y-90115014D01*
X156290626Y-90982167D01*
X156283015Y-90996105D01*
X155711002Y-90996105D01*
X155994975Y-90712132D01*
X156871703Y-89835405D01*
X156879317Y-89821461D01*
X156879186Y-89819627D01*
X156874937Y-89813015D01*
X156852931Y-89791009D01*
X156847847Y-89786447D01*
X156807974Y-89754386D01*
X156794623Y-89746165D01*
X156726557Y-89715218D01*
X156689612Y-89689612D01*
X155750000Y-88750000D01*
X155533947Y-88966053D01*
X155480310Y-88994723D01*
X155480762Y-88995815D01*
X155469678Y-89000406D01*
X155469434Y-89000537D01*
X155457124Y-89002985D01*
X155407544Y-89036113D01*
X154036113Y-90407544D01*
X154002985Y-90457124D01*
X154000564Y-90469296D01*
X154000537Y-90469433D01*
X154000406Y-90469678D01*
X153995815Y-90480762D01*
X153994723Y-90480310D01*
X153966053Y-90533947D01*
X153750000Y-90750000D01*
X153753762Y-90753762D01*
X153747079Y-90765999D01*
X153738898Y-90803609D01*
X153717405Y-90832319D01*
X151833785Y-92715939D01*
X151825681Y-92723366D01*
X151796806Y-92747595D01*
X151791294Y-92757143D01*
X151791293Y-92757144D01*
X151777961Y-92780235D01*
X151772057Y-92789503D01*
X151750446Y-92820366D01*
X151747592Y-92831016D01*
X151746115Y-92834184D01*
X151744923Y-92837460D01*
X151739412Y-92847005D01*
X151737498Y-92857862D01*
X151732870Y-92884108D01*
X151730492Y-92894835D01*
X151720736Y-92931243D01*
X151721697Y-92942228D01*
X151721697Y-92942230D01*
X151724020Y-92968778D01*
X151724500Y-92979760D01*
X151724500Y-93287293D01*
X151704498Y-93355414D01*
X151650842Y-93401907D01*
X151645295Y-93403698D01*
X151645405Y-93403963D01*
X151633939Y-93408712D01*
X151621769Y-93411133D01*
X151555448Y-93455448D01*
X151511133Y-93521769D01*
X151499500Y-93580252D01*
X151499500Y-94919748D01*
X151511133Y-94978231D01*
X151555448Y-95044552D01*
X151621769Y-95088867D01*
X151633939Y-95091288D01*
X151645405Y-95096037D01*
X151643782Y-95099956D01*
X151685993Y-95122037D01*
X151721123Y-95183733D01*
X151724500Y-95212707D01*
X151724500Y-96030290D01*
X151724020Y-96041272D01*
X151720736Y-96078807D01*
X151725125Y-96095185D01*
X151730491Y-96115210D01*
X151732870Y-96125942D01*
X151733462Y-96129301D01*
X151739412Y-96163045D01*
X151744923Y-96172590D01*
X151746115Y-96175866D01*
X151747592Y-96179034D01*
X151750446Y-96189684D01*
X151760803Y-96204475D01*
X151772055Y-96220544D01*
X151777961Y-96229815D01*
X151779728Y-96232875D01*
X151796806Y-96262455D01*
X151805251Y-96269541D01*
X151825682Y-96286685D01*
X151833785Y-96294111D01*
X151918401Y-96378727D01*
X151952427Y-96441039D01*
X151947362Y-96511854D01*
X151927062Y-96546070D01*
X151925000Y-96555548D01*
X151925000Y-96875379D01*
X151903765Y-96945381D01*
X151886133Y-96971769D01*
X151874500Y-97030252D01*
X151874500Y-97924000D01*
X151854498Y-97992121D01*
X151800842Y-98038614D01*
X151748500Y-98050000D01*
X150285116Y-98050000D01*
X150269877Y-98054475D01*
X150268672Y-98055865D01*
X150267001Y-98063548D01*
X150267001Y-98191178D01*
X150257311Y-98224181D01*
X150258507Y-98224441D01*
X150252947Y-98250000D01*
X150250000Y-98250000D01*
X150250000Y-101750000D01*
X148294244Y-101750000D01*
X148276431Y-101601142D01*
X148275860Y-101595167D01*
X148219155Y-100802987D01*
X148218869Y-100796992D01*
X148209338Y-100396951D01*
X148199952Y-100002980D01*
X148199952Y-99996999D01*
X148202650Y-99883785D01*
X148211535Y-99510842D01*
X148218869Y-99203008D01*
X148219155Y-99197013D01*
X148275860Y-98404833D01*
X148276431Y-98398858D01*
X148360020Y-97700333D01*
X148370796Y-97610285D01*
X148371649Y-97604349D01*
X148374900Y-97585036D01*
X148383845Y-97531885D01*
X150267000Y-97531885D01*
X150271475Y-97547124D01*
X150272865Y-97548329D01*
X150280548Y-97550000D01*
X150756885Y-97550000D01*
X150772124Y-97545525D01*
X150773329Y-97544135D01*
X150775000Y-97536452D01*
X150775000Y-97531885D01*
X151275000Y-97531885D01*
X151279475Y-97547124D01*
X151280865Y-97548329D01*
X151288548Y-97550000D01*
X151406885Y-97550000D01*
X151422124Y-97545525D01*
X151423329Y-97544135D01*
X151425000Y-97536452D01*
X151425000Y-96560116D01*
X151420525Y-96544877D01*
X151419135Y-96543672D01*
X151411452Y-96542001D01*
X151380330Y-96542001D01*
X151373518Y-96542370D01*
X151363614Y-96543446D01*
X151336393Y-96543446D01*
X151326477Y-96542369D01*
X151319673Y-96542000D01*
X151293115Y-96542000D01*
X151277876Y-96546475D01*
X151276671Y-96547865D01*
X151275000Y-96555548D01*
X151275000Y-97531885D01*
X150775000Y-97531885D01*
X150775000Y-96560116D01*
X150770525Y-96544877D01*
X150769135Y-96543672D01*
X150761452Y-96542001D01*
X150730331Y-96542001D01*
X150723510Y-96542371D01*
X150672648Y-96547895D01*
X150657396Y-96551521D01*
X150536946Y-96596676D01*
X150521351Y-96605214D01*
X150419276Y-96681715D01*
X150406715Y-96694276D01*
X150330214Y-96796351D01*
X150321676Y-96811946D01*
X150276522Y-96932394D01*
X150272895Y-96947649D01*
X150267369Y-96998514D01*
X150267000Y-97005328D01*
X150267000Y-97531885D01*
X148383845Y-97531885D01*
X148435746Y-97223500D01*
X148503466Y-96821129D01*
X148504603Y-96815236D01*
X148648470Y-96154456D01*
X148673562Y-96039211D01*
X148674977Y-96033382D01*
X148706679Y-95915174D01*
X148827949Y-95462983D01*
X148880708Y-95266255D01*
X148882401Y-95260497D01*
X149124412Y-94504092D01*
X149126376Y-94498420D01*
X149404157Y-93754338D01*
X149406390Y-93748767D01*
X149580902Y-93341621D01*
X149719276Y-93018789D01*
X149721764Y-93013345D01*
X149738095Y-92979760D01*
X150069078Y-92299054D01*
X150071824Y-92293735D01*
X150099126Y-92243786D01*
X150405384Y-91683471D01*
X150452727Y-91596854D01*
X150455730Y-91591657D01*
X150620974Y-91320835D01*
X150869406Y-90913675D01*
X150872647Y-90908636D01*
X150924355Y-90832319D01*
X151318150Y-90251111D01*
X151321627Y-90246233D01*
X151359776Y-90195329D01*
X151797932Y-89610673D01*
X151801619Y-89605991D01*
X152307647Y-88993838D01*
X152311579Y-88989305D01*
X152332743Y-88966053D01*
X152846202Y-88401927D01*
X152850315Y-88397620D01*
X153412283Y-87836388D01*
X153416624Y-87832253D01*
X153738197Y-87540331D01*
X154004696Y-87298404D01*
X154009214Y-87294496D01*
X154622022Y-86789275D01*
X154626742Y-86785569D01*
X155262921Y-86310100D01*
X155267813Y-86306623D01*
X155925887Y-85862005D01*
X155930939Y-85858764D01*
X156330459Y-85615711D01*
X156399052Y-85597394D01*
X156466659Y-85619069D01*
G37*
%TD.AperFunction*%
%TD*%
M02*
