%TF.GenerationSoftware,KiCad,Pcbnew,(6.0.7)*%
%TF.CreationDate,2022-10-08T17:42:11+02:00*%
%TF.ProjectId,Helios_PCB_receiver,48656c69-6f73-45f5-9043-425f72656365,rev?*%
%TF.SameCoordinates,Original*%
%TF.FileFunction,Copper,L2,Bot*%
%TF.FilePolarity,Positive*%
%FSLAX46Y46*%
G04 Gerber Fmt 4.6, Leading zero omitted, Abs format (unit mm)*
G04 Created by KiCad (PCBNEW (6.0.7)) date 2022-10-08 17:42:11*
%MOMM*%
%LPD*%
G01*
G04 APERTURE LIST*
%TA.AperFunction,ComponentPad*%
%ADD10R,1.700000X1.700000*%
%TD*%
%TA.AperFunction,ComponentPad*%
%ADD11O,1.700000X1.700000*%
%TD*%
%TA.AperFunction,ViaPad*%
%ADD12C,0.800000*%
%TD*%
%TA.AperFunction,Conductor*%
%ADD13C,0.500000*%
%TD*%
G04 APERTURE END LIST*
D10*
%TO.P,J0,1,Pin_1*%
%TO.N,VCC*%
X162475000Y-101275000D03*
D11*
%TO.P,J0,2,Pin_2*%
%TO.N,O0*%
X162475000Y-98735000D03*
%TO.P,J0,3,Pin_3*%
%TO.N,O1*%
X165015000Y-101275000D03*
%TO.P,J0,4,Pin_4*%
%TO.N,O3*%
X165015000Y-98735000D03*
%TO.P,J0,5,Pin_5*%
%TO.N,O2*%
X167555000Y-101275000D03*
%TO.P,J0,6,Pin_6*%
%TO.N,GND*%
X167555000Y-98735000D03*
%TD*%
D12*
%TO.N,VCC*%
X175750000Y-97800000D03*
%TD*%
D13*
%TO.N,VCC*%
X170800000Y-102750000D02*
X175750000Y-97800000D01*
X163950000Y-102750000D02*
X170800000Y-102750000D01*
X162475000Y-101275000D02*
X163950000Y-102750000D01*
%TD*%
%TA.AperFunction,NonConductor*%
G36*
X156537535Y-85342499D02*
G01*
X156575992Y-85383874D01*
X158142549Y-88102310D01*
X159583878Y-90603439D01*
X159961250Y-91258291D01*
X159977932Y-91327300D01*
X159954657Y-91394373D01*
X159918083Y-91428532D01*
X159538609Y-91661886D01*
X159537147Y-91662904D01*
X159537143Y-91662907D01*
X159073249Y-91986041D01*
X159073240Y-91986047D01*
X159071768Y-91987073D01*
X158624241Y-92338366D01*
X158622917Y-92339534D01*
X158622909Y-92339540D01*
X158198819Y-92713446D01*
X158198807Y-92713457D01*
X158197487Y-92714621D01*
X158196231Y-92715863D01*
X158196220Y-92715873D01*
X157976497Y-92933098D01*
X157792895Y-93114612D01*
X157411784Y-93537035D01*
X157055396Y-93980515D01*
X156724891Y-94443606D01*
X156723923Y-94445141D01*
X156723918Y-94445148D01*
X156434597Y-94903797D01*
X156421347Y-94924801D01*
X156420477Y-94926372D01*
X156420473Y-94926379D01*
X156154167Y-95407333D01*
X156145752Y-95422530D01*
X155899005Y-95935173D01*
X155778512Y-96227049D01*
X155687193Y-96448258D01*
X155681908Y-96461059D01*
X155681327Y-96462731D01*
X155681324Y-96462739D01*
X155504582Y-96971392D01*
X155495171Y-96998475D01*
X155498968Y-96999674D01*
X155498983Y-96999844D01*
X155498918Y-97000001D01*
X155499017Y-97000240D01*
X155499040Y-97000499D01*
X155499171Y-97000609D01*
X155499236Y-97000766D01*
X155499475Y-97000865D01*
X155499674Y-97001032D01*
X155500043Y-97001000D01*
X155511757Y-97000992D01*
X155511759Y-97000992D01*
X174517277Y-96987594D01*
X174517278Y-96987594D01*
X174542471Y-96987576D01*
X174542836Y-96987608D01*
X174543036Y-96987440D01*
X174543276Y-96987340D01*
X174543340Y-96987184D01*
X174543470Y-96987075D01*
X174543493Y-96986816D01*
X174543592Y-96986575D01*
X174543527Y-96986419D01*
X174543542Y-96986250D01*
X174547357Y-96985045D01*
X174360116Y-96446099D01*
X174142479Y-95918693D01*
X173895153Y-95404541D01*
X173673760Y-95004392D01*
X173619813Y-94906887D01*
X173619804Y-94906872D01*
X173618941Y-94905312D01*
X173314740Y-94422628D01*
X172983538Y-93958055D01*
X172626411Y-93513102D01*
X172587950Y-93470411D01*
X172245719Y-93090548D01*
X172245718Y-93090547D01*
X172244518Y-93089215D01*
X171839099Y-92687770D01*
X171411472Y-92310070D01*
X170963024Y-91957343D01*
X170961546Y-91956311D01*
X170496684Y-91631760D01*
X170496674Y-91631754D01*
X170495211Y-91630732D01*
X170421898Y-91585531D01*
X170114308Y-91395886D01*
X170066820Y-91343109D01*
X170055404Y-91273036D01*
X170071146Y-91225928D01*
X170428303Y-90603439D01*
X172089108Y-87708815D01*
X173422863Y-85384208D01*
X173474113Y-85335076D01*
X173543790Y-85321452D01*
X173597639Y-85339268D01*
X174175542Y-85690844D01*
X174180594Y-85694085D01*
X174846542Y-86144023D01*
X174851434Y-86147500D01*
X175415540Y-86569103D01*
X175415818Y-86569312D01*
X175500246Y-86632776D01*
X175504675Y-86636263D01*
X175737958Y-86828590D01*
X175989069Y-87035616D01*
X175989445Y-87035927D01*
X176131592Y-87154046D01*
X176135755Y-87157662D01*
X176568244Y-87550273D01*
X176568572Y-87550573D01*
X176568634Y-87550629D01*
X176568708Y-87550697D01*
X176737100Y-87705101D01*
X176740982Y-87708816D01*
X177134455Y-88101774D01*
X177134997Y-88102318D01*
X177315375Y-88284668D01*
X177318978Y-88288466D01*
X177680517Y-88685682D01*
X177681125Y-88686355D01*
X177865007Y-88891328D01*
X177868332Y-88895188D01*
X178201750Y-89298530D01*
X178202414Y-89299340D01*
X178384803Y-89523752D01*
X178387852Y-89527658D01*
X178695473Y-89938134D01*
X178696180Y-89939087D01*
X178873505Y-90180403D01*
X178876282Y-90184337D01*
X179159582Y-90602465D01*
X179160145Y-90603306D01*
X179330031Y-90859817D01*
X179332540Y-90863763D01*
X179592175Y-91289284D01*
X179592912Y-91290508D01*
X179674941Y-91428533D01*
X179753293Y-91560371D01*
X179755540Y-91564312D01*
X179992114Y-91997137D01*
X179992875Y-91998550D01*
X180142307Y-92280418D01*
X180144299Y-92284338D01*
X180358214Y-92724279D01*
X180358966Y-92725854D01*
X180496204Y-93018332D01*
X180497942Y-93022204D01*
X180689346Y-93468758D01*
X180690012Y-93470345D01*
X180814162Y-93772390D01*
X180815636Y-93776148D01*
X180893298Y-93984178D01*
X180984578Y-94228688D01*
X180985270Y-94230589D01*
X181095424Y-94540773D01*
X181096687Y-94544516D01*
X181212627Y-94906887D01*
X181243163Y-95002326D01*
X181243805Y-95004392D01*
X181339366Y-95321742D01*
X181340408Y-95325402D01*
X181366035Y-95420960D01*
X181464457Y-95787960D01*
X181465033Y-95790189D01*
X181545431Y-96113482D01*
X181546271Y-96117085D01*
X181647841Y-96583596D01*
X181648337Y-96585988D01*
X181713152Y-96914167D01*
X181713777Y-96917583D01*
X181792842Y-97387364D01*
X181793229Y-97389816D01*
X181817472Y-97554409D01*
X181842143Y-97721907D01*
X181842595Y-97725296D01*
X181857383Y-97848869D01*
X181893520Y-98150849D01*
X181899074Y-98197264D01*
X181899366Y-98199943D01*
X181911060Y-98319509D01*
X181932118Y-98534814D01*
X181932394Y-98538083D01*
X181966294Y-99011676D01*
X181966466Y-99014532D01*
X181982878Y-99350940D01*
X181982992Y-99354079D01*
X181994296Y-99828532D01*
X181994332Y-99831533D01*
X181994332Y-100168467D01*
X181994296Y-100171468D01*
X181982992Y-100645921D01*
X181982878Y-100649060D01*
X181966466Y-100985468D01*
X181966294Y-100988324D01*
X181932394Y-101461917D01*
X181932118Y-101465186D01*
X181906678Y-101725302D01*
X181899369Y-101800030D01*
X181899079Y-101802690D01*
X181875056Y-102003439D01*
X181842595Y-102274704D01*
X181842143Y-102278093D01*
X181829725Y-102362405D01*
X181793229Y-102610184D01*
X181792845Y-102612618D01*
X181713780Y-103082401D01*
X181713152Y-103085833D01*
X181648340Y-103413998D01*
X181648337Y-103414012D01*
X181647844Y-103416390D01*
X181620794Y-103540633D01*
X181546271Y-103882915D01*
X181545431Y-103886518D01*
X181465033Y-104209811D01*
X181464457Y-104212040D01*
X181386675Y-104502077D01*
X181340408Y-104674597D01*
X181339379Y-104678212D01*
X181325145Y-104725484D01*
X181243805Y-104995608D01*
X181243167Y-104997660D01*
X181209893Y-105101661D01*
X181096696Y-105455457D01*
X181095428Y-105459215D01*
X181060317Y-105558085D01*
X180985270Y-105769411D01*
X180984597Y-105771261D01*
X180815636Y-106223852D01*
X180814162Y-106227610D01*
X180690012Y-106529655D01*
X180689346Y-106531242D01*
X180539226Y-106881478D01*
X180497947Y-106977784D01*
X180496204Y-106981668D01*
X180358966Y-107274146D01*
X180358214Y-107275721D01*
X180144299Y-107715662D01*
X180142307Y-107719582D01*
X179992875Y-108001450D01*
X179992114Y-108002863D01*
X179755540Y-108435688D01*
X179753298Y-108439620D01*
X179592951Y-108709427D01*
X179592931Y-108709460D01*
X179592175Y-108710716D01*
X179332540Y-109136237D01*
X179330039Y-109140170D01*
X179160145Y-109396694D01*
X179159582Y-109397535D01*
X178915200Y-109758223D01*
X178876282Y-109815663D01*
X178873505Y-109819597D01*
X178696180Y-110060913D01*
X178695473Y-110061866D01*
X178387852Y-110472342D01*
X178384803Y-110476248D01*
X178202414Y-110700660D01*
X178201750Y-110701470D01*
X177868332Y-111104812D01*
X177865007Y-111108672D01*
X177681125Y-111313645D01*
X177680517Y-111314318D01*
X177318978Y-111711534D01*
X177315375Y-111715332D01*
X177134997Y-111897682D01*
X177134455Y-111898226D01*
X176740982Y-112291184D01*
X176737100Y-112294899D01*
X176568572Y-112449427D01*
X176568244Y-112449727D01*
X176135755Y-112842338D01*
X176131592Y-112845954D01*
X175989449Y-112964070D01*
X175989073Y-112964381D01*
X175504675Y-113363737D01*
X175500246Y-113367224D01*
X175415818Y-113430688D01*
X175415540Y-113430897D01*
X174851434Y-113852500D01*
X174846542Y-113855977D01*
X174180594Y-114305915D01*
X174175542Y-114309156D01*
X173597435Y-114660856D01*
X173528842Y-114679173D01*
X173461235Y-114657498D01*
X173422774Y-114616116D01*
X170038199Y-108742026D01*
X170021521Y-108673016D01*
X170044800Y-108605944D01*
X170081377Y-108571788D01*
X170460906Y-108338432D01*
X170462378Y-108337407D01*
X170462396Y-108337395D01*
X170869867Y-108053596D01*
X170927805Y-108013243D01*
X171205733Y-107795102D01*
X171373986Y-107663044D01*
X171373999Y-107663034D01*
X171375388Y-107661943D01*
X171802195Y-107285676D01*
X171803450Y-107284436D01*
X171803459Y-107284427D01*
X172109713Y-106981680D01*
X172206838Y-106885668D01*
X172587997Y-106463222D01*
X172944429Y-106019716D01*
X173253379Y-105586850D01*
X173273910Y-105558085D01*
X173273913Y-105558081D01*
X173274974Y-105556594D01*
X173459232Y-105264514D01*
X173577597Y-105076885D01*
X173577601Y-105076879D01*
X173578555Y-105075366D01*
X173840155Y-104602929D01*
X173853313Y-104579167D01*
X173853316Y-104579160D01*
X173854181Y-104577599D01*
X174031212Y-104209811D01*
X174100177Y-104066534D01*
X174100181Y-104066526D01*
X174100956Y-104064915D01*
X174318075Y-103538986D01*
X174452168Y-103153080D01*
X174498883Y-103018637D01*
X174504829Y-103001525D01*
X174501032Y-103000326D01*
X174501017Y-103000156D01*
X174501082Y-102999999D01*
X174500983Y-102999760D01*
X174500960Y-102999501D01*
X174500829Y-102999391D01*
X174500764Y-102999234D01*
X174500525Y-102999135D01*
X174500326Y-102998968D01*
X174499957Y-102999000D01*
X172698217Y-103000477D01*
X171489928Y-103001468D01*
X171421791Y-102981522D01*
X171375254Y-102927904D01*
X171365093Y-102857639D01*
X171394533Y-102793034D01*
X171400730Y-102786373D01*
X175755941Y-98431162D01*
X175818253Y-98397136D01*
X175828585Y-98395336D01*
X175906762Y-98385044D01*
X176052841Y-98324536D01*
X176178282Y-98228282D01*
X176274536Y-98102841D01*
X176335044Y-97956762D01*
X176355682Y-97800000D01*
X176335044Y-97643238D01*
X176274536Y-97497159D01*
X176206059Y-97407918D01*
X176183305Y-97378264D01*
X176178282Y-97371718D01*
X176052841Y-97275464D01*
X175906762Y-97214956D01*
X175750000Y-97194318D01*
X175593238Y-97214956D01*
X175447159Y-97275464D01*
X175321718Y-97371718D01*
X175316695Y-97378264D01*
X175293941Y-97407918D01*
X175225464Y-97497159D01*
X175164956Y-97643238D01*
X175157440Y-97700333D01*
X175154665Y-97721409D01*
X175125943Y-97786337D01*
X175118838Y-97794059D01*
X170650302Y-102262595D01*
X170587990Y-102296621D01*
X170561207Y-102299500D01*
X168316000Y-102299500D01*
X168247879Y-102279498D01*
X168201386Y-102225842D01*
X168191282Y-102155568D01*
X168220776Y-102090988D01*
X168238427Y-102074211D01*
X168278095Y-102043219D01*
X168278101Y-102043213D01*
X168282951Y-102039424D01*
X168417564Y-101883472D01*
X168438387Y-101846818D01*
X168516276Y-101709707D01*
X168519323Y-101704344D01*
X168584351Y-101508863D01*
X168610171Y-101304474D01*
X168610583Y-101275000D01*
X168590480Y-101069970D01*
X168530935Y-100872749D01*
X168434218Y-100690849D01*
X168360859Y-100600902D01*
X168307906Y-100535975D01*
X168307903Y-100535972D01*
X168304011Y-100531200D01*
X168286786Y-100516950D01*
X168150025Y-100403811D01*
X168150021Y-100403809D01*
X168145275Y-100399882D01*
X167964055Y-100301897D01*
X167767254Y-100240977D01*
X167761129Y-100240333D01*
X167761128Y-100240333D01*
X167568498Y-100220087D01*
X167568496Y-100220087D01*
X167562369Y-100219443D01*
X167475529Y-100227346D01*
X167363342Y-100237555D01*
X167363339Y-100237556D01*
X167357203Y-100238114D01*
X167159572Y-100296280D01*
X166977002Y-100391726D01*
X166972201Y-100395586D01*
X166972198Y-100395588D01*
X166821254Y-100516950D01*
X166816447Y-100520815D01*
X166684024Y-100678630D01*
X166681056Y-100684028D01*
X166681053Y-100684033D01*
X166674315Y-100696290D01*
X166584776Y-100859162D01*
X166522484Y-101055532D01*
X166521798Y-101061649D01*
X166521797Y-101061653D01*
X166500207Y-101254137D01*
X166499520Y-101260262D01*
X166516759Y-101465553D01*
X166573544Y-101663586D01*
X166576359Y-101669063D01*
X166576360Y-101669066D01*
X166643666Y-101800030D01*
X166667712Y-101846818D01*
X166795677Y-102008270D01*
X166800370Y-102012264D01*
X166800371Y-102012265D01*
X166877076Y-102077546D01*
X166915989Y-102136929D01*
X166916620Y-102207923D01*
X166878768Y-102267988D01*
X166814452Y-102298053D01*
X166795413Y-102299500D01*
X165776000Y-102299500D01*
X165707879Y-102279498D01*
X165661386Y-102225842D01*
X165651282Y-102155568D01*
X165680776Y-102090988D01*
X165698427Y-102074211D01*
X165738095Y-102043219D01*
X165738101Y-102043213D01*
X165742951Y-102039424D01*
X165877564Y-101883472D01*
X165898387Y-101846818D01*
X165976276Y-101709707D01*
X165979323Y-101704344D01*
X166044351Y-101508863D01*
X166070171Y-101304474D01*
X166070583Y-101275000D01*
X166050480Y-101069970D01*
X165990935Y-100872749D01*
X165894218Y-100690849D01*
X165820859Y-100600902D01*
X165767906Y-100535975D01*
X165767903Y-100535972D01*
X165764011Y-100531200D01*
X165746786Y-100516950D01*
X165610025Y-100403811D01*
X165610021Y-100403809D01*
X165605275Y-100399882D01*
X165424055Y-100301897D01*
X165227254Y-100240977D01*
X165221129Y-100240333D01*
X165221128Y-100240333D01*
X165028498Y-100220087D01*
X165028496Y-100220087D01*
X165022369Y-100219443D01*
X164935529Y-100227346D01*
X164823342Y-100237555D01*
X164823339Y-100237556D01*
X164817203Y-100238114D01*
X164619572Y-100296280D01*
X164437002Y-100391726D01*
X164432201Y-100395586D01*
X164432198Y-100395588D01*
X164281254Y-100516950D01*
X164276447Y-100520815D01*
X164144024Y-100678630D01*
X164141056Y-100684028D01*
X164141053Y-100684033D01*
X164134315Y-100696290D01*
X164044776Y-100859162D01*
X163982484Y-101055532D01*
X163981798Y-101061649D01*
X163981797Y-101061653D01*
X163960207Y-101254137D01*
X163959520Y-101260262D01*
X163976759Y-101465553D01*
X164033544Y-101663586D01*
X164036359Y-101669063D01*
X164036360Y-101669066D01*
X164103666Y-101800030D01*
X164127712Y-101846818D01*
X164255677Y-102008270D01*
X164260370Y-102012264D01*
X164260371Y-102012265D01*
X164337076Y-102077546D01*
X164375989Y-102136929D01*
X164376620Y-102207923D01*
X164338768Y-102267988D01*
X164274452Y-102298053D01*
X164255413Y-102299500D01*
X164188793Y-102299500D01*
X164120672Y-102279498D01*
X164099698Y-102262595D01*
X163562405Y-101725302D01*
X163528379Y-101662990D01*
X163525500Y-101636207D01*
X163525500Y-100405252D01*
X163513867Y-100346769D01*
X163469552Y-100280448D01*
X163403231Y-100236133D01*
X163391062Y-100233712D01*
X163391061Y-100233712D01*
X163350816Y-100225707D01*
X163344748Y-100224500D01*
X161605252Y-100224500D01*
X161599184Y-100225707D01*
X161558939Y-100233712D01*
X161558938Y-100233712D01*
X161546769Y-100236133D01*
X161480448Y-100280448D01*
X161436133Y-100346769D01*
X161424500Y-100405252D01*
X161424500Y-102144748D01*
X161436133Y-102203231D01*
X161480448Y-102269552D01*
X161546769Y-102313867D01*
X161558938Y-102316288D01*
X161558939Y-102316288D01*
X161599184Y-102324293D01*
X161605252Y-102325500D01*
X162836207Y-102325500D01*
X162904328Y-102345502D01*
X162925302Y-102362405D01*
X163356013Y-102793116D01*
X163390039Y-102855428D01*
X163384974Y-102926243D01*
X163342427Y-102983079D01*
X163275907Y-103007890D01*
X163267021Y-103008211D01*
X155475779Y-103014599D01*
X155475778Y-103014599D01*
X155450573Y-103014620D01*
X155450209Y-103014588D01*
X155450009Y-103014756D01*
X155449769Y-103014856D01*
X155449705Y-103015012D01*
X155449575Y-103015121D01*
X155449552Y-103015380D01*
X155449453Y-103015621D01*
X155449518Y-103015777D01*
X155449503Y-103015946D01*
X155445685Y-103017152D01*
X155633399Y-103557376D01*
X155851631Y-104086010D01*
X156099670Y-104601332D01*
X156100550Y-104602922D01*
X156100554Y-104602929D01*
X156375833Y-105100083D01*
X156376707Y-105101661D01*
X156681840Y-105585369D01*
X156682897Y-105586850D01*
X156990778Y-106018236D01*
X157014075Y-106050879D01*
X157015198Y-106052276D01*
X157015206Y-106052287D01*
X157369158Y-106492728D01*
X157372329Y-106496674D01*
X157373520Y-106497994D01*
X157373531Y-106498007D01*
X157560704Y-106705466D01*
X157755435Y-106921302D01*
X157756710Y-106922562D01*
X157756721Y-106922574D01*
X157905579Y-107069736D01*
X158162145Y-107323379D01*
X158163467Y-107324545D01*
X158163475Y-107324552D01*
X158585828Y-107696918D01*
X158591134Y-107701596D01*
X158592543Y-107702702D01*
X158592549Y-107702707D01*
X159039573Y-108053596D01*
X159041004Y-108054719D01*
X159042485Y-108055750D01*
X159042495Y-108055758D01*
X159230260Y-108186545D01*
X159510289Y-108381600D01*
X159892296Y-108616503D01*
X159939845Y-108669222D01*
X159951344Y-108739282D01*
X159935465Y-108786745D01*
X158142633Y-111897682D01*
X156575993Y-114616130D01*
X156524649Y-114665164D01*
X156454946Y-114678655D01*
X156401339Y-114660862D01*
X155823222Y-114309156D01*
X155818169Y-114305915D01*
X155152221Y-113855977D01*
X155147329Y-113852500D01*
X154582713Y-113430516D01*
X154582434Y-113430306D01*
X154498553Y-113367252D01*
X154494111Y-113363755D01*
X154009534Y-112964252D01*
X154009158Y-112963941D01*
X153867169Y-112845953D01*
X153863007Y-112842337D01*
X153430497Y-112449707D01*
X153430129Y-112449371D01*
X153261663Y-112294900D01*
X153257805Y-112291209D01*
X152864040Y-111897959D01*
X152863764Y-111897682D01*
X152683422Y-111715367D01*
X152679819Y-111711571D01*
X152520303Y-111536314D01*
X152318066Y-111314121D01*
X152317508Y-111313502D01*
X152133768Y-111108686D01*
X152130443Y-111104826D01*
X151796960Y-110701405D01*
X151796296Y-110700595D01*
X151613970Y-110476262D01*
X151610921Y-110472356D01*
X151303226Y-110061782D01*
X151302519Y-110060829D01*
X151125275Y-109819622D01*
X151122498Y-109815688D01*
X150839259Y-109397651D01*
X150838521Y-109396549D01*
X150668731Y-109140183D01*
X150668711Y-109140153D01*
X150666232Y-109136254D01*
X150406520Y-108710606D01*
X150405831Y-108709460D01*
X150245489Y-108439662D01*
X150243242Y-108435722D01*
X150012322Y-108013243D01*
X150006585Y-108002747D01*
X150005829Y-108001342D01*
X149856471Y-107719612D01*
X149854479Y-107715692D01*
X149640527Y-107275676D01*
X149639775Y-107274101D01*
X149502563Y-106981680D01*
X149500820Y-106977796D01*
X149309452Y-106531326D01*
X149308723Y-106529589D01*
X149184619Y-106227657D01*
X149183115Y-106223822D01*
X149014166Y-105771261D01*
X149013474Y-105769360D01*
X148903348Y-105459254D01*
X148902076Y-105455484D01*
X148755595Y-104997660D01*
X148754953Y-104995594D01*
X148673617Y-104725484D01*
X148659388Y-104678229D01*
X148658345Y-104674566D01*
X148639134Y-104602929D01*
X148534304Y-104212040D01*
X148533731Y-104209821D01*
X148453330Y-103886512D01*
X148452490Y-103882909D01*
X148350918Y-103416390D01*
X148350422Y-103413998D01*
X148285623Y-103085902D01*
X148284982Y-103082401D01*
X148274476Y-103019977D01*
X148205908Y-102612564D01*
X148205529Y-102610160D01*
X148156623Y-102278130D01*
X148156171Y-102274740D01*
X148099683Y-101802690D01*
X148099388Y-101799984D01*
X148066648Y-101465231D01*
X148066372Y-101461962D01*
X148032463Y-100988246D01*
X148032291Y-100985390D01*
X148015886Y-100649132D01*
X148015772Y-100645993D01*
X148004465Y-100171417D01*
X148004429Y-100168416D01*
X148004429Y-99831584D01*
X148004465Y-99828583D01*
X148015772Y-99354007D01*
X148015886Y-99350868D01*
X148032291Y-99014610D01*
X148032463Y-99011754D01*
X148053328Y-98720262D01*
X161419520Y-98720262D01*
X161436759Y-98925553D01*
X161493544Y-99123586D01*
X161496359Y-99129063D01*
X161496360Y-99129066D01*
X161584897Y-99301341D01*
X161587712Y-99306818D01*
X161715677Y-99468270D01*
X161872564Y-99601791D01*
X162052398Y-99702297D01*
X162147238Y-99733113D01*
X162242471Y-99764056D01*
X162242475Y-99764057D01*
X162248329Y-99765959D01*
X162452894Y-99790351D01*
X162459029Y-99789879D01*
X162459031Y-99789879D01*
X162515039Y-99785569D01*
X162658300Y-99774546D01*
X162664230Y-99772890D01*
X162664232Y-99772890D01*
X162850797Y-99720800D01*
X162850796Y-99720800D01*
X162856725Y-99719145D01*
X162862214Y-99716372D01*
X162862220Y-99716370D01*
X163035116Y-99629033D01*
X163040610Y-99626258D01*
X163202951Y-99499424D01*
X163337564Y-99343472D01*
X163358387Y-99306818D01*
X163424458Y-99190511D01*
X163439323Y-99164344D01*
X163504351Y-98968863D01*
X163530171Y-98764474D01*
X163530583Y-98735000D01*
X163529138Y-98720262D01*
X163959520Y-98720262D01*
X163976759Y-98925553D01*
X164033544Y-99123586D01*
X164036359Y-99129063D01*
X164036360Y-99129066D01*
X164124897Y-99301341D01*
X164127712Y-99306818D01*
X164255677Y-99468270D01*
X164412564Y-99601791D01*
X164592398Y-99702297D01*
X164687238Y-99733113D01*
X164782471Y-99764056D01*
X164782475Y-99764057D01*
X164788329Y-99765959D01*
X164992894Y-99790351D01*
X164999029Y-99789879D01*
X164999031Y-99789879D01*
X165055039Y-99785569D01*
X165198300Y-99774546D01*
X165204230Y-99772890D01*
X165204232Y-99772890D01*
X165390797Y-99720800D01*
X165390796Y-99720800D01*
X165396725Y-99719145D01*
X165402214Y-99716372D01*
X165402220Y-99716370D01*
X165575116Y-99629033D01*
X165580610Y-99626258D01*
X165742951Y-99499424D01*
X165877564Y-99343472D01*
X165898387Y-99306818D01*
X165964458Y-99190511D01*
X165979323Y-99164344D01*
X166044351Y-98968863D01*
X166070171Y-98764474D01*
X166070583Y-98735000D01*
X166069138Y-98720262D01*
X166499520Y-98720262D01*
X166516759Y-98925553D01*
X166573544Y-99123586D01*
X166576359Y-99129063D01*
X166576360Y-99129066D01*
X166664897Y-99301341D01*
X166667712Y-99306818D01*
X166795677Y-99468270D01*
X166952564Y-99601791D01*
X167132398Y-99702297D01*
X167227238Y-99733113D01*
X167322471Y-99764056D01*
X167322475Y-99764057D01*
X167328329Y-99765959D01*
X167532894Y-99790351D01*
X167539029Y-99789879D01*
X167539031Y-99789879D01*
X167595039Y-99785569D01*
X167738300Y-99774546D01*
X167744230Y-99772890D01*
X167744232Y-99772890D01*
X167930797Y-99720800D01*
X167930796Y-99720800D01*
X167936725Y-99719145D01*
X167942214Y-99716372D01*
X167942220Y-99716370D01*
X168115116Y-99629033D01*
X168120610Y-99626258D01*
X168282951Y-99499424D01*
X168417564Y-99343472D01*
X168438387Y-99306818D01*
X168504458Y-99190511D01*
X168519323Y-99164344D01*
X168584351Y-98968863D01*
X168610171Y-98764474D01*
X168610583Y-98735000D01*
X168590480Y-98529970D01*
X168530935Y-98332749D01*
X168434218Y-98150849D01*
X168360859Y-98060902D01*
X168307906Y-97995975D01*
X168307903Y-97995972D01*
X168304011Y-97991200D01*
X168262383Y-97956762D01*
X168150025Y-97863811D01*
X168150021Y-97863809D01*
X168145275Y-97859882D01*
X167964055Y-97761897D01*
X167767254Y-97700977D01*
X167761129Y-97700333D01*
X167761128Y-97700333D01*
X167568498Y-97680087D01*
X167568496Y-97680087D01*
X167562369Y-97679443D01*
X167475529Y-97687346D01*
X167363342Y-97697555D01*
X167363339Y-97697556D01*
X167357203Y-97698114D01*
X167159572Y-97756280D01*
X166977002Y-97851726D01*
X166972201Y-97855586D01*
X166972198Y-97855588D01*
X166961971Y-97863811D01*
X166816447Y-97980815D01*
X166684024Y-98138630D01*
X166681056Y-98144028D01*
X166681053Y-98144033D01*
X166631976Y-98233305D01*
X166584776Y-98319162D01*
X166522484Y-98515532D01*
X166521798Y-98521649D01*
X166521797Y-98521653D01*
X166500207Y-98714137D01*
X166499520Y-98720262D01*
X166069138Y-98720262D01*
X166050480Y-98529970D01*
X165990935Y-98332749D01*
X165894218Y-98150849D01*
X165820859Y-98060902D01*
X165767906Y-97995975D01*
X165767903Y-97995972D01*
X165764011Y-97991200D01*
X165722383Y-97956762D01*
X165610025Y-97863811D01*
X165610021Y-97863809D01*
X165605275Y-97859882D01*
X165424055Y-97761897D01*
X165227254Y-97700977D01*
X165221129Y-97700333D01*
X165221128Y-97700333D01*
X165028498Y-97680087D01*
X165028496Y-97680087D01*
X165022369Y-97679443D01*
X164935529Y-97687346D01*
X164823342Y-97697555D01*
X164823339Y-97697556D01*
X164817203Y-97698114D01*
X164619572Y-97756280D01*
X164437002Y-97851726D01*
X164432201Y-97855586D01*
X164432198Y-97855588D01*
X164421971Y-97863811D01*
X164276447Y-97980815D01*
X164144024Y-98138630D01*
X164141056Y-98144028D01*
X164141053Y-98144033D01*
X164091976Y-98233305D01*
X164044776Y-98319162D01*
X163982484Y-98515532D01*
X163981798Y-98521649D01*
X163981797Y-98521653D01*
X163960207Y-98714137D01*
X163959520Y-98720262D01*
X163529138Y-98720262D01*
X163510480Y-98529970D01*
X163450935Y-98332749D01*
X163354218Y-98150849D01*
X163280859Y-98060902D01*
X163227906Y-97995975D01*
X163227903Y-97995972D01*
X163224011Y-97991200D01*
X163182383Y-97956762D01*
X163070025Y-97863811D01*
X163070021Y-97863809D01*
X163065275Y-97859882D01*
X162884055Y-97761897D01*
X162687254Y-97700977D01*
X162681129Y-97700333D01*
X162681128Y-97700333D01*
X162488498Y-97680087D01*
X162488496Y-97680087D01*
X162482369Y-97679443D01*
X162395529Y-97687346D01*
X162283342Y-97697555D01*
X162283339Y-97697556D01*
X162277203Y-97698114D01*
X162079572Y-97756280D01*
X161897002Y-97851726D01*
X161892201Y-97855586D01*
X161892198Y-97855588D01*
X161881971Y-97863811D01*
X161736447Y-97980815D01*
X161604024Y-98138630D01*
X161601056Y-98144028D01*
X161601053Y-98144033D01*
X161551976Y-98233305D01*
X161504776Y-98319162D01*
X161442484Y-98515532D01*
X161441798Y-98521649D01*
X161441797Y-98521653D01*
X161420207Y-98714137D01*
X161419520Y-98720262D01*
X148053328Y-98720262D01*
X148066372Y-98538038D01*
X148066648Y-98534769D01*
X148099388Y-98200016D01*
X148099683Y-98197310D01*
X148156171Y-97725260D01*
X148156623Y-97721870D01*
X148166999Y-97651426D01*
X148205529Y-97389840D01*
X148205908Y-97387436D01*
X148284982Y-96917599D01*
X148285623Y-96914098D01*
X148350422Y-96586002D01*
X148350918Y-96583610D01*
X148452490Y-96117091D01*
X148453330Y-96113488D01*
X148533731Y-95790179D01*
X148534307Y-95787949D01*
X148632727Y-95420960D01*
X148658353Y-95325405D01*
X148659396Y-95321742D01*
X148659397Y-95321741D01*
X148754957Y-95004392D01*
X148755595Y-95002340D01*
X148902076Y-94544516D01*
X148903348Y-94540746D01*
X149013474Y-94230640D01*
X149014166Y-94228739D01*
X149183115Y-93776178D01*
X149184619Y-93772343D01*
X149308723Y-93470411D01*
X149309452Y-93468674D01*
X149500820Y-93022204D01*
X149502563Y-93018320D01*
X149639775Y-92725899D01*
X149640527Y-92724324D01*
X149854479Y-92284308D01*
X149856471Y-92280388D01*
X150005829Y-91998658D01*
X150006590Y-91997244D01*
X150006649Y-91997137D01*
X150243242Y-91564278D01*
X150245489Y-91560338D01*
X150323821Y-91428533D01*
X150405861Y-91290490D01*
X150406520Y-91289395D01*
X150666232Y-90863746D01*
X150668711Y-90859847D01*
X150838529Y-90603439D01*
X150839259Y-90602349D01*
X151122498Y-90184312D01*
X151125275Y-90180378D01*
X151302519Y-89939171D01*
X151303226Y-89938218D01*
X151610921Y-89527644D01*
X151613970Y-89523738D01*
X151796296Y-89299405D01*
X151796960Y-89298595D01*
X152130443Y-88895174D01*
X152133768Y-88891314D01*
X152317508Y-88686498D01*
X152318116Y-88685824D01*
X152318246Y-88685682D01*
X152679819Y-88288429D01*
X152683422Y-88284633D01*
X152739298Y-88228145D01*
X152863772Y-88102310D01*
X152864042Y-88102039D01*
X153257805Y-87708791D01*
X153261663Y-87705100D01*
X153430129Y-87550629D01*
X153430519Y-87550273D01*
X153863012Y-87157658D01*
X153867169Y-87154047D01*
X154009158Y-87036059D01*
X154009534Y-87035748D01*
X154494111Y-86636245D01*
X154498553Y-86632748D01*
X154582434Y-86569694D01*
X154582713Y-86569484D01*
X155147329Y-86147500D01*
X155152221Y-86144023D01*
X155818169Y-85694085D01*
X155823221Y-85690844D01*
X156401335Y-85339141D01*
X156469928Y-85320824D01*
X156537535Y-85342499D01*
G37*
%TD.AperFunction*%
M02*
