%TF.GenerationSoftware,KiCad,Pcbnew,(6.0.7)*%
%TF.CreationDate,2022-10-08T17:42:11+02:00*%
%TF.ProjectId,Helios_PCB_receiver,48656c69-6f73-45f5-9043-425f72656365,rev?*%
%TF.SameCoordinates,Original*%
%TF.FileFunction,Legend,Top*%
%TF.FilePolarity,Positive*%
%FSLAX46Y46*%
G04 Gerber Fmt 4.6, Leading zero omitted, Abs format (unit mm)*
G04 Created by KiCad (PCBNEW (6.0.7)) date 2022-10-08 17:42:11*
%MOMM*%
%LPD*%
G01*
G04 APERTURE LIST*
%ADD10C,0.150000*%
%ADD11C,0.120000*%
G04 APERTURE END LIST*
D10*
X170300000Y-98100000D02*
X170300000Y-102000000D01*
X169200000Y-100000000D02*
X173300000Y-100000000D01*
X172000000Y-98100000D02*
X172000000Y-102000000D01*
X169252380Y-100852380D02*
X169585714Y-101852380D01*
X169919047Y-100852380D01*
X171538095Y-101852380D02*
X170966666Y-101852380D01*
X171252380Y-101852380D02*
X171252380Y-100852380D01*
X171157142Y-100995238D01*
X171061904Y-101090476D01*
X170966666Y-101138095D01*
X172680952Y-100947619D02*
X172728571Y-100900000D01*
X172823809Y-100852380D01*
X173061904Y-100852380D01*
X173157142Y-100900000D01*
X173204761Y-100947619D01*
X173252380Y-101042857D01*
X173252380Y-101138095D01*
X173204761Y-101280952D01*
X172633333Y-101852380D01*
X173252380Y-101852380D01*
X157354880Y-99052380D02*
X157021547Y-98576190D01*
X156783452Y-99052380D02*
X156783452Y-98052380D01*
X157164404Y-98052380D01*
X157259642Y-98100000D01*
X157307261Y-98147619D01*
X157354880Y-98242857D01*
X157354880Y-98385714D01*
X157307261Y-98480952D01*
X157259642Y-98528571D01*
X157164404Y-98576190D01*
X156783452Y-98576190D01*
X158354880Y-98957142D02*
X158307261Y-99004761D01*
X158164404Y-99052380D01*
X158069166Y-99052380D01*
X157926309Y-99004761D01*
X157831071Y-98909523D01*
X157783452Y-98814285D01*
X157735833Y-98623809D01*
X157735833Y-98480952D01*
X157783452Y-98290476D01*
X157831071Y-98195238D01*
X157926309Y-98100000D01*
X158069166Y-98052380D01*
X158164404Y-98052380D01*
X158307261Y-98100000D01*
X158354880Y-98147619D01*
X158640595Y-98052380D02*
X158973928Y-99052380D01*
X159307261Y-98052380D01*
X169414285Y-98252380D02*
X169509523Y-98252380D01*
X169604761Y-98300000D01*
X169652380Y-98347619D01*
X169700000Y-98442857D01*
X169747619Y-98633333D01*
X169747619Y-98871428D01*
X169700000Y-99061904D01*
X169652380Y-99157142D01*
X169604761Y-99204761D01*
X169509523Y-99252380D01*
X169414285Y-99252380D01*
X169319047Y-99204761D01*
X169271428Y-99157142D01*
X169223809Y-99061904D01*
X169176190Y-98871428D01*
X169176190Y-98633333D01*
X169223809Y-98442857D01*
X169271428Y-98347619D01*
X169319047Y-98300000D01*
X169414285Y-98252380D01*
X170842857Y-98252380D02*
X171461904Y-98252380D01*
X171128571Y-98633333D01*
X171271428Y-98633333D01*
X171366666Y-98680952D01*
X171414285Y-98728571D01*
X171461904Y-98823809D01*
X171461904Y-99061904D01*
X171414285Y-99157142D01*
X171366666Y-99204761D01*
X171271428Y-99252380D01*
X170985714Y-99252380D01*
X170890476Y-99204761D01*
X170842857Y-99157142D01*
X173176190Y-98300000D02*
X173080952Y-98252380D01*
X172938095Y-98252380D01*
X172795238Y-98300000D01*
X172700000Y-98395238D01*
X172652380Y-98490476D01*
X172604761Y-98680952D01*
X172604761Y-98823809D01*
X172652380Y-99014285D01*
X172700000Y-99109523D01*
X172795238Y-99204761D01*
X172938095Y-99252380D01*
X173033333Y-99252380D01*
X173176190Y-99204761D01*
X173223809Y-99157142D01*
X173223809Y-98823809D01*
X173033333Y-98823809D01*
X159609523Y-100852380D02*
X159133333Y-100852380D01*
X159085714Y-101328571D01*
X159133333Y-101280952D01*
X159228571Y-101233333D01*
X159466666Y-101233333D01*
X159561904Y-101280952D01*
X159609523Y-101328571D01*
X159657142Y-101423809D01*
X159657142Y-101661904D01*
X159609523Y-101757142D01*
X159561904Y-101804761D01*
X159466666Y-101852380D01*
X159228571Y-101852380D01*
X159133333Y-101804761D01*
X159085714Y-101757142D01*
X159942857Y-100852380D02*
X160276190Y-101852380D01*
X160609523Y-100852380D01*
%TO.C,U1*%
X179952380Y-102928571D02*
X179952380Y-102738095D01*
X180000000Y-102642857D01*
X180095238Y-102547619D01*
X180285714Y-102500000D01*
X180619047Y-102500000D01*
X180809523Y-102547619D01*
X180904761Y-102642857D01*
X180952380Y-102738095D01*
X180952380Y-102928571D01*
X180904761Y-103023809D01*
X180809523Y-103119047D01*
X180619047Y-103166666D01*
X180285714Y-103166666D01*
X180095238Y-103119047D01*
X180000000Y-103023809D01*
X179952380Y-102928571D01*
X180952380Y-102071428D02*
X179952380Y-102071428D01*
X179952380Y-101690476D01*
X180000000Y-101595238D01*
X180047619Y-101547619D01*
X180142857Y-101500000D01*
X180285714Y-101500000D01*
X180380952Y-101547619D01*
X180428571Y-101595238D01*
X180476190Y-101690476D01*
X180476190Y-102071428D01*
X180666666Y-101119047D02*
X180666666Y-100642857D01*
X180952380Y-101214285D02*
X179952380Y-100880952D01*
X180952380Y-100547619D01*
X180047619Y-100261904D02*
X180000000Y-100214285D01*
X179952380Y-100119047D01*
X179952380Y-99880952D01*
X180000000Y-99785714D01*
X180047619Y-99738095D01*
X180142857Y-99690476D01*
X180238095Y-99690476D01*
X180380952Y-99738095D01*
X180952380Y-100309523D01*
X180952380Y-99690476D01*
X179952380Y-99357142D02*
X179952380Y-98738095D01*
X180333333Y-99071428D01*
X180333333Y-98928571D01*
X180380952Y-98833333D01*
X180428571Y-98785714D01*
X180523809Y-98738095D01*
X180761904Y-98738095D01*
X180857142Y-98785714D01*
X180904761Y-98833333D01*
X180952380Y-98928571D01*
X180952380Y-99214285D01*
X180904761Y-99309523D01*
X180857142Y-99357142D01*
X180380952Y-98166666D02*
X180333333Y-98261904D01*
X180285714Y-98309523D01*
X180190476Y-98357142D01*
X180142857Y-98357142D01*
X180047619Y-98309523D01*
X180000000Y-98261904D01*
X179952380Y-98166666D01*
X179952380Y-97976190D01*
X180000000Y-97880952D01*
X180047619Y-97833333D01*
X180142857Y-97785714D01*
X180190476Y-97785714D01*
X180285714Y-97833333D01*
X180333333Y-97880952D01*
X180380952Y-97976190D01*
X180380952Y-98166666D01*
X180428571Y-98261904D01*
X180476190Y-98309523D01*
X180571428Y-98357142D01*
X180761904Y-98357142D01*
X180857142Y-98309523D01*
X180904761Y-98261904D01*
X180952380Y-98166666D01*
X180952380Y-97976190D01*
X180904761Y-97880952D01*
X180857142Y-97833333D01*
X180761904Y-97785714D01*
X180571428Y-97785714D01*
X180476190Y-97833333D01*
X180428571Y-97880952D01*
X180380952Y-97976190D01*
X179952380Y-97166666D02*
X179952380Y-97071428D01*
X180000000Y-96976190D01*
X180047619Y-96928571D01*
X180142857Y-96880952D01*
X180333333Y-96833333D01*
X180571428Y-96833333D01*
X180761904Y-96880952D01*
X180857142Y-96928571D01*
X180904761Y-96976190D01*
X180952380Y-97071428D01*
X180952380Y-97166666D01*
X180904761Y-97261904D01*
X180857142Y-97309523D01*
X180761904Y-97357142D01*
X180571428Y-97404761D01*
X180333333Y-97404761D01*
X180142857Y-97357142D01*
X180047619Y-97309523D01*
X180000000Y-97261904D01*
X179952380Y-97166666D01*
%TO.C,R0*%
X152833333Y-92952380D02*
X152500000Y-92476190D01*
X152261904Y-92952380D02*
X152261904Y-91952380D01*
X152642857Y-91952380D01*
X152738095Y-92000000D01*
X152785714Y-92047619D01*
X152833333Y-92142857D01*
X152833333Y-92285714D01*
X152785714Y-92380952D01*
X152738095Y-92428571D01*
X152642857Y-92476190D01*
X152261904Y-92476190D01*
X153452380Y-91952380D02*
X153547619Y-91952380D01*
X153642857Y-92000000D01*
X153690476Y-92047619D01*
X153738095Y-92142857D01*
X153785714Y-92333333D01*
X153785714Y-92571428D01*
X153738095Y-92761904D01*
X153690476Y-92857142D01*
X153642857Y-92904761D01*
X153547619Y-92952380D01*
X153452380Y-92952380D01*
X153357142Y-92904761D01*
X153309523Y-92857142D01*
X153261904Y-92761904D01*
X153214285Y-92571428D01*
X153214285Y-92333333D01*
X153261904Y-92142857D01*
X153309523Y-92047619D01*
X153357142Y-92000000D01*
X153452380Y-91952380D01*
%TO.C,F2*%
X175916666Y-110928571D02*
X175583333Y-110928571D01*
X175583333Y-111452380D02*
X175583333Y-110452380D01*
X176059523Y-110452380D01*
X176392857Y-110547619D02*
X176440476Y-110500000D01*
X176535714Y-110452380D01*
X176773809Y-110452380D01*
X176869047Y-110500000D01*
X176916666Y-110547619D01*
X176964285Y-110642857D01*
X176964285Y-110738095D01*
X176916666Y-110880952D01*
X176345238Y-111452380D01*
X176964285Y-111452380D01*
%TO.C,F0*%
X153752452Y-89014357D02*
X153419119Y-89014357D01*
X153419119Y-89538166D02*
X153419119Y-88538166D01*
X153895309Y-88538166D01*
X154466738Y-88538166D02*
X154561976Y-88538166D01*
X154657214Y-88585786D01*
X154704833Y-88633405D01*
X154752452Y-88728643D01*
X154800071Y-88919119D01*
X154800071Y-89157214D01*
X154752452Y-89347690D01*
X154704833Y-89442928D01*
X154657214Y-89490547D01*
X154561976Y-89538166D01*
X154466738Y-89538166D01*
X154371500Y-89490547D01*
X154323881Y-89442928D01*
X154276262Y-89347690D01*
X154228643Y-89157214D01*
X154228643Y-88919119D01*
X154276262Y-88728643D01*
X154323881Y-88633405D01*
X154371500Y-88585786D01*
X154466738Y-88538166D01*
%TO.C,R3*%
X176833333Y-92702380D02*
X176500000Y-92226190D01*
X176261904Y-92702380D02*
X176261904Y-91702380D01*
X176642857Y-91702380D01*
X176738095Y-91750000D01*
X176785714Y-91797619D01*
X176833333Y-91892857D01*
X176833333Y-92035714D01*
X176785714Y-92130952D01*
X176738095Y-92178571D01*
X176642857Y-92226190D01*
X176261904Y-92226190D01*
X177166666Y-91702380D02*
X177785714Y-91702380D01*
X177452380Y-92083333D01*
X177595238Y-92083333D01*
X177690476Y-92130952D01*
X177738095Y-92178571D01*
X177785714Y-92273809D01*
X177785714Y-92511904D01*
X177738095Y-92607142D01*
X177690476Y-92654761D01*
X177595238Y-92702380D01*
X177309523Y-92702380D01*
X177214285Y-92654761D01*
X177166666Y-92607142D01*
%TO.C,U0*%
X148952380Y-102928571D02*
X148952380Y-102738095D01*
X149000000Y-102642857D01*
X149095238Y-102547619D01*
X149285714Y-102500000D01*
X149619047Y-102500000D01*
X149809523Y-102547619D01*
X149904761Y-102642857D01*
X149952380Y-102738095D01*
X149952380Y-102928571D01*
X149904761Y-103023809D01*
X149809523Y-103119047D01*
X149619047Y-103166666D01*
X149285714Y-103166666D01*
X149095238Y-103119047D01*
X149000000Y-103023809D01*
X148952380Y-102928571D01*
X149952380Y-102071428D02*
X148952380Y-102071428D01*
X148952380Y-101690476D01*
X149000000Y-101595238D01*
X149047619Y-101547619D01*
X149142857Y-101500000D01*
X149285714Y-101500000D01*
X149380952Y-101547619D01*
X149428571Y-101595238D01*
X149476190Y-101690476D01*
X149476190Y-102071428D01*
X149666666Y-101119047D02*
X149666666Y-100642857D01*
X149952380Y-101214285D02*
X148952380Y-100880952D01*
X149952380Y-100547619D01*
X149047619Y-100261904D02*
X149000000Y-100214285D01*
X148952380Y-100119047D01*
X148952380Y-99880952D01*
X149000000Y-99785714D01*
X149047619Y-99738095D01*
X149142857Y-99690476D01*
X149238095Y-99690476D01*
X149380952Y-99738095D01*
X149952380Y-100309523D01*
X149952380Y-99690476D01*
X148952380Y-99357142D02*
X148952380Y-98738095D01*
X149333333Y-99071428D01*
X149333333Y-98928571D01*
X149380952Y-98833333D01*
X149428571Y-98785714D01*
X149523809Y-98738095D01*
X149761904Y-98738095D01*
X149857142Y-98785714D01*
X149904761Y-98833333D01*
X149952380Y-98928571D01*
X149952380Y-99214285D01*
X149904761Y-99309523D01*
X149857142Y-99357142D01*
X149380952Y-98166666D02*
X149333333Y-98261904D01*
X149285714Y-98309523D01*
X149190476Y-98357142D01*
X149142857Y-98357142D01*
X149047619Y-98309523D01*
X149000000Y-98261904D01*
X148952380Y-98166666D01*
X148952380Y-97976190D01*
X149000000Y-97880952D01*
X149047619Y-97833333D01*
X149142857Y-97785714D01*
X149190476Y-97785714D01*
X149285714Y-97833333D01*
X149333333Y-97880952D01*
X149380952Y-97976190D01*
X149380952Y-98166666D01*
X149428571Y-98261904D01*
X149476190Y-98309523D01*
X149571428Y-98357142D01*
X149761904Y-98357142D01*
X149857142Y-98309523D01*
X149904761Y-98261904D01*
X149952380Y-98166666D01*
X149952380Y-97976190D01*
X149904761Y-97880952D01*
X149857142Y-97833333D01*
X149761904Y-97785714D01*
X149571428Y-97785714D01*
X149476190Y-97833333D01*
X149428571Y-97880952D01*
X149380952Y-97976190D01*
X148952380Y-97166666D02*
X148952380Y-97071428D01*
X149000000Y-96976190D01*
X149047619Y-96928571D01*
X149142857Y-96880952D01*
X149333333Y-96833333D01*
X149571428Y-96833333D01*
X149761904Y-96880952D01*
X149857142Y-96928571D01*
X149904761Y-96976190D01*
X149952380Y-97071428D01*
X149952380Y-97166666D01*
X149904761Y-97261904D01*
X149857142Y-97309523D01*
X149761904Y-97357142D01*
X149571428Y-97404761D01*
X149333333Y-97404761D01*
X149142857Y-97357142D01*
X149047619Y-97309523D01*
X149000000Y-97261904D01*
X148952380Y-97166666D01*
%TO.C,F3*%
X175580880Y-89014357D02*
X175247547Y-89014357D01*
X175247547Y-89538166D02*
X175247547Y-88538166D01*
X175723737Y-88538166D01*
X176009452Y-88538166D02*
X176628499Y-88538166D01*
X176295166Y-88919119D01*
X176438023Y-88919119D01*
X176533261Y-88966738D01*
X176580880Y-89014357D01*
X176628499Y-89109595D01*
X176628499Y-89347690D01*
X176580880Y-89442928D01*
X176533261Y-89490547D01*
X176438023Y-89538166D01*
X176152309Y-89538166D01*
X176057071Y-89490547D01*
X176009452Y-89442928D01*
%TO.C,F1*%
X153752452Y-110928571D02*
X153419119Y-110928571D01*
X153419119Y-111452380D02*
X153419119Y-110452380D01*
X153895309Y-110452380D01*
X154800071Y-111452380D02*
X154228643Y-111452380D01*
X154514357Y-111452380D02*
X154514357Y-110452380D01*
X154419119Y-110595238D01*
X154323881Y-110690476D01*
X154228643Y-110738095D01*
%TO.C,R2*%
X176833333Y-108202380D02*
X176500000Y-107726190D01*
X176261904Y-108202380D02*
X176261904Y-107202380D01*
X176642857Y-107202380D01*
X176738095Y-107250000D01*
X176785714Y-107297619D01*
X176833333Y-107392857D01*
X176833333Y-107535714D01*
X176785714Y-107630952D01*
X176738095Y-107678571D01*
X176642857Y-107726190D01*
X176261904Y-107726190D01*
X177214285Y-107297619D02*
X177261904Y-107250000D01*
X177357142Y-107202380D01*
X177595238Y-107202380D01*
X177690476Y-107250000D01*
X177738095Y-107297619D01*
X177785714Y-107392857D01*
X177785714Y-107488095D01*
X177738095Y-107630952D01*
X177166666Y-108202380D01*
X177785714Y-108202380D01*
%TO.C,R1*%
X152833333Y-107702380D02*
X152500000Y-107226190D01*
X152261904Y-107702380D02*
X152261904Y-106702380D01*
X152642857Y-106702380D01*
X152738095Y-106750000D01*
X152785714Y-106797619D01*
X152833333Y-106892857D01*
X152833333Y-107035714D01*
X152785714Y-107130952D01*
X152738095Y-107178571D01*
X152642857Y-107226190D01*
X152261904Y-107226190D01*
X153785714Y-107702380D02*
X153214285Y-107702380D01*
X153500000Y-107702380D02*
X153500000Y-106702380D01*
X153404761Y-106845238D01*
X153309523Y-106940476D01*
X153214285Y-106988095D01*
D11*
%TO.C,U1*%
X177225000Y-100800000D02*
G75*
G03*
X177225000Y-100800000I-200000J0D01*
G01*
%TO.C,F2*%
X174853553Y-109429289D02*
X174429289Y-109853553D01*
X174641421Y-109641421D02*
X174358579Y-109358579D01*
%TO.C,F0*%
X155146447Y-90570711D02*
X155570711Y-90146447D01*
X155358579Y-90358579D02*
X155641421Y-90641421D01*
%TO.C,U0*%
X153175000Y-99200000D02*
G75*
G03*
X153175000Y-99200000I-200000J0D01*
G01*
%TO.C,F3*%
X174641421Y-90358579D02*
X174358579Y-90641421D01*
X174429289Y-90146447D02*
X174853553Y-90570711D01*
%TO.C,F1*%
X155358579Y-109641421D02*
X155641421Y-109358579D01*
X155570711Y-109853553D02*
X155146447Y-109429289D01*
%TO.C,J0*%
X168885000Y-102605000D02*
X168885000Y-97405000D01*
X163745000Y-102605000D02*
X163745000Y-100005000D01*
X162475000Y-102605000D02*
X161145000Y-102605000D01*
X161145000Y-102605000D02*
X161145000Y-101275000D01*
X163745000Y-102605000D02*
X168885000Y-102605000D01*
X161145000Y-97405000D02*
X168885000Y-97405000D01*
X163745000Y-100005000D02*
X161145000Y-100005000D01*
X161145000Y-100005000D02*
X161145000Y-97405000D01*
%TD*%
M02*
