%TF.GenerationSoftware,KiCad,Pcbnew,(7.0.0)*%
%TF.CreationDate,2023-11-14T12:37:07+01:00*%
%TF.ProjectId,Helios_PCB_receiver,48656c69-6f73-45f5-9043-425f72656365,rev?*%
%TF.SameCoordinates,Original*%
%TF.FileFunction,Legend,Top*%
%TF.FilePolarity,Positive*%
%FSLAX46Y46*%
G04 Gerber Fmt 4.6, Leading zero omitted, Abs format (unit mm)*
G04 Created by KiCad (PCBNEW (7.0.0)) date 2023-11-14 12:37:07*
%MOMM*%
%LPD*%
G01*
G04 APERTURE LIST*
%ADD10C,0.150000*%
%ADD11C,0.120000*%
G04 APERTURE END LIST*
D10*
X170688000Y-100000000D02*
X173300000Y-100000000D01*
X172000000Y-98100000D02*
X172000000Y-102000000D01*
X171134190Y-100713380D02*
X171229428Y-100713380D01*
X171229428Y-100713380D02*
X171324666Y-100761000D01*
X171324666Y-100761000D02*
X171372285Y-100808619D01*
X171372285Y-100808619D02*
X171419904Y-100903857D01*
X171419904Y-100903857D02*
X171467523Y-101094333D01*
X171467523Y-101094333D02*
X171467523Y-101332428D01*
X171467523Y-101332428D02*
X171419904Y-101522904D01*
X171419904Y-101522904D02*
X171372285Y-101618142D01*
X171372285Y-101618142D02*
X171324666Y-101665761D01*
X171324666Y-101665761D02*
X171229428Y-101713380D01*
X171229428Y-101713380D02*
X171134190Y-101713380D01*
X171134190Y-101713380D02*
X171038952Y-101665761D01*
X171038952Y-101665761D02*
X170991333Y-101618142D01*
X170991333Y-101618142D02*
X170943714Y-101522904D01*
X170943714Y-101522904D02*
X170896095Y-101332428D01*
X170896095Y-101332428D02*
X170896095Y-101094333D01*
X170896095Y-101094333D02*
X170943714Y-100903857D01*
X170943714Y-100903857D02*
X170991333Y-100808619D01*
X170991333Y-100808619D02*
X171038952Y-100761000D01*
X171038952Y-100761000D02*
X171134190Y-100713380D01*
X173019904Y-101713380D02*
X172448476Y-101713380D01*
X172734190Y-101713380D02*
X172734190Y-100713380D01*
X172734190Y-100713380D02*
X172638952Y-100856238D01*
X172638952Y-100856238D02*
X172543714Y-100951476D01*
X172543714Y-100951476D02*
X172448476Y-100999095D01*
X155051095Y-98823380D02*
X155051095Y-97823380D01*
X155051095Y-98299571D02*
X155622523Y-98299571D01*
X155622523Y-98823380D02*
X155622523Y-97823380D01*
X156479666Y-98775761D02*
X156384428Y-98823380D01*
X156384428Y-98823380D02*
X156193952Y-98823380D01*
X156193952Y-98823380D02*
X156098714Y-98775761D01*
X156098714Y-98775761D02*
X156051095Y-98680523D01*
X156051095Y-98680523D02*
X156051095Y-98299571D01*
X156051095Y-98299571D02*
X156098714Y-98204333D01*
X156098714Y-98204333D02*
X156193952Y-98156714D01*
X156193952Y-98156714D02*
X156384428Y-98156714D01*
X156384428Y-98156714D02*
X156479666Y-98204333D01*
X156479666Y-98204333D02*
X156527285Y-98299571D01*
X156527285Y-98299571D02*
X156527285Y-98394809D01*
X156527285Y-98394809D02*
X156051095Y-98490047D01*
X157098714Y-98823380D02*
X157003476Y-98775761D01*
X157003476Y-98775761D02*
X156955857Y-98680523D01*
X156955857Y-98680523D02*
X156955857Y-97823380D01*
X157479667Y-98823380D02*
X157479667Y-98156714D01*
X157479667Y-97823380D02*
X157432048Y-97871000D01*
X157432048Y-97871000D02*
X157479667Y-97918619D01*
X157479667Y-97918619D02*
X157527286Y-97871000D01*
X157527286Y-97871000D02*
X157479667Y-97823380D01*
X157479667Y-97823380D02*
X157479667Y-97918619D01*
X158098714Y-98823380D02*
X158003476Y-98775761D01*
X158003476Y-98775761D02*
X157955857Y-98728142D01*
X157955857Y-98728142D02*
X157908238Y-98632904D01*
X157908238Y-98632904D02*
X157908238Y-98347190D01*
X157908238Y-98347190D02*
X157955857Y-98251952D01*
X157955857Y-98251952D02*
X158003476Y-98204333D01*
X158003476Y-98204333D02*
X158098714Y-98156714D01*
X158098714Y-98156714D02*
X158241571Y-98156714D01*
X158241571Y-98156714D02*
X158336809Y-98204333D01*
X158336809Y-98204333D02*
X158384428Y-98251952D01*
X158384428Y-98251952D02*
X158432047Y-98347190D01*
X158432047Y-98347190D02*
X158432047Y-98632904D01*
X158432047Y-98632904D02*
X158384428Y-98728142D01*
X158384428Y-98728142D02*
X158336809Y-98775761D01*
X158336809Y-98775761D02*
X158241571Y-98823380D01*
X158241571Y-98823380D02*
X158098714Y-98823380D01*
X158813000Y-98775761D02*
X158908238Y-98823380D01*
X158908238Y-98823380D02*
X159098714Y-98823380D01*
X159098714Y-98823380D02*
X159193952Y-98775761D01*
X159193952Y-98775761D02*
X159241571Y-98680523D01*
X159241571Y-98680523D02*
X159241571Y-98632904D01*
X159241571Y-98632904D02*
X159193952Y-98537666D01*
X159193952Y-98537666D02*
X159098714Y-98490047D01*
X159098714Y-98490047D02*
X158955857Y-98490047D01*
X158955857Y-98490047D02*
X158860619Y-98442428D01*
X158860619Y-98442428D02*
X158813000Y-98347190D01*
X158813000Y-98347190D02*
X158813000Y-98299571D01*
X158813000Y-98299571D02*
X158860619Y-98204333D01*
X158860619Y-98204333D02*
X158955857Y-98156714D01*
X158955857Y-98156714D02*
X159098714Y-98156714D01*
X159098714Y-98156714D02*
X159193952Y-98204333D01*
X154908238Y-99443380D02*
X155241571Y-100443380D01*
X155241571Y-100443380D02*
X155574904Y-99443380D01*
X155860619Y-99538619D02*
X155908238Y-99491000D01*
X155908238Y-99491000D02*
X156003476Y-99443380D01*
X156003476Y-99443380D02*
X156241571Y-99443380D01*
X156241571Y-99443380D02*
X156336809Y-99491000D01*
X156336809Y-99491000D02*
X156384428Y-99538619D01*
X156384428Y-99538619D02*
X156432047Y-99633857D01*
X156432047Y-99633857D02*
X156432047Y-99729095D01*
X156432047Y-99729095D02*
X156384428Y-99871952D01*
X156384428Y-99871952D02*
X155813000Y-100443380D01*
X155813000Y-100443380D02*
X156432047Y-100443380D01*
X156860619Y-100348142D02*
X156908238Y-100395761D01*
X156908238Y-100395761D02*
X156860619Y-100443380D01*
X156860619Y-100443380D02*
X156813000Y-100395761D01*
X156813000Y-100395761D02*
X156860619Y-100348142D01*
X156860619Y-100348142D02*
X156860619Y-100443380D01*
X157860618Y-100443380D02*
X157289190Y-100443380D01*
X157574904Y-100443380D02*
X157574904Y-99443380D01*
X157574904Y-99443380D02*
X157479666Y-99586238D01*
X157479666Y-99586238D02*
X157384428Y-99681476D01*
X157384428Y-99681476D02*
X157289190Y-99729095D01*
X155003476Y-101158619D02*
X155051095Y-101111000D01*
X155051095Y-101111000D02*
X155146333Y-101063380D01*
X155146333Y-101063380D02*
X155384428Y-101063380D01*
X155384428Y-101063380D02*
X155479666Y-101111000D01*
X155479666Y-101111000D02*
X155527285Y-101158619D01*
X155527285Y-101158619D02*
X155574904Y-101253857D01*
X155574904Y-101253857D02*
X155574904Y-101349095D01*
X155574904Y-101349095D02*
X155527285Y-101491952D01*
X155527285Y-101491952D02*
X154955857Y-102063380D01*
X154955857Y-102063380D02*
X155574904Y-102063380D01*
X156193952Y-101063380D02*
X156289190Y-101063380D01*
X156289190Y-101063380D02*
X156384428Y-101111000D01*
X156384428Y-101111000D02*
X156432047Y-101158619D01*
X156432047Y-101158619D02*
X156479666Y-101253857D01*
X156479666Y-101253857D02*
X156527285Y-101444333D01*
X156527285Y-101444333D02*
X156527285Y-101682428D01*
X156527285Y-101682428D02*
X156479666Y-101872904D01*
X156479666Y-101872904D02*
X156432047Y-101968142D01*
X156432047Y-101968142D02*
X156384428Y-102015761D01*
X156384428Y-102015761D02*
X156289190Y-102063380D01*
X156289190Y-102063380D02*
X156193952Y-102063380D01*
X156193952Y-102063380D02*
X156098714Y-102015761D01*
X156098714Y-102015761D02*
X156051095Y-101968142D01*
X156051095Y-101968142D02*
X156003476Y-101872904D01*
X156003476Y-101872904D02*
X155955857Y-101682428D01*
X155955857Y-101682428D02*
X155955857Y-101444333D01*
X155955857Y-101444333D02*
X156003476Y-101253857D01*
X156003476Y-101253857D02*
X156051095Y-101158619D01*
X156051095Y-101158619D02*
X156098714Y-101111000D01*
X156098714Y-101111000D02*
X156193952Y-101063380D01*
X156908238Y-101158619D02*
X156955857Y-101111000D01*
X156955857Y-101111000D02*
X157051095Y-101063380D01*
X157051095Y-101063380D02*
X157289190Y-101063380D01*
X157289190Y-101063380D02*
X157384428Y-101111000D01*
X157384428Y-101111000D02*
X157432047Y-101158619D01*
X157432047Y-101158619D02*
X157479666Y-101253857D01*
X157479666Y-101253857D02*
X157479666Y-101349095D01*
X157479666Y-101349095D02*
X157432047Y-101491952D01*
X157432047Y-101491952D02*
X156860619Y-102063380D01*
X156860619Y-102063380D02*
X157479666Y-102063380D01*
X157813000Y-101063380D02*
X158432047Y-101063380D01*
X158432047Y-101063380D02*
X158098714Y-101444333D01*
X158098714Y-101444333D02*
X158241571Y-101444333D01*
X158241571Y-101444333D02*
X158336809Y-101491952D01*
X158336809Y-101491952D02*
X158384428Y-101539571D01*
X158384428Y-101539571D02*
X158432047Y-101634809D01*
X158432047Y-101634809D02*
X158432047Y-101872904D01*
X158432047Y-101872904D02*
X158384428Y-101968142D01*
X158384428Y-101968142D02*
X158336809Y-102015761D01*
X158336809Y-102015761D02*
X158241571Y-102063380D01*
X158241571Y-102063380D02*
X157955857Y-102063380D01*
X157955857Y-102063380D02*
X157860619Y-102015761D01*
X157860619Y-102015761D02*
X157813000Y-101968142D01*
X170848476Y-98427380D02*
X171467523Y-98427380D01*
X171467523Y-98427380D02*
X171134190Y-98808333D01*
X171134190Y-98808333D02*
X171277047Y-98808333D01*
X171277047Y-98808333D02*
X171372285Y-98855952D01*
X171372285Y-98855952D02*
X171419904Y-98903571D01*
X171419904Y-98903571D02*
X171467523Y-98998809D01*
X171467523Y-98998809D02*
X171467523Y-99236904D01*
X171467523Y-99236904D02*
X171419904Y-99332142D01*
X171419904Y-99332142D02*
X171372285Y-99379761D01*
X171372285Y-99379761D02*
X171277047Y-99427380D01*
X171277047Y-99427380D02*
X170991333Y-99427380D01*
X170991333Y-99427380D02*
X170896095Y-99379761D01*
X170896095Y-99379761D02*
X170848476Y-99332142D01*
X172448476Y-98522619D02*
X172496095Y-98475000D01*
X172496095Y-98475000D02*
X172591333Y-98427380D01*
X172591333Y-98427380D02*
X172829428Y-98427380D01*
X172829428Y-98427380D02*
X172924666Y-98475000D01*
X172924666Y-98475000D02*
X172972285Y-98522619D01*
X172972285Y-98522619D02*
X173019904Y-98617857D01*
X173019904Y-98617857D02*
X173019904Y-98713095D01*
X173019904Y-98713095D02*
X172972285Y-98855952D01*
X172972285Y-98855952D02*
X172400857Y-99427380D01*
X172400857Y-99427380D02*
X173019904Y-99427380D01*
%TO.C,U1*%
X179867380Y-102928571D02*
X179867380Y-102738095D01*
X179867380Y-102738095D02*
X179915000Y-102642857D01*
X179915000Y-102642857D02*
X180010238Y-102547619D01*
X180010238Y-102547619D02*
X180200714Y-102500000D01*
X180200714Y-102500000D02*
X180534047Y-102500000D01*
X180534047Y-102500000D02*
X180724523Y-102547619D01*
X180724523Y-102547619D02*
X180819761Y-102642857D01*
X180819761Y-102642857D02*
X180867380Y-102738095D01*
X180867380Y-102738095D02*
X180867380Y-102928571D01*
X180867380Y-102928571D02*
X180819761Y-103023809D01*
X180819761Y-103023809D02*
X180724523Y-103119047D01*
X180724523Y-103119047D02*
X180534047Y-103166666D01*
X180534047Y-103166666D02*
X180200714Y-103166666D01*
X180200714Y-103166666D02*
X180010238Y-103119047D01*
X180010238Y-103119047D02*
X179915000Y-103023809D01*
X179915000Y-103023809D02*
X179867380Y-102928571D01*
X180867380Y-102071428D02*
X179867380Y-102071428D01*
X179867380Y-102071428D02*
X179867380Y-101690476D01*
X179867380Y-101690476D02*
X179915000Y-101595238D01*
X179915000Y-101595238D02*
X179962619Y-101547619D01*
X179962619Y-101547619D02*
X180057857Y-101500000D01*
X180057857Y-101500000D02*
X180200714Y-101500000D01*
X180200714Y-101500000D02*
X180295952Y-101547619D01*
X180295952Y-101547619D02*
X180343571Y-101595238D01*
X180343571Y-101595238D02*
X180391190Y-101690476D01*
X180391190Y-101690476D02*
X180391190Y-102071428D01*
X180581666Y-101119047D02*
X180581666Y-100642857D01*
X180867380Y-101214285D02*
X179867380Y-100880952D01*
X179867380Y-100880952D02*
X180867380Y-100547619D01*
X179962619Y-100261904D02*
X179915000Y-100214285D01*
X179915000Y-100214285D02*
X179867380Y-100119047D01*
X179867380Y-100119047D02*
X179867380Y-99880952D01*
X179867380Y-99880952D02*
X179915000Y-99785714D01*
X179915000Y-99785714D02*
X179962619Y-99738095D01*
X179962619Y-99738095D02*
X180057857Y-99690476D01*
X180057857Y-99690476D02*
X180153095Y-99690476D01*
X180153095Y-99690476D02*
X180295952Y-99738095D01*
X180295952Y-99738095D02*
X180867380Y-100309523D01*
X180867380Y-100309523D02*
X180867380Y-99690476D01*
X179867380Y-99357142D02*
X179867380Y-98738095D01*
X179867380Y-98738095D02*
X180248333Y-99071428D01*
X180248333Y-99071428D02*
X180248333Y-98928571D01*
X180248333Y-98928571D02*
X180295952Y-98833333D01*
X180295952Y-98833333D02*
X180343571Y-98785714D01*
X180343571Y-98785714D02*
X180438809Y-98738095D01*
X180438809Y-98738095D02*
X180676904Y-98738095D01*
X180676904Y-98738095D02*
X180772142Y-98785714D01*
X180772142Y-98785714D02*
X180819761Y-98833333D01*
X180819761Y-98833333D02*
X180867380Y-98928571D01*
X180867380Y-98928571D02*
X180867380Y-99214285D01*
X180867380Y-99214285D02*
X180819761Y-99309523D01*
X180819761Y-99309523D02*
X180772142Y-99357142D01*
X180295952Y-98166666D02*
X180248333Y-98261904D01*
X180248333Y-98261904D02*
X180200714Y-98309523D01*
X180200714Y-98309523D02*
X180105476Y-98357142D01*
X180105476Y-98357142D02*
X180057857Y-98357142D01*
X180057857Y-98357142D02*
X179962619Y-98309523D01*
X179962619Y-98309523D02*
X179915000Y-98261904D01*
X179915000Y-98261904D02*
X179867380Y-98166666D01*
X179867380Y-98166666D02*
X179867380Y-97976190D01*
X179867380Y-97976190D02*
X179915000Y-97880952D01*
X179915000Y-97880952D02*
X179962619Y-97833333D01*
X179962619Y-97833333D02*
X180057857Y-97785714D01*
X180057857Y-97785714D02*
X180105476Y-97785714D01*
X180105476Y-97785714D02*
X180200714Y-97833333D01*
X180200714Y-97833333D02*
X180248333Y-97880952D01*
X180248333Y-97880952D02*
X180295952Y-97976190D01*
X180295952Y-97976190D02*
X180295952Y-98166666D01*
X180295952Y-98166666D02*
X180343571Y-98261904D01*
X180343571Y-98261904D02*
X180391190Y-98309523D01*
X180391190Y-98309523D02*
X180486428Y-98357142D01*
X180486428Y-98357142D02*
X180676904Y-98357142D01*
X180676904Y-98357142D02*
X180772142Y-98309523D01*
X180772142Y-98309523D02*
X180819761Y-98261904D01*
X180819761Y-98261904D02*
X180867380Y-98166666D01*
X180867380Y-98166666D02*
X180867380Y-97976190D01*
X180867380Y-97976190D02*
X180819761Y-97880952D01*
X180819761Y-97880952D02*
X180772142Y-97833333D01*
X180772142Y-97833333D02*
X180676904Y-97785714D01*
X180676904Y-97785714D02*
X180486428Y-97785714D01*
X180486428Y-97785714D02*
X180391190Y-97833333D01*
X180391190Y-97833333D02*
X180343571Y-97880952D01*
X180343571Y-97880952D02*
X180295952Y-97976190D01*
X179867380Y-97166666D02*
X179867380Y-97071428D01*
X179867380Y-97071428D02*
X179915000Y-96976190D01*
X179915000Y-96976190D02*
X179962619Y-96928571D01*
X179962619Y-96928571D02*
X180057857Y-96880952D01*
X180057857Y-96880952D02*
X180248333Y-96833333D01*
X180248333Y-96833333D02*
X180486428Y-96833333D01*
X180486428Y-96833333D02*
X180676904Y-96880952D01*
X180676904Y-96880952D02*
X180772142Y-96928571D01*
X180772142Y-96928571D02*
X180819761Y-96976190D01*
X180819761Y-96976190D02*
X180867380Y-97071428D01*
X180867380Y-97071428D02*
X180867380Y-97166666D01*
X180867380Y-97166666D02*
X180819761Y-97261904D01*
X180819761Y-97261904D02*
X180772142Y-97309523D01*
X180772142Y-97309523D02*
X180676904Y-97357142D01*
X180676904Y-97357142D02*
X180486428Y-97404761D01*
X180486428Y-97404761D02*
X180248333Y-97404761D01*
X180248333Y-97404761D02*
X180057857Y-97357142D01*
X180057857Y-97357142D02*
X179962619Y-97309523D01*
X179962619Y-97309523D02*
X179915000Y-97261904D01*
X179915000Y-97261904D02*
X179867380Y-97166666D01*
%TO.C,R0*%
X152833333Y-92867380D02*
X152500000Y-92391190D01*
X152261905Y-92867380D02*
X152261905Y-91867380D01*
X152261905Y-91867380D02*
X152642857Y-91867380D01*
X152642857Y-91867380D02*
X152738095Y-91915000D01*
X152738095Y-91915000D02*
X152785714Y-91962619D01*
X152785714Y-91962619D02*
X152833333Y-92057857D01*
X152833333Y-92057857D02*
X152833333Y-92200714D01*
X152833333Y-92200714D02*
X152785714Y-92295952D01*
X152785714Y-92295952D02*
X152738095Y-92343571D01*
X152738095Y-92343571D02*
X152642857Y-92391190D01*
X152642857Y-92391190D02*
X152261905Y-92391190D01*
X153452381Y-91867380D02*
X153547619Y-91867380D01*
X153547619Y-91867380D02*
X153642857Y-91915000D01*
X153642857Y-91915000D02*
X153690476Y-91962619D01*
X153690476Y-91962619D02*
X153738095Y-92057857D01*
X153738095Y-92057857D02*
X153785714Y-92248333D01*
X153785714Y-92248333D02*
X153785714Y-92486428D01*
X153785714Y-92486428D02*
X153738095Y-92676904D01*
X153738095Y-92676904D02*
X153690476Y-92772142D01*
X153690476Y-92772142D02*
X153642857Y-92819761D01*
X153642857Y-92819761D02*
X153547619Y-92867380D01*
X153547619Y-92867380D02*
X153452381Y-92867380D01*
X153452381Y-92867380D02*
X153357143Y-92819761D01*
X153357143Y-92819761D02*
X153309524Y-92772142D01*
X153309524Y-92772142D02*
X153261905Y-92676904D01*
X153261905Y-92676904D02*
X153214286Y-92486428D01*
X153214286Y-92486428D02*
X153214286Y-92248333D01*
X153214286Y-92248333D02*
X153261905Y-92057857D01*
X153261905Y-92057857D02*
X153309524Y-91962619D01*
X153309524Y-91962619D02*
X153357143Y-91915000D01*
X153357143Y-91915000D02*
X153452381Y-91867380D01*
%TO.C,F2*%
X175916666Y-110843571D02*
X175583333Y-110843571D01*
X175583333Y-111367380D02*
X175583333Y-110367380D01*
X175583333Y-110367380D02*
X176059523Y-110367380D01*
X176392857Y-110462619D02*
X176440476Y-110415000D01*
X176440476Y-110415000D02*
X176535714Y-110367380D01*
X176535714Y-110367380D02*
X176773809Y-110367380D01*
X176773809Y-110367380D02*
X176869047Y-110415000D01*
X176869047Y-110415000D02*
X176916666Y-110462619D01*
X176916666Y-110462619D02*
X176964285Y-110557857D01*
X176964285Y-110557857D02*
X176964285Y-110653095D01*
X176964285Y-110653095D02*
X176916666Y-110795952D01*
X176916666Y-110795952D02*
X176345238Y-111367380D01*
X176345238Y-111367380D02*
X176964285Y-111367380D01*
%TO.C,F0*%
X153752452Y-88929357D02*
X153419119Y-88929357D01*
X153419119Y-89453166D02*
X153419119Y-88453166D01*
X153419119Y-88453166D02*
X153895309Y-88453166D01*
X154466738Y-88453166D02*
X154561976Y-88453166D01*
X154561976Y-88453166D02*
X154657214Y-88500786D01*
X154657214Y-88500786D02*
X154704833Y-88548405D01*
X154704833Y-88548405D02*
X154752452Y-88643643D01*
X154752452Y-88643643D02*
X154800071Y-88834119D01*
X154800071Y-88834119D02*
X154800071Y-89072214D01*
X154800071Y-89072214D02*
X154752452Y-89262690D01*
X154752452Y-89262690D02*
X154704833Y-89357928D01*
X154704833Y-89357928D02*
X154657214Y-89405547D01*
X154657214Y-89405547D02*
X154561976Y-89453166D01*
X154561976Y-89453166D02*
X154466738Y-89453166D01*
X154466738Y-89453166D02*
X154371500Y-89405547D01*
X154371500Y-89405547D02*
X154323881Y-89357928D01*
X154323881Y-89357928D02*
X154276262Y-89262690D01*
X154276262Y-89262690D02*
X154228643Y-89072214D01*
X154228643Y-89072214D02*
X154228643Y-88834119D01*
X154228643Y-88834119D02*
X154276262Y-88643643D01*
X154276262Y-88643643D02*
X154323881Y-88548405D01*
X154323881Y-88548405D02*
X154371500Y-88500786D01*
X154371500Y-88500786D02*
X154466738Y-88453166D01*
%TO.C,R3*%
X176833333Y-92617380D02*
X176500000Y-92141190D01*
X176261905Y-92617380D02*
X176261905Y-91617380D01*
X176261905Y-91617380D02*
X176642857Y-91617380D01*
X176642857Y-91617380D02*
X176738095Y-91665000D01*
X176738095Y-91665000D02*
X176785714Y-91712619D01*
X176785714Y-91712619D02*
X176833333Y-91807857D01*
X176833333Y-91807857D02*
X176833333Y-91950714D01*
X176833333Y-91950714D02*
X176785714Y-92045952D01*
X176785714Y-92045952D02*
X176738095Y-92093571D01*
X176738095Y-92093571D02*
X176642857Y-92141190D01*
X176642857Y-92141190D02*
X176261905Y-92141190D01*
X177166667Y-91617380D02*
X177785714Y-91617380D01*
X177785714Y-91617380D02*
X177452381Y-91998333D01*
X177452381Y-91998333D02*
X177595238Y-91998333D01*
X177595238Y-91998333D02*
X177690476Y-92045952D01*
X177690476Y-92045952D02*
X177738095Y-92093571D01*
X177738095Y-92093571D02*
X177785714Y-92188809D01*
X177785714Y-92188809D02*
X177785714Y-92426904D01*
X177785714Y-92426904D02*
X177738095Y-92522142D01*
X177738095Y-92522142D02*
X177690476Y-92569761D01*
X177690476Y-92569761D02*
X177595238Y-92617380D01*
X177595238Y-92617380D02*
X177309524Y-92617380D01*
X177309524Y-92617380D02*
X177214286Y-92569761D01*
X177214286Y-92569761D02*
X177166667Y-92522142D01*
%TO.C,U0*%
X148867380Y-102928571D02*
X148867380Y-102738095D01*
X148867380Y-102738095D02*
X148915000Y-102642857D01*
X148915000Y-102642857D02*
X149010238Y-102547619D01*
X149010238Y-102547619D02*
X149200714Y-102500000D01*
X149200714Y-102500000D02*
X149534047Y-102500000D01*
X149534047Y-102500000D02*
X149724523Y-102547619D01*
X149724523Y-102547619D02*
X149819761Y-102642857D01*
X149819761Y-102642857D02*
X149867380Y-102738095D01*
X149867380Y-102738095D02*
X149867380Y-102928571D01*
X149867380Y-102928571D02*
X149819761Y-103023809D01*
X149819761Y-103023809D02*
X149724523Y-103119047D01*
X149724523Y-103119047D02*
X149534047Y-103166666D01*
X149534047Y-103166666D02*
X149200714Y-103166666D01*
X149200714Y-103166666D02*
X149010238Y-103119047D01*
X149010238Y-103119047D02*
X148915000Y-103023809D01*
X148915000Y-103023809D02*
X148867380Y-102928571D01*
X149867380Y-102071428D02*
X148867380Y-102071428D01*
X148867380Y-102071428D02*
X148867380Y-101690476D01*
X148867380Y-101690476D02*
X148915000Y-101595238D01*
X148915000Y-101595238D02*
X148962619Y-101547619D01*
X148962619Y-101547619D02*
X149057857Y-101500000D01*
X149057857Y-101500000D02*
X149200714Y-101500000D01*
X149200714Y-101500000D02*
X149295952Y-101547619D01*
X149295952Y-101547619D02*
X149343571Y-101595238D01*
X149343571Y-101595238D02*
X149391190Y-101690476D01*
X149391190Y-101690476D02*
X149391190Y-102071428D01*
X149581666Y-101119047D02*
X149581666Y-100642857D01*
X149867380Y-101214285D02*
X148867380Y-100880952D01*
X148867380Y-100880952D02*
X149867380Y-100547619D01*
X148962619Y-100261904D02*
X148915000Y-100214285D01*
X148915000Y-100214285D02*
X148867380Y-100119047D01*
X148867380Y-100119047D02*
X148867380Y-99880952D01*
X148867380Y-99880952D02*
X148915000Y-99785714D01*
X148915000Y-99785714D02*
X148962619Y-99738095D01*
X148962619Y-99738095D02*
X149057857Y-99690476D01*
X149057857Y-99690476D02*
X149153095Y-99690476D01*
X149153095Y-99690476D02*
X149295952Y-99738095D01*
X149295952Y-99738095D02*
X149867380Y-100309523D01*
X149867380Y-100309523D02*
X149867380Y-99690476D01*
X148867380Y-99357142D02*
X148867380Y-98738095D01*
X148867380Y-98738095D02*
X149248333Y-99071428D01*
X149248333Y-99071428D02*
X149248333Y-98928571D01*
X149248333Y-98928571D02*
X149295952Y-98833333D01*
X149295952Y-98833333D02*
X149343571Y-98785714D01*
X149343571Y-98785714D02*
X149438809Y-98738095D01*
X149438809Y-98738095D02*
X149676904Y-98738095D01*
X149676904Y-98738095D02*
X149772142Y-98785714D01*
X149772142Y-98785714D02*
X149819761Y-98833333D01*
X149819761Y-98833333D02*
X149867380Y-98928571D01*
X149867380Y-98928571D02*
X149867380Y-99214285D01*
X149867380Y-99214285D02*
X149819761Y-99309523D01*
X149819761Y-99309523D02*
X149772142Y-99357142D01*
X149295952Y-98166666D02*
X149248333Y-98261904D01*
X149248333Y-98261904D02*
X149200714Y-98309523D01*
X149200714Y-98309523D02*
X149105476Y-98357142D01*
X149105476Y-98357142D02*
X149057857Y-98357142D01*
X149057857Y-98357142D02*
X148962619Y-98309523D01*
X148962619Y-98309523D02*
X148915000Y-98261904D01*
X148915000Y-98261904D02*
X148867380Y-98166666D01*
X148867380Y-98166666D02*
X148867380Y-97976190D01*
X148867380Y-97976190D02*
X148915000Y-97880952D01*
X148915000Y-97880952D02*
X148962619Y-97833333D01*
X148962619Y-97833333D02*
X149057857Y-97785714D01*
X149057857Y-97785714D02*
X149105476Y-97785714D01*
X149105476Y-97785714D02*
X149200714Y-97833333D01*
X149200714Y-97833333D02*
X149248333Y-97880952D01*
X149248333Y-97880952D02*
X149295952Y-97976190D01*
X149295952Y-97976190D02*
X149295952Y-98166666D01*
X149295952Y-98166666D02*
X149343571Y-98261904D01*
X149343571Y-98261904D02*
X149391190Y-98309523D01*
X149391190Y-98309523D02*
X149486428Y-98357142D01*
X149486428Y-98357142D02*
X149676904Y-98357142D01*
X149676904Y-98357142D02*
X149772142Y-98309523D01*
X149772142Y-98309523D02*
X149819761Y-98261904D01*
X149819761Y-98261904D02*
X149867380Y-98166666D01*
X149867380Y-98166666D02*
X149867380Y-97976190D01*
X149867380Y-97976190D02*
X149819761Y-97880952D01*
X149819761Y-97880952D02*
X149772142Y-97833333D01*
X149772142Y-97833333D02*
X149676904Y-97785714D01*
X149676904Y-97785714D02*
X149486428Y-97785714D01*
X149486428Y-97785714D02*
X149391190Y-97833333D01*
X149391190Y-97833333D02*
X149343571Y-97880952D01*
X149343571Y-97880952D02*
X149295952Y-97976190D01*
X148867380Y-97166666D02*
X148867380Y-97071428D01*
X148867380Y-97071428D02*
X148915000Y-96976190D01*
X148915000Y-96976190D02*
X148962619Y-96928571D01*
X148962619Y-96928571D02*
X149057857Y-96880952D01*
X149057857Y-96880952D02*
X149248333Y-96833333D01*
X149248333Y-96833333D02*
X149486428Y-96833333D01*
X149486428Y-96833333D02*
X149676904Y-96880952D01*
X149676904Y-96880952D02*
X149772142Y-96928571D01*
X149772142Y-96928571D02*
X149819761Y-96976190D01*
X149819761Y-96976190D02*
X149867380Y-97071428D01*
X149867380Y-97071428D02*
X149867380Y-97166666D01*
X149867380Y-97166666D02*
X149819761Y-97261904D01*
X149819761Y-97261904D02*
X149772142Y-97309523D01*
X149772142Y-97309523D02*
X149676904Y-97357142D01*
X149676904Y-97357142D02*
X149486428Y-97404761D01*
X149486428Y-97404761D02*
X149248333Y-97404761D01*
X149248333Y-97404761D02*
X149057857Y-97357142D01*
X149057857Y-97357142D02*
X148962619Y-97309523D01*
X148962619Y-97309523D02*
X148915000Y-97261904D01*
X148915000Y-97261904D02*
X148867380Y-97166666D01*
%TO.C,F3*%
X175580880Y-88929357D02*
X175247547Y-88929357D01*
X175247547Y-89453166D02*
X175247547Y-88453166D01*
X175247547Y-88453166D02*
X175723737Y-88453166D01*
X176009452Y-88453166D02*
X176628499Y-88453166D01*
X176628499Y-88453166D02*
X176295166Y-88834119D01*
X176295166Y-88834119D02*
X176438023Y-88834119D01*
X176438023Y-88834119D02*
X176533261Y-88881738D01*
X176533261Y-88881738D02*
X176580880Y-88929357D01*
X176580880Y-88929357D02*
X176628499Y-89024595D01*
X176628499Y-89024595D02*
X176628499Y-89262690D01*
X176628499Y-89262690D02*
X176580880Y-89357928D01*
X176580880Y-89357928D02*
X176533261Y-89405547D01*
X176533261Y-89405547D02*
X176438023Y-89453166D01*
X176438023Y-89453166D02*
X176152309Y-89453166D01*
X176152309Y-89453166D02*
X176057071Y-89405547D01*
X176057071Y-89405547D02*
X176009452Y-89357928D01*
%TO.C,F1*%
X153752452Y-110843571D02*
X153419119Y-110843571D01*
X153419119Y-111367380D02*
X153419119Y-110367380D01*
X153419119Y-110367380D02*
X153895309Y-110367380D01*
X154800071Y-111367380D02*
X154228643Y-111367380D01*
X154514357Y-111367380D02*
X154514357Y-110367380D01*
X154514357Y-110367380D02*
X154419119Y-110510238D01*
X154419119Y-110510238D02*
X154323881Y-110605476D01*
X154323881Y-110605476D02*
X154228643Y-110653095D01*
%TO.C,R2*%
X176833333Y-108117380D02*
X176500000Y-107641190D01*
X176261905Y-108117380D02*
X176261905Y-107117380D01*
X176261905Y-107117380D02*
X176642857Y-107117380D01*
X176642857Y-107117380D02*
X176738095Y-107165000D01*
X176738095Y-107165000D02*
X176785714Y-107212619D01*
X176785714Y-107212619D02*
X176833333Y-107307857D01*
X176833333Y-107307857D02*
X176833333Y-107450714D01*
X176833333Y-107450714D02*
X176785714Y-107545952D01*
X176785714Y-107545952D02*
X176738095Y-107593571D01*
X176738095Y-107593571D02*
X176642857Y-107641190D01*
X176642857Y-107641190D02*
X176261905Y-107641190D01*
X177214286Y-107212619D02*
X177261905Y-107165000D01*
X177261905Y-107165000D02*
X177357143Y-107117380D01*
X177357143Y-107117380D02*
X177595238Y-107117380D01*
X177595238Y-107117380D02*
X177690476Y-107165000D01*
X177690476Y-107165000D02*
X177738095Y-107212619D01*
X177738095Y-107212619D02*
X177785714Y-107307857D01*
X177785714Y-107307857D02*
X177785714Y-107403095D01*
X177785714Y-107403095D02*
X177738095Y-107545952D01*
X177738095Y-107545952D02*
X177166667Y-108117380D01*
X177166667Y-108117380D02*
X177785714Y-108117380D01*
%TO.C,R1*%
X152833333Y-107617380D02*
X152500000Y-107141190D01*
X152261905Y-107617380D02*
X152261905Y-106617380D01*
X152261905Y-106617380D02*
X152642857Y-106617380D01*
X152642857Y-106617380D02*
X152738095Y-106665000D01*
X152738095Y-106665000D02*
X152785714Y-106712619D01*
X152785714Y-106712619D02*
X152833333Y-106807857D01*
X152833333Y-106807857D02*
X152833333Y-106950714D01*
X152833333Y-106950714D02*
X152785714Y-107045952D01*
X152785714Y-107045952D02*
X152738095Y-107093571D01*
X152738095Y-107093571D02*
X152642857Y-107141190D01*
X152642857Y-107141190D02*
X152261905Y-107141190D01*
X153785714Y-107617380D02*
X153214286Y-107617380D01*
X153500000Y-107617380D02*
X153500000Y-106617380D01*
X153500000Y-106617380D02*
X153404762Y-106760238D01*
X153404762Y-106760238D02*
X153309524Y-106855476D01*
X153309524Y-106855476D02*
X153214286Y-106903095D01*
D11*
%TO.C,U1*%
X177225000Y-100800000D02*
G75*
G03*
X177225000Y-100800000I-200000J0D01*
G01*
%TO.C,J2*%
X159828000Y-102681000D02*
X159828000Y-101351000D01*
X161158000Y-102681000D02*
X159828000Y-102681000D01*
X162428000Y-102681000D02*
X165028000Y-102681000D01*
X162428000Y-102681000D02*
X162428000Y-100081000D01*
X165028000Y-102681000D02*
X165028000Y-97481000D01*
X159828000Y-100081000D02*
X159828000Y-97481000D01*
X162428000Y-100081000D02*
X159828000Y-100081000D01*
X159828000Y-97481000D02*
X165028000Y-97481000D01*
%TO.C,F2*%
X174853553Y-109429289D02*
X174429289Y-109853553D01*
X174641421Y-109641421D02*
X174358579Y-109358579D01*
%TO.C,F0*%
X155146447Y-90570711D02*
X155570711Y-90146447D01*
X155358579Y-90358579D02*
X155641421Y-90641421D01*
%TO.C,U0*%
X153175000Y-99200000D02*
G75*
G03*
X153175000Y-99200000I-200000J0D01*
G01*
%TO.C,F3*%
X174429289Y-90146447D02*
X174853553Y-90570711D01*
X174641421Y-90358579D02*
X174358579Y-90641421D01*
%TO.C,J1*%
X165035000Y-102681000D02*
X165035000Y-101351000D01*
X166365000Y-102681000D02*
X165035000Y-102681000D01*
X167635000Y-102681000D02*
X170235000Y-102681000D01*
X167635000Y-102681000D02*
X167635000Y-100081000D01*
X170235000Y-102681000D02*
X170235000Y-97481000D01*
X165035000Y-100081000D02*
X165035000Y-97481000D01*
X167635000Y-100081000D02*
X165035000Y-100081000D01*
X165035000Y-97481000D02*
X170235000Y-97481000D01*
%TO.C,F1*%
X155570711Y-109853553D02*
X155146447Y-109429289D01*
X155358579Y-109641421D02*
X155641421Y-109358579D01*
%TD*%
M02*
