%TF.GenerationSoftware,KiCad,Pcbnew,(7.0.0)*%
%TF.CreationDate,2023-11-14T12:37:06+01:00*%
%TF.ProjectId,Helios_PCB_receiver,48656c69-6f73-45f5-9043-425f72656365,rev?*%
%TF.SameCoordinates,Original*%
%TF.FileFunction,Copper,L1,Top*%
%TF.FilePolarity,Positive*%
%FSLAX46Y46*%
G04 Gerber Fmt 4.6, Leading zero omitted, Abs format (unit mm)*
G04 Created by KiCad (PCBNEW (7.0.0)) date 2023-11-14 12:37:06*
%MOMM*%
%LPD*%
G01*
G04 APERTURE LIST*
G04 Aperture macros list*
%AMRotRect*
0 Rectangle, with rotation*
0 The origin of the aperture is its center*
0 $1 length*
0 $2 width*
0 $3 Rotation angle, in degrees counterclockwise*
0 Add horizontal line*
21,1,$1,$2,0,0,$3*%
G04 Aperture macros list end*
%TA.AperFunction,SMDPad,CuDef*%
%ADD10R,0.500000X1.500000*%
%TD*%
%TA.AperFunction,ComponentPad*%
%ADD11R,1.700000X1.700000*%
%TD*%
%TA.AperFunction,ComponentPad*%
%ADD12O,1.700000X1.700000*%
%TD*%
%TA.AperFunction,SMDPad,CuDef*%
%ADD13R,0.700000X1.300000*%
%TD*%
%TA.AperFunction,SMDPad,CuDef*%
%ADD14RotRect,1.900000X0.400000X225.000000*%
%TD*%
%TA.AperFunction,SMDPad,CuDef*%
%ADD15RotRect,1.900000X0.400000X45.000000*%
%TD*%
%TA.AperFunction,SMDPad,CuDef*%
%ADD16RotRect,1.900000X0.400000X315.000000*%
%TD*%
%TA.AperFunction,SMDPad,CuDef*%
%ADD17RotRect,1.900000X0.400000X135.000000*%
%TD*%
%TA.AperFunction,ViaPad*%
%ADD18C,0.800000*%
%TD*%
%TA.AperFunction,Conductor*%
%ADD19C,0.250000*%
%TD*%
%TA.AperFunction,Conductor*%
%ADD20C,0.500000*%
%TD*%
G04 APERTURE END LIST*
D10*
%TO.P,U1,1,OA*%
%TO.N,O2*%
X177024999Y-102199999D03*
%TO.P,U1,2,-IA*%
%TO.N,Net-(F2-K)*%
X177674999Y-102199999D03*
%TO.P,U1,3,+IA*%
%TO.N,GND*%
X178324999Y-102199999D03*
%TO.P,U1,4,GND*%
X178974999Y-102199999D03*
%TO.P,U1,5,+IB*%
X178974999Y-97799999D03*
%TO.P,U1,6,-IB*%
%TO.N,Net-(F3-K)*%
X178324999Y-97799999D03*
%TO.P,U1,7,OB*%
%TO.N,O3*%
X177674999Y-97799999D03*
%TO.P,U1,8,VCC*%
%TO.N,VCC*%
X177024999Y-97799999D03*
%TD*%
D11*
%TO.P,J2,1,Pin_1*%
%TO.N,VCC*%
X161157999Y-101350999D03*
D12*
%TO.P,J2,2,Pin_2*%
%TO.N,GND*%
X161157999Y-98810999D03*
%TO.P,J2,3,Pin_3*%
%TO.N,VCC*%
X163697999Y-101350999D03*
%TO.P,J2,4,Pin_4*%
%TO.N,GND*%
X163697999Y-98810999D03*
%TD*%
D13*
%TO.P,R0,1*%
%TO.N,O0*%
X153949999Y-94249999D03*
%TO.P,R0,2*%
%TO.N,Net-(F0-K)*%
X152049999Y-94249999D03*
%TD*%
D14*
%TO.P,F2,1,K*%
%TO.N,Net-(F2-K)*%
X174994974Y-109994974D03*
%TO.P,F2,2,A*%
%TO.N,GND*%
X174005024Y-109005024D03*
%TD*%
D15*
%TO.P,F0,1,K*%
%TO.N,Net-(F0-K)*%
X155005024Y-90005024D03*
%TO.P,F0,2,A*%
%TO.N,GND*%
X155994974Y-90994974D03*
%TD*%
D13*
%TO.P,R3,1*%
%TO.N,O3*%
X176049999Y-94249999D03*
%TO.P,R3,2*%
%TO.N,Net-(F3-K)*%
X177949999Y-94249999D03*
%TD*%
D10*
%TO.P,U0,1,OA*%
%TO.N,O0*%
X152974999Y-97799999D03*
%TO.P,U0,2,-IA*%
%TO.N,Net-(F0-K)*%
X152324999Y-97799999D03*
%TO.P,U0,3,+IA*%
%TO.N,GND*%
X151674999Y-97799999D03*
%TO.P,U0,4,GND*%
X151024999Y-97799999D03*
%TO.P,U0,5,+IB*%
X151024999Y-102199999D03*
%TO.P,U0,6,-IB*%
%TO.N,Net-(F1-K)*%
X151674999Y-102199999D03*
%TO.P,U0,7,OB*%
%TO.N,O1*%
X152324999Y-102199999D03*
%TO.P,U0,8,VCC*%
%TO.N,VCC*%
X152974999Y-102199999D03*
%TD*%
D16*
%TO.P,F3,1,K*%
%TO.N,Net-(F3-K)*%
X174994974Y-90005024D03*
%TO.P,F3,2,A*%
%TO.N,GND*%
X174005024Y-90994974D03*
%TD*%
D11*
%TO.P,J1,1,Pin_1*%
%TO.N,O0*%
X166364999Y-101350999D03*
D12*
%TO.P,J1,2,Pin_2*%
%TO.N,O3*%
X166364999Y-98810999D03*
%TO.P,J1,3,Pin_3*%
%TO.N,O1*%
X168904999Y-101350999D03*
%TO.P,J1,4,Pin_4*%
%TO.N,O2*%
X168904999Y-98810999D03*
%TD*%
D17*
%TO.P,F1,1,K*%
%TO.N,Net-(F1-K)*%
X155005024Y-109994974D03*
%TO.P,F1,2,A*%
%TO.N,GND*%
X155994974Y-109005024D03*
%TD*%
D13*
%TO.P,R2,1*%
%TO.N,O2*%
X176049999Y-105999999D03*
%TO.P,R2,2*%
%TO.N,Net-(F2-K)*%
X177949999Y-105999999D03*
%TD*%
%TO.P,R1,1*%
%TO.N,O1*%
X153949999Y-105749999D03*
%TO.P,R1,2*%
%TO.N,Net-(F1-K)*%
X152049999Y-105749999D03*
%TD*%
D18*
%TO.N,VCC*%
X175750000Y-97800000D03*
%TD*%
D19*
%TO.N,Net-(F0-K)*%
X152050000Y-96050000D02*
X152050000Y-94250000D01*
X152325000Y-96325000D02*
X152050000Y-96050000D01*
X155005025Y-90005025D02*
X152050000Y-92960050D01*
X152325000Y-97800000D02*
X152325000Y-96325000D01*
X152050000Y-92960050D02*
X152050000Y-94250000D01*
%TO.N,Net-(F1-K)*%
X151675000Y-103675000D02*
X152050000Y-104050000D01*
X152050000Y-104050000D02*
X152050000Y-105750000D01*
X151675000Y-102200000D02*
X151675000Y-103675000D01*
X152050000Y-107039950D02*
X152050000Y-105750000D01*
X155005025Y-109994975D02*
X152050000Y-107039950D01*
%TO.N,Net-(F2-K)*%
X177950000Y-103700000D02*
X177950000Y-106000000D01*
X177950000Y-106000000D02*
X177950000Y-107039950D01*
X177950000Y-107039950D02*
X174994975Y-109994975D01*
X177675000Y-103425000D02*
X177950000Y-103700000D01*
X177675000Y-102200000D02*
X177675000Y-103425000D01*
%TO.N,Net-(F3-K)*%
X174994975Y-90005025D02*
X177950000Y-92960050D01*
X177950000Y-95900000D02*
X177950000Y-94250000D01*
X177950000Y-92960050D02*
X177950000Y-94250000D01*
X178325000Y-96275000D02*
X177950000Y-95900000D01*
X178325000Y-97800000D02*
X178325000Y-96275000D01*
%TO.N,O0*%
X165190000Y-100176000D02*
X155351000Y-100176000D01*
X153950000Y-94250000D02*
X153950000Y-95650000D01*
X166365000Y-101351000D02*
X165190000Y-100176000D01*
X155351000Y-100176000D02*
X152975000Y-97800000D01*
X153950000Y-95650000D02*
X152975000Y-96625000D01*
X152975000Y-96625000D02*
X152975000Y-97800000D01*
%TO.N,O1*%
X153074000Y-103974000D02*
X152325000Y-103225000D01*
X167640000Y-102616000D02*
X154432000Y-102616000D01*
X153950000Y-104850000D02*
X153550000Y-104450000D01*
X153950000Y-105750000D02*
X153950000Y-104850000D01*
X152325000Y-103225000D02*
X152325000Y-102200000D01*
X153550000Y-104450000D02*
X153074000Y-103974000D01*
X168905000Y-101351000D02*
X167640000Y-102616000D01*
X154432000Y-102616000D02*
X153074000Y-103974000D01*
%TO.N,O2*%
X172061000Y-98811000D02*
X175450000Y-102200000D01*
X175450000Y-102200000D02*
X177025000Y-102200000D01*
X176050000Y-104700000D02*
X177025000Y-103725000D01*
X176050000Y-106000000D02*
X176050000Y-104700000D01*
X168905000Y-98811000D02*
X172061000Y-98811000D01*
X177025000Y-103725000D02*
X177025000Y-102200000D01*
%TO.N,O3*%
X177675000Y-96800000D02*
X177675000Y-97800000D01*
X167767000Y-97409000D02*
X174752000Y-97409000D01*
X176050000Y-94250000D02*
X176050000Y-95175000D01*
X176050000Y-95175000D02*
X176518000Y-95643000D01*
X176518000Y-95643000D02*
X177675000Y-96800000D01*
X166365000Y-98811000D02*
X167767000Y-97409000D01*
X174752000Y-97409000D02*
X176518000Y-95643000D01*
D20*
%TO.N,VCC*%
X153025000Y-102150000D02*
X153025000Y-102200000D01*
X153976000Y-101351000D02*
X153824000Y-101351000D01*
X175750000Y-97800000D02*
X176975000Y-97800000D01*
X163698000Y-101351000D02*
X161158000Y-101351000D01*
X153824000Y-101351000D02*
X153025000Y-102150000D01*
X161158000Y-101351000D02*
X153976000Y-101351000D01*
%TD*%
%TA.AperFunction,Conductor*%
%TO.N,GND*%
G36*
X156529222Y-85336528D02*
G01*
X156576168Y-85383179D01*
X159926644Y-91197241D01*
X159962175Y-91258897D01*
X159979005Y-91321911D01*
X159962073Y-91384898D01*
X159915915Y-91430980D01*
X159780618Y-91508945D01*
X159780597Y-91508957D01*
X159779061Y-91509843D01*
X159777573Y-91510817D01*
X159777561Y-91510825D01*
X159304647Y-91820579D01*
X159304620Y-91820597D01*
X159303154Y-91821558D01*
X159301731Y-91822610D01*
X159301712Y-91822624D01*
X158847258Y-92158844D01*
X158847240Y-92158857D01*
X158845806Y-92159919D01*
X158844449Y-92161048D01*
X158844420Y-92161071D01*
X158409894Y-92522670D01*
X158409868Y-92522692D01*
X158408510Y-92523823D01*
X158407199Y-92525046D01*
X158407190Y-92525055D01*
X157994006Y-92910853D01*
X157992688Y-92912084D01*
X157991464Y-92913364D01*
X157991449Y-92913380D01*
X157600930Y-93322146D01*
X157599696Y-93323438D01*
X157598543Y-93324790D01*
X157598531Y-93324805D01*
X157231990Y-93755164D01*
X157231969Y-93755189D01*
X157230815Y-93756545D01*
X157229725Y-93757982D01*
X157229719Y-93757991D01*
X156888338Y-94208550D01*
X156888328Y-94208563D01*
X156887246Y-94209992D01*
X156886240Y-94211489D01*
X156886238Y-94211493D01*
X156571102Y-94680822D01*
X156571084Y-94680848D01*
X156570108Y-94682304D01*
X156569208Y-94683824D01*
X156569205Y-94683830D01*
X156281347Y-95170398D01*
X156281334Y-95170420D01*
X156280435Y-95171941D01*
X156279616Y-95173524D01*
X156279605Y-95173545D01*
X156020005Y-95675692D01*
X156019992Y-95675717D01*
X156019171Y-95677307D01*
X156018443Y-95678936D01*
X156018429Y-95678966D01*
X155787908Y-96195094D01*
X155787898Y-96195116D01*
X155787166Y-96196757D01*
X155786527Y-96198437D01*
X155786523Y-96198449D01*
X155589924Y-96716098D01*
X155585177Y-96728598D01*
X155584646Y-96730278D01*
X155584634Y-96730314D01*
X155504414Y-96984360D01*
X155504414Y-96984362D01*
X155499534Y-96999817D01*
X155499459Y-97000000D01*
X155499468Y-97000022D01*
X155499373Y-97000326D01*
X155499825Y-97000468D01*
X155499901Y-97000500D01*
X155499923Y-97000499D01*
X155500326Y-97000627D01*
X155500366Y-97000499D01*
X167419295Y-96992097D01*
X167476523Y-97005798D01*
X167521289Y-97043993D01*
X167543827Y-97098351D01*
X167539223Y-97157016D01*
X167508479Y-97207192D01*
X166906475Y-97809196D01*
X166865600Y-97836509D01*
X166817385Y-97846101D01*
X166771046Y-97836886D01*
X166768954Y-97835768D01*
X166668388Y-97805262D01*
X166576859Y-97777497D01*
X166576856Y-97777496D01*
X166570934Y-97775700D01*
X166564774Y-97775093D01*
X166564768Y-97775092D01*
X166371163Y-97756024D01*
X166365000Y-97755417D01*
X166358837Y-97756024D01*
X166165231Y-97775092D01*
X166165223Y-97775093D01*
X166159066Y-97775700D01*
X166153145Y-97777495D01*
X166153140Y-97777497D01*
X165966964Y-97833972D01*
X165966956Y-97833975D01*
X165961046Y-97835768D01*
X165955600Y-97838678D01*
X165955590Y-97838683D01*
X165784006Y-97930398D01*
X165784000Y-97930401D01*
X165778550Y-97933315D01*
X165773773Y-97937235D01*
X165773769Y-97937238D01*
X165623369Y-98060667D01*
X165623363Y-98060672D01*
X165618590Y-98064590D01*
X165614672Y-98069363D01*
X165614667Y-98069369D01*
X165491238Y-98219769D01*
X165491235Y-98219773D01*
X165487315Y-98224550D01*
X165484401Y-98230000D01*
X165484398Y-98230006D01*
X165392683Y-98401590D01*
X165392678Y-98401600D01*
X165389768Y-98407046D01*
X165387975Y-98412956D01*
X165387972Y-98412964D01*
X165331497Y-98599140D01*
X165331495Y-98599145D01*
X165329700Y-98605066D01*
X165329093Y-98611223D01*
X165329092Y-98611231D01*
X165315479Y-98749455D01*
X165309417Y-98811000D01*
X165310024Y-98817163D01*
X165329092Y-99010768D01*
X165329093Y-99010774D01*
X165329700Y-99016934D01*
X165331496Y-99022856D01*
X165331497Y-99022859D01*
X165387972Y-99209035D01*
X165387973Y-99209039D01*
X165389768Y-99214954D01*
X165392680Y-99220402D01*
X165392683Y-99220409D01*
X165473204Y-99371051D01*
X165487315Y-99397450D01*
X165618590Y-99557410D01*
X165778550Y-99688685D01*
X165869797Y-99737458D01*
X165955590Y-99783316D01*
X165955592Y-99783317D01*
X165961046Y-99786232D01*
X166159066Y-99846300D01*
X166365000Y-99866583D01*
X166570934Y-99846300D01*
X166768954Y-99786232D01*
X166951450Y-99688685D01*
X167111410Y-99557410D01*
X167242685Y-99397450D01*
X167340232Y-99214954D01*
X167400300Y-99016934D01*
X167420583Y-98811000D01*
X167400300Y-98605066D01*
X167340232Y-98407046D01*
X167339115Y-98404958D01*
X167329897Y-98358623D01*
X167339487Y-98310403D01*
X167366799Y-98269526D01*
X167864922Y-97771404D01*
X167905800Y-97744091D01*
X167954018Y-97734500D01*
X168208660Y-97734500D01*
X168268056Y-97749378D01*
X168313425Y-97790498D01*
X168334053Y-97848150D01*
X168325069Y-97908718D01*
X168288593Y-97957900D01*
X168163368Y-98060668D01*
X168163363Y-98060672D01*
X168158590Y-98064590D01*
X168154672Y-98069363D01*
X168154667Y-98069369D01*
X168031238Y-98219769D01*
X168031235Y-98219773D01*
X168027315Y-98224550D01*
X168024401Y-98230000D01*
X168024398Y-98230006D01*
X167932683Y-98401590D01*
X167932678Y-98401600D01*
X167929768Y-98407046D01*
X167927975Y-98412956D01*
X167927972Y-98412964D01*
X167871497Y-98599140D01*
X167871495Y-98599145D01*
X167869700Y-98605066D01*
X167869093Y-98611223D01*
X167869092Y-98611231D01*
X167855479Y-98749455D01*
X167849417Y-98811000D01*
X167850024Y-98817163D01*
X167869092Y-99010768D01*
X167869093Y-99010774D01*
X167869700Y-99016934D01*
X167871496Y-99022856D01*
X167871497Y-99022859D01*
X167927972Y-99209035D01*
X167927973Y-99209039D01*
X167929768Y-99214954D01*
X167932680Y-99220402D01*
X167932683Y-99220409D01*
X168013204Y-99371051D01*
X168027315Y-99397450D01*
X168158590Y-99557410D01*
X168318550Y-99688685D01*
X168409797Y-99737458D01*
X168495590Y-99783316D01*
X168495592Y-99783317D01*
X168501046Y-99786232D01*
X168699066Y-99846300D01*
X168905000Y-99866583D01*
X169110934Y-99846300D01*
X169308954Y-99786232D01*
X169491450Y-99688685D01*
X169651410Y-99557410D01*
X169782685Y-99397450D01*
X169880232Y-99214954D01*
X169880920Y-99212683D01*
X169907170Y-99173402D01*
X169948046Y-99146091D01*
X169996263Y-99136500D01*
X171873984Y-99136500D01*
X171922202Y-99146091D01*
X171963079Y-99173405D01*
X175205889Y-102416215D01*
X175213316Y-102424319D01*
X175237545Y-102453194D01*
X175270186Y-102472039D01*
X175279443Y-102477936D01*
X175310316Y-102499554D01*
X175320970Y-102502408D01*
X175324133Y-102503883D01*
X175327404Y-102505073D01*
X175336955Y-102510588D01*
X175374063Y-102517131D01*
X175384772Y-102519504D01*
X175421193Y-102529264D01*
X175458742Y-102525979D01*
X175469724Y-102525500D01*
X176448500Y-102525500D01*
X176511500Y-102542381D01*
X176557619Y-102588500D01*
X176574500Y-102651500D01*
X176574500Y-102969748D01*
X176575706Y-102975815D01*
X176575707Y-102975816D01*
X176583624Y-103015620D01*
X176586133Y-103028231D01*
X176593025Y-103038546D01*
X176593026Y-103038547D01*
X176610685Y-103064976D01*
X176630448Y-103094552D01*
X176640761Y-103101443D01*
X176640764Y-103101446D01*
X176643501Y-103103275D01*
X176684622Y-103148644D01*
X176699500Y-103208040D01*
X176699500Y-103537983D01*
X176689909Y-103586201D01*
X176662597Y-103627075D01*
X176230940Y-104058733D01*
X175833787Y-104455886D01*
X175825686Y-104463309D01*
X175805252Y-104480455D01*
X175805244Y-104480464D01*
X175796806Y-104487545D01*
X175791295Y-104497089D01*
X175791294Y-104497091D01*
X175777964Y-104520178D01*
X175772063Y-104529441D01*
X175756766Y-104551288D01*
X175756763Y-104551293D01*
X175750446Y-104560316D01*
X175747595Y-104570952D01*
X175746120Y-104574117D01*
X175744920Y-104577413D01*
X175739412Y-104586955D01*
X175737498Y-104597807D01*
X175737498Y-104597808D01*
X175732869Y-104624056D01*
X175730492Y-104634779D01*
X175723589Y-104660542D01*
X175723588Y-104660546D01*
X175720736Y-104671193D01*
X175721696Y-104682175D01*
X175721697Y-104682175D01*
X175724020Y-104708728D01*
X175724500Y-104719710D01*
X175724500Y-105037293D01*
X175711506Y-105093021D01*
X175675205Y-105137255D01*
X175644287Y-105151263D01*
X175645405Y-105153963D01*
X175633938Y-105158712D01*
X175621769Y-105161133D01*
X175611454Y-105168024D01*
X175611452Y-105168026D01*
X175565761Y-105198556D01*
X175565758Y-105198558D01*
X175555448Y-105205448D01*
X175548558Y-105215758D01*
X175548556Y-105215761D01*
X175518026Y-105261452D01*
X175518024Y-105261454D01*
X175511133Y-105271769D01*
X175508712Y-105283937D01*
X175508712Y-105283939D01*
X175500707Y-105324183D01*
X175499500Y-105330252D01*
X175499500Y-106669748D01*
X175500706Y-106675815D01*
X175500707Y-106675816D01*
X175507782Y-106711387D01*
X175511133Y-106728231D01*
X175555448Y-106794552D01*
X175621769Y-106838867D01*
X175680252Y-106850500D01*
X176124000Y-106850500D01*
X176187000Y-106867381D01*
X176233119Y-106913500D01*
X176250000Y-106976500D01*
X176250000Y-108227432D01*
X176240409Y-108275650D01*
X176213095Y-108316528D01*
X175853905Y-108675716D01*
X175797421Y-108708327D01*
X175732199Y-108708327D01*
X175675715Y-108675715D01*
X175310341Y-108310341D01*
X175284822Y-108273589D01*
X175253219Y-108204389D01*
X175245002Y-108191087D01*
X175213886Y-108152473D01*
X175209376Y-108147453D01*
X174862596Y-107800673D01*
X174857576Y-107796163D01*
X174818962Y-107765047D01*
X174805653Y-107756826D01*
X174688144Y-107703160D01*
X174671029Y-107698134D01*
X174544272Y-107679910D01*
X174526438Y-107679910D01*
X174399680Y-107698134D01*
X174382565Y-107703160D01*
X174265056Y-107756826D01*
X174251747Y-107765047D01*
X174213133Y-107796163D01*
X174212833Y-107796433D01*
X174207305Y-107804706D01*
X174205025Y-107816172D01*
X174205025Y-109079025D01*
X174188144Y-109142025D01*
X174142025Y-109188144D01*
X174079025Y-109205025D01*
X172816172Y-109205025D01*
X172804706Y-109207305D01*
X172796433Y-109212833D01*
X172796163Y-109213133D01*
X172765047Y-109251747D01*
X172756826Y-109265056D01*
X172703160Y-109382565D01*
X172698134Y-109399680D01*
X172679910Y-109526438D01*
X172679910Y-109544272D01*
X172698134Y-109671029D01*
X172703160Y-109688144D01*
X172756826Y-109805653D01*
X172765047Y-109818962D01*
X172796163Y-109857576D01*
X172800673Y-109862596D01*
X173147453Y-110209376D01*
X173152473Y-110213886D01*
X173191087Y-110245002D01*
X173204389Y-110253219D01*
X173273589Y-110284822D01*
X173310341Y-110310341D01*
X174250000Y-111250000D01*
X174466056Y-111033942D01*
X174495756Y-111011917D01*
X174530567Y-110999463D01*
X174542876Y-110997015D01*
X174592456Y-110963887D01*
X175963887Y-109592456D01*
X175997015Y-109542876D01*
X175999463Y-109530567D01*
X176011917Y-109495756D01*
X176033942Y-109466056D01*
X176250000Y-109250000D01*
X176246856Y-109246856D01*
X176248107Y-109244690D01*
X176255298Y-109208541D01*
X176282612Y-109167664D01*
X177222844Y-108227432D01*
X178166235Y-107284040D01*
X178174305Y-107276644D01*
X178203194Y-107252405D01*
X178222038Y-107219765D01*
X178227947Y-107210490D01*
X178243229Y-107188665D01*
X178249553Y-107179634D01*
X178252407Y-107168981D01*
X178253880Y-107165823D01*
X178255071Y-107162549D01*
X178260588Y-107152995D01*
X178267132Y-107115878D01*
X178269509Y-107105156D01*
X178279263Y-107068757D01*
X178275979Y-107031219D01*
X178275500Y-107020238D01*
X178275500Y-106962707D01*
X178288494Y-106906979D01*
X178324795Y-106862745D01*
X178355712Y-106848736D01*
X178354595Y-106846037D01*
X178366059Y-106841288D01*
X178378231Y-106838867D01*
X178444552Y-106794552D01*
X178488867Y-106728231D01*
X178500500Y-106669748D01*
X178500500Y-105330252D01*
X178488867Y-105271769D01*
X178444552Y-105205448D01*
X178378231Y-105161133D01*
X178366060Y-105158712D01*
X178354595Y-105153963D01*
X178355712Y-105151263D01*
X178324795Y-105137255D01*
X178288494Y-105093021D01*
X178275500Y-105037293D01*
X178275500Y-103719710D01*
X178275980Y-103708728D01*
X178276036Y-103708082D01*
X178279264Y-103671193D01*
X178269504Y-103634772D01*
X178267130Y-103624059D01*
X178260588Y-103586955D01*
X178255073Y-103577404D01*
X178253883Y-103574133D01*
X178252408Y-103570970D01*
X178249554Y-103560316D01*
X178227936Y-103529443D01*
X178222039Y-103520186D01*
X178203194Y-103487545D01*
X178174317Y-103463314D01*
X178166214Y-103455888D01*
X178151736Y-103441410D01*
X178575000Y-103441410D01*
X178578506Y-103454493D01*
X178591590Y-103458000D01*
X178620224Y-103458000D01*
X178626932Y-103457640D01*
X178636519Y-103456609D01*
X178663477Y-103456609D01*
X178673062Y-103457640D01*
X178679776Y-103458000D01*
X178708410Y-103458000D01*
X178721493Y-103454493D01*
X178725000Y-103441410D01*
X179225000Y-103441410D01*
X179228506Y-103454493D01*
X179241590Y-103458000D01*
X179270223Y-103458000D01*
X179276938Y-103457640D01*
X179326257Y-103452337D01*
X179341478Y-103448740D01*
X179462519Y-103403594D01*
X179478175Y-103395045D01*
X179580692Y-103318302D01*
X179593302Y-103305692D01*
X179670045Y-103203175D01*
X179678594Y-103187519D01*
X179723740Y-103066478D01*
X179727337Y-103051257D01*
X179732640Y-103001938D01*
X179733000Y-102995223D01*
X179733000Y-102466590D01*
X179729493Y-102453506D01*
X179716410Y-102450000D01*
X179241590Y-102450000D01*
X179228506Y-102453506D01*
X179225000Y-102466590D01*
X179225000Y-103441410D01*
X178725000Y-103441410D01*
X178725000Y-102466590D01*
X178721493Y-102453506D01*
X178708410Y-102450000D01*
X178591590Y-102450000D01*
X178578506Y-102453506D01*
X178575000Y-102466590D01*
X178575000Y-103441410D01*
X178151736Y-103441410D01*
X178111905Y-103401579D01*
X178084591Y-103360702D01*
X178075000Y-103312484D01*
X178075000Y-103124621D01*
X178080426Y-103088045D01*
X178096235Y-103054619D01*
X178098481Y-103051257D01*
X178113867Y-103028231D01*
X178125500Y-102969748D01*
X178125500Y-102076000D01*
X178142381Y-102013000D01*
X178188500Y-101966881D01*
X178251500Y-101950000D01*
X179716410Y-101950000D01*
X179729493Y-101946493D01*
X179733000Y-101933410D01*
X179733000Y-101813119D01*
X179739404Y-101780921D01*
X179737412Y-101780388D01*
X179745555Y-101750000D01*
X179750000Y-101750000D01*
X179750000Y-98250000D01*
X179745555Y-98250000D01*
X179737412Y-98219612D01*
X179739404Y-98219078D01*
X179733000Y-98186881D01*
X179733000Y-98066590D01*
X179729493Y-98053506D01*
X179716410Y-98050000D01*
X178901500Y-98050000D01*
X178838500Y-98033119D01*
X178792381Y-97987000D01*
X178775500Y-97924000D01*
X178775500Y-97533410D01*
X179225000Y-97533410D01*
X179228506Y-97546493D01*
X179241590Y-97550000D01*
X179716410Y-97550000D01*
X179729493Y-97546493D01*
X179733000Y-97533410D01*
X179733000Y-97004777D01*
X179732640Y-96998061D01*
X179727337Y-96948742D01*
X179723740Y-96933521D01*
X179678594Y-96812480D01*
X179670045Y-96796824D01*
X179593302Y-96694307D01*
X179580692Y-96681697D01*
X179478175Y-96604954D01*
X179462519Y-96596405D01*
X179341478Y-96551259D01*
X179326257Y-96547662D01*
X179276938Y-96542359D01*
X179270223Y-96542000D01*
X179241590Y-96542000D01*
X179228506Y-96545506D01*
X179225000Y-96558590D01*
X179225000Y-97533410D01*
X178775500Y-97533410D01*
X178775500Y-97036439D01*
X178775500Y-97030252D01*
X178763867Y-96971769D01*
X178746235Y-96945381D01*
X178730426Y-96911955D01*
X178725000Y-96875379D01*
X178725000Y-96558590D01*
X178721149Y-96544220D01*
X178711656Y-96534727D01*
X178695511Y-96526323D01*
X178662306Y-96483051D01*
X178650500Y-96429800D01*
X178650500Y-96294710D01*
X178650980Y-96283728D01*
X178652841Y-96262455D01*
X178654264Y-96246193D01*
X178644504Y-96209772D01*
X178642130Y-96199059D01*
X178642070Y-96198718D01*
X178635588Y-96161955D01*
X178630073Y-96152404D01*
X178628883Y-96149133D01*
X178627408Y-96145970D01*
X178624554Y-96135316D01*
X178602936Y-96104443D01*
X178597039Y-96095186D01*
X178578194Y-96062545D01*
X178549317Y-96038314D01*
X178541214Y-96030888D01*
X178312405Y-95802079D01*
X178285091Y-95761202D01*
X178275500Y-95712984D01*
X178275500Y-95212707D01*
X178288494Y-95156979D01*
X178324795Y-95112745D01*
X178355712Y-95098736D01*
X178354595Y-95096037D01*
X178366059Y-95091288D01*
X178378231Y-95088867D01*
X178444552Y-95044552D01*
X178488867Y-94978231D01*
X178500500Y-94919748D01*
X178500500Y-93580252D01*
X178488867Y-93521769D01*
X178444552Y-93455448D01*
X178420485Y-93439367D01*
X178388547Y-93418026D01*
X178388546Y-93418025D01*
X178378231Y-93411133D01*
X178366060Y-93408712D01*
X178354595Y-93403963D01*
X178355712Y-93401263D01*
X178324795Y-93387255D01*
X178288494Y-93343021D01*
X178275500Y-93287293D01*
X178275500Y-92979748D01*
X178275980Y-92968766D01*
X178276017Y-92968337D01*
X178279263Y-92931243D01*
X178269506Y-92894829D01*
X178267132Y-92884120D01*
X178262502Y-92857861D01*
X178260588Y-92847005D01*
X178255074Y-92837455D01*
X178253883Y-92834181D01*
X178252406Y-92831014D01*
X178249553Y-92820366D01*
X178227941Y-92789500D01*
X178222035Y-92780229D01*
X178208707Y-92757143D01*
X178208705Y-92757140D01*
X178203194Y-92747595D01*
X178194751Y-92740510D01*
X178194749Y-92740508D01*
X178174323Y-92723369D01*
X178166220Y-92715943D01*
X176282611Y-90832334D01*
X176255296Y-90791455D01*
X176248107Y-90755310D01*
X176246856Y-90753143D01*
X176250000Y-90750000D01*
X176033946Y-90533945D01*
X176011917Y-90504243D01*
X175999463Y-90469435D01*
X175997015Y-90457124D01*
X175963887Y-90407544D01*
X174592456Y-89036113D01*
X174542876Y-89002985D01*
X174530704Y-89000563D01*
X174530702Y-89000563D01*
X174530562Y-89000535D01*
X174495749Y-88988078D01*
X174466052Y-88966052D01*
X174261729Y-88761729D01*
X174250000Y-88750000D01*
X174238273Y-88761726D01*
X174238271Y-88761728D01*
X173310339Y-89689659D01*
X173273588Y-89715176D01*
X173204395Y-89746776D01*
X173191087Y-89754997D01*
X173152473Y-89786113D01*
X173147453Y-89790623D01*
X172800673Y-90137403D01*
X172796163Y-90142423D01*
X172765047Y-90181037D01*
X172756826Y-90194346D01*
X172703160Y-90311855D01*
X172698134Y-90328970D01*
X172679910Y-90455728D01*
X172679910Y-90473562D01*
X172698134Y-90600319D01*
X172703160Y-90617434D01*
X172756826Y-90734943D01*
X172765047Y-90748252D01*
X172796163Y-90786866D01*
X172796433Y-90787166D01*
X172804706Y-90792694D01*
X172816172Y-90794975D01*
X174079025Y-90794975D01*
X174142025Y-90811856D01*
X174188144Y-90857975D01*
X174205025Y-90920975D01*
X174205025Y-92183828D01*
X174207305Y-92195293D01*
X174212833Y-92203566D01*
X174213133Y-92203836D01*
X174251747Y-92234952D01*
X174265056Y-92243173D01*
X174382565Y-92296839D01*
X174399680Y-92301865D01*
X174526438Y-92320090D01*
X174544272Y-92320090D01*
X174671029Y-92301865D01*
X174688144Y-92296839D01*
X174805653Y-92243173D01*
X174818962Y-92234952D01*
X174857576Y-92203836D01*
X174862596Y-92199326D01*
X175209376Y-91852546D01*
X175213886Y-91847526D01*
X175245000Y-91808915D01*
X175253225Y-91795600D01*
X175284822Y-91726411D01*
X175310334Y-91689665D01*
X175675718Y-91324280D01*
X175732200Y-91291671D01*
X175797422Y-91291671D01*
X175853906Y-91324283D01*
X176213095Y-91683472D01*
X176240409Y-91724349D01*
X176250000Y-91772567D01*
X176250000Y-93273500D01*
X176233119Y-93336500D01*
X176187000Y-93382619D01*
X176124000Y-93399500D01*
X175680252Y-93399500D01*
X175674184Y-93400706D01*
X175674183Y-93400707D01*
X175633939Y-93408712D01*
X175633937Y-93408712D01*
X175621769Y-93411133D01*
X175611454Y-93418024D01*
X175611452Y-93418026D01*
X175565761Y-93448556D01*
X175565758Y-93448558D01*
X175555448Y-93455448D01*
X175548558Y-93465758D01*
X175548556Y-93465761D01*
X175518026Y-93511452D01*
X175518024Y-93511454D01*
X175511133Y-93521769D01*
X175508712Y-93533937D01*
X175508712Y-93533939D01*
X175500707Y-93574183D01*
X175499500Y-93580252D01*
X175499500Y-94919748D01*
X175511133Y-94978231D01*
X175555448Y-95044552D01*
X175621769Y-95088867D01*
X175633941Y-95091288D01*
X175645140Y-95095927D01*
X175698534Y-95137830D01*
X175721231Y-95198138D01*
X175720736Y-95203807D01*
X175723588Y-95214451D01*
X175730492Y-95240218D01*
X175732870Y-95250946D01*
X175737497Y-95277189D01*
X175737498Y-95277192D01*
X175739412Y-95288045D01*
X175744920Y-95297585D01*
X175746113Y-95300863D01*
X175747592Y-95304036D01*
X175750446Y-95314684D01*
X175756769Y-95323715D01*
X175756771Y-95323718D01*
X175772056Y-95345548D01*
X175777961Y-95354816D01*
X175796806Y-95387455D01*
X175805247Y-95394538D01*
X175805249Y-95394540D01*
X175825681Y-95411684D01*
X175833785Y-95419111D01*
X175968579Y-95553905D01*
X176001191Y-95610389D01*
X176001191Y-95675611D01*
X175968579Y-95732095D01*
X174730844Y-96969829D01*
X174675697Y-97002074D01*
X174611824Y-97003129D01*
X174555643Y-96972722D01*
X174521595Y-96918669D01*
X174483126Y-96796824D01*
X174457104Y-96714402D01*
X174254593Y-96181036D01*
X174022028Y-95660072D01*
X174013208Y-95643000D01*
X173760983Y-95154782D01*
X173760979Y-95154776D01*
X173760166Y-95153201D01*
X173469857Y-94662069D01*
X173152042Y-94188272D01*
X172807755Y-93733347D01*
X172438113Y-93298773D01*
X172133796Y-92979760D01*
X172045550Y-92887252D01*
X172045540Y-92887242D01*
X172044317Y-92885960D01*
X171627646Y-92496248D01*
X171324107Y-92243173D01*
X171190834Y-92132057D01*
X171190828Y-92132053D01*
X171189452Y-92130905D01*
X171188017Y-92129841D01*
X171188003Y-92129830D01*
X170732611Y-91792192D01*
X170732604Y-91792187D01*
X170731158Y-91791115D01*
X170541431Y-91666541D01*
X170255773Y-91478979D01*
X170255763Y-91478973D01*
X170254254Y-91477982D01*
X170252701Y-91477085D01*
X170252687Y-91477076D01*
X170168192Y-91428255D01*
X170116457Y-91398362D01*
X170070418Y-91352338D01*
X170053495Y-91289478D01*
X170070205Y-91226562D01*
X170087028Y-91197241D01*
X173209234Y-91197241D01*
X173214308Y-91205521D01*
X173794478Y-91785691D01*
X173802758Y-91790765D01*
X173805025Y-91781324D01*
X173805025Y-91211565D01*
X173801518Y-91198481D01*
X173788435Y-91194975D01*
X173218676Y-91194975D01*
X173209234Y-91197241D01*
X170087028Y-91197241D01*
X173422685Y-85383511D01*
X173469611Y-85336733D01*
X173533786Y-85320232D01*
X173597458Y-85338573D01*
X174175822Y-85690429D01*
X174180853Y-85693656D01*
X174661767Y-86018578D01*
X174661910Y-86018737D01*
X174661939Y-86018695D01*
X174853484Y-86148573D01*
X174858187Y-86151922D01*
X175271481Y-86460811D01*
X175509196Y-86639504D01*
X175513531Y-86642918D01*
X175800374Y-86879401D01*
X175890131Y-86953400D01*
X175890507Y-86953712D01*
X176140375Y-87161345D01*
X176144537Y-87164960D01*
X176494330Y-87482499D01*
X176494615Y-87482760D01*
X176494908Y-87483028D01*
X176745740Y-87713024D01*
X176749622Y-87716739D01*
X177076899Y-88043587D01*
X177077441Y-88044132D01*
X177323804Y-88293190D01*
X177327407Y-88296986D01*
X177552629Y-88544432D01*
X177634296Y-88634158D01*
X177634871Y-88634795D01*
X177873256Y-88900524D01*
X177876581Y-88904384D01*
X178163858Y-89251908D01*
X178164522Y-89252718D01*
X178392808Y-89533601D01*
X178395857Y-89537507D01*
X178664045Y-89895364D01*
X178664752Y-89896317D01*
X178881254Y-90190949D01*
X178884031Y-90194883D01*
X179133269Y-90562739D01*
X179134007Y-90563841D01*
X179337465Y-90871044D01*
X179339974Y-90874990D01*
X179570202Y-91252315D01*
X179570958Y-91253570D01*
X179760392Y-91572317D01*
X179762621Y-91576226D01*
X179973765Y-91962524D01*
X179974508Y-91963904D01*
X180149012Y-92293065D01*
X180151004Y-92296985D01*
X180342878Y-92691597D01*
X180343630Y-92693172D01*
X180502492Y-93031732D01*
X180504235Y-93035616D01*
X180676617Y-93437793D01*
X180677346Y-93439531D01*
X180819951Y-93786475D01*
X180821455Y-93790308D01*
X180974169Y-94199378D01*
X180974861Y-94201280D01*
X181100718Y-94555684D01*
X181101990Y-94559453D01*
X181141297Y-94682304D01*
X181234780Y-94974483D01*
X181235402Y-94976488D01*
X181267166Y-95081972D01*
X181344098Y-95337459D01*
X181345149Y-95341151D01*
X181457855Y-95761410D01*
X181458431Y-95763640D01*
X181549540Y-96130009D01*
X181550380Y-96133612D01*
X181585325Y-96294111D01*
X181639374Y-96542359D01*
X181642844Y-96558294D01*
X181643340Y-96560686D01*
X181716578Y-96931521D01*
X181717219Y-96935022D01*
X181726825Y-96992097D01*
X181785851Y-97342813D01*
X181789272Y-97363136D01*
X181789674Y-97365687D01*
X181844827Y-97740131D01*
X181845279Y-97743521D01*
X181896819Y-98174223D01*
X181897114Y-98176929D01*
X181933987Y-98553929D01*
X181934263Y-98557198D01*
X181965222Y-98989701D01*
X181965394Y-98992557D01*
X181983854Y-99370956D01*
X181983968Y-99374095D01*
X181994296Y-99807549D01*
X181994332Y-99810550D01*
X181994332Y-100189450D01*
X181994296Y-100192451D01*
X181983968Y-100625903D01*
X181983854Y-100629042D01*
X181965394Y-101007441D01*
X181965222Y-101010297D01*
X181934263Y-101442800D01*
X181933987Y-101446069D01*
X181897114Y-101823069D01*
X181896819Y-101825775D01*
X181845279Y-102256477D01*
X181844827Y-102259867D01*
X181789674Y-102634311D01*
X181789272Y-102636862D01*
X181717219Y-103064976D01*
X181716578Y-103068477D01*
X181643340Y-103439312D01*
X181642844Y-103441704D01*
X181550380Y-103866386D01*
X181549540Y-103869989D01*
X181458431Y-104236358D01*
X181457855Y-104238588D01*
X181345149Y-104658847D01*
X181344098Y-104662539D01*
X181235410Y-105023486D01*
X181234768Y-105025553D01*
X181101990Y-105440545D01*
X181100718Y-105444314D01*
X180974861Y-105798718D01*
X180974169Y-105800620D01*
X180821455Y-106209690D01*
X180819951Y-106213523D01*
X180677346Y-106560467D01*
X180676617Y-106562205D01*
X180504235Y-106964382D01*
X180502492Y-106968266D01*
X180343630Y-107306826D01*
X180342878Y-107308401D01*
X180151004Y-107703013D01*
X180149012Y-107706933D01*
X179974508Y-108036094D01*
X179973747Y-108037508D01*
X179762639Y-108423740D01*
X179760392Y-108427681D01*
X179570958Y-108746428D01*
X179570202Y-108747683D01*
X179339974Y-109125008D01*
X179337465Y-109128954D01*
X179134007Y-109436157D01*
X179133269Y-109437259D01*
X178884031Y-109805115D01*
X178881254Y-109809049D01*
X178664752Y-110103681D01*
X178664045Y-110104634D01*
X178395857Y-110462491D01*
X178392808Y-110466397D01*
X178164522Y-110747280D01*
X178163858Y-110748090D01*
X177876581Y-111095614D01*
X177873256Y-111099474D01*
X177634871Y-111365203D01*
X177634263Y-111365877D01*
X177327407Y-111703012D01*
X177323804Y-111706808D01*
X177077441Y-111955866D01*
X177076899Y-111956411D01*
X176749622Y-112283259D01*
X176745740Y-112286974D01*
X176494710Y-112517152D01*
X176494245Y-112517576D01*
X176144537Y-112835038D01*
X176140375Y-112838653D01*
X175890507Y-113046286D01*
X175890131Y-113046598D01*
X175513570Y-113357050D01*
X175509128Y-113360547D01*
X175271866Y-113538899D01*
X175271587Y-113539109D01*
X174858203Y-113848065D01*
X174853485Y-113851425D01*
X174661940Y-113981304D01*
X174661766Y-113981421D01*
X174180863Y-114306336D01*
X174175811Y-114309577D01*
X173597255Y-114661548D01*
X173533659Y-114679889D01*
X173469541Y-114663465D01*
X173422595Y-114616809D01*
X170072614Y-108802758D01*
X173209234Y-108802758D01*
X173218676Y-108805025D01*
X173788435Y-108805025D01*
X173801518Y-108801518D01*
X173805025Y-108788435D01*
X173805025Y-108218676D01*
X173802758Y-108209234D01*
X173794478Y-108214308D01*
X173214308Y-108794478D01*
X173209234Y-108802758D01*
X170072614Y-108802758D01*
X170037270Y-108741416D01*
X170020445Y-108678403D01*
X170037382Y-108615417D01*
X170083540Y-108569340D01*
X170220424Y-108490473D01*
X170696391Y-108178759D01*
X171153795Y-107840394D01*
X171591146Y-107476480D01*
X172007020Y-107088204D01*
X172400061Y-106676831D01*
X172768988Y-106243700D01*
X173112600Y-105790224D01*
X173429776Y-105317880D01*
X173719483Y-104828207D01*
X173980777Y-104322802D01*
X174212807Y-103803310D01*
X174414816Y-103271424D01*
X174500465Y-103000182D01*
X174500541Y-103000000D01*
X174500531Y-102999977D01*
X174500627Y-102999674D01*
X174500169Y-102999529D01*
X174500098Y-102999500D01*
X174500076Y-102999500D01*
X174499674Y-102999373D01*
X174499633Y-102999500D01*
X174481283Y-102999515D01*
X168015802Y-103004816D01*
X167958570Y-102991120D01*
X167913799Y-102952927D01*
X167891257Y-102898567D01*
X167895860Y-102839899D01*
X167926602Y-102789722D01*
X168363526Y-102352799D01*
X168404403Y-102325487D01*
X168452624Y-102315897D01*
X168498958Y-102325115D01*
X168501046Y-102326232D01*
X168699066Y-102386300D01*
X168905000Y-102406583D01*
X169110934Y-102386300D01*
X169308954Y-102326232D01*
X169491450Y-102228685D01*
X169651410Y-102097410D01*
X169782685Y-101937450D01*
X169880232Y-101754954D01*
X169940300Y-101556934D01*
X169960583Y-101351000D01*
X169940300Y-101145066D01*
X169880232Y-100947046D01*
X169868655Y-100925388D01*
X169821678Y-100837500D01*
X169782685Y-100764550D01*
X169651410Y-100604590D01*
X169613682Y-100573628D01*
X169529208Y-100504302D01*
X169491450Y-100473315D01*
X169455206Y-100453942D01*
X169314409Y-100378683D01*
X169314402Y-100378680D01*
X169308954Y-100375768D01*
X169303039Y-100373973D01*
X169303035Y-100373972D01*
X169116859Y-100317497D01*
X169116856Y-100317496D01*
X169110934Y-100315700D01*
X169104774Y-100315093D01*
X169104768Y-100315092D01*
X168911163Y-100296024D01*
X168905000Y-100295417D01*
X168898837Y-100296024D01*
X168705231Y-100315092D01*
X168705223Y-100315093D01*
X168699066Y-100315700D01*
X168693145Y-100317495D01*
X168693140Y-100317497D01*
X168506964Y-100373972D01*
X168506956Y-100373975D01*
X168501046Y-100375768D01*
X168495600Y-100378678D01*
X168495590Y-100378683D01*
X168324006Y-100470398D01*
X168324000Y-100470401D01*
X168318550Y-100473315D01*
X168313773Y-100477235D01*
X168313769Y-100477238D01*
X168163369Y-100600667D01*
X168163363Y-100600672D01*
X168158590Y-100604590D01*
X168154672Y-100609363D01*
X168154667Y-100609369D01*
X168031238Y-100759769D01*
X168031235Y-100759773D01*
X168027315Y-100764550D01*
X168024401Y-100770000D01*
X168024398Y-100770006D01*
X167932683Y-100941590D01*
X167932678Y-100941600D01*
X167929768Y-100947046D01*
X167927975Y-100952956D01*
X167927972Y-100952964D01*
X167871497Y-101139140D01*
X167871495Y-101139145D01*
X167869700Y-101145066D01*
X167869093Y-101151223D01*
X167869092Y-101151231D01*
X167850024Y-101344837D01*
X167849417Y-101351000D01*
X167850024Y-101357163D01*
X167869092Y-101550768D01*
X167869093Y-101550774D01*
X167869700Y-101556934D01*
X167871496Y-101562856D01*
X167871497Y-101562859D01*
X167927972Y-101749035D01*
X167927973Y-101749039D01*
X167929768Y-101754954D01*
X167930884Y-101757043D01*
X167940101Y-101803381D01*
X167930509Y-101851598D01*
X167903197Y-101892474D01*
X167630596Y-102165077D01*
X167580436Y-102195815D01*
X167521790Y-102200431D01*
X167467439Y-102177918D01*
X167429233Y-102133185D01*
X167415500Y-102075982D01*
X167415500Y-100487439D01*
X167415500Y-100481252D01*
X167403867Y-100422769D01*
X167359552Y-100356448D01*
X167293231Y-100312133D01*
X167234748Y-100300500D01*
X167228561Y-100300500D01*
X165827016Y-100300500D01*
X165778798Y-100290909D01*
X165737921Y-100263595D01*
X165434109Y-99959783D01*
X165426682Y-99951679D01*
X165409539Y-99931249D01*
X165402455Y-99922806D01*
X165392910Y-99917295D01*
X165392909Y-99917294D01*
X165369817Y-99903962D01*
X165360548Y-99898056D01*
X165338718Y-99882771D01*
X165338715Y-99882769D01*
X165329684Y-99876446D01*
X165319036Y-99873592D01*
X165315863Y-99872113D01*
X165312585Y-99870920D01*
X165303045Y-99865412D01*
X165292192Y-99863498D01*
X165292189Y-99863497D01*
X165265946Y-99858870D01*
X165255218Y-99856492D01*
X165229456Y-99849589D01*
X165229454Y-99849588D01*
X165218807Y-99846736D01*
X165207822Y-99847697D01*
X165181272Y-99850020D01*
X165170290Y-99850500D01*
X164872873Y-99850500D01*
X164806152Y-99831384D01*
X164759675Y-99779838D01*
X164747545Y-99711500D01*
X164773443Y-99647107D01*
X164776173Y-99643598D01*
X164893568Y-99463913D01*
X164898511Y-99454778D01*
X164984729Y-99258223D01*
X164988099Y-99248408D01*
X165031013Y-99078943D01*
X165031248Y-99067565D01*
X165020160Y-99065000D01*
X159835840Y-99065000D01*
X159824751Y-99067565D01*
X159824986Y-99078943D01*
X159867900Y-99248408D01*
X159871270Y-99258223D01*
X159957488Y-99454778D01*
X159962431Y-99463913D01*
X160079826Y-99643598D01*
X160082557Y-99647107D01*
X160108455Y-99711500D01*
X160096325Y-99779838D01*
X160049848Y-99831384D01*
X159983127Y-99850500D01*
X155538017Y-99850500D01*
X155489799Y-99840909D01*
X155448922Y-99813595D01*
X154189760Y-98554434D01*
X159824751Y-98554434D01*
X159835840Y-98557000D01*
X160887410Y-98557000D01*
X160900493Y-98553493D01*
X160904000Y-98540410D01*
X161412000Y-98540410D01*
X161415506Y-98553493D01*
X161428590Y-98557000D01*
X163427410Y-98557000D01*
X163440493Y-98553493D01*
X163444000Y-98540410D01*
X163952000Y-98540410D01*
X163955506Y-98553493D01*
X163968590Y-98557000D01*
X165020160Y-98557000D01*
X165031248Y-98554434D01*
X165031013Y-98543056D01*
X164988099Y-98373591D01*
X164984729Y-98363776D01*
X164898511Y-98167221D01*
X164893568Y-98158086D01*
X164776177Y-97978406D01*
X164769789Y-97970200D01*
X164624432Y-97812299D01*
X164616788Y-97805262D01*
X164447411Y-97673431D01*
X164438718Y-97667752D01*
X164249957Y-97565599D01*
X164240440Y-97561424D01*
X164037442Y-97491735D01*
X164027372Y-97489185D01*
X163965538Y-97478867D01*
X163954401Y-97479443D01*
X163952000Y-97490336D01*
X163952000Y-98540410D01*
X163444000Y-98540410D01*
X163444000Y-97490336D01*
X163441598Y-97479443D01*
X163430461Y-97478867D01*
X163368627Y-97489185D01*
X163358557Y-97491735D01*
X163155559Y-97561424D01*
X163146042Y-97565599D01*
X162957281Y-97667752D01*
X162948588Y-97673431D01*
X162779211Y-97805262D01*
X162771567Y-97812299D01*
X162626210Y-97970200D01*
X162619822Y-97978407D01*
X162533483Y-98110558D01*
X162487969Y-98152456D01*
X162428000Y-98167642D01*
X162368031Y-98152456D01*
X162322517Y-98110558D01*
X162236177Y-97978407D01*
X162229789Y-97970200D01*
X162084432Y-97812299D01*
X162076788Y-97805262D01*
X161907411Y-97673431D01*
X161898718Y-97667752D01*
X161709957Y-97565599D01*
X161700440Y-97561424D01*
X161497442Y-97491735D01*
X161487372Y-97489185D01*
X161425538Y-97478867D01*
X161414401Y-97479443D01*
X161412000Y-97490336D01*
X161412000Y-98540410D01*
X160904000Y-98540410D01*
X160904000Y-97490336D01*
X160901598Y-97479443D01*
X160890461Y-97478867D01*
X160828627Y-97489185D01*
X160818557Y-97491735D01*
X160615559Y-97561424D01*
X160606042Y-97565599D01*
X160417281Y-97667752D01*
X160408588Y-97673431D01*
X160239211Y-97805262D01*
X160231567Y-97812299D01*
X160086210Y-97970200D01*
X160079822Y-97978406D01*
X159962431Y-98158086D01*
X159957488Y-98167221D01*
X159871270Y-98363776D01*
X159867900Y-98373591D01*
X159824986Y-98543056D01*
X159824751Y-98554434D01*
X154189760Y-98554434D01*
X153462405Y-97827079D01*
X153435091Y-97786202D01*
X153425500Y-97737984D01*
X153425500Y-97036439D01*
X153425500Y-97030252D01*
X153413867Y-96971769D01*
X153369552Y-96905448D01*
X153359238Y-96898556D01*
X153350460Y-96889778D01*
X153352406Y-96887831D01*
X153330456Y-96864782D01*
X153313130Y-96812353D01*
X153319886Y-96757549D01*
X153349425Y-96710900D01*
X154166235Y-95894090D01*
X154174305Y-95886694D01*
X154203194Y-95862455D01*
X154222038Y-95829814D01*
X154227927Y-95820568D01*
X154249554Y-95789684D01*
X154252408Y-95779030D01*
X154253876Y-95775882D01*
X154255070Y-95772600D01*
X154260588Y-95763045D01*
X154267134Y-95725912D01*
X154269503Y-95715226D01*
X154279263Y-95678807D01*
X154275979Y-95641269D01*
X154275500Y-95630288D01*
X154275500Y-95212707D01*
X154288494Y-95156979D01*
X154324795Y-95112745D01*
X154355712Y-95098736D01*
X154354595Y-95096037D01*
X154366059Y-95091288D01*
X154378231Y-95088867D01*
X154444552Y-95044552D01*
X154488867Y-94978231D01*
X154500500Y-94919748D01*
X154500500Y-93580252D01*
X154488867Y-93521769D01*
X154444552Y-93455448D01*
X154420485Y-93439367D01*
X154388547Y-93418026D01*
X154388546Y-93418025D01*
X154378231Y-93411133D01*
X154319748Y-93399500D01*
X154313561Y-93399500D01*
X153876000Y-93399500D01*
X153813000Y-93382619D01*
X153766881Y-93336500D01*
X153750000Y-93273500D01*
X153750000Y-91772566D01*
X153759591Y-91724348D01*
X153786905Y-91683471D01*
X154146093Y-91324283D01*
X154202577Y-91291671D01*
X154267799Y-91291671D01*
X154324283Y-91324283D01*
X154689658Y-91689658D01*
X154715176Y-91726410D01*
X154746776Y-91795603D01*
X154754997Y-91808912D01*
X154786113Y-91847526D01*
X154790623Y-91852546D01*
X155137403Y-92199326D01*
X155142423Y-92203836D01*
X155181037Y-92234952D01*
X155194346Y-92243173D01*
X155311855Y-92296839D01*
X155328970Y-92301865D01*
X155455728Y-92320090D01*
X155473562Y-92320090D01*
X155600319Y-92301865D01*
X155617434Y-92296839D01*
X155734943Y-92243173D01*
X155748252Y-92234952D01*
X155786866Y-92203836D01*
X155787166Y-92203566D01*
X155792694Y-92195293D01*
X155794975Y-92183828D01*
X155794975Y-91781324D01*
X156194975Y-91781324D01*
X156197241Y-91790765D01*
X156205521Y-91785691D01*
X156785691Y-91205521D01*
X156790765Y-91197241D01*
X156781324Y-91194975D01*
X156211565Y-91194975D01*
X156198481Y-91198481D01*
X156194975Y-91211565D01*
X156194975Y-91781324D01*
X155794975Y-91781324D01*
X155794975Y-90920975D01*
X155811856Y-90857975D01*
X155857975Y-90811856D01*
X155920975Y-90794975D01*
X157183828Y-90794975D01*
X157195293Y-90792694D01*
X157203566Y-90787166D01*
X157203836Y-90786866D01*
X157234952Y-90748252D01*
X157243173Y-90734943D01*
X157296839Y-90617434D01*
X157301865Y-90600319D01*
X157320090Y-90473562D01*
X157320090Y-90455728D01*
X157301865Y-90328970D01*
X157296839Y-90311855D01*
X157243173Y-90194346D01*
X157234952Y-90181037D01*
X157203836Y-90142423D01*
X157199326Y-90137403D01*
X156852546Y-89790623D01*
X156847526Y-89786113D01*
X156808912Y-89754997D01*
X156795603Y-89746776D01*
X156726410Y-89715176D01*
X156689658Y-89689658D01*
X155761729Y-88761729D01*
X155750000Y-88750000D01*
X155738273Y-88761726D01*
X155738271Y-88761728D01*
X155533945Y-88966053D01*
X155504249Y-88988077D01*
X155469439Y-89000534D01*
X155469301Y-89000561D01*
X155469292Y-89000564D01*
X155457124Y-89002985D01*
X155446806Y-89009879D01*
X155446804Y-89009880D01*
X155412691Y-89032673D01*
X155412684Y-89032677D01*
X155407544Y-89036113D01*
X155403171Y-89040485D01*
X155403166Y-89040490D01*
X154040490Y-90403166D01*
X154040485Y-90403171D01*
X154036113Y-90407544D01*
X154032677Y-90412684D01*
X154032673Y-90412691D01*
X154009880Y-90446804D01*
X154009879Y-90446806D01*
X154002985Y-90457124D01*
X154000564Y-90469292D01*
X154000561Y-90469301D01*
X154000534Y-90469439D01*
X153988077Y-90504249D01*
X153966053Y-90533945D01*
X153761728Y-90738271D01*
X153761726Y-90738273D01*
X153750000Y-90750000D01*
X153753142Y-90753142D01*
X153751892Y-90755308D01*
X153744702Y-90791457D01*
X153717388Y-90832334D01*
X151833787Y-92715935D01*
X151825686Y-92723359D01*
X151805252Y-92740505D01*
X151805244Y-92740514D01*
X151796806Y-92747595D01*
X151791295Y-92757139D01*
X151791294Y-92757141D01*
X151777964Y-92780228D01*
X151772063Y-92789491D01*
X151756766Y-92811338D01*
X151756763Y-92811343D01*
X151750446Y-92820366D01*
X151747595Y-92831002D01*
X151746120Y-92834167D01*
X151744920Y-92837463D01*
X151739412Y-92847005D01*
X151737498Y-92857857D01*
X151737498Y-92857858D01*
X151732869Y-92884106D01*
X151730492Y-92894829D01*
X151723589Y-92920592D01*
X151723588Y-92920596D01*
X151720736Y-92931243D01*
X151721696Y-92942225D01*
X151721697Y-92942225D01*
X151724020Y-92968778D01*
X151724500Y-92979760D01*
X151724500Y-93287293D01*
X151711506Y-93343021D01*
X151675205Y-93387255D01*
X151644287Y-93401263D01*
X151645405Y-93403963D01*
X151633938Y-93408712D01*
X151621769Y-93411133D01*
X151611454Y-93418024D01*
X151611452Y-93418026D01*
X151565761Y-93448556D01*
X151565758Y-93448558D01*
X151555448Y-93455448D01*
X151548558Y-93465758D01*
X151548556Y-93465761D01*
X151518026Y-93511452D01*
X151518024Y-93511454D01*
X151511133Y-93521769D01*
X151508712Y-93533937D01*
X151508712Y-93533939D01*
X151500707Y-93574183D01*
X151499500Y-93580252D01*
X151499500Y-94919748D01*
X151511133Y-94978231D01*
X151555448Y-95044552D01*
X151621769Y-95088867D01*
X151633939Y-95091287D01*
X151645405Y-95096037D01*
X151644287Y-95098736D01*
X151675205Y-95112745D01*
X151711506Y-95156979D01*
X151724500Y-95212707D01*
X151724500Y-96030290D01*
X151724019Y-96041272D01*
X151720736Y-96078807D01*
X151723588Y-96089454D01*
X151723589Y-96089456D01*
X151730492Y-96115218D01*
X151732870Y-96125946D01*
X151737497Y-96152189D01*
X151737498Y-96152192D01*
X151739412Y-96163045D01*
X151744920Y-96172585D01*
X151746113Y-96175863D01*
X151747592Y-96179036D01*
X151750446Y-96189684D01*
X151756769Y-96198715D01*
X151756771Y-96198718D01*
X151772056Y-96220548D01*
X151777961Y-96229816D01*
X151796806Y-96262455D01*
X151805247Y-96269538D01*
X151805249Y-96269540D01*
X151825681Y-96286684D01*
X151833785Y-96294111D01*
X151917277Y-96377603D01*
X151949888Y-96434085D01*
X151949890Y-96499306D01*
X151933086Y-96528412D01*
X151925000Y-96558590D01*
X151925000Y-96875379D01*
X151919574Y-96911955D01*
X151903765Y-96945381D01*
X151893028Y-96961449D01*
X151893026Y-96961451D01*
X151886133Y-96971769D01*
X151883712Y-96983937D01*
X151883711Y-96983941D01*
X151879895Y-97003129D01*
X151874500Y-97030252D01*
X151874500Y-97036439D01*
X151874500Y-97924000D01*
X151857619Y-97987000D01*
X151811500Y-98033119D01*
X151748500Y-98050000D01*
X150283590Y-98050000D01*
X150270506Y-98053506D01*
X150267000Y-98066590D01*
X150267000Y-98186881D01*
X150260595Y-98219078D01*
X150262588Y-98219612D01*
X150254445Y-98250000D01*
X150250000Y-98250000D01*
X150250000Y-101750000D01*
X150254445Y-101750000D01*
X150262588Y-101780388D01*
X150260595Y-101780921D01*
X150267000Y-101813119D01*
X150267000Y-101933410D01*
X150270506Y-101946493D01*
X150283590Y-101950000D01*
X151098500Y-101950000D01*
X151161500Y-101966881D01*
X151207619Y-102013000D01*
X151224500Y-102076000D01*
X151224500Y-102969748D01*
X151225706Y-102975815D01*
X151225707Y-102975816D01*
X151233711Y-103016058D01*
X151233712Y-103016060D01*
X151236133Y-103028231D01*
X151243027Y-103038549D01*
X151243028Y-103038550D01*
X151253765Y-103054619D01*
X151269574Y-103088045D01*
X151275000Y-103124621D01*
X151275000Y-103441410D01*
X151278850Y-103455779D01*
X151288343Y-103465272D01*
X151304489Y-103473677D01*
X151337694Y-103516949D01*
X151349500Y-103570200D01*
X151349500Y-103655290D01*
X151349019Y-103666272D01*
X151345736Y-103703807D01*
X151348588Y-103714454D01*
X151348589Y-103714456D01*
X151355492Y-103740218D01*
X151357870Y-103750946D01*
X151362497Y-103777189D01*
X151362498Y-103777192D01*
X151364412Y-103788045D01*
X151369920Y-103797585D01*
X151371113Y-103800863D01*
X151372592Y-103804036D01*
X151375446Y-103814684D01*
X151381769Y-103823715D01*
X151381771Y-103823718D01*
X151397056Y-103845548D01*
X151402962Y-103854817D01*
X151413871Y-103873713D01*
X151421806Y-103887455D01*
X151430247Y-103894538D01*
X151430249Y-103894540D01*
X151450681Y-103911684D01*
X151458785Y-103919111D01*
X151687595Y-104147921D01*
X151714909Y-104188798D01*
X151724500Y-104237016D01*
X151724500Y-104787293D01*
X151711506Y-104843021D01*
X151675205Y-104887255D01*
X151644287Y-104901263D01*
X151645405Y-104903963D01*
X151633938Y-104908712D01*
X151621769Y-104911133D01*
X151611454Y-104918024D01*
X151611452Y-104918026D01*
X151565761Y-104948556D01*
X151565758Y-104948558D01*
X151555448Y-104955448D01*
X151548558Y-104965758D01*
X151548556Y-104965761D01*
X151518026Y-105011452D01*
X151518024Y-105011454D01*
X151511133Y-105021769D01*
X151508712Y-105033937D01*
X151508712Y-105033939D01*
X151500707Y-105074183D01*
X151499500Y-105080252D01*
X151499500Y-106419748D01*
X151511133Y-106478231D01*
X151555448Y-106544552D01*
X151621769Y-106588867D01*
X151633939Y-106591287D01*
X151645405Y-106596037D01*
X151644287Y-106598736D01*
X151675205Y-106612745D01*
X151711506Y-106656979D01*
X151724500Y-106712707D01*
X151724500Y-107020240D01*
X151724020Y-107031219D01*
X151720736Y-107068757D01*
X151723588Y-107079404D01*
X151723589Y-107079406D01*
X151730492Y-107105168D01*
X151732870Y-107115896D01*
X151737497Y-107142139D01*
X151737498Y-107142142D01*
X151739412Y-107152995D01*
X151744920Y-107162535D01*
X151746113Y-107165813D01*
X151747592Y-107168986D01*
X151750446Y-107179634D01*
X151756769Y-107188665D01*
X151756771Y-107188668D01*
X151772056Y-107210498D01*
X151777961Y-107219765D01*
X151796806Y-107252405D01*
X151805247Y-107259488D01*
X151805249Y-107259490D01*
X151823336Y-107274666D01*
X151825665Y-107276621D01*
X151825681Y-107276634D01*
X151833785Y-107284061D01*
X153717388Y-109167665D01*
X153744701Y-109208540D01*
X153751892Y-109244690D01*
X153753143Y-109246856D01*
X153750000Y-109250000D01*
X153761731Y-109261730D01*
X153761731Y-109261731D01*
X153966052Y-109466052D01*
X153988078Y-109495749D01*
X154000535Y-109530562D01*
X154000538Y-109530576D01*
X154002985Y-109542876D01*
X154009878Y-109553193D01*
X154009879Y-109553194D01*
X154009880Y-109553196D01*
X154036113Y-109592456D01*
X155407544Y-110963887D01*
X155457124Y-110997015D01*
X155469435Y-110999463D01*
X155504243Y-111011917D01*
X155533946Y-111033946D01*
X155750000Y-111250000D01*
X156689663Y-110310336D01*
X156726412Y-110284822D01*
X156795599Y-110253225D01*
X156808915Y-110245000D01*
X156847526Y-110213886D01*
X156852546Y-110209376D01*
X157199326Y-109862596D01*
X157203836Y-109857576D01*
X157234952Y-109818962D01*
X157243173Y-109805653D01*
X157296839Y-109688144D01*
X157301865Y-109671029D01*
X157320090Y-109544272D01*
X157320090Y-109526438D01*
X157301865Y-109399680D01*
X157296839Y-109382565D01*
X157243173Y-109265056D01*
X157234952Y-109251747D01*
X157203836Y-109213133D01*
X157203566Y-109212833D01*
X157195293Y-109207305D01*
X157183828Y-109205025D01*
X155920975Y-109205025D01*
X155857975Y-109188144D01*
X155811856Y-109142025D01*
X155794975Y-109079025D01*
X155794975Y-108788435D01*
X156194975Y-108788435D01*
X156198481Y-108801518D01*
X156211565Y-108805025D01*
X156781324Y-108805025D01*
X156790765Y-108802758D01*
X156785691Y-108794478D01*
X156205521Y-108214308D01*
X156197241Y-108209234D01*
X156194975Y-108218676D01*
X156194975Y-108788435D01*
X155794975Y-108788435D01*
X155794975Y-107816172D01*
X155792694Y-107804706D01*
X155787166Y-107796433D01*
X155786866Y-107796163D01*
X155748252Y-107765047D01*
X155734943Y-107756826D01*
X155617434Y-107703160D01*
X155600319Y-107698134D01*
X155473562Y-107679910D01*
X155455728Y-107679910D01*
X155328970Y-107698134D01*
X155311855Y-107703160D01*
X155194346Y-107756826D01*
X155181037Y-107765047D01*
X155142423Y-107796163D01*
X155137403Y-107800673D01*
X154790623Y-108147453D01*
X154786113Y-108152473D01*
X154754997Y-108191087D01*
X154746776Y-108204395D01*
X154715175Y-108273590D01*
X154689657Y-108310341D01*
X154324283Y-108675715D01*
X154267799Y-108708327D01*
X154202577Y-108708327D01*
X154146093Y-108675716D01*
X153786905Y-108316529D01*
X153759591Y-108275651D01*
X153750000Y-108227433D01*
X153750000Y-106726500D01*
X153766881Y-106663500D01*
X153813000Y-106617381D01*
X153876000Y-106600500D01*
X154313561Y-106600500D01*
X154319748Y-106600500D01*
X154378231Y-106588867D01*
X154444552Y-106544552D01*
X154488867Y-106478231D01*
X154500500Y-106419748D01*
X154500500Y-105080252D01*
X154488867Y-105021769D01*
X154444552Y-104955448D01*
X154378231Y-104911133D01*
X154366060Y-104908712D01*
X154354595Y-104903963D01*
X154356049Y-104900450D01*
X154314426Y-104879056D01*
X154278869Y-104819722D01*
X154269508Y-104784788D01*
X154267132Y-104774070D01*
X154262502Y-104747811D01*
X154260588Y-104736955D01*
X154255074Y-104727405D01*
X154253883Y-104724131D01*
X154252406Y-104720964D01*
X154249553Y-104710316D01*
X154227941Y-104679450D01*
X154222035Y-104670179D01*
X154208707Y-104647093D01*
X154208705Y-104647090D01*
X154203194Y-104637545D01*
X154194751Y-104630460D01*
X154194749Y-104630458D01*
X154174329Y-104613324D01*
X154166226Y-104605899D01*
X153760028Y-104199702D01*
X153623421Y-104063095D01*
X153590809Y-104006611D01*
X153590809Y-103941389D01*
X153623421Y-103884905D01*
X154529921Y-102978405D01*
X154570798Y-102951091D01*
X154619016Y-102941500D01*
X155334260Y-102941500D01*
X155385827Y-102952535D01*
X155428361Y-102983709D01*
X155454410Y-103029557D01*
X155498980Y-103170701D01*
X155531315Y-103273101D01*
X155536159Y-103288439D01*
X155536796Y-103290116D01*
X155738561Y-103821366D01*
X155738568Y-103821384D01*
X155739205Y-103823060D01*
X155972423Y-104345224D01*
X155973246Y-104346815D01*
X155973247Y-104346818D01*
X156234226Y-104851630D01*
X156234237Y-104851651D01*
X156235055Y-104853232D01*
X156235970Y-104854779D01*
X156235973Y-104854784D01*
X156509029Y-105316329D01*
X156526244Y-105345426D01*
X156527237Y-105346905D01*
X156527239Y-105346908D01*
X156830614Y-105798718D01*
X156845042Y-105820204D01*
X156846131Y-105821642D01*
X156846138Y-105821651D01*
X157164831Y-106242261D01*
X157190410Y-106276020D01*
X157561223Y-106711387D01*
X157956272Y-107124887D01*
X157957583Y-107126111D01*
X157957589Y-107126117D01*
X158372947Y-107513938D01*
X158374271Y-107515174D01*
X158813858Y-107880975D01*
X159023621Y-108036160D01*
X159272164Y-108220036D01*
X159272172Y-108220041D01*
X159273600Y-108221098D01*
X159751999Y-108534436D01*
X159812571Y-108569339D01*
X159890137Y-108614035D01*
X159936296Y-108660117D01*
X159953229Y-108723105D01*
X159936398Y-108786121D01*
X156576170Y-114616821D01*
X156529222Y-114663472D01*
X156465107Y-114679893D01*
X156401514Y-114661552D01*
X155822951Y-114309577D01*
X155817899Y-114306336D01*
X155336995Y-113981421D01*
X155336853Y-113981259D01*
X155336823Y-113981304D01*
X155145277Y-113851425D01*
X155140558Y-113848064D01*
X154727073Y-113539031D01*
X154726794Y-113538822D01*
X154489643Y-113360554D01*
X154485201Y-113357057D01*
X154108502Y-113046493D01*
X154108126Y-113046181D01*
X153858397Y-112838663D01*
X153854235Y-112835048D01*
X153504316Y-112517394D01*
X153503852Y-112516970D01*
X153476939Y-112492293D01*
X153253016Y-112286971D01*
X153249190Y-112283310D01*
X152921746Y-111956295D01*
X152921319Y-111955866D01*
X152674956Y-111706808D01*
X152671353Y-111703012D01*
X152364475Y-111365852D01*
X152363867Y-111365178D01*
X152256093Y-111245042D01*
X152125492Y-111099461D01*
X152122178Y-111095614D01*
X152048859Y-111006919D01*
X151834871Y-110748052D01*
X151834243Y-110747286D01*
X151605950Y-110466394D01*
X151602901Y-110462488D01*
X151334706Y-110104622D01*
X151333999Y-110103669D01*
X151153164Y-109857576D01*
X151117503Y-109809046D01*
X151114736Y-109805126D01*
X150970643Y-109592456D01*
X150865454Y-109437205D01*
X150864736Y-109436132D01*
X150737945Y-109244690D01*
X150661294Y-109128954D01*
X150658788Y-109125012D01*
X150630729Y-109079025D01*
X150428465Y-108747531D01*
X150427799Y-108746425D01*
X150238365Y-108427675D01*
X150236173Y-108423831D01*
X150024910Y-108037316D01*
X150024288Y-108036160D01*
X149849741Y-107706920D01*
X149847774Y-107703048D01*
X149655832Y-107308298D01*
X149655156Y-107306881D01*
X149496269Y-106968266D01*
X149494531Y-106964393D01*
X149445196Y-106849292D01*
X149322100Y-106562104D01*
X149321414Y-106560467D01*
X149178798Y-106213497D01*
X149177324Y-106209739D01*
X149024556Y-105800525D01*
X149023899Y-105798718D01*
X148898037Y-105444302D01*
X148896772Y-105440550D01*
X148763930Y-105025351D01*
X148763386Y-105023602D01*
X148654650Y-104662495D01*
X148653637Y-104658938D01*
X148540879Y-104238489D01*
X148540352Y-104236448D01*
X148449213Y-103869958D01*
X148448385Y-103866405D01*
X148355900Y-103441625D01*
X148355421Y-103439312D01*
X148282182Y-103068477D01*
X148281551Y-103065030D01*
X148279233Y-103051257D01*
X148269802Y-102995223D01*
X150267000Y-102995223D01*
X150267359Y-103001938D01*
X150272662Y-103051257D01*
X150276259Y-103066478D01*
X150321405Y-103187519D01*
X150329954Y-103203175D01*
X150406697Y-103305692D01*
X150419307Y-103318302D01*
X150521824Y-103395045D01*
X150537480Y-103403594D01*
X150658521Y-103448740D01*
X150673742Y-103452337D01*
X150723061Y-103457640D01*
X150729777Y-103458000D01*
X150758410Y-103458000D01*
X150771493Y-103454493D01*
X150775000Y-103441410D01*
X150775000Y-102466590D01*
X150771493Y-102453506D01*
X150758410Y-102450000D01*
X150283590Y-102450000D01*
X150270506Y-102453506D01*
X150267000Y-102466590D01*
X150267000Y-102995223D01*
X148269802Y-102995223D01*
X148209458Y-102636676D01*
X148209085Y-102634308D01*
X148153933Y-102259867D01*
X148153487Y-102256521D01*
X148150156Y-102228685D01*
X148101923Y-101825613D01*
X148101646Y-101823069D01*
X148064773Y-101446069D01*
X148064508Y-101442928D01*
X148033531Y-101010191D01*
X148033366Y-101007438D01*
X148014901Y-100628954D01*
X148014796Y-100626074D01*
X148004465Y-100192409D01*
X148004429Y-100189408D01*
X148004429Y-99810592D01*
X148004465Y-99807591D01*
X148007228Y-99691601D01*
X148014796Y-99373920D01*
X148014901Y-99371051D01*
X148033366Y-98992551D01*
X148033531Y-98989819D01*
X148064509Y-98557058D01*
X148064773Y-98553929D01*
X148101647Y-98176909D01*
X148101920Y-98174411D01*
X148153492Y-97743432D01*
X148153933Y-97740131D01*
X148184382Y-97533410D01*
X150267000Y-97533410D01*
X150270506Y-97546493D01*
X150283590Y-97550000D01*
X150758410Y-97550000D01*
X150771493Y-97546493D01*
X150775000Y-97533410D01*
X151275000Y-97533410D01*
X151278506Y-97546493D01*
X151291590Y-97550000D01*
X151408410Y-97550000D01*
X151421493Y-97546493D01*
X151425000Y-97533410D01*
X151425000Y-96558590D01*
X151421493Y-96545506D01*
X151408410Y-96542000D01*
X151379779Y-96542000D01*
X151373069Y-96542359D01*
X151363464Y-96543392D01*
X151336536Y-96543392D01*
X151326930Y-96542359D01*
X151320221Y-96542000D01*
X151291590Y-96542000D01*
X151278506Y-96545506D01*
X151275000Y-96558590D01*
X151275000Y-97533410D01*
X150775000Y-97533410D01*
X150775000Y-96558590D01*
X150771493Y-96545506D01*
X150758410Y-96542000D01*
X150729777Y-96542000D01*
X150723061Y-96542359D01*
X150673742Y-96547662D01*
X150658521Y-96551259D01*
X150537480Y-96596405D01*
X150521824Y-96604954D01*
X150419307Y-96681697D01*
X150406697Y-96694307D01*
X150329954Y-96796824D01*
X150321405Y-96812480D01*
X150276259Y-96933521D01*
X150272662Y-96948742D01*
X150267359Y-96998061D01*
X150267000Y-97004777D01*
X150267000Y-97533410D01*
X148184382Y-97533410D01*
X148209090Y-97365660D01*
X148209453Y-97363352D01*
X148281560Y-96934914D01*
X148282184Y-96931510D01*
X148355441Y-96560588D01*
X148355891Y-96558415D01*
X148448391Y-96133562D01*
X148449205Y-96130071D01*
X148540365Y-95763497D01*
X148540863Y-95761569D01*
X148653646Y-95341026D01*
X148654639Y-95337539D01*
X148763406Y-94976333D01*
X148763909Y-94974713D01*
X148896791Y-94559390D01*
X148898024Y-94555735D01*
X149023957Y-94201118D01*
X149024524Y-94199558D01*
X149177339Y-93790218D01*
X149178781Y-93786544D01*
X149321482Y-93439367D01*
X149322058Y-93437994D01*
X149494550Y-93035560D01*
X149496254Y-93031764D01*
X149655210Y-92693002D01*
X149655774Y-92691820D01*
X149847796Y-92296904D01*
X149849716Y-92293126D01*
X150024359Y-91963705D01*
X150024831Y-91962826D01*
X150236199Y-91576119D01*
X150238337Y-91572371D01*
X150427893Y-91253416D01*
X150428357Y-91252646D01*
X150658820Y-90874935D01*
X150661264Y-90871090D01*
X150864877Y-90563654D01*
X150865316Y-90562998D01*
X151114781Y-90194807D01*
X151117467Y-90191002D01*
X151334177Y-89896088D01*
X151334509Y-89895641D01*
X151602934Y-89537467D01*
X151605917Y-89533645D01*
X151834470Y-89252434D01*
X151834599Y-89252276D01*
X152122231Y-88904321D01*
X152125449Y-88900586D01*
X152364213Y-88634436D01*
X152364216Y-88634431D01*
X152671404Y-88296931D01*
X152674927Y-88293220D01*
X152921446Y-88044004D01*
X153249238Y-87716640D01*
X153252965Y-87713074D01*
X153504040Y-87482855D01*
X153854274Y-87164915D01*
X153858358Y-87161368D01*
X154108303Y-86953670D01*
X154485250Y-86642902D01*
X154489566Y-86639503D01*
X154726704Y-86461242D01*
X154727043Y-86460989D01*
X154727073Y-86460968D01*
X154872523Y-86352259D01*
X155140587Y-86151912D01*
X155145239Y-86148599D01*
X155336823Y-86018695D01*
X155336848Y-86018732D01*
X155336987Y-86018584D01*
X155817928Y-85693644D01*
X155822921Y-85690440D01*
X156401514Y-85338446D01*
X156465106Y-85320106D01*
X156529222Y-85336528D01*
G37*
%TD.AperFunction*%
%TD*%
M02*
