%TF.GenerationSoftware,KiCad,Pcbnew,(7.0.0)*%
%TF.CreationDate,2024-02-03T20:30:22+01:00*%
%TF.ProjectId,Helios_IMU_F,48656c69-6f73-45f4-994d-555f462e6b69,rev?*%
%TF.SameCoordinates,PX9058260PY5c4edc0*%
%TF.FileFunction,Legend,Top*%
%TF.FilePolarity,Positive*%
%FSLAX46Y46*%
G04 Gerber Fmt 4.6, Leading zero omitted, Abs format (unit mm)*
G04 Created by KiCad (PCBNEW (7.0.0)) date 2024-02-03 20:30:22*
%MOMM*%
%LPD*%
G01*
G04 APERTURE LIST*
%ADD10C,0.150000*%
%ADD11C,0.120000*%
G04 APERTURE END LIST*
D10*
X-6576000Y-11920000D02*
X6124000Y-11920000D01*
X6124000Y-11920000D02*
X6124000Y-16492000D01*
X6124000Y-16492000D02*
X-6576000Y-16492000D01*
X-6576000Y-16492000D02*
X-6576000Y-11920000D01*
X-6337905Y-9320380D02*
X-6337905Y-8320380D01*
X-6337905Y-8796571D02*
X-5766477Y-8796571D01*
X-5766477Y-9320380D02*
X-5766477Y-8320380D01*
X-4909334Y-9272761D02*
X-5004572Y-9320380D01*
X-5004572Y-9320380D02*
X-5195048Y-9320380D01*
X-5195048Y-9320380D02*
X-5290286Y-9272761D01*
X-5290286Y-9272761D02*
X-5337905Y-9177523D01*
X-5337905Y-9177523D02*
X-5337905Y-8796571D01*
X-5337905Y-8796571D02*
X-5290286Y-8701333D01*
X-5290286Y-8701333D02*
X-5195048Y-8653714D01*
X-5195048Y-8653714D02*
X-5004572Y-8653714D01*
X-5004572Y-8653714D02*
X-4909334Y-8701333D01*
X-4909334Y-8701333D02*
X-4861715Y-8796571D01*
X-4861715Y-8796571D02*
X-4861715Y-8891809D01*
X-4861715Y-8891809D02*
X-5337905Y-8987047D01*
X-4290286Y-9320380D02*
X-4385524Y-9272761D01*
X-4385524Y-9272761D02*
X-4433143Y-9177523D01*
X-4433143Y-9177523D02*
X-4433143Y-8320380D01*
X-3909333Y-9320380D02*
X-3909333Y-8653714D01*
X-3909333Y-8320380D02*
X-3956952Y-8368000D01*
X-3956952Y-8368000D02*
X-3909333Y-8415619D01*
X-3909333Y-8415619D02*
X-3861714Y-8368000D01*
X-3861714Y-8368000D02*
X-3909333Y-8320380D01*
X-3909333Y-8320380D02*
X-3909333Y-8415619D01*
X-3290286Y-9320380D02*
X-3385524Y-9272761D01*
X-3385524Y-9272761D02*
X-3433143Y-9225142D01*
X-3433143Y-9225142D02*
X-3480762Y-9129904D01*
X-3480762Y-9129904D02*
X-3480762Y-8844190D01*
X-3480762Y-8844190D02*
X-3433143Y-8748952D01*
X-3433143Y-8748952D02*
X-3385524Y-8701333D01*
X-3385524Y-8701333D02*
X-3290286Y-8653714D01*
X-3290286Y-8653714D02*
X-3147429Y-8653714D01*
X-3147429Y-8653714D02*
X-3052191Y-8701333D01*
X-3052191Y-8701333D02*
X-3004572Y-8748952D01*
X-3004572Y-8748952D02*
X-2956953Y-8844190D01*
X-2956953Y-8844190D02*
X-2956953Y-9129904D01*
X-2956953Y-9129904D02*
X-3004572Y-9225142D01*
X-3004572Y-9225142D02*
X-3052191Y-9272761D01*
X-3052191Y-9272761D02*
X-3147429Y-9320380D01*
X-3147429Y-9320380D02*
X-3290286Y-9320380D01*
X-2576000Y-9272761D02*
X-2480762Y-9320380D01*
X-2480762Y-9320380D02*
X-2290286Y-9320380D01*
X-2290286Y-9320380D02*
X-2195048Y-9272761D01*
X-2195048Y-9272761D02*
X-2147429Y-9177523D01*
X-2147429Y-9177523D02*
X-2147429Y-9129904D01*
X-2147429Y-9129904D02*
X-2195048Y-9034666D01*
X-2195048Y-9034666D02*
X-2290286Y-8987047D01*
X-2290286Y-8987047D02*
X-2433143Y-8987047D01*
X-2433143Y-8987047D02*
X-2528381Y-8939428D01*
X-2528381Y-8939428D02*
X-2576000Y-8844190D01*
X-2576000Y-8844190D02*
X-2576000Y-8796571D01*
X-2576000Y-8796571D02*
X-2528381Y-8701333D01*
X-2528381Y-8701333D02*
X-2433143Y-8653714D01*
X-2433143Y-8653714D02*
X-2290286Y-8653714D01*
X-2290286Y-8653714D02*
X-2195048Y-8701333D01*
X-1118857Y-9320380D02*
X-1118857Y-8320380D01*
X-642667Y-9320380D02*
X-642667Y-8320380D01*
X-642667Y-8320380D02*
X-309334Y-9034666D01*
X-309334Y-9034666D02*
X23999Y-8320380D01*
X23999Y-8320380D02*
X23999Y-9320380D01*
X500190Y-8320380D02*
X500190Y-9129904D01*
X500190Y-9129904D02*
X547809Y-9225142D01*
X547809Y-9225142D02*
X595428Y-9272761D01*
X595428Y-9272761D02*
X690666Y-9320380D01*
X690666Y-9320380D02*
X881142Y-9320380D01*
X881142Y-9320380D02*
X976380Y-9272761D01*
X976380Y-9272761D02*
X1023999Y-9225142D01*
X1023999Y-9225142D02*
X1071618Y-9129904D01*
X1071618Y-9129904D02*
X1071618Y-8320380D01*
X-6004572Y-10416571D02*
X-5861715Y-10464190D01*
X-5861715Y-10464190D02*
X-5814096Y-10511809D01*
X-5814096Y-10511809D02*
X-5766477Y-10607047D01*
X-5766477Y-10607047D02*
X-5766477Y-10749904D01*
X-5766477Y-10749904D02*
X-5814096Y-10845142D01*
X-5814096Y-10845142D02*
X-5861715Y-10892761D01*
X-5861715Y-10892761D02*
X-5956953Y-10940380D01*
X-5956953Y-10940380D02*
X-6337905Y-10940380D01*
X-6337905Y-10940380D02*
X-6337905Y-9940380D01*
X-6337905Y-9940380D02*
X-6004572Y-9940380D01*
X-6004572Y-9940380D02*
X-5909334Y-9988000D01*
X-5909334Y-9988000D02*
X-5861715Y-10035619D01*
X-5861715Y-10035619D02*
X-5814096Y-10130857D01*
X-5814096Y-10130857D02*
X-5814096Y-10226095D01*
X-5814096Y-10226095D02*
X-5861715Y-10321333D01*
X-5861715Y-10321333D02*
X-5909334Y-10368952D01*
X-5909334Y-10368952D02*
X-6004572Y-10416571D01*
X-6004572Y-10416571D02*
X-6337905Y-10416571D01*
X-5337905Y-10940380D02*
X-5337905Y-9940380D01*
X-5337905Y-9940380D02*
X-4766477Y-10940380D01*
X-4766477Y-10940380D02*
X-4766477Y-9940380D01*
X-4099810Y-9940380D02*
X-3909334Y-9940380D01*
X-3909334Y-9940380D02*
X-3814096Y-9988000D01*
X-3814096Y-9988000D02*
X-3718858Y-10083238D01*
X-3718858Y-10083238D02*
X-3671239Y-10273714D01*
X-3671239Y-10273714D02*
X-3671239Y-10607047D01*
X-3671239Y-10607047D02*
X-3718858Y-10797523D01*
X-3718858Y-10797523D02*
X-3814096Y-10892761D01*
X-3814096Y-10892761D02*
X-3909334Y-10940380D01*
X-3909334Y-10940380D02*
X-4099810Y-10940380D01*
X-4099810Y-10940380D02*
X-4195048Y-10892761D01*
X-4195048Y-10892761D02*
X-4290286Y-10797523D01*
X-4290286Y-10797523D02*
X-4337905Y-10607047D01*
X-4337905Y-10607047D02*
X-4337905Y-10273714D01*
X-4337905Y-10273714D02*
X-4290286Y-10083238D01*
X-4290286Y-10083238D02*
X-4195048Y-9988000D01*
X-4195048Y-9988000D02*
X-4099810Y-9940380D01*
X-3052191Y-9940380D02*
X-2956953Y-9940380D01*
X-2956953Y-9940380D02*
X-2861715Y-9988000D01*
X-2861715Y-9988000D02*
X-2814096Y-10035619D01*
X-2814096Y-10035619D02*
X-2766477Y-10130857D01*
X-2766477Y-10130857D02*
X-2718858Y-10321333D01*
X-2718858Y-10321333D02*
X-2718858Y-10559428D01*
X-2718858Y-10559428D02*
X-2766477Y-10749904D01*
X-2766477Y-10749904D02*
X-2814096Y-10845142D01*
X-2814096Y-10845142D02*
X-2861715Y-10892761D01*
X-2861715Y-10892761D02*
X-2956953Y-10940380D01*
X-2956953Y-10940380D02*
X-3052191Y-10940380D01*
X-3052191Y-10940380D02*
X-3147429Y-10892761D01*
X-3147429Y-10892761D02*
X-3195048Y-10845142D01*
X-3195048Y-10845142D02*
X-3242667Y-10749904D01*
X-3242667Y-10749904D02*
X-3290286Y-10559428D01*
X-3290286Y-10559428D02*
X-3290286Y-10321333D01*
X-3290286Y-10321333D02*
X-3242667Y-10130857D01*
X-3242667Y-10130857D02*
X-3195048Y-10035619D01*
X-3195048Y-10035619D02*
X-3147429Y-9988000D01*
X-3147429Y-9988000D02*
X-3052191Y-9940380D01*
X-1814096Y-9940380D02*
X-2290286Y-9940380D01*
X-2290286Y-9940380D02*
X-2337905Y-10416571D01*
X-2337905Y-10416571D02*
X-2290286Y-10368952D01*
X-2290286Y-10368952D02*
X-2195048Y-10321333D01*
X-2195048Y-10321333D02*
X-1956953Y-10321333D01*
X-1956953Y-10321333D02*
X-1861715Y-10368952D01*
X-1861715Y-10368952D02*
X-1814096Y-10416571D01*
X-1814096Y-10416571D02*
X-1766477Y-10511809D01*
X-1766477Y-10511809D02*
X-1766477Y-10749904D01*
X-1766477Y-10749904D02*
X-1814096Y-10845142D01*
X-1814096Y-10845142D02*
X-1861715Y-10892761D01*
X-1861715Y-10892761D02*
X-1956953Y-10940380D01*
X-1956953Y-10940380D02*
X-2195048Y-10940380D01*
X-2195048Y-10940380D02*
X-2290286Y-10892761D01*
X-2290286Y-10892761D02*
X-2337905Y-10845142D01*
X-861715Y-9940380D02*
X-1337905Y-9940380D01*
X-1337905Y-9940380D02*
X-1385524Y-10416571D01*
X-1385524Y-10416571D02*
X-1337905Y-10368952D01*
X-1337905Y-10368952D02*
X-1242667Y-10321333D01*
X-1242667Y-10321333D02*
X-1004572Y-10321333D01*
X-1004572Y-10321333D02*
X-909334Y-10368952D01*
X-909334Y-10368952D02*
X-861715Y-10416571D01*
X-861715Y-10416571D02*
X-814096Y-10511809D01*
X-814096Y-10511809D02*
X-814096Y-10749904D01*
X-814096Y-10749904D02*
X-861715Y-10845142D01*
X-861715Y-10845142D02*
X-909334Y-10892761D01*
X-909334Y-10892761D02*
X-1004572Y-10940380D01*
X-1004572Y-10940380D02*
X-1242667Y-10940380D01*
X-1242667Y-10940380D02*
X-1337905Y-10892761D01*
X-1337905Y-10892761D02*
X-1385524Y-10845142D01*
%TO.C,J1*%
X-4289857Y7522500D02*
X-4432714Y7593929D01*
X-4432714Y7593929D02*
X-4647000Y7593929D01*
X-4647000Y7593929D02*
X-4861286Y7522500D01*
X-4861286Y7522500D02*
X-5004143Y7379643D01*
X-5004143Y7379643D02*
X-5075572Y7236786D01*
X-5075572Y7236786D02*
X-5147000Y6951072D01*
X-5147000Y6951072D02*
X-5147000Y6736786D01*
X-5147000Y6736786D02*
X-5075572Y6451072D01*
X-5075572Y6451072D02*
X-5004143Y6308215D01*
X-5004143Y6308215D02*
X-4861286Y6165358D01*
X-4861286Y6165358D02*
X-4647000Y6093929D01*
X-4647000Y6093929D02*
X-4504143Y6093929D01*
X-4504143Y6093929D02*
X-4289857Y6165358D01*
X-4289857Y6165358D02*
X-4218429Y6236786D01*
X-4218429Y6236786D02*
X-4218429Y6736786D01*
X-4218429Y6736786D02*
X-4504143Y6736786D01*
X-3575572Y6093929D02*
X-3575572Y7593929D01*
X-3575572Y7593929D02*
X-2718429Y6093929D01*
X-2718429Y6093929D02*
X-2718429Y7593929D01*
X-2004143Y6093929D02*
X-2004143Y7593929D01*
X-2004143Y7593929D02*
X-1647000Y7593929D01*
X-1647000Y7593929D02*
X-1432714Y7522500D01*
X-1432714Y7522500D02*
X-1289857Y7379643D01*
X-1289857Y7379643D02*
X-1218428Y7236786D01*
X-1218428Y7236786D02*
X-1147000Y6951072D01*
X-1147000Y6951072D02*
X-1147000Y6736786D01*
X-1147000Y6736786D02*
X-1218428Y6451072D01*
X-1218428Y6451072D02*
X-1289857Y6308215D01*
X-1289857Y6308215D02*
X-1432714Y6165358D01*
X-1432714Y6165358D02*
X-1647000Y6093929D01*
X-1647000Y6093929D02*
X-2004143Y6093929D01*
X-3432714Y-5637071D02*
X-4147000Y-5637071D01*
X-4147000Y-5637071D02*
X-4218428Y-6351357D01*
X-4218428Y-6351357D02*
X-4147000Y-6279928D01*
X-4147000Y-6279928D02*
X-4004142Y-6208500D01*
X-4004142Y-6208500D02*
X-3647000Y-6208500D01*
X-3647000Y-6208500D02*
X-3504142Y-6279928D01*
X-3504142Y-6279928D02*
X-3432714Y-6351357D01*
X-3432714Y-6351357D02*
X-3361285Y-6494214D01*
X-3361285Y-6494214D02*
X-3361285Y-6851357D01*
X-3361285Y-6851357D02*
X-3432714Y-6994214D01*
X-3432714Y-6994214D02*
X-3504142Y-7065642D01*
X-3504142Y-7065642D02*
X-3647000Y-7137071D01*
X-3647000Y-7137071D02*
X-4004142Y-7137071D01*
X-4004142Y-7137071D02*
X-4147000Y-7065642D01*
X-4147000Y-7065642D02*
X-4218428Y-6994214D01*
X-2932714Y-5637071D02*
X-2432714Y-7137071D01*
X-2432714Y-7137071D02*
X-1932714Y-5637071D01*
%TO.C,J2*%
X1254572Y-7065642D02*
X1468858Y-7137071D01*
X1468858Y-7137071D02*
X1826000Y-7137071D01*
X1826000Y-7137071D02*
X1968858Y-7065642D01*
X1968858Y-7065642D02*
X2040286Y-6994214D01*
X2040286Y-6994214D02*
X2111715Y-6851357D01*
X2111715Y-6851357D02*
X2111715Y-6708500D01*
X2111715Y-6708500D02*
X2040286Y-6565642D01*
X2040286Y-6565642D02*
X1968858Y-6494214D01*
X1968858Y-6494214D02*
X1826000Y-6422785D01*
X1826000Y-6422785D02*
X1540286Y-6351357D01*
X1540286Y-6351357D02*
X1397429Y-6279928D01*
X1397429Y-6279928D02*
X1326000Y-6208500D01*
X1326000Y-6208500D02*
X1254572Y-6065642D01*
X1254572Y-6065642D02*
X1254572Y-5922785D01*
X1254572Y-5922785D02*
X1326000Y-5779928D01*
X1326000Y-5779928D02*
X1397429Y-5708500D01*
X1397429Y-5708500D02*
X1540286Y-5637071D01*
X1540286Y-5637071D02*
X1897429Y-5637071D01*
X1897429Y-5637071D02*
X2111715Y-5708500D01*
X2754571Y-7137071D02*
X2754571Y-5637071D01*
X2754571Y-5637071D02*
X3111714Y-5637071D01*
X3111714Y-5637071D02*
X3326000Y-5708500D01*
X3326000Y-5708500D02*
X3468857Y-5851357D01*
X3468857Y-5851357D02*
X3540286Y-5994214D01*
X3540286Y-5994214D02*
X3611714Y-6279928D01*
X3611714Y-6279928D02*
X3611714Y-6494214D01*
X3611714Y-6494214D02*
X3540286Y-6779928D01*
X3540286Y-6779928D02*
X3468857Y-6922785D01*
X3468857Y-6922785D02*
X3326000Y-7065642D01*
X3326000Y-7065642D02*
X3111714Y-7137071D01*
X3111714Y-7137071D02*
X2754571Y-7137071D01*
X4183143Y-6708500D02*
X4897429Y-6708500D01*
X4040286Y-7137071D02*
X4540286Y-5637071D01*
X4540286Y-5637071D02*
X5040286Y-7137071D01*
X1290286Y6165358D02*
X1504572Y6093929D01*
X1504572Y6093929D02*
X1861714Y6093929D01*
X1861714Y6093929D02*
X2004572Y6165358D01*
X2004572Y6165358D02*
X2076000Y6236786D01*
X2076000Y6236786D02*
X2147429Y6379643D01*
X2147429Y6379643D02*
X2147429Y6522500D01*
X2147429Y6522500D02*
X2076000Y6665358D01*
X2076000Y6665358D02*
X2004572Y6736786D01*
X2004572Y6736786D02*
X1861714Y6808215D01*
X1861714Y6808215D02*
X1576000Y6879643D01*
X1576000Y6879643D02*
X1433143Y6951072D01*
X1433143Y6951072D02*
X1361714Y7022500D01*
X1361714Y7022500D02*
X1290286Y7165358D01*
X1290286Y7165358D02*
X1290286Y7308215D01*
X1290286Y7308215D02*
X1361714Y7451072D01*
X1361714Y7451072D02*
X1433143Y7522500D01*
X1433143Y7522500D02*
X1576000Y7593929D01*
X1576000Y7593929D02*
X1933143Y7593929D01*
X1933143Y7593929D02*
X2147429Y7522500D01*
X3647428Y6236786D02*
X3576000Y6165358D01*
X3576000Y6165358D02*
X3361714Y6093929D01*
X3361714Y6093929D02*
X3218857Y6093929D01*
X3218857Y6093929D02*
X3004571Y6165358D01*
X3004571Y6165358D02*
X2861714Y6308215D01*
X2861714Y6308215D02*
X2790285Y6451072D01*
X2790285Y6451072D02*
X2718857Y6736786D01*
X2718857Y6736786D02*
X2718857Y6951072D01*
X2718857Y6951072D02*
X2790285Y7236786D01*
X2790285Y7236786D02*
X2861714Y7379643D01*
X2861714Y7379643D02*
X3004571Y7522500D01*
X3004571Y7522500D02*
X3218857Y7593929D01*
X3218857Y7593929D02*
X3361714Y7593929D01*
X3361714Y7593929D02*
X3576000Y7522500D01*
X3576000Y7522500D02*
X3647428Y7451072D01*
X5004571Y6093929D02*
X4290285Y6093929D01*
X4290285Y6093929D02*
X4290285Y7593929D01*
D11*
%TO.C,J1*%
X-1737000Y5355000D02*
X-4557000Y5355000D01*
X-1737000Y5355000D02*
X-437000Y3655000D01*
X-4557000Y5355000D02*
X-5857000Y3655000D01*
X-437000Y3655000D02*
X-437000Y-5065000D01*
X-5857000Y3655000D02*
X-5857000Y-5065000D01*
X-437000Y-5065000D02*
X-5857000Y-5065000D01*
%TO.C,J2*%
X4486000Y5355000D02*
X1666000Y5355000D01*
X4486000Y5355000D02*
X5786000Y3655000D01*
X1666000Y5355000D02*
X366000Y3655000D01*
X5786000Y3655000D02*
X5786000Y-5065000D01*
X366000Y3655000D02*
X366000Y-5065000D01*
X5786000Y-5065000D02*
X366000Y-5065000D01*
%TD*%
G36*
X6062000Y-11936613D02*
G01*
X6107387Y-11982000D01*
X6124000Y-12044000D01*
X6124000Y-16368000D01*
X6107387Y-16430000D01*
X6062000Y-16475387D01*
X6000000Y-16492000D01*
X-6452000Y-16492000D01*
X-6514000Y-16475387D01*
X-6559387Y-16430000D01*
X-6576000Y-16368000D01*
X-6576000Y-12044000D01*
X-6559387Y-11982000D01*
X-6514000Y-11936613D01*
X-6452000Y-11920000D01*
X6000000Y-11920000D01*
X6062000Y-11936613D01*
G37*
M02*
