%TF.GenerationSoftware,KiCad,Pcbnew,(7.0.0)*%
%TF.CreationDate,2024-02-03T20:30:22+01:00*%
%TF.ProjectId,Helios_IMU_F,48656c69-6f73-45f4-994d-555f462e6b69,rev?*%
%TF.SameCoordinates,PX9058260PY5c4edc0*%
%TF.FileFunction,Copper,L1,Top*%
%TF.FilePolarity,Positive*%
%FSLAX46Y46*%
G04 Gerber Fmt 4.6, Leading zero omitted, Abs format (unit mm)*
G04 Created by KiCad (PCBNEW (7.0.0)) date 2024-02-03 20:30:22*
%MOMM*%
%LPD*%
G01*
G04 APERTURE LIST*
%TA.AperFunction,ComponentPad*%
%ADD10R,3.800000X3.800000*%
%TD*%
%TA.AperFunction,ComponentPad*%
%ADD11C,3.800000*%
%TD*%
%TA.AperFunction,Conductor*%
%ADD12C,0.500000*%
%TD*%
%TA.AperFunction,Conductor*%
%ADD13C,2.000000*%
%TD*%
G04 APERTURE END LIST*
D10*
%TO.P,J1,1,Pin_1*%
%TO.N,GND*%
X-3146999Y2644999D03*
D11*
%TO.P,J1,2,Pin_2*%
%TO.N,VCC*%
X-3147000Y-2355000D03*
%TD*%
D10*
%TO.P,J2,1,Pin_1*%
%TO.N,SCL*%
X3075999Y2644999D03*
D11*
%TO.P,J2,2,Pin_2*%
%TO.N,SDA*%
X3076000Y-2355000D03*
%TD*%
D10*
%TO.P,J4,1,Pin_1*%
%TO.N,SCL*%
X14378999Y2644999D03*
D11*
%TO.P,J4,2,Pin_2*%
%TO.N,SDA*%
X14379000Y-2355000D03*
%TD*%
D10*
%TO.P,J3,1,Pin_1*%
%TO.N,GND*%
X-14355999Y2644999D03*
D11*
%TO.P,J3,2,Pin_2*%
%TO.N,VCC*%
X-14356000Y-2355000D03*
%TD*%
D12*
%TO.N,VCC*%
X-3147000Y-4046000D02*
X-3147000Y-2355000D01*
D13*
X-14356000Y-2355000D02*
X-3147000Y-2355000D01*
%TO.N,SDA*%
X3076000Y-2355000D02*
X14379000Y-2355000D01*
%TO.N,SCL*%
X3076000Y2645000D02*
X14379000Y2645000D01*
%TD*%
%TA.AperFunction,Conductor*%
%TO.N,GND*%
G36*
X15990208Y9988358D02*
G01*
X16035520Y9943900D01*
X16439096Y9264568D01*
X16441880Y9259626D01*
X16453171Y9238472D01*
X16845967Y8502522D01*
X16848525Y8497454D01*
X17173970Y7814122D01*
X17174036Y7813983D01*
X17218712Y7719876D01*
X17220969Y7714835D01*
X17480388Y7099005D01*
X17480471Y7098806D01*
X17555682Y6919392D01*
X17557682Y6914310D01*
X17771255Y6334455D01*
X17771304Y6334178D01*
X17771351Y6334194D01*
X17855450Y6104279D01*
X17857194Y6099169D01*
X18034458Y5540243D01*
X18034560Y5539919D01*
X18117395Y5276229D01*
X18118885Y5271103D01*
X18264670Y4726003D01*
X18264773Y4725615D01*
X18340955Y4437026D01*
X18342193Y4431898D01*
X18459469Y3896253D01*
X18459567Y3895801D01*
X18525664Y3588425D01*
X18526653Y3583305D01*
X18617257Y3054707D01*
X18621331Y3030326D01*
X18671128Y2732225D01*
X18671871Y2727127D01*
X18736958Y2204799D01*
X18737029Y2204217D01*
X18777042Y1870247D01*
X18777544Y1865181D01*
X18818037Y1348298D01*
X18818086Y1347651D01*
X18843179Y1004306D01*
X18843444Y999284D01*
X18860031Y487427D01*
X18860052Y486718D01*
X18869400Y136279D01*
X18869433Y131311D01*
X18862646Y-375457D01*
X18862633Y-376228D01*
X18855653Y-732066D01*
X18855460Y-736968D01*
X18825761Y-1238198D01*
X18825709Y-1239029D01*
X18801963Y-1598867D01*
X18801549Y-1603694D01*
X18749369Y-2098969D01*
X18749273Y-2099859D01*
X18708450Y-2462224D01*
X18707823Y-2466965D01*
X18633490Y-2956305D01*
X18633342Y-2957250D01*
X18575316Y-3320343D01*
X18574483Y-3324990D01*
X18478406Y-3807518D01*
X18478203Y-3808515D01*
X18402833Y-4171457D01*
X18401800Y-4176000D01*
X18284359Y-4651114D01*
X18284095Y-4652162D01*
X18191378Y-5013707D01*
X18190154Y-5018138D01*
X18051745Y-5485166D01*
X18051415Y-5486259D01*
X17941387Y-5845352D01*
X17939980Y-5849664D01*
X17781051Y-6307817D01*
X17780651Y-6308952D01*
X17653391Y-6664624D01*
X17651808Y-6668808D01*
X17472768Y-7117472D01*
X17472293Y-7118645D01*
X17328017Y-7469744D01*
X17326267Y-7473795D01*
X17127549Y-7912313D01*
X17126995Y-7913518D01*
X16965952Y-8259016D01*
X16964045Y-8262927D01*
X16746120Y-8690603D01*
X16745483Y-8691836D01*
X16567962Y-9030784D01*
X16565907Y-9034549D01*
X16329299Y-9450633D01*
X16328575Y-9451889D01*
X16134863Y-9783456D01*
X16132668Y-9787069D01*
X15877941Y-10190814D01*
X15877127Y-10192088D01*
X15667616Y-10515362D01*
X15665292Y-10518819D01*
X15392933Y-10909648D01*
X15392025Y-10910933D01*
X15167189Y-11224996D01*
X15164745Y-11228293D01*
X14875417Y-11605420D01*
X14874414Y-11606711D01*
X14634660Y-11910831D01*
X14632106Y-11913964D01*
X14326339Y-12276837D01*
X14325236Y-12278127D01*
X14071124Y-12571454D01*
X14068470Y-12574420D01*
X13747006Y-12922279D01*
X13745803Y-12923563D01*
X13477815Y-13205425D01*
X13475071Y-13208221D01*
X13138557Y-13540472D01*
X13137252Y-13541742D01*
X12855953Y-13811437D01*
X12853127Y-13814063D01*
X12502225Y-14130142D01*
X12500818Y-14131390D01*
X12206906Y-14388163D01*
X12204009Y-14390616D01*
X11839449Y-14689941D01*
X11837937Y-14691163D01*
X11532008Y-14934420D01*
X11529052Y-14936700D01*
X11151640Y-15218677D01*
X11150023Y-15219864D01*
X10832658Y-15449073D01*
X10829650Y-15451179D01*
X10440152Y-15715296D01*
X10438431Y-15716442D01*
X10110429Y-15930965D01*
X10107380Y-15932896D01*
X9706630Y-16178647D01*
X9704805Y-16179745D01*
X9366770Y-16379133D01*
X9363688Y-16380892D01*
X8952455Y-16607851D01*
X8950528Y-16608892D01*
X8603297Y-16792602D01*
X8600192Y-16794189D01*
X8179363Y-17001910D01*
X8177335Y-17002889D01*
X7821656Y-17170488D01*
X7818538Y-17171905D01*
X7388877Y-17360044D01*
X7386748Y-17360952D01*
X7023400Y-17512037D01*
X7020277Y-17513286D01*
X6582817Y-17681422D01*
X6580592Y-17682253D01*
X6210343Y-17816474D01*
X6207224Y-17817558D01*
X5762751Y-17965421D01*
X5760430Y-17966168D01*
X5384116Y-18083190D01*
X5381011Y-18084111D01*
X4930472Y-18211409D01*
X4928060Y-18212065D01*
X4546575Y-18311594D01*
X4543489Y-18312357D01*
X4087664Y-18418883D01*
X4085165Y-18419440D01*
X3699387Y-18501232D01*
X3696330Y-18501840D01*
X3236248Y-18587364D01*
X3233665Y-18587816D01*
X2844363Y-18651697D01*
X2841342Y-18652154D01*
X2377976Y-18716510D01*
X2375313Y-18716851D01*
X1983344Y-18762665D01*
X1980368Y-18762976D01*
X1514658Y-18806045D01*
X1511921Y-18806268D01*
X1118143Y-18833906D01*
X1115216Y-18834076D01*
X648101Y-18855780D01*
X645295Y-18855879D01*
X250620Y-18865268D01*
X247751Y-18865303D01*
X-219852Y-18865605D01*
X-222722Y-18865574D01*
X-617399Y-18856692D01*
X-620205Y-18856597D01*
X-1087412Y-18835491D01*
X-1090338Y-18835324D01*
X-1484071Y-18808199D01*
X-1486809Y-18807980D01*
X-1952642Y-18765505D01*
X-1955619Y-18765197D01*
X-2347607Y-18719892D01*
X-2350270Y-18719555D01*
X-2813750Y-18655791D01*
X-2816771Y-18655337D01*
X-3206125Y-18591962D01*
X-3208709Y-18591514D01*
X-3668877Y-18506586D01*
X-3671934Y-18505982D01*
X-4057889Y-18424672D01*
X-4060390Y-18424118D01*
X-4516294Y-18318193D01*
X-4519380Y-18317434D01*
X-4900957Y-18218405D01*
X-4903370Y-18217753D01*
X-5354186Y-18091004D01*
X-5357293Y-18090086D01*
X-5733671Y-17973573D01*
X-5735992Y-17972829D01*
X-6180651Y-17825540D01*
X-6183771Y-17824461D01*
X-6554243Y-17690699D01*
X-6556470Y-17689870D01*
X-6994136Y-17522301D01*
X-6997261Y-17521056D01*
X-7360804Y-17370438D01*
X-7362933Y-17369533D01*
X-7792792Y-17181966D01*
X-7795912Y-17180553D01*
X-8151851Y-17013392D01*
X-8153881Y-17012416D01*
X-8574953Y-16805249D01*
X-8578059Y-16803666D01*
X-8925580Y-16620376D01*
X-8927510Y-16619336D01*
X-9338995Y-16392926D01*
X-9342078Y-16391172D01*
X-9680336Y-16192241D01*
X-9682093Y-16191188D01*
X-9898058Y-16059135D01*
X-10083228Y-15945911D01*
X-10086280Y-15943983D01*
X-10414651Y-15729822D01*
X-10416373Y-15728678D01*
X-10806157Y-15465097D01*
X-10809167Y-15462996D01*
X-11031772Y-15302662D01*
X-11126885Y-15234155D01*
X-11128362Y-15233072D01*
X-11506215Y-14951525D01*
X-11509133Y-14949281D01*
X-11815443Y-14706363D01*
X-11816956Y-14705144D01*
X-12181878Y-14406308D01*
X-12184737Y-14403893D01*
X-12479084Y-14147408D01*
X-12480418Y-14146227D01*
X-12831755Y-13830574D01*
X-12834583Y-13827952D01*
X-12849107Y-13814063D01*
X-13116133Y-13558710D01*
X-13117428Y-13557455D01*
X-13454482Y-13225527D01*
X-13457216Y-13222747D01*
X-13471063Y-13208221D01*
X-13553536Y-13121701D01*
X-13725512Y-12941285D01*
X-13726716Y-12940004D01*
X-14048671Y-12592515D01*
X-14051330Y-12589552D01*
X-14305841Y-12296526D01*
X-14306945Y-12295237D01*
X-14613159Y-11932782D01*
X-14615717Y-11929652D01*
X-14855837Y-11625873D01*
X-14856842Y-11624584D01*
X-15146677Y-11247802D01*
X-15149125Y-11244508D01*
X-15160765Y-11228293D01*
X-15374396Y-10930693D01*
X-15375280Y-10929445D01*
X-15389114Y-10909648D01*
X-15648165Y-10538933D01*
X-15650451Y-10535541D01*
X-15860404Y-10212496D01*
X-15861145Y-10211339D01*
X-16116468Y-9807801D01*
X-16118664Y-9804196D01*
X-16130817Y-9783456D01*
X-16312819Y-9472852D01*
X-16313449Y-9471762D01*
X-16550667Y-9055851D01*
X-16552714Y-9052112D01*
X-16730678Y-8713381D01*
X-16731277Y-8712226D01*
X-16949810Y-8284719D01*
X-16951688Y-8280881D01*
X-17113251Y-7935429D01*
X-17113726Y-7934398D01*
X-17313038Y-7496071D01*
X-17314784Y-7492042D01*
X-17459548Y-7141042D01*
X-17459956Y-7140038D01*
X-17639620Y-6691491D01*
X-17641185Y-6687369D01*
X-17768980Y-6331646D01*
X-17769246Y-6330894D01*
X-17928830Y-5872756D01*
X-17930228Y-5868496D01*
X-18040777Y-5509353D01*
X-18041101Y-5508280D01*
X-18047658Y-5486259D01*
X-18180083Y-5041526D01*
X-18181285Y-5037200D01*
X-18274575Y-4675356D01*
X-18274710Y-4674825D01*
X-18392814Y-4199656D01*
X-18393832Y-4195204D01*
X-18469768Y-3831884D01*
X-18469854Y-3831465D01*
X-18566590Y-3348867D01*
X-18567408Y-3344345D01*
X-18625971Y-2980891D01*
X-18626026Y-2980545D01*
X-18701045Y-2490945D01*
X-18701657Y-2486356D01*
X-18716626Y-2355000D01*
X-16511525Y-2355000D01*
X-16491448Y-2648511D01*
X-16490587Y-2652658D01*
X-16490585Y-2652667D01*
X-16452483Y-2836023D01*
X-16431592Y-2936554D01*
X-16430174Y-2940546D01*
X-16430171Y-2940554D01*
X-16424573Y-2956305D01*
X-16333072Y-3213764D01*
X-16197722Y-3474976D01*
X-16195276Y-3478441D01*
X-16030510Y-3711863D01*
X-16030506Y-3711868D01*
X-16028065Y-3715326D01*
X-15827260Y-3930335D01*
X-15599049Y-4115999D01*
X-15347682Y-4268859D01*
X-15077841Y-4386067D01*
X-14854225Y-4448721D01*
X-14798635Y-4464297D01*
X-14798633Y-4464297D01*
X-14794555Y-4465440D01*
X-14503098Y-4505500D01*
X-14213139Y-4505500D01*
X-14208902Y-4505500D01*
X-13917445Y-4465440D01*
X-13634159Y-4386067D01*
X-13364318Y-4268859D01*
X-13112951Y-4115999D01*
X-12884740Y-3930335D01*
X-12683935Y-3715326D01*
X-12643466Y-3657993D01*
X-12599209Y-3619402D01*
X-12542160Y-3605500D01*
X-4960840Y-3605500D01*
X-4903791Y-3619402D01*
X-4859535Y-3657993D01*
X-4821510Y-3711863D01*
X-4821506Y-3711868D01*
X-4819065Y-3715326D01*
X-4816185Y-3718410D01*
X-4816179Y-3718417D01*
X-4621148Y-3927243D01*
X-4618260Y-3930335D01*
X-4390049Y-4115999D01*
X-4138682Y-4268859D01*
X-3868841Y-4386067D01*
X-3585555Y-4465440D01*
X-3399280Y-4491042D01*
X-3364656Y-4501092D01*
X-3364521Y-4501153D01*
X-3357053Y-4505953D01*
X-3218961Y-4546500D01*
X-3083910Y-4546500D01*
X-3075039Y-4546500D01*
X-2936947Y-4505953D01*
X-2929479Y-4501153D01*
X-2929347Y-4501093D01*
X-2894722Y-4491042D01*
X-2708445Y-4465440D01*
X-2425159Y-4386067D01*
X-2155318Y-4268859D01*
X-1903951Y-4115999D01*
X-1675740Y-3930335D01*
X-1474935Y-3715326D01*
X-1305278Y-3474976D01*
X-1169928Y-3213764D01*
X-1071408Y-2936554D01*
X-1011552Y-2648511D01*
X-991475Y-2355000D01*
X920475Y-2355000D01*
X940552Y-2648511D01*
X941413Y-2652658D01*
X941415Y-2652667D01*
X979517Y-2836023D01*
X1000408Y-2936554D01*
X1001826Y-2940546D01*
X1001829Y-2940554D01*
X1007427Y-2956305D01*
X1098928Y-3213764D01*
X1234278Y-3474976D01*
X1236724Y-3478441D01*
X1401490Y-3711863D01*
X1401494Y-3711868D01*
X1403935Y-3715326D01*
X1604740Y-3930335D01*
X1832951Y-4115999D01*
X2084318Y-4268859D01*
X2354159Y-4386067D01*
X2577775Y-4448721D01*
X2633365Y-4464297D01*
X2633367Y-4464297D01*
X2637445Y-4465440D01*
X2928902Y-4505500D01*
X3218861Y-4505500D01*
X3223098Y-4505500D01*
X3514555Y-4465440D01*
X3797841Y-4386067D01*
X4067682Y-4268859D01*
X4319049Y-4115999D01*
X4547260Y-3930335D01*
X4748065Y-3715326D01*
X4788534Y-3657993D01*
X4832791Y-3619402D01*
X4889840Y-3605500D01*
X12565160Y-3605500D01*
X12622209Y-3619402D01*
X12666465Y-3657993D01*
X12704490Y-3711863D01*
X12704494Y-3711868D01*
X12706935Y-3715326D01*
X12709815Y-3718410D01*
X12709821Y-3718417D01*
X12904852Y-3927243D01*
X12907740Y-3930335D01*
X13135951Y-4115999D01*
X13387318Y-4268859D01*
X13657159Y-4386067D01*
X13880775Y-4448721D01*
X13936365Y-4464297D01*
X13936367Y-4464297D01*
X13940445Y-4465440D01*
X14231902Y-4505500D01*
X14521861Y-4505500D01*
X14526098Y-4505500D01*
X14817555Y-4465440D01*
X15100841Y-4386067D01*
X15370682Y-4268859D01*
X15622049Y-4115999D01*
X15850260Y-3930335D01*
X16051065Y-3715326D01*
X16220722Y-3474976D01*
X16356072Y-3213764D01*
X16454592Y-2936554D01*
X16514448Y-2648511D01*
X16534525Y-2355000D01*
X16514448Y-2061489D01*
X16454592Y-1773446D01*
X16356072Y-1496236D01*
X16220722Y-1235024D01*
X16051065Y-994674D01*
X15850260Y-779665D01*
X15622049Y-594001D01*
X15370682Y-441141D01*
X15366802Y-439455D01*
X15366795Y-439452D01*
X15104722Y-325618D01*
X15104712Y-325614D01*
X15100841Y-323933D01*
X15096769Y-322792D01*
X14821634Y-245702D01*
X14821621Y-245699D01*
X14817555Y-244560D01*
X14813368Y-243984D01*
X14813356Y-243982D01*
X14530295Y-205076D01*
X14530282Y-205075D01*
X14526098Y-204500D01*
X14231902Y-204500D01*
X14227718Y-205075D01*
X14227704Y-205076D01*
X13944643Y-243982D01*
X13944628Y-243984D01*
X13940445Y-244560D01*
X13936381Y-245698D01*
X13936365Y-245702D01*
X13661230Y-322792D01*
X13661225Y-322793D01*
X13657159Y-323933D01*
X13653291Y-325612D01*
X13653277Y-325618D01*
X13391204Y-439452D01*
X13391191Y-439458D01*
X13387318Y-441141D01*
X13383707Y-443336D01*
X13383699Y-443341D01*
X13139563Y-591804D01*
X13139557Y-591807D01*
X13135951Y-594001D01*
X13132676Y-596664D01*
X13132668Y-596671D01*
X12911025Y-776992D01*
X12911021Y-776995D01*
X12907740Y-779665D01*
X12904861Y-782747D01*
X12904852Y-782756D01*
X12709821Y-991582D01*
X12709809Y-991596D01*
X12706935Y-994674D01*
X12704499Y-998124D01*
X12704490Y-998136D01*
X12666465Y-1052007D01*
X12622209Y-1090598D01*
X12565160Y-1104500D01*
X4889840Y-1104500D01*
X4832791Y-1090598D01*
X4788535Y-1052007D01*
X4750509Y-998136D01*
X4750506Y-998133D01*
X4748065Y-994674D01*
X4745182Y-991588D01*
X4745178Y-991582D01*
X4550147Y-782756D01*
X4550145Y-782754D01*
X4547260Y-779665D01*
X4319049Y-594001D01*
X4067682Y-441141D01*
X4063802Y-439455D01*
X4063795Y-439452D01*
X3801722Y-325618D01*
X3801712Y-325614D01*
X3797841Y-323933D01*
X3793769Y-322792D01*
X3518634Y-245702D01*
X3518621Y-245699D01*
X3514555Y-244560D01*
X3510368Y-243984D01*
X3510356Y-243982D01*
X3227295Y-205076D01*
X3227282Y-205075D01*
X3223098Y-204500D01*
X2928902Y-204500D01*
X2924718Y-205075D01*
X2924704Y-205076D01*
X2641643Y-243982D01*
X2641628Y-243984D01*
X2637445Y-244560D01*
X2633381Y-245698D01*
X2633365Y-245702D01*
X2358230Y-322792D01*
X2358225Y-322793D01*
X2354159Y-323933D01*
X2350291Y-325612D01*
X2350277Y-325618D01*
X2088204Y-439452D01*
X2088191Y-439458D01*
X2084318Y-441141D01*
X2080707Y-443336D01*
X2080699Y-443341D01*
X1836563Y-591804D01*
X1836557Y-591807D01*
X1832951Y-594001D01*
X1829676Y-596664D01*
X1829668Y-596671D01*
X1608025Y-776992D01*
X1608021Y-776995D01*
X1604740Y-779665D01*
X1601861Y-782747D01*
X1601852Y-782756D01*
X1406823Y-991581D01*
X1406818Y-991586D01*
X1403935Y-994674D01*
X1401499Y-998124D01*
X1401490Y-998136D01*
X1236724Y-1231558D01*
X1236720Y-1231563D01*
X1234278Y-1235024D01*
X1232332Y-1238778D01*
X1232328Y-1238786D01*
X1100877Y-1492473D01*
X1100872Y-1492483D01*
X1098928Y-1496236D01*
X1097511Y-1500221D01*
X1097507Y-1500232D01*
X1001829Y-1769445D01*
X1001825Y-1769457D01*
X1000408Y-1773446D01*
X999545Y-1777596D01*
X999544Y-1777602D01*
X941415Y-2057332D01*
X941413Y-2057343D01*
X940552Y-2061489D01*
X940263Y-2065713D01*
X940262Y-2065721D01*
X920764Y-2350775D01*
X920475Y-2355000D01*
X-991475Y-2355000D01*
X-1011552Y-2061489D01*
X-1071408Y-1773446D01*
X-1169928Y-1496236D01*
X-1305278Y-1235024D01*
X-1474935Y-994674D01*
X-1675740Y-779665D01*
X-1903951Y-594001D01*
X-2155318Y-441141D01*
X-2159198Y-439455D01*
X-2159205Y-439452D01*
X-2421278Y-325618D01*
X-2421288Y-325614D01*
X-2425159Y-323933D01*
X-2429231Y-322792D01*
X-2704366Y-245702D01*
X-2704379Y-245699D01*
X-2708445Y-244560D01*
X-2712632Y-243984D01*
X-2712644Y-243982D01*
X-2995705Y-205076D01*
X-2995718Y-205075D01*
X-2999902Y-204500D01*
X-3294098Y-204500D01*
X-3298282Y-205075D01*
X-3298296Y-205076D01*
X-3581357Y-243982D01*
X-3581372Y-243984D01*
X-3585555Y-244560D01*
X-3589619Y-245698D01*
X-3589635Y-245702D01*
X-3864770Y-322792D01*
X-3864775Y-322793D01*
X-3868841Y-323933D01*
X-3872709Y-325612D01*
X-3872723Y-325618D01*
X-4134796Y-439452D01*
X-4134809Y-439458D01*
X-4138682Y-441141D01*
X-4142293Y-443336D01*
X-4142301Y-443341D01*
X-4386437Y-591804D01*
X-4386443Y-591807D01*
X-4390049Y-594001D01*
X-4393324Y-596664D01*
X-4393332Y-596671D01*
X-4614975Y-776992D01*
X-4614979Y-776995D01*
X-4618260Y-779665D01*
X-4621139Y-782747D01*
X-4621148Y-782756D01*
X-4816179Y-991582D01*
X-4816191Y-991596D01*
X-4819065Y-994674D01*
X-4821501Y-998124D01*
X-4821510Y-998136D01*
X-4859535Y-1052007D01*
X-4903791Y-1090598D01*
X-4960840Y-1104500D01*
X-12542160Y-1104500D01*
X-12599209Y-1090598D01*
X-12643465Y-1052007D01*
X-12681491Y-998136D01*
X-12681494Y-998133D01*
X-12683935Y-994674D01*
X-12686818Y-991588D01*
X-12686822Y-991582D01*
X-12881853Y-782756D01*
X-12881855Y-782754D01*
X-12884740Y-779665D01*
X-13112951Y-594001D01*
X-13364318Y-441141D01*
X-13368198Y-439455D01*
X-13368205Y-439452D01*
X-13630278Y-325618D01*
X-13630288Y-325614D01*
X-13634159Y-323933D01*
X-13638231Y-322792D01*
X-13913366Y-245702D01*
X-13913379Y-245699D01*
X-13917445Y-244560D01*
X-13921632Y-243984D01*
X-13921644Y-243982D01*
X-14204705Y-205076D01*
X-14204718Y-205075D01*
X-14208902Y-204500D01*
X-14503098Y-204500D01*
X-14507282Y-205075D01*
X-14507296Y-205076D01*
X-14790357Y-243982D01*
X-14790372Y-243984D01*
X-14794555Y-244560D01*
X-14798619Y-245698D01*
X-14798635Y-245702D01*
X-15073770Y-322792D01*
X-15073775Y-322793D01*
X-15077841Y-323933D01*
X-15081709Y-325612D01*
X-15081723Y-325618D01*
X-15343796Y-439452D01*
X-15343809Y-439458D01*
X-15347682Y-441141D01*
X-15351293Y-443336D01*
X-15351301Y-443341D01*
X-15595437Y-591804D01*
X-15595443Y-591807D01*
X-15599049Y-594001D01*
X-15602324Y-596664D01*
X-15602332Y-596671D01*
X-15823975Y-776992D01*
X-15823979Y-776995D01*
X-15827260Y-779665D01*
X-15830139Y-782747D01*
X-15830148Y-782756D01*
X-16025177Y-991581D01*
X-16025182Y-991586D01*
X-16028065Y-994674D01*
X-16030501Y-998124D01*
X-16030510Y-998136D01*
X-16195276Y-1231558D01*
X-16195280Y-1231563D01*
X-16197722Y-1235024D01*
X-16199668Y-1238778D01*
X-16199672Y-1238786D01*
X-16331123Y-1492473D01*
X-16331128Y-1492483D01*
X-16333072Y-1496236D01*
X-16334489Y-1500221D01*
X-16334493Y-1500232D01*
X-16430171Y-1769445D01*
X-16430175Y-1769457D01*
X-16431592Y-1773446D01*
X-16432455Y-1777596D01*
X-16432456Y-1777602D01*
X-16490585Y-2057332D01*
X-16490587Y-2057343D01*
X-16491448Y-2061489D01*
X-16491737Y-2065713D01*
X-16491738Y-2065721D01*
X-16511236Y-2350775D01*
X-16511525Y-2355000D01*
X-18716626Y-2355000D01*
X-18742964Y-2123887D01*
X-18742981Y-2123739D01*
X-18795876Y-1627800D01*
X-18796286Y-1623071D01*
X-18820512Y-1263037D01*
X-18820520Y-1262910D01*
X-18850895Y-761190D01*
X-18851090Y-756416D01*
X-18858539Y-400129D01*
X-18865985Y107071D01*
X-18865959Y111916D01*
X-18857049Y462847D01*
X-18848846Y726472D01*
X-16506000Y726472D01*
X-16504811Y714396D01*
X-16493878Y659434D01*
X-16484711Y637301D01*
X-16443025Y574914D01*
X-16426087Y557976D01*
X-16363700Y516290D01*
X-16341567Y507123D01*
X-16286605Y496190D01*
X-16274528Y495000D01*
X-14497326Y495000D01*
X-14484451Y498451D01*
X-14481000Y511326D01*
X-14231000Y511326D01*
X-14227550Y498451D01*
X-14214674Y495000D01*
X-12437472Y495000D01*
X-12425396Y496190D01*
X-12370434Y507123D01*
X-12348301Y516290D01*
X-12285914Y557976D01*
X-12268976Y574914D01*
X-12227290Y637301D01*
X-12218123Y659434D01*
X-12207190Y714396D01*
X-12206000Y726472D01*
X-5297000Y726472D01*
X-5295811Y714396D01*
X-5284878Y659434D01*
X-5275711Y637301D01*
X-5234025Y574914D01*
X-5217087Y557976D01*
X-5154700Y516290D01*
X-5132567Y507123D01*
X-5077605Y496190D01*
X-5065528Y495000D01*
X-3288326Y495000D01*
X-3275451Y498451D01*
X-3272000Y511326D01*
X-3022000Y511326D01*
X-3018550Y498451D01*
X-3005674Y495000D01*
X-1228472Y495000D01*
X-1216396Y496190D01*
X-1161434Y507123D01*
X-1139301Y516290D01*
X-1076914Y557976D01*
X-1059976Y574914D01*
X-1018290Y637301D01*
X-1009123Y659434D01*
X-998190Y714396D01*
X-997606Y720326D01*
X925500Y720326D01*
X926688Y714351D01*
X926689Y714347D01*
X937650Y659241D01*
X937651Y659238D01*
X940034Y647260D01*
X995399Y564399D01*
X1078260Y509034D01*
X1151326Y494500D01*
X4994579Y494500D01*
X5000674Y494500D01*
X5073740Y509034D01*
X5156601Y564399D01*
X5211966Y647260D01*
X5226500Y720326D01*
X5226500Y1270500D01*
X5243113Y1332500D01*
X5288500Y1377887D01*
X5350500Y1394500D01*
X12104500Y1394500D01*
X12166500Y1377887D01*
X12211887Y1332500D01*
X12228500Y1270500D01*
X12228500Y720326D01*
X12229688Y714351D01*
X12229689Y714347D01*
X12240650Y659241D01*
X12240651Y659238D01*
X12243034Y647260D01*
X12298399Y564399D01*
X12381260Y509034D01*
X12454326Y494500D01*
X16297579Y494500D01*
X16303674Y494500D01*
X16376740Y509034D01*
X16459601Y564399D01*
X16514966Y647260D01*
X16529500Y720326D01*
X16529500Y4569674D01*
X16514966Y4642740D01*
X16459601Y4725601D01*
X16376740Y4780966D01*
X16364762Y4783349D01*
X16364759Y4783350D01*
X16309653Y4794311D01*
X16309649Y4794312D01*
X16303674Y4795500D01*
X12454326Y4795500D01*
X12448351Y4794312D01*
X12448346Y4794311D01*
X12393240Y4783350D01*
X12393235Y4783349D01*
X12381260Y4780966D01*
X12371105Y4774181D01*
X12371103Y4774180D01*
X12308551Y4732385D01*
X12308548Y4732383D01*
X12298399Y4725601D01*
X12291617Y4715452D01*
X12291615Y4715449D01*
X12249820Y4652897D01*
X12249819Y4652895D01*
X12243034Y4642740D01*
X12240651Y4630765D01*
X12240650Y4630760D01*
X12229689Y4575654D01*
X12229688Y4575649D01*
X12228500Y4569674D01*
X12228500Y4563579D01*
X12228500Y4019500D01*
X12211887Y3957500D01*
X12166500Y3912113D01*
X12104500Y3895500D01*
X5350500Y3895500D01*
X5288500Y3912113D01*
X5243113Y3957500D01*
X5226500Y4019500D01*
X5226500Y4563579D01*
X5226500Y4569674D01*
X5211966Y4642740D01*
X5156601Y4725601D01*
X5073740Y4780966D01*
X5061762Y4783349D01*
X5061759Y4783350D01*
X5006653Y4794311D01*
X5006649Y4794312D01*
X5000674Y4795500D01*
X1151326Y4795500D01*
X1145351Y4794312D01*
X1145346Y4794311D01*
X1090240Y4783350D01*
X1090235Y4783349D01*
X1078260Y4780966D01*
X1068105Y4774181D01*
X1068103Y4774180D01*
X1005551Y4732385D01*
X1005548Y4732383D01*
X995399Y4725601D01*
X988617Y4715452D01*
X988615Y4715449D01*
X946820Y4652897D01*
X946819Y4652895D01*
X940034Y4642740D01*
X937651Y4630765D01*
X937650Y4630760D01*
X926689Y4575654D01*
X926688Y4575649D01*
X925500Y4569674D01*
X925500Y720326D01*
X-997606Y720326D01*
X-997000Y726472D01*
X-997000Y2503674D01*
X-1000451Y2516550D01*
X-1013326Y2520000D01*
X-3005674Y2520000D01*
X-3018550Y2516550D01*
X-3022000Y2503674D01*
X-3022000Y511326D01*
X-3272000Y511326D01*
X-3272000Y2503674D01*
X-3275451Y2516550D01*
X-3288326Y2520000D01*
X-5280674Y2520000D01*
X-5293550Y2516550D01*
X-5297000Y2503674D01*
X-5297000Y726472D01*
X-12206000Y726472D01*
X-12206000Y2503674D01*
X-12209451Y2516550D01*
X-12222326Y2520000D01*
X-14214674Y2520000D01*
X-14227550Y2516550D01*
X-14231000Y2503674D01*
X-14231000Y511326D01*
X-14481000Y511326D01*
X-14481000Y2503674D01*
X-14484451Y2516550D01*
X-14497326Y2520000D01*
X-16489674Y2520000D01*
X-16502550Y2516550D01*
X-16506000Y2503674D01*
X-16506000Y726472D01*
X-18848846Y726472D01*
X-18841109Y975105D01*
X-18840858Y979981D01*
X-18816192Y1323571D01*
X-18776319Y1841101D01*
X-18775837Y1846022D01*
X-18736232Y2180235D01*
X-18671755Y2703165D01*
X-18671040Y2708112D01*
X-18658078Y2786326D01*
X-16506000Y2786326D01*
X-16502550Y2773451D01*
X-16489674Y2770000D01*
X-14497326Y2770000D01*
X-14484451Y2773451D01*
X-14481000Y2786326D01*
X-14231000Y2786326D01*
X-14227550Y2773451D01*
X-14214674Y2770000D01*
X-12222326Y2770000D01*
X-12209451Y2773451D01*
X-12206000Y2786326D01*
X-5297000Y2786326D01*
X-5293550Y2773451D01*
X-5280674Y2770000D01*
X-3288326Y2770000D01*
X-3275451Y2773451D01*
X-3272000Y2786326D01*
X-3022000Y2786326D01*
X-3018550Y2773451D01*
X-3005674Y2770000D01*
X-1013326Y2770000D01*
X-1000451Y2773451D01*
X-997000Y2786326D01*
X-997000Y4563528D01*
X-998190Y4575605D01*
X-1009123Y4630567D01*
X-1018290Y4652700D01*
X-1059976Y4715087D01*
X-1076914Y4732025D01*
X-1139301Y4773711D01*
X-1161434Y4782878D01*
X-1216396Y4793811D01*
X-1228472Y4795000D01*
X-3005674Y4795000D01*
X-3018550Y4791550D01*
X-3022000Y4778674D01*
X-3022000Y2786326D01*
X-3272000Y2786326D01*
X-3272000Y4778674D01*
X-3275451Y4791550D01*
X-3288326Y4795000D01*
X-5065528Y4795000D01*
X-5077605Y4793811D01*
X-5132567Y4782878D01*
X-5154700Y4773711D01*
X-5217087Y4732025D01*
X-5234025Y4715087D01*
X-5275711Y4652700D01*
X-5284878Y4630567D01*
X-5295811Y4575605D01*
X-5297000Y4563528D01*
X-5297000Y2786326D01*
X-12206000Y2786326D01*
X-12206000Y4563528D01*
X-12207190Y4575605D01*
X-12218123Y4630567D01*
X-12227290Y4652700D01*
X-12268976Y4715087D01*
X-12285914Y4732025D01*
X-12348301Y4773711D01*
X-12370434Y4782878D01*
X-12425396Y4793811D01*
X-12437472Y4795000D01*
X-14214674Y4795000D01*
X-14227550Y4791550D01*
X-14231000Y4778674D01*
X-14231000Y2786326D01*
X-14481000Y2786326D01*
X-14481000Y4778674D01*
X-14484451Y4791550D01*
X-14497326Y4795000D01*
X-16274528Y4795000D01*
X-16286605Y4793811D01*
X-16341567Y4782878D01*
X-16363700Y4773711D01*
X-16426087Y4732025D01*
X-16443025Y4715087D01*
X-16484711Y4652700D01*
X-16493878Y4630567D01*
X-16504811Y4575605D01*
X-16506000Y4563528D01*
X-16506000Y2786326D01*
X-18658078Y2786326D01*
X-18617563Y3030787D01*
X-18527633Y3559537D01*
X-18526683Y3564491D01*
X-18460953Y3872091D01*
X-18344265Y4408354D01*
X-18343056Y4413391D01*
X-18267211Y4702204D01*
X-18122029Y5247867D01*
X-18120595Y5252825D01*
X-18038000Y5516935D01*
X-18037911Y5516908D01*
X-18037901Y5517250D01*
X-17861414Y6076222D01*
X-17859710Y6081236D01*
X-17775828Y6311473D01*
X-17775818Y6311500D01*
X-17775744Y6311473D01*
X-17775726Y6311755D01*
X-17562946Y6891755D01*
X-17560998Y6896726D01*
X-17486065Y7076128D01*
X-17227262Y7692714D01*
X-17225080Y7697604D01*
X-17180325Y7792195D01*
X-17180003Y7792873D01*
X-17179976Y7792860D01*
X-17179943Y7792999D01*
X-16855843Y8475768D01*
X-16853315Y8480795D01*
X-16450157Y9238504D01*
X-16447412Y9243389D01*
X-16044705Y9923254D01*
X-15999452Y9967769D01*
X-15938101Y9984057D01*
X15928834Y10004567D01*
X15990208Y9988358D01*
G37*
%TD.AperFunction*%
%TD*%
M02*
