%TF.GenerationSoftware,KiCad,Pcbnew,(7.0.0)*%
%TF.CreationDate,2024-02-03T20:29:28+01:00*%
%TF.ProjectId,Helios_emt,48656c69-6f73-45f6-956d-742e6b696361,rev?*%
%TF.SameCoordinates,PX9d5b340PY5f5e100*%
%TF.FileFunction,Legend,Top*%
%TF.FilePolarity,Positive*%
%FSLAX46Y46*%
G04 Gerber Fmt 4.6, Leading zero omitted, Abs format (unit mm)*
G04 Created by KiCad (PCBNEW (7.0.0)) date 2024-02-03 20:29:28*
%MOMM*%
%LPD*%
G01*
G04 APERTURE LIST*
%ADD10C,0.150000*%
%ADD11C,0.120000*%
G04 APERTURE END LIST*
D10*
%TO.C,D1*%
X10842705Y-7758580D02*
X10842705Y-6758580D01*
X10842705Y-6758580D02*
X11080800Y-6758580D01*
X11080800Y-6758580D02*
X11223657Y-6806200D01*
X11223657Y-6806200D02*
X11318895Y-6901438D01*
X11318895Y-6901438D02*
X11366514Y-6996676D01*
X11366514Y-6996676D02*
X11414133Y-7187152D01*
X11414133Y-7187152D02*
X11414133Y-7330009D01*
X11414133Y-7330009D02*
X11366514Y-7520485D01*
X11366514Y-7520485D02*
X11318895Y-7615723D01*
X11318895Y-7615723D02*
X11223657Y-7710961D01*
X11223657Y-7710961D02*
X11080800Y-7758580D01*
X11080800Y-7758580D02*
X10842705Y-7758580D01*
X12366514Y-7758580D02*
X11795086Y-7758580D01*
X12080800Y-7758580D02*
X12080800Y-6758580D01*
X12080800Y-6758580D02*
X11985562Y-6901438D01*
X11985562Y-6901438D02*
X11890324Y-6996676D01*
X11890324Y-6996676D02*
X11795086Y-7044295D01*
%TO.C,D0*%
X10995105Y6617820D02*
X10995105Y7617820D01*
X10995105Y7617820D02*
X11233200Y7617820D01*
X11233200Y7617820D02*
X11376057Y7570200D01*
X11376057Y7570200D02*
X11471295Y7474962D01*
X11471295Y7474962D02*
X11518914Y7379724D01*
X11518914Y7379724D02*
X11566533Y7189248D01*
X11566533Y7189248D02*
X11566533Y7046391D01*
X11566533Y7046391D02*
X11518914Y6855915D01*
X11518914Y6855915D02*
X11471295Y6760677D01*
X11471295Y6760677D02*
X11376057Y6665439D01*
X11376057Y6665439D02*
X11233200Y6617820D01*
X11233200Y6617820D02*
X10995105Y6617820D01*
X12185581Y7617820D02*
X12280819Y7617820D01*
X12280819Y7617820D02*
X12376057Y7570200D01*
X12376057Y7570200D02*
X12423676Y7522581D01*
X12423676Y7522581D02*
X12471295Y7427343D01*
X12471295Y7427343D02*
X12518914Y7236867D01*
X12518914Y7236867D02*
X12518914Y6998772D01*
X12518914Y6998772D02*
X12471295Y6808296D01*
X12471295Y6808296D02*
X12423676Y6713058D01*
X12423676Y6713058D02*
X12376057Y6665439D01*
X12376057Y6665439D02*
X12280819Y6617820D01*
X12280819Y6617820D02*
X12185581Y6617820D01*
X12185581Y6617820D02*
X12090343Y6665439D01*
X12090343Y6665439D02*
X12042724Y6713058D01*
X12042724Y6713058D02*
X11995105Y6808296D01*
X11995105Y6808296D02*
X11947486Y6998772D01*
X11947486Y6998772D02*
X11947486Y7236867D01*
X11947486Y7236867D02*
X11995105Y7427343D01*
X11995105Y7427343D02*
X12042724Y7522581D01*
X12042724Y7522581D02*
X12090343Y7570200D01*
X12090343Y7570200D02*
X12185581Y7617820D01*
%TO.C,D3*%
X-12474496Y6871820D02*
X-12474496Y7871820D01*
X-12474496Y7871820D02*
X-12236401Y7871820D01*
X-12236401Y7871820D02*
X-12093544Y7824200D01*
X-12093544Y7824200D02*
X-11998306Y7728962D01*
X-11998306Y7728962D02*
X-11950687Y7633724D01*
X-11950687Y7633724D02*
X-11903068Y7443248D01*
X-11903068Y7443248D02*
X-11903068Y7300391D01*
X-11903068Y7300391D02*
X-11950687Y7109915D01*
X-11950687Y7109915D02*
X-11998306Y7014677D01*
X-11998306Y7014677D02*
X-12093544Y6919439D01*
X-12093544Y6919439D02*
X-12236401Y6871820D01*
X-12236401Y6871820D02*
X-12474496Y6871820D01*
X-11569734Y7871820D02*
X-10950687Y7871820D01*
X-10950687Y7871820D02*
X-11284020Y7490867D01*
X-11284020Y7490867D02*
X-11141163Y7490867D01*
X-11141163Y7490867D02*
X-11045925Y7443248D01*
X-11045925Y7443248D02*
X-10998306Y7395629D01*
X-10998306Y7395629D02*
X-10950687Y7300391D01*
X-10950687Y7300391D02*
X-10950687Y7062296D01*
X-10950687Y7062296D02*
X-10998306Y6967058D01*
X-10998306Y6967058D02*
X-11045925Y6919439D01*
X-11045925Y6919439D02*
X-11141163Y6871820D01*
X-11141163Y6871820D02*
X-11426877Y6871820D01*
X-11426877Y6871820D02*
X-11522115Y6919439D01*
X-11522115Y6919439D02*
X-11569734Y6967058D01*
%TO.C,D2*%
X-12423695Y-7707780D02*
X-12423695Y-6707780D01*
X-12423695Y-6707780D02*
X-12185600Y-6707780D01*
X-12185600Y-6707780D02*
X-12042743Y-6755400D01*
X-12042743Y-6755400D02*
X-11947505Y-6850638D01*
X-11947505Y-6850638D02*
X-11899886Y-6945876D01*
X-11899886Y-6945876D02*
X-11852267Y-7136352D01*
X-11852267Y-7136352D02*
X-11852267Y-7279209D01*
X-11852267Y-7279209D02*
X-11899886Y-7469685D01*
X-11899886Y-7469685D02*
X-11947505Y-7564923D01*
X-11947505Y-7564923D02*
X-12042743Y-7660161D01*
X-12042743Y-7660161D02*
X-12185600Y-7707780D01*
X-12185600Y-7707780D02*
X-12423695Y-7707780D01*
X-11471314Y-6803019D02*
X-11423695Y-6755400D01*
X-11423695Y-6755400D02*
X-11328457Y-6707780D01*
X-11328457Y-6707780D02*
X-11090362Y-6707780D01*
X-11090362Y-6707780D02*
X-10995124Y-6755400D01*
X-10995124Y-6755400D02*
X-10947505Y-6803019D01*
X-10947505Y-6803019D02*
X-10899886Y-6898257D01*
X-10899886Y-6898257D02*
X-10899886Y-6993495D01*
X-10899886Y-6993495D02*
X-10947505Y-7136352D01*
X-10947505Y-7136352D02*
X-11518933Y-7707780D01*
X-11518933Y-7707780D02*
X-10899886Y-7707780D01*
D11*
%TO.C,D1*%
X10065685Y-12328427D02*
X10631371Y-11762742D01*
X6777639Y-9040381D02*
X10065685Y-12328427D01*
X9040381Y-6777639D02*
X12328427Y-10065685D01*
%TO.C,D0*%
X12328427Y10065685D02*
X11762742Y10631371D01*
X9040381Y6777639D02*
X12328427Y10065685D01*
X6777639Y9040381D02*
X10065685Y12328427D01*
%TO.C,D3*%
X-10065685Y12328427D02*
X-10631371Y11762742D01*
X-6777639Y9040381D02*
X-10065685Y12328427D01*
X-9040381Y6777639D02*
X-12328427Y10065685D01*
%TO.C,D2*%
X-12328427Y-10065685D02*
X-11762742Y-10631371D01*
X-9040381Y-6777639D02*
X-12328427Y-10065685D01*
X-6777639Y-9040381D02*
X-10065685Y-12328427D01*
%TO.C,R0*%
X6604000Y-303064D02*
X6604000Y151064D01*
X8074000Y-303064D02*
X8074000Y151064D01*
%TD*%
M02*
