%TF.GenerationSoftware,KiCad,Pcbnew,(7.0.0)*%
%TF.CreationDate,2024-02-03T20:29:28+01:00*%
%TF.ProjectId,Helios_emt,48656c69-6f73-45f6-956d-742e6b696361,rev?*%
%TF.SameCoordinates,PX9d5b340PY5f5e100*%
%TF.FileFunction,Profile,NP*%
%FSLAX46Y46*%
G04 Gerber Fmt 4.6, Leading zero omitted, Abs format (unit mm)*
G04 Created by KiCad (PCBNEW (7.0.0)) date 2024-02-03 20:29:28*
%MOMM*%
%LPD*%
G01*
G04 APERTURE LIST*
%TA.AperFunction,Profile*%
%ADD10C,0.100000*%
%TD*%
%TA.AperFunction,Profile*%
%ADD11C,0.150000*%
%TD*%
G04 APERTURE END LIST*
D10*
X-3604685Y-5598136D02*
X3670557Y-5583957D01*
X-4974228Y8631747D02*
X-8488077Y14729308D01*
X-9549465Y-3015620D02*
G75*
G03*
X-5000000Y-8676765I9549465J3015620D01*
G01*
X-5000000Y-8676765D02*
X-8488077Y-14729308D01*
X3670557Y-5584017D02*
G75*
G03*
X6248519Y-2998549I-4357J2582317D01*
G01*
X4973684Y-8632060D02*
G75*
G03*
X9500000Y-3000000I-4973684J8632060D01*
G01*
D11*
X-8488077Y14729307D02*
G75*
G03*
X-8488077Y-14729307I8486837J-14729307D01*
G01*
D10*
X-6169387Y2999129D02*
X-9500000Y3000000D01*
X6247047Y3010642D02*
G75*
G03*
X3661943Y5591849I-2584447J-3242D01*
G01*
X-6186036Y-3016824D02*
G75*
G03*
X-3604685Y-5598136I2581336J24D01*
G01*
X9542510Y3013424D02*
X6247033Y3010642D01*
X9500000Y-3000000D02*
X6248521Y-2998549D01*
X4973684Y-8632060D02*
X8486840Y-14729308D01*
X-4974228Y8631747D02*
G75*
G03*
X-9500000Y3000000I4974228J-8631747D01*
G01*
X-3589724Y5584485D02*
X3661943Y5591849D01*
X9542510Y3013424D02*
G75*
G03*
X5007011Y8664299I-9542510J-3013424D01*
G01*
X8486840Y14729308D02*
X5007011Y8664299D01*
X-6185997Y-3016824D02*
X-9549465Y-3015620D01*
X-3589724Y5584483D02*
G75*
G03*
X-6169385Y2999129I3724J-2583383D01*
G01*
D11*
X8486840Y-14729308D02*
G75*
G03*
X8486840Y14729308I-8486840J14729308D01*
G01*
M02*
