%TF.GenerationSoftware,KiCad,Pcbnew,(7.0.0)*%
%TF.CreationDate,2024-02-03T20:29:28+01:00*%
%TF.ProjectId,Helios_emt,48656c69-6f73-45f6-956d-742e6b696361,rev?*%
%TF.SameCoordinates,PX9d5b340PY5f5e100*%
%TF.FileFunction,Copper,L1,Top*%
%TF.FilePolarity,Positive*%
%FSLAX46Y46*%
G04 Gerber Fmt 4.6, Leading zero omitted, Abs format (unit mm)*
G04 Created by KiCad (PCBNEW (7.0.0)) date 2024-02-03 20:29:28*
%MOMM*%
%LPD*%
G01*
G04 APERTURE LIST*
G04 Aperture macros list*
%AMRoundRect*
0 Rectangle with rounded corners*
0 $1 Rounding radius*
0 $2 $3 $4 $5 $6 $7 $8 $9 X,Y pos of 4 corners*
0 Add a 4 corners polygon primitive as box body*
4,1,4,$2,$3,$4,$5,$6,$7,$8,$9,$2,$3,0*
0 Add four circle primitives for the rounded corners*
1,1,$1+$1,$2,$3*
1,1,$1+$1,$4,$5*
1,1,$1+$1,$6,$7*
1,1,$1+$1,$8,$9*
0 Add four rect primitives between the rounded corners*
20,1,$1+$1,$2,$3,$4,$5,0*
20,1,$1+$1,$4,$5,$6,$7,0*
20,1,$1+$1,$6,$7,$8,$9,0*
20,1,$1+$1,$8,$9,$2,$3,0*%
%AMRotRect*
0 Rectangle, with rotation*
0 The origin of the aperture is its center*
0 $1 length*
0 $2 width*
0 $3 Rotation angle, in degrees counterclockwise*
0 Add horizontal line*
21,1,$1,$2,0,0,$3*%
G04 Aperture macros list end*
%TA.AperFunction,SMDPad,CuDef*%
%ADD10RotRect,1.500000X2.600000X135.000000*%
%TD*%
%TA.AperFunction,SMDPad,CuDef*%
%ADD11RotRect,1.500000X2.600000X225.000000*%
%TD*%
%TA.AperFunction,SMDPad,CuDef*%
%ADD12RotRect,1.500000X2.600000X315.000000*%
%TD*%
%TA.AperFunction,SMDPad,CuDef*%
%ADD13RotRect,1.500000X2.600000X45.000000*%
%TD*%
%TA.AperFunction,SMDPad,CuDef*%
%ADD14RoundRect,0.250000X0.450000X-0.262500X0.450000X0.262500X-0.450000X0.262500X-0.450000X-0.262500X0*%
%TD*%
%TA.AperFunction,ComponentPad*%
%ADD15C,3.800000*%
%TD*%
%TA.AperFunction,ComponentPad*%
%ADD16C,4.000000*%
%TD*%
%TA.AperFunction,Conductor*%
%ADD17C,0.500000*%
%TD*%
%TA.AperFunction,Conductor*%
%ADD18C,0.250000*%
%TD*%
G04 APERTURE END LIST*
D10*
%TO.P,D1,1,K*%
%TO.N,GND*%
X10560659Y-10560659D03*
%TO.P,D1,2,A*%
%TO.N,Net-(D0-A)*%
X8439339Y-8439339D03*
%TD*%
D11*
%TO.P,D0,1,K*%
%TO.N,GND*%
X10560659Y10560659D03*
%TO.P,D0,2,A*%
%TO.N,Net-(D0-A)*%
X8439339Y8439339D03*
%TD*%
D12*
%TO.P,D3,1,K*%
%TO.N,GND*%
X-10560659Y10560659D03*
%TO.P,D3,2,A*%
%TO.N,Net-(D0-A)*%
X-8439339Y8439339D03*
%TD*%
D13*
%TO.P,D2,1,K*%
%TO.N,GND*%
X-10560659Y-10560659D03*
%TO.P,D2,2,A*%
%TO.N,Net-(D0-A)*%
X-8439339Y-8439339D03*
%TD*%
D14*
%TO.P,R0,1*%
%TO.N,Net-(D0-A)*%
X7339000Y-988500D03*
%TO.P,R0,2*%
%TO.N,VCC*%
X7339000Y836500D03*
%TD*%
D15*
%TO.P,J2,1,Pin_1*%
%TO.N,GND*%
X3148000Y2551000D03*
D16*
%TO.P,J2,2,Pin_2*%
%TO.N,VCC*%
X3148000Y-2449000D03*
%TD*%
D15*
%TO.P,J1,1,Pin_1*%
%TO.N,unconnected-(J1-Pin_1-Pad1)*%
X-3075000Y2551000D03*
D16*
%TO.P,J1,2,Pin_2*%
%TO.N,unconnected-(J1-Pin_2-Pad2)*%
X-3075000Y-2449000D03*
%TD*%
D17*
%TO.N,GND*%
X13155600Y2464000D02*
X13155600Y-7965720D01*
X13155600Y-7965720D02*
X10560660Y-10560660D01*
X-13198400Y7922920D02*
X-10560660Y10560660D01*
X13155600Y7965720D02*
X10560660Y10560660D01*
X-13198400Y2514800D02*
X-13198400Y7922920D01*
X-13198400Y-7922920D02*
X-10560660Y-10560660D01*
X-13198400Y2514800D02*
X-13198400Y-7922920D01*
X13155600Y2464000D02*
X13155600Y7965720D01*
%TO.N,VCC*%
X3148000Y-2449000D02*
X6433500Y836500D01*
X6433500Y836500D02*
X7339000Y836500D01*
%TO.N,Net-(D0-A)*%
X-3075000Y-5108188D02*
X3143037Y-5108188D01*
X10560660Y-1600000D02*
X10560660Y-838000D01*
X10560660Y6318020D02*
X8439340Y8439340D01*
X-10798500Y-1877500D02*
X-10822000Y-1854000D01*
X-8439340Y-8439340D02*
X-10822000Y-6056680D01*
X7339000Y-988500D02*
X10410160Y-988500D01*
X-10822000Y-1346000D02*
X-10822000Y940000D01*
X-10822000Y-1346000D02*
X-6843492Y-1346000D01*
X-10822000Y2108400D02*
X-10822000Y6056680D01*
X-10822000Y1295600D02*
X-10822000Y2108400D01*
X10560660Y-2514400D02*
X10560660Y-6318020D01*
X-10822000Y-1854000D02*
X-10822000Y-1346000D01*
X7339000Y-988500D02*
X7276862Y-988500D01*
X-10822000Y6056680D02*
X-8439340Y8439340D01*
D18*
X-10798500Y963500D02*
X-10822000Y940000D01*
D17*
X-10822000Y-6056680D02*
X-10822000Y-1854000D01*
X-6843492Y-1346000D02*
X-5757294Y-2432198D01*
X10560660Y-838000D02*
X10560660Y6318020D01*
X10560660Y-6318020D02*
X8439340Y-8439340D01*
X10410160Y-988500D02*
X10560660Y-838000D01*
X7276862Y-988500D02*
X5776362Y-2489000D01*
X-10822000Y940000D02*
X-10822000Y1295600D01*
X10560660Y-2514400D02*
X10560660Y-1600000D01*
X3142463Y-5117356D02*
G75*
G03*
X5776362Y-2489000I5537J2628356D01*
G01*
X-5757281Y-2432198D02*
G75*
G03*
X-3075000Y-5108188I2682281J6298D01*
G01*
%TD*%
%TA.AperFunction,Conductor*%
%TO.N,GND*%
G36*
X-8470778Y14663472D02*
G01*
X-8423832Y14616821D01*
X-5056460Y8773440D01*
X-5037825Y8741103D01*
X-5020995Y8678089D01*
X-5037927Y8615102D01*
X-5084085Y8569020D01*
X-5219382Y8491055D01*
X-5219403Y8491043D01*
X-5220939Y8490157D01*
X-5222427Y8489183D01*
X-5222439Y8489175D01*
X-5695353Y8179421D01*
X-5695380Y8179403D01*
X-5696846Y8178442D01*
X-5698269Y8177390D01*
X-5698288Y8177376D01*
X-6152742Y7841156D01*
X-6152760Y7841143D01*
X-6154194Y7840081D01*
X-6155551Y7838952D01*
X-6155580Y7838929D01*
X-6590106Y7477330D01*
X-6590132Y7477308D01*
X-6591490Y7476177D01*
X-6592801Y7474954D01*
X-6592810Y7474945D01*
X-7005994Y7089147D01*
X-7007312Y7087916D01*
X-7008536Y7086636D01*
X-7008551Y7086620D01*
X-7394419Y6682722D01*
X-7400304Y6676562D01*
X-7401457Y6675210D01*
X-7401469Y6675195D01*
X-7768010Y6244836D01*
X-7768031Y6244811D01*
X-7769185Y6243455D01*
X-7770275Y6242018D01*
X-7770281Y6242009D01*
X-8111662Y5791450D01*
X-8111672Y5791437D01*
X-8112754Y5790008D01*
X-8113760Y5788511D01*
X-8113762Y5788507D01*
X-8428898Y5319178D01*
X-8428916Y5319152D01*
X-8429892Y5317696D01*
X-8430792Y5316176D01*
X-8430795Y5316170D01*
X-8718653Y4829602D01*
X-8718666Y4829580D01*
X-8719565Y4828059D01*
X-8720384Y4826476D01*
X-8720395Y4826455D01*
X-8979995Y4324308D01*
X-8980008Y4324283D01*
X-8980829Y4322693D01*
X-8981557Y4321064D01*
X-8981571Y4321034D01*
X-9212092Y3804906D01*
X-9212102Y3804884D01*
X-9212834Y3803243D01*
X-9213473Y3801563D01*
X-9213477Y3801551D01*
X-9410076Y3283902D01*
X-9414823Y3271402D01*
X-9415354Y3269722D01*
X-9415366Y3269686D01*
X-9495586Y3015640D01*
X-9495586Y3015638D01*
X-9500466Y3000183D01*
X-9500541Y3000000D01*
X-9500532Y2999978D01*
X-9500627Y2999674D01*
X-9500175Y2999532D01*
X-9500099Y2999500D01*
X-9500077Y2999500D01*
X-9499674Y2999373D01*
X-9499634Y2999500D01*
X-6169886Y2998629D01*
X-6169288Y2998629D01*
X-6168886Y2998629D01*
X-6168886Y2999032D01*
X-6168846Y2999129D01*
X-6168881Y2999213D01*
X-6162471Y3114981D01*
X-6152123Y3288313D01*
X-6150591Y3301748D01*
X-6127970Y3435564D01*
X-6127789Y3436592D01*
X-6100711Y3585061D01*
X-6097869Y3597199D01*
X-6059218Y3731807D01*
X-6058531Y3734101D01*
X-6015132Y3873813D01*
X-6011271Y3884507D01*
X-5957171Y4015459D01*
X-5955686Y4018906D01*
X-5896555Y4150624D01*
X-5891976Y4159798D01*
X-5823078Y4284750D01*
X-5820740Y4288802D01*
X-5746584Y4411747D01*
X-5741565Y4419418D01*
X-5658873Y4536216D01*
X-5655354Y4540944D01*
X-5567243Y4653653D01*
X-5562059Y4659860D01*
X-5466671Y4766831D01*
X-5461893Y4771895D01*
X-5360946Y4873065D01*
X-5355854Y4877891D01*
X-5249100Y4973509D01*
X-5242920Y4978693D01*
X-5130389Y5067066D01*
X-5125692Y5070578D01*
X-5009077Y5153527D01*
X-5001408Y5158569D01*
X-4878616Y5233002D01*
X-4874602Y5235330D01*
X-4749775Y5304519D01*
X-4740622Y5309112D01*
X-4608914Y5368588D01*
X-4605723Y5369972D01*
X-4474721Y5424430D01*
X-4464090Y5428294D01*
X-4324436Y5472013D01*
X-4322036Y5472736D01*
X-4187642Y5511647D01*
X-4175524Y5514513D01*
X-4027224Y5541899D01*
X-4025939Y5542128D01*
X-3892297Y5565023D01*
X-3878860Y5566585D01*
X-3705712Y5577305D01*
X-3593207Y5583783D01*
X-3586123Y5583990D01*
X3658383Y5591346D01*
X3665494Y5591151D01*
X3777480Y5584895D01*
X3777673Y5584883D01*
X3951164Y5574440D01*
X3964632Y5572898D01*
X4098297Y5550237D01*
X4099565Y5550013D01*
X4247971Y5522873D01*
X4260096Y5520029D01*
X4394641Y5481331D01*
X4397055Y5480607D01*
X4536740Y5437148D01*
X4547433Y5433282D01*
X4678351Y5379132D01*
X4681766Y5377659D01*
X4813561Y5318426D01*
X4822750Y5313835D01*
X4947584Y5244935D01*
X4951786Y5242508D01*
X5074672Y5168322D01*
X5082386Y5163269D01*
X5199075Y5080586D01*
X5203867Y5077017D01*
X5316553Y4988857D01*
X5322787Y4983647D01*
X5429687Y4888253D01*
X5434793Y4883432D01*
X5535953Y4782424D01*
X5540803Y4777303D01*
X5636347Y4670560D01*
X5641554Y4664348D01*
X5681884Y4612959D01*
X5729886Y4551793D01*
X5733463Y4547006D01*
X5816330Y4430428D01*
X5821401Y4422709D01*
X5895744Y4299982D01*
X5898196Y4295753D01*
X5937481Y4224829D01*
X5967276Y4171038D01*
X5971898Y4161821D01*
X6031287Y4030210D01*
X6032799Y4026720D01*
X6087137Y3895908D01*
X6091032Y3885185D01*
X6134671Y3745660D01*
X6135454Y3743061D01*
X6174316Y3608716D01*
X6177188Y3596556D01*
X6204527Y3448321D01*
X6204812Y3446717D01*
X6227633Y3313332D01*
X6229199Y3299837D01*
X6240023Y3124293D01*
X6240055Y3123758D01*
X6245578Y3027515D01*
X6245578Y3027512D01*
X6246540Y3010759D01*
X6246492Y3010642D01*
X6246532Y3010545D01*
X6246533Y3010141D01*
X6247105Y3010143D01*
X9542143Y3012924D01*
X9542184Y3012797D01*
X9542586Y3012924D01*
X9542609Y3012924D01*
X9542684Y3012956D01*
X9543137Y3013098D01*
X9543041Y3013402D01*
X9543051Y3013424D01*
X9542981Y3013593D01*
X9457104Y3285598D01*
X9254593Y3818964D01*
X9022028Y4339928D01*
X9004901Y4373079D01*
X8760983Y4845218D01*
X8760979Y4845224D01*
X8760166Y4846799D01*
X8469857Y5337931D01*
X8152042Y5811728D01*
X8147382Y5817885D01*
X8005267Y6005670D01*
X7807755Y6266653D01*
X7438113Y6701227D01*
X7149963Y7003292D01*
X7045550Y7112748D01*
X7045540Y7112758D01*
X7044317Y7114040D01*
X6627646Y7503752D01*
X6189452Y7869095D01*
X6188017Y7870159D01*
X6188003Y7870170D01*
X5732611Y8207808D01*
X5732604Y8207813D01*
X5731158Y8208885D01*
X5541431Y8333459D01*
X5255773Y8521021D01*
X5255763Y8521027D01*
X5254254Y8522018D01*
X5252701Y8522915D01*
X5252687Y8522924D01*
X5168192Y8571745D01*
X5116457Y8601638D01*
X5070418Y8647662D01*
X5053495Y8710522D01*
X5070205Y8773438D01*
X5948599Y10304394D01*
X9041052Y10304394D01*
X9046126Y10296114D01*
X10296113Y9046127D01*
X10304393Y9041053D01*
X10306660Y9050494D01*
X10306660Y10290070D01*
X10303153Y10303154D01*
X10290070Y10306660D01*
X9050494Y10306660D01*
X9041052Y10304394D01*
X5948599Y10304394D01*
X6313653Y10940648D01*
X8599149Y10940648D01*
X8615119Y10829573D01*
X8619880Y10817680D01*
X8632329Y10814660D01*
X10290070Y10814660D01*
X10303153Y10818167D01*
X10306660Y10831250D01*
X10814660Y10831250D01*
X10818166Y10818167D01*
X10831250Y10814660D01*
X12070826Y10814660D01*
X12080267Y10816927D01*
X12075193Y10825207D01*
X10825206Y12075194D01*
X10816926Y12080268D01*
X10814660Y12070826D01*
X10814660Y10831250D01*
X10306660Y10831250D01*
X10306660Y12488991D01*
X10303640Y12501440D01*
X10291747Y12506201D01*
X10180672Y12522171D01*
X10162832Y12522171D01*
X10036076Y12503947D01*
X10018963Y12498922D01*
X9901449Y12445255D01*
X9888145Y12437036D01*
X9849530Y12405918D01*
X9844505Y12401404D01*
X8719916Y11276815D01*
X8715402Y11271790D01*
X8684284Y11233175D01*
X8676065Y11219871D01*
X8622398Y11102357D01*
X8617373Y11085244D01*
X8599149Y10958488D01*
X8599149Y10940648D01*
X6313653Y10940648D01*
X8422685Y14616489D01*
X8469611Y14663267D01*
X8533786Y14679768D01*
X8597458Y14661427D01*
X9175822Y14309571D01*
X9180853Y14306344D01*
X9661767Y13981422D01*
X9661910Y13981263D01*
X9661939Y13981305D01*
X9853484Y13851427D01*
X9858187Y13848078D01*
X10271481Y13539189D01*
X10509196Y13360496D01*
X10513531Y13357082D01*
X10800374Y13120599D01*
X10890131Y13046600D01*
X10890507Y13046288D01*
X11140375Y12838655D01*
X11144537Y12835040D01*
X11494330Y12517501D01*
X11494615Y12517240D01*
X11525424Y12488991D01*
X11745740Y12286976D01*
X11749622Y12283261D01*
X12076899Y11956413D01*
X12077441Y11955868D01*
X12323804Y11706810D01*
X12327407Y11703014D01*
X12552629Y11455568D01*
X12634296Y11365842D01*
X12634871Y11365205D01*
X12873256Y11099476D01*
X12876581Y11095616D01*
X13163858Y10748092D01*
X13164522Y10747282D01*
X13392808Y10466399D01*
X13395857Y10462493D01*
X13664045Y10104636D01*
X13664752Y10103683D01*
X13881254Y9809051D01*
X13884031Y9805117D01*
X14133269Y9437261D01*
X14134007Y9436159D01*
X14337465Y9128956D01*
X14339974Y9125010D01*
X14570202Y8747685D01*
X14570958Y8746430D01*
X14760392Y8427683D01*
X14762621Y8423774D01*
X14973765Y8037476D01*
X14974508Y8036096D01*
X15149012Y7706935D01*
X15151004Y7703015D01*
X15342878Y7308403D01*
X15343630Y7306828D01*
X15502492Y6968268D01*
X15504235Y6964384D01*
X15676617Y6562207D01*
X15677346Y6560469D01*
X15819951Y6213525D01*
X15821455Y6209692D01*
X15974169Y5800622D01*
X15974861Y5798720D01*
X16100718Y5444316D01*
X16101990Y5440547D01*
X16158283Y5264607D01*
X16234780Y5025517D01*
X16235402Y5023512D01*
X16279247Y4877907D01*
X16344098Y4662541D01*
X16345149Y4658849D01*
X16457855Y4238590D01*
X16458431Y4236360D01*
X16549540Y3869991D01*
X16550380Y3866388D01*
X16642844Y3441706D01*
X16643337Y3439326D01*
X16644108Y3435425D01*
X16716578Y3068479D01*
X16717219Y3064978D01*
X16789272Y2636864D01*
X16789674Y2634313D01*
X16844827Y2259869D01*
X16845279Y2256479D01*
X16896819Y1825777D01*
X16897114Y1823071D01*
X16933987Y1446071D01*
X16934263Y1442802D01*
X16965222Y1010299D01*
X16965394Y1007443D01*
X16983854Y629044D01*
X16983968Y625905D01*
X16994296Y192451D01*
X16994332Y189450D01*
X16994332Y-189450D01*
X16994296Y-192451D01*
X16983968Y-625903D01*
X16983854Y-629042D01*
X16965394Y-1007441D01*
X16965222Y-1010297D01*
X16934263Y-1442800D01*
X16933987Y-1446069D01*
X16897114Y-1823069D01*
X16896819Y-1825775D01*
X16845279Y-2256477D01*
X16844827Y-2259867D01*
X16789674Y-2634311D01*
X16789272Y-2636862D01*
X16717219Y-3064976D01*
X16716578Y-3068477D01*
X16643340Y-3439312D01*
X16642844Y-3441704D01*
X16550380Y-3866386D01*
X16549540Y-3869989D01*
X16458431Y-4236358D01*
X16457855Y-4238588D01*
X16345149Y-4658847D01*
X16344098Y-4662539D01*
X16235410Y-5023486D01*
X16234768Y-5025553D01*
X16101990Y-5440545D01*
X16100718Y-5444314D01*
X15974861Y-5798718D01*
X15974169Y-5800620D01*
X15821455Y-6209690D01*
X15819951Y-6213523D01*
X15677346Y-6560467D01*
X15676617Y-6562205D01*
X15504235Y-6964382D01*
X15502492Y-6968266D01*
X15343630Y-7306826D01*
X15342878Y-7308401D01*
X15151004Y-7703013D01*
X15149012Y-7706933D01*
X14974508Y-8036094D01*
X14973747Y-8037508D01*
X14762639Y-8423740D01*
X14760392Y-8427681D01*
X14570958Y-8746428D01*
X14570202Y-8747683D01*
X14339974Y-9125008D01*
X14337465Y-9128954D01*
X14134007Y-9436157D01*
X14133269Y-9437259D01*
X13884031Y-9805115D01*
X13881254Y-9809049D01*
X13664752Y-10103681D01*
X13664045Y-10104634D01*
X13395857Y-10462491D01*
X13392808Y-10466397D01*
X13164522Y-10747280D01*
X13163858Y-10748090D01*
X12876581Y-11095614D01*
X12873256Y-11099474D01*
X12634871Y-11365203D01*
X12634263Y-11365877D01*
X12327407Y-11703012D01*
X12323804Y-11706808D01*
X12077441Y-11955866D01*
X12076899Y-11956411D01*
X11749622Y-12283259D01*
X11745740Y-12286974D01*
X11494710Y-12517152D01*
X11494245Y-12517576D01*
X11144537Y-12835038D01*
X11140375Y-12838653D01*
X10890507Y-13046286D01*
X10890131Y-13046598D01*
X10513570Y-13357050D01*
X10509128Y-13360547D01*
X10271866Y-13538899D01*
X10271587Y-13539109D01*
X9858203Y-13848065D01*
X9853485Y-13851425D01*
X9661940Y-13981304D01*
X9661766Y-13981421D01*
X9180863Y-14306336D01*
X9175811Y-14309577D01*
X8597255Y-14661548D01*
X8533659Y-14679889D01*
X8469541Y-14663465D01*
X8422595Y-14616809D01*
X6314717Y-10958487D01*
X8599149Y-10958487D01*
X8617373Y-11085243D01*
X8622398Y-11102356D01*
X8676065Y-11219870D01*
X8684284Y-11233174D01*
X8715402Y-11271789D01*
X8719916Y-11276814D01*
X9844505Y-12401403D01*
X9849530Y-12405917D01*
X9888145Y-12437035D01*
X9901449Y-12445254D01*
X10018963Y-12498921D01*
X10036076Y-12503946D01*
X10162832Y-12522170D01*
X10180672Y-12522170D01*
X10291747Y-12506200D01*
X10303640Y-12501439D01*
X10306660Y-12488991D01*
X10306660Y-12070826D01*
X10814660Y-12070826D01*
X10816926Y-12080267D01*
X10825206Y-12075193D01*
X12075193Y-10825206D01*
X12080267Y-10816926D01*
X12070826Y-10814660D01*
X10831250Y-10814660D01*
X10818166Y-10818166D01*
X10814660Y-10831250D01*
X10814660Y-12070826D01*
X10306660Y-12070826D01*
X10306660Y-10831250D01*
X10303153Y-10818166D01*
X10290070Y-10814660D01*
X8632329Y-10814660D01*
X8619880Y-10817679D01*
X8615119Y-10829572D01*
X8599149Y-10940647D01*
X8599149Y-10958487D01*
X6314717Y-10958487D01*
X5937837Y-10304393D01*
X9041052Y-10304393D01*
X9050494Y-10306660D01*
X10290070Y-10306660D01*
X10303153Y-10303153D01*
X10306660Y-10290070D01*
X10814660Y-10290070D01*
X10818166Y-10303153D01*
X10831250Y-10306660D01*
X12488991Y-10306660D01*
X12501439Y-10303640D01*
X12506200Y-10291747D01*
X12522170Y-10180672D01*
X12522170Y-10162832D01*
X12503946Y-10036076D01*
X12498921Y-10018963D01*
X12445254Y-9901449D01*
X12437035Y-9888145D01*
X12405917Y-9849530D01*
X12401403Y-9844505D01*
X11276814Y-8719916D01*
X11271789Y-8715402D01*
X11233174Y-8684284D01*
X11219870Y-8676065D01*
X11102356Y-8622398D01*
X11085243Y-8617373D01*
X10958487Y-8599149D01*
X10940647Y-8599149D01*
X10829572Y-8615119D01*
X10817679Y-8619880D01*
X10814660Y-8632329D01*
X10814660Y-10290070D01*
X10306660Y-10290070D01*
X10306660Y-9050494D01*
X10304393Y-9041052D01*
X10296113Y-9046126D01*
X9046126Y-10296113D01*
X9041052Y-10304393D01*
X5937837Y-10304393D01*
X5037270Y-8741416D01*
X5020445Y-8678403D01*
X5037382Y-8615417D01*
X5083540Y-8569340D01*
X5220424Y-8490473D01*
X5696391Y-8178759D01*
X6153795Y-7840394D01*
X6591146Y-7476480D01*
X7007020Y-7088204D01*
X7400061Y-6676831D01*
X7768988Y-6243700D01*
X8112600Y-5790224D01*
X8429776Y-5317880D01*
X8719483Y-4828207D01*
X8980777Y-4322802D01*
X9212807Y-3803310D01*
X9414816Y-3271424D01*
X9500465Y-3000182D01*
X9500541Y-3000000D01*
X9500531Y-2999977D01*
X9500627Y-2999674D01*
X9500174Y-2999531D01*
X9500099Y-2999500D01*
X9500076Y-2999499D01*
X9499674Y-2999373D01*
X9499633Y-2999499D01*
X9481561Y-2999490D01*
X9481558Y-2999490D01*
X6330176Y-2998085D01*
X6263426Y-2978916D01*
X6216971Y-2927293D01*
X6204924Y-2858898D01*
X6219235Y-2722919D01*
X6230820Y-2681861D01*
X6255444Y-2647020D01*
X7164061Y-1738404D01*
X7204939Y-1711091D01*
X7253157Y-1701500D01*
X7840313Y-1701500D01*
X7843266Y-1701500D01*
X7873699Y-1698646D01*
X8001882Y-1653793D01*
X8111150Y-1573150D01*
X8172385Y-1490178D01*
X8216982Y-1452520D01*
X8273765Y-1439000D01*
X9984160Y-1439000D01*
X10047160Y-1455881D01*
X10093279Y-1502000D01*
X10110160Y-1565000D01*
X10110160Y-6079226D01*
X10100569Y-6127444D01*
X10073255Y-6168322D01*
X9270896Y-6970679D01*
X9214412Y-7003290D01*
X9149190Y-7003290D01*
X9092706Y-6970678D01*
X8960437Y-6838409D01*
X8960436Y-6838408D01*
X8956060Y-6834032D01*
X8950910Y-6830591D01*
X8916801Y-6807800D01*
X8916800Y-6807799D01*
X8906480Y-6800904D01*
X8894308Y-6798483D01*
X8894306Y-6798482D01*
X8840421Y-6787765D01*
X8828249Y-6785344D01*
X8816077Y-6787765D01*
X8762192Y-6798482D01*
X8762189Y-6798482D01*
X8750017Y-6800904D01*
X8739697Y-6807799D01*
X8739696Y-6807800D01*
X8705584Y-6830593D01*
X8705580Y-6830595D01*
X8700438Y-6834032D01*
X8696064Y-6838405D01*
X8696059Y-6838410D01*
X6838410Y-8696059D01*
X6838405Y-8696064D01*
X6834032Y-8700438D01*
X6830595Y-8705580D01*
X6830593Y-8705584D01*
X6824033Y-8715402D01*
X6800904Y-8750017D01*
X6785344Y-8828249D01*
X6787765Y-8840421D01*
X6798482Y-8894306D01*
X6798483Y-8894308D01*
X6800904Y-8906480D01*
X6834032Y-8956060D01*
X7922620Y-10044648D01*
X7972200Y-10077776D01*
X8050431Y-10093336D01*
X8128663Y-10077776D01*
X8178242Y-10044648D01*
X10044648Y-8178242D01*
X10077776Y-8128663D01*
X10093336Y-8050431D01*
X10077776Y-7972200D01*
X10044648Y-7922620D01*
X9908000Y-7785971D01*
X9875388Y-7729488D01*
X9875388Y-7664266D01*
X9907997Y-7607784D01*
X10856329Y-6659452D01*
X10866837Y-6650062D01*
X10894630Y-6627899D01*
X10926851Y-6580638D01*
X10929497Y-6576908D01*
X10963453Y-6530902D01*
X10966289Y-6522795D01*
X10971132Y-6515693D01*
X10987973Y-6461089D01*
X10989445Y-6456618D01*
X11004752Y-6412874D01*
X11008306Y-6402719D01*
X11008627Y-6394132D01*
X11011160Y-6385922D01*
X11011160Y-6328822D01*
X11011248Y-6324110D01*
X11011970Y-6304817D01*
X11013385Y-6267010D01*
X11011582Y-6260283D01*
X11011160Y-6252754D01*
X11011160Y-848785D01*
X11011248Y-844074D01*
X11012541Y-809513D01*
X11013384Y-786990D01*
X11011582Y-780266D01*
X11011160Y-772743D01*
X11011160Y6285641D01*
X11011952Y6299748D01*
X11012095Y6301019D01*
X11015930Y6335055D01*
X11005308Y6391190D01*
X11004521Y6395824D01*
X10997415Y6442970D01*
X10996008Y6452307D01*
X10992282Y6460044D01*
X10990684Y6468491D01*
X10963974Y6519028D01*
X10961881Y6523172D01*
X10937085Y6574662D01*
X10931241Y6580961D01*
X10927226Y6588557D01*
X10886851Y6628932D01*
X10883581Y6632326D01*
X10844715Y6674214D01*
X10838684Y6677696D01*
X10833061Y6682722D01*
X9908000Y7607783D01*
X9875388Y7664267D01*
X9875389Y7729490D01*
X9907998Y7785971D01*
X10044648Y7922620D01*
X10077776Y7972200D01*
X10093336Y8050431D01*
X10077776Y8128663D01*
X10044648Y8178242D01*
X9590561Y8632329D01*
X10814660Y8632329D01*
X10817679Y8619881D01*
X10829572Y8615120D01*
X10940647Y8599150D01*
X10958487Y8599150D01*
X11085243Y8617374D01*
X11102356Y8622399D01*
X11219870Y8676066D01*
X11233174Y8684285D01*
X11271789Y8715403D01*
X11276814Y8719917D01*
X12401403Y9844506D01*
X12405917Y9849531D01*
X12437035Y9888146D01*
X12445254Y9901450D01*
X12498921Y10018964D01*
X12503946Y10036077D01*
X12522170Y10162833D01*
X12522170Y10180673D01*
X12506200Y10291748D01*
X12501439Y10303641D01*
X12488991Y10306660D01*
X10831250Y10306660D01*
X10818166Y10303154D01*
X10814660Y10290070D01*
X10814660Y8632329D01*
X9590561Y8632329D01*
X8178242Y10044648D01*
X8128663Y10077776D01*
X8116488Y10080198D01*
X8116487Y10080198D01*
X8062603Y10090915D01*
X8050431Y10093336D01*
X8038259Y10090915D01*
X7984373Y10080198D01*
X7984369Y10080197D01*
X7972200Y10077776D01*
X7961881Y10070882D01*
X7961878Y10070880D01*
X7927767Y10048088D01*
X7927760Y10048084D01*
X7922620Y10044648D01*
X7918247Y10040276D01*
X7918242Y10040271D01*
X6838409Y8960438D01*
X6838404Y8960433D01*
X6834032Y8956060D01*
X6830596Y8950920D01*
X6830592Y8950913D01*
X6807800Y8916802D01*
X6807798Y8916799D01*
X6800904Y8906480D01*
X6798483Y8894311D01*
X6798482Y8894307D01*
X6791066Y8857020D01*
X6785344Y8828249D01*
X6800904Y8750017D01*
X6834032Y8700438D01*
X8700438Y6834032D01*
X8750017Y6800904D01*
X8828249Y6785344D01*
X8906480Y6800904D01*
X8956060Y6834032D01*
X9092709Y6970682D01*
X9149190Y7003291D01*
X9214413Y7003292D01*
X9270897Y6970680D01*
X10073255Y6168322D01*
X10100569Y6127445D01*
X10110160Y6079227D01*
X10110160Y-412000D01*
X10093279Y-475000D01*
X10047160Y-521119D01*
X9984160Y-538000D01*
X8273765Y-538000D01*
X8216982Y-524480D01*
X8172385Y-486821D01*
X8116753Y-411442D01*
X8111150Y-403850D01*
X8103557Y-398246D01*
X8009480Y-328814D01*
X8009477Y-328812D01*
X8001882Y-323207D01*
X7873699Y-278354D01*
X7866067Y-277638D01*
X7866066Y-277638D01*
X7846201Y-275775D01*
X7846195Y-275774D01*
X7843266Y-275500D01*
X6834734Y-275500D01*
X6831805Y-275774D01*
X6831798Y-275775D01*
X6811933Y-277638D01*
X6811930Y-277638D01*
X6804301Y-278354D01*
X6797063Y-280886D01*
X6797061Y-280887D01*
X6688372Y-318919D01*
X6676118Y-323207D01*
X6668525Y-328810D01*
X6668519Y-328814D01*
X6574442Y-398246D01*
X6574438Y-398249D01*
X6566850Y-403850D01*
X6561249Y-411438D01*
X6561246Y-411442D01*
X6491814Y-505519D01*
X6491810Y-505525D01*
X6486207Y-513118D01*
X6483087Y-522033D01*
X6483087Y-522034D01*
X6445644Y-629042D01*
X6441354Y-641301D01*
X6438500Y-671734D01*
X6438500Y-674687D01*
X6438500Y-1137569D01*
X6428909Y-1185787D01*
X6401597Y-1226661D01*
X5932147Y-1696112D01*
X5523064Y-2105195D01*
X5464584Y-2138323D01*
X5397393Y-2136673D01*
X5340609Y-2100715D01*
X5310391Y-2040682D01*
X5278081Y-1878247D01*
X5185359Y-1605098D01*
X5057778Y-1346389D01*
X5047107Y-1330419D01*
X5026951Y-1276867D01*
X5032559Y-1219919D01*
X5062776Y-1171326D01*
X6443633Y209532D01*
X6494089Y240365D01*
X6553057Y244784D01*
X6607546Y221815D01*
X6676118Y171207D01*
X6804301Y126354D01*
X6834734Y123500D01*
X7840313Y123500D01*
X7843266Y123500D01*
X7873699Y126354D01*
X8001882Y171207D01*
X8111150Y251850D01*
X8191793Y361118D01*
X8236646Y489301D01*
X8239500Y519734D01*
X8239500Y1153266D01*
X8236646Y1183699D01*
X8191793Y1311882D01*
X8111150Y1421150D01*
X8103557Y1426754D01*
X8009480Y1496186D01*
X8009477Y1496188D01*
X8001882Y1501793D01*
X7873699Y1546646D01*
X7866067Y1547362D01*
X7866066Y1547362D01*
X7846201Y1549225D01*
X7846195Y1549226D01*
X7843266Y1549500D01*
X6834734Y1549500D01*
X6831805Y1549226D01*
X6831798Y1549225D01*
X6811933Y1547362D01*
X6811930Y1547362D01*
X6804301Y1546646D01*
X6797063Y1544114D01*
X6797061Y1544113D01*
X6685034Y1504913D01*
X6676118Y1501793D01*
X6668525Y1496190D01*
X6668519Y1496186D01*
X6574442Y1426754D01*
X6574438Y1426751D01*
X6566850Y1421150D01*
X6561249Y1413562D01*
X6561245Y1413557D01*
X6507885Y1341256D01*
X6465383Y1304680D01*
X6416985Y1291712D01*
X6416465Y1291770D01*
X6407195Y1290017D01*
X6407186Y1290016D01*
X6360304Y1281146D01*
X6355665Y1280358D01*
X6308547Y1273255D01*
X6299213Y1271848D01*
X6291476Y1268123D01*
X6283029Y1266524D01*
X6274684Y1262115D01*
X6274679Y1262112D01*
X6232499Y1239820D01*
X6228299Y1237700D01*
X6185359Y1217020D01*
X6185354Y1217017D01*
X6176858Y1212925D01*
X6170559Y1207082D01*
X6162963Y1203066D01*
X6156296Y1196400D01*
X6156293Y1196397D01*
X6122571Y1162676D01*
X6119182Y1159411D01*
X6109377Y1150313D01*
X6077306Y1120555D01*
X6073825Y1114529D01*
X6068797Y1108902D01*
X4425675Y-534220D01*
X4377083Y-564438D01*
X4320137Y-570047D01*
X4266582Y-549893D01*
X4259684Y-545284D01*
X4250611Y-539222D01*
X4246911Y-537397D01*
X4246907Y-537395D01*
X4109199Y-469485D01*
X3991902Y-411641D01*
X3747903Y-328814D01*
X3722663Y-320246D01*
X3722659Y-320244D01*
X3718753Y-318919D01*
X3714705Y-318113D01*
X3714702Y-318113D01*
X3439881Y-263448D01*
X3439880Y-263447D01*
X3435839Y-262644D01*
X3431728Y-262374D01*
X3431724Y-262374D01*
X3152119Y-244048D01*
X3148000Y-243778D01*
X3143881Y-244048D01*
X2864275Y-262374D01*
X2864269Y-262374D01*
X2860161Y-262644D01*
X2856120Y-263447D01*
X2856118Y-263448D01*
X2581297Y-318113D01*
X2581291Y-318114D01*
X2577247Y-318919D01*
X2573344Y-320243D01*
X2573336Y-320246D01*
X2307997Y-410317D01*
X2307990Y-410319D01*
X2304098Y-411641D01*
X2300405Y-413462D01*
X2300403Y-413463D01*
X2049092Y-537395D01*
X2049081Y-537401D01*
X2045389Y-539222D01*
X2041960Y-541512D01*
X2041955Y-541516D01*
X1808977Y-697187D01*
X1808972Y-697190D01*
X1805546Y-699480D01*
X1802451Y-702193D01*
X1802446Y-702198D01*
X1591761Y-886964D01*
X1591753Y-886971D01*
X1588673Y-889673D01*
X1585971Y-892753D01*
X1585964Y-892761D01*
X1401198Y-1103446D01*
X1401193Y-1103451D01*
X1398480Y-1106546D01*
X1396190Y-1109972D01*
X1396187Y-1109977D01*
X1240516Y-1342955D01*
X1240512Y-1342960D01*
X1238222Y-1346389D01*
X1236401Y-1350081D01*
X1236395Y-1350092D01*
X1126396Y-1573150D01*
X1110641Y-1605098D01*
X1109319Y-1608990D01*
X1109317Y-1608997D01*
X1019246Y-1874336D01*
X1019243Y-1874344D01*
X1017919Y-1878247D01*
X1017114Y-1882291D01*
X1017113Y-1882297D01*
X962448Y-2157118D01*
X961644Y-2161161D01*
X961374Y-2165269D01*
X961374Y-2165275D01*
X954109Y-2276118D01*
X942778Y-2449000D01*
X943048Y-2453119D01*
X959210Y-2699714D01*
X961644Y-2736839D01*
X962447Y-2740880D01*
X962448Y-2740881D01*
X1017003Y-3015151D01*
X1017919Y-3019753D01*
X1019244Y-3023659D01*
X1019246Y-3023663D01*
X1093961Y-3243765D01*
X1110641Y-3292902D01*
X1112463Y-3296596D01*
X1231021Y-3537010D01*
X1238222Y-3551611D01*
X1398480Y-3791454D01*
X1588673Y-4008327D01*
X1805546Y-4198520D01*
X2045389Y-4358778D01*
X2049093Y-4360604D01*
X2049092Y-4360604D01*
X2166862Y-4418682D01*
X2216807Y-4463064D01*
X2237037Y-4526741D01*
X2221865Y-4591810D01*
X2175557Y-4639973D01*
X2111134Y-4657688D01*
X-2038134Y-4657688D01*
X-2102557Y-4639973D01*
X-2148865Y-4591810D01*
X-2164037Y-4526741D01*
X-2143807Y-4463064D01*
X-2093862Y-4418682D01*
X-2061655Y-4402799D01*
X-1972389Y-4358778D01*
X-1732546Y-4198520D01*
X-1515673Y-4008327D01*
X-1325480Y-3791454D01*
X-1165222Y-3551611D01*
X-1037641Y-3292902D01*
X-944919Y-3019753D01*
X-888644Y-2736839D01*
X-869778Y-2449000D01*
X-888644Y-2161161D01*
X-944919Y-1878247D01*
X-1037641Y-1605098D01*
X-1165222Y-1346389D01*
X-1325480Y-1106546D01*
X-1515673Y-889673D01*
X-1732546Y-699480D01*
X-1972389Y-539222D01*
X-1976089Y-537397D01*
X-1976093Y-537395D01*
X-2113801Y-469485D01*
X-2231098Y-411641D01*
X-2475097Y-328814D01*
X-2500337Y-320246D01*
X-2500341Y-320244D01*
X-2504247Y-318919D01*
X-2508295Y-318113D01*
X-2508298Y-318113D01*
X-2783119Y-263448D01*
X-2783120Y-263447D01*
X-2787161Y-262644D01*
X-2791272Y-262374D01*
X-2791276Y-262374D01*
X-3070881Y-244048D01*
X-3075000Y-243778D01*
X-3079119Y-244048D01*
X-3358725Y-262374D01*
X-3358731Y-262374D01*
X-3362839Y-262644D01*
X-3366880Y-263447D01*
X-3366882Y-263448D01*
X-3641703Y-318113D01*
X-3641709Y-318114D01*
X-3645753Y-318919D01*
X-3649656Y-320243D01*
X-3649664Y-320246D01*
X-3915003Y-410317D01*
X-3915010Y-410319D01*
X-3918902Y-411641D01*
X-3922595Y-413462D01*
X-3922597Y-413463D01*
X-4173908Y-537395D01*
X-4173919Y-537401D01*
X-4177611Y-539222D01*
X-4181040Y-541512D01*
X-4181045Y-541516D01*
X-4414023Y-697187D01*
X-4414028Y-697190D01*
X-4417454Y-699480D01*
X-4420549Y-702193D01*
X-4420554Y-702198D01*
X-4631239Y-886964D01*
X-4631247Y-886971D01*
X-4634327Y-889673D01*
X-4637029Y-892753D01*
X-4637036Y-892761D01*
X-4821802Y-1103446D01*
X-4821807Y-1103451D01*
X-4824520Y-1106546D01*
X-4826810Y-1109972D01*
X-4826813Y-1109977D01*
X-4982484Y-1342955D01*
X-4982488Y-1342960D01*
X-4984778Y-1346389D01*
X-4986599Y-1350081D01*
X-4986605Y-1350092D01*
X-5096604Y-1573150D01*
X-5112359Y-1605098D01*
X-5113681Y-1608990D01*
X-5113683Y-1608997D01*
X-5203754Y-1874336D01*
X-5203757Y-1874344D01*
X-5205081Y-1878247D01*
X-5205886Y-1882293D01*
X-5205886Y-1882294D01*
X-5236915Y-2038286D01*
X-5267134Y-2098321D01*
X-5323918Y-2134279D01*
X-5391110Y-2135928D01*
X-5449589Y-2102799D01*
X-6502041Y-1050348D01*
X-6511457Y-1039812D01*
X-6527726Y-1019411D01*
X-6527730Y-1019407D01*
X-6533613Y-1012030D01*
X-6541413Y-1006712D01*
X-6541416Y-1006709D01*
X-6580835Y-979833D01*
X-6584677Y-977107D01*
X-6623012Y-948814D01*
X-6623015Y-948812D01*
X-6630610Y-943207D01*
X-6638717Y-940370D01*
X-6645819Y-935528D01*
X-6700423Y-918685D01*
X-6704886Y-917216D01*
X-6725381Y-910045D01*
X-6749887Y-901470D01*
X-6749889Y-901469D01*
X-6758793Y-898354D01*
X-6767379Y-898032D01*
X-6775590Y-895500D01*
X-6785028Y-895500D01*
X-6832707Y-895500D01*
X-6837418Y-895412D01*
X-6885068Y-893629D01*
X-6894502Y-893276D01*
X-6901226Y-895077D01*
X-6908749Y-895500D01*
X-10245500Y-895500D01*
X-10308500Y-878619D01*
X-10354619Y-832500D01*
X-10371500Y-769500D01*
X-10371500Y2551000D01*
X-5180408Y2551000D01*
X-5160798Y2264314D01*
X-5102334Y1982968D01*
X-5100898Y1978926D01*
X-5100896Y1978921D01*
X-5007545Y1716256D01*
X-5007542Y1716249D01*
X-5006104Y1712203D01*
X-5004123Y1708380D01*
X-4894173Y1496186D01*
X-4873901Y1457064D01*
X-4871416Y1453544D01*
X-4871412Y1453537D01*
X-4710675Y1225823D01*
X-4710671Y1225818D01*
X-4708189Y1222302D01*
X-4705253Y1219158D01*
X-4705251Y1219156D01*
X-4652502Y1162676D01*
X-4512053Y1012292D01*
X-4289147Y830945D01*
X-4043625Y681639D01*
X-3780058Y567156D01*
X-3503358Y489629D01*
X-3218678Y450500D01*
X-2935627Y450500D01*
X-2931322Y450500D01*
X-2646642Y489629D01*
X-2369942Y567156D01*
X-2118915Y676192D01*
X1635775Y676192D01*
X1643166Y667874D01*
X1851969Y516171D01*
X1858650Y511930D01*
X2117234Y369773D01*
X2124369Y366415D01*
X2398746Y257781D01*
X2406236Y255348D01*
X2692058Y181961D01*
X2699829Y180479D01*
X2992569Y143497D01*
X3000460Y143000D01*
X3295540Y143000D01*
X3303430Y143497D01*
X3596170Y180479D01*
X3603941Y181961D01*
X3889763Y255348D01*
X3897253Y257781D01*
X4171630Y366415D01*
X4178765Y369773D01*
X4437349Y511930D01*
X4444030Y516171D01*
X4652833Y667875D01*
X4660224Y676192D01*
X4654222Y685567D01*
X3159729Y2180061D01*
X3147999Y2186833D01*
X3136270Y2180061D01*
X1641776Y685567D01*
X1635775Y676192D01*
X-2118915Y676192D01*
X-2106375Y681639D01*
X-1860853Y830945D01*
X-1637947Y1012292D01*
X-1441811Y1222302D01*
X-1276099Y1457064D01*
X-1143896Y1712203D01*
X-1047666Y1982968D01*
X-989202Y2264314D01*
X-969863Y2547042D01*
X735488Y2547042D01*
X754014Y2252564D01*
X755007Y2244703D01*
X810295Y1954872D01*
X812266Y1947195D01*
X903446Y1666576D01*
X906361Y1659213D01*
X1031993Y1392231D01*
X1035805Y1385297D01*
X1193912Y1136159D01*
X1198557Y1129766D01*
X1263850Y1050840D01*
X1275335Y1042947D01*
X1287511Y1049724D01*
X2777059Y2539271D01*
X2783830Y2551000D01*
X3512167Y2551000D01*
X3518939Y2539271D01*
X5008487Y1049724D01*
X5020664Y1042946D01*
X5032146Y1050838D01*
X5097437Y1129760D01*
X5102090Y1136165D01*
X5260194Y1385297D01*
X5264006Y1392231D01*
X5389638Y1659213D01*
X5392553Y1666576D01*
X5483733Y1947195D01*
X5485704Y1954872D01*
X5540992Y2244703D01*
X5541985Y2252564D01*
X5560512Y2547042D01*
X5560512Y2554958D01*
X5541985Y2849437D01*
X5540992Y2857298D01*
X5485704Y3147129D01*
X5483733Y3154806D01*
X5392553Y3435425D01*
X5389638Y3442788D01*
X5264006Y3709770D01*
X5260194Y3716704D01*
X5102087Y3965842D01*
X5097442Y3972235D01*
X5032148Y4051162D01*
X5020663Y4059055D01*
X5008487Y4052278D01*
X3518939Y2562730D01*
X3512167Y2551000D01*
X2783830Y2551000D01*
X2783831Y2551001D01*
X2777059Y2562730D01*
X1287511Y4052278D01*
X1275335Y4059055D01*
X1263850Y4051162D01*
X1198557Y3972235D01*
X1193912Y3965842D01*
X1035805Y3716704D01*
X1031993Y3709770D01*
X906361Y3442788D01*
X903446Y3435425D01*
X812266Y3154806D01*
X810295Y3147129D01*
X755007Y2857298D01*
X754014Y2849437D01*
X735488Y2554958D01*
X735488Y2547042D01*
X-969863Y2547042D01*
X-969592Y2551000D01*
X-989202Y2837686D01*
X-1047666Y3119032D01*
X-1143896Y3389797D01*
X-1276099Y3644936D01*
X-1278589Y3648464D01*
X-1439326Y3876178D01*
X-1439329Y3876182D01*
X-1441811Y3879698D01*
X-1446314Y3884519D01*
X-1528235Y3972235D01*
X-1637947Y4089708D01*
X-1641284Y4092423D01*
X-1857518Y4268342D01*
X-1857521Y4268344D01*
X-1860853Y4271055D01*
X-2106375Y4420361D01*
X-2110315Y4422073D01*
X-2110320Y4422075D01*
X-2118919Y4425810D01*
X1635775Y4425810D01*
X1641776Y4416435D01*
X3136270Y2921941D01*
X3148000Y2915169D01*
X3159729Y2921941D01*
X4654222Y4416435D01*
X4660223Y4425810D01*
X4652832Y4434128D01*
X4444030Y4585830D01*
X4437349Y4590071D01*
X4178765Y4732228D01*
X4171630Y4735586D01*
X3897253Y4844220D01*
X3889763Y4846653D01*
X3603941Y4920040D01*
X3596170Y4921522D01*
X3303430Y4958504D01*
X3295540Y4959000D01*
X3000460Y4959000D01*
X2992569Y4958504D01*
X2699829Y4921522D01*
X2692058Y4920040D01*
X2406236Y4846653D01*
X2398746Y4844220D01*
X2124369Y4735586D01*
X2117234Y4732228D01*
X1858646Y4590069D01*
X1851969Y4585830D01*
X1643167Y4434128D01*
X1635775Y4425810D01*
X-2118919Y4425810D01*
X-2365995Y4533130D01*
X-2366001Y4533132D01*
X-2369942Y4534844D01*
X-2430434Y4551793D01*
X-2642496Y4611210D01*
X-2642505Y4611212D01*
X-2646642Y4612371D01*
X-2650903Y4612957D01*
X-2650914Y4612959D01*
X-2927054Y4650914D01*
X-2927064Y4650915D01*
X-2931322Y4651500D01*
X-3218678Y4651500D01*
X-3222936Y4650915D01*
X-3222947Y4650914D01*
X-3499087Y4612959D01*
X-3499101Y4612957D01*
X-3503358Y4612371D01*
X-3507493Y4611213D01*
X-3507505Y4611210D01*
X-3775915Y4536005D01*
X-3775918Y4536005D01*
X-3780058Y4534844D01*
X-3783996Y4533134D01*
X-3784006Y4533130D01*
X-4039681Y4422075D01*
X-4039692Y4422070D01*
X-4043625Y4420361D01*
X-4047292Y4418132D01*
X-4047298Y4418128D01*
X-4285474Y4273289D01*
X-4285478Y4273287D01*
X-4289147Y4271055D01*
X-4292474Y4268349D01*
X-4292483Y4268342D01*
X-4508717Y4092423D01*
X-4508726Y4092416D01*
X-4512053Y4089708D01*
X-4514985Y4086570D01*
X-4514990Y4086564D01*
X-4705251Y3882845D01*
X-4705259Y3882836D01*
X-4708189Y3879698D01*
X-4710665Y3876191D01*
X-4710675Y3876178D01*
X-4871412Y3648464D01*
X-4871421Y3648451D01*
X-4873901Y3644936D01*
X-4875882Y3641113D01*
X-4875888Y3641103D01*
X-5004123Y3393621D01*
X-5006104Y3389797D01*
X-5007540Y3385757D01*
X-5007545Y3385745D01*
X-5100896Y3123080D01*
X-5100899Y3123072D01*
X-5102334Y3119032D01*
X-5103208Y3114830D01*
X-5103208Y3114827D01*
X-5124753Y3011143D01*
X-5160798Y2837686D01*
X-5180408Y2551000D01*
X-10371500Y2551000D01*
X-10371500Y5817885D01*
X-10361909Y5866103D01*
X-10334596Y5906980D01*
X-10162349Y6079227D01*
X-9270897Y6970682D01*
X-9214414Y7003292D01*
X-9149192Y7003292D01*
X-9092708Y6970680D01*
X-8956060Y6834032D01*
X-8906480Y6800904D01*
X-8828249Y6785344D01*
X-8750017Y6800904D01*
X-8700438Y6834032D01*
X-6834032Y8700438D01*
X-6800904Y8750017D01*
X-6785344Y8828249D01*
X-6800904Y8906480D01*
X-6834032Y8956060D01*
X-7922620Y10044648D01*
X-7972200Y10077776D01*
X-7984372Y10080197D01*
X-7984374Y10080198D01*
X-8038259Y10090915D01*
X-8050431Y10093336D01*
X-8062603Y10090915D01*
X-8116488Y10080198D01*
X-8116491Y10080198D01*
X-8128663Y10077776D01*
X-8138983Y10070881D01*
X-8138984Y10070880D01*
X-8173096Y10048087D01*
X-8173100Y10048085D01*
X-8178242Y10044648D01*
X-8182616Y10040275D01*
X-8182621Y10040270D01*
X-10040270Y8182621D01*
X-10040275Y8182616D01*
X-10044648Y8178242D01*
X-10048085Y8173100D01*
X-10048087Y8173096D01*
X-10059711Y8155699D01*
X-10077776Y8128663D01*
X-10093336Y8050431D01*
X-10090915Y8038259D01*
X-10080198Y7984374D01*
X-10080197Y7984372D01*
X-10077776Y7972200D01*
X-10070881Y7961880D01*
X-10070880Y7961879D01*
X-10048089Y7927769D01*
X-10044648Y7922620D01*
X-10040273Y7918245D01*
X-10040271Y7918243D01*
X-9908001Y7785973D01*
X-9875389Y7729489D01*
X-9875389Y7664267D01*
X-9908001Y7607783D01*
X-11117658Y6398127D01*
X-11128185Y6388718D01*
X-11155970Y6366559D01*
X-11161286Y6358763D01*
X-11161290Y6358758D01*
X-11188160Y6319348D01*
X-11190883Y6315510D01*
X-11219190Y6277156D01*
X-11219194Y6277149D01*
X-11224793Y6269562D01*
X-11227630Y6261456D01*
X-11232472Y6254353D01*
X-11235252Y6245343D01*
X-11235253Y6245339D01*
X-11249310Y6199766D01*
X-11250782Y6195293D01*
X-11266530Y6150288D01*
X-11266532Y6150280D01*
X-11269646Y6141379D01*
X-11269968Y6132794D01*
X-11272500Y6124582D01*
X-11272500Y6115146D01*
X-11272500Y6067465D01*
X-11272588Y6062755D01*
X-11274724Y6005670D01*
X-11272923Y5998947D01*
X-11272500Y5991423D01*
X-11272500Y-1281043D01*
X-11273882Y-1293305D01*
X-11273508Y-1293334D01*
X-11274214Y-1302747D01*
X-11276315Y-1311954D01*
X-11275610Y-1321365D01*
X-11275610Y-1321370D01*
X-11272852Y-1358163D01*
X-11272500Y-1367579D01*
X-11272500Y-1821621D01*
X-11273292Y-1835728D01*
X-11276214Y-1861653D01*
X-11276214Y-1861660D01*
X-11277270Y-1871035D01*
X-11275516Y-1880309D01*
X-11275515Y-1880315D01*
X-11274697Y-1884638D01*
X-11272500Y-1908063D01*
X-11272500Y-6024301D01*
X-11273293Y-6038408D01*
X-11277270Y-6073715D01*
X-11266648Y-6129857D01*
X-11265865Y-6134463D01*
X-11258755Y-6181636D01*
X-11258754Y-6181639D01*
X-11257348Y-6190967D01*
X-11253621Y-6198706D01*
X-11252023Y-6207152D01*
X-11247613Y-6215497D01*
X-11247612Y-6215498D01*
X-11225326Y-6257665D01*
X-11223204Y-6261869D01*
X-11198425Y-6313322D01*
X-11192583Y-6319619D01*
X-11188566Y-6327218D01*
X-11181887Y-6333896D01*
X-11181887Y-6333897D01*
X-11148181Y-6367603D01*
X-11144935Y-6370971D01*
X-11106055Y-6412874D01*
X-11100028Y-6416353D01*
X-11094408Y-6421376D01*
X-9908002Y-7607781D01*
X-9875390Y-7664264D01*
X-9875390Y-7729487D01*
X-9908001Y-7785971D01*
X-10040272Y-7918243D01*
X-10040277Y-7918248D01*
X-10044648Y-7922620D01*
X-10048086Y-7927765D01*
X-10048089Y-7927769D01*
X-10070880Y-7961878D01*
X-10070882Y-7961881D01*
X-10077776Y-7972200D01*
X-10080197Y-7984369D01*
X-10080198Y-7984373D01*
X-10085050Y-8008769D01*
X-10093336Y-8050431D01*
X-10077776Y-8128663D01*
X-10044648Y-8178242D01*
X-8178242Y-10044648D01*
X-8128663Y-10077776D01*
X-8050431Y-10093336D01*
X-7972200Y-10077776D01*
X-7922620Y-10044648D01*
X-6834032Y-8956060D01*
X-6800904Y-8906480D01*
X-6785344Y-8828249D01*
X-6800904Y-8750017D01*
X-6834032Y-8700438D01*
X-8700438Y-6834032D01*
X-8750017Y-6800904D01*
X-8762192Y-6798482D01*
X-8762193Y-6798482D01*
X-8816077Y-6787765D01*
X-8828249Y-6785344D01*
X-8840421Y-6787765D01*
X-8894307Y-6798482D01*
X-8894311Y-6798483D01*
X-8906480Y-6800904D01*
X-8916799Y-6807798D01*
X-8916802Y-6807800D01*
X-8950911Y-6830591D01*
X-8950912Y-6830592D01*
X-8956060Y-6834032D01*
X-8960432Y-6838403D01*
X-8960437Y-6838408D01*
X-9092709Y-6970679D01*
X-9149193Y-7003290D01*
X-9214415Y-7003290D01*
X-9270899Y-6970678D01*
X-10334595Y-5906982D01*
X-10361909Y-5866105D01*
X-10371500Y-5817887D01*
X-10371500Y-2051652D01*
X-10363538Y-2013491D01*
X-10364655Y-2013192D01*
X-10362212Y-2004071D01*
X-10358435Y-1995416D01*
X-10348631Y-1908393D01*
X-10327528Y-1851522D01*
X-10282298Y-1811101D01*
X-10223422Y-1796500D01*
X-7082287Y-1796500D01*
X-7034069Y-1806091D01*
X-6993192Y-1833404D01*
X-6236205Y-2590390D01*
X-6211634Y-2625117D01*
X-6200019Y-2666041D01*
X-6177396Y-2876837D01*
X-6189355Y-2945365D01*
X-6235855Y-2997103D01*
X-6302722Y-3016282D01*
X-9530684Y-3015126D01*
X-9530686Y-3015126D01*
X-9549099Y-3015120D01*
X-9549139Y-3014993D01*
X-9549542Y-3015120D01*
X-9549564Y-3015120D01*
X-9549640Y-3015151D01*
X-9550092Y-3015294D01*
X-9549997Y-3015597D01*
X-9550006Y-3015620D01*
X-9549937Y-3015788D01*
X-9545197Y-3030799D01*
X-9545197Y-3030801D01*
X-9464382Y-3286727D01*
X-9463841Y-3288439D01*
X-9463204Y-3290116D01*
X-9261439Y-3821366D01*
X-9261432Y-3821384D01*
X-9260795Y-3823060D01*
X-9027577Y-4345224D01*
X-9026754Y-4346815D01*
X-9026753Y-4346818D01*
X-8765774Y-4851630D01*
X-8765763Y-4851651D01*
X-8764945Y-4853232D01*
X-8764030Y-4854779D01*
X-8764027Y-4854784D01*
X-8485192Y-5326097D01*
X-8473756Y-5345426D01*
X-8472763Y-5346905D01*
X-8472761Y-5346908D01*
X-8169386Y-5798718D01*
X-8154958Y-5820204D01*
X-8153869Y-5821642D01*
X-8153862Y-5821651D01*
X-7816417Y-6267010D01*
X-7809590Y-6276020D01*
X-7438777Y-6711387D01*
X-7043728Y-7124887D01*
X-7042417Y-7126111D01*
X-7042411Y-7126117D01*
X-6627053Y-7513938D01*
X-6625729Y-7515174D01*
X-6186142Y-7880975D01*
X-5867802Y-8116487D01*
X-5727836Y-8220036D01*
X-5727828Y-8220041D01*
X-5726400Y-8221098D01*
X-5248001Y-8534436D01*
X-5112048Y-8612776D01*
X-5109863Y-8614035D01*
X-5063704Y-8660117D01*
X-5046771Y-8723105D01*
X-5063602Y-8786121D01*
X-8423830Y-14616821D01*
X-8470778Y-14663472D01*
X-8534893Y-14679893D01*
X-8598486Y-14661552D01*
X-9177049Y-14309577D01*
X-9182101Y-14306336D01*
X-9663005Y-13981421D01*
X-9663147Y-13981259D01*
X-9663177Y-13981304D01*
X-9854723Y-13851425D01*
X-9859442Y-13848064D01*
X-10272927Y-13539031D01*
X-10273206Y-13538822D01*
X-10510357Y-13360554D01*
X-10514799Y-13357057D01*
X-10891498Y-13046493D01*
X-10891874Y-13046181D01*
X-11141603Y-12838663D01*
X-11145765Y-12835048D01*
X-11495684Y-12517394D01*
X-11496148Y-12516970D01*
X-11526662Y-12488991D01*
X-10306660Y-12488991D01*
X-10303641Y-12501439D01*
X-10291748Y-12506200D01*
X-10180673Y-12522170D01*
X-10162833Y-12522170D01*
X-10036077Y-12503946D01*
X-10018964Y-12498921D01*
X-9901450Y-12445254D01*
X-9888146Y-12437035D01*
X-9849531Y-12405917D01*
X-9844506Y-12401403D01*
X-8719917Y-11276814D01*
X-8715403Y-11271789D01*
X-8684285Y-11233174D01*
X-8676066Y-11219870D01*
X-8622399Y-11102356D01*
X-8617374Y-11085243D01*
X-8599150Y-10958487D01*
X-8599150Y-10940647D01*
X-8615120Y-10829572D01*
X-8619881Y-10817679D01*
X-8632329Y-10814660D01*
X-10290070Y-10814660D01*
X-10303154Y-10818166D01*
X-10306660Y-10831250D01*
X-10306660Y-12488991D01*
X-11526662Y-12488991D01*
X-11746984Y-12286971D01*
X-11750810Y-12283310D01*
X-12078254Y-11956295D01*
X-12078681Y-11955866D01*
X-12325044Y-11706808D01*
X-12328647Y-11703012D01*
X-12635525Y-11365852D01*
X-12636133Y-11365178D01*
X-12874508Y-11099461D01*
X-12877822Y-11095614D01*
X-13107171Y-10818166D01*
X-13108196Y-10816926D01*
X-12080268Y-10816926D01*
X-12075194Y-10825206D01*
X-10825207Y-12075193D01*
X-10816927Y-12080267D01*
X-10814660Y-12070826D01*
X-10814660Y-10831250D01*
X-10818167Y-10818166D01*
X-10831250Y-10814660D01*
X-12070826Y-10814660D01*
X-12080268Y-10816926D01*
X-13108196Y-10816926D01*
X-13165129Y-10748052D01*
X-13165757Y-10747286D01*
X-13394050Y-10466394D01*
X-13397099Y-10462488D01*
X-13608300Y-10180672D01*
X-12522171Y-10180672D01*
X-12506201Y-10291747D01*
X-12501440Y-10303640D01*
X-12488991Y-10306660D01*
X-10831250Y-10306660D01*
X-10818167Y-10303153D01*
X-10814660Y-10290070D01*
X-10306660Y-10290070D01*
X-10303154Y-10303153D01*
X-10290070Y-10306660D01*
X-9050494Y-10306660D01*
X-9041053Y-10304393D01*
X-9046127Y-10296113D01*
X-10296114Y-9046126D01*
X-10304394Y-9041052D01*
X-10306660Y-9050494D01*
X-10306660Y-10290070D01*
X-10814660Y-10290070D01*
X-10814660Y-8632329D01*
X-10817680Y-8619880D01*
X-10829573Y-8615119D01*
X-10940648Y-8599149D01*
X-10958488Y-8599149D01*
X-11085244Y-8617373D01*
X-11102357Y-8622398D01*
X-11219871Y-8676065D01*
X-11233175Y-8684284D01*
X-11271790Y-8715402D01*
X-11276815Y-8719916D01*
X-12401404Y-9844505D01*
X-12405918Y-9849530D01*
X-12437036Y-9888145D01*
X-12445255Y-9901449D01*
X-12498922Y-10018963D01*
X-12503947Y-10036076D01*
X-12522171Y-10162832D01*
X-12522171Y-10180672D01*
X-13608300Y-10180672D01*
X-13665294Y-10104622D01*
X-13666001Y-10103669D01*
X-13824373Y-9888145D01*
X-13882497Y-9809046D01*
X-13885264Y-9805126D01*
X-14134526Y-9437234D01*
X-14135264Y-9436132D01*
X-14338703Y-9128958D01*
X-14341212Y-9125012D01*
X-14444299Y-8956060D01*
X-14571535Y-8747531D01*
X-14572201Y-8746425D01*
X-14761635Y-8427675D01*
X-14763827Y-8423831D01*
X-14975090Y-8037316D01*
X-14975712Y-8036160D01*
X-15150259Y-7706920D01*
X-15152226Y-7703048D01*
X-15344168Y-7308298D01*
X-15344844Y-7306881D01*
X-15503731Y-6968266D01*
X-15505469Y-6964393D01*
X-15540860Y-6881824D01*
X-15677900Y-6562104D01*
X-15678586Y-6560467D01*
X-15821202Y-6213497D01*
X-15822676Y-6209739D01*
X-15975444Y-5800525D01*
X-15976101Y-5798718D01*
X-16101963Y-5444302D01*
X-16103228Y-5440550D01*
X-16236070Y-5025351D01*
X-16236614Y-5023602D01*
X-16345350Y-4662495D01*
X-16346363Y-4658938D01*
X-16459121Y-4238489D01*
X-16459648Y-4236448D01*
X-16550787Y-3869958D01*
X-16551615Y-3866405D01*
X-16644100Y-3441625D01*
X-16644579Y-3439312D01*
X-16717818Y-3068477D01*
X-16718449Y-3065030D01*
X-16718458Y-3064976D01*
X-16790542Y-2636676D01*
X-16790915Y-2634308D01*
X-16846067Y-2259867D01*
X-16846513Y-2256521D01*
X-16846518Y-2256477D01*
X-16898077Y-1825613D01*
X-16898354Y-1823069D01*
X-16935227Y-1446069D01*
X-16935492Y-1442928D01*
X-16966469Y-1010191D01*
X-16966634Y-1007438D01*
X-16985099Y-628954D01*
X-16985204Y-626074D01*
X-16995535Y-192409D01*
X-16995571Y-189408D01*
X-16995571Y189408D01*
X-16995535Y192409D01*
X-16995127Y209530D01*
X-16985204Y626080D01*
X-16985099Y628949D01*
X-16966634Y1007449D01*
X-16966469Y1010181D01*
X-16935491Y1442942D01*
X-16935227Y1446071D01*
X-16898353Y1823091D01*
X-16898080Y1825589D01*
X-16846508Y2256568D01*
X-16846067Y2259869D01*
X-16790910Y2634340D01*
X-16790547Y2636648D01*
X-16718440Y3065086D01*
X-16717816Y3068490D01*
X-16644559Y3439412D01*
X-16644109Y3441585D01*
X-16551609Y3866438D01*
X-16550795Y3869929D01*
X-16459635Y4236503D01*
X-16459137Y4238431D01*
X-16346354Y4658974D01*
X-16345361Y4662461D01*
X-16236594Y5023667D01*
X-16236091Y5025287D01*
X-16103209Y5440610D01*
X-16101976Y5444265D01*
X-15976043Y5798882D01*
X-15975476Y5800442D01*
X-15822661Y6209782D01*
X-15821219Y6213456D01*
X-15678518Y6560633D01*
X-15677942Y6562006D01*
X-15505450Y6964440D01*
X-15503746Y6968236D01*
X-15344790Y7306998D01*
X-15344226Y7308180D01*
X-15152204Y7703096D01*
X-15150284Y7706874D01*
X-14975641Y8036295D01*
X-14975169Y8037174D01*
X-14763801Y8423881D01*
X-14761663Y8427629D01*
X-14572107Y8746584D01*
X-14571643Y8747354D01*
X-14341180Y9125065D01*
X-14338736Y9128910D01*
X-14135123Y9436346D01*
X-14134684Y9437002D01*
X-13885219Y9805193D01*
X-13882533Y9808998D01*
X-13665823Y10103912D01*
X-13665491Y10104359D01*
X-13621669Y10162833D01*
X-12522171Y10162833D01*
X-12503947Y10036077D01*
X-12498922Y10018964D01*
X-12445255Y9901450D01*
X-12437036Y9888146D01*
X-12405918Y9849531D01*
X-12401404Y9844506D01*
X-11276815Y8719917D01*
X-11271790Y8715403D01*
X-11233175Y8684285D01*
X-11219871Y8676066D01*
X-11102357Y8622399D01*
X-11085244Y8617374D01*
X-10958488Y8599150D01*
X-10940648Y8599150D01*
X-10829573Y8615120D01*
X-10817680Y8619881D01*
X-10814660Y8632329D01*
X-10814660Y9050494D01*
X-10306660Y9050494D01*
X-10304394Y9041053D01*
X-10296114Y9046127D01*
X-9046127Y10296114D01*
X-9041053Y10304394D01*
X-9050494Y10306660D01*
X-10290070Y10306660D01*
X-10303154Y10303154D01*
X-10306660Y10290070D01*
X-10306660Y9050494D01*
X-10814660Y9050494D01*
X-10814660Y10290070D01*
X-10818167Y10303154D01*
X-10831250Y10306660D01*
X-12488991Y10306660D01*
X-12501440Y10303641D01*
X-12506201Y10291748D01*
X-12522171Y10180673D01*
X-12522171Y10162833D01*
X-13621669Y10162833D01*
X-13397066Y10462533D01*
X-13394083Y10466355D01*
X-13165530Y10747566D01*
X-13165401Y10747724D01*
X-13108195Y10816927D01*
X-12080268Y10816927D01*
X-12070826Y10814660D01*
X-10831250Y10814660D01*
X-10818167Y10818167D01*
X-10814660Y10831250D01*
X-10306660Y10831250D01*
X-10303154Y10818167D01*
X-10290070Y10814660D01*
X-8632329Y10814660D01*
X-8619881Y10817680D01*
X-8615120Y10829573D01*
X-8599150Y10940648D01*
X-8599150Y10958488D01*
X-8617374Y11085244D01*
X-8622399Y11102357D01*
X-8676066Y11219871D01*
X-8684285Y11233175D01*
X-8715403Y11271790D01*
X-8719917Y11276815D01*
X-9844506Y12401404D01*
X-9849531Y12405918D01*
X-9888146Y12437036D01*
X-9901450Y12445255D01*
X-10018964Y12498922D01*
X-10036077Y12503947D01*
X-10162833Y12522171D01*
X-10180673Y12522171D01*
X-10291748Y12506201D01*
X-10303641Y12501440D01*
X-10306660Y12488991D01*
X-10306660Y10831250D01*
X-10814660Y10831250D01*
X-10814660Y12070826D01*
X-10816927Y12080268D01*
X-10825207Y12075194D01*
X-12075194Y10825207D01*
X-12080268Y10816927D01*
X-13108195Y10816927D01*
X-12877769Y11095679D01*
X-12874551Y11099414D01*
X-12635787Y11365564D01*
X-12635784Y11365569D01*
X-12328596Y11703069D01*
X-12325073Y11706780D01*
X-12078554Y11955996D01*
X-11750762Y12283360D01*
X-11747035Y12286926D01*
X-11495960Y12517145D01*
X-11145726Y12835085D01*
X-11141642Y12838632D01*
X-10891697Y13046330D01*
X-10514750Y13357098D01*
X-10510434Y13360497D01*
X-10273296Y13538758D01*
X-10272957Y13539011D01*
X-10272927Y13539032D01*
X-10127477Y13647741D01*
X-9859413Y13848088D01*
X-9854761Y13851401D01*
X-9663177Y13981305D01*
X-9663152Y13981268D01*
X-9663013Y13981416D01*
X-9182072Y14306356D01*
X-9177079Y14309560D01*
X-8598486Y14661554D01*
X-8534894Y14679894D01*
X-8470778Y14663472D01*
G37*
%TD.AperFunction*%
%TD*%
M02*
