%TF.GenerationSoftware,KiCad,Pcbnew,(7.0.0)*%
%TF.CreationDate,2024-02-03T20:32:24+01:00*%
%TF.ProjectId,Helios_rcv_01xx,48656c69-6f73-45f7-9263-765f30317878,rev?*%
%TF.SameCoordinates,PX9d5b340PY5f5e100*%
%TF.FileFunction,Legend,Top*%
%TF.FilePolarity,Positive*%
%FSLAX46Y46*%
G04 Gerber Fmt 4.6, Leading zero omitted, Abs format (unit mm)*
G04 Created by KiCad (PCBNEW (7.0.0)) date 2024-02-03 20:32:24*
%MOMM*%
%LPD*%
G01*
G04 APERTURE LIST*
%ADD10C,0.150000*%
%ADD11C,0.120000*%
G04 APERTURE END LIST*
D10*
%TO.C,U1*%
X14867380Y-2928571D02*
X14867380Y-2738095D01*
X14867380Y-2738095D02*
X14915000Y-2642857D01*
X14915000Y-2642857D02*
X15010238Y-2547619D01*
X15010238Y-2547619D02*
X15200714Y-2500000D01*
X15200714Y-2500000D02*
X15534047Y-2500000D01*
X15534047Y-2500000D02*
X15724523Y-2547619D01*
X15724523Y-2547619D02*
X15819761Y-2642857D01*
X15819761Y-2642857D02*
X15867380Y-2738095D01*
X15867380Y-2738095D02*
X15867380Y-2928571D01*
X15867380Y-2928571D02*
X15819761Y-3023809D01*
X15819761Y-3023809D02*
X15724523Y-3119047D01*
X15724523Y-3119047D02*
X15534047Y-3166666D01*
X15534047Y-3166666D02*
X15200714Y-3166666D01*
X15200714Y-3166666D02*
X15010238Y-3119047D01*
X15010238Y-3119047D02*
X14915000Y-3023809D01*
X14915000Y-3023809D02*
X14867380Y-2928571D01*
X15867380Y-2071428D02*
X14867380Y-2071428D01*
X14867380Y-2071428D02*
X14867380Y-1690476D01*
X14867380Y-1690476D02*
X14915000Y-1595238D01*
X14915000Y-1595238D02*
X14962619Y-1547619D01*
X14962619Y-1547619D02*
X15057857Y-1500000D01*
X15057857Y-1500000D02*
X15200714Y-1500000D01*
X15200714Y-1500000D02*
X15295952Y-1547619D01*
X15295952Y-1547619D02*
X15343571Y-1595238D01*
X15343571Y-1595238D02*
X15391190Y-1690476D01*
X15391190Y-1690476D02*
X15391190Y-2071428D01*
X15581666Y-1119047D02*
X15581666Y-642857D01*
X15867380Y-1214285D02*
X14867380Y-880952D01*
X14867380Y-880952D02*
X15867380Y-547619D01*
X14962619Y-261904D02*
X14915000Y-214285D01*
X14915000Y-214285D02*
X14867380Y-119047D01*
X14867380Y-119047D02*
X14867380Y119048D01*
X14867380Y119048D02*
X14915000Y214286D01*
X14915000Y214286D02*
X14962619Y261905D01*
X14962619Y261905D02*
X15057857Y309524D01*
X15057857Y309524D02*
X15153095Y309524D01*
X15153095Y309524D02*
X15295952Y261905D01*
X15295952Y261905D02*
X15867380Y-309523D01*
X15867380Y-309523D02*
X15867380Y309524D01*
X14867380Y642858D02*
X14867380Y1261905D01*
X14867380Y1261905D02*
X15248333Y928572D01*
X15248333Y928572D02*
X15248333Y1071429D01*
X15248333Y1071429D02*
X15295952Y1166667D01*
X15295952Y1166667D02*
X15343571Y1214286D01*
X15343571Y1214286D02*
X15438809Y1261905D01*
X15438809Y1261905D02*
X15676904Y1261905D01*
X15676904Y1261905D02*
X15772142Y1214286D01*
X15772142Y1214286D02*
X15819761Y1166667D01*
X15819761Y1166667D02*
X15867380Y1071429D01*
X15867380Y1071429D02*
X15867380Y785715D01*
X15867380Y785715D02*
X15819761Y690477D01*
X15819761Y690477D02*
X15772142Y642858D01*
X15295952Y1833334D02*
X15248333Y1738096D01*
X15248333Y1738096D02*
X15200714Y1690477D01*
X15200714Y1690477D02*
X15105476Y1642858D01*
X15105476Y1642858D02*
X15057857Y1642858D01*
X15057857Y1642858D02*
X14962619Y1690477D01*
X14962619Y1690477D02*
X14915000Y1738096D01*
X14915000Y1738096D02*
X14867380Y1833334D01*
X14867380Y1833334D02*
X14867380Y2023810D01*
X14867380Y2023810D02*
X14915000Y2119048D01*
X14915000Y2119048D02*
X14962619Y2166667D01*
X14962619Y2166667D02*
X15057857Y2214286D01*
X15057857Y2214286D02*
X15105476Y2214286D01*
X15105476Y2214286D02*
X15200714Y2166667D01*
X15200714Y2166667D02*
X15248333Y2119048D01*
X15248333Y2119048D02*
X15295952Y2023810D01*
X15295952Y2023810D02*
X15295952Y1833334D01*
X15295952Y1833334D02*
X15343571Y1738096D01*
X15343571Y1738096D02*
X15391190Y1690477D01*
X15391190Y1690477D02*
X15486428Y1642858D01*
X15486428Y1642858D02*
X15676904Y1642858D01*
X15676904Y1642858D02*
X15772142Y1690477D01*
X15772142Y1690477D02*
X15819761Y1738096D01*
X15819761Y1738096D02*
X15867380Y1833334D01*
X15867380Y1833334D02*
X15867380Y2023810D01*
X15867380Y2023810D02*
X15819761Y2119048D01*
X15819761Y2119048D02*
X15772142Y2166667D01*
X15772142Y2166667D02*
X15676904Y2214286D01*
X15676904Y2214286D02*
X15486428Y2214286D01*
X15486428Y2214286D02*
X15391190Y2166667D01*
X15391190Y2166667D02*
X15343571Y2119048D01*
X15343571Y2119048D02*
X15295952Y2023810D01*
X14867380Y2833334D02*
X14867380Y2928572D01*
X14867380Y2928572D02*
X14915000Y3023810D01*
X14915000Y3023810D02*
X14962619Y3071429D01*
X14962619Y3071429D02*
X15057857Y3119048D01*
X15057857Y3119048D02*
X15248333Y3166667D01*
X15248333Y3166667D02*
X15486428Y3166667D01*
X15486428Y3166667D02*
X15676904Y3119048D01*
X15676904Y3119048D02*
X15772142Y3071429D01*
X15772142Y3071429D02*
X15819761Y3023810D01*
X15819761Y3023810D02*
X15867380Y2928572D01*
X15867380Y2928572D02*
X15867380Y2833334D01*
X15867380Y2833334D02*
X15819761Y2738096D01*
X15819761Y2738096D02*
X15772142Y2690477D01*
X15772142Y2690477D02*
X15676904Y2642858D01*
X15676904Y2642858D02*
X15486428Y2595239D01*
X15486428Y2595239D02*
X15248333Y2595239D01*
X15248333Y2595239D02*
X15057857Y2642858D01*
X15057857Y2642858D02*
X14962619Y2690477D01*
X14962619Y2690477D02*
X14915000Y2738096D01*
X14915000Y2738096D02*
X14867380Y2833334D01*
%TO.C,R0*%
X-13166667Y5382620D02*
X-13500000Y5858810D01*
X-13738095Y5382620D02*
X-13738095Y6382620D01*
X-13738095Y6382620D02*
X-13357143Y6382620D01*
X-13357143Y6382620D02*
X-13261905Y6335000D01*
X-13261905Y6335000D02*
X-13214286Y6287381D01*
X-13214286Y6287381D02*
X-13166667Y6192143D01*
X-13166667Y6192143D02*
X-13166667Y6049286D01*
X-13166667Y6049286D02*
X-13214286Y5954048D01*
X-13214286Y5954048D02*
X-13261905Y5906429D01*
X-13261905Y5906429D02*
X-13357143Y5858810D01*
X-13357143Y5858810D02*
X-13738095Y5858810D01*
X-12547619Y6382620D02*
X-12452381Y6382620D01*
X-12452381Y6382620D02*
X-12357143Y6335000D01*
X-12357143Y6335000D02*
X-12309524Y6287381D01*
X-12309524Y6287381D02*
X-12261905Y6192143D01*
X-12261905Y6192143D02*
X-12214286Y6001667D01*
X-12214286Y6001667D02*
X-12214286Y5763572D01*
X-12214286Y5763572D02*
X-12261905Y5573096D01*
X-12261905Y5573096D02*
X-12309524Y5477858D01*
X-12309524Y5477858D02*
X-12357143Y5430239D01*
X-12357143Y5430239D02*
X-12452381Y5382620D01*
X-12452381Y5382620D02*
X-12547619Y5382620D01*
X-12547619Y5382620D02*
X-12642857Y5430239D01*
X-12642857Y5430239D02*
X-12690476Y5477858D01*
X-12690476Y5477858D02*
X-12738095Y5573096D01*
X-12738095Y5573096D02*
X-12785714Y5763572D01*
X-12785714Y5763572D02*
X-12785714Y6001667D01*
X-12785714Y6001667D02*
X-12738095Y6192143D01*
X-12738095Y6192143D02*
X-12690476Y6287381D01*
X-12690476Y6287381D02*
X-12642857Y6335000D01*
X-12642857Y6335000D02*
X-12547619Y6382620D01*
%TO.C,F2*%
X10916666Y-10843571D02*
X10583333Y-10843571D01*
X10583333Y-11367380D02*
X10583333Y-10367380D01*
X10583333Y-10367380D02*
X11059523Y-10367380D01*
X11392857Y-10462619D02*
X11440476Y-10415000D01*
X11440476Y-10415000D02*
X11535714Y-10367380D01*
X11535714Y-10367380D02*
X11773809Y-10367380D01*
X11773809Y-10367380D02*
X11869047Y-10415000D01*
X11869047Y-10415000D02*
X11916666Y-10462619D01*
X11916666Y-10462619D02*
X11964285Y-10557857D01*
X11964285Y-10557857D02*
X11964285Y-10653095D01*
X11964285Y-10653095D02*
X11916666Y-10795952D01*
X11916666Y-10795952D02*
X11345238Y-11367380D01*
X11345238Y-11367380D02*
X11964285Y-11367380D01*
%TO.C,F0*%
X-11247548Y11070643D02*
X-11580881Y11070643D01*
X-11580881Y10546834D02*
X-11580881Y11546834D01*
X-11580881Y11546834D02*
X-11104691Y11546834D01*
X-10533262Y11546834D02*
X-10438024Y11546834D01*
X-10438024Y11546834D02*
X-10342786Y11499214D01*
X-10342786Y11499214D02*
X-10295167Y11451595D01*
X-10295167Y11451595D02*
X-10247548Y11356357D01*
X-10247548Y11356357D02*
X-10199929Y11165881D01*
X-10199929Y11165881D02*
X-10199929Y10927786D01*
X-10199929Y10927786D02*
X-10247548Y10737310D01*
X-10247548Y10737310D02*
X-10295167Y10642072D01*
X-10295167Y10642072D02*
X-10342786Y10594453D01*
X-10342786Y10594453D02*
X-10438024Y10546834D01*
X-10438024Y10546834D02*
X-10533262Y10546834D01*
X-10533262Y10546834D02*
X-10628500Y10594453D01*
X-10628500Y10594453D02*
X-10676119Y10642072D01*
X-10676119Y10642072D02*
X-10723738Y10737310D01*
X-10723738Y10737310D02*
X-10771357Y10927786D01*
X-10771357Y10927786D02*
X-10771357Y11165881D01*
X-10771357Y11165881D02*
X-10723738Y11356357D01*
X-10723738Y11356357D02*
X-10676119Y11451595D01*
X-10676119Y11451595D02*
X-10628500Y11499214D01*
X-10628500Y11499214D02*
X-10533262Y11546834D01*
%TO.C,R3*%
X12833333Y5632620D02*
X12500000Y6108810D01*
X12261905Y5632620D02*
X12261905Y6632620D01*
X12261905Y6632620D02*
X12642857Y6632620D01*
X12642857Y6632620D02*
X12738095Y6585000D01*
X12738095Y6585000D02*
X12785714Y6537381D01*
X12785714Y6537381D02*
X12833333Y6442143D01*
X12833333Y6442143D02*
X12833333Y6299286D01*
X12833333Y6299286D02*
X12785714Y6204048D01*
X12785714Y6204048D02*
X12738095Y6156429D01*
X12738095Y6156429D02*
X12642857Y6108810D01*
X12642857Y6108810D02*
X12261905Y6108810D01*
X13166667Y6632620D02*
X13785714Y6632620D01*
X13785714Y6632620D02*
X13452381Y6251667D01*
X13452381Y6251667D02*
X13595238Y6251667D01*
X13595238Y6251667D02*
X13690476Y6204048D01*
X13690476Y6204048D02*
X13738095Y6156429D01*
X13738095Y6156429D02*
X13785714Y6061191D01*
X13785714Y6061191D02*
X13785714Y5823096D01*
X13785714Y5823096D02*
X13738095Y5727858D01*
X13738095Y5727858D02*
X13690476Y5680239D01*
X13690476Y5680239D02*
X13595238Y5632620D01*
X13595238Y5632620D02*
X13309524Y5632620D01*
X13309524Y5632620D02*
X13214286Y5680239D01*
X13214286Y5680239D02*
X13166667Y5727858D01*
%TO.C,U0*%
X-16132620Y-2928571D02*
X-16132620Y-2738095D01*
X-16132620Y-2738095D02*
X-16085000Y-2642857D01*
X-16085000Y-2642857D02*
X-15989762Y-2547619D01*
X-15989762Y-2547619D02*
X-15799286Y-2500000D01*
X-15799286Y-2500000D02*
X-15465953Y-2500000D01*
X-15465953Y-2500000D02*
X-15275477Y-2547619D01*
X-15275477Y-2547619D02*
X-15180239Y-2642857D01*
X-15180239Y-2642857D02*
X-15132620Y-2738095D01*
X-15132620Y-2738095D02*
X-15132620Y-2928571D01*
X-15132620Y-2928571D02*
X-15180239Y-3023809D01*
X-15180239Y-3023809D02*
X-15275477Y-3119047D01*
X-15275477Y-3119047D02*
X-15465953Y-3166666D01*
X-15465953Y-3166666D02*
X-15799286Y-3166666D01*
X-15799286Y-3166666D02*
X-15989762Y-3119047D01*
X-15989762Y-3119047D02*
X-16085000Y-3023809D01*
X-16085000Y-3023809D02*
X-16132620Y-2928571D01*
X-15132620Y-2071428D02*
X-16132620Y-2071428D01*
X-16132620Y-2071428D02*
X-16132620Y-1690476D01*
X-16132620Y-1690476D02*
X-16085000Y-1595238D01*
X-16085000Y-1595238D02*
X-16037381Y-1547619D01*
X-16037381Y-1547619D02*
X-15942143Y-1500000D01*
X-15942143Y-1500000D02*
X-15799286Y-1500000D01*
X-15799286Y-1500000D02*
X-15704048Y-1547619D01*
X-15704048Y-1547619D02*
X-15656429Y-1595238D01*
X-15656429Y-1595238D02*
X-15608810Y-1690476D01*
X-15608810Y-1690476D02*
X-15608810Y-2071428D01*
X-15418334Y-1119047D02*
X-15418334Y-642857D01*
X-15132620Y-1214285D02*
X-16132620Y-880952D01*
X-16132620Y-880952D02*
X-15132620Y-547619D01*
X-16037381Y-261904D02*
X-16085000Y-214285D01*
X-16085000Y-214285D02*
X-16132620Y-119047D01*
X-16132620Y-119047D02*
X-16132620Y119048D01*
X-16132620Y119048D02*
X-16085000Y214286D01*
X-16085000Y214286D02*
X-16037381Y261905D01*
X-16037381Y261905D02*
X-15942143Y309524D01*
X-15942143Y309524D02*
X-15846905Y309524D01*
X-15846905Y309524D02*
X-15704048Y261905D01*
X-15704048Y261905D02*
X-15132620Y-309523D01*
X-15132620Y-309523D02*
X-15132620Y309524D01*
X-16132620Y642858D02*
X-16132620Y1261905D01*
X-16132620Y1261905D02*
X-15751667Y928572D01*
X-15751667Y928572D02*
X-15751667Y1071429D01*
X-15751667Y1071429D02*
X-15704048Y1166667D01*
X-15704048Y1166667D02*
X-15656429Y1214286D01*
X-15656429Y1214286D02*
X-15561191Y1261905D01*
X-15561191Y1261905D02*
X-15323096Y1261905D01*
X-15323096Y1261905D02*
X-15227858Y1214286D01*
X-15227858Y1214286D02*
X-15180239Y1166667D01*
X-15180239Y1166667D02*
X-15132620Y1071429D01*
X-15132620Y1071429D02*
X-15132620Y785715D01*
X-15132620Y785715D02*
X-15180239Y690477D01*
X-15180239Y690477D02*
X-15227858Y642858D01*
X-15704048Y1833334D02*
X-15751667Y1738096D01*
X-15751667Y1738096D02*
X-15799286Y1690477D01*
X-15799286Y1690477D02*
X-15894524Y1642858D01*
X-15894524Y1642858D02*
X-15942143Y1642858D01*
X-15942143Y1642858D02*
X-16037381Y1690477D01*
X-16037381Y1690477D02*
X-16085000Y1738096D01*
X-16085000Y1738096D02*
X-16132620Y1833334D01*
X-16132620Y1833334D02*
X-16132620Y2023810D01*
X-16132620Y2023810D02*
X-16085000Y2119048D01*
X-16085000Y2119048D02*
X-16037381Y2166667D01*
X-16037381Y2166667D02*
X-15942143Y2214286D01*
X-15942143Y2214286D02*
X-15894524Y2214286D01*
X-15894524Y2214286D02*
X-15799286Y2166667D01*
X-15799286Y2166667D02*
X-15751667Y2119048D01*
X-15751667Y2119048D02*
X-15704048Y2023810D01*
X-15704048Y2023810D02*
X-15704048Y1833334D01*
X-15704048Y1833334D02*
X-15656429Y1738096D01*
X-15656429Y1738096D02*
X-15608810Y1690477D01*
X-15608810Y1690477D02*
X-15513572Y1642858D01*
X-15513572Y1642858D02*
X-15323096Y1642858D01*
X-15323096Y1642858D02*
X-15227858Y1690477D01*
X-15227858Y1690477D02*
X-15180239Y1738096D01*
X-15180239Y1738096D02*
X-15132620Y1833334D01*
X-15132620Y1833334D02*
X-15132620Y2023810D01*
X-15132620Y2023810D02*
X-15180239Y2119048D01*
X-15180239Y2119048D02*
X-15227858Y2166667D01*
X-15227858Y2166667D02*
X-15323096Y2214286D01*
X-15323096Y2214286D02*
X-15513572Y2214286D01*
X-15513572Y2214286D02*
X-15608810Y2166667D01*
X-15608810Y2166667D02*
X-15656429Y2119048D01*
X-15656429Y2119048D02*
X-15704048Y2023810D01*
X-16132620Y2833334D02*
X-16132620Y2928572D01*
X-16132620Y2928572D02*
X-16085000Y3023810D01*
X-16085000Y3023810D02*
X-16037381Y3071429D01*
X-16037381Y3071429D02*
X-15942143Y3119048D01*
X-15942143Y3119048D02*
X-15751667Y3166667D01*
X-15751667Y3166667D02*
X-15513572Y3166667D01*
X-15513572Y3166667D02*
X-15323096Y3119048D01*
X-15323096Y3119048D02*
X-15227858Y3071429D01*
X-15227858Y3071429D02*
X-15180239Y3023810D01*
X-15180239Y3023810D02*
X-15132620Y2928572D01*
X-15132620Y2928572D02*
X-15132620Y2833334D01*
X-15132620Y2833334D02*
X-15180239Y2738096D01*
X-15180239Y2738096D02*
X-15227858Y2690477D01*
X-15227858Y2690477D02*
X-15323096Y2642858D01*
X-15323096Y2642858D02*
X-15513572Y2595239D01*
X-15513572Y2595239D02*
X-15751667Y2595239D01*
X-15751667Y2595239D02*
X-15942143Y2642858D01*
X-15942143Y2642858D02*
X-16037381Y2690477D01*
X-16037381Y2690477D02*
X-16085000Y2738096D01*
X-16085000Y2738096D02*
X-16132620Y2833334D01*
%TO.C,F3*%
X10580880Y11070643D02*
X10247547Y11070643D01*
X10247547Y10546834D02*
X10247547Y11546834D01*
X10247547Y11546834D02*
X10723737Y11546834D01*
X11009452Y11546834D02*
X11628499Y11546834D01*
X11628499Y11546834D02*
X11295166Y11165881D01*
X11295166Y11165881D02*
X11438023Y11165881D01*
X11438023Y11165881D02*
X11533261Y11118262D01*
X11533261Y11118262D02*
X11580880Y11070643D01*
X11580880Y11070643D02*
X11628499Y10975405D01*
X11628499Y10975405D02*
X11628499Y10737310D01*
X11628499Y10737310D02*
X11580880Y10642072D01*
X11580880Y10642072D02*
X11533261Y10594453D01*
X11533261Y10594453D02*
X11438023Y10546834D01*
X11438023Y10546834D02*
X11152309Y10546834D01*
X11152309Y10546834D02*
X11057071Y10594453D01*
X11057071Y10594453D02*
X11009452Y10642072D01*
%TO.C,F1*%
X-11247548Y-10843571D02*
X-11580881Y-10843571D01*
X-11580881Y-11367380D02*
X-11580881Y-10367380D01*
X-11580881Y-10367380D02*
X-11104691Y-10367380D01*
X-10199929Y-11367380D02*
X-10771357Y-11367380D01*
X-10485643Y-11367380D02*
X-10485643Y-10367380D01*
X-10485643Y-10367380D02*
X-10580881Y-10510238D01*
X-10580881Y-10510238D02*
X-10676119Y-10605476D01*
X-10676119Y-10605476D02*
X-10771357Y-10653095D01*
%TO.C,R2*%
X12833333Y-6117380D02*
X12500000Y-5641190D01*
X12261905Y-6117380D02*
X12261905Y-5117380D01*
X12261905Y-5117380D02*
X12642857Y-5117380D01*
X12642857Y-5117380D02*
X12738095Y-5165000D01*
X12738095Y-5165000D02*
X12785714Y-5212619D01*
X12785714Y-5212619D02*
X12833333Y-5307857D01*
X12833333Y-5307857D02*
X12833333Y-5450714D01*
X12833333Y-5450714D02*
X12785714Y-5545952D01*
X12785714Y-5545952D02*
X12738095Y-5593571D01*
X12738095Y-5593571D02*
X12642857Y-5641190D01*
X12642857Y-5641190D02*
X12261905Y-5641190D01*
X13214286Y-5212619D02*
X13261905Y-5165000D01*
X13261905Y-5165000D02*
X13357143Y-5117380D01*
X13357143Y-5117380D02*
X13595238Y-5117380D01*
X13595238Y-5117380D02*
X13690476Y-5165000D01*
X13690476Y-5165000D02*
X13738095Y-5212619D01*
X13738095Y-5212619D02*
X13785714Y-5307857D01*
X13785714Y-5307857D02*
X13785714Y-5403095D01*
X13785714Y-5403095D02*
X13738095Y-5545952D01*
X13738095Y-5545952D02*
X13166667Y-6117380D01*
X13166667Y-6117380D02*
X13785714Y-6117380D01*
%TO.C,R1*%
X-13166667Y-5867380D02*
X-13500000Y-5391190D01*
X-13738095Y-5867380D02*
X-13738095Y-4867380D01*
X-13738095Y-4867380D02*
X-13357143Y-4867380D01*
X-13357143Y-4867380D02*
X-13261905Y-4915000D01*
X-13261905Y-4915000D02*
X-13214286Y-4962619D01*
X-13214286Y-4962619D02*
X-13166667Y-5057857D01*
X-13166667Y-5057857D02*
X-13166667Y-5200714D01*
X-13166667Y-5200714D02*
X-13214286Y-5295952D01*
X-13214286Y-5295952D02*
X-13261905Y-5343571D01*
X-13261905Y-5343571D02*
X-13357143Y-5391190D01*
X-13357143Y-5391190D02*
X-13738095Y-5391190D01*
X-12214286Y-5867380D02*
X-12785714Y-5867380D01*
X-12500000Y-5867380D02*
X-12500000Y-4867380D01*
X-12500000Y-4867380D02*
X-12595238Y-5010238D01*
X-12595238Y-5010238D02*
X-12690476Y-5105476D01*
X-12690476Y-5105476D02*
X-12785714Y-5153095D01*
D11*
%TO.C,U1*%
X12225000Y-800000D02*
G75*
G03*
X12225000Y-800000I-200000J0D01*
G01*
%TO.C,C1*%
X-6515000Y311252D02*
X-6515000Y-211252D01*
X-7985000Y311252D02*
X-7985000Y-211252D01*
%TO.C,F2*%
X9853553Y-9429289D02*
X9429289Y-9853553D01*
X9641421Y-9641421D02*
X9358579Y-9358579D01*
%TO.C,F0*%
X-9853553Y9429289D02*
X-9429289Y9853553D01*
X-9641421Y9641421D02*
X-9358579Y9358579D01*
%TO.C,U0*%
X-11825000Y800000D02*
G75*
G03*
X-11825000Y800000I-200000J0D01*
G01*
%TO.C,F3*%
X9429289Y9853553D02*
X9853553Y9429289D01*
X9641421Y9641421D02*
X9358579Y9358579D01*
%TO.C,F1*%
X-9429289Y-9853553D02*
X-9853553Y-9429289D01*
X-9641421Y-9641421D02*
X-9358579Y-9358579D01*
%TD*%
M02*
