%TF.GenerationSoftware,KiCad,Pcbnew,(7.0.0)*%
%TF.CreationDate,2024-02-03T20:32:24+01:00*%
%TF.ProjectId,Helios_rcv_01xx,48656c69-6f73-45f7-9263-765f30317878,rev?*%
%TF.SameCoordinates,PX9d5b340PY5f5e100*%
%TF.FileFunction,Copper,L1,Top*%
%TF.FilePolarity,Positive*%
%FSLAX46Y46*%
G04 Gerber Fmt 4.6, Leading zero omitted, Abs format (unit mm)*
G04 Created by KiCad (PCBNEW (7.0.0)) date 2024-02-03 20:32:24*
%MOMM*%
%LPD*%
G01*
G04 APERTURE LIST*
G04 Aperture macros list*
%AMRoundRect*
0 Rectangle with rounded corners*
0 $1 Rounding radius*
0 $2 $3 $4 $5 $6 $7 $8 $9 X,Y pos of 4 corners*
0 Add a 4 corners polygon primitive as box body*
4,1,4,$2,$3,$4,$5,$6,$7,$8,$9,$2,$3,0*
0 Add four circle primitives for the rounded corners*
1,1,$1+$1,$2,$3*
1,1,$1+$1,$4,$5*
1,1,$1+$1,$6,$7*
1,1,$1+$1,$8,$9*
0 Add four rect primitives between the rounded corners*
20,1,$1+$1,$2,$3,$4,$5,0*
20,1,$1+$1,$4,$5,$6,$7,0*
20,1,$1+$1,$6,$7,$8,$9,0*
20,1,$1+$1,$8,$9,$2,$3,0*%
%AMRotRect*
0 Rectangle, with rotation*
0 The origin of the aperture is its center*
0 $1 length*
0 $2 width*
0 $3 Rotation angle, in degrees counterclockwise*
0 Add horizontal line*
21,1,$1,$2,0,0,$3*%
G04 Aperture macros list end*
%TA.AperFunction,SMDPad,CuDef*%
%ADD10R,0.500000X1.500000*%
%TD*%
%TA.AperFunction,SMDPad,CuDef*%
%ADD11RoundRect,0.250000X-0.475000X0.250000X-0.475000X-0.250000X0.475000X-0.250000X0.475000X0.250000X0*%
%TD*%
%TA.AperFunction,SMDPad,CuDef*%
%ADD12R,0.700000X1.300000*%
%TD*%
%TA.AperFunction,SMDPad,CuDef*%
%ADD13RotRect,1.900000X0.400000X225.000000*%
%TD*%
%TA.AperFunction,SMDPad,CuDef*%
%ADD14RotRect,1.900000X0.400000X45.000000*%
%TD*%
%TA.AperFunction,SMDPad,CuDef*%
%ADD15RotRect,1.900000X0.400000X315.000000*%
%TD*%
%TA.AperFunction,SMDPad,CuDef*%
%ADD16RotRect,1.900000X0.400000X135.000000*%
%TD*%
%TA.AperFunction,ComponentPad*%
%ADD17C,3.800000*%
%TD*%
%TA.AperFunction,ViaPad*%
%ADD18C,0.800000*%
%TD*%
%TA.AperFunction,Conductor*%
%ADD19C,0.250000*%
%TD*%
%TA.AperFunction,Conductor*%
%ADD20C,0.500000*%
%TD*%
G04 APERTURE END LIST*
D10*
%TO.P,U1,1,OA*%
%TO.N,F2*%
X12024999Y-2199999D03*
%TO.P,U1,2,-IA*%
%TO.N,Net-(F2-K)*%
X12674999Y-2199999D03*
%TO.P,U1,3,+IA*%
%TO.N,GND*%
X13324999Y-2199999D03*
%TO.P,U1,4,GND*%
X13974999Y-2199999D03*
%TO.P,U1,5,+IB*%
X13974999Y2199999D03*
%TO.P,U1,6,-IB*%
%TO.N,Net-(F3-K)*%
X13324999Y2199999D03*
%TO.P,U1,7,OB*%
%TO.N,F3*%
X12674999Y2199999D03*
%TO.P,U1,8,VCC*%
%TO.N,VCC*%
X12024999Y2199999D03*
%TD*%
D11*
%TO.P,C1,1*%
%TO.N,GND*%
X-7250000Y1000000D03*
%TO.P,C1,2*%
%TO.N,VCC*%
X-7250000Y-900000D03*
%TD*%
D12*
%TO.P,R0,1*%
%TO.N,F0*%
X-12049999Y3999999D03*
%TO.P,R0,2*%
%TO.N,Net-(F0-K)*%
X-13949999Y3999999D03*
%TD*%
D13*
%TO.P,F2,1,K*%
%TO.N,Net-(F2-K)*%
X9994974Y-9994974D03*
%TO.P,F2,2,A*%
%TO.N,GND*%
X9005024Y-9005024D03*
%TD*%
D14*
%TO.P,F0,1,K*%
%TO.N,Net-(F0-K)*%
X-9994974Y9994974D03*
%TO.P,F0,2,A*%
%TO.N,GND*%
X-9005024Y9005024D03*
%TD*%
D12*
%TO.P,R3,1*%
%TO.N,F3*%
X12049999Y3999999D03*
%TO.P,R3,2*%
%TO.N,Net-(F3-K)*%
X13949999Y3999999D03*
%TD*%
D10*
%TO.P,U0,1,OA*%
%TO.N,F0*%
X-12024999Y2199999D03*
%TO.P,U0,2,-IA*%
%TO.N,Net-(F0-K)*%
X-12674999Y2199999D03*
%TO.P,U0,3,+IA*%
%TO.N,GND*%
X-13324999Y2199999D03*
%TO.P,U0,4,GND*%
X-13974999Y2199999D03*
%TO.P,U0,5,+IB*%
X-13974999Y-2199999D03*
%TO.P,U0,6,-IB*%
%TO.N,Net-(F1-K)*%
X-13324999Y-2199999D03*
%TO.P,U0,7,OB*%
%TO.N,F1*%
X-12674999Y-2199999D03*
%TO.P,U0,8,VCC*%
%TO.N,VCC*%
X-12024999Y-2199999D03*
%TD*%
D15*
%TO.P,F3,1,K*%
%TO.N,Net-(F3-K)*%
X9994974Y9994974D03*
%TO.P,F3,2,A*%
%TO.N,GND*%
X9005024Y9005024D03*
%TD*%
D16*
%TO.P,F1,1,K*%
%TO.N,Net-(F1-K)*%
X-9994974Y-9994974D03*
%TO.P,F1,2,A*%
%TO.N,GND*%
X-9005024Y-9005024D03*
%TD*%
D12*
%TO.P,R2,1*%
%TO.N,F2*%
X12049999Y-3999999D03*
%TO.P,R2,2*%
%TO.N,Net-(F2-K)*%
X13949999Y-3999999D03*
%TD*%
%TO.P,R1,1*%
%TO.N,F1*%
X-12049999Y-3999999D03*
%TO.P,R1,2*%
%TO.N,Net-(F1-K)*%
X-13949999Y-3999999D03*
%TD*%
D17*
%TO.P,J2,1,Pin_1*%
%TO.N,SCL*%
X3100000Y2500000D03*
%TO.P,J2,2,Pin_2*%
%TO.N,SDA*%
X3100000Y-2500000D03*
%TD*%
%TO.P,J1,1,Pin_1*%
%TO.N,GND*%
X-3100000Y2500000D03*
%TO.P,J1,2,Pin_2*%
%TO.N,VCC*%
X-3100000Y-2500000D03*
%TD*%
D18*
%TO.N,GND*%
X15086000Y5004000D03*
X9879000Y559000D03*
%TO.N,SDA*%
X11549500Y-400500D03*
%TO.N,F0*%
X-5742000Y1956000D03*
%TO.N,F1*%
X-10568000Y-4013000D03*
X5285977Y-19939D03*
X13440372Y-235128D03*
%TO.N,F2*%
X15396000Y1194000D03*
%TO.N,F3*%
X12050000Y5300000D03*
%TD*%
D19*
%TO.N,Net-(F0-K)*%
X-13575000Y4000000D02*
X-12675000Y3100000D01*
X-13950000Y6039950D02*
X-13950000Y4000000D01*
X-13950000Y4000000D02*
X-13575000Y4000000D01*
X-12675000Y3100000D02*
X-12675000Y2200000D01*
X-9994975Y9994975D02*
X-13950000Y6039950D01*
%TO.N,Net-(F1-K)*%
X-13950000Y-4000000D02*
X-13325000Y-3375000D01*
X-9994975Y-9994975D02*
X-13950000Y-6039950D01*
X-13325000Y-3375000D02*
X-13325000Y-2200000D01*
X-13950000Y-6039950D02*
X-13950000Y-4000000D01*
%TO.N,Net-(F2-K)*%
X13950000Y-4000000D02*
X13350000Y-4000000D01*
X12750000Y-3400000D02*
X12750000Y-2275000D01*
X13350000Y-4000000D02*
X12750000Y-3400000D01*
X9994975Y-9994975D02*
X13950000Y-6039950D01*
X13950000Y-6039950D02*
X13950000Y-4000000D01*
X12750000Y-2275000D02*
X12675000Y-2200000D01*
%TO.N,Net-(F3-K)*%
X13950000Y4000000D02*
X13325000Y3375000D01*
X13325000Y3375000D02*
X13325000Y2200000D01*
X13950000Y6039950D02*
X13950000Y4000000D01*
X9994975Y9994975D02*
X13950000Y6039950D01*
D20*
%TO.N,SDA*%
X9450000Y-2500000D02*
X3100000Y-2500000D01*
X11549500Y-400500D02*
X9450000Y-2500000D01*
%TO.N,VCC*%
X-7250000Y-900000D02*
X-10725000Y-900000D01*
X11975000Y2200000D02*
X11975000Y2250000D01*
X11761000Y2464000D02*
X5882484Y2464000D01*
X608000Y3480000D02*
X608000Y1208000D01*
X608000Y1208000D02*
X-3100000Y-2500000D01*
X-7250000Y-900000D02*
X-4700000Y-900000D01*
X-10725000Y-900000D02*
X-11975000Y-2150000D01*
X11975000Y2250000D02*
X11761000Y2464000D01*
X-11975000Y-2150000D02*
X-11975000Y-2200000D01*
X3149215Y5198484D02*
X2326484Y5198484D01*
X-4700000Y-900000D02*
X-3100000Y-2500000D01*
X2326484Y5198484D02*
X608000Y3480000D01*
X5882484Y2464000D02*
G75*
G03*
X3149215Y5198484I-2734484J0D01*
G01*
D19*
%TO.N,F0*%
X-11781000Y1956000D02*
X-12025000Y2200000D01*
X-12050000Y2225000D02*
X-12025000Y2200000D01*
X-12050000Y4000000D02*
X-12050000Y2225000D01*
X-5742000Y1956000D02*
X-11781000Y1956000D01*
%TO.N,F1*%
X-12050000Y-4000000D02*
X-10581000Y-4000000D01*
X-12050000Y-4000000D02*
X-12675000Y-3375000D01*
X-10581000Y-4000000D02*
X-10568000Y-4013000D01*
X10641000Y-203000D02*
X11168500Y324500D01*
X5469038Y-203000D02*
X10641000Y-203000D01*
X11168500Y324500D02*
X12880744Y324500D01*
X-12675000Y-3375000D02*
X-12675000Y-2200000D01*
X5285977Y-19939D02*
X5469038Y-203000D01*
X12880744Y324500D02*
X13440372Y-235128D01*
%TO.N,F2*%
X15396000Y-528000D02*
X14959000Y-965000D01*
X12285000Y-965000D02*
X12025000Y-1225000D01*
X14959000Y-965000D02*
X12285000Y-965000D01*
X12025000Y-1225000D02*
X12025000Y-2200000D01*
X12050000Y-4000000D02*
X12050000Y-2225000D01*
X12050000Y-2225000D02*
X12025000Y-2200000D01*
X15396000Y1194000D02*
X15396000Y-528000D01*
D20*
%TO.N,F3*%
X12050000Y5300000D02*
X12050000Y4000000D01*
D19*
X12675000Y3375000D02*
X12675000Y2200000D01*
X12050000Y4000000D02*
X12675000Y3375000D01*
%TD*%
%TA.AperFunction,Conductor*%
%TO.N,GND*%
G36*
X-8471056Y14664506D02*
G01*
X-8424854Y14618594D01*
X-5036826Y8739369D01*
X-5020263Y8677355D01*
X-5036927Y8615368D01*
X-5082352Y8570018D01*
X-5219400Y8491045D01*
X-5219430Y8491027D01*
X-5220939Y8490157D01*
X-5222400Y8489201D01*
X-5222418Y8489189D01*
X-5695358Y8179418D01*
X-5695391Y8179396D01*
X-5696846Y8178442D01*
X-5698266Y8177392D01*
X-5698281Y8177381D01*
X-6152766Y7841139D01*
X-6152800Y7841113D01*
X-6154194Y7840081D01*
X-6155533Y7838968D01*
X-6155562Y7838944D01*
X-6590122Y7477316D01*
X-6590134Y7477306D01*
X-6591490Y7476177D01*
X-6592784Y7474970D01*
X-6592794Y7474960D01*
X-7006004Y7089139D01*
X-7006035Y7089109D01*
X-7007312Y7087916D01*
X-7008517Y7086655D01*
X-7008543Y7086629D01*
X-7399088Y6677836D01*
X-7399108Y6677815D01*
X-7400304Y6676562D01*
X-7401432Y6675239D01*
X-7401447Y6675221D01*
X-7768037Y6244804D01*
X-7768053Y6244785D01*
X-7769185Y6243455D01*
X-7770237Y6242068D01*
X-7770260Y6242038D01*
X-8111674Y5791434D01*
X-8112754Y5790008D01*
X-8113744Y5788534D01*
X-8113748Y5788528D01*
X-8428911Y5319158D01*
X-8428922Y5319142D01*
X-8429892Y5317696D01*
X-8430785Y5316188D01*
X-8430786Y5316185D01*
X-8717184Y4832083D01*
X-8719565Y4828059D01*
X-8720359Y4826525D01*
X-8720368Y4826507D01*
X-8980023Y4324253D01*
X-8980829Y4322693D01*
X-8981542Y4321098D01*
X-8981551Y4321078D01*
X-9212115Y3804855D01*
X-9212127Y3804827D01*
X-9212834Y3803243D01*
X-9213452Y3801618D01*
X-9213459Y3801599D01*
X-9413953Y3273693D01*
X-9414823Y3271402D01*
X-9415350Y3269734D01*
X-9415357Y3269713D01*
X-9495704Y3015266D01*
X-9495704Y3015264D01*
X-9500466Y3000183D01*
X-9500541Y3000000D01*
X-9500532Y2999978D01*
X-9500627Y2999674D01*
X-9500175Y2999532D01*
X-9500099Y2999500D01*
X-9500076Y2999500D01*
X-9499674Y2999373D01*
X-9499634Y2999500D01*
X-6200500Y2999500D01*
X-6199901Y2999500D01*
X-6199500Y2999500D01*
X-6199500Y2999901D01*
X-6199459Y3000000D01*
X-6199496Y3000088D01*
X-6193026Y3115300D01*
X-6181321Y3308810D01*
X-6179801Y3322042D01*
X-6155990Y3462177D01*
X-6155794Y3463288D01*
X-6126202Y3624770D01*
X-6123400Y3636691D01*
X-6082495Y3778675D01*
X-6081766Y3781106D01*
X-6034695Y3932162D01*
X-6030897Y3942651D01*
X-5973455Y4081328D01*
X-5972040Y4084606D01*
X-5908046Y4226794D01*
X-5903536Y4235806D01*
X-5831191Y4366705D01*
X-4609833Y4366705D01*
X-4603927Y4357480D01*
X-3111543Y2865096D01*
X-3100000Y2858432D01*
X-3088458Y2865096D01*
X-1596073Y4357482D01*
X-1590169Y4366706D01*
X-1597440Y4374889D01*
X-1808321Y4528103D01*
X-1814892Y4532273D01*
X-2072695Y4674001D01*
X-2079734Y4677314D01*
X-2353271Y4785614D01*
X-2360666Y4788017D01*
X-2645626Y4861183D01*
X-2653257Y4862638D01*
X-2945141Y4899512D01*
X-2952899Y4900000D01*
X-3247101Y4900000D01*
X-3254860Y4899512D01*
X-3546744Y4862638D01*
X-3554375Y4861183D01*
X-3839335Y4788017D01*
X-3846730Y4785614D01*
X-4120267Y4677314D01*
X-4127306Y4674001D01*
X-4385101Y4532277D01*
X-4391691Y4528095D01*
X-4602559Y4374891D01*
X-4609833Y4366705D01*
X-5831191Y4366705D01*
X-5830382Y4368169D01*
X-5828020Y4372254D01*
X-5747979Y4504658D01*
X-5743030Y4512205D01*
X-5655135Y4636082D01*
X-5651714Y4640668D01*
X-5556614Y4762054D01*
X-5551534Y4768123D01*
X-5450140Y4881583D01*
X-5445449Y4886544D01*
X-5336544Y4995449D01*
X-5331583Y5000140D01*
X-5218123Y5101534D01*
X-5212054Y5106614D01*
X-5090668Y5201714D01*
X-5086082Y5205135D01*
X-4962205Y5293030D01*
X-4954658Y5297979D01*
X-4822254Y5378020D01*
X-4818169Y5380382D01*
X-4685806Y5453536D01*
X-4676794Y5458046D01*
X-4534606Y5522040D01*
X-4531328Y5523455D01*
X-4392651Y5580897D01*
X-4382162Y5584695D01*
X-4231106Y5631766D01*
X-4228675Y5632495D01*
X-4086691Y5673400D01*
X-4074770Y5676202D01*
X-3913288Y5705794D01*
X-3912177Y5705990D01*
X-3772042Y5729801D01*
X-3758810Y5731321D01*
X-3565431Y5743018D01*
X-3453350Y5749312D01*
X-3446638Y5749506D01*
X1948662Y5757307D01*
X2005009Y5743857D01*
X2049097Y5706278D01*
X2071303Y5652774D01*
X2066782Y5595021D01*
X2036520Y5545624D01*
X2015542Y5524647D01*
X2012206Y5521433D01*
X1977099Y5488858D01*
X1977095Y5488854D01*
X1970290Y5482539D01*
X1966821Y5476533D01*
X1961723Y5470828D01*
X312263Y3821368D01*
X301898Y3812105D01*
X281297Y3795676D01*
X281291Y3795671D01*
X274030Y3789879D01*
X268797Y3782205D01*
X268796Y3782203D01*
X241824Y3742644D01*
X239144Y3738868D01*
X210724Y3700359D01*
X210721Y3700354D01*
X205207Y3692882D01*
X202370Y3684776D01*
X197528Y3677673D01*
X194791Y3668801D01*
X194788Y3668794D01*
X180672Y3623032D01*
X179225Y3618633D01*
X163422Y3573468D01*
X160354Y3564699D01*
X160032Y3556114D01*
X157500Y3547902D01*
X157500Y3538615D01*
X157500Y3490738D01*
X157413Y3486101D01*
X155623Y3438281D01*
X155623Y3438277D01*
X155276Y3428990D01*
X157071Y3422288D01*
X157500Y3414658D01*
X157500Y1445966D01*
X148061Y1398513D01*
X121181Y1358285D01*
X-1898558Y-661452D01*
X-1944714Y-690611D01*
X-1998920Y-697121D01*
X-2050665Y-679720D01*
X-2131375Y-630639D01*
X-2165204Y-615945D01*
X-2391061Y-517841D01*
X-2391071Y-517837D01*
X-2394942Y-516156D01*
X-2404107Y-513588D01*
X-2667563Y-439771D01*
X-2667576Y-439768D01*
X-2671642Y-438629D01*
X-2675832Y-438053D01*
X-2675842Y-438051D01*
X-2952125Y-400076D01*
X-2952138Y-400075D01*
X-2956322Y-399500D01*
X-3243678Y-399500D01*
X-3247862Y-400075D01*
X-3247876Y-400076D01*
X-3524159Y-438051D01*
X-3524172Y-438053D01*
X-3528358Y-438629D01*
X-3532423Y-439767D01*
X-3532438Y-439771D01*
X-3800987Y-515015D01*
X-3800992Y-515016D01*
X-3805058Y-516156D01*
X-3808925Y-517835D01*
X-3808940Y-517841D01*
X-4064739Y-628950D01*
X-4064752Y-628956D01*
X-4068625Y-630639D01*
X-4072236Y-632835D01*
X-4072251Y-632843D01*
X-4149336Y-679719D01*
X-4201084Y-697121D01*
X-4255289Y-690611D01*
X-4301445Y-661452D01*
X-4358632Y-604265D01*
X-4367898Y-593896D01*
X-4384324Y-573298D01*
X-4384328Y-573294D01*
X-4390121Y-566030D01*
X-4437357Y-533825D01*
X-4441130Y-531148D01*
X-4445229Y-528123D01*
X-4487118Y-497207D01*
X-4495225Y-494370D01*
X-4502327Y-489528D01*
X-4511202Y-486790D01*
X-4511205Y-486789D01*
X-4556951Y-472679D01*
X-4561356Y-471230D01*
X-4570450Y-468048D01*
X-4584110Y-463268D01*
X-4606535Y-455421D01*
X-4606537Y-455420D01*
X-4615301Y-452354D01*
X-4623887Y-452032D01*
X-4632098Y-449500D01*
X-4641388Y-449500D01*
X-4689262Y-449500D01*
X-4693899Y-449413D01*
X-4741720Y-447623D01*
X-4741725Y-447623D01*
X-4751010Y-447276D01*
X-4757713Y-449071D01*
X-4765342Y-449500D01*
X-6300471Y-449500D01*
X-6356352Y-436195D01*
X-6400241Y-399133D01*
X-6433223Y-354444D01*
X-6452850Y-327850D01*
X-6469893Y-315272D01*
X-6554642Y-252724D01*
X-6554645Y-252722D01*
X-6562118Y-247207D01*
X-6570885Y-244139D01*
X-6570891Y-244136D01*
X-6626402Y-224712D01*
X-6679053Y-188997D01*
X-6707062Y-131874D01*
X-6703057Y-68379D01*
X-6668092Y-15227D01*
X-6621607Y8390D01*
X-6622304Y10494D01*
X-6462733Y63371D01*
X-6449734Y69433D01*
X-6312806Y153891D01*
X-6301545Y162795D01*
X-6187795Y276545D01*
X-6178891Y287806D01*
X-6094433Y424734D01*
X-6088371Y437733D01*
X-6037625Y590875D01*
X-6034806Y604042D01*
X-6031817Y633296D01*
X-4609833Y633296D01*
X-4602562Y625113D01*
X-4391680Y471898D01*
X-4385109Y467728D01*
X-4127306Y326000D01*
X-4120267Y322687D01*
X-3846730Y214387D01*
X-3839335Y211984D01*
X-3554375Y138818D01*
X-3546744Y137363D01*
X-3254860Y100489D01*
X-3247101Y100000D01*
X-2952899Y100000D01*
X-2945141Y100489D01*
X-2653257Y137363D01*
X-2645626Y138818D01*
X-2360666Y211984D01*
X-2353271Y214387D01*
X-2079734Y322687D01*
X-2072695Y326000D01*
X-1814892Y467728D01*
X-1808322Y471898D01*
X-1597440Y625113D01*
X-1590169Y633296D01*
X-1596073Y642520D01*
X-3088458Y2134905D01*
X-3100000Y2141569D01*
X-3111543Y2134905D01*
X-4603929Y642520D01*
X-4609833Y633296D01*
X-6031817Y633296D01*
X-6025320Y696891D01*
X-6025000Y703168D01*
X-6025000Y733674D01*
X-6028451Y746550D01*
X-6041326Y750000D01*
X-8458673Y750000D01*
X-8471549Y746550D01*
X-8474999Y733674D01*
X-8474999Y703171D01*
X-8474679Y696889D01*
X-8465195Y604041D01*
X-8462377Y590878D01*
X-8411630Y437733D01*
X-8405568Y424734D01*
X-8321110Y287806D01*
X-8312206Y276545D01*
X-8198456Y162795D01*
X-8187195Y153891D01*
X-8050267Y69433D01*
X-8037268Y63371D01*
X-7877696Y10494D01*
X-7878394Y8391D01*
X-7831902Y-15233D01*
X-7796942Y-68385D01*
X-7792940Y-131878D01*
X-7820949Y-188999D01*
X-7873598Y-224712D01*
X-7929111Y-244137D01*
X-7929117Y-244139D01*
X-7937882Y-247207D01*
X-7945354Y-252720D01*
X-7945359Y-252724D01*
X-8039673Y-322331D01*
X-8039676Y-322333D01*
X-8047150Y-327850D01*
X-8052667Y-335324D01*
X-8052669Y-335327D01*
X-8099759Y-399133D01*
X-8143648Y-436195D01*
X-8199529Y-449500D01*
X-10692739Y-449500D01*
X-10706622Y-448720D01*
X-10732801Y-445770D01*
X-10732804Y-445770D01*
X-10742035Y-444730D01*
X-10798205Y-455357D01*
X-10802758Y-456131D01*
X-10850106Y-463268D01*
X-10850107Y-463268D01*
X-10859287Y-464652D01*
X-10867027Y-468379D01*
X-10875472Y-469977D01*
X-10883683Y-474316D01*
X-10883690Y-474319D01*
X-10926037Y-496699D01*
X-10930170Y-498786D01*
X-10972535Y-519189D01*
X-10981642Y-523575D01*
X-10987940Y-529417D01*
X-10995538Y-533434D01*
X-11002099Y-539994D01*
X-11002106Y-540000D01*
X-11035955Y-573849D01*
X-11039291Y-577063D01*
X-11074383Y-609624D01*
X-11074387Y-609628D01*
X-11081194Y-615945D01*
X-11084663Y-621950D01*
X-11089759Y-627653D01*
X-11675286Y-1213181D01*
X-11715514Y-1240061D01*
X-11762967Y-1249500D01*
X-12294748Y-1249500D01*
X-12300715Y-1250686D01*
X-12300727Y-1250688D01*
X-12325816Y-1255678D01*
X-12374191Y-1255678D01*
X-12393267Y-1251884D01*
X-12405252Y-1249500D01*
X-12944748Y-1249500D01*
X-12950715Y-1250686D01*
X-12950727Y-1250688D01*
X-12975816Y-1255678D01*
X-13024191Y-1255678D01*
X-13043267Y-1251884D01*
X-13055252Y-1249500D01*
X-13188444Y-1249500D01*
X-13243948Y-1236384D01*
X-13287711Y-1199811D01*
X-13362499Y-1099907D01*
X-13374908Y-1087498D01*
X-13475811Y-1011962D01*
X-13491223Y-1003547D01*
X-13610359Y-959111D01*
X-13625333Y-955573D01*
X-13673886Y-950353D01*
X-13680482Y-950000D01*
X-13708674Y-950000D01*
X-13721550Y-953450D01*
X-13725000Y-966326D01*
X-13725000Y-1275986D01*
X-13730340Y-1311982D01*
X-13745897Y-1344874D01*
X-13763867Y-1371769D01*
X-13766250Y-1383745D01*
X-13766250Y-1383747D01*
X-13774311Y-1424271D01*
X-13774312Y-1424277D01*
X-13775500Y-1430252D01*
X-13775500Y-1436348D01*
X-13775500Y-2326000D01*
X-13792113Y-2388000D01*
X-13837500Y-2433387D01*
X-13899500Y-2450000D01*
X-14708674Y-2450000D01*
X-14721550Y-2453450D01*
X-14725000Y-2466326D01*
X-14725000Y-2994518D01*
X-14724647Y-3001114D01*
X-14719427Y-3049667D01*
X-14715889Y-3064641D01*
X-14671453Y-3183777D01*
X-14663038Y-3199189D01*
X-14587502Y-3300092D01*
X-14575093Y-3312501D01*
X-14550189Y-3331144D01*
X-14513616Y-3374907D01*
X-14500500Y-3430411D01*
X-14500500Y-4669748D01*
X-14488867Y-4728231D01*
X-14444552Y-4794552D01*
X-14378231Y-4838867D01*
X-14366253Y-4841249D01*
X-14354970Y-4845923D01*
X-14355926Y-4848230D01*
X-14324018Y-4862686D01*
X-14288289Y-4906218D01*
X-14275500Y-4961065D01*
X-14275500Y-6020323D01*
X-14275972Y-6031131D01*
X-14278319Y-6057950D01*
X-14278319Y-6057953D01*
X-14279264Y-6068757D01*
X-14276457Y-6079232D01*
X-14276457Y-6079233D01*
X-14269487Y-6105247D01*
X-14267148Y-6115802D01*
X-14262473Y-6142311D01*
X-14262472Y-6142316D01*
X-14260588Y-6152995D01*
X-14255169Y-6162382D01*
X-14253916Y-6165823D01*
X-14252362Y-6169156D01*
X-14249554Y-6179634D01*
X-14227888Y-6210577D01*
X-14222086Y-6219685D01*
X-14208619Y-6243010D01*
X-14208618Y-6243011D01*
X-14203194Y-6252405D01*
X-14174243Y-6276697D01*
X-14166282Y-6283994D01*
X-11045864Y-9404412D01*
X-11024186Y-9433641D01*
X-11011927Y-9467902D01*
X-10997015Y-9542876D01*
X-10963887Y-9592456D01*
X-9592456Y-10963887D01*
X-9542876Y-10997015D01*
X-9464645Y-11012575D01*
X-9386413Y-10997015D01*
X-9336834Y-10963887D01*
X-9026063Y-10653116D01*
X-8992935Y-10603537D01*
X-8977375Y-10525305D01*
X-8992935Y-10447074D01*
X-9026063Y-10397494D01*
X-9240793Y-10182764D01*
X-8805025Y-10182764D01*
X-8802782Y-10194042D01*
X-8796453Y-10203514D01*
X-8791850Y-10207649D01*
X-8753832Y-10238286D01*
X-8740744Y-10246371D01*
X-8625078Y-10299193D01*
X-8608230Y-10304140D01*
X-8483473Y-10322077D01*
X-8465917Y-10322077D01*
X-8341161Y-10304140D01*
X-8324313Y-10299193D01*
X-8208647Y-10246371D01*
X-8195559Y-10238286D01*
X-8157541Y-10207649D01*
X-8152615Y-10203224D01*
X-7806826Y-9857435D01*
X-7802401Y-9852509D01*
X-7771764Y-9814491D01*
X-7763679Y-9801403D01*
X-7710857Y-9685737D01*
X-7705910Y-9668889D01*
X-7687973Y-9544133D01*
X-7687973Y-9526577D01*
X-7705910Y-9401820D01*
X-7710857Y-9384972D01*
X-7763679Y-9269306D01*
X-7771764Y-9256218D01*
X-7802401Y-9218200D01*
X-7806536Y-9213597D01*
X-7816008Y-9207268D01*
X-7827286Y-9205025D01*
X-8788699Y-9205025D01*
X-8801575Y-9208475D01*
X-8805025Y-9221351D01*
X-8805025Y-10182764D01*
X-9240793Y-10182764D01*
X-10216302Y-9207255D01*
X-9789590Y-9207255D01*
X-9784598Y-9215402D01*
X-9215403Y-9784597D01*
X-9207256Y-9789589D01*
X-9205025Y-9780299D01*
X-9205025Y-9221351D01*
X-9208476Y-9208475D01*
X-9221351Y-9205025D01*
X-9780299Y-9205025D01*
X-9789590Y-9207255D01*
X-10216302Y-9207255D01*
X-10397494Y-9026063D01*
X-10447074Y-8992935D01*
X-10459049Y-8990553D01*
X-10522047Y-8978023D01*
X-10556309Y-8965764D01*
X-10585538Y-8944086D01*
X-11046151Y-8483473D01*
X-10322077Y-8483473D01*
X-10304141Y-8608229D01*
X-10299194Y-8625077D01*
X-10246372Y-8740743D01*
X-10238287Y-8753831D01*
X-10207650Y-8791849D01*
X-10203515Y-8796452D01*
X-10194043Y-8802781D01*
X-10182764Y-8805025D01*
X-9221351Y-8805025D01*
X-9208476Y-8801574D01*
X-9205025Y-8788699D01*
X-8805025Y-8788699D01*
X-8801575Y-8801574D01*
X-8788699Y-8805025D01*
X-8229751Y-8805025D01*
X-8220461Y-8802794D01*
X-8225453Y-8794647D01*
X-8794648Y-8225452D01*
X-8802795Y-8220460D01*
X-8805025Y-8229751D01*
X-8805025Y-8788699D01*
X-9205025Y-8788699D01*
X-9205025Y-7827286D01*
X-9207269Y-7816007D01*
X-9213598Y-7806535D01*
X-9218201Y-7802400D01*
X-9256219Y-7771763D01*
X-9269307Y-7763678D01*
X-9384973Y-7710856D01*
X-9401821Y-7705909D01*
X-9526577Y-7687973D01*
X-9544133Y-7687973D01*
X-9668890Y-7705909D01*
X-9685738Y-7710856D01*
X-9801404Y-7763678D01*
X-9814492Y-7771763D01*
X-9852510Y-7802400D01*
X-9857436Y-7806825D01*
X-10203225Y-8152614D01*
X-10207650Y-8157540D01*
X-10238287Y-8195558D01*
X-10246372Y-8208646D01*
X-10299194Y-8324312D01*
X-10304141Y-8341160D01*
X-10322077Y-8465917D01*
X-10322077Y-8483473D01*
X-11046151Y-8483473D01*
X-13588181Y-5941443D01*
X-13615061Y-5901215D01*
X-13624500Y-5853762D01*
X-13624500Y-4961065D01*
X-13611711Y-4906218D01*
X-13575982Y-4862686D01*
X-13544075Y-4848230D01*
X-13545030Y-4845923D01*
X-13533749Y-4841249D01*
X-13521769Y-4838867D01*
X-13455448Y-4794552D01*
X-13411133Y-4728231D01*
X-13399500Y-4669748D01*
X-13399500Y-3961188D01*
X-13390061Y-3913736D01*
X-13363184Y-3873510D01*
X-13108692Y-3619017D01*
X-13100750Y-3611740D01*
X-13079702Y-3594079D01*
X-13028594Y-3568414D01*
X-12971401Y-3568415D01*
X-12920297Y-3594081D01*
X-12899246Y-3611746D01*
X-12891282Y-3619044D01*
X-12636819Y-3873507D01*
X-12609939Y-3913735D01*
X-12600500Y-3961188D01*
X-12600500Y-4669748D01*
X-12588867Y-4728231D01*
X-12544552Y-4794552D01*
X-12478231Y-4838867D01*
X-12419748Y-4850500D01*
X-11686348Y-4850500D01*
X-11680252Y-4850500D01*
X-11621769Y-4838867D01*
X-11555448Y-4794552D01*
X-11511133Y-4728231D01*
X-11499500Y-4669748D01*
X-11499500Y-4449500D01*
X-11482887Y-4387500D01*
X-11437500Y-4342113D01*
X-11375500Y-4325500D01*
X-11146274Y-4325500D01*
X-11091430Y-4338288D01*
X-11047899Y-4374013D01*
X-10996282Y-4441282D01*
X-10870841Y-4537536D01*
X-10724762Y-4598044D01*
X-10568000Y-4618682D01*
X-10411238Y-4598044D01*
X-10265159Y-4537536D01*
X-10139718Y-4441282D01*
X-10043464Y-4315841D01*
X-9982956Y-4169762D01*
X-9962318Y-4013000D01*
X-9980682Y-3873508D01*
X-9981895Y-3864297D01*
X-9981896Y-3864296D01*
X-9982956Y-3856238D01*
X-10043464Y-3710159D01*
X-10139718Y-3584718D01*
X-10160965Y-3568415D01*
X-10258712Y-3493411D01*
X-10265159Y-3488464D01*
X-10339461Y-3457687D01*
X-10403729Y-3431066D01*
X-10403732Y-3431065D01*
X-10411238Y-3427956D01*
X-10419292Y-3426895D01*
X-10419298Y-3426894D01*
X-10559941Y-3408379D01*
X-10568000Y-3407318D01*
X-10576059Y-3408379D01*
X-10716703Y-3426894D01*
X-10716711Y-3426896D01*
X-10724762Y-3427956D01*
X-10732267Y-3431064D01*
X-10732272Y-3431066D01*
X-10863334Y-3485354D01*
X-10863338Y-3485355D01*
X-10870841Y-3488464D01*
X-10877286Y-3493408D01*
X-10877289Y-3493411D01*
X-10989836Y-3579771D01*
X-10989840Y-3579774D01*
X-10996282Y-3584718D01*
X-11001226Y-3591160D01*
X-11001229Y-3591164D01*
X-11027948Y-3625986D01*
X-11071480Y-3661712D01*
X-11126324Y-3674500D01*
X-11375500Y-3674500D01*
X-11437500Y-3657887D01*
X-11482887Y-3612500D01*
X-11499500Y-3550500D01*
X-11499500Y-3336348D01*
X-11499500Y-3330252D01*
X-11511133Y-3271769D01*
X-11555448Y-3205448D01*
X-11565602Y-3198663D01*
X-11574217Y-3190048D01*
X-11603956Y-3142223D01*
X-11609475Y-3086177D01*
X-11595984Y-3050336D01*
X-11597592Y-3049670D01*
X-11592919Y-3038385D01*
X-11586133Y-3028231D01*
X-11574500Y-2969748D01*
X-11574500Y-2443489D01*
X-11564086Y-2397858D01*
X-11564542Y-2397718D01*
X-11564528Y-2397673D01*
X-11564221Y-2396677D01*
X-11563569Y-2395594D01*
X-11562664Y-2391627D01*
X-11561789Y-2388791D01*
X-11557756Y-2380417D01*
X-11555176Y-2381659D01*
X-11533398Y-2345499D01*
X-10574717Y-1386819D01*
X-10534488Y-1359939D01*
X-10487035Y-1350500D01*
X-8199529Y-1350500D01*
X-8143648Y-1363805D01*
X-8099759Y-1400867D01*
X-8047150Y-1472150D01*
X-7937882Y-1552793D01*
X-7809699Y-1597646D01*
X-7779266Y-1600500D01*
X-6723627Y-1600500D01*
X-6720734Y-1600500D01*
X-6690301Y-1597646D01*
X-6562118Y-1552793D01*
X-6452850Y-1472150D01*
X-6400242Y-1400867D01*
X-6356352Y-1363805D01*
X-6300471Y-1350500D01*
X-5074020Y-1350500D01*
X-5013246Y-1366414D01*
X-4968072Y-1410072D01*
X-4950092Y-1470267D01*
X-4963922Y-1531548D01*
X-5029155Y-1657440D01*
X-5029160Y-1657450D01*
X-5031104Y-1661203D01*
X-5032521Y-1665188D01*
X-5032525Y-1665199D01*
X-5089536Y-1825614D01*
X-5127334Y-1931968D01*
X-5128195Y-1936112D01*
X-5128197Y-1936119D01*
X-5184937Y-2209167D01*
X-5184939Y-2209177D01*
X-5185798Y-2213314D01*
X-5186087Y-2217529D01*
X-5186087Y-2217534D01*
X-5198341Y-2396679D01*
X-5205408Y-2500000D01*
X-5185798Y-2786686D01*
X-5184939Y-2790824D01*
X-5184937Y-2790832D01*
X-5131011Y-3050336D01*
X-5127334Y-3068032D01*
X-5125916Y-3072021D01*
X-5125915Y-3072025D01*
X-5041269Y-3310197D01*
X-5031104Y-3338797D01*
X-5029157Y-3342555D01*
X-5029155Y-3342559D01*
X-4900851Y-3590173D01*
X-4898901Y-3593936D01*
X-4896455Y-3597401D01*
X-4735634Y-3825235D01*
X-4735630Y-3825240D01*
X-4733189Y-3828698D01*
X-4537053Y-4038708D01*
X-4533772Y-4041377D01*
X-4533769Y-4041380D01*
X-4494423Y-4073390D01*
X-4314147Y-4220055D01*
X-4068625Y-4369361D01*
X-4064740Y-4371048D01*
X-4064739Y-4371049D01*
X-3850323Y-4464183D01*
X-3805058Y-4483844D01*
X-3613427Y-4537536D01*
X-3532438Y-4560228D01*
X-3532436Y-4560228D01*
X-3528358Y-4561371D01*
X-3243678Y-4600500D01*
X-2960559Y-4600500D01*
X-2956322Y-4600500D01*
X-2671642Y-4561371D01*
X-2394942Y-4483844D01*
X-2131375Y-4369361D01*
X-1885853Y-4220055D01*
X-1662947Y-4038708D01*
X-1466811Y-3828698D01*
X-1301099Y-3593936D01*
X-1168896Y-3338797D01*
X-1072666Y-3068032D01*
X-1014202Y-2786686D01*
X-994592Y-2500000D01*
X-1014202Y-2213314D01*
X-1072666Y-1931968D01*
X-1168896Y-1661203D01*
X-1282516Y-1441928D01*
X-1296217Y-1391935D01*
X-1288283Y-1340707D01*
X-1260101Y-1297202D01*
X903744Y866643D01*
X914093Y875891D01*
X941970Y898121D01*
X974191Y945382D01*
X976830Y949102D01*
X1010793Y995118D01*
X1013629Y1003225D01*
X1018472Y1010327D01*
X1035325Y1064970D01*
X1036762Y1069338D01*
X1055646Y1123301D01*
X1055967Y1131887D01*
X1058500Y1140098D01*
X1058500Y1197262D01*
X1058587Y1201899D01*
X1060376Y1249720D01*
X1060724Y1259010D01*
X1058928Y1265713D01*
X1058500Y1273342D01*
X1058500Y1365422D01*
X1075682Y1428397D01*
X1122466Y1473920D01*
X1185887Y1489376D01*
X1248369Y1470480D01*
X1292596Y1422473D01*
X1301099Y1406064D01*
X1332474Y1361616D01*
X1464366Y1174765D01*
X1464370Y1174760D01*
X1466811Y1171302D01*
X1533492Y1099904D01*
X1658245Y966326D01*
X1662947Y961292D01*
X1666228Y958623D01*
X1666231Y958620D01*
X1740595Y898121D01*
X1885853Y779945D01*
X2131375Y630639D01*
X2135260Y628952D01*
X2135261Y628951D01*
X2338244Y540783D01*
X2394942Y516156D01*
X2615384Y454392D01*
X2667562Y439772D01*
X2667564Y439772D01*
X2671642Y438629D01*
X2956322Y399500D01*
X3239441Y399500D01*
X3243678Y399500D01*
X3528358Y438629D01*
X3805058Y516156D01*
X4068625Y630639D01*
X4314147Y779945D01*
X4537053Y961292D01*
X4733189Y1171302D01*
X4898901Y1406064D01*
X5031104Y1661203D01*
X5127334Y1931968D01*
X5185798Y2213314D01*
X5194802Y2344957D01*
X5218910Y2410353D01*
X5274489Y2452415D01*
X5343977Y2457850D01*
X5405420Y2424942D01*
X5438022Y2366562D01*
X5438318Y2362622D01*
X5441711Y2353975D01*
X5441712Y2353973D01*
X5451340Y2329441D01*
X5455684Y2316240D01*
X5462685Y2290114D01*
X5466749Y2283074D01*
X5466750Y2283073D01*
X5470811Y2276039D01*
X5478849Y2259347D01*
X5484536Y2244858D01*
X5487932Y2236206D01*
X5503435Y2216766D01*
X5513863Y2201471D01*
X5521995Y2187387D01*
X5527742Y2181640D01*
X5541110Y2168272D01*
X5550376Y2157904D01*
X5572605Y2130030D01*
X5580282Y2124796D01*
X5580283Y2124795D01*
X5584203Y2122122D01*
X5594777Y2113361D01*
X5600123Y2109259D01*
X5605871Y2103511D01*
X5638610Y2084609D01*
X5646450Y2079682D01*
X5677126Y2058767D01*
X5677129Y2058766D01*
X5684811Y2053528D01*
X5695099Y2050355D01*
X5702661Y2047629D01*
X5708598Y2044201D01*
X5755516Y2031630D01*
X5759918Y2030361D01*
X5814582Y2013500D01*
X5823175Y2013500D01*
X11450500Y2013500D01*
X11512500Y1996887D01*
X11557887Y1951500D01*
X11574500Y1889500D01*
X11574500Y1430252D01*
X11575688Y1424277D01*
X11575689Y1424272D01*
X11580712Y1399020D01*
X11586133Y1371769D01*
X11592916Y1361617D01*
X11592917Y1361616D01*
X11605554Y1342703D01*
X11630448Y1305448D01*
X11696769Y1261133D01*
X11755252Y1249500D01*
X12288654Y1249500D01*
X12294748Y1249500D01*
X12325804Y1255679D01*
X12374189Y1255679D01*
X12405252Y1249500D01*
X12938654Y1249500D01*
X12944748Y1249500D01*
X12975804Y1255679D01*
X13024189Y1255679D01*
X13055252Y1249500D01*
X13061347Y1249500D01*
X13188444Y1249500D01*
X13243948Y1236384D01*
X13287711Y1199811D01*
X13362498Y1099908D01*
X13374907Y1087499D01*
X13475810Y1011963D01*
X13491222Y1003548D01*
X13610358Y959112D01*
X13625332Y955574D01*
X13673885Y950354D01*
X13680482Y950000D01*
X13708674Y950000D01*
X13721549Y953451D01*
X13725000Y966326D01*
X13725000Y1275986D01*
X13730340Y1311982D01*
X13745896Y1344875D01*
X13763867Y1371769D01*
X13775500Y1430252D01*
X13775500Y2326000D01*
X13792113Y2388000D01*
X13837500Y2433387D01*
X13899500Y2450000D01*
X14708674Y2450000D01*
X14721549Y2453451D01*
X14725000Y2466326D01*
X14725000Y2994518D01*
X14724646Y3001115D01*
X14719426Y3049670D01*
X14715888Y3064642D01*
X14671452Y3183778D01*
X14663037Y3199190D01*
X14587501Y3300093D01*
X14575092Y3312502D01*
X14550189Y3331144D01*
X14513616Y3374907D01*
X14500500Y3430411D01*
X14500500Y4663652D01*
X14500500Y4669748D01*
X14488867Y4728231D01*
X14444552Y4794552D01*
X14378231Y4838867D01*
X14366253Y4841250D01*
X14354970Y4845923D01*
X14355925Y4848231D01*
X14324018Y4862686D01*
X14288289Y4906218D01*
X14275500Y4961065D01*
X14275500Y6020323D01*
X14275972Y6031131D01*
X14278318Y6057949D01*
X14279264Y6068757D01*
X14269481Y6105265D01*
X14267145Y6115807D01*
X14262472Y6142309D01*
X14260588Y6152995D01*
X14255160Y6162395D01*
X14253910Y6165831D01*
X14252363Y6169149D01*
X14249554Y6179634D01*
X14233062Y6203186D01*
X14227892Y6210571D01*
X14222080Y6219693D01*
X14209179Y6242038D01*
X14203194Y6252405D01*
X14194881Y6259380D01*
X14194880Y6259382D01*
X14174255Y6276688D01*
X14166280Y6283996D01*
X11045863Y9404413D01*
X11024185Y9433642D01*
X11011926Y9467904D01*
X10997015Y9542876D01*
X10963887Y9592456D01*
X9592456Y10963887D01*
X9542876Y10997015D01*
X9530901Y10999397D01*
X9476621Y11010193D01*
X9464645Y11012575D01*
X9452669Y11010193D01*
X9398389Y10999398D01*
X9398384Y10999397D01*
X9386413Y10997015D01*
X9376262Y10990233D01*
X9376259Y10990231D01*
X9341898Y10967271D01*
X9336834Y10963887D01*
X9332531Y10959585D01*
X9332526Y10959580D01*
X9030370Y10657424D01*
X9030365Y10657419D01*
X9026063Y10653116D01*
X9022680Y10648055D01*
X9022679Y10648052D01*
X8999719Y10613691D01*
X8999717Y10613688D01*
X8992935Y10603537D01*
X8990553Y10591566D01*
X8990552Y10591561D01*
X8980027Y10538642D01*
X8977375Y10525305D01*
X8992935Y10447074D01*
X9026063Y10397494D01*
X10397494Y9026063D01*
X10447074Y8992935D01*
X10522046Y8978024D01*
X10556308Y8965765D01*
X10585537Y8944087D01*
X13588181Y5941443D01*
X13615061Y5901215D01*
X13624500Y5853762D01*
X13624500Y4961065D01*
X13611711Y4906218D01*
X13575982Y4862686D01*
X13544074Y4848231D01*
X13545030Y4845923D01*
X13533746Y4841250D01*
X13521769Y4838867D01*
X13511618Y4832085D01*
X13511615Y4832083D01*
X13465601Y4801337D01*
X13465598Y4801335D01*
X13455448Y4794552D01*
X13448665Y4784402D01*
X13448663Y4784399D01*
X13417917Y4738385D01*
X13417915Y4738382D01*
X13411133Y4728231D01*
X13408750Y4716255D01*
X13408750Y4716253D01*
X13400689Y4675729D01*
X13400688Y4675723D01*
X13399500Y4669748D01*
X13399500Y4663652D01*
X13399500Y3961188D01*
X13390061Y3913735D01*
X13363183Y3873510D01*
X13172331Y3682658D01*
X13108715Y3619042D01*
X13100743Y3611738D01*
X13079709Y3594087D01*
X13028599Y3568416D01*
X12971405Y3568415D01*
X12920294Y3594084D01*
X12899261Y3611733D01*
X12891286Y3619041D01*
X12636819Y3873508D01*
X12609939Y3913736D01*
X12600500Y3961189D01*
X12600500Y4663652D01*
X12600500Y4669748D01*
X12588867Y4728231D01*
X12544552Y4794552D01*
X12544043Y4794893D01*
X12518402Y4837147D01*
X12514547Y4895968D01*
X12538285Y4949917D01*
X12574536Y4997159D01*
X12635044Y5143238D01*
X12655682Y5300000D01*
X12635044Y5456762D01*
X12574536Y5602841D01*
X12478282Y5728282D01*
X12352841Y5824536D01*
X12345333Y5827646D01*
X12214271Y5881934D01*
X12214268Y5881935D01*
X12206762Y5885044D01*
X12198708Y5886105D01*
X12198702Y5886106D01*
X12058059Y5904621D01*
X12050000Y5905682D01*
X12041941Y5904621D01*
X11901297Y5886106D01*
X11901289Y5886104D01*
X11893238Y5885044D01*
X11885733Y5881936D01*
X11885728Y5881934D01*
X11754666Y5827646D01*
X11754662Y5827645D01*
X11747159Y5824536D01*
X11740714Y5819592D01*
X11740711Y5819589D01*
X11628164Y5733229D01*
X11628160Y5733226D01*
X11621718Y5728282D01*
X11616774Y5721840D01*
X11616771Y5721836D01*
X11530411Y5609289D01*
X11530408Y5609286D01*
X11525464Y5602841D01*
X11522355Y5595338D01*
X11522354Y5595334D01*
X11468066Y5464272D01*
X11468064Y5464267D01*
X11464956Y5456762D01*
X11463896Y5448711D01*
X11463894Y5448703D01*
X11449111Y5336406D01*
X11444318Y5300000D01*
X11445379Y5291941D01*
X11463894Y5151298D01*
X11463895Y5151292D01*
X11464956Y5143238D01*
X11525464Y4997159D01*
X11561713Y4949918D01*
X11585452Y4895968D01*
X11581598Y4837150D01*
X11555957Y4794893D01*
X11555448Y4794552D01*
X11548665Y4784402D01*
X11548665Y4784401D01*
X11517917Y4738385D01*
X11517915Y4738382D01*
X11511133Y4728231D01*
X11508750Y4716255D01*
X11508750Y4716253D01*
X11500689Y4675729D01*
X11500688Y4675723D01*
X11499500Y4669748D01*
X11499500Y3330252D01*
X11500688Y3324277D01*
X11500689Y3324272D01*
X11505499Y3300093D01*
X11511133Y3271769D01*
X11517916Y3261617D01*
X11517917Y3261616D01*
X11548660Y3215606D01*
X11555448Y3205448D01*
X11565601Y3198664D01*
X11574216Y3190049D01*
X11603952Y3142233D01*
X11609476Y3086196D01*
X11595984Y3050336D01*
X11597592Y3049670D01*
X11592916Y3038384D01*
X11586133Y3028231D01*
X11583363Y3014308D01*
X11560124Y2963015D01*
X11516591Y2927288D01*
X11461747Y2914500D01*
X9661903Y2914500D01*
X9601474Y2930221D01*
X9556367Y2973398D01*
X9544073Y3013394D01*
X9543137Y3013098D01*
X9543041Y3013402D01*
X9543979Y3013699D01*
X9543920Y3013890D01*
X9542981Y3013593D01*
X9457104Y3285598D01*
X9254593Y3818964D01*
X9022028Y4339928D01*
X9008194Y4366705D01*
X8900628Y4574914D01*
X8760166Y4846799D01*
X8469857Y5337931D01*
X8152042Y5811728D01*
X7866887Y6188519D01*
X7808826Y6265238D01*
X7808823Y6265241D01*
X7807755Y6266653D01*
X7643844Y6459357D01*
X7439266Y6699872D01*
X7439257Y6699882D01*
X7438113Y6701227D01*
X7089085Y7067110D01*
X7045525Y7112774D01*
X7045519Y7112780D01*
X7044317Y7114040D01*
X7043051Y7115224D01*
X7043040Y7115235D01*
X6628936Y7502546D01*
X6628925Y7502556D01*
X6627646Y7503752D01*
X6239598Y7827286D01*
X9205025Y7827286D01*
X9207268Y7816008D01*
X9213597Y7806536D01*
X9218200Y7802401D01*
X9256218Y7771764D01*
X9269306Y7763679D01*
X9384972Y7710857D01*
X9401820Y7705910D01*
X9526577Y7687973D01*
X9544133Y7687973D01*
X9668889Y7705910D01*
X9685737Y7710857D01*
X9801403Y7763679D01*
X9814491Y7771764D01*
X9852509Y7802401D01*
X9857435Y7806826D01*
X10203224Y8152615D01*
X10207649Y8157541D01*
X10238286Y8195559D01*
X10246371Y8208647D01*
X10299193Y8324313D01*
X10304140Y8341161D01*
X10322077Y8465917D01*
X10322077Y8483473D01*
X10304140Y8608230D01*
X10299193Y8625078D01*
X10246371Y8740744D01*
X10238286Y8753832D01*
X10207649Y8791850D01*
X10203514Y8796453D01*
X10194042Y8802782D01*
X10182764Y8805025D01*
X9221351Y8805025D01*
X9208475Y8801575D01*
X9205025Y8788699D01*
X9205025Y7827286D01*
X6239598Y7827286D01*
X6189452Y7869095D01*
X6188034Y7870147D01*
X6188023Y7870155D01*
X5732575Y8207835D01*
X5732561Y8207845D01*
X5731158Y8208885D01*
X5699379Y8229751D01*
X5255734Y8521047D01*
X5255715Y8521059D01*
X5254254Y8522018D01*
X5114730Y8602636D01*
X5069423Y8647929D01*
X5052768Y8709792D01*
X5069213Y8771710D01*
X5087048Y8802795D01*
X8220460Y8802795D01*
X8225452Y8794648D01*
X8794647Y8225453D01*
X8802794Y8220461D01*
X8805025Y8229751D01*
X8805025Y8788699D01*
X8801574Y8801575D01*
X8788699Y8805025D01*
X8229751Y8805025D01*
X8220460Y8802795D01*
X5087048Y8802795D01*
X5502322Y9526577D01*
X7687973Y9526577D01*
X7705909Y9401821D01*
X7710856Y9384973D01*
X7763678Y9269307D01*
X7771763Y9256219D01*
X7802400Y9218201D01*
X7806535Y9213598D01*
X7816007Y9207269D01*
X7827286Y9205025D01*
X8788699Y9205025D01*
X8801574Y9208476D01*
X8805025Y9221351D01*
X9205025Y9221351D01*
X9208475Y9208476D01*
X9221351Y9205025D01*
X9780299Y9205025D01*
X9789589Y9207256D01*
X9784597Y9215403D01*
X9215402Y9784598D01*
X9207255Y9789590D01*
X9205025Y9780299D01*
X9205025Y9221351D01*
X8805025Y9221351D01*
X8805025Y10182764D01*
X8802781Y10194043D01*
X8796452Y10203515D01*
X8791849Y10207650D01*
X8753831Y10238287D01*
X8740743Y10246372D01*
X8625077Y10299194D01*
X8608229Y10304141D01*
X8483473Y10322077D01*
X8465917Y10322077D01*
X8341160Y10304141D01*
X8324312Y10299194D01*
X8208646Y10246372D01*
X8195558Y10238287D01*
X8157540Y10207650D01*
X8152614Y10203225D01*
X7806825Y9857436D01*
X7802400Y9852510D01*
X7771763Y9814492D01*
X7763678Y9801404D01*
X7710856Y9685738D01*
X7705909Y9668890D01*
X7687973Y9544133D01*
X7687973Y9526577D01*
X5502322Y9526577D01*
X8423705Y14618267D01*
X8469888Y14664304D01*
X8533044Y14680543D01*
X8595705Y14662493D01*
X9175861Y14309547D01*
X9180814Y14306370D01*
X9661641Y13981507D01*
X9661921Y13981318D01*
X9853547Y13851385D01*
X9858135Y13848117D01*
X9858149Y13848107D01*
X10271481Y13539189D01*
X10509191Y13360501D01*
X10513534Y13357080D01*
X10781164Y13136436D01*
X10889955Y13046745D01*
X10890326Y13046438D01*
X11140413Y12838624D01*
X11144501Y12835073D01*
X11494475Y12517369D01*
X11745751Y12286967D01*
X11745764Y12286955D01*
X11749585Y12283299D01*
X12076907Y11956405D01*
X12077440Y11955869D01*
X12323845Y11706769D01*
X12327391Y11703032D01*
X12634140Y11366014D01*
X12634738Y11365352D01*
X12873301Y11099425D01*
X12876573Y11095626D01*
X13163824Y10748133D01*
X13164478Y10747336D01*
X13392840Y10466359D01*
X13395840Y10462515D01*
X13664044Y10104638D01*
X13664740Y10103700D01*
X13881280Y9809016D01*
X13884013Y9805144D01*
X14133258Y9437278D01*
X14133982Y9436197D01*
X14138374Y9429566D01*
X14337485Y9128926D01*
X14339954Y9125043D01*
X14570206Y8747678D01*
X14570950Y8746443D01*
X14760412Y8427650D01*
X14762623Y8423771D01*
X14973758Y8037488D01*
X14974507Y8036097D01*
X15149034Y7706893D01*
X15150994Y7703035D01*
X15342872Y7308415D01*
X15343612Y7306866D01*
X15502501Y6968247D01*
X15504217Y6964424D01*
X15676605Y6562236D01*
X15677323Y6560526D01*
X15819979Y6213456D01*
X15821458Y6209683D01*
X15974155Y5800658D01*
X15974837Y5798787D01*
X16100733Y5444275D01*
X16101984Y5440565D01*
X16234774Y5025534D01*
X16235406Y5023500D01*
X16344109Y4662505D01*
X16345143Y4658872D01*
X16457859Y4238575D01*
X16458426Y4236380D01*
X16549543Y3869979D01*
X16550370Y3866434D01*
X16642851Y3441671D01*
X16643339Y3439317D01*
X16716582Y3068460D01*
X16717212Y3065014D01*
X16789280Y2636811D01*
X16789676Y2634300D01*
X16844825Y2259885D01*
X16845271Y2256549D01*
X16896829Y1825695D01*
X16897118Y1823032D01*
X16933984Y1446099D01*
X16934257Y1442882D01*
X16965224Y1010263D01*
X16965393Y1007452D01*
X16983855Y629013D01*
X16983967Y625925D01*
X16994297Y192409D01*
X16994332Y189455D01*
X16994332Y-189455D01*
X16994297Y-192409D01*
X16983967Y-625923D01*
X16983855Y-629011D01*
X16965393Y-1007450D01*
X16965224Y-1010261D01*
X16934257Y-1442880D01*
X16933984Y-1446097D01*
X16897118Y-1823030D01*
X16896829Y-1825693D01*
X16845271Y-2256547D01*
X16844825Y-2259883D01*
X16789676Y-2634298D01*
X16789280Y-2636809D01*
X16717212Y-3065012D01*
X16716582Y-3068458D01*
X16643339Y-3439315D01*
X16642851Y-3441669D01*
X16550370Y-3866432D01*
X16549543Y-3869977D01*
X16458426Y-4236378D01*
X16457859Y-4238573D01*
X16345143Y-4658870D01*
X16344109Y-4662503D01*
X16235406Y-5023498D01*
X16234774Y-5025532D01*
X16101984Y-5440563D01*
X16100733Y-5444273D01*
X15974837Y-5798785D01*
X15974155Y-5800656D01*
X15821458Y-6209681D01*
X15819979Y-6213454D01*
X15677323Y-6560524D01*
X15676605Y-6562234D01*
X15504217Y-6964422D01*
X15502501Y-6968245D01*
X15343612Y-7306864D01*
X15342872Y-7308413D01*
X15150994Y-7703033D01*
X15149034Y-7706891D01*
X14974507Y-8036095D01*
X14973758Y-8037486D01*
X14762623Y-8423769D01*
X14760412Y-8427648D01*
X14570950Y-8746441D01*
X14570206Y-8747676D01*
X14339954Y-9125041D01*
X14337485Y-9128924D01*
X14133985Y-9436191D01*
X14133258Y-9437276D01*
X13884013Y-9805142D01*
X13881280Y-9809014D01*
X13664740Y-10103698D01*
X13664044Y-10104636D01*
X13395840Y-10462513D01*
X13392840Y-10466357D01*
X13164478Y-10747334D01*
X13163824Y-10748131D01*
X12876573Y-11095624D01*
X12873301Y-11099423D01*
X12634738Y-11365350D01*
X12634140Y-11366012D01*
X12327391Y-11703030D01*
X12323845Y-11706767D01*
X12077440Y-11955867D01*
X12076907Y-11956403D01*
X11749585Y-12283297D01*
X11745764Y-12286953D01*
X11494739Y-12517126D01*
X11494282Y-12517543D01*
X11144509Y-12835064D01*
X11140413Y-12838622D01*
X10890373Y-13046397D01*
X10890003Y-13046704D01*
X10513548Y-13357068D01*
X10509177Y-13360509D01*
X10271862Y-13538902D01*
X10271586Y-13539109D01*
X9858147Y-13848106D01*
X9853504Y-13851412D01*
X9662111Y-13981188D01*
X9661940Y-13981304D01*
X9180823Y-14306363D01*
X9175852Y-14309552D01*
X8595855Y-14662400D01*
X8533136Y-14680452D01*
X8469939Y-14664156D01*
X8423769Y-14618028D01*
X7415314Y-12854842D01*
X5521753Y-9544133D01*
X7687973Y-9544133D01*
X7705909Y-9668889D01*
X7710856Y-9685737D01*
X7763678Y-9801403D01*
X7771763Y-9814491D01*
X7802400Y-9852509D01*
X7806825Y-9857435D01*
X8152614Y-10203224D01*
X8157540Y-10207649D01*
X8195558Y-10238286D01*
X8208646Y-10246371D01*
X8324312Y-10299193D01*
X8341160Y-10304140D01*
X8465917Y-10322077D01*
X8483473Y-10322077D01*
X8608229Y-10304140D01*
X8625077Y-10299193D01*
X8740743Y-10246371D01*
X8753831Y-10238286D01*
X8791849Y-10207649D01*
X8796452Y-10203514D01*
X8802781Y-10194042D01*
X8805025Y-10182764D01*
X8805025Y-9780299D01*
X9205025Y-9780299D01*
X9207255Y-9789589D01*
X9215402Y-9784597D01*
X9784597Y-9215402D01*
X9789589Y-9207255D01*
X9780299Y-9205025D01*
X9221351Y-9205025D01*
X9208475Y-9208475D01*
X9205025Y-9221351D01*
X9205025Y-9780299D01*
X8805025Y-9780299D01*
X8805025Y-9221351D01*
X8801574Y-9208475D01*
X8788699Y-9205025D01*
X7827286Y-9205025D01*
X7816007Y-9207268D01*
X7806535Y-9213597D01*
X7802400Y-9218200D01*
X7771763Y-9256218D01*
X7763678Y-9269306D01*
X7710856Y-9384972D01*
X7705909Y-9401820D01*
X7687973Y-9526577D01*
X7687973Y-9544133D01*
X5521753Y-9544133D01*
X5097743Y-8802794D01*
X8220460Y-8802794D01*
X8229751Y-8805025D01*
X8788699Y-8805025D01*
X8801574Y-8801574D01*
X8805025Y-8788699D01*
X9205025Y-8788699D01*
X9208475Y-8801574D01*
X9221351Y-8805025D01*
X10182764Y-8805025D01*
X10194042Y-8802781D01*
X10203514Y-8796452D01*
X10207649Y-8791849D01*
X10238286Y-8753831D01*
X10246371Y-8740743D01*
X10299193Y-8625077D01*
X10304140Y-8608229D01*
X10322077Y-8483473D01*
X10322077Y-8465917D01*
X10304140Y-8341160D01*
X10299193Y-8324312D01*
X10246371Y-8208646D01*
X10238286Y-8195558D01*
X10207649Y-8157540D01*
X10203224Y-8152614D01*
X9857435Y-7806825D01*
X9852509Y-7802400D01*
X9814491Y-7771763D01*
X9801403Y-7763678D01*
X9685737Y-7710856D01*
X9668889Y-7705909D01*
X9544133Y-7687973D01*
X9526577Y-7687973D01*
X9401820Y-7705909D01*
X9384972Y-7710856D01*
X9269306Y-7763678D01*
X9256218Y-7771763D01*
X9218200Y-7802400D01*
X9213597Y-7806535D01*
X9207268Y-7816007D01*
X9205025Y-7827286D01*
X9205025Y-8788699D01*
X8805025Y-8788699D01*
X8805025Y-8229751D01*
X8802794Y-8220460D01*
X8794647Y-8225452D01*
X8225452Y-8794647D01*
X8220460Y-8802794D01*
X5097743Y-8802794D01*
X5086083Y-8782407D01*
X5069722Y-8720564D01*
X5086365Y-8658793D01*
X5131581Y-8613540D01*
X5271908Y-8532280D01*
X5749725Y-8217875D01*
X6208842Y-7876744D01*
X6647767Y-7509994D01*
X7065070Y-7118820D01*
X7459396Y-6704493D01*
X7829461Y-6268361D01*
X8174063Y-5811842D01*
X8492080Y-5336422D01*
X8782478Y-4843645D01*
X9044312Y-4335116D01*
X9276732Y-3812487D01*
X9478981Y-3277459D01*
X9564672Y-3004635D01*
X9564744Y-3004463D01*
X9564734Y-3004439D01*
X9564830Y-3004135D01*
X9564377Y-3003992D01*
X9564303Y-3003962D01*
X9564279Y-3003961D01*
X9563876Y-3003835D01*
X9563836Y-3003961D01*
X9562377Y-3003959D01*
X9562889Y-3001423D01*
X9585111Y-2951678D01*
X9626503Y-2916264D01*
X9651065Y-2903282D01*
X9655153Y-2901220D01*
X9663717Y-2897095D01*
X9706642Y-2876425D01*
X9712939Y-2870582D01*
X9720538Y-2866566D01*
X9760976Y-2826126D01*
X9764261Y-2822961D01*
X9806194Y-2784055D01*
X9809663Y-2778045D01*
X9814747Y-2772355D01*
X11486134Y-1100968D01*
X11537561Y-1070069D01*
X11597477Y-1066930D01*
X11651853Y-1092289D01*
X11687959Y-1140207D01*
X11696418Y-1193646D01*
X11695736Y-1196193D01*
X11696596Y-1206033D01*
X11680005Y-1257667D01*
X11642197Y-1297597D01*
X11640602Y-1298662D01*
X11640598Y-1298665D01*
X11630448Y-1305448D01*
X11623665Y-1315598D01*
X11623663Y-1315601D01*
X11592917Y-1361615D01*
X11592915Y-1361618D01*
X11586133Y-1371769D01*
X11583750Y-1383745D01*
X11583750Y-1383747D01*
X11575689Y-1424271D01*
X11575688Y-1424277D01*
X11574500Y-1430252D01*
X11574500Y-2969748D01*
X11575688Y-2975723D01*
X11575689Y-2975728D01*
X11583658Y-3015788D01*
X11586133Y-3028231D01*
X11592917Y-3038384D01*
X11597592Y-3049670D01*
X11595984Y-3050335D01*
X11609475Y-3086188D01*
X11603954Y-3142227D01*
X11574218Y-3190047D01*
X11565601Y-3198663D01*
X11555448Y-3205448D01*
X11548663Y-3215601D01*
X11548662Y-3215603D01*
X11517917Y-3261615D01*
X11517915Y-3261618D01*
X11511133Y-3271769D01*
X11508750Y-3283745D01*
X11508750Y-3283747D01*
X11500689Y-3324271D01*
X11500688Y-3324277D01*
X11499500Y-3330252D01*
X11499500Y-4669748D01*
X11511133Y-4728231D01*
X11555448Y-4794552D01*
X11621769Y-4838867D01*
X11680252Y-4850500D01*
X12413652Y-4850500D01*
X12419748Y-4850500D01*
X12478231Y-4838867D01*
X12544552Y-4794552D01*
X12588867Y-4728231D01*
X12600500Y-4669748D01*
X12600500Y-4010188D01*
X12614015Y-3953893D01*
X12651615Y-3909870D01*
X12705102Y-3887715D01*
X12762818Y-3892257D01*
X12812181Y-3922507D01*
X13105950Y-4216276D01*
X13113259Y-4224251D01*
X13125276Y-4238573D01*
X13137545Y-4253194D01*
X13170263Y-4272083D01*
X13179379Y-4277892D01*
X13210316Y-4299554D01*
X13220800Y-4302362D01*
X13224123Y-4303912D01*
X13227557Y-4305162D01*
X13236955Y-4310588D01*
X13274163Y-4317148D01*
X13284704Y-4319486D01*
X13307595Y-4325620D01*
X13355207Y-4350405D01*
X13387882Y-4392990D01*
X13399500Y-4445394D01*
X13399500Y-4669748D01*
X13411133Y-4728231D01*
X13455448Y-4794552D01*
X13521769Y-4838867D01*
X13533747Y-4841249D01*
X13545030Y-4845923D01*
X13544074Y-4848230D01*
X13575982Y-4862686D01*
X13611711Y-4906218D01*
X13624500Y-4961065D01*
X13624500Y-5853762D01*
X13615061Y-5901215D01*
X13588181Y-5941443D01*
X10585536Y-8944086D01*
X10556308Y-8965763D01*
X10522045Y-8978023D01*
X10459049Y-8990553D01*
X10459048Y-8990553D01*
X10447074Y-8992935D01*
X10436923Y-8999717D01*
X10436922Y-8999718D01*
X10402562Y-9022676D01*
X10402557Y-9022679D01*
X10397494Y-9026063D01*
X10393186Y-9030370D01*
X10393181Y-9030375D01*
X9030375Y-10393181D01*
X9030370Y-10393186D01*
X9026063Y-10397494D01*
X9022679Y-10402557D01*
X9022676Y-10402562D01*
X8999718Y-10436922D01*
X8992935Y-10447074D01*
X8990553Y-10459046D01*
X8990553Y-10459048D01*
X8979757Y-10513329D01*
X8977375Y-10525305D01*
X8979757Y-10537281D01*
X8990552Y-10591560D01*
X8990553Y-10591563D01*
X8992935Y-10603537D01*
X9026063Y-10653116D01*
X9336834Y-10963887D01*
X9386413Y-10997015D01*
X9464645Y-11012575D01*
X9542876Y-10997015D01*
X9592456Y-10963887D01*
X10963887Y-9592456D01*
X10997015Y-9542876D01*
X11011927Y-9467900D01*
X11024186Y-9433639D01*
X11045863Y-9404412D01*
X14166290Y-6283984D01*
X14174242Y-6276697D01*
X14203194Y-6252405D01*
X14222085Y-6219683D01*
X14227880Y-6210585D01*
X14249554Y-6179634D01*
X14252362Y-6169149D01*
X14253901Y-6165850D01*
X14255156Y-6162401D01*
X14260588Y-6152995D01*
X14267149Y-6115780D01*
X14269478Y-6105274D01*
X14279264Y-6068757D01*
X14275971Y-6031130D01*
X14275500Y-6020323D01*
X14275500Y-4961065D01*
X14288289Y-4906218D01*
X14324018Y-4862686D01*
X14355925Y-4848230D01*
X14354970Y-4845923D01*
X14366251Y-4841249D01*
X14378231Y-4838867D01*
X14444552Y-4794552D01*
X14488867Y-4728231D01*
X14500500Y-4669748D01*
X14500500Y-3430411D01*
X14513616Y-3374907D01*
X14550189Y-3331144D01*
X14575092Y-3312501D01*
X14587501Y-3300092D01*
X14663037Y-3199189D01*
X14671452Y-3183777D01*
X14715888Y-3064641D01*
X14719426Y-3049667D01*
X14724646Y-3001114D01*
X14725000Y-2994518D01*
X14725000Y-2466326D01*
X14721549Y-2453450D01*
X14708674Y-2450000D01*
X13249500Y-2450000D01*
X13187500Y-2433387D01*
X13142113Y-2388000D01*
X13125500Y-2326000D01*
X13125500Y-2074000D01*
X13142113Y-2012000D01*
X13187500Y-1966613D01*
X13249500Y-1950000D01*
X14708674Y-1950000D01*
X14721549Y-1946549D01*
X14725000Y-1933674D01*
X14725000Y-1414500D01*
X14741613Y-1352500D01*
X14787000Y-1307113D01*
X14849000Y-1290500D01*
X14939373Y-1290500D01*
X14950180Y-1290971D01*
X14987807Y-1294264D01*
X15024324Y-1284478D01*
X15034830Y-1282149D01*
X15072045Y-1275588D01*
X15081451Y-1270156D01*
X15084900Y-1268901D01*
X15088199Y-1267362D01*
X15098684Y-1264554D01*
X15129635Y-1242880D01*
X15138733Y-1237085D01*
X15171455Y-1218194D01*
X15195748Y-1189241D01*
X15203035Y-1181289D01*
X15612296Y-772029D01*
X15620264Y-764729D01*
X15640881Y-747430D01*
X15640880Y-747430D01*
X15649194Y-740455D01*
X15668091Y-707721D01*
X15673890Y-698622D01*
X15674942Y-697121D01*
X15695554Y-667684D01*
X15698362Y-657199D01*
X15699901Y-653900D01*
X15701156Y-650451D01*
X15706588Y-641045D01*
X15713150Y-603822D01*
X15715478Y-593321D01*
X15725263Y-556807D01*
X15721972Y-519189D01*
X15721500Y-508382D01*
X15721500Y625701D01*
X15734288Y680545D01*
X15770014Y724077D01*
X15782521Y733674D01*
X15824282Y765718D01*
X15920536Y891159D01*
X15981044Y1037238D01*
X16001682Y1194000D01*
X15981044Y1350762D01*
X15920536Y1496841D01*
X15824282Y1622282D01*
X15698841Y1718536D01*
X15691333Y1721646D01*
X15560271Y1775934D01*
X15560268Y1775935D01*
X15552762Y1779044D01*
X15544708Y1780105D01*
X15544702Y1780106D01*
X15404059Y1798621D01*
X15396000Y1799682D01*
X15387941Y1798621D01*
X15247297Y1780106D01*
X15247289Y1780104D01*
X15239238Y1779044D01*
X15231733Y1775936D01*
X15231728Y1775934D01*
X15100666Y1721646D01*
X15100662Y1721645D01*
X15093159Y1718536D01*
X15086714Y1713592D01*
X15086711Y1713589D01*
X14974164Y1627229D01*
X14974160Y1627226D01*
X14967718Y1622282D01*
X14947374Y1595770D01*
X14899435Y1557978D01*
X14839271Y1547640D01*
X14781465Y1567263D01*
X14740027Y1612090D01*
X14725000Y1671258D01*
X14725000Y1933674D01*
X14721549Y1946550D01*
X14708674Y1950000D01*
X14241326Y1950000D01*
X14228450Y1946550D01*
X14225000Y1933674D01*
X14225000Y966326D01*
X14228450Y953451D01*
X14241326Y950000D01*
X14269518Y950000D01*
X14276114Y950354D01*
X14324667Y955574D01*
X14339641Y959112D01*
X14458777Y1003548D01*
X14474189Y1011963D01*
X14575092Y1087499D01*
X14587497Y1099904D01*
X14588048Y1100639D01*
X14589122Y1101529D01*
X14593775Y1106181D01*
X14594213Y1105743D01*
X14632866Y1137739D01*
X14689672Y1150314D01*
X14745960Y1135595D01*
X14789339Y1096822D01*
X14806320Y1052752D01*
X14807792Y1053146D01*
X14809895Y1045298D01*
X14810956Y1037238D01*
X14814065Y1029732D01*
X14814066Y1029729D01*
X14848221Y947272D01*
X14871464Y891159D01*
X14967718Y765718D01*
X15009479Y733674D01*
X15021986Y724077D01*
X15057712Y680545D01*
X15070500Y625701D01*
X15070500Y-341811D01*
X15061061Y-389264D01*
X15034181Y-429492D01*
X14860493Y-603181D01*
X14820265Y-630061D01*
X14772812Y-639500D01*
X14108432Y-639500D01*
X14049979Y-624858D01*
X14005330Y-584391D01*
X13985029Y-527654D01*
X13993871Y-468048D01*
X14018512Y-408558D01*
X14025416Y-391890D01*
X14046054Y-235128D01*
X14025416Y-78366D01*
X13964908Y67713D01*
X13868654Y193154D01*
X13743213Y289408D01*
X13662871Y322687D01*
X13604643Y346806D01*
X13604640Y346807D01*
X13597134Y349916D01*
X13589080Y350977D01*
X13589074Y350978D01*
X13448431Y369493D01*
X13440372Y370554D01*
X13432313Y369493D01*
X13432311Y369493D01*
X13372551Y361626D01*
X13316508Y367146D01*
X13268686Y396884D01*
X13124787Y540783D01*
X13117478Y548759D01*
X13100170Y569386D01*
X13093199Y577694D01*
X13083806Y583117D01*
X13083804Y583119D01*
X13060479Y596586D01*
X13051371Y602388D01*
X13020428Y624054D01*
X13009950Y626862D01*
X13006617Y628416D01*
X13003176Y629669D01*
X12993789Y635088D01*
X12983110Y636972D01*
X12983105Y636973D01*
X12956596Y641648D01*
X12946041Y643987D01*
X12920027Y650957D01*
X12909551Y653764D01*
X12898747Y652819D01*
X12898744Y652819D01*
X12871925Y650472D01*
X12861117Y650000D01*
X11188127Y650000D01*
X11177319Y650472D01*
X11150499Y652819D01*
X11150496Y652819D01*
X11139693Y653764D01*
X11103197Y643986D01*
X11092649Y641647D01*
X11066135Y636972D01*
X11066131Y636971D01*
X11055455Y635088D01*
X11046066Y629669D01*
X11042618Y628413D01*
X11039288Y626861D01*
X11028816Y624054D01*
X10997871Y602388D01*
X10988764Y596586D01*
X10965440Y583120D01*
X10965434Y583116D01*
X10956045Y577694D01*
X10949074Y569388D01*
X10949073Y569386D01*
X10931762Y548756D01*
X10924456Y540784D01*
X10542493Y158819D01*
X10502265Y131939D01*
X10454812Y122500D01*
X5959808Y122500D01*
X5912355Y131939D01*
X5872127Y158819D01*
X5845247Y199047D01*
X5838893Y214387D01*
X5810513Y282902D01*
X5714259Y408343D01*
X5588818Y504597D01*
X5581310Y507707D01*
X5450248Y561995D01*
X5450245Y561996D01*
X5442739Y565105D01*
X5434685Y566166D01*
X5434679Y566167D01*
X5294036Y584682D01*
X5285977Y585743D01*
X5277918Y584682D01*
X5137274Y566167D01*
X5137266Y566165D01*
X5129215Y565105D01*
X5121710Y561997D01*
X5121705Y561995D01*
X4990643Y507707D01*
X4990639Y507706D01*
X4983136Y504597D01*
X4976691Y499653D01*
X4976688Y499650D01*
X4864141Y413290D01*
X4864137Y413287D01*
X4857695Y408343D01*
X4852751Y401901D01*
X4852748Y401897D01*
X4766388Y289350D01*
X4766385Y289347D01*
X4761441Y282902D01*
X4758332Y275399D01*
X4758331Y275395D01*
X4704043Y144333D01*
X4704041Y144328D01*
X4700933Y136823D01*
X4699873Y128772D01*
X4699871Y128764D01*
X4682920Y0D01*
X4680295Y-19939D01*
X4681356Y-27998D01*
X4699871Y-168641D01*
X4699872Y-168647D01*
X4700933Y-176701D01*
X4704042Y-184207D01*
X4704043Y-184210D01*
X4732039Y-251797D01*
X4761441Y-322780D01*
X4857695Y-448221D01*
X4983136Y-544475D01*
X5129215Y-604983D01*
X5285977Y-625621D01*
X5442739Y-604983D01*
X5588818Y-544475D01*
X5589272Y-544126D01*
X5647592Y-528500D01*
X10485034Y-528500D01*
X10541329Y-542015D01*
X10585352Y-579615D01*
X10607507Y-633102D01*
X10602965Y-690818D01*
X10572715Y-740181D01*
X9299716Y-2013181D01*
X9259488Y-2040061D01*
X9212035Y-2049500D01*
X5252639Y-2049500D01*
X5198111Y-2036867D01*
X5154693Y-2001544D01*
X5131232Y-1950726D01*
X5129756Y-1943624D01*
X5127334Y-1931968D01*
X5031104Y-1661203D01*
X4898901Y-1406064D01*
X4781126Y-1239214D01*
X4735633Y-1174764D01*
X4735630Y-1174761D01*
X4733189Y-1171302D01*
X4580114Y-1007399D01*
X4539940Y-964383D01*
X4539938Y-964381D01*
X4537053Y-961292D01*
X4533771Y-958622D01*
X4533768Y-958619D01*
X4317429Y-782615D01*
X4317428Y-782614D01*
X4314147Y-779945D01*
X4129543Y-667684D01*
X4072243Y-632839D01*
X4072241Y-632838D01*
X4068625Y-630639D01*
X4064745Y-628953D01*
X4064738Y-628950D01*
X3808939Y-517841D01*
X3808929Y-517837D01*
X3805058Y-516156D01*
X3795893Y-513588D01*
X3532437Y-439771D01*
X3532424Y-439768D01*
X3528358Y-438629D01*
X3524168Y-438053D01*
X3524158Y-438051D01*
X3247875Y-400076D01*
X3247862Y-400075D01*
X3243678Y-399500D01*
X2956322Y-399500D01*
X2952138Y-400075D01*
X2952124Y-400076D01*
X2675841Y-438051D01*
X2675828Y-438053D01*
X2671642Y-438629D01*
X2667577Y-439767D01*
X2667562Y-439771D01*
X2399013Y-515015D01*
X2399008Y-515016D01*
X2394942Y-516156D01*
X2391075Y-517835D01*
X2391060Y-517841D01*
X2135261Y-628950D01*
X2135248Y-628956D01*
X2131375Y-630639D01*
X2127764Y-632834D01*
X2127756Y-632839D01*
X1889465Y-777748D01*
X1889460Y-777751D01*
X1885853Y-779945D01*
X1882578Y-782609D01*
X1882570Y-782615D01*
X1666231Y-958619D01*
X1666220Y-958628D01*
X1662947Y-961292D01*
X1660068Y-964374D01*
X1660059Y-964383D01*
X1469699Y-1168209D01*
X1469694Y-1168214D01*
X1466811Y-1171302D01*
X1464375Y-1174752D01*
X1464366Y-1174764D01*
X1303545Y-1402598D01*
X1303541Y-1402603D01*
X1301099Y-1406064D01*
X1299153Y-1409818D01*
X1299149Y-1409826D01*
X1170845Y-1657440D01*
X1170840Y-1657450D01*
X1168896Y-1661203D01*
X1167479Y-1665188D01*
X1167475Y-1665199D01*
X1110464Y-1825614D01*
X1072666Y-1931968D01*
X1071805Y-1936112D01*
X1071803Y-1936119D01*
X1015063Y-2209167D01*
X1015061Y-2209177D01*
X1014202Y-2213314D01*
X1013913Y-2217529D01*
X1013913Y-2217534D01*
X1001659Y-2396679D01*
X994592Y-2500000D01*
X1014202Y-2786686D01*
X1015061Y-2790824D01*
X1015063Y-2790832D01*
X1068989Y-3050336D01*
X1072666Y-3068032D01*
X1074084Y-3072021D01*
X1074085Y-3072025D01*
X1158731Y-3310197D01*
X1168896Y-3338797D01*
X1170843Y-3342555D01*
X1170845Y-3342559D01*
X1299149Y-3590173D01*
X1301099Y-3593936D01*
X1303545Y-3597401D01*
X1464366Y-3825235D01*
X1464370Y-3825240D01*
X1466811Y-3828698D01*
X1662947Y-4038708D01*
X1666228Y-4041377D01*
X1666231Y-4041380D01*
X1705577Y-4073390D01*
X1885853Y-4220055D01*
X2131375Y-4369361D01*
X2135260Y-4371048D01*
X2135261Y-4371049D01*
X2349677Y-4464183D01*
X2394942Y-4483844D01*
X2586573Y-4537536D01*
X2667562Y-4560228D01*
X2667564Y-4560228D01*
X2671642Y-4561371D01*
X2956322Y-4600500D01*
X3239441Y-4600500D01*
X3243678Y-4600500D01*
X3528358Y-4561371D01*
X3805058Y-4483844D01*
X4068625Y-4369361D01*
X4314147Y-4220055D01*
X4537053Y-4038708D01*
X4733189Y-3828698D01*
X4898901Y-3593936D01*
X5031104Y-3338797D01*
X5127334Y-3068032D01*
X5131231Y-3049274D01*
X5154693Y-2998456D01*
X5198111Y-2963133D01*
X5252639Y-2950500D01*
X6071036Y-2950500D01*
X6135100Y-2968331D01*
X6180739Y-3016697D01*
X6194828Y-3081687D01*
X6192961Y-3113847D01*
X6192928Y-3114392D01*
X6181353Y-3299666D01*
X6179745Y-3313268D01*
X6156115Y-3448563D01*
X6155821Y-3450182D01*
X6126597Y-3605329D01*
X6123638Y-3617580D01*
X6083116Y-3754440D01*
X6082309Y-3757059D01*
X6035808Y-3902245D01*
X6031793Y-3913029D01*
X5974971Y-4046385D01*
X5973412Y-4049892D01*
X5910277Y-4186205D01*
X5905508Y-4195462D01*
X5833230Y-4322360D01*
X5830704Y-4326596D01*
X5751790Y-4453161D01*
X5746567Y-4460877D01*
X5659863Y-4579125D01*
X5656180Y-4583899D01*
X5562577Y-4699339D01*
X5557191Y-4705550D01*
X5457326Y-4813259D01*
X5452332Y-4818343D01*
X5345300Y-4921237D01*
X5340024Y-4926025D01*
X5228479Y-5021557D01*
X5222063Y-5026694D01*
X5103029Y-5115677D01*
X5098111Y-5119170D01*
X4976524Y-5201158D01*
X4968609Y-5206073D01*
X4839059Y-5279926D01*
X4834726Y-5282283D01*
X4705063Y-5349514D01*
X4695626Y-5353915D01*
X4556887Y-5411650D01*
X4553321Y-5413069D01*
X4417884Y-5464573D01*
X4406952Y-5468160D01*
X4260008Y-5508918D01*
X4257381Y-5509615D01*
X4202653Y-5523500D01*
X4119040Y-5544712D01*
X4106683Y-5547186D01*
X3950420Y-5570288D01*
X3948791Y-5570517D01*
X3812742Y-5588790D01*
X3799096Y-5589861D01*
X3617190Y-5594058D01*
X3616633Y-5594070D01*
X3500146Y-5596234D01*
X3500144Y-5596168D01*
X3495833Y-5596752D01*
X-2419981Y-5586297D01*
X-2419982Y-5586296D01*
X-2419982Y-5586297D01*
X-3499766Y-5583889D01*
X-3499934Y-5583888D01*
X-3499934Y-5583867D01*
X-3500344Y-5583884D01*
X-3501203Y-5583877D01*
X-3613111Y-5582330D01*
X-3613659Y-5582321D01*
X-3798013Y-5578957D01*
X-3811676Y-5577951D01*
X-3947370Y-5560379D01*
X-3948999Y-5560157D01*
X-4104388Y-5537936D01*
X-4116760Y-5535520D01*
X-4254790Y-5501193D01*
X-4257440Y-5500502D01*
X-4403664Y-5460689D01*
X-4414609Y-5457156D01*
X-4495979Y-5426650D01*
X-4549775Y-5406481D01*
X-4553346Y-5405079D01*
X-4691588Y-5348312D01*
X-4701046Y-5343955D01*
X-4830446Y-5277630D01*
X-4834792Y-5275292D01*
X-4964035Y-5202414D01*
X-4971973Y-5197536D01*
X-5093414Y-5116471D01*
X-5098336Y-5113010D01*
X-5175187Y-5056121D01*
X-5217162Y-5025048D01*
X-5223592Y-5019949D01*
X-5335159Y-4925297D01*
X-5340406Y-4920580D01*
X-5447361Y-4818714D01*
X-5452360Y-4813671D01*
X-5552342Y-4706838D01*
X-5557730Y-4700683D01*
X-5651373Y-4586283D01*
X-5655077Y-4581527D01*
X-5669573Y-4561948D01*
X-5741978Y-4464155D01*
X-5747208Y-4456507D01*
X-5826294Y-4330965D01*
X-5828832Y-4326753D01*
X-5831403Y-4322288D01*
X-5901399Y-4200706D01*
X-5906211Y-4191471D01*
X-5969628Y-4056192D01*
X-5971203Y-4052693D01*
X-5984855Y-4021059D01*
X-6028415Y-3920125D01*
X-6032471Y-3909381D01*
X-6079388Y-3765183D01*
X-6080163Y-3762712D01*
X-6121191Y-3626450D01*
X-6124205Y-3614214D01*
X-6124683Y-3611737D01*
X-6153982Y-3460024D01*
X-6154232Y-3458685D01*
X-6178430Y-3323795D01*
X-6180100Y-3310197D01*
X-6180777Y-3300092D01*
X-6192638Y-3123084D01*
X-6199511Y-3013343D01*
X-6199459Y-3013217D01*
X-6199501Y-3013116D01*
X-6199503Y-3012715D01*
X-6199903Y-3012717D01*
X-6216086Y-3012728D01*
X-6216088Y-3012728D01*
X-9531312Y-3015106D01*
X-9531313Y-3015106D01*
X-9549099Y-3015119D01*
X-9549139Y-3014993D01*
X-9549542Y-3015119D01*
X-9549564Y-3015120D01*
X-9549640Y-3015151D01*
X-9550092Y-3015294D01*
X-9549997Y-3015597D01*
X-9550006Y-3015620D01*
X-9549937Y-3015788D01*
X-9545263Y-3030590D01*
X-9545263Y-3030592D01*
X-9472404Y-3261322D01*
X-9463841Y-3288439D01*
X-9463212Y-3290095D01*
X-9463211Y-3290098D01*
X-9282777Y-3765183D01*
X-9260795Y-3823060D01*
X-9260083Y-3824655D01*
X-9260076Y-3824671D01*
X-9156670Y-4056192D01*
X-9027577Y-4345224D01*
X-9016236Y-4367160D01*
X-8766358Y-4850500D01*
X-8764945Y-4853232D01*
X-8473756Y-5345426D01*
X-8472789Y-5346867D01*
X-8472784Y-5346874D01*
X-8184686Y-5775931D01*
X-8154958Y-5820204D01*
X-8153901Y-5821599D01*
X-8153891Y-5821613D01*
X-7859185Y-6210565D01*
X-7809590Y-6276020D01*
X-7802798Y-6283994D01*
X-7445795Y-6703148D01*
X-7438777Y-6711387D01*
X-7043728Y-7124887D01*
X-6625729Y-7515174D01*
X-6624367Y-7516307D01*
X-6624364Y-7516310D01*
X-6187509Y-7879838D01*
X-6187498Y-7879846D01*
X-6186142Y-7880975D01*
X-5726400Y-8221098D01*
X-5724940Y-8222054D01*
X-5724926Y-8222064D01*
X-5411086Y-8427620D01*
X-5248001Y-8534436D01*
X-5246458Y-8535325D01*
X-5108130Y-8615034D01*
X-5062703Y-8660384D01*
X-5046039Y-8722373D01*
X-5062603Y-8784388D01*
X-8424853Y-14618596D01*
X-8471056Y-14664507D01*
X-8534153Y-14680667D01*
X-8596737Y-14662617D01*
X-9177090Y-14309552D01*
X-9182061Y-14306363D01*
X-9663178Y-13981304D01*
X-9663228Y-13981270D01*
X-9854768Y-13851395D01*
X-9859387Y-13848105D01*
X-10272927Y-13539031D01*
X-10273201Y-13538826D01*
X-10510405Y-13360518D01*
X-10514776Y-13357076D01*
X-10891369Y-13046599D01*
X-10891740Y-13046292D01*
X-11141641Y-12838632D01*
X-11145737Y-12835074D01*
X-11145748Y-12835064D01*
X-11495746Y-12517338D01*
X-11495978Y-12517126D01*
X-11747020Y-12286938D01*
X-11750813Y-12283308D01*
X-12078228Y-11956320D01*
X-12078761Y-11955785D01*
X-12325074Y-11706778D01*
X-12328620Y-11703041D01*
X-12635472Y-11365910D01*
X-12636070Y-11365248D01*
X-12874541Y-11099425D01*
X-12874543Y-11099423D01*
X-12874553Y-11099411D01*
X-12877775Y-11095670D01*
X-13165140Y-10748039D01*
X-13165665Y-10747398D01*
X-13394082Y-10466353D01*
X-13397082Y-10462510D01*
X-13559063Y-10246371D01*
X-13665367Y-10104525D01*
X-13665915Y-10103786D01*
X-13850559Y-9852509D01*
X-13882512Y-9809025D01*
X-13885245Y-9805153D01*
X-14026435Y-9596768D01*
X-14134617Y-9437099D01*
X-14135225Y-9436191D01*
X-14338729Y-9128919D01*
X-14341162Y-9125094D01*
X-14550253Y-8782410D01*
X-14571471Y-8747635D01*
X-14572215Y-8746400D01*
X-14613600Y-8676765D01*
X-14761668Y-8427620D01*
X-14763824Y-8423837D01*
X-14975038Y-8037412D01*
X-14975765Y-8036061D01*
X-14998277Y-7993598D01*
X-15150275Y-7706890D01*
X-15152229Y-7703043D01*
X-15157310Y-7692593D01*
X-15344154Y-7308327D01*
X-15344866Y-7306835D01*
X-15503736Y-6968255D01*
X-15505452Y-6964433D01*
X-15528372Y-6910959D01*
X-15677913Y-6562074D01*
X-15678518Y-6560633D01*
X-15821222Y-6213447D01*
X-15822694Y-6209692D01*
X-15830599Y-6188518D01*
X-15975409Y-5800618D01*
X-15976082Y-5798771D01*
X-16047821Y-5596760D01*
X-16101979Y-5444255D01*
X-16103222Y-5440569D01*
X-16236062Y-5025379D01*
X-16236622Y-5023574D01*
X-16345364Y-4662449D01*
X-16346354Y-4658971D01*
X-16459124Y-4238475D01*
X-16459644Y-4236465D01*
X-16550790Y-3869945D01*
X-16551605Y-3866452D01*
X-16644099Y-3441630D01*
X-16644579Y-3439312D01*
X-16717829Y-3068426D01*
X-16718440Y-3065086D01*
X-16790545Y-2636659D01*
X-16790916Y-2634298D01*
X-16846066Y-2259874D01*
X-16846498Y-2256643D01*
X-16885146Y-1933674D01*
X-14725000Y-1933674D01*
X-14721550Y-1946549D01*
X-14708674Y-1950000D01*
X-14241326Y-1950000D01*
X-14228451Y-1946549D01*
X-14225000Y-1933674D01*
X-14225000Y-966326D01*
X-14228451Y-953450D01*
X-14241326Y-950000D01*
X-14269518Y-950000D01*
X-14276115Y-950353D01*
X-14324668Y-955573D01*
X-14339642Y-959111D01*
X-14458778Y-1003547D01*
X-14474190Y-1011962D01*
X-14575093Y-1087498D01*
X-14587502Y-1099907D01*
X-14663038Y-1200810D01*
X-14671453Y-1216222D01*
X-14715889Y-1335358D01*
X-14719426Y-1350330D01*
X-14724647Y-1398885D01*
X-14725000Y-1405482D01*
X-14725000Y-1933674D01*
X-16885146Y-1933674D01*
X-16898089Y-1825518D01*
X-16898358Y-1823030D01*
X-16935224Y-1446097D01*
X-16935491Y-1442948D01*
X-16935496Y-1442880D01*
X-16966469Y-1010191D01*
X-16966636Y-1007399D01*
X-16968640Y-966326D01*
X-16985099Y-628950D01*
X-16985205Y-626038D01*
X-16995536Y-192367D01*
X-16995571Y-189414D01*
X-16995571Y189414D01*
X-16995536Y192367D01*
X-16993262Y287806D01*
X-16985205Y626043D01*
X-16985096Y629013D01*
X-16966633Y1007452D01*
X-16966467Y1010211D01*
X-16966463Y1010263D01*
X-16938173Y1405482D01*
X-14725000Y1405482D01*
X-14724647Y1398886D01*
X-14719427Y1350333D01*
X-14715889Y1335359D01*
X-14671453Y1216223D01*
X-14663038Y1200811D01*
X-14587502Y1099908D01*
X-14575093Y1087499D01*
X-14474190Y1011963D01*
X-14458778Y1003548D01*
X-14339642Y959112D01*
X-14324668Y955574D01*
X-14276115Y950354D01*
X-14269518Y950000D01*
X-14241326Y950000D01*
X-14228451Y953451D01*
X-14225000Y966326D01*
X-13725000Y966326D01*
X-13721550Y953451D01*
X-13708674Y950000D01*
X-13680493Y950000D01*
X-13673868Y950356D01*
X-13663265Y951496D01*
X-13636735Y951496D01*
X-13626133Y950356D01*
X-13619507Y950000D01*
X-13591326Y950000D01*
X-13578451Y953451D01*
X-13575000Y966326D01*
X-13575000Y1933674D01*
X-13578451Y1946550D01*
X-13591326Y1950000D01*
X-13708674Y1950000D01*
X-13721550Y1946550D01*
X-13725000Y1933674D01*
X-13725000Y966326D01*
X-14225000Y966326D01*
X-14225000Y1933674D01*
X-14228451Y1946550D01*
X-14241326Y1950000D01*
X-14708674Y1950000D01*
X-14721550Y1946550D01*
X-14725000Y1933674D01*
X-14725000Y1405482D01*
X-16938173Y1405482D01*
X-16935487Y1442999D01*
X-16935223Y1446115D01*
X-16898354Y1823074D01*
X-16898091Y1825498D01*
X-16846496Y2256664D01*
X-16846069Y2259856D01*
X-16815657Y2466326D01*
X-14725000Y2466326D01*
X-14721550Y2453451D01*
X-14708674Y2450000D01*
X-13249500Y2450000D01*
X-13187500Y2433387D01*
X-13142113Y2388000D01*
X-13125500Y2326000D01*
X-13125500Y1430252D01*
X-13124312Y1424277D01*
X-13124311Y1424272D01*
X-13119288Y1399020D01*
X-13113867Y1371769D01*
X-13095897Y1344875D01*
X-13080340Y1311982D01*
X-13075000Y1275986D01*
X-13075000Y966326D01*
X-13071550Y953451D01*
X-13058674Y950000D01*
X-13030482Y950000D01*
X-13023886Y950354D01*
X-12975333Y955574D01*
X-12960359Y959112D01*
X-12841223Y1003548D01*
X-12825811Y1011963D01*
X-12724908Y1087499D01*
X-12712499Y1099908D01*
X-12637711Y1199811D01*
X-12593948Y1236384D01*
X-12538444Y1249500D01*
X-12411346Y1249500D01*
X-12405252Y1249500D01*
X-12374196Y1255679D01*
X-12325811Y1255679D01*
X-12294748Y1249500D01*
X-11761348Y1249500D01*
X-11755252Y1249500D01*
X-11696769Y1261133D01*
X-11630448Y1305448D01*
X-11586133Y1371769D01*
X-11574500Y1430252D01*
X-11574500Y1506500D01*
X-11557887Y1568500D01*
X-11512500Y1613887D01*
X-11450500Y1630500D01*
X-8560739Y1630500D01*
X-8504283Y1616903D01*
X-8460209Y1579093D01*
X-8438182Y1525363D01*
X-8443033Y1467495D01*
X-8462377Y1409123D01*
X-8465195Y1395959D01*
X-8474681Y1303110D01*
X-8475000Y1296832D01*
X-8475000Y1266326D01*
X-8471550Y1253451D01*
X-8458674Y1250000D01*
X-6041327Y1250000D01*
X-6028452Y1253451D01*
X-6021765Y1278404D01*
X-5993413Y1330085D01*
X-5944401Y1362834D01*
X-5885808Y1369251D01*
X-5742000Y1350318D01*
X-5585238Y1370956D01*
X-5439159Y1431464D01*
X-5422043Y1444599D01*
X-5372184Y1467546D01*
X-5317298Y1466722D01*
X-5268145Y1442283D01*
X-5234359Y1399020D01*
X-5208953Y1345030D01*
X-5205209Y1338219D01*
X-5047570Y1089819D01*
X-5042994Y1083521D01*
X-4975727Y1002210D01*
X-4964425Y994442D01*
X-4952443Y1001112D01*
X-3465096Y2488458D01*
X-3458432Y2500000D01*
X-2741569Y2500000D01*
X-2734905Y2488458D01*
X-1247559Y1001112D01*
X-1235576Y994442D01*
X-1224277Y1002207D01*
X-1157003Y1083526D01*
X-1152432Y1089818D01*
X-994793Y1338218D01*
X-991051Y1345024D01*
X-865782Y1611235D01*
X-862922Y1618459D01*
X-772010Y1898255D01*
X-770074Y1905794D01*
X-714947Y2194780D01*
X-713973Y2202500D01*
X-695500Y2496106D01*
X-695500Y2503894D01*
X-713973Y2797501D01*
X-714947Y2805221D01*
X-770074Y3094207D01*
X-772010Y3101746D01*
X-862922Y3381542D01*
X-865782Y3388766D01*
X-991051Y3654977D01*
X-994793Y3661783D01*
X-1152431Y3910182D01*
X-1157007Y3916480D01*
X-1224275Y3997792D01*
X-1235577Y4005560D01*
X-1247559Y3998890D01*
X-2734905Y2511543D01*
X-2741569Y2500000D01*
X-3458432Y2500000D01*
X-3465096Y2511543D01*
X-4952442Y3998889D01*
X-4964426Y4005559D01*
X-4975727Y3997792D01*
X-5042999Y3916474D01*
X-5047566Y3910188D01*
X-5205208Y3661783D01*
X-5208950Y3654977D01*
X-5334219Y3388766D01*
X-5337079Y3381542D01*
X-5427991Y3101746D01*
X-5429927Y3094207D01*
X-5485054Y2805221D01*
X-5486028Y2797502D01*
X-5494511Y2662675D01*
X-5516567Y2599516D01*
X-5568226Y2557007D01*
X-5634451Y2547523D01*
X-5742000Y2561682D01*
X-5750059Y2560621D01*
X-5890703Y2542106D01*
X-5890711Y2542104D01*
X-5898762Y2541044D01*
X-5906267Y2537936D01*
X-5906272Y2537934D01*
X-6037334Y2483646D01*
X-6037338Y2483645D01*
X-6044841Y2480536D01*
X-6051286Y2475592D01*
X-6051289Y2475589D01*
X-6163836Y2389229D01*
X-6163840Y2389226D01*
X-6170282Y2384282D01*
X-6175226Y2377840D01*
X-6175229Y2377836D01*
X-6211923Y2330014D01*
X-6255455Y2294288D01*
X-6310299Y2281500D01*
X-11450500Y2281500D01*
X-11512500Y2298113D01*
X-11557887Y2343500D01*
X-11574500Y2405500D01*
X-11574500Y2963652D01*
X-11574500Y2969748D01*
X-11586133Y3028231D01*
X-11592918Y3038386D01*
X-11597592Y3049670D01*
X-11595985Y3050336D01*
X-11609476Y3086186D01*
X-11603954Y3142229D01*
X-11574216Y3190051D01*
X-11565609Y3198659D01*
X-11555448Y3205448D01*
X-11511133Y3271769D01*
X-11499500Y3330252D01*
X-11499500Y4669748D01*
X-11511133Y4728231D01*
X-11555448Y4794552D01*
X-11621769Y4838867D01*
X-11633747Y4841250D01*
X-11633748Y4841250D01*
X-11674272Y4849311D01*
X-11674277Y4849312D01*
X-11680252Y4850500D01*
X-12419748Y4850500D01*
X-12425723Y4849312D01*
X-12425729Y4849311D01*
X-12466253Y4841250D01*
X-12466255Y4841250D01*
X-12478231Y4838867D01*
X-12488382Y4832085D01*
X-12488385Y4832083D01*
X-12534399Y4801337D01*
X-12534402Y4801335D01*
X-12544552Y4794552D01*
X-12551335Y4784402D01*
X-12551337Y4784399D01*
X-12582083Y4738385D01*
X-12582085Y4738382D01*
X-12588867Y4728231D01*
X-12591250Y4716255D01*
X-12591250Y4716253D01*
X-12599311Y4675729D01*
X-12599312Y4675723D01*
X-12600500Y4669748D01*
X-12600500Y4663652D01*
X-12600500Y3785189D01*
X-12614015Y3728894D01*
X-12651615Y3684871D01*
X-12705102Y3662716D01*
X-12762818Y3667258D01*
X-12812181Y3697508D01*
X-13330957Y4216283D01*
X-13338266Y4224259D01*
X-13362545Y4253194D01*
X-13362103Y4253565D01*
X-13387883Y4287163D01*
X-13399500Y4339566D01*
X-13399500Y4663652D01*
X-13399500Y4669748D01*
X-13411133Y4728231D01*
X-13455448Y4794552D01*
X-13521769Y4838867D01*
X-13533747Y4841250D01*
X-13545030Y4845923D01*
X-13544075Y4848231D01*
X-13575982Y4862686D01*
X-13611711Y4906218D01*
X-13624500Y4961065D01*
X-13624500Y5853762D01*
X-13615061Y5901215D01*
X-13588181Y5941443D01*
X-12851788Y6677836D01*
X-11063709Y8465917D01*
X-10322077Y8465917D01*
X-10304141Y8341161D01*
X-10299194Y8324313D01*
X-10246372Y8208647D01*
X-10238287Y8195559D01*
X-10207650Y8157541D01*
X-10203225Y8152615D01*
X-9857436Y7806826D01*
X-9852510Y7802401D01*
X-9814492Y7771764D01*
X-9801404Y7763679D01*
X-9685738Y7710857D01*
X-9668890Y7705910D01*
X-9544133Y7687973D01*
X-9526577Y7687973D01*
X-9401821Y7705910D01*
X-9384973Y7710857D01*
X-9269307Y7763679D01*
X-9256219Y7771764D01*
X-9218201Y7802401D01*
X-9213598Y7806536D01*
X-9207269Y7816008D01*
X-9205025Y7827286D01*
X-9205025Y8229751D01*
X-8805025Y8229751D01*
X-8802795Y8220461D01*
X-8794648Y8225453D01*
X-8225453Y8794648D01*
X-8220461Y8802795D01*
X-8229751Y8805025D01*
X-8788699Y8805025D01*
X-8801575Y8801575D01*
X-8805025Y8788699D01*
X-8805025Y8229751D01*
X-9205025Y8229751D01*
X-9205025Y8788699D01*
X-9208476Y8801575D01*
X-9221351Y8805025D01*
X-10182764Y8805025D01*
X-10194043Y8802782D01*
X-10203515Y8796453D01*
X-10207650Y8791850D01*
X-10238287Y8753832D01*
X-10246372Y8740744D01*
X-10299194Y8625078D01*
X-10304141Y8608230D01*
X-10322077Y8483473D01*
X-10322077Y8465917D01*
X-11063709Y8465917D01*
X-10585537Y8944089D01*
X-10556311Y8965764D01*
X-10522050Y8978023D01*
X-10447074Y8992935D01*
X-10397494Y9026063D01*
X-10216301Y9207256D01*
X-9789590Y9207256D01*
X-9780299Y9205025D01*
X-9221351Y9205025D01*
X-9208476Y9208476D01*
X-9205025Y9221351D01*
X-8805025Y9221351D01*
X-8801575Y9208476D01*
X-8788699Y9205025D01*
X-7827286Y9205025D01*
X-7816008Y9207269D01*
X-7806536Y9213598D01*
X-7802401Y9218201D01*
X-7771764Y9256219D01*
X-7763679Y9269307D01*
X-7710857Y9384973D01*
X-7705910Y9401821D01*
X-7687973Y9526577D01*
X-7687973Y9544133D01*
X-7705910Y9668890D01*
X-7710857Y9685738D01*
X-7763679Y9801404D01*
X-7771764Y9814492D01*
X-7802401Y9852510D01*
X-7806826Y9857436D01*
X-8152615Y10203225D01*
X-8157541Y10207650D01*
X-8195559Y10238287D01*
X-8208647Y10246372D01*
X-8324313Y10299194D01*
X-8341161Y10304141D01*
X-8465917Y10322077D01*
X-8483473Y10322077D01*
X-8608230Y10304141D01*
X-8625078Y10299194D01*
X-8740744Y10246372D01*
X-8753832Y10238287D01*
X-8791850Y10207650D01*
X-8796453Y10203515D01*
X-8802782Y10194043D01*
X-8805025Y10182764D01*
X-8805025Y9221351D01*
X-9205025Y9221351D01*
X-9205025Y9780299D01*
X-9207256Y9789590D01*
X-9215403Y9784598D01*
X-9784598Y9215403D01*
X-9789590Y9207256D01*
X-10216301Y9207256D01*
X-9026063Y10397494D01*
X-8992935Y10447074D01*
X-8977375Y10525305D01*
X-8992935Y10603537D01*
X-9026063Y10653116D01*
X-9336834Y10963887D01*
X-9386413Y10997015D01*
X-9398387Y10999397D01*
X-9398390Y10999398D01*
X-9452669Y11010193D01*
X-9464645Y11012575D01*
X-9476621Y11010193D01*
X-9530902Y10999397D01*
X-9530904Y10999397D01*
X-9542876Y10997015D01*
X-9553027Y10990233D01*
X-9553028Y10990232D01*
X-9587388Y10967274D01*
X-9587393Y10967271D01*
X-9592456Y10963887D01*
X-9596764Y10959580D01*
X-9596769Y10959575D01*
X-10959575Y9596769D01*
X-10959580Y9596764D01*
X-10963887Y9592456D01*
X-10967271Y9587393D01*
X-10967274Y9587388D01*
X-10990232Y9553028D01*
X-10997015Y9542876D01*
X-10999397Y9530902D01*
X-10999397Y9530901D01*
X-11011927Y9467905D01*
X-11024187Y9433642D01*
X-11045864Y9404414D01*
X-14166286Y6283992D01*
X-14174258Y6276686D01*
X-14194886Y6259377D01*
X-14194888Y6259376D01*
X-14203194Y6252405D01*
X-14208616Y6243016D01*
X-14208620Y6243010D01*
X-14222086Y6219686D01*
X-14227888Y6210579D01*
X-14249554Y6179634D01*
X-14252361Y6169162D01*
X-14253913Y6165832D01*
X-14255169Y6162384D01*
X-14260588Y6152995D01*
X-14262471Y6142319D01*
X-14262472Y6142315D01*
X-14267147Y6115801D01*
X-14269486Y6105253D01*
X-14279264Y6068757D01*
X-14278319Y6057954D01*
X-14278319Y6057951D01*
X-14275972Y6031131D01*
X-14275500Y6020323D01*
X-14275500Y4961065D01*
X-14288289Y4906218D01*
X-14324018Y4862686D01*
X-14355926Y4848231D01*
X-14354970Y4845923D01*
X-14366254Y4841250D01*
X-14378231Y4838867D01*
X-14388382Y4832085D01*
X-14388385Y4832083D01*
X-14434399Y4801337D01*
X-14434402Y4801335D01*
X-14444552Y4794552D01*
X-14451335Y4784402D01*
X-14451337Y4784399D01*
X-14482083Y4738385D01*
X-14482085Y4738382D01*
X-14488867Y4728231D01*
X-14491250Y4716255D01*
X-14491250Y4716253D01*
X-14499311Y4675729D01*
X-14499312Y4675723D01*
X-14500500Y4669748D01*
X-14500500Y4663652D01*
X-14500500Y3430411D01*
X-14513616Y3374907D01*
X-14550189Y3331144D01*
X-14575093Y3312502D01*
X-14587502Y3300093D01*
X-14663038Y3199190D01*
X-14671453Y3183778D01*
X-14715889Y3064642D01*
X-14719426Y3049670D01*
X-14724647Y3001115D01*
X-14725000Y2994518D01*
X-14725000Y2466326D01*
X-16815657Y2466326D01*
X-16790903Y2634389D01*
X-16790550Y2636625D01*
X-16718435Y3065113D01*
X-16717834Y3068402D01*
X-16644563Y3439395D01*
X-16644108Y3441588D01*
X-16551599Y3866484D01*
X-16550798Y3869916D01*
X-16459630Y4236520D01*
X-16459138Y4238424D01*
X-16346344Y4659009D01*
X-16345375Y4662416D01*
X-16236603Y5023640D01*
X-16236086Y5025302D01*
X-16103201Y5440634D01*
X-16101993Y5444218D01*
X-15976045Y5798878D01*
X-15975443Y5800529D01*
X-15822671Y6209755D01*
X-15821239Y6213407D01*
X-15678479Y6560729D01*
X-15677960Y6561966D01*
X-15505430Y6964486D01*
X-15503740Y6968247D01*
X-15344809Y7306958D01*
X-15344212Y7308209D01*
X-15152200Y7703104D01*
X-15150299Y7706845D01*
X-14975675Y8036232D01*
X-14975121Y8037261D01*
X-14763797Y8423888D01*
X-14761696Y8427574D01*
X-14572136Y8746535D01*
X-14571569Y8747476D01*
X-14341132Y9125144D01*
X-14338761Y9128871D01*
X-14135086Y9436402D01*
X-14134755Y9436897D01*
X-13885217Y9805195D01*
X-13882541Y9808988D01*
X-13665763Y10103993D01*
X-13665530Y10104308D01*
X-13397063Y10462538D01*
X-13394082Y10466355D01*
X-13336437Y10537281D01*
X-13165544Y10747548D01*
X-13165343Y10747794D01*
X-12877734Y11095721D01*
X-12874596Y11099364D01*
X-12635823Y11365525D01*
X-12328583Y11703083D01*
X-12325111Y11706742D01*
X-12078529Y11956021D01*
X-11750759Y12283363D01*
X-11747070Y12286893D01*
X-11495838Y12517255D01*
X-11145683Y12835124D01*
X-11141695Y12838588D01*
X-10891763Y13046275D01*
X-10514726Y13357118D01*
X-10510456Y13360481D01*
X-10273087Y13538913D01*
X-10272927Y13539032D01*
X-10117149Y13655460D01*
X-9859361Y13848127D01*
X-9854826Y13851357D01*
X-9663451Y13981120D01*
X-9182033Y14306383D01*
X-9177118Y14309536D01*
X-8596737Y14662618D01*
X-8534154Y14680667D01*
X-8471056Y14664506D01*
G37*
%TD.AperFunction*%
%TD*%
M02*
