%TF.GenerationSoftware,KiCad,Pcbnew,(6.0.7)*%
%TF.CreationDate,2022-08-13T19:12:00+02:00*%
%TF.ProjectId,Helios_PCB,48656c69-6f73-45f5-9043-422e6b696361,rev?*%
%TF.SameCoordinates,Original*%
%TF.FileFunction,Copper,L1,Top*%
%TF.FilePolarity,Positive*%
%FSLAX46Y46*%
G04 Gerber Fmt 4.6, Leading zero omitted, Abs format (unit mm)*
G04 Created by KiCad (PCBNEW (6.0.7)) date 2022-08-13 19:12:00*
%MOMM*%
%LPD*%
G01*
G04 APERTURE LIST*
G04 Aperture macros list*
%AMRotRect*
0 Rectangle, with rotation*
0 The origin of the aperture is its center*
0 $1 length*
0 $2 width*
0 $3 Rotation angle, in degrees counterclockwise*
0 Add horizontal line*
21,1,$1,$2,0,0,$3*%
G04 Aperture macros list end*
%TA.AperFunction,SMDPad,CuDef*%
%ADD10RotRect,0.700000X1.300000X225.000000*%
%TD*%
%TA.AperFunction,ComponentPad*%
%ADD11R,1.350000X1.350000*%
%TD*%
%TA.AperFunction,ComponentPad*%
%ADD12O,1.350000X1.350000*%
%TD*%
%TA.AperFunction,SMDPad,CuDef*%
%ADD13RotRect,1.900000X0.400000X225.000000*%
%TD*%
%TA.AperFunction,SMDPad,CuDef*%
%ADD14RotRect,0.700000X1.300000X135.000000*%
%TD*%
%TA.AperFunction,SMDPad,CuDef*%
%ADD15RotRect,1.900000X0.400000X315.000000*%
%TD*%
%TA.AperFunction,SMDPad,CuDef*%
%ADD16R,0.500000X1.500000*%
%TD*%
%TA.AperFunction,ViaPad*%
%ADD17C,0.800000*%
%TD*%
%TA.AperFunction,Conductor*%
%ADD18C,0.250000*%
%TD*%
%TA.AperFunction,Conductor*%
%ADD19C,0.600000*%
%TD*%
G04 APERTURE END LIST*
D10*
%TO.P,R1,1*%
%TO.N,O1*%
X145959251Y-104828249D03*
%TO.P,R1,2*%
%TO.N,Net-(F1-Pad1)*%
X144615749Y-106171751D03*
%TD*%
D11*
%TO.P,J0,1,Pin_1*%
%TO.N,GND*%
X153837500Y-95500000D03*
D12*
%TO.P,J0,2,Pin_2*%
%TO.N,LED*%
X153837500Y-97500000D03*
%TO.P,J0,3,Pin_3*%
%TO.N,VCC*%
X153837500Y-99500000D03*
%TO.P,J0,4,Pin_4*%
%TO.N,O0*%
X153837500Y-101500000D03*
%TO.P,J0,5,Pin_5*%
%TO.N,O1*%
X153837500Y-103500000D03*
%TD*%
D13*
%TO.P,F0,1,K*%
%TO.N,Net-(F0-Pad1)*%
X148307475Y-90269975D03*
%TO.P,F0,2,A*%
%TO.N,GND*%
X147317525Y-89280025D03*
%TD*%
D14*
%TO.P,R0,1*%
%TO.N,O0*%
X145959251Y-94171751D03*
%TO.P,R0,2*%
%TO.N,Net-(F0-Pad1)*%
X144615749Y-92828249D03*
%TD*%
D15*
%TO.P,F1,1,K*%
%TO.N,Net-(F1-Pad1)*%
X148307475Y-108730025D03*
%TO.P,F1,2,A*%
%TO.N,GND*%
X147317525Y-109719975D03*
%TD*%
D16*
%TO.P,U0,1,OA*%
%TO.N,O0*%
X144762500Y-97300000D03*
%TO.P,U0,2,-IA*%
%TO.N,Net-(F0-Pad1)*%
X144112500Y-97300000D03*
%TO.P,U0,3,+IA*%
%TO.N,GND*%
X143462500Y-97300000D03*
%TO.P,U0,4,GND*%
X142812500Y-97300000D03*
%TO.P,U0,5,+IB*%
X142812500Y-101700000D03*
%TO.P,U0,6,-IB*%
%TO.N,Net-(F1-Pad1)*%
X143462500Y-101700000D03*
%TO.P,U0,7,OB*%
%TO.N,O1*%
X144112500Y-101700000D03*
%TO.P,U0,8,VCC*%
%TO.N,VCC*%
X144762500Y-101700000D03*
%TD*%
D17*
%TO.N,GND*%
X152000000Y-98400000D03*
%TO.N,VCC*%
X146600000Y-95000000D03*
X146000000Y-101800000D03*
%TD*%
D18*
%TO.N,Net-(F0-Pad1)*%
X147174023Y-90269975D02*
X144615749Y-92828249D01*
X148307475Y-90269975D02*
X147174023Y-90269975D01*
X144112500Y-93331498D02*
X144112500Y-97300000D01*
X144615749Y-92828249D02*
X144112500Y-93331498D01*
%TO.N,Net-(F1-Pad1)*%
X147174023Y-108730025D02*
X144615749Y-106171751D01*
X143462500Y-105018502D02*
X143462500Y-101700000D01*
X148307475Y-108730025D02*
X147174023Y-108730025D01*
X144615749Y-106171751D02*
X143462500Y-105018502D01*
D19*
%TO.N,VCC*%
X144862500Y-101800000D02*
X144862500Y-101700000D01*
X151100000Y-99500000D02*
X153837500Y-99500000D01*
X146000000Y-101800000D02*
X144862500Y-101800000D01*
X146600000Y-95000000D02*
X151100000Y-99500000D01*
D18*
%TO.N,O0*%
X147962500Y-101500000D02*
X153837500Y-101500000D01*
X145959251Y-94171751D02*
X144762500Y-95368502D01*
X144762500Y-97300000D02*
X144762500Y-98300000D01*
X144762500Y-95368502D02*
X144762500Y-97300000D01*
X144762500Y-98300000D02*
X147962500Y-101500000D01*
%TO.N,O1*%
X145959251Y-104828249D02*
X144112500Y-102981498D01*
X145959251Y-104828249D02*
X147287500Y-103500000D01*
X147287500Y-103500000D02*
X153837500Y-103500000D01*
X144112500Y-102981498D02*
X144112500Y-101700000D01*
%TD*%
%TA.AperFunction,Conductor*%
%TO.N,GND*%
G36*
X148679320Y-84959095D02*
G01*
X148700541Y-84984729D01*
X151944127Y-90615568D01*
X151956789Y-90675429D01*
X151931848Y-90731300D01*
X151909999Y-90749438D01*
X151841815Y-90791143D01*
X151841791Y-90791159D01*
X151840628Y-90791870D01*
X151839509Y-90792643D01*
X151839493Y-90792654D01*
X151551977Y-90991425D01*
X151364328Y-91121154D01*
X151363251Y-91121991D01*
X151363235Y-91122003D01*
X150954372Y-91439862D01*
X150907180Y-91476550D01*
X150470615Y-91856947D01*
X150055998Y-92261155D01*
X150055085Y-92262151D01*
X150055070Y-92262166D01*
X149781495Y-92560474D01*
X149664627Y-92687908D01*
X149663749Y-92688980D01*
X149354502Y-93066552D01*
X149297724Y-93135874D01*
X149296917Y-93136981D01*
X149296914Y-93136984D01*
X149175321Y-93303643D01*
X148956438Y-93603650D01*
X148955690Y-93604806D01*
X148955683Y-93604816D01*
X148759232Y-93908373D01*
X148661099Y-94060009D01*
X148660988Y-94059937D01*
X148660822Y-94060286D01*
X148659450Y-94061658D01*
X148657296Y-94065886D01*
X148649143Y-94078484D01*
X148648652Y-94079144D01*
X148648381Y-94079590D01*
X148647269Y-94081362D01*
X148647248Y-94081412D01*
X148645670Y-94083850D01*
X148641050Y-94089296D01*
X148638094Y-94096501D01*
X148638092Y-94096504D01*
X148624742Y-94129044D01*
X148621360Y-94136413D01*
X148605391Y-94167753D01*
X148605390Y-94167756D01*
X148601854Y-94174696D01*
X148600636Y-94182389D01*
X148598339Y-94189458D01*
X148597567Y-94192214D01*
X148595854Y-94199455D01*
X148592895Y-94206667D01*
X148592310Y-94214438D01*
X148592309Y-94214441D01*
X148589668Y-94249513D01*
X148588729Y-94257561D01*
X148582008Y-94300000D01*
X148583226Y-94307694D01*
X148583226Y-94315109D01*
X148583345Y-94318021D01*
X148583952Y-94325407D01*
X148583367Y-94333175D01*
X148585212Y-94340746D01*
X148593537Y-94374917D01*
X148595132Y-94382864D01*
X148601854Y-94425304D01*
X148605391Y-94432247D01*
X148607682Y-94439296D01*
X148608684Y-94441999D01*
X148611554Y-94448862D01*
X148613399Y-94456435D01*
X148635983Y-94493011D01*
X148639933Y-94500037D01*
X148659450Y-94538342D01*
X148664954Y-94543846D01*
X148669311Y-94549843D01*
X148671108Y-94552115D01*
X148675956Y-94557754D01*
X148680049Y-94564382D01*
X148685988Y-94569420D01*
X148685989Y-94569421D01*
X148712812Y-94592174D01*
X148718774Y-94597666D01*
X148749158Y-94628050D01*
X148756099Y-94631587D01*
X148762110Y-94635954D01*
X148764527Y-94637563D01*
X148770859Y-94641414D01*
X148776796Y-94646450D01*
X148784000Y-94649405D01*
X148784002Y-94649407D01*
X148816544Y-94662758D01*
X148823913Y-94666140D01*
X148855253Y-94682109D01*
X148855256Y-94682110D01*
X148862196Y-94685646D01*
X148869889Y-94686864D01*
X148876958Y-94689161D01*
X148879714Y-94689933D01*
X148886955Y-94691646D01*
X148894167Y-94694605D01*
X148901938Y-94695190D01*
X148901941Y-94695191D01*
X148937019Y-94697833D01*
X148945062Y-94698771D01*
X148955981Y-94700500D01*
X148968721Y-94700500D01*
X148976156Y-94700780D01*
X149012904Y-94703548D01*
X149012906Y-94703548D01*
X149020675Y-94704133D01*
X149028245Y-94702289D01*
X149036011Y-94701651D01*
X149036029Y-94701874D01*
X149047471Y-94700500D01*
X152555500Y-94700500D01*
X152613691Y-94719407D01*
X152649655Y-94768907D01*
X152654500Y-94799500D01*
X152654500Y-95230320D01*
X152658622Y-95243005D01*
X152662743Y-95246000D01*
X153992500Y-95246000D01*
X154050691Y-95264907D01*
X154086655Y-95314407D01*
X154091500Y-95345000D01*
X154091500Y-95655000D01*
X154072593Y-95713191D01*
X154023093Y-95749155D01*
X153992500Y-95754000D01*
X152670181Y-95754000D01*
X152657496Y-95758122D01*
X152654501Y-95762243D01*
X152654501Y-96220411D01*
X152654790Y-96225751D01*
X152660578Y-96279035D01*
X152663427Y-96291020D01*
X152709851Y-96414855D01*
X152716559Y-96427108D01*
X152795363Y-96532256D01*
X152805244Y-96542137D01*
X152910392Y-96620941D01*
X152922643Y-96627648D01*
X152975568Y-96647489D01*
X153023418Y-96685620D01*
X153039717Y-96744595D01*
X153018561Y-96801478D01*
X152931645Y-96911731D01*
X152839610Y-97086661D01*
X152838265Y-97090992D01*
X152838264Y-97090995D01*
X152814103Y-97168808D01*
X152780995Y-97275433D01*
X152757762Y-97471726D01*
X152770690Y-97668966D01*
X152819345Y-97860547D01*
X152902099Y-98040054D01*
X153016179Y-98201474D01*
X153157766Y-98339402D01*
X153161541Y-98341924D01*
X153161543Y-98341926D01*
X153275470Y-98418049D01*
X153313350Y-98466099D01*
X153315752Y-98527237D01*
X153281759Y-98578111D01*
X153271098Y-98585439D01*
X153202628Y-98626174D01*
X153199213Y-98629168D01*
X153199210Y-98629171D01*
X153091286Y-98723819D01*
X153054017Y-98756503D01*
X153049847Y-98761792D01*
X153049092Y-98762297D01*
X153048084Y-98763359D01*
X153047844Y-98763131D01*
X152998975Y-98795783D01*
X152972103Y-98799500D01*
X151431164Y-98799500D01*
X151372973Y-98780593D01*
X151361160Y-98770504D01*
X147387345Y-94796688D01*
X147363856Y-94759242D01*
X147336995Y-94682109D01*
X147326485Y-94651927D01*
X147282058Y-94580829D01*
X147234247Y-94504315D01*
X147234245Y-94504313D01*
X147231316Y-94499625D01*
X147104770Y-94372193D01*
X147027385Y-94323083D01*
X146988384Y-94275939D01*
X146984542Y-94214875D01*
X147000340Y-94181304D01*
X147023072Y-94150017D01*
X147023075Y-94150012D01*
X147027654Y-94143709D01*
X147031199Y-94132800D01*
X147035615Y-94119208D01*
X147066857Y-94023052D01*
X147066857Y-93896186D01*
X147027654Y-93775529D01*
X146971841Y-93698710D01*
X146432292Y-93159162D01*
X146355473Y-93103348D01*
X146234816Y-93064145D01*
X146107950Y-93064145D01*
X145987293Y-93103348D01*
X145980988Y-93107929D01*
X145980986Y-93107930D01*
X145913623Y-93156873D01*
X145910474Y-93159161D01*
X144946662Y-94122974D01*
X144890848Y-94199793D01*
X144851645Y-94320450D01*
X144851645Y-94447316D01*
X144854692Y-94456694D01*
X144854692Y-94458764D01*
X144855271Y-94462420D01*
X144854692Y-94462512D01*
X144854693Y-94517877D01*
X144830542Y-94557291D01*
X144807004Y-94580829D01*
X144752487Y-94608606D01*
X144692055Y-94599035D01*
X144648790Y-94555770D01*
X144638000Y-94510825D01*
X144638000Y-93908373D01*
X144656907Y-93850182D01*
X144666996Y-93838369D01*
X145625595Y-92879769D01*
X145628338Y-92877026D01*
X145684152Y-92800207D01*
X145723355Y-92679550D01*
X145723355Y-92552684D01*
X145720308Y-92543306D01*
X145720308Y-92541236D01*
X145719729Y-92537580D01*
X145720308Y-92537488D01*
X145720307Y-92482123D01*
X145744458Y-92442709D01*
X147087383Y-91099784D01*
X147141900Y-91072007D01*
X147202332Y-91081578D01*
X147227384Y-91099779D01*
X147516236Y-91388630D01*
X147593055Y-91444444D01*
X147713712Y-91483647D01*
X147840578Y-91483647D01*
X147961235Y-91444444D01*
X147967540Y-91439863D01*
X147967542Y-91439862D01*
X148034905Y-91390919D01*
X148034909Y-91390916D01*
X148038054Y-91388631D01*
X149426130Y-90000554D01*
X149481944Y-89923735D01*
X149521147Y-89803078D01*
X149521147Y-89676212D01*
X149481944Y-89555555D01*
X149477362Y-89549248D01*
X149428418Y-89481883D01*
X149428414Y-89481879D01*
X149426131Y-89478736D01*
X149098714Y-89151320D01*
X149021895Y-89095506D01*
X148901238Y-89056303D01*
X148774372Y-89056303D01*
X148766966Y-89058709D01*
X148766962Y-89058710D01*
X148724107Y-89072634D01*
X148662922Y-89072633D01*
X148613423Y-89036669D01*
X148594516Y-88978478D01*
X148603394Y-88937504D01*
X148620371Y-88900166D01*
X148624293Y-88886753D01*
X148642922Y-88756677D01*
X148642922Y-88742713D01*
X148624293Y-88612637D01*
X148620370Y-88599224D01*
X148565635Y-88478837D01*
X148559176Y-88468347D01*
X148525584Y-88426568D01*
X148522027Y-88422604D01*
X148500994Y-88401572D01*
X148489110Y-88395517D01*
X148484078Y-88396314D01*
X147317525Y-89562868D01*
X147162857Y-89717536D01*
X147115460Y-89743915D01*
X147082688Y-89751602D01*
X147073520Y-89753301D01*
X147038063Y-89758158D01*
X147038062Y-89758158D01*
X147031377Y-89759074D01*
X147025182Y-89761755D01*
X147025181Y-89761755D01*
X147016461Y-89765528D01*
X146999755Y-89771053D01*
X146983930Y-89774765D01*
X146978015Y-89778017D01*
X146946645Y-89795262D01*
X146938271Y-89799364D01*
X146905437Y-89813573D01*
X146905436Y-89813574D01*
X146899240Y-89816255D01*
X146893994Y-89820503D01*
X146886609Y-89826483D01*
X146872008Y-89836295D01*
X146857760Y-89844128D01*
X146853837Y-89847514D01*
X146853834Y-89847516D01*
X146851389Y-89849626D01*
X146851378Y-89849636D01*
X146850018Y-89850810D01*
X146825803Y-89875025D01*
X146818102Y-89881959D01*
X146787348Y-89906863D01*
X146783438Y-89912365D01*
X146783437Y-89912366D01*
X146775914Y-89922952D01*
X146765221Y-89935607D01*
X145001289Y-91699539D01*
X144946772Y-91727316D01*
X144906440Y-91724143D01*
X144906420Y-91724269D01*
X144904818Y-91724015D01*
X144900696Y-91723691D01*
X144898723Y-91723050D01*
X144898721Y-91723050D01*
X144891314Y-91720643D01*
X144764448Y-91720643D01*
X144643791Y-91759846D01*
X144637486Y-91764427D01*
X144637484Y-91764428D01*
X144570121Y-91813371D01*
X144566972Y-91815659D01*
X143603160Y-92779472D01*
X143547346Y-92856291D01*
X143508143Y-92976948D01*
X143508143Y-93103814D01*
X143547346Y-93224471D01*
X143551927Y-93230776D01*
X143551928Y-93230778D01*
X143566920Y-93251412D01*
X143585828Y-93309602D01*
X143585286Y-93319949D01*
X143582321Y-93348160D01*
X143583446Y-93354810D01*
X143585614Y-93367629D01*
X143587000Y-93384139D01*
X143587000Y-96218100D01*
X143568093Y-96276291D01*
X143558004Y-96288104D01*
X143534450Y-96311658D01*
X143530915Y-96318595D01*
X143530914Y-96318597D01*
X143488300Y-96402232D01*
X143476854Y-96424696D01*
X143475635Y-96432390D01*
X143475635Y-96432391D01*
X143464201Y-96504586D01*
X143462000Y-96518481D01*
X143462001Y-98081518D01*
X143476854Y-98175304D01*
X143500020Y-98220769D01*
X143521921Y-98263752D01*
X143534450Y-98288342D01*
X143624158Y-98378050D01*
X143658447Y-98395521D01*
X143701710Y-98438784D01*
X143712500Y-98483729D01*
X143712500Y-98542319D01*
X143716622Y-98555004D01*
X143720743Y-98557999D01*
X143757911Y-98557999D01*
X143763251Y-98557710D01*
X143816535Y-98551922D01*
X143828520Y-98549073D01*
X143952355Y-98502649D01*
X143964608Y-98495941D01*
X143998849Y-98470279D01*
X144058220Y-98450500D01*
X144157310Y-98450499D01*
X144186973Y-98450499D01*
X144245164Y-98469406D01*
X144273729Y-98501806D01*
X144287787Y-98527378D01*
X144291889Y-98535752D01*
X144301517Y-98557999D01*
X144308780Y-98574783D01*
X144316495Y-98584310D01*
X144319008Y-98587414D01*
X144328820Y-98602015D01*
X144336653Y-98616263D01*
X144343336Y-98624005D01*
X144367550Y-98648219D01*
X144374477Y-98655912D01*
X144399388Y-98686675D01*
X144404893Y-98690587D01*
X144404895Y-98690589D01*
X144415482Y-98698113D01*
X144428138Y-98708807D01*
X147581113Y-101861783D01*
X147583983Y-101864776D01*
X147624384Y-101908712D01*
X147630124Y-101912271D01*
X147660540Y-101931131D01*
X147668223Y-101936411D01*
X147702104Y-101962127D01*
X147708383Y-101964613D01*
X147717214Y-101968110D01*
X147732933Y-101976015D01*
X147746750Y-101984582D01*
X147753228Y-101986464D01*
X147753230Y-101986465D01*
X147771864Y-101991879D01*
X147787614Y-101996455D01*
X147796420Y-101999470D01*
X147835972Y-102015129D01*
X147842685Y-102015835D01*
X147842691Y-102015836D01*
X147852135Y-102016829D01*
X147869404Y-102020217D01*
X147880029Y-102023304D01*
X147880035Y-102023305D01*
X147885012Y-102024751D01*
X147890182Y-102025131D01*
X147890184Y-102025131D01*
X147893411Y-102025368D01*
X147893418Y-102025368D01*
X147895212Y-102025500D01*
X147929453Y-102025500D01*
X147939799Y-102026042D01*
X147979161Y-102030179D01*
X147998631Y-102026886D01*
X148015140Y-102025500D01*
X152840551Y-102025500D01*
X152898742Y-102044407D01*
X152921399Y-102067363D01*
X153016179Y-102201474D01*
X153157766Y-102339402D01*
X153161541Y-102341924D01*
X153161543Y-102341926D01*
X153275470Y-102418049D01*
X153313350Y-102466099D01*
X153315752Y-102527237D01*
X153281759Y-102578111D01*
X153271098Y-102585439D01*
X153202628Y-102626174D01*
X153199213Y-102629168D01*
X153199210Y-102629171D01*
X153131739Y-102688342D01*
X153054017Y-102756503D01*
X153051205Y-102760070D01*
X152934458Y-102908162D01*
X152934455Y-102908166D01*
X152931645Y-102911731D01*
X152929532Y-102915748D01*
X152926454Y-102921598D01*
X152882625Y-102964291D01*
X152838841Y-102974500D01*
X147301377Y-102974500D01*
X147297231Y-102974413D01*
X147237581Y-102971913D01*
X147231009Y-102973454D01*
X147231003Y-102973455D01*
X147196167Y-102981626D01*
X147186997Y-102983326D01*
X147151540Y-102988183D01*
X147151539Y-102988183D01*
X147144854Y-102989099D01*
X147138659Y-102991780D01*
X147138658Y-102991780D01*
X147129938Y-102995553D01*
X147113232Y-103001078D01*
X147097407Y-103004790D01*
X147091492Y-103008042D01*
X147060122Y-103025287D01*
X147051748Y-103029389D01*
X147018914Y-103043598D01*
X147018913Y-103043599D01*
X147012717Y-103046280D01*
X147007471Y-103050528D01*
X147000086Y-103056508D01*
X146985485Y-103066320D01*
X146971237Y-103074153D01*
X146967314Y-103077539D01*
X146967311Y-103077541D01*
X146964866Y-103079651D01*
X146964855Y-103079661D01*
X146963495Y-103080835D01*
X146939280Y-103105050D01*
X146931579Y-103111984D01*
X146900825Y-103136888D01*
X146896915Y-103142390D01*
X146896914Y-103142391D01*
X146889391Y-103152977D01*
X146878698Y-103165632D01*
X146188353Y-103855977D01*
X146133836Y-103883754D01*
X146073404Y-103874183D01*
X146048345Y-103855977D01*
X146008028Y-103815660D01*
X145931209Y-103759846D01*
X145810552Y-103720643D01*
X145683686Y-103720643D01*
X145674308Y-103723690D01*
X145672238Y-103723690D01*
X145668582Y-103724269D01*
X145668490Y-103723690D01*
X145613125Y-103723691D01*
X145573711Y-103699540D01*
X144893674Y-103019503D01*
X144865897Y-102964986D01*
X144875468Y-102904554D01*
X144918733Y-102861289D01*
X144963677Y-102850499D01*
X145044018Y-102850499D01*
X145047861Y-102849890D01*
X145047866Y-102849890D01*
X145084717Y-102844053D01*
X145137804Y-102835646D01*
X145194323Y-102806848D01*
X145243903Y-102781586D01*
X145243905Y-102781585D01*
X145250842Y-102778050D01*
X145340550Y-102688342D01*
X145398146Y-102575304D01*
X145399219Y-102568527D01*
X145434904Y-102519409D01*
X145493097Y-102500500D01*
X145578949Y-102500500D01*
X145626611Y-102514708D01*
X145627216Y-102513510D01*
X145632163Y-102516009D01*
X145636789Y-102519036D01*
X145805116Y-102581636D01*
X145810602Y-102582368D01*
X145810606Y-102582369D01*
X145942516Y-102599969D01*
X145983130Y-102605388D01*
X145988636Y-102604887D01*
X145988638Y-102604887D01*
X146072555Y-102597250D01*
X146161981Y-102589112D01*
X146183103Y-102582249D01*
X146327517Y-102535326D01*
X146327519Y-102535325D01*
X146332782Y-102533615D01*
X146337538Y-102530780D01*
X146337540Y-102530779D01*
X146474362Y-102449217D01*
X146487044Y-102441657D01*
X146617099Y-102317807D01*
X146716483Y-102168222D01*
X146780257Y-102000336D01*
X146804029Y-101831189D01*
X146804818Y-101825575D01*
X146804818Y-101825573D01*
X146805251Y-101822493D01*
X146805565Y-101800000D01*
X146785546Y-101621528D01*
X146726485Y-101451927D01*
X146631316Y-101299625D01*
X146504770Y-101172193D01*
X146500095Y-101169226D01*
X146357810Y-101078929D01*
X146357809Y-101078928D01*
X146353136Y-101075963D01*
X146301379Y-101057533D01*
X146189160Y-101017574D01*
X146189161Y-101017574D01*
X146183951Y-101015719D01*
X146178464Y-101015065D01*
X146178461Y-101015064D01*
X146011120Y-100995110D01*
X146011117Y-100995110D01*
X146005624Y-100994455D01*
X145827017Y-101013227D01*
X145821777Y-101015011D01*
X145821776Y-101015011D01*
X145662250Y-101069318D01*
X145657007Y-101071103D01*
X145634707Y-101084822D01*
X145582835Y-101099500D01*
X145511999Y-101099500D01*
X145453808Y-101080593D01*
X145417844Y-101031093D01*
X145412999Y-101000500D01*
X145412999Y-100918482D01*
X145410799Y-100904586D01*
X145406553Y-100877783D01*
X145398146Y-100824696D01*
X145340550Y-100711658D01*
X145250842Y-100621950D01*
X145243905Y-100618415D01*
X145243903Y-100618414D01*
X145144744Y-100567890D01*
X145144743Y-100567890D01*
X145137804Y-100564354D01*
X145130110Y-100563135D01*
X145130109Y-100563135D01*
X145047865Y-100550109D01*
X145047863Y-100550109D01*
X145044019Y-100549500D01*
X144762537Y-100549500D01*
X144480982Y-100549501D01*
X144472418Y-100550857D01*
X144452988Y-100553934D01*
X144422017Y-100553934D01*
X144397868Y-100550109D01*
X144397860Y-100550108D01*
X144394019Y-100549500D01*
X144112537Y-100549500D01*
X143830982Y-100549501D01*
X143822418Y-100550857D01*
X143802988Y-100553934D01*
X143772017Y-100553934D01*
X143747868Y-100550109D01*
X143747860Y-100550108D01*
X143744019Y-100549500D01*
X143734536Y-100549500D01*
X143408220Y-100549501D01*
X143348848Y-100529721D01*
X143314607Y-100504059D01*
X143302357Y-100497352D01*
X143178522Y-100450928D01*
X143166533Y-100448077D01*
X143113248Y-100442289D01*
X143107914Y-100442000D01*
X143078180Y-100442000D01*
X143065495Y-100446122D01*
X143062500Y-100450243D01*
X143062500Y-100516271D01*
X143043593Y-100574462D01*
X143008448Y-100604478D01*
X142974158Y-100621950D01*
X142884450Y-100711658D01*
X142880915Y-100718595D01*
X142880914Y-100718597D01*
X142852517Y-100774330D01*
X142826854Y-100824696D01*
X142825635Y-100832390D01*
X142825635Y-100832391D01*
X142814201Y-100904586D01*
X142812000Y-100918481D01*
X142812001Y-102481518D01*
X142812610Y-102485361D01*
X142812610Y-102485366D01*
X142817068Y-102513510D01*
X142826854Y-102575304D01*
X142884450Y-102688342D01*
X142908004Y-102711896D01*
X142935781Y-102766413D01*
X142937000Y-102781900D01*
X142937000Y-105004625D01*
X142936913Y-105008771D01*
X142934413Y-105068421D01*
X142935954Y-105074993D01*
X142935955Y-105074999D01*
X142944126Y-105109835D01*
X142945826Y-105119005D01*
X142951599Y-105161148D01*
X142954280Y-105167343D01*
X142954280Y-105167344D01*
X142958053Y-105176064D01*
X142963578Y-105192770D01*
X142967290Y-105208595D01*
X142970542Y-105214510D01*
X142987787Y-105245880D01*
X142991889Y-105254254D01*
X143008780Y-105293285D01*
X143013028Y-105298531D01*
X143019008Y-105305916D01*
X143028820Y-105320517D01*
X143036653Y-105334765D01*
X143043336Y-105342507D01*
X143067550Y-105366721D01*
X143074477Y-105374414D01*
X143099388Y-105405177D01*
X143114825Y-105416147D01*
X143115487Y-105416618D01*
X143128135Y-105427306D01*
X143487042Y-105786214D01*
X143514817Y-105840727D01*
X143511642Y-105881060D01*
X143511769Y-105881080D01*
X143511514Y-105882688D01*
X143511190Y-105886808D01*
X143508143Y-105896186D01*
X143508143Y-106023052D01*
X143547346Y-106143709D01*
X143551927Y-106150014D01*
X143551928Y-106150016D01*
X143588094Y-106199793D01*
X143603159Y-106220528D01*
X144566972Y-107184340D01*
X144643791Y-107240154D01*
X144764448Y-107279357D01*
X144891314Y-107279357D01*
X144900692Y-107276310D01*
X144902762Y-107276310D01*
X144906418Y-107275731D01*
X144906510Y-107276310D01*
X144961875Y-107276309D01*
X145001289Y-107300460D01*
X146792624Y-109091795D01*
X146795494Y-109094788D01*
X146835907Y-109138737D01*
X146841644Y-109142294D01*
X146841645Y-109142295D01*
X146872058Y-109161152D01*
X146879744Y-109166434D01*
X146913628Y-109192153D01*
X146919900Y-109194636D01*
X146919903Y-109194638D01*
X146928741Y-109198137D01*
X146944460Y-109206043D01*
X146949442Y-109209132D01*
X146958273Y-109214607D01*
X146995446Y-109225407D01*
X146999119Y-109226474D01*
X147007944Y-109229495D01*
X147047496Y-109245155D01*
X147063654Y-109246853D01*
X147080933Y-109250243D01*
X147091550Y-109253328D01*
X147091553Y-109253329D01*
X147096535Y-109254776D01*
X147101712Y-109255156D01*
X147106814Y-109256074D01*
X147106607Y-109257222D01*
X147158155Y-109278255D01*
X147164264Y-109283871D01*
X147317525Y-109437132D01*
X148478821Y-110598429D01*
X148490704Y-110604483D01*
X148495735Y-110603687D01*
X148522025Y-110577397D01*
X148525584Y-110573430D01*
X148559176Y-110531652D01*
X148565635Y-110521165D01*
X148620370Y-110400776D01*
X148624293Y-110387363D01*
X148642922Y-110257287D01*
X148642922Y-110243323D01*
X148624293Y-110113247D01*
X148620371Y-110099834D01*
X148603394Y-110062496D01*
X148596521Y-110001698D01*
X148626697Y-109948472D01*
X148682395Y-109923148D01*
X148724107Y-109927366D01*
X148766962Y-109941290D01*
X148766966Y-109941291D01*
X148774372Y-109943697D01*
X148901238Y-109943697D01*
X149021895Y-109904494D01*
X149028200Y-109899913D01*
X149028202Y-109899912D01*
X149095567Y-109850968D01*
X149095571Y-109850964D01*
X149098714Y-109848681D01*
X149426130Y-109521264D01*
X149481944Y-109444445D01*
X149521147Y-109323788D01*
X149521147Y-109196922D01*
X149481944Y-109076265D01*
X149458796Y-109044404D01*
X149428419Y-109002595D01*
X149428418Y-109002594D01*
X149426131Y-108999446D01*
X148038054Y-107611370D01*
X147961235Y-107555556D01*
X147840578Y-107516353D01*
X147713712Y-107516353D01*
X147593055Y-107555556D01*
X147586750Y-107560137D01*
X147586748Y-107560138D01*
X147519383Y-107609082D01*
X147519379Y-107609086D01*
X147516236Y-107611369D01*
X147329224Y-107798382D01*
X147227391Y-107900215D01*
X147172874Y-107927992D01*
X147112442Y-107918421D01*
X147087383Y-107900215D01*
X145744459Y-106557291D01*
X145716682Y-106502774D01*
X145719855Y-106462442D01*
X145719729Y-106462422D01*
X145719983Y-106460820D01*
X145720307Y-106456698D01*
X145720948Y-106454725D01*
X145720948Y-106454723D01*
X145723355Y-106447316D01*
X145723355Y-106320450D01*
X145684152Y-106199793D01*
X145647987Y-106150016D01*
X145630627Y-106126123D01*
X145630626Y-106126122D01*
X145628339Y-106122974D01*
X144664526Y-105159162D01*
X144587707Y-105103348D01*
X144467050Y-105064145D01*
X144340184Y-105064145D01*
X144330806Y-105067192D01*
X144328736Y-105067192D01*
X144325080Y-105067771D01*
X144324988Y-105067192D01*
X144269623Y-105067193D01*
X144230209Y-105043042D01*
X144016996Y-104829829D01*
X143989219Y-104775312D01*
X143988000Y-104759825D01*
X143988000Y-103839175D01*
X144006907Y-103780984D01*
X144056407Y-103745020D01*
X144117593Y-103745020D01*
X144157004Y-103769171D01*
X144830542Y-104442709D01*
X144858319Y-104497226D01*
X144855144Y-104537560D01*
X144855271Y-104537580D01*
X144855016Y-104539189D01*
X144854692Y-104543305D01*
X144851645Y-104552684D01*
X144851645Y-104679550D01*
X144890848Y-104800207D01*
X144895429Y-104806512D01*
X144895430Y-104806514D01*
X144931596Y-104856291D01*
X144946661Y-104877026D01*
X145910474Y-105840838D01*
X145987293Y-105896652D01*
X146107950Y-105935855D01*
X146234816Y-105935855D01*
X146355473Y-105896652D01*
X146361778Y-105892071D01*
X146361780Y-105892070D01*
X146429143Y-105843127D01*
X146429144Y-105843126D01*
X146432292Y-105840839D01*
X146971840Y-105301290D01*
X147027654Y-105224471D01*
X147030891Y-105214510D01*
X147064450Y-105111221D01*
X147066857Y-105103814D01*
X147066857Y-104976948D01*
X147027654Y-104856291D01*
X147005141Y-104825304D01*
X146974129Y-104782621D01*
X146974128Y-104782620D01*
X146971841Y-104779472D01*
X146931523Y-104739154D01*
X146903746Y-104684637D01*
X146913317Y-104624205D01*
X146931523Y-104599146D01*
X147476173Y-104054496D01*
X147530690Y-104026719D01*
X147546177Y-104025500D01*
X152840551Y-104025500D01*
X152898742Y-104044407D01*
X152921399Y-104067363D01*
X152975110Y-104143363D01*
X152993254Y-104201796D01*
X152973586Y-104259734D01*
X152923619Y-104295047D01*
X152894262Y-104299500D01*
X149046767Y-104299500D01*
X149034901Y-104298092D01*
X149034891Y-104298215D01*
X149027121Y-104297599D01*
X149019546Y-104295776D01*
X149011776Y-104296383D01*
X149011775Y-104296383D01*
X148975731Y-104299199D01*
X148968020Y-104299500D01*
X148955981Y-104299500D01*
X148944361Y-104301341D01*
X148936597Y-104302256D01*
X148914937Y-104303949D01*
X148900835Y-104305050D01*
X148900834Y-104305050D01*
X148893066Y-104305657D01*
X148885865Y-104308635D01*
X148878289Y-104310449D01*
X148878270Y-104310369D01*
X148877274Y-104310649D01*
X148877300Y-104310728D01*
X148869892Y-104313135D01*
X148862196Y-104314354D01*
X148855255Y-104317891D01*
X148855254Y-104317891D01*
X148823289Y-104334178D01*
X148816178Y-104337453D01*
X148783034Y-104351160D01*
X148783032Y-104351161D01*
X148775829Y-104354140D01*
X148769899Y-104359199D01*
X148763256Y-104363265D01*
X148763212Y-104363194D01*
X148762354Y-104363767D01*
X148762403Y-104363834D01*
X148756099Y-104368413D01*
X148749158Y-104371950D01*
X148718280Y-104402828D01*
X148712528Y-104408141D01*
X148679312Y-104436477D01*
X148675236Y-104443120D01*
X148670174Y-104449040D01*
X148670111Y-104448986D01*
X148669474Y-104449793D01*
X148669541Y-104449842D01*
X148664959Y-104456149D01*
X148659450Y-104461658D01*
X148647248Y-104485606D01*
X148639631Y-104500555D01*
X148635804Y-104507384D01*
X148612963Y-104544610D01*
X148611141Y-104552180D01*
X148608153Y-104559381D01*
X148608078Y-104559350D01*
X148607720Y-104560319D01*
X148607798Y-104560344D01*
X148605390Y-104567755D01*
X148601854Y-104574696D01*
X148600636Y-104582389D01*
X148595024Y-104617820D01*
X148593494Y-104625499D01*
X148583276Y-104667954D01*
X148583883Y-104675720D01*
X148583267Y-104683490D01*
X148583185Y-104683484D01*
X148583145Y-104684512D01*
X148583227Y-104684512D01*
X148583227Y-104692304D01*
X148582008Y-104700000D01*
X148583227Y-104707696D01*
X148583227Y-104707697D01*
X148588838Y-104743124D01*
X148589756Y-104750900D01*
X148591988Y-104779472D01*
X148593157Y-104794434D01*
X148596135Y-104801635D01*
X148597949Y-104809211D01*
X148597869Y-104809230D01*
X148598149Y-104810226D01*
X148598228Y-104810200D01*
X148600635Y-104817608D01*
X148601854Y-104825304D01*
X148605391Y-104832245D01*
X148605391Y-104832246D01*
X148621678Y-104864211D01*
X148624953Y-104871322D01*
X148638660Y-104904466D01*
X148641640Y-104911671D01*
X148646700Y-104917601D01*
X148648953Y-104921283D01*
X148650365Y-104923174D01*
X148653760Y-104928391D01*
X148653886Y-104928609D01*
X148654035Y-104928815D01*
X148656619Y-104932785D01*
X148659450Y-104938342D01*
X148660331Y-104939223D01*
X148660935Y-104941083D01*
X148661696Y-104940588D01*
X148923221Y-105342507D01*
X148958123Y-105396146D01*
X148958922Y-105397237D01*
X148958929Y-105397247D01*
X148980950Y-105427312D01*
X149300051Y-105862975D01*
X149667263Y-106310187D01*
X150058638Y-106736414D01*
X150472977Y-107140352D01*
X150582121Y-107235573D01*
X150907999Y-107519882D01*
X150908010Y-107519891D01*
X150909014Y-107520767D01*
X151365415Y-107876494D01*
X151840784Y-108206446D01*
X151887106Y-108234938D01*
X151910866Y-108249553D01*
X151950525Y-108296145D01*
X151955224Y-108357149D01*
X151944785Y-108383290D01*
X148700542Y-114015270D01*
X148655113Y-114056255D01*
X148594269Y-114062711D01*
X148563331Y-114050450D01*
X148329057Y-113908035D01*
X148325261Y-113905606D01*
X147682738Y-113473784D01*
X147679055Y-113471186D01*
X147056803Y-113010532D01*
X147053242Y-113007768D01*
X146452627Y-112519289D01*
X146449196Y-112516367D01*
X145871411Y-112001034D01*
X145868117Y-111997958D01*
X145314386Y-111456864D01*
X145311265Y-111453671D01*
X144782739Y-110887937D01*
X144779744Y-110884582D01*
X144335004Y-110362825D01*
X146963347Y-110362825D01*
X146964143Y-110367855D01*
X147520766Y-110924478D01*
X147524732Y-110928036D01*
X147566505Y-110961623D01*
X147576999Y-110968086D01*
X147697384Y-111022821D01*
X147710797Y-111026743D01*
X147840873Y-111045372D01*
X147854837Y-111045372D01*
X147984913Y-111026743D01*
X147998326Y-111022820D01*
X148118713Y-110968085D01*
X148129203Y-110961626D01*
X148170982Y-110928034D01*
X148174946Y-110924477D01*
X148195978Y-110903444D01*
X148202033Y-110891560D01*
X148201236Y-110886528D01*
X147328611Y-110013904D01*
X147316728Y-110007850D01*
X147311696Y-110008646D01*
X146969404Y-110350938D01*
X146963347Y-110362825D01*
X144335004Y-110362825D01*
X144324872Y-110350938D01*
X144277517Y-110295383D01*
X144274672Y-110291887D01*
X143799790Y-109680447D01*
X143797107Y-109676825D01*
X143493497Y-109246853D01*
X143458031Y-109196627D01*
X145992128Y-109196627D01*
X146010757Y-109326703D01*
X146014679Y-109340116D01*
X146069414Y-109460499D01*
X146075878Y-109470996D01*
X146109457Y-109512760D01*
X146113030Y-109516743D01*
X146664387Y-110068099D01*
X146676270Y-110074153D01*
X146681301Y-110073357D01*
X147023594Y-109731063D01*
X147029650Y-109719177D01*
X147028854Y-109714147D01*
X146156229Y-108841521D01*
X146144346Y-108835467D01*
X146139315Y-108836263D01*
X146113025Y-108862553D01*
X146109466Y-108866520D01*
X146075874Y-108908298D01*
X146069415Y-108918785D01*
X146014680Y-109039174D01*
X146010757Y-109052587D01*
X145992128Y-109182663D01*
X145992128Y-109196627D01*
X143458031Y-109196627D01*
X143350541Y-109044400D01*
X143348029Y-109040664D01*
X142930722Y-108388585D01*
X142928384Y-108384743D01*
X142915353Y-108362180D01*
X142541167Y-107714308D01*
X142539004Y-107710356D01*
X142182724Y-107023036D01*
X142180741Y-107018989D01*
X141856102Y-106316137D01*
X141854306Y-106312003D01*
X141562006Y-105595139D01*
X141560399Y-105590928D01*
X141481979Y-105370386D01*
X141301008Y-104861439D01*
X141299598Y-104857164D01*
X141285278Y-104810226D01*
X141073694Y-104116681D01*
X141072480Y-104112352D01*
X141013970Y-103883754D01*
X140880511Y-103362338D01*
X140879493Y-103357949D01*
X140836865Y-103152977D01*
X140721852Y-102599945D01*
X140721043Y-102595560D01*
X140704931Y-102495411D01*
X142054501Y-102495411D01*
X142054790Y-102500751D01*
X142060578Y-102554035D01*
X142063427Y-102566020D01*
X142109851Y-102689855D01*
X142116559Y-102702108D01*
X142195363Y-102807256D01*
X142205244Y-102817137D01*
X142310392Y-102895941D01*
X142322645Y-102902649D01*
X142446478Y-102949072D01*
X142458467Y-102951923D01*
X142511752Y-102957711D01*
X142517086Y-102958000D01*
X142546820Y-102958000D01*
X142559505Y-102953878D01*
X142562500Y-102949757D01*
X142562500Y-101965680D01*
X142558378Y-101952995D01*
X142554257Y-101950000D01*
X142070181Y-101950000D01*
X142057496Y-101954122D01*
X142054501Y-101958243D01*
X142054501Y-102495411D01*
X140704931Y-102495411D01*
X140598069Y-101831187D01*
X140597454Y-101826724D01*
X140552531Y-101434320D01*
X142054500Y-101434320D01*
X142058622Y-101447005D01*
X142062743Y-101450000D01*
X142546820Y-101450000D01*
X142559505Y-101445878D01*
X142562500Y-101441757D01*
X142562500Y-100457681D01*
X142558378Y-100444996D01*
X142554257Y-100442001D01*
X142517089Y-100442001D01*
X142511749Y-100442290D01*
X142458465Y-100448078D01*
X142446480Y-100450927D01*
X142322645Y-100497351D01*
X142310392Y-100504059D01*
X142205244Y-100582863D01*
X142195363Y-100592744D01*
X142116559Y-100697892D01*
X142109851Y-100710145D01*
X142063428Y-100833978D01*
X142060577Y-100845967D01*
X142054789Y-100899252D01*
X142054500Y-100904586D01*
X142054500Y-101434320D01*
X140552531Y-101434320D01*
X140509396Y-101057530D01*
X140508986Y-101053045D01*
X140499760Y-100918481D01*
X140456029Y-100280664D01*
X140455824Y-100276179D01*
X140454523Y-100219407D01*
X140438861Y-99536348D01*
X140440055Y-99518584D01*
X140442992Y-99500064D01*
X140442982Y-99500000D01*
X140442992Y-99499935D01*
X140440032Y-99481270D01*
X140438838Y-99463506D01*
X140454148Y-98795783D01*
X140455799Y-98723802D01*
X140456004Y-98719316D01*
X140457128Y-98702930D01*
X140498780Y-98095411D01*
X142054501Y-98095411D01*
X142054790Y-98100751D01*
X142060578Y-98154035D01*
X142063427Y-98166020D01*
X142109851Y-98289855D01*
X142116559Y-98302108D01*
X142195363Y-98407256D01*
X142205244Y-98417137D01*
X142310392Y-98495941D01*
X142322645Y-98502649D01*
X142446478Y-98549072D01*
X142458467Y-98551923D01*
X142511752Y-98557711D01*
X142517086Y-98558000D01*
X142546820Y-98558000D01*
X142559505Y-98553878D01*
X142562500Y-98549757D01*
X142562500Y-98542319D01*
X143062500Y-98542319D01*
X143066622Y-98555004D01*
X143070743Y-98557999D01*
X143107911Y-98557999D01*
X143113257Y-98557710D01*
X143126807Y-98556238D01*
X143148185Y-98556238D01*
X143161745Y-98557711D01*
X143167086Y-98558000D01*
X143196820Y-98558000D01*
X143209505Y-98553878D01*
X143212500Y-98549757D01*
X143212500Y-97565680D01*
X143208378Y-97552995D01*
X143204257Y-97550000D01*
X143078180Y-97550000D01*
X143065495Y-97554122D01*
X143062500Y-97558243D01*
X143062500Y-98542319D01*
X142562500Y-98542319D01*
X142562500Y-97565680D01*
X142558378Y-97552995D01*
X142554257Y-97550000D01*
X142070181Y-97550000D01*
X142057496Y-97554122D01*
X142054501Y-97558243D01*
X142054501Y-98095411D01*
X140498780Y-98095411D01*
X140508958Y-97946950D01*
X140509368Y-97942464D01*
X140517515Y-97871304D01*
X140597426Y-97173271D01*
X140598041Y-97168808D01*
X140611903Y-97082647D01*
X140619678Y-97034320D01*
X142054500Y-97034320D01*
X142058622Y-97047005D01*
X142062743Y-97050000D01*
X142546820Y-97050000D01*
X142559505Y-97045878D01*
X142562500Y-97041757D01*
X142562500Y-97034320D01*
X143062500Y-97034320D01*
X143066622Y-97047005D01*
X143070743Y-97050000D01*
X143196820Y-97050000D01*
X143209505Y-97045878D01*
X143212500Y-97041757D01*
X143212500Y-96057681D01*
X143208378Y-96044996D01*
X143204257Y-96042001D01*
X143167089Y-96042001D01*
X143161743Y-96042290D01*
X143148193Y-96043762D01*
X143126815Y-96043762D01*
X143113255Y-96042289D01*
X143107914Y-96042000D01*
X143078180Y-96042000D01*
X143065495Y-96046122D01*
X143062500Y-96050243D01*
X143062500Y-97034320D01*
X142562500Y-97034320D01*
X142562500Y-96057681D01*
X142558378Y-96044996D01*
X142554257Y-96042001D01*
X142517089Y-96042001D01*
X142511749Y-96042290D01*
X142458465Y-96048078D01*
X142446480Y-96050927D01*
X142322645Y-96097351D01*
X142310392Y-96104059D01*
X142205244Y-96182863D01*
X142195363Y-96192744D01*
X142116559Y-96297892D01*
X142109851Y-96310145D01*
X142063428Y-96433978D01*
X142060577Y-96445967D01*
X142054789Y-96499252D01*
X142054500Y-96504586D01*
X142054500Y-97034320D01*
X140619678Y-97034320D01*
X140721015Y-96404436D01*
X140721824Y-96400051D01*
X140879466Y-95642045D01*
X140880483Y-95637657D01*
X140884048Y-95623728D01*
X141072450Y-94887657D01*
X141073664Y-94883323D01*
X141104985Y-94780656D01*
X141299579Y-94142799D01*
X141300989Y-94138529D01*
X141301742Y-94136413D01*
X141560373Y-93409063D01*
X141561979Y-93404855D01*
X141854280Y-92687990D01*
X141856076Y-92683856D01*
X142180717Y-91981003D01*
X142182700Y-91976956D01*
X142538980Y-91289636D01*
X142541144Y-91285682D01*
X142664555Y-91072007D01*
X142928367Y-90615240D01*
X142930705Y-90611398D01*
X143216685Y-90164533D01*
X143348012Y-89959324D01*
X143350524Y-89955588D01*
X143430991Y-89841632D01*
X143448146Y-89817337D01*
X145992128Y-89817337D01*
X146010757Y-89947413D01*
X146014680Y-89960826D01*
X146069415Y-90081213D01*
X146075874Y-90091703D01*
X146109466Y-90133482D01*
X146113023Y-90137446D01*
X146134056Y-90158478D01*
X146145940Y-90164533D01*
X146150972Y-90163736D01*
X147023596Y-89291111D01*
X147029650Y-89279228D01*
X147028854Y-89274196D01*
X146686562Y-88931904D01*
X146674675Y-88925847D01*
X146669645Y-88926643D01*
X146113022Y-89483266D01*
X146109464Y-89487232D01*
X146075877Y-89529005D01*
X146069414Y-89539499D01*
X146014679Y-89659884D01*
X146010757Y-89673297D01*
X145992128Y-89803373D01*
X145992128Y-89817337D01*
X143448146Y-89817337D01*
X143797088Y-89323167D01*
X143799771Y-89319545D01*
X144274655Y-88708105D01*
X144277500Y-88704609D01*
X144333621Y-88638770D01*
X146963347Y-88638770D01*
X146964143Y-88643801D01*
X147306437Y-88986094D01*
X147318323Y-88992150D01*
X147323353Y-88991354D01*
X148195979Y-88118729D01*
X148202033Y-88106846D01*
X148201237Y-88101815D01*
X148174947Y-88075525D01*
X148170980Y-88071966D01*
X148129202Y-88038374D01*
X148118715Y-88031915D01*
X147998326Y-87977180D01*
X147984913Y-87973257D01*
X147854837Y-87954628D01*
X147840873Y-87954628D01*
X147710797Y-87973257D01*
X147697384Y-87977179D01*
X147577001Y-88031914D01*
X147566504Y-88038378D01*
X147524740Y-88071957D01*
X147520757Y-88075530D01*
X146969401Y-88626887D01*
X146963347Y-88638770D01*
X144333621Y-88638770D01*
X144540967Y-88395517D01*
X144779734Y-88115403D01*
X144782729Y-88112048D01*
X144851555Y-88038378D01*
X145311237Y-87546338D01*
X145314388Y-87543115D01*
X145868115Y-87002026D01*
X145871410Y-86998950D01*
X145891044Y-86981439D01*
X146449188Y-86483628D01*
X146452618Y-86480707D01*
X147053225Y-85992237D01*
X147056785Y-85989473D01*
X147219735Y-85868842D01*
X147679035Y-85528823D01*
X147682718Y-85526224D01*
X148325283Y-85094377D01*
X148329080Y-85091949D01*
X148563331Y-84949549D01*
X148622876Y-84935479D01*
X148679320Y-84959095D01*
G37*
%TD.AperFunction*%
%TD*%
M02*
