%TF.GenerationSoftware,KiCad,Pcbnew,(6.0.7)*%
%TF.CreationDate,2022-08-13T19:12:00+02:00*%
%TF.ProjectId,Helios_PCB,48656c69-6f73-45f5-9043-422e6b696361,rev?*%
%TF.SameCoordinates,Original*%
%TF.FileFunction,Legend,Top*%
%TF.FilePolarity,Positive*%
%FSLAX46Y46*%
G04 Gerber Fmt 4.6, Leading zero omitted, Abs format (unit mm)*
G04 Created by KiCad (PCBNEW (6.0.7)) date 2022-08-13 19:12:00*
%MOMM*%
%LPD*%
G01*
G04 APERTURE LIST*
%ADD10C,0.150000*%
%ADD11C,0.120000*%
G04 APERTURE END LIST*
D10*
%TO.C,R1*%
X143810718Y-106846237D02*
X143709703Y-107418657D01*
X144214779Y-107250298D02*
X143507673Y-107957405D01*
X143238298Y-107688031D01*
X143204627Y-107587016D01*
X143204627Y-107519672D01*
X143238298Y-107418657D01*
X143339314Y-107317642D01*
X143440329Y-107283970D01*
X143507673Y-107283970D01*
X143608688Y-107317642D01*
X143878062Y-107587016D01*
X143137283Y-106172802D02*
X143541344Y-106576863D01*
X143339314Y-106374832D02*
X142632207Y-107081939D01*
X142800566Y-107048268D01*
X142935253Y-107048267D01*
X143036268Y-107081939D01*
%TO.C,F0*%
X146001290Y-88435194D02*
X145765587Y-88670896D01*
X146135977Y-89041286D02*
X145428870Y-88334179D01*
X145765587Y-87997461D01*
X146169648Y-87593400D02*
X146236992Y-87526057D01*
X146338007Y-87492385D01*
X146405351Y-87492385D01*
X146506366Y-87526057D01*
X146674725Y-87627072D01*
X146843083Y-87795431D01*
X146944099Y-87963790D01*
X146977770Y-88064805D01*
X146977770Y-88132148D01*
X146944099Y-88233164D01*
X146876755Y-88300507D01*
X146775740Y-88334179D01*
X146708396Y-88334179D01*
X146607381Y-88300507D01*
X146439022Y-88199492D01*
X146270664Y-88031133D01*
X146169648Y-87862774D01*
X146135977Y-87761759D01*
X146135977Y-87694416D01*
X146169648Y-87593400D01*
%TO.C,R0*%
X143739530Y-92187732D02*
X143167110Y-92086717D01*
X143335469Y-92591793D02*
X142628362Y-91884687D01*
X142897736Y-91615312D01*
X142998751Y-91581641D01*
X143066095Y-91581641D01*
X143167110Y-91615312D01*
X143268125Y-91716328D01*
X143301797Y-91817343D01*
X143301797Y-91884687D01*
X143268125Y-91985702D01*
X142998751Y-92255076D01*
X143470156Y-91042893D02*
X143537500Y-90975549D01*
X143638515Y-90941877D01*
X143705858Y-90941877D01*
X143806874Y-90975549D01*
X143975232Y-91076564D01*
X144143591Y-91244923D01*
X144244606Y-91413282D01*
X144278278Y-91514297D01*
X144278278Y-91581641D01*
X144244606Y-91682656D01*
X144177263Y-91750000D01*
X144076248Y-91783671D01*
X144008904Y-91783671D01*
X143907889Y-91750000D01*
X143739530Y-91648984D01*
X143571171Y-91480625D01*
X143470156Y-91312267D01*
X143436484Y-91211251D01*
X143436484Y-91143908D01*
X143470156Y-91042893D01*
%TO.C,F1*%
X146472694Y-111036209D02*
X146708396Y-111271912D01*
X147078786Y-110901522D02*
X146371679Y-111608629D01*
X146034961Y-111271912D01*
X146102305Y-109925042D02*
X146506366Y-110329103D01*
X146304335Y-110127072D02*
X145597229Y-110834179D01*
X145765587Y-110800507D01*
X145900274Y-110800507D01*
X146001290Y-110834179D01*
D11*
%TO.C,J0*%
X152777500Y-94440000D02*
X153837500Y-94440000D01*
X152777500Y-96500000D02*
X152777500Y-104560000D01*
X152777500Y-95500000D02*
X152777500Y-94440000D01*
X154897500Y-96500000D02*
X154897500Y-104560000D01*
X152777500Y-104560000D02*
X154897500Y-104560000D01*
X152777500Y-96500000D02*
X154897500Y-96500000D01*
%TO.C,F0*%
X148166053Y-89704289D02*
X147741789Y-90128553D01*
X147953921Y-89916421D02*
X147671079Y-89633579D01*
%TO.C,F1*%
X147953921Y-109083579D02*
X147671079Y-109366421D01*
X147741789Y-108871447D02*
X148166053Y-109295711D01*
%TO.C,U0*%
X144962500Y-98700000D02*
G75*
G03*
X144962500Y-98700000I-200000J0D01*
G01*
%TD*%
M02*
