%TF.GenerationSoftware,KiCad,Pcbnew,(6.0.7)*%
%TF.CreationDate,2022-08-13T19:12:00+02:00*%
%TF.ProjectId,Helios_PCB,48656c69-6f73-45f5-9043-422e6b696361,rev?*%
%TF.SameCoordinates,Original*%
%TF.FileFunction,Copper,L2,Bot*%
%TF.FilePolarity,Positive*%
%FSLAX46Y46*%
G04 Gerber Fmt 4.6, Leading zero omitted, Abs format (unit mm)*
G04 Created by KiCad (PCBNEW (6.0.7)) date 2022-08-13 19:12:00*
%MOMM*%
%LPD*%
G01*
G04 APERTURE LIST*
G04 Aperture macros list*
%AMRoundRect*
0 Rectangle with rounded corners*
0 $1 Rounding radius*
0 $2 $3 $4 $5 $6 $7 $8 $9 X,Y pos of 4 corners*
0 Add a 4 corners polygon primitive as box body*
4,1,4,$2,$3,$4,$5,$6,$7,$8,$9,$2,$3,0*
0 Add four circle primitives for the rounded corners*
1,1,$1+$1,$2,$3*
1,1,$1+$1,$4,$5*
1,1,$1+$1,$6,$7*
1,1,$1+$1,$8,$9*
0 Add four rect primitives between the rounded corners*
20,1,$1+$1,$2,$3,$4,$5,0*
20,1,$1+$1,$4,$5,$6,$7,0*
20,1,$1+$1,$6,$7,$8,$9,0*
20,1,$1+$1,$8,$9,$2,$3,0*%
%AMRotRect*
0 Rectangle, with rotation*
0 The origin of the aperture is its center*
0 $1 length*
0 $2 width*
0 $3 Rotation angle, in degrees counterclockwise*
0 Add horizontal line*
21,1,$1,$2,0,0,$3*%
G04 Aperture macros list end*
%TA.AperFunction,ComponentPad*%
%ADD10R,1.350000X1.350000*%
%TD*%
%TA.AperFunction,ComponentPad*%
%ADD11O,1.350000X1.350000*%
%TD*%
%TA.AperFunction,SMDPad,CuDef*%
%ADD12RotRect,1.500000X2.600000X225.000000*%
%TD*%
%TA.AperFunction,SMDPad,CuDef*%
%ADD13RoundRect,0.150000X0.587500X0.150000X-0.587500X0.150000X-0.587500X-0.150000X0.587500X-0.150000X0*%
%TD*%
%TA.AperFunction,SMDPad,CuDef*%
%ADD14R,0.700000X1.300000*%
%TD*%
%TA.AperFunction,SMDPad,CuDef*%
%ADD15RotRect,1.500000X2.600000X315.000000*%
%TD*%
%TA.AperFunction,ViaPad*%
%ADD16C,0.800000*%
%TD*%
%TA.AperFunction,Conductor*%
%ADD17C,0.600000*%
%TD*%
%TA.AperFunction,Conductor*%
%ADD18C,0.250000*%
%TD*%
G04 APERTURE END LIST*
D10*
%TO.P,J0,1,Pin_1*%
%TO.N,GND*%
X153837500Y-95500000D03*
D11*
%TO.P,J0,2,Pin_2*%
%TO.N,LED*%
X153837500Y-97500000D03*
%TO.P,J0,3,Pin_3*%
%TO.N,VCC*%
X153837500Y-99500000D03*
%TO.P,J0,4,Pin_4*%
%TO.N,O0*%
X153837500Y-101500000D03*
%TO.P,J0,5,Pin_5*%
%TO.N,O1*%
X153837500Y-103500000D03*
%TD*%
D12*
%TO.P,D1,1,K*%
%TO.N,Net-(D1-Pad1)*%
X148873160Y-108164340D03*
%TO.P,D1,2,A*%
%TO.N,Net-(D0-Pad1)*%
X146751840Y-110285660D03*
%TD*%
D13*
%TO.P,Q0,1,G*%
%TO.N,LED*%
X145275000Y-98550000D03*
%TO.P,Q0,2,S*%
%TO.N,GND*%
X145275000Y-100450000D03*
%TO.P,Q0,3,D*%
%TO.N,Net-(D1-Pad1)*%
X143400000Y-99500000D03*
%TD*%
D14*
%TO.P,R2,1*%
%TO.N,Net-(R2-Pad1)*%
X143387500Y-93900000D03*
%TO.P,R2,2*%
%TO.N,VCC*%
X145287500Y-93900000D03*
%TD*%
D15*
%TO.P,D0,1,K*%
%TO.N,Net-(D0-Pad1)*%
X146751840Y-88714340D03*
%TO.P,D0,2,A*%
%TO.N,Net-(R2-Pad1)*%
X148873160Y-90835660D03*
%TD*%
D14*
%TO.P,R3,1*%
%TO.N,LED*%
X145287500Y-96900000D03*
%TO.P,R3,2*%
%TO.N,GND*%
X143387500Y-96900000D03*
%TD*%
D16*
%TO.N,GND*%
X152000000Y-98400000D03*
%TO.N,VCC*%
X146600000Y-95000000D03*
X146000000Y-101800000D03*
%TD*%
D17*
%TO.N,Net-(D0-Pad1)*%
X146751840Y-110285660D02*
X141837500Y-105371320D01*
X141837500Y-93628680D02*
X146751840Y-88714340D01*
X141837500Y-105371320D02*
X141837500Y-93628680D01*
D18*
%TO.N,Net-(R2-Pad1)*%
X146451840Y-90835660D02*
X143387500Y-93900000D01*
X148873160Y-90835660D02*
X146451840Y-90835660D01*
D17*
%TO.N,Net-(D1-Pad1)*%
X143400000Y-99500000D02*
X143400000Y-102691180D01*
X143400000Y-102691180D02*
X148873160Y-108164340D01*
%TO.N,VCC*%
X145500000Y-93900000D02*
X146600000Y-95000000D01*
X148300000Y-99500000D02*
X146000000Y-101800000D01*
X145287500Y-93900000D02*
X145500000Y-93900000D01*
X153837500Y-99500000D02*
X148300000Y-99500000D01*
D18*
%TO.N,LED*%
X145287500Y-98537500D02*
X145275000Y-98550000D01*
X145287500Y-96900000D02*
X147937500Y-96900000D01*
X147937500Y-96900000D02*
X148537500Y-97500000D01*
X145287500Y-96900000D02*
X145287500Y-98537500D01*
X148537500Y-97500000D02*
X153837500Y-97500000D01*
%TD*%
%TA.AperFunction,Conductor*%
%TO.N,GND*%
G36*
X147737014Y-97444407D02*
G01*
X147748827Y-97454496D01*
X148156101Y-97861770D01*
X148158971Y-97864763D01*
X148199384Y-97908712D01*
X148205120Y-97912268D01*
X148205123Y-97912271D01*
X148235539Y-97931129D01*
X148243222Y-97936409D01*
X148277104Y-97962127D01*
X148283379Y-97964612D01*
X148283382Y-97964613D01*
X148292214Y-97968110D01*
X148307933Y-97976015D01*
X148321750Y-97984582D01*
X148328228Y-97986464D01*
X148328230Y-97986465D01*
X148346864Y-97991879D01*
X148362614Y-97996455D01*
X148371420Y-97999470D01*
X148410972Y-98015129D01*
X148417685Y-98015835D01*
X148417691Y-98015836D01*
X148427135Y-98016829D01*
X148444404Y-98020217D01*
X148455029Y-98023304D01*
X148455035Y-98023305D01*
X148460012Y-98024751D01*
X148465182Y-98025131D01*
X148465184Y-98025131D01*
X148468411Y-98025368D01*
X148468418Y-98025368D01*
X148470212Y-98025500D01*
X148504453Y-98025500D01*
X148514799Y-98026042D01*
X148554161Y-98030179D01*
X148573631Y-98026886D01*
X148590140Y-98025500D01*
X152840551Y-98025500D01*
X152898742Y-98044407D01*
X152921399Y-98067363D01*
X153016179Y-98201474D01*
X153157766Y-98339402D01*
X153161541Y-98341924D01*
X153161543Y-98341926D01*
X153275470Y-98418049D01*
X153313350Y-98466099D01*
X153315752Y-98527237D01*
X153281759Y-98578111D01*
X153271098Y-98585439D01*
X153202628Y-98626174D01*
X153199213Y-98629168D01*
X153199210Y-98629171D01*
X153091286Y-98723819D01*
X153054017Y-98756503D01*
X153049847Y-98761792D01*
X153049092Y-98762297D01*
X153048084Y-98763359D01*
X153047844Y-98763131D01*
X152998975Y-98795783D01*
X152972103Y-98799500D01*
X148327729Y-98799500D01*
X148320995Y-98799271D01*
X148317797Y-98799053D01*
X148263070Y-98795322D01*
X148257199Y-98796347D01*
X148257194Y-98796347D01*
X148200180Y-98806298D01*
X148195053Y-98807055D01*
X148137604Y-98814007D01*
X148137603Y-98814007D01*
X148131680Y-98814724D01*
X148123068Y-98817978D01*
X148105105Y-98822892D01*
X148096046Y-98824473D01*
X148090584Y-98826871D01*
X148090583Y-98826871D01*
X148037593Y-98850132D01*
X148032795Y-98852090D01*
X147973077Y-98874655D01*
X147968160Y-98878035D01*
X147968157Y-98878036D01*
X147965498Y-98879864D01*
X147949220Y-98888925D01*
X147940797Y-98892622D01*
X147936064Y-98896254D01*
X147890141Y-98931492D01*
X147885957Y-98934532D01*
X147833349Y-98970688D01*
X147829381Y-98975142D01*
X147791885Y-99017226D01*
X147787972Y-99021372D01*
X146657440Y-100151904D01*
X146602924Y-100179680D01*
X146542492Y-100170109D01*
X146499227Y-100126844D01*
X146492368Y-100109520D01*
X146472919Y-100042579D01*
X146468013Y-100031241D01*
X146389724Y-99898860D01*
X146382154Y-99889101D01*
X146273399Y-99780346D01*
X146263640Y-99772776D01*
X146131259Y-99694487D01*
X146119921Y-99689581D01*
X145971107Y-99646345D01*
X145961212Y-99644538D01*
X145930899Y-99642153D01*
X145927007Y-99642000D01*
X145544680Y-99642000D01*
X145531995Y-99646122D01*
X145529000Y-99650243D01*
X145529000Y-101099152D01*
X145510093Y-101157343D01*
X145499267Y-101169885D01*
X145375732Y-101290859D01*
X145278446Y-101441817D01*
X145217022Y-101610578D01*
X145194514Y-101788753D01*
X145201958Y-101864673D01*
X145211499Y-101961984D01*
X145211500Y-101961989D01*
X145212039Y-101967486D01*
X145268726Y-102137896D01*
X145271591Y-102142627D01*
X145271593Y-102142631D01*
X145344947Y-102263752D01*
X145361759Y-102291512D01*
X145486514Y-102420699D01*
X145491139Y-102423725D01*
X145491142Y-102423728D01*
X145632163Y-102516009D01*
X145636789Y-102519036D01*
X145805116Y-102581636D01*
X145810602Y-102582368D01*
X145810606Y-102582369D01*
X145942516Y-102599969D01*
X145983130Y-102605388D01*
X145988636Y-102604887D01*
X145988638Y-102604887D01*
X146072555Y-102597250D01*
X146161981Y-102589112D01*
X146184990Y-102581636D01*
X146327517Y-102535326D01*
X146327519Y-102535325D01*
X146332782Y-102533615D01*
X146337538Y-102530780D01*
X146337540Y-102530779D01*
X146474362Y-102449217D01*
X146487044Y-102441657D01*
X146617099Y-102317807D01*
X146716483Y-102168222D01*
X146766556Y-102036404D01*
X146789100Y-102001556D01*
X148561161Y-100229496D01*
X148615678Y-100201719D01*
X148631165Y-100200500D01*
X152974929Y-100200500D01*
X153033120Y-100219407D01*
X153044010Y-100228586D01*
X153097488Y-100280682D01*
X153157766Y-100339402D01*
X153161541Y-100341924D01*
X153161543Y-100341926D01*
X153275470Y-100418049D01*
X153313350Y-100466099D01*
X153315752Y-100527237D01*
X153281759Y-100578111D01*
X153271098Y-100585439D01*
X153202628Y-100626174D01*
X153199213Y-100629168D01*
X153199210Y-100629171D01*
X153178536Y-100647302D01*
X153054017Y-100756503D01*
X152931645Y-100911731D01*
X152839610Y-101086661D01*
X152838265Y-101090992D01*
X152838264Y-101090995D01*
X152786456Y-101257847D01*
X152780995Y-101275433D01*
X152757762Y-101471726D01*
X152770690Y-101668966D01*
X152771806Y-101673359D01*
X152771806Y-101673361D01*
X152801112Y-101788753D01*
X152819345Y-101860547D01*
X152902099Y-102040054D01*
X153016179Y-102201474D01*
X153157766Y-102339402D01*
X153161541Y-102341924D01*
X153161543Y-102341926D01*
X153275470Y-102418049D01*
X153313350Y-102466099D01*
X153315752Y-102527237D01*
X153281759Y-102578111D01*
X153271098Y-102585439D01*
X153202628Y-102626174D01*
X153199213Y-102629168D01*
X153199210Y-102629171D01*
X153086393Y-102728110D01*
X153054017Y-102756503D01*
X152931645Y-102911731D01*
X152839610Y-103086661D01*
X152838265Y-103090992D01*
X152838264Y-103090995D01*
X152819039Y-103152912D01*
X152780995Y-103275433D01*
X152757762Y-103471726D01*
X152770690Y-103668966D01*
X152819345Y-103860547D01*
X152902099Y-104040054D01*
X152904717Y-104043758D01*
X152975110Y-104143363D01*
X152993254Y-104201796D01*
X152973586Y-104259734D01*
X152923619Y-104295047D01*
X152894262Y-104299500D01*
X149046767Y-104299500D01*
X149034901Y-104298092D01*
X149034891Y-104298215D01*
X149027121Y-104297599D01*
X149019546Y-104295776D01*
X149011776Y-104296383D01*
X149011775Y-104296383D01*
X148975731Y-104299199D01*
X148968020Y-104299500D01*
X148955981Y-104299500D01*
X148944361Y-104301341D01*
X148936597Y-104302256D01*
X148914937Y-104303949D01*
X148900835Y-104305050D01*
X148900834Y-104305050D01*
X148893066Y-104305657D01*
X148885865Y-104308635D01*
X148878289Y-104310449D01*
X148878270Y-104310369D01*
X148877274Y-104310649D01*
X148877300Y-104310728D01*
X148869892Y-104313135D01*
X148862196Y-104314354D01*
X148855255Y-104317891D01*
X148855254Y-104317891D01*
X148823289Y-104334178D01*
X148816178Y-104337453D01*
X148783034Y-104351160D01*
X148783032Y-104351161D01*
X148775829Y-104354140D01*
X148769899Y-104359199D01*
X148763256Y-104363265D01*
X148763212Y-104363194D01*
X148762354Y-104363767D01*
X148762403Y-104363834D01*
X148756099Y-104368413D01*
X148749158Y-104371950D01*
X148718280Y-104402828D01*
X148712528Y-104408141D01*
X148679312Y-104436477D01*
X148675236Y-104443120D01*
X148670174Y-104449040D01*
X148670111Y-104448986D01*
X148669474Y-104449793D01*
X148669541Y-104449842D01*
X148664959Y-104456149D01*
X148659450Y-104461658D01*
X148639631Y-104500555D01*
X148635804Y-104507384D01*
X148612963Y-104544610D01*
X148611141Y-104552180D01*
X148608153Y-104559381D01*
X148608078Y-104559350D01*
X148607720Y-104560319D01*
X148607798Y-104560344D01*
X148605390Y-104567755D01*
X148601854Y-104574696D01*
X148600636Y-104582389D01*
X148595024Y-104617820D01*
X148593494Y-104625499D01*
X148583276Y-104667954D01*
X148583883Y-104675720D01*
X148583267Y-104683490D01*
X148583185Y-104683484D01*
X148583145Y-104684512D01*
X148583227Y-104684512D01*
X148583227Y-104692304D01*
X148582008Y-104700000D01*
X148583227Y-104707696D01*
X148583227Y-104707697D01*
X148588838Y-104743124D01*
X148589756Y-104750900D01*
X148593157Y-104794434D01*
X148596135Y-104801635D01*
X148597949Y-104809211D01*
X148597869Y-104809230D01*
X148598149Y-104810226D01*
X148598228Y-104810200D01*
X148600635Y-104817608D01*
X148601854Y-104825304D01*
X148605391Y-104832245D01*
X148605391Y-104832246D01*
X148621678Y-104864211D01*
X148624953Y-104871322D01*
X148638660Y-104904466D01*
X148641640Y-104911671D01*
X148646700Y-104917601D01*
X148648953Y-104921283D01*
X148650365Y-104923174D01*
X148653760Y-104928391D01*
X148653886Y-104928609D01*
X148654035Y-104928815D01*
X148656619Y-104932785D01*
X148659450Y-104938342D01*
X148660331Y-104939223D01*
X148660935Y-104941083D01*
X148661696Y-104940588D01*
X148958123Y-105396146D01*
X149300051Y-105862975D01*
X149667263Y-106310187D01*
X150058638Y-106736414D01*
X150472977Y-107140352D01*
X150605539Y-107256004D01*
X150907999Y-107519882D01*
X150908010Y-107519891D01*
X150909014Y-107520767D01*
X151365415Y-107876494D01*
X151840784Y-108206446D01*
X151887106Y-108234938D01*
X151910866Y-108249553D01*
X151950525Y-108296145D01*
X151955224Y-108357149D01*
X151944785Y-108383290D01*
X148700542Y-114015270D01*
X148655113Y-114056255D01*
X148594269Y-114062711D01*
X148563331Y-114050450D01*
X148329057Y-113908035D01*
X148325261Y-113905606D01*
X147682738Y-113473784D01*
X147679055Y-113471186D01*
X147056803Y-113010532D01*
X147053242Y-113007768D01*
X146452627Y-112519289D01*
X146449196Y-112516367D01*
X145915898Y-112040712D01*
X145871410Y-112001033D01*
X145868117Y-111997958D01*
X145314386Y-111456864D01*
X145311265Y-111453671D01*
X144782739Y-110887937D01*
X144779744Y-110884582D01*
X144763019Y-110864960D01*
X144277517Y-110295383D01*
X144274672Y-110291887D01*
X143799790Y-109680447D01*
X143797107Y-109676825D01*
X143350544Y-109044404D01*
X143348029Y-109040664D01*
X143197461Y-108805388D01*
X142930722Y-108388585D01*
X142928384Y-108384743D01*
X142919384Y-108369159D01*
X142541167Y-107714308D01*
X142539004Y-107710356D01*
X142182724Y-107023036D01*
X142180741Y-107018989D01*
X142144368Y-106940241D01*
X142137132Y-106879485D01*
X142166990Y-106826079D01*
X142222536Y-106800423D01*
X142282554Y-106812316D01*
X142304248Y-106828724D01*
X144985216Y-109509692D01*
X145012993Y-109564209D01*
X145003422Y-109624641D01*
X144995312Y-109637875D01*
X144940975Y-109712662D01*
X144901771Y-109833318D01*
X144901771Y-109960184D01*
X144904177Y-109967588D01*
X144904177Y-109967590D01*
X144907434Y-109977613D01*
X144940975Y-110080841D01*
X144996788Y-110157660D01*
X146879840Y-112040711D01*
X146956659Y-112096525D01*
X146964067Y-112098932D01*
X146964069Y-112098933D01*
X147069910Y-112133323D01*
X147069912Y-112133323D01*
X147077316Y-112135729D01*
X147204182Y-112135729D01*
X147264510Y-112116127D01*
X147317425Y-112098934D01*
X147317427Y-112098933D01*
X147324838Y-112096525D01*
X147331142Y-112091945D01*
X147398519Y-112042993D01*
X147398522Y-112042990D01*
X147401658Y-112040712D01*
X148506891Y-110935478D01*
X148562705Y-110858658D01*
X148601909Y-110738002D01*
X148601909Y-110611136D01*
X148562705Y-110490479D01*
X148506892Y-110413660D01*
X146623840Y-108530609D01*
X146547021Y-108474795D01*
X146539613Y-108472388D01*
X146539611Y-108472387D01*
X146433770Y-108437997D01*
X146433768Y-108437997D01*
X146426364Y-108435591D01*
X146299498Y-108435591D01*
X146239170Y-108455193D01*
X146186255Y-108472386D01*
X146186253Y-108472387D01*
X146178842Y-108474795D01*
X146172539Y-108479375D01*
X146172538Y-108479375D01*
X146104066Y-108529123D01*
X146045875Y-108548030D01*
X145987684Y-108529123D01*
X145975871Y-108519034D01*
X142566996Y-105110159D01*
X142539219Y-105055642D01*
X142538000Y-105040155D01*
X142538000Y-102942166D01*
X142556907Y-102883975D01*
X142606407Y-102848011D01*
X142667593Y-102848011D01*
X142717093Y-102883975D01*
X142727651Y-102902374D01*
X142750130Y-102953584D01*
X142752088Y-102958382D01*
X142774655Y-103018103D01*
X142778033Y-103023018D01*
X142778037Y-103023026D01*
X142779865Y-103025685D01*
X142788923Y-103041958D01*
X142792621Y-103050382D01*
X142796252Y-103055114D01*
X142796255Y-103055119D01*
X142831487Y-103101034D01*
X142834533Y-103105226D01*
X142870688Y-103157831D01*
X142875141Y-103161798D01*
X142875144Y-103161802D01*
X142917226Y-103199295D01*
X142921372Y-103203208D01*
X147106535Y-107388372D01*
X147134312Y-107442889D01*
X147124741Y-107503321D01*
X147116623Y-107516567D01*
X147104888Y-107532719D01*
X147062295Y-107591342D01*
X147023091Y-107711998D01*
X147023091Y-107838864D01*
X147062295Y-107959521D01*
X147066875Y-107965824D01*
X147066875Y-107965825D01*
X147115820Y-108033191D01*
X147118108Y-108036340D01*
X149001160Y-109919391D01*
X149077979Y-109975205D01*
X149085387Y-109977612D01*
X149085389Y-109977613D01*
X149191230Y-110012003D01*
X149191232Y-110012003D01*
X149198636Y-110014409D01*
X149325502Y-110014409D01*
X149385830Y-109994807D01*
X149438745Y-109977614D01*
X149438747Y-109977613D01*
X149446158Y-109975205D01*
X149466833Y-109960184D01*
X149519839Y-109921673D01*
X149519842Y-109921670D01*
X149522978Y-109919392D01*
X150628211Y-108814158D01*
X150684025Y-108737338D01*
X150723229Y-108616682D01*
X150723229Y-108489816D01*
X150719837Y-108479375D01*
X150686432Y-108376567D01*
X150684025Y-108369159D01*
X150678955Y-108362180D01*
X150630500Y-108295489D01*
X150630499Y-108295488D01*
X150628212Y-108292340D01*
X148745160Y-106409289D01*
X148718702Y-106390065D01*
X148674645Y-106358055D01*
X148674644Y-106358054D01*
X148668341Y-106353475D01*
X148660933Y-106351068D01*
X148660931Y-106351067D01*
X148555090Y-106316677D01*
X148555088Y-106316677D01*
X148547684Y-106314271D01*
X148420818Y-106314271D01*
X148360490Y-106333873D01*
X148307575Y-106351066D01*
X148307573Y-106351067D01*
X148300162Y-106353475D01*
X148293856Y-106358056D01*
X148293855Y-106358057D01*
X148225384Y-106407803D01*
X148167193Y-106426710D01*
X148109003Y-106407802D01*
X148097190Y-106397714D01*
X146130896Y-104431419D01*
X144129496Y-102430019D01*
X144101719Y-102375502D01*
X144100500Y-102360015D01*
X144100500Y-101182561D01*
X144119407Y-101124370D01*
X144168907Y-101088406D01*
X144230093Y-101088406D01*
X144269504Y-101112557D01*
X144276601Y-101119654D01*
X144286360Y-101127224D01*
X144418741Y-101205513D01*
X144430079Y-101210419D01*
X144578893Y-101253655D01*
X144588788Y-101255462D01*
X144619101Y-101257847D01*
X144622993Y-101258000D01*
X145005320Y-101258000D01*
X145018005Y-101253878D01*
X145021000Y-101249757D01*
X145021000Y-99657681D01*
X145016878Y-99644996D01*
X145012757Y-99642001D01*
X144637000Y-99642001D01*
X144578809Y-99623094D01*
X144542845Y-99573594D01*
X144538000Y-99543001D01*
X144538000Y-99349034D01*
X144556907Y-99290843D01*
X144606407Y-99254879D01*
X144642666Y-99250250D01*
X144644728Y-99250500D01*
X145905272Y-99250500D01*
X145995047Y-99239636D01*
X146135283Y-99184113D01*
X146140658Y-99180033D01*
X146140660Y-99180032D01*
X146250043Y-99097005D01*
X146255422Y-99092922D01*
X146346613Y-98972783D01*
X146402136Y-98832547D01*
X146413000Y-98742772D01*
X146413000Y-98357228D01*
X146402136Y-98267453D01*
X146346613Y-98127217D01*
X146294074Y-98057999D01*
X146259505Y-98012457D01*
X146255422Y-98007078D01*
X146225785Y-97984582D01*
X146140660Y-97919968D01*
X146140658Y-97919967D01*
X146135283Y-97915887D01*
X146041124Y-97878607D01*
X145993980Y-97839606D01*
X145978764Y-97780343D01*
X145989360Y-97741614D01*
X146019608Y-97682250D01*
X146019610Y-97682243D01*
X146023146Y-97675304D01*
X146034955Y-97600748D01*
X146037391Y-97585365D01*
X146037391Y-97585363D01*
X146038000Y-97581519D01*
X146038000Y-97524500D01*
X146056907Y-97466309D01*
X146106407Y-97430345D01*
X146137000Y-97425500D01*
X147678823Y-97425500D01*
X147737014Y-97444407D01*
G37*
%TD.AperFunction*%
%TA.AperFunction,Conductor*%
G36*
X148679320Y-84959095D02*
G01*
X148700541Y-84984729D01*
X151944127Y-90615568D01*
X151956789Y-90675429D01*
X151931848Y-90731300D01*
X151909999Y-90749438D01*
X151841815Y-90791143D01*
X151841791Y-90791159D01*
X151840628Y-90791870D01*
X151839509Y-90792643D01*
X151839493Y-90792654D01*
X151551977Y-90991425D01*
X151364328Y-91121154D01*
X151363251Y-91121991D01*
X151363235Y-91122003D01*
X151018309Y-91390156D01*
X150907180Y-91476550D01*
X150470615Y-91856947D01*
X150055998Y-92261155D01*
X150055085Y-92262151D01*
X150055070Y-92262166D01*
X149668832Y-92683323D01*
X149664627Y-92687908D01*
X149663749Y-92688980D01*
X149300578Y-93132390D01*
X149297724Y-93135874D01*
X148956438Y-93603650D01*
X148955690Y-93604806D01*
X148955683Y-93604816D01*
X148755362Y-93914354D01*
X148661099Y-94060009D01*
X148660988Y-94059937D01*
X148660822Y-94060286D01*
X148659450Y-94061658D01*
X148657296Y-94065886D01*
X148649143Y-94078484D01*
X148648652Y-94079144D01*
X148648381Y-94079590D01*
X148647269Y-94081362D01*
X148647248Y-94081412D01*
X148645670Y-94083850D01*
X148641050Y-94089296D01*
X148638094Y-94096501D01*
X148638092Y-94096504D01*
X148624742Y-94129044D01*
X148621360Y-94136413D01*
X148605391Y-94167753D01*
X148605390Y-94167756D01*
X148601854Y-94174696D01*
X148600636Y-94182389D01*
X148598339Y-94189458D01*
X148597567Y-94192214D01*
X148595854Y-94199455D01*
X148592895Y-94206667D01*
X148592310Y-94214438D01*
X148592309Y-94214441D01*
X148589668Y-94249513D01*
X148588729Y-94257561D01*
X148582008Y-94300000D01*
X148583226Y-94307694D01*
X148583226Y-94315109D01*
X148583345Y-94318021D01*
X148583952Y-94325407D01*
X148583367Y-94333175D01*
X148585212Y-94340746D01*
X148593537Y-94374917D01*
X148595132Y-94382864D01*
X148601854Y-94425304D01*
X148605391Y-94432247D01*
X148607682Y-94439296D01*
X148608684Y-94441999D01*
X148611554Y-94448862D01*
X148613399Y-94456435D01*
X148635983Y-94493011D01*
X148639933Y-94500037D01*
X148659450Y-94538342D01*
X148664954Y-94543846D01*
X148669311Y-94549843D01*
X148671108Y-94552115D01*
X148675956Y-94557754D01*
X148680049Y-94564382D01*
X148685988Y-94569420D01*
X148685989Y-94569421D01*
X148712812Y-94592174D01*
X148718774Y-94597666D01*
X148749158Y-94628050D01*
X148756099Y-94631587D01*
X148762110Y-94635954D01*
X148764527Y-94637563D01*
X148770859Y-94641414D01*
X148776796Y-94646450D01*
X148784000Y-94649405D01*
X148784002Y-94649407D01*
X148816544Y-94662758D01*
X148823913Y-94666140D01*
X148855253Y-94682109D01*
X148855256Y-94682110D01*
X148862196Y-94685646D01*
X148869889Y-94686864D01*
X148876958Y-94689161D01*
X148879714Y-94689933D01*
X148886955Y-94691646D01*
X148894167Y-94694605D01*
X148901938Y-94695190D01*
X148901941Y-94695191D01*
X148937019Y-94697833D01*
X148945062Y-94698771D01*
X148955981Y-94700500D01*
X148968721Y-94700500D01*
X148976156Y-94700780D01*
X149012904Y-94703548D01*
X149012906Y-94703548D01*
X149020675Y-94704133D01*
X149028245Y-94702289D01*
X149036011Y-94701651D01*
X149036029Y-94701874D01*
X149047471Y-94700500D01*
X152555500Y-94700500D01*
X152613691Y-94719407D01*
X152649655Y-94768907D01*
X152654500Y-94799500D01*
X152654500Y-95230320D01*
X152658622Y-95243005D01*
X152662743Y-95246000D01*
X153992500Y-95246000D01*
X154050691Y-95264907D01*
X154086655Y-95314407D01*
X154091500Y-95345000D01*
X154091500Y-95655000D01*
X154072593Y-95713191D01*
X154023093Y-95749155D01*
X153992500Y-95754000D01*
X152670181Y-95754000D01*
X152657496Y-95758122D01*
X152654501Y-95762243D01*
X152654501Y-96220411D01*
X152654790Y-96225751D01*
X152660578Y-96279035D01*
X152663427Y-96291020D01*
X152709851Y-96414855D01*
X152716559Y-96427108D01*
X152795363Y-96532256D01*
X152805244Y-96542137D01*
X152910392Y-96620941D01*
X152922643Y-96627648D01*
X152975568Y-96647489D01*
X153023418Y-96685620D01*
X153039717Y-96744595D01*
X153018561Y-96801479D01*
X152934458Y-96908162D01*
X152934455Y-96908166D01*
X152931645Y-96911731D01*
X152929532Y-96915748D01*
X152926454Y-96921598D01*
X152882625Y-96964291D01*
X152838841Y-96974500D01*
X148796177Y-96974500D01*
X148737986Y-96955593D01*
X148726173Y-96945504D01*
X148318899Y-96538230D01*
X148316029Y-96535237D01*
X148280184Y-96496256D01*
X148275616Y-96491288D01*
X148239465Y-96468873D01*
X148231779Y-96463591D01*
X148203270Y-96441951D01*
X148203269Y-96441951D01*
X148197896Y-96437872D01*
X148191625Y-96435389D01*
X148191623Y-96435388D01*
X148182783Y-96431888D01*
X148167058Y-96423979D01*
X148158986Y-96418974D01*
X148158984Y-96418973D01*
X148153250Y-96415418D01*
X148112403Y-96403550D01*
X148103582Y-96400530D01*
X148070306Y-96387356D01*
X148070303Y-96387355D01*
X148064028Y-96384871D01*
X148057315Y-96384165D01*
X148057309Y-96384164D01*
X148047865Y-96383171D01*
X148030596Y-96379783D01*
X148019971Y-96376696D01*
X148019965Y-96376695D01*
X148014988Y-96375249D01*
X148009818Y-96374869D01*
X148009816Y-96374869D01*
X148006589Y-96374632D01*
X148006582Y-96374632D01*
X148004788Y-96374500D01*
X147970546Y-96374500D01*
X147960200Y-96373958D01*
X147920838Y-96369821D01*
X147901369Y-96373114D01*
X147884859Y-96374500D01*
X146136999Y-96374500D01*
X146078808Y-96355593D01*
X146042844Y-96306093D01*
X146037999Y-96275500D01*
X146037999Y-96218482D01*
X146023146Y-96124696D01*
X145965550Y-96011658D01*
X145875842Y-95921950D01*
X145868905Y-95918415D01*
X145868903Y-95918414D01*
X145769744Y-95867890D01*
X145769743Y-95867890D01*
X145762804Y-95864354D01*
X145755110Y-95863135D01*
X145755109Y-95863135D01*
X145672865Y-95850109D01*
X145672863Y-95850109D01*
X145669019Y-95849500D01*
X145287550Y-95849500D01*
X144905982Y-95849501D01*
X144902139Y-95850110D01*
X144902134Y-95850110D01*
X144865283Y-95855947D01*
X144812196Y-95864354D01*
X144756478Y-95892744D01*
X144706097Y-95918414D01*
X144706095Y-95918415D01*
X144699158Y-95921950D01*
X144609450Y-96011658D01*
X144551854Y-96124696D01*
X144550635Y-96132390D01*
X144550635Y-96132391D01*
X144548485Y-96145965D01*
X144537000Y-96218481D01*
X144537001Y-97581518D01*
X144537610Y-97585361D01*
X144537610Y-97585366D01*
X144540046Y-97600748D01*
X144551854Y-97675304D01*
X144569736Y-97710399D01*
X144581444Y-97733378D01*
X144591015Y-97793810D01*
X144563237Y-97848327D01*
X144529678Y-97870371D01*
X144436517Y-97907256D01*
X144414717Y-97915887D01*
X144409342Y-97919967D01*
X144409340Y-97919968D01*
X144324215Y-97984582D01*
X144294578Y-98007078D01*
X144290495Y-98012457D01*
X144255927Y-98057999D01*
X144203387Y-98127217D01*
X144147864Y-98267453D01*
X144137000Y-98357228D01*
X144137000Y-98700966D01*
X144118093Y-98759157D01*
X144068593Y-98795121D01*
X144032334Y-98799750D01*
X144030272Y-98799500D01*
X143408769Y-98799500D01*
X143408250Y-98799499D01*
X143323115Y-98799053D01*
X143323113Y-98799053D01*
X143318895Y-98799031D01*
X143317439Y-98799381D01*
X143315371Y-98799500D01*
X142769728Y-98799500D01*
X142679953Y-98810364D01*
X142674043Y-98812704D01*
X142674035Y-98812706D01*
X142673443Y-98812941D01*
X142673003Y-98812969D01*
X142667879Y-98814270D01*
X142667634Y-98813306D01*
X142612378Y-98816782D01*
X142560718Y-98783997D01*
X142538000Y-98720893D01*
X142538000Y-98008445D01*
X142556907Y-97950254D01*
X142606407Y-97914290D01*
X142667593Y-97914290D01*
X142696372Y-97929224D01*
X142785392Y-97995941D01*
X142797645Y-98002649D01*
X142921478Y-98049072D01*
X142933467Y-98051923D01*
X142986752Y-98057711D01*
X142992086Y-98058000D01*
X143117820Y-98058000D01*
X143130505Y-98053878D01*
X143133500Y-98049757D01*
X143133500Y-98042319D01*
X143641500Y-98042319D01*
X143645622Y-98055004D01*
X143649743Y-98057999D01*
X143782911Y-98057999D01*
X143788251Y-98057710D01*
X143841535Y-98051922D01*
X143853520Y-98049073D01*
X143977355Y-98002649D01*
X143989608Y-97995941D01*
X144094756Y-97917137D01*
X144104637Y-97907256D01*
X144183441Y-97802108D01*
X144190149Y-97789855D01*
X144236572Y-97666022D01*
X144239423Y-97654033D01*
X144245211Y-97600748D01*
X144245500Y-97595414D01*
X144245500Y-97169680D01*
X144241378Y-97156995D01*
X144237257Y-97154000D01*
X143657180Y-97154000D01*
X143644495Y-97158122D01*
X143641500Y-97162243D01*
X143641500Y-98042319D01*
X143133500Y-98042319D01*
X143133500Y-96630320D01*
X143641500Y-96630320D01*
X143645622Y-96643005D01*
X143649743Y-96646000D01*
X144229819Y-96646000D01*
X144242504Y-96641878D01*
X144245499Y-96637757D01*
X144245499Y-96204589D01*
X144245210Y-96199249D01*
X144239422Y-96145965D01*
X144236573Y-96133980D01*
X144190149Y-96010145D01*
X144183441Y-95997892D01*
X144104637Y-95892744D01*
X144094756Y-95882863D01*
X143989608Y-95804059D01*
X143977355Y-95797351D01*
X143853522Y-95750928D01*
X143841533Y-95748077D01*
X143788248Y-95742289D01*
X143782914Y-95742000D01*
X143657180Y-95742000D01*
X143644495Y-95746122D01*
X143641500Y-95750243D01*
X143641500Y-96630320D01*
X143133500Y-96630320D01*
X143133500Y-95757681D01*
X143129378Y-95744996D01*
X143125257Y-95742001D01*
X142992089Y-95742001D01*
X142986749Y-95742290D01*
X142933465Y-95748078D01*
X142921480Y-95750927D01*
X142797645Y-95797351D01*
X142785392Y-95804059D01*
X142696372Y-95870776D01*
X142638469Y-95890544D01*
X142580004Y-95872502D01*
X142543310Y-95823541D01*
X142538000Y-95791555D01*
X142538000Y-94854979D01*
X142556907Y-94796788D01*
X142606407Y-94760824D01*
X142667593Y-94760824D01*
X142707774Y-94790018D01*
X142709450Y-94788342D01*
X142799158Y-94878050D01*
X142806095Y-94881585D01*
X142806097Y-94881586D01*
X142905256Y-94932110D01*
X142912196Y-94935646D01*
X142919890Y-94936865D01*
X142919891Y-94936865D01*
X143002135Y-94949891D01*
X143002137Y-94949891D01*
X143005981Y-94950500D01*
X143387451Y-94950500D01*
X143769018Y-94950499D01*
X143772861Y-94949890D01*
X143772866Y-94949890D01*
X143809717Y-94944053D01*
X143862804Y-94935646D01*
X143919323Y-94906848D01*
X143968903Y-94881586D01*
X143968905Y-94881585D01*
X143975842Y-94878050D01*
X144065550Y-94788342D01*
X144079572Y-94760824D01*
X144119610Y-94682244D01*
X144119610Y-94682243D01*
X144123146Y-94675304D01*
X144124598Y-94666140D01*
X144137391Y-94585365D01*
X144137391Y-94585363D01*
X144138000Y-94581519D01*
X144137999Y-93933678D01*
X144156906Y-93875487D01*
X144166995Y-93863674D01*
X144367996Y-93662673D01*
X144422513Y-93634896D01*
X144482945Y-93644467D01*
X144526210Y-93687732D01*
X144537000Y-93732677D01*
X144537001Y-94167753D01*
X144537001Y-94581518D01*
X144537610Y-94585361D01*
X144537610Y-94585366D01*
X144539558Y-94597666D01*
X144551854Y-94675304D01*
X144609450Y-94788342D01*
X144699158Y-94878050D01*
X144706095Y-94881585D01*
X144706097Y-94881586D01*
X144805256Y-94932110D01*
X144812196Y-94935646D01*
X144819890Y-94936865D01*
X144819891Y-94936865D01*
X144902135Y-94949891D01*
X144902137Y-94949891D01*
X144905981Y-94950500D01*
X144962673Y-94950500D01*
X145518836Y-94950499D01*
X145577027Y-94969406D01*
X145588840Y-94979496D01*
X145813042Y-95203699D01*
X145836977Y-95242452D01*
X145868726Y-95337896D01*
X145871591Y-95342627D01*
X145871593Y-95342631D01*
X145897247Y-95384990D01*
X145961759Y-95491512D01*
X146086514Y-95620699D01*
X146091139Y-95623725D01*
X146091142Y-95623728D01*
X146227857Y-95713191D01*
X146236789Y-95719036D01*
X146405116Y-95781636D01*
X146410602Y-95782368D01*
X146410606Y-95782369D01*
X146572408Y-95803957D01*
X146583130Y-95805388D01*
X146588636Y-95804887D01*
X146588638Y-95804887D01*
X146672556Y-95797250D01*
X146761981Y-95789112D01*
X146784990Y-95781636D01*
X146927517Y-95735326D01*
X146927519Y-95735325D01*
X146932782Y-95733615D01*
X146937538Y-95730780D01*
X146937540Y-95730779D01*
X147082293Y-95644489D01*
X147087044Y-95641657D01*
X147217099Y-95517807D01*
X147316483Y-95368222D01*
X147380257Y-95200336D01*
X147405251Y-95022493D01*
X147405565Y-95000000D01*
X147398483Y-94936864D01*
X147386163Y-94827025D01*
X147386162Y-94827021D01*
X147385546Y-94821528D01*
X147331946Y-94667609D01*
X147328305Y-94657153D01*
X147328305Y-94657152D01*
X147326485Y-94651927D01*
X147280055Y-94577624D01*
X147234247Y-94504315D01*
X147234245Y-94504313D01*
X147231316Y-94499625D01*
X147104770Y-94372193D01*
X146953136Y-94275963D01*
X146839795Y-94235605D01*
X146803001Y-94212345D01*
X146066995Y-93476338D01*
X146039218Y-93421821D01*
X146037999Y-93406334D01*
X146037999Y-93218482D01*
X146023146Y-93124696D01*
X145965550Y-93011658D01*
X145875842Y-92921950D01*
X145868905Y-92918415D01*
X145868903Y-92918414D01*
X145769744Y-92867890D01*
X145769743Y-92867890D01*
X145762804Y-92864354D01*
X145755110Y-92863135D01*
X145755109Y-92863135D01*
X145672865Y-92850109D01*
X145672863Y-92850109D01*
X145669019Y-92849500D01*
X145661200Y-92849500D01*
X145420174Y-92849501D01*
X145361986Y-92830594D01*
X145326022Y-92781094D01*
X145326021Y-92719909D01*
X145350172Y-92680497D01*
X146640513Y-91390156D01*
X146695030Y-91362379D01*
X146710517Y-91361160D01*
X146978794Y-91361160D01*
X147036985Y-91380067D01*
X147061745Y-91409058D01*
X147062295Y-91408658D01*
X147112291Y-91477471D01*
X147118108Y-91485478D01*
X148223342Y-92590711D01*
X148300162Y-92646525D01*
X148420818Y-92685729D01*
X148547684Y-92685729D01*
X148555088Y-92683323D01*
X148555090Y-92683323D01*
X148660933Y-92648932D01*
X148668341Y-92646525D01*
X148745160Y-92590712D01*
X150628211Y-90707660D01*
X150684025Y-90630841D01*
X150688988Y-90615568D01*
X150720823Y-90517590D01*
X150720823Y-90517588D01*
X150723229Y-90510184D01*
X150723229Y-90383318D01*
X150684025Y-90262662D01*
X150668834Y-90241753D01*
X150630493Y-90188981D01*
X150630490Y-90188978D01*
X150628212Y-90185842D01*
X149522978Y-89080609D01*
X149446158Y-89024795D01*
X149325502Y-88985591D01*
X149198636Y-88985591D01*
X149191232Y-88987997D01*
X149191230Y-88987997D01*
X149089612Y-89021015D01*
X149077979Y-89024795D01*
X149071677Y-89029374D01*
X149071675Y-89029375D01*
X149046584Y-89047605D01*
X149001160Y-89080608D01*
X148998412Y-89083356D01*
X147800605Y-90281164D01*
X147746088Y-90308941D01*
X147730601Y-90310160D01*
X147022080Y-90310160D01*
X146963889Y-90291253D01*
X146927925Y-90241753D01*
X146927925Y-90180567D01*
X146952076Y-90141156D01*
X148504148Y-88589083D01*
X148506891Y-88586340D01*
X148562705Y-88509521D01*
X148601909Y-88388864D01*
X148601909Y-88261998D01*
X148562705Y-88141342D01*
X148506892Y-88064522D01*
X147401658Y-86959289D01*
X147324838Y-86903475D01*
X147204182Y-86864271D01*
X147077316Y-86864271D01*
X147069912Y-86866677D01*
X147069910Y-86866677D01*
X146968292Y-86899695D01*
X146956659Y-86903475D01*
X146879840Y-86959288D01*
X144996789Y-88842340D01*
X144940975Y-88919159D01*
X144938568Y-88926567D01*
X144938567Y-88926569D01*
X144905164Y-89029375D01*
X144901771Y-89039816D01*
X144901771Y-89166682D01*
X144940975Y-89287338D01*
X144945555Y-89293641D01*
X144945555Y-89293642D01*
X144995303Y-89362114D01*
X145014210Y-89420305D01*
X144995303Y-89478496D01*
X144985214Y-89490309D01*
X142304197Y-92171326D01*
X142249680Y-92199103D01*
X142189248Y-92189532D01*
X142145983Y-92146267D01*
X142136412Y-92085835D01*
X142144317Y-92059809D01*
X142180717Y-91981003D01*
X142182700Y-91976956D01*
X142538980Y-91289636D01*
X142541144Y-91285682D01*
X142763510Y-90900675D01*
X142928367Y-90615240D01*
X142930705Y-90611398D01*
X143000464Y-90502395D01*
X143348012Y-89959324D01*
X143350524Y-89955588D01*
X143797088Y-89323167D01*
X143799771Y-89319545D01*
X144274655Y-88708105D01*
X144277500Y-88704609D01*
X144443791Y-88509521D01*
X144779734Y-88115403D01*
X144782729Y-88112048D01*
X145311237Y-87546338D01*
X145314388Y-87543115D01*
X145868115Y-87002026D01*
X145871410Y-86998950D01*
X145891044Y-86981439D01*
X146449188Y-86483628D01*
X146452618Y-86480707D01*
X147053225Y-85992237D01*
X147056785Y-85989473D01*
X147219735Y-85868842D01*
X147679035Y-85528823D01*
X147682718Y-85526224D01*
X148325283Y-85094377D01*
X148329080Y-85091949D01*
X148563331Y-84949549D01*
X148622876Y-84935479D01*
X148679320Y-84959095D01*
G37*
%TD.AperFunction*%
%TD*%
M02*
