%TF.GenerationSoftware,KiCad,Pcbnew,(6.0.7)*%
%TF.CreationDate,2022-08-13T19:12:00+02:00*%
%TF.ProjectId,Helios_PCB,48656c69-6f73-45f5-9043-422e6b696361,rev?*%
%TF.SameCoordinates,Original*%
%TF.FileFunction,Legend,Bot*%
%TF.FilePolarity,Positive*%
%FSLAX46Y46*%
G04 Gerber Fmt 4.6, Leading zero omitted, Abs format (unit mm)*
G04 Created by KiCad (PCBNEW (6.0.7)) date 2022-08-13 19:12:00*
%MOMM*%
%LPD*%
G01*
G04 APERTURE LIST*
%ADD10C,0.150000*%
%ADD11C,0.120000*%
G04 APERTURE END LIST*
D10*
%TO.C,D1*%
X145085469Y-107158206D02*
X144378362Y-107865312D01*
X144546721Y-108033671D01*
X144681408Y-108101015D01*
X144816095Y-108101015D01*
X144917110Y-108067343D01*
X145085469Y-107966328D01*
X145186484Y-107865312D01*
X145287500Y-107696954D01*
X145321171Y-107595938D01*
X145321171Y-107461251D01*
X145253828Y-107326564D01*
X145085469Y-107158206D01*
X146162965Y-108235702D02*
X145758904Y-107831641D01*
X145960935Y-108033671D02*
X145253828Y-108740778D01*
X145287500Y-108572419D01*
X145287500Y-108437732D01*
X145253828Y-108336717D01*
%TO.C,R2*%
X147126785Y-96625000D02*
X146769642Y-96375000D01*
X147126785Y-96196428D02*
X146376785Y-96196428D01*
X146376785Y-96482142D01*
X146412500Y-96553571D01*
X146448214Y-96589285D01*
X146519642Y-96625000D01*
X146626785Y-96625000D01*
X146698214Y-96589285D01*
X146733928Y-96553571D01*
X146769642Y-96482142D01*
X146769642Y-96196428D01*
X146448214Y-96910714D02*
X146412500Y-96946428D01*
X146376785Y-97017857D01*
X146376785Y-97196428D01*
X146412500Y-97267857D01*
X146448214Y-97303571D01*
X146519642Y-97339285D01*
X146591071Y-97339285D01*
X146698214Y-97303571D01*
X147126785Y-96875000D01*
X147126785Y-97339285D01*
%TO.C,D0*%
X146129293Y-90797969D02*
X145422187Y-90090862D01*
X145253828Y-90259221D01*
X145186484Y-90393908D01*
X145186484Y-90528595D01*
X145220156Y-90629610D01*
X145321171Y-90797969D01*
X145422187Y-90898984D01*
X145590545Y-91000000D01*
X145691561Y-91033671D01*
X145826248Y-91033671D01*
X145960935Y-90966328D01*
X146129293Y-90797969D01*
X144580393Y-90932656D02*
X144513049Y-91000000D01*
X144479377Y-91101015D01*
X144479377Y-91168358D01*
X144513049Y-91269374D01*
X144614064Y-91437732D01*
X144782423Y-91606091D01*
X144950782Y-91707106D01*
X145051797Y-91740778D01*
X145119141Y-91740778D01*
X145220156Y-91707106D01*
X145287500Y-91639763D01*
X145321171Y-91538748D01*
X145321171Y-91471404D01*
X145287500Y-91370389D01*
X145186484Y-91202030D01*
X145018125Y-91033671D01*
X144849767Y-90932656D01*
X144748751Y-90898984D01*
X144681408Y-90898984D01*
X144580393Y-90932656D01*
%TO.C,R3*%
X147126785Y-93875000D02*
X146769642Y-93625000D01*
X147126785Y-93446428D02*
X146376785Y-93446428D01*
X146376785Y-93732142D01*
X146412500Y-93803571D01*
X146448214Y-93839285D01*
X146519642Y-93875000D01*
X146626785Y-93875000D01*
X146698214Y-93839285D01*
X146733928Y-93803571D01*
X146769642Y-93732142D01*
X146769642Y-93446428D01*
X146376785Y-94125000D02*
X146376785Y-94589285D01*
X146662500Y-94339285D01*
X146662500Y-94446428D01*
X146698214Y-94517857D01*
X146733928Y-94553571D01*
X146805357Y-94589285D01*
X146983928Y-94589285D01*
X147055357Y-94553571D01*
X147091071Y-94517857D01*
X147126785Y-94446428D01*
X147126785Y-94232142D01*
X147091071Y-94160714D01*
X147055357Y-94125000D01*
D11*
%TO.C,D1*%
X145090139Y-109684619D02*
X148378185Y-106396573D01*
X148378185Y-106396573D02*
X148943871Y-106962258D01*
X147352881Y-111947361D02*
X150640927Y-108659315D01*
%TO.C,Q0*%
X144337500Y-101060000D02*
X144987500Y-101060000D01*
X144337500Y-101060000D02*
X143687500Y-101060000D01*
X144337500Y-97940000D02*
X143687500Y-97940000D01*
X144337500Y-97940000D02*
X146012500Y-97940000D01*
%TO.C,D0*%
X148272119Y-92497361D02*
X144984073Y-89209315D01*
X144984073Y-89209315D02*
X145549758Y-88643629D01*
X150534861Y-90234619D02*
X147246815Y-86946573D01*
%TD*%
M02*
