%TF.GenerationSoftware,KiCad,Pcbnew,(7.0.0)*%
%TF.CreationDate,2023-11-14T12:38:22+01:00*%
%TF.ProjectId,Helios_PCB_section,48656c69-6f73-45f5-9043-425f73656374,rev?*%
%TF.SameCoordinates,Original*%
%TF.FileFunction,Soldermask,Bot*%
%TF.FilePolarity,Negative*%
%FSLAX46Y46*%
G04 Gerber Fmt 4.6, Leading zero omitted, Abs format (unit mm)*
G04 Created by KiCad (PCBNEW (7.0.0)) date 2023-11-14 12:38:22*
%MOMM*%
%LPD*%
G01*
G04 APERTURE LIST*
%ADD10R,1.700000X1.700000*%
%ADD11O,1.700000X1.700000*%
%ADD12C,2.200000*%
%ADD13R,1.600000X1.600000*%
%ADD14O,1.600000X1.600000*%
%ADD15R,3.800000X3.800000*%
%ADD16C,3.800000*%
G04 APERTURE END LIST*
D10*
%TO.C,J4*%
X108999999Y-86199999D03*
D11*
X108999999Y-88739999D03*
X108999999Y-91279999D03*
X108999999Y-93819999D03*
%TD*%
D12*
%TO.C,H1*%
X94040000Y-100960000D03*
%TD*%
D10*
%TO.C,J5*%
X100999999Y-86199999D03*
D11*
X100999999Y-88739999D03*
X100999999Y-91279999D03*
X100999999Y-93819999D03*
%TD*%
D12*
%TO.C,H2*%
X115960000Y-79040000D03*
%TD*%
D10*
%TO.C,J6*%
X104999999Y-86199999D03*
D11*
X104999999Y-88739999D03*
X104999999Y-91279999D03*
X104999999Y-93819999D03*
%TD*%
D10*
%TO.C,J7*%
X106289999Y-99999999D03*
D11*
X103749999Y-99999999D03*
%TD*%
D10*
%TO.C,J2*%
X106274999Y-97499999D03*
D11*
X103734999Y-97499999D03*
%TD*%
D13*
%TO.C,U1*%
X97499999Y-105109999D03*
D14*
X97499999Y-102569999D03*
X97499999Y-100029999D03*
X97499999Y-97489999D03*
X97499999Y-94949999D03*
X97499999Y-92409999D03*
X97499999Y-89869999D03*
X97499999Y-87329999D03*
X97499999Y-84789999D03*
X97499999Y-82249999D03*
X97499999Y-79709999D03*
X97499999Y-77169999D03*
X112739999Y-77169999D03*
X112739999Y-79709999D03*
X112739999Y-82249999D03*
X112739999Y-84789999D03*
X112739999Y-87329999D03*
X112739999Y-89869999D03*
X112739999Y-92409999D03*
X112739999Y-94949999D03*
X112739999Y-97489999D03*
X112739999Y-100029999D03*
X112739999Y-102569999D03*
X112739999Y-105109999D03*
%TD*%
D15*
%TO.C,J1*%
X118499999Y-87499999D03*
D16*
X118500000Y-92500000D03*
%TD*%
D15*
%TO.C,J3*%
X91499999Y-87474999D03*
D16*
X91500000Y-92475000D03*
%TD*%
M02*
