%TF.GenerationSoftware,KiCad,Pcbnew,(7.0.0)*%
%TF.CreationDate,2023-11-14T12:38:22+01:00*%
%TF.ProjectId,Helios_PCB_section,48656c69-6f73-45f5-9043-425f73656374,rev?*%
%TF.SameCoordinates,Original*%
%TF.FileFunction,Legend,Top*%
%TF.FilePolarity,Positive*%
%FSLAX46Y46*%
G04 Gerber Fmt 4.6, Leading zero omitted, Abs format (unit mm)*
G04 Created by KiCad (PCBNEW (7.0.0)) date 2023-11-14 12:38:22*
%MOMM*%
%LPD*%
G01*
G04 APERTURE LIST*
%ADD10C,0.150000*%
%ADD11C,0.120000*%
G04 APERTURE END LIST*
D10*
X88798400Y-95173800D02*
X94208600Y-95173800D01*
X121208800Y-95199200D02*
X121208800Y-86461600D01*
X90093800Y-84759800D02*
X88798400Y-86436200D01*
X99800000Y-83500000D02*
X102200000Y-83500000D01*
X94208600Y-95173800D02*
X94208600Y-86461600D01*
X121208800Y-86461600D02*
X119913400Y-84785200D01*
X110000000Y-83500000D02*
X110000000Y-76750000D01*
X99800000Y-76750000D02*
X99800000Y-83500000D01*
X119913400Y-84785200D02*
X117094000Y-84785200D01*
X102200000Y-83500000D02*
X102200000Y-76750000D01*
X103000000Y-76750000D02*
X103000000Y-83500000D01*
X117094000Y-84785200D02*
X115798600Y-86487000D01*
X102200000Y-76750000D02*
X99800000Y-76750000D01*
X94208600Y-86461600D02*
X92913200Y-84759800D01*
X104950000Y-101600000D02*
X104950000Y-104167000D01*
X92913200Y-84759800D02*
X90093800Y-84759800D01*
X110000000Y-76750000D02*
X107750000Y-76750000D01*
X103000000Y-83500000D02*
X107000000Y-83500000D01*
X107000000Y-83500000D02*
X107000000Y-76750000D01*
X107000000Y-76750000D02*
X103000000Y-76750000D01*
X101352000Y-101600000D02*
X108548000Y-101600000D01*
X108548000Y-101600000D02*
X108548000Y-104167000D01*
X108548000Y-104167000D02*
X101352000Y-104167000D01*
X101352000Y-104167000D02*
X101352000Y-101600000D01*
X88798400Y-86436200D02*
X88798400Y-95173800D01*
X107750000Y-83500000D02*
X110000000Y-83500000D01*
X115798600Y-95199200D02*
X121208800Y-95199200D01*
X107750000Y-76750000D02*
X107750000Y-83500000D01*
X115798600Y-86487000D02*
X115798600Y-95199200D01*
X100671428Y-77558571D02*
X100338095Y-77558571D01*
X100338095Y-78082380D02*
X100338095Y-77082380D01*
X100338095Y-77082380D02*
X100814285Y-77082380D01*
X101100000Y-77082380D02*
X101766666Y-77082380D01*
X101766666Y-77082380D02*
X101338095Y-78082380D01*
X103300000Y-78034761D02*
X103442857Y-78082380D01*
X103442857Y-78082380D02*
X103680952Y-78082380D01*
X103680952Y-78082380D02*
X103776190Y-78034761D01*
X103776190Y-78034761D02*
X103823809Y-77987142D01*
X103823809Y-77987142D02*
X103871428Y-77891904D01*
X103871428Y-77891904D02*
X103871428Y-77796666D01*
X103871428Y-77796666D02*
X103823809Y-77701428D01*
X103823809Y-77701428D02*
X103776190Y-77653809D01*
X103776190Y-77653809D02*
X103680952Y-77606190D01*
X103680952Y-77606190D02*
X103490476Y-77558571D01*
X103490476Y-77558571D02*
X103395238Y-77510952D01*
X103395238Y-77510952D02*
X103347619Y-77463333D01*
X103347619Y-77463333D02*
X103300000Y-77368095D01*
X103300000Y-77368095D02*
X103300000Y-77272857D01*
X103300000Y-77272857D02*
X103347619Y-77177619D01*
X103347619Y-77177619D02*
X103395238Y-77130000D01*
X103395238Y-77130000D02*
X103490476Y-77082380D01*
X103490476Y-77082380D02*
X103728571Y-77082380D01*
X103728571Y-77082380D02*
X103871428Y-77130000D01*
X104871428Y-77987142D02*
X104823809Y-78034761D01*
X104823809Y-78034761D02*
X104680952Y-78082380D01*
X104680952Y-78082380D02*
X104585714Y-78082380D01*
X104585714Y-78082380D02*
X104442857Y-78034761D01*
X104442857Y-78034761D02*
X104347619Y-77939523D01*
X104347619Y-77939523D02*
X104300000Y-77844285D01*
X104300000Y-77844285D02*
X104252381Y-77653809D01*
X104252381Y-77653809D02*
X104252381Y-77510952D01*
X104252381Y-77510952D02*
X104300000Y-77320476D01*
X104300000Y-77320476D02*
X104347619Y-77225238D01*
X104347619Y-77225238D02*
X104442857Y-77130000D01*
X104442857Y-77130000D02*
X104585714Y-77082380D01*
X104585714Y-77082380D02*
X104680952Y-77082380D01*
X104680952Y-77082380D02*
X104823809Y-77130000D01*
X104823809Y-77130000D02*
X104871428Y-77177619D01*
X105776190Y-78082380D02*
X105300000Y-78082380D01*
X105300000Y-78082380D02*
X105300000Y-77082380D01*
X106633333Y-78082380D02*
X106061905Y-78082380D01*
X106347619Y-78082380D02*
X106347619Y-77082380D01*
X106347619Y-77082380D02*
X106252381Y-77225238D01*
X106252381Y-77225238D02*
X106157143Y-77320476D01*
X106157143Y-77320476D02*
X106061905Y-77368095D01*
X108595238Y-77558571D02*
X108261905Y-77558571D01*
X108261905Y-78082380D02*
X108261905Y-77082380D01*
X108261905Y-77082380D02*
X108738095Y-77082380D01*
X109309524Y-77082380D02*
X109404762Y-77082380D01*
X109404762Y-77082380D02*
X109500000Y-77130000D01*
X109500000Y-77130000D02*
X109547619Y-77177619D01*
X109547619Y-77177619D02*
X109595238Y-77272857D01*
X109595238Y-77272857D02*
X109642857Y-77463333D01*
X109642857Y-77463333D02*
X109642857Y-77701428D01*
X109642857Y-77701428D02*
X109595238Y-77891904D01*
X109595238Y-77891904D02*
X109547619Y-77987142D01*
X109547619Y-77987142D02*
X109500000Y-78034761D01*
X109500000Y-78034761D02*
X109404762Y-78082380D01*
X109404762Y-78082380D02*
X109309524Y-78082380D01*
X109309524Y-78082380D02*
X109214286Y-78034761D01*
X109214286Y-78034761D02*
X109166667Y-77987142D01*
X109166667Y-77987142D02*
X109119048Y-77891904D01*
X109119048Y-77891904D02*
X109071429Y-77701428D01*
X109071429Y-77701428D02*
X109071429Y-77463333D01*
X109071429Y-77463333D02*
X109119048Y-77272857D01*
X109119048Y-77272857D02*
X109166667Y-77177619D01*
X109166667Y-77177619D02*
X109214286Y-77130000D01*
X109214286Y-77130000D02*
X109309524Y-77082380D01*
X100671428Y-80858571D02*
X100338095Y-80858571D01*
X100338095Y-81382380D02*
X100338095Y-80382380D01*
X100338095Y-80382380D02*
X100814285Y-80382380D01*
X101671428Y-80382380D02*
X101195238Y-80382380D01*
X101195238Y-80382380D02*
X101147619Y-80858571D01*
X101147619Y-80858571D02*
X101195238Y-80810952D01*
X101195238Y-80810952D02*
X101290476Y-80763333D01*
X101290476Y-80763333D02*
X101528571Y-80763333D01*
X101528571Y-80763333D02*
X101623809Y-80810952D01*
X101623809Y-80810952D02*
X101671428Y-80858571D01*
X101671428Y-80858571D02*
X101719047Y-80953809D01*
X101719047Y-80953809D02*
X101719047Y-81191904D01*
X101719047Y-81191904D02*
X101671428Y-81287142D01*
X101671428Y-81287142D02*
X101623809Y-81334761D01*
X101623809Y-81334761D02*
X101528571Y-81382380D01*
X101528571Y-81382380D02*
X101290476Y-81382380D01*
X101290476Y-81382380D02*
X101195238Y-81334761D01*
X101195238Y-81334761D02*
X101147619Y-81287142D01*
X105023809Y-81382380D02*
X104547619Y-81382380D01*
X104547619Y-81382380D02*
X104547619Y-80382380D01*
X105880952Y-81382380D02*
X105309524Y-81382380D01*
X105595238Y-81382380D02*
X105595238Y-80382380D01*
X105595238Y-80382380D02*
X105500000Y-80525238D01*
X105500000Y-80525238D02*
X105404762Y-80620476D01*
X105404762Y-80620476D02*
X105309524Y-80668095D01*
X108442857Y-80858571D02*
X108109524Y-80858571D01*
X108109524Y-81382380D02*
X108109524Y-80382380D01*
X108109524Y-80382380D02*
X108585714Y-80382380D01*
X108919048Y-80477619D02*
X108966667Y-80430000D01*
X108966667Y-80430000D02*
X109061905Y-80382380D01*
X109061905Y-80382380D02*
X109300000Y-80382380D01*
X109300000Y-80382380D02*
X109395238Y-80430000D01*
X109395238Y-80430000D02*
X109442857Y-80477619D01*
X109442857Y-80477619D02*
X109490476Y-80572857D01*
X109490476Y-80572857D02*
X109490476Y-80668095D01*
X109490476Y-80668095D02*
X109442857Y-80810952D01*
X109442857Y-80810952D02*
X108871429Y-81382380D01*
X108871429Y-81382380D02*
X109490476Y-81382380D01*
X100671428Y-79158571D02*
X100338095Y-79158571D01*
X100338095Y-79682380D02*
X100338095Y-78682380D01*
X100338095Y-78682380D02*
X100814285Y-78682380D01*
X101623809Y-78682380D02*
X101433333Y-78682380D01*
X101433333Y-78682380D02*
X101338095Y-78730000D01*
X101338095Y-78730000D02*
X101290476Y-78777619D01*
X101290476Y-78777619D02*
X101195238Y-78920476D01*
X101195238Y-78920476D02*
X101147619Y-79110952D01*
X101147619Y-79110952D02*
X101147619Y-79491904D01*
X101147619Y-79491904D02*
X101195238Y-79587142D01*
X101195238Y-79587142D02*
X101242857Y-79634761D01*
X101242857Y-79634761D02*
X101338095Y-79682380D01*
X101338095Y-79682380D02*
X101528571Y-79682380D01*
X101528571Y-79682380D02*
X101623809Y-79634761D01*
X101623809Y-79634761D02*
X101671428Y-79587142D01*
X101671428Y-79587142D02*
X101719047Y-79491904D01*
X101719047Y-79491904D02*
X101719047Y-79253809D01*
X101719047Y-79253809D02*
X101671428Y-79158571D01*
X101671428Y-79158571D02*
X101623809Y-79110952D01*
X101623809Y-79110952D02*
X101528571Y-79063333D01*
X101528571Y-79063333D02*
X101338095Y-79063333D01*
X101338095Y-79063333D02*
X101242857Y-79110952D01*
X101242857Y-79110952D02*
X101195238Y-79158571D01*
X101195238Y-79158571D02*
X101147619Y-79253809D01*
X103300000Y-79634761D02*
X103442857Y-79682380D01*
X103442857Y-79682380D02*
X103680952Y-79682380D01*
X103680952Y-79682380D02*
X103776190Y-79634761D01*
X103776190Y-79634761D02*
X103823809Y-79587142D01*
X103823809Y-79587142D02*
X103871428Y-79491904D01*
X103871428Y-79491904D02*
X103871428Y-79396666D01*
X103871428Y-79396666D02*
X103823809Y-79301428D01*
X103823809Y-79301428D02*
X103776190Y-79253809D01*
X103776190Y-79253809D02*
X103680952Y-79206190D01*
X103680952Y-79206190D02*
X103490476Y-79158571D01*
X103490476Y-79158571D02*
X103395238Y-79110952D01*
X103395238Y-79110952D02*
X103347619Y-79063333D01*
X103347619Y-79063333D02*
X103300000Y-78968095D01*
X103300000Y-78968095D02*
X103300000Y-78872857D01*
X103300000Y-78872857D02*
X103347619Y-78777619D01*
X103347619Y-78777619D02*
X103395238Y-78730000D01*
X103395238Y-78730000D02*
X103490476Y-78682380D01*
X103490476Y-78682380D02*
X103728571Y-78682380D01*
X103728571Y-78682380D02*
X103871428Y-78730000D01*
X104300000Y-79682380D02*
X104300000Y-78682380D01*
X104300000Y-78682380D02*
X104538095Y-78682380D01*
X104538095Y-78682380D02*
X104680952Y-78730000D01*
X104680952Y-78730000D02*
X104776190Y-78825238D01*
X104776190Y-78825238D02*
X104823809Y-78920476D01*
X104823809Y-78920476D02*
X104871428Y-79110952D01*
X104871428Y-79110952D02*
X104871428Y-79253809D01*
X104871428Y-79253809D02*
X104823809Y-79444285D01*
X104823809Y-79444285D02*
X104776190Y-79539523D01*
X104776190Y-79539523D02*
X104680952Y-79634761D01*
X104680952Y-79634761D02*
X104538095Y-79682380D01*
X104538095Y-79682380D02*
X104300000Y-79682380D01*
X105252381Y-79396666D02*
X105728571Y-79396666D01*
X105157143Y-79682380D02*
X105490476Y-78682380D01*
X105490476Y-78682380D02*
X105823809Y-79682380D01*
X106680952Y-79682380D02*
X106109524Y-79682380D01*
X106395238Y-79682380D02*
X106395238Y-78682380D01*
X106395238Y-78682380D02*
X106300000Y-78825238D01*
X106300000Y-78825238D02*
X106204762Y-78920476D01*
X106204762Y-78920476D02*
X106109524Y-78968095D01*
X108642857Y-79158571D02*
X108309524Y-79158571D01*
X108309524Y-79682380D02*
X108309524Y-78682380D01*
X108309524Y-78682380D02*
X108785714Y-78682380D01*
X109690476Y-79682380D02*
X109119048Y-79682380D01*
X109404762Y-79682380D02*
X109404762Y-78682380D01*
X109404762Y-78682380D02*
X109309524Y-78825238D01*
X109309524Y-78825238D02*
X109214286Y-78920476D01*
X109214286Y-78920476D02*
X109119048Y-78968095D01*
X88785676Y-96726304D02*
X88785676Y-95926304D01*
X88785676Y-96307257D02*
X89242819Y-96307257D01*
X89242819Y-96726304D02*
X89242819Y-95926304D01*
X89928533Y-96688209D02*
X89852342Y-96726304D01*
X89852342Y-96726304D02*
X89699961Y-96726304D01*
X89699961Y-96726304D02*
X89623771Y-96688209D01*
X89623771Y-96688209D02*
X89585675Y-96612019D01*
X89585675Y-96612019D02*
X89585675Y-96307257D01*
X89585675Y-96307257D02*
X89623771Y-96231066D01*
X89623771Y-96231066D02*
X89699961Y-96192971D01*
X89699961Y-96192971D02*
X89852342Y-96192971D01*
X89852342Y-96192971D02*
X89928533Y-96231066D01*
X89928533Y-96231066D02*
X89966628Y-96307257D01*
X89966628Y-96307257D02*
X89966628Y-96383447D01*
X89966628Y-96383447D02*
X89585675Y-96459638D01*
X90423770Y-96726304D02*
X90347580Y-96688209D01*
X90347580Y-96688209D02*
X90309485Y-96612019D01*
X90309485Y-96612019D02*
X90309485Y-95926304D01*
X90728533Y-96726304D02*
X90728533Y-96192971D01*
X90728533Y-95926304D02*
X90690437Y-95964400D01*
X90690437Y-95964400D02*
X90728533Y-96002495D01*
X90728533Y-96002495D02*
X90766628Y-95964400D01*
X90766628Y-95964400D02*
X90728533Y-95926304D01*
X90728533Y-95926304D02*
X90728533Y-96002495D01*
X91223770Y-96726304D02*
X91147580Y-96688209D01*
X91147580Y-96688209D02*
X91109485Y-96650114D01*
X91109485Y-96650114D02*
X91071389Y-96573923D01*
X91071389Y-96573923D02*
X91071389Y-96345352D01*
X91071389Y-96345352D02*
X91109485Y-96269161D01*
X91109485Y-96269161D02*
X91147580Y-96231066D01*
X91147580Y-96231066D02*
X91223770Y-96192971D01*
X91223770Y-96192971D02*
X91338056Y-96192971D01*
X91338056Y-96192971D02*
X91414247Y-96231066D01*
X91414247Y-96231066D02*
X91452342Y-96269161D01*
X91452342Y-96269161D02*
X91490437Y-96345352D01*
X91490437Y-96345352D02*
X91490437Y-96573923D01*
X91490437Y-96573923D02*
X91452342Y-96650114D01*
X91452342Y-96650114D02*
X91414247Y-96688209D01*
X91414247Y-96688209D02*
X91338056Y-96726304D01*
X91338056Y-96726304D02*
X91223770Y-96726304D01*
X91795199Y-96688209D02*
X91871390Y-96726304D01*
X91871390Y-96726304D02*
X92023771Y-96726304D01*
X92023771Y-96726304D02*
X92099961Y-96688209D01*
X92099961Y-96688209D02*
X92138057Y-96612019D01*
X92138057Y-96612019D02*
X92138057Y-96573923D01*
X92138057Y-96573923D02*
X92099961Y-96497733D01*
X92099961Y-96497733D02*
X92023771Y-96459638D01*
X92023771Y-96459638D02*
X91909485Y-96459638D01*
X91909485Y-96459638D02*
X91833295Y-96421542D01*
X91833295Y-96421542D02*
X91795199Y-96345352D01*
X91795199Y-96345352D02*
X91795199Y-96307257D01*
X91795199Y-96307257D02*
X91833295Y-96231066D01*
X91833295Y-96231066D02*
X91909485Y-96192971D01*
X91909485Y-96192971D02*
X92023771Y-96192971D01*
X92023771Y-96192971D02*
X92099961Y-96231066D01*
X92846628Y-95926304D02*
X93113295Y-96726304D01*
X93113295Y-96726304D02*
X93379961Y-95926304D01*
X93608532Y-96002495D02*
X93646628Y-95964400D01*
X93646628Y-95964400D02*
X93722818Y-95926304D01*
X93722818Y-95926304D02*
X93913294Y-95926304D01*
X93913294Y-95926304D02*
X93989485Y-95964400D01*
X93989485Y-95964400D02*
X94027580Y-96002495D01*
X94027580Y-96002495D02*
X94065675Y-96078685D01*
X94065675Y-96078685D02*
X94065675Y-96154876D01*
X94065675Y-96154876D02*
X94027580Y-96269161D01*
X94027580Y-96269161D02*
X93570437Y-96726304D01*
X93570437Y-96726304D02*
X94065675Y-96726304D01*
X94408533Y-96650114D02*
X94446628Y-96688209D01*
X94446628Y-96688209D02*
X94408533Y-96726304D01*
X94408533Y-96726304D02*
X94370437Y-96688209D01*
X94370437Y-96688209D02*
X94408533Y-96650114D01*
X94408533Y-96650114D02*
X94408533Y-96726304D01*
X95208532Y-96726304D02*
X94751389Y-96726304D01*
X94979961Y-96726304D02*
X94979961Y-95926304D01*
X94979961Y-95926304D02*
X94903770Y-96040590D01*
X94903770Y-96040590D02*
X94827580Y-96116780D01*
X94827580Y-96116780D02*
X94751389Y-96154876D01*
X88747580Y-97298495D02*
X88785676Y-97260400D01*
X88785676Y-97260400D02*
X88861866Y-97222304D01*
X88861866Y-97222304D02*
X89052342Y-97222304D01*
X89052342Y-97222304D02*
X89128533Y-97260400D01*
X89128533Y-97260400D02*
X89166628Y-97298495D01*
X89166628Y-97298495D02*
X89204723Y-97374685D01*
X89204723Y-97374685D02*
X89204723Y-97450876D01*
X89204723Y-97450876D02*
X89166628Y-97565161D01*
X89166628Y-97565161D02*
X88709485Y-98022304D01*
X88709485Y-98022304D02*
X89204723Y-98022304D01*
X89699962Y-97222304D02*
X89776152Y-97222304D01*
X89776152Y-97222304D02*
X89852343Y-97260400D01*
X89852343Y-97260400D02*
X89890438Y-97298495D01*
X89890438Y-97298495D02*
X89928533Y-97374685D01*
X89928533Y-97374685D02*
X89966628Y-97527066D01*
X89966628Y-97527066D02*
X89966628Y-97717542D01*
X89966628Y-97717542D02*
X89928533Y-97869923D01*
X89928533Y-97869923D02*
X89890438Y-97946114D01*
X89890438Y-97946114D02*
X89852343Y-97984209D01*
X89852343Y-97984209D02*
X89776152Y-98022304D01*
X89776152Y-98022304D02*
X89699962Y-98022304D01*
X89699962Y-98022304D02*
X89623771Y-97984209D01*
X89623771Y-97984209D02*
X89585676Y-97946114D01*
X89585676Y-97946114D02*
X89547581Y-97869923D01*
X89547581Y-97869923D02*
X89509485Y-97717542D01*
X89509485Y-97717542D02*
X89509485Y-97527066D01*
X89509485Y-97527066D02*
X89547581Y-97374685D01*
X89547581Y-97374685D02*
X89585676Y-97298495D01*
X89585676Y-97298495D02*
X89623771Y-97260400D01*
X89623771Y-97260400D02*
X89699962Y-97222304D01*
X90271390Y-97298495D02*
X90309486Y-97260400D01*
X90309486Y-97260400D02*
X90385676Y-97222304D01*
X90385676Y-97222304D02*
X90576152Y-97222304D01*
X90576152Y-97222304D02*
X90652343Y-97260400D01*
X90652343Y-97260400D02*
X90690438Y-97298495D01*
X90690438Y-97298495D02*
X90728533Y-97374685D01*
X90728533Y-97374685D02*
X90728533Y-97450876D01*
X90728533Y-97450876D02*
X90690438Y-97565161D01*
X90690438Y-97565161D02*
X90233295Y-98022304D01*
X90233295Y-98022304D02*
X90728533Y-98022304D01*
X90995200Y-97222304D02*
X91490438Y-97222304D01*
X91490438Y-97222304D02*
X91223772Y-97527066D01*
X91223772Y-97527066D02*
X91338057Y-97527066D01*
X91338057Y-97527066D02*
X91414248Y-97565161D01*
X91414248Y-97565161D02*
X91452343Y-97603257D01*
X91452343Y-97603257D02*
X91490438Y-97679447D01*
X91490438Y-97679447D02*
X91490438Y-97869923D01*
X91490438Y-97869923D02*
X91452343Y-97946114D01*
X91452343Y-97946114D02*
X91414248Y-97984209D01*
X91414248Y-97984209D02*
X91338057Y-98022304D01*
X91338057Y-98022304D02*
X91109486Y-98022304D01*
X91109486Y-98022304D02*
X91033295Y-97984209D01*
X91033295Y-97984209D02*
X90995200Y-97946114D01*
X121769180Y-92605314D02*
X121769180Y-93081504D01*
X121769180Y-93081504D02*
X122245371Y-93129123D01*
X122245371Y-93129123D02*
X122197752Y-93081504D01*
X122197752Y-93081504D02*
X122150133Y-92986266D01*
X122150133Y-92986266D02*
X122150133Y-92748171D01*
X122150133Y-92748171D02*
X122197752Y-92652933D01*
X122197752Y-92652933D02*
X122245371Y-92605314D01*
X122245371Y-92605314D02*
X122340609Y-92557695D01*
X122340609Y-92557695D02*
X122578704Y-92557695D01*
X122578704Y-92557695D02*
X122673942Y-92605314D01*
X122673942Y-92605314D02*
X122721561Y-92652933D01*
X122721561Y-92652933D02*
X122769180Y-92748171D01*
X122769180Y-92748171D02*
X122769180Y-92986266D01*
X122769180Y-92986266D02*
X122721561Y-93081504D01*
X122721561Y-93081504D02*
X122673942Y-93129123D01*
X121769180Y-92271980D02*
X122769180Y-91938647D01*
X122769180Y-91938647D02*
X121769180Y-91605314D01*
X87923561Y-88811123D02*
X87971180Y-88668266D01*
X87971180Y-88668266D02*
X87971180Y-88430171D01*
X87971180Y-88430171D02*
X87923561Y-88334933D01*
X87923561Y-88334933D02*
X87875942Y-88287314D01*
X87875942Y-88287314D02*
X87780704Y-88239695D01*
X87780704Y-88239695D02*
X87685466Y-88239695D01*
X87685466Y-88239695D02*
X87590228Y-88287314D01*
X87590228Y-88287314D02*
X87542609Y-88334933D01*
X87542609Y-88334933D02*
X87494990Y-88430171D01*
X87494990Y-88430171D02*
X87447371Y-88620647D01*
X87447371Y-88620647D02*
X87399752Y-88715885D01*
X87399752Y-88715885D02*
X87352133Y-88763504D01*
X87352133Y-88763504D02*
X87256895Y-88811123D01*
X87256895Y-88811123D02*
X87161657Y-88811123D01*
X87161657Y-88811123D02*
X87066419Y-88763504D01*
X87066419Y-88763504D02*
X87018800Y-88715885D01*
X87018800Y-88715885D02*
X86971180Y-88620647D01*
X86971180Y-88620647D02*
X86971180Y-88382552D01*
X86971180Y-88382552D02*
X87018800Y-88239695D01*
X87875942Y-87239695D02*
X87923561Y-87287314D01*
X87923561Y-87287314D02*
X87971180Y-87430171D01*
X87971180Y-87430171D02*
X87971180Y-87525409D01*
X87971180Y-87525409D02*
X87923561Y-87668266D01*
X87923561Y-87668266D02*
X87828323Y-87763504D01*
X87828323Y-87763504D02*
X87733085Y-87811123D01*
X87733085Y-87811123D02*
X87542609Y-87858742D01*
X87542609Y-87858742D02*
X87399752Y-87858742D01*
X87399752Y-87858742D02*
X87209276Y-87811123D01*
X87209276Y-87811123D02*
X87114038Y-87763504D01*
X87114038Y-87763504D02*
X87018800Y-87668266D01*
X87018800Y-87668266D02*
X86971180Y-87525409D01*
X86971180Y-87525409D02*
X86971180Y-87430171D01*
X86971180Y-87430171D02*
X87018800Y-87287314D01*
X87018800Y-87287314D02*
X87066419Y-87239695D01*
X87971180Y-86334933D02*
X87971180Y-86811123D01*
X87971180Y-86811123D02*
X86971180Y-86811123D01*
X100671428Y-82458571D02*
X100338095Y-82458571D01*
X100338095Y-82982380D02*
X100338095Y-81982380D01*
X100338095Y-81982380D02*
X100814285Y-81982380D01*
X101623809Y-82315714D02*
X101623809Y-82982380D01*
X101385714Y-81934761D02*
X101147619Y-82649047D01*
X101147619Y-82649047D02*
X101766666Y-82649047D01*
X105023809Y-82982380D02*
X104547619Y-82982380D01*
X104547619Y-82982380D02*
X104547619Y-81982380D01*
X105547619Y-81982380D02*
X105642857Y-81982380D01*
X105642857Y-81982380D02*
X105738095Y-82030000D01*
X105738095Y-82030000D02*
X105785714Y-82077619D01*
X105785714Y-82077619D02*
X105833333Y-82172857D01*
X105833333Y-82172857D02*
X105880952Y-82363333D01*
X105880952Y-82363333D02*
X105880952Y-82601428D01*
X105880952Y-82601428D02*
X105833333Y-82791904D01*
X105833333Y-82791904D02*
X105785714Y-82887142D01*
X105785714Y-82887142D02*
X105738095Y-82934761D01*
X105738095Y-82934761D02*
X105642857Y-82982380D01*
X105642857Y-82982380D02*
X105547619Y-82982380D01*
X105547619Y-82982380D02*
X105452381Y-82934761D01*
X105452381Y-82934761D02*
X105404762Y-82887142D01*
X105404762Y-82887142D02*
X105357143Y-82791904D01*
X105357143Y-82791904D02*
X105309524Y-82601428D01*
X105309524Y-82601428D02*
X105309524Y-82363333D01*
X105309524Y-82363333D02*
X105357143Y-82172857D01*
X105357143Y-82172857D02*
X105404762Y-82077619D01*
X105404762Y-82077619D02*
X105452381Y-82030000D01*
X105452381Y-82030000D02*
X105547619Y-81982380D01*
X108442857Y-82458571D02*
X108109524Y-82458571D01*
X108109524Y-82982380D02*
X108109524Y-81982380D01*
X108109524Y-81982380D02*
X108585714Y-81982380D01*
X108871429Y-81982380D02*
X109490476Y-81982380D01*
X109490476Y-81982380D02*
X109157143Y-82363333D01*
X109157143Y-82363333D02*
X109300000Y-82363333D01*
X109300000Y-82363333D02*
X109395238Y-82410952D01*
X109395238Y-82410952D02*
X109442857Y-82458571D01*
X109442857Y-82458571D02*
X109490476Y-82553809D01*
X109490476Y-82553809D02*
X109490476Y-82791904D01*
X109490476Y-82791904D02*
X109442857Y-82887142D01*
X109442857Y-82887142D02*
X109395238Y-82934761D01*
X109395238Y-82934761D02*
X109300000Y-82982380D01*
X109300000Y-82982380D02*
X109014286Y-82982380D01*
X109014286Y-82982380D02*
X108919048Y-82934761D01*
X108919048Y-82934761D02*
X108871429Y-82887142D01*
X102361904Y-102430000D02*
X102266666Y-102382380D01*
X102266666Y-102382380D02*
X102123809Y-102382380D01*
X102123809Y-102382380D02*
X101980952Y-102430000D01*
X101980952Y-102430000D02*
X101885714Y-102525238D01*
X101885714Y-102525238D02*
X101838095Y-102620476D01*
X101838095Y-102620476D02*
X101790476Y-102810952D01*
X101790476Y-102810952D02*
X101790476Y-102953809D01*
X101790476Y-102953809D02*
X101838095Y-103144285D01*
X101838095Y-103144285D02*
X101885714Y-103239523D01*
X101885714Y-103239523D02*
X101980952Y-103334761D01*
X101980952Y-103334761D02*
X102123809Y-103382380D01*
X102123809Y-103382380D02*
X102219047Y-103382380D01*
X102219047Y-103382380D02*
X102361904Y-103334761D01*
X102361904Y-103334761D02*
X102409523Y-103287142D01*
X102409523Y-103287142D02*
X102409523Y-102953809D01*
X102409523Y-102953809D02*
X102219047Y-102953809D01*
X102838095Y-103382380D02*
X102838095Y-102382380D01*
X102838095Y-102382380D02*
X103409523Y-103382380D01*
X103409523Y-103382380D02*
X103409523Y-102382380D01*
X103885714Y-103382380D02*
X103885714Y-102382380D01*
X103885714Y-102382380D02*
X104123809Y-102382380D01*
X104123809Y-102382380D02*
X104266666Y-102430000D01*
X104266666Y-102430000D02*
X104361904Y-102525238D01*
X104361904Y-102525238D02*
X104409523Y-102620476D01*
X104409523Y-102620476D02*
X104457142Y-102810952D01*
X104457142Y-102810952D02*
X104457142Y-102953809D01*
X104457142Y-102953809D02*
X104409523Y-103144285D01*
X104409523Y-103144285D02*
X104361904Y-103239523D01*
X104361904Y-103239523D02*
X104266666Y-103334761D01*
X104266666Y-103334761D02*
X104123809Y-103382380D01*
X104123809Y-103382380D02*
X103885714Y-103382380D01*
X105485714Y-103001428D02*
X106247619Y-103001428D01*
X105866666Y-103382380D02*
X105866666Y-102620476D01*
X107199999Y-102382380D02*
X106723809Y-102382380D01*
X106723809Y-102382380D02*
X106676190Y-102858571D01*
X106676190Y-102858571D02*
X106723809Y-102810952D01*
X106723809Y-102810952D02*
X106819047Y-102763333D01*
X106819047Y-102763333D02*
X107057142Y-102763333D01*
X107057142Y-102763333D02*
X107152380Y-102810952D01*
X107152380Y-102810952D02*
X107199999Y-102858571D01*
X107199999Y-102858571D02*
X107247618Y-102953809D01*
X107247618Y-102953809D02*
X107247618Y-103191904D01*
X107247618Y-103191904D02*
X107199999Y-103287142D01*
X107199999Y-103287142D02*
X107152380Y-103334761D01*
X107152380Y-103334761D02*
X107057142Y-103382380D01*
X107057142Y-103382380D02*
X106819047Y-103382380D01*
X106819047Y-103382380D02*
X106723809Y-103334761D01*
X106723809Y-103334761D02*
X106676190Y-103287142D01*
X107533333Y-102382380D02*
X107866666Y-103382380D01*
X107866666Y-103382380D02*
X108199999Y-102382380D01*
X121867600Y-88290495D02*
X121819980Y-88385733D01*
X121819980Y-88385733D02*
X121819980Y-88528590D01*
X121819980Y-88528590D02*
X121867600Y-88671447D01*
X121867600Y-88671447D02*
X121962838Y-88766685D01*
X121962838Y-88766685D02*
X122058076Y-88814304D01*
X122058076Y-88814304D02*
X122248552Y-88861923D01*
X122248552Y-88861923D02*
X122391409Y-88861923D01*
X122391409Y-88861923D02*
X122581885Y-88814304D01*
X122581885Y-88814304D02*
X122677123Y-88766685D01*
X122677123Y-88766685D02*
X122772361Y-88671447D01*
X122772361Y-88671447D02*
X122819980Y-88528590D01*
X122819980Y-88528590D02*
X122819980Y-88433352D01*
X122819980Y-88433352D02*
X122772361Y-88290495D01*
X122772361Y-88290495D02*
X122724742Y-88242876D01*
X122724742Y-88242876D02*
X122391409Y-88242876D01*
X122391409Y-88242876D02*
X122391409Y-88433352D01*
X122819980Y-87814304D02*
X121819980Y-87814304D01*
X121819980Y-87814304D02*
X122819980Y-87242876D01*
X122819980Y-87242876D02*
X121819980Y-87242876D01*
X122819980Y-86766685D02*
X121819980Y-86766685D01*
X121819980Y-86766685D02*
X121819980Y-86528590D01*
X121819980Y-86528590D02*
X121867600Y-86385733D01*
X121867600Y-86385733D02*
X121962838Y-86290495D01*
X121962838Y-86290495D02*
X122058076Y-86242876D01*
X122058076Y-86242876D02*
X122248552Y-86195257D01*
X122248552Y-86195257D02*
X122391409Y-86195257D01*
X122391409Y-86195257D02*
X122581885Y-86242876D01*
X122581885Y-86242876D02*
X122677123Y-86290495D01*
X122677123Y-86290495D02*
X122772361Y-86385733D01*
X122772361Y-86385733D02*
X122819980Y-86528590D01*
X122819980Y-86528590D02*
X122819980Y-86766685D01*
X87923561Y-93637123D02*
X87971180Y-93494266D01*
X87971180Y-93494266D02*
X87971180Y-93256171D01*
X87971180Y-93256171D02*
X87923561Y-93160933D01*
X87923561Y-93160933D02*
X87875942Y-93113314D01*
X87875942Y-93113314D02*
X87780704Y-93065695D01*
X87780704Y-93065695D02*
X87685466Y-93065695D01*
X87685466Y-93065695D02*
X87590228Y-93113314D01*
X87590228Y-93113314D02*
X87542609Y-93160933D01*
X87542609Y-93160933D02*
X87494990Y-93256171D01*
X87494990Y-93256171D02*
X87447371Y-93446647D01*
X87447371Y-93446647D02*
X87399752Y-93541885D01*
X87399752Y-93541885D02*
X87352133Y-93589504D01*
X87352133Y-93589504D02*
X87256895Y-93637123D01*
X87256895Y-93637123D02*
X87161657Y-93637123D01*
X87161657Y-93637123D02*
X87066419Y-93589504D01*
X87066419Y-93589504D02*
X87018800Y-93541885D01*
X87018800Y-93541885D02*
X86971180Y-93446647D01*
X86971180Y-93446647D02*
X86971180Y-93208552D01*
X86971180Y-93208552D02*
X87018800Y-93065695D01*
X87971180Y-92637123D02*
X86971180Y-92637123D01*
X86971180Y-92637123D02*
X86971180Y-92399028D01*
X86971180Y-92399028D02*
X87018800Y-92256171D01*
X87018800Y-92256171D02*
X87114038Y-92160933D01*
X87114038Y-92160933D02*
X87209276Y-92113314D01*
X87209276Y-92113314D02*
X87399752Y-92065695D01*
X87399752Y-92065695D02*
X87542609Y-92065695D01*
X87542609Y-92065695D02*
X87733085Y-92113314D01*
X87733085Y-92113314D02*
X87828323Y-92160933D01*
X87828323Y-92160933D02*
X87923561Y-92256171D01*
X87923561Y-92256171D02*
X87971180Y-92399028D01*
X87971180Y-92399028D02*
X87971180Y-92637123D01*
X87685466Y-91684742D02*
X87685466Y-91208552D01*
X87971180Y-91779980D02*
X86971180Y-91446647D01*
X86971180Y-91446647D02*
X87971180Y-91113314D01*
D11*
%TO.C,J4*%
X107670000Y-84870000D02*
X109000000Y-84870000D01*
X107670000Y-86200000D02*
X107670000Y-84870000D01*
X107670000Y-87470000D02*
X107670000Y-95150000D01*
X107670000Y-87470000D02*
X110330000Y-87470000D01*
X107670000Y-95150000D02*
X110330000Y-95150000D01*
X110330000Y-87470000D02*
X110330000Y-95150000D01*
%TO.C,J5*%
X99670000Y-84870000D02*
X101000000Y-84870000D01*
X99670000Y-86200000D02*
X99670000Y-84870000D01*
X99670000Y-87470000D02*
X99670000Y-95150000D01*
X99670000Y-87470000D02*
X102330000Y-87470000D01*
X99670000Y-95150000D02*
X102330000Y-95150000D01*
X102330000Y-87470000D02*
X102330000Y-95150000D01*
%TO.C,J6*%
X103670000Y-84870000D02*
X105000000Y-84870000D01*
X103670000Y-86200000D02*
X103670000Y-84870000D01*
X103670000Y-87470000D02*
X103670000Y-95150000D01*
X103670000Y-87470000D02*
X106330000Y-87470000D01*
X103670000Y-95150000D02*
X106330000Y-95150000D01*
X106330000Y-87470000D02*
X106330000Y-95150000D01*
%TO.C,J7*%
X107620000Y-98670000D02*
X107620000Y-100000000D01*
X106290000Y-98670000D02*
X107620000Y-98670000D01*
X105020000Y-98670000D02*
X102420000Y-98670000D01*
X105020000Y-98670000D02*
X105020000Y-101330000D01*
X102420000Y-98670000D02*
X102420000Y-101330000D01*
X105020000Y-101330000D02*
X102420000Y-101330000D01*
%TO.C,J2*%
X107605000Y-96170000D02*
X107605000Y-97500000D01*
X106275000Y-96170000D02*
X107605000Y-96170000D01*
X105005000Y-96170000D02*
X102405000Y-96170000D01*
X105005000Y-96170000D02*
X105005000Y-98830000D01*
X102405000Y-96170000D02*
X102405000Y-98830000D01*
X105005000Y-98830000D02*
X102405000Y-98830000D01*
%TD*%
M02*
