M48
; DRILL file {KiCad (7.0.0)} date Tue Nov 14 12:38:25 2023
; FORMAT={-:-/ absolute / metric / decimal}
; #@! TF.CreationDate,2023-11-14T12:38:25+01:00
; #@! TF.GenerationSoftware,Kicad,Pcbnew,(7.0.0)
; #@! TF.FileFunction,Plated,1,2,PTH
FMAT,2
METRIC
; #@! TA.AperFunction,Plated,PTH,ComponentDrill
T1C0.800
; #@! TA.AperFunction,Plated,PTH,ComponentDrill
T2C1.000
; #@! TA.AperFunction,Plated,PTH,ComponentDrill
T3C2.700
%
G90
G05
T1
X97.5Y-77.17
X97.5Y-79.71
X97.5Y-82.25
X97.5Y-84.79
X97.5Y-87.33
X97.5Y-89.87
X97.5Y-92.41
X97.5Y-94.95
X97.5Y-97.49
X97.5Y-100.03
X97.5Y-102.57
X97.5Y-105.11
X112.74Y-77.17
X112.74Y-79.71
X112.74Y-82.25
X112.74Y-84.79
X112.74Y-87.33
X112.74Y-89.87
X112.74Y-92.41
X112.74Y-94.95
X112.74Y-97.49
X112.74Y-100.03
X112.74Y-102.57
X112.74Y-105.11
T2
X101.0Y-86.2
X101.0Y-88.74
X101.0Y-91.28
X101.0Y-93.82
X103.735Y-97.5
X103.75Y-100.0
X105.0Y-86.2
X105.0Y-88.74
X105.0Y-91.28
X105.0Y-93.82
X106.275Y-97.5
X106.29Y-100.0
X109.0Y-86.2
X109.0Y-88.74
X109.0Y-91.28
X109.0Y-93.82
T3
X91.5Y-87.475
X91.5Y-92.475
X118.5Y-87.5
X118.5Y-92.5
T0
M30
