%TF.GenerationSoftware,KiCad,Pcbnew,(7.0.0)*%
%TF.CreationDate,2023-11-14T12:38:22+01:00*%
%TF.ProjectId,Helios_PCB_section,48656c69-6f73-45f5-9043-425f73656374,rev?*%
%TF.SameCoordinates,Original*%
%TF.FileFunction,Copper,L1,Top*%
%TF.FilePolarity,Positive*%
%FSLAX46Y46*%
G04 Gerber Fmt 4.6, Leading zero omitted, Abs format (unit mm)*
G04 Created by KiCad (PCBNEW (7.0.0)) date 2023-11-14 12:38:22*
%MOMM*%
%LPD*%
G01*
G04 APERTURE LIST*
%TA.AperFunction,ComponentPad*%
%ADD10R,1.700000X1.700000*%
%TD*%
%TA.AperFunction,ComponentPad*%
%ADD11O,1.700000X1.700000*%
%TD*%
%TA.AperFunction,ComponentPad*%
%ADD12R,1.600000X1.600000*%
%TD*%
%TA.AperFunction,ComponentPad*%
%ADD13O,1.600000X1.600000*%
%TD*%
%TA.AperFunction,ComponentPad*%
%ADD14R,3.800000X3.800000*%
%TD*%
%TA.AperFunction,ComponentPad*%
%ADD15C,3.800000*%
%TD*%
%TA.AperFunction,Conductor*%
%ADD16C,1.000000*%
%TD*%
G04 APERTURE END LIST*
D10*
%TO.P,J4,1,Pin_1*%
%TO.N,F0*%
X108999999Y-86199999D03*
D11*
%TO.P,J4,2,Pin_2*%
%TO.N,F1*%
X108999999Y-88739999D03*
%TO.P,J4,3,Pin_3*%
%TO.N,F2*%
X108999999Y-91279999D03*
%TO.P,J4,4,Pin_4*%
%TO.N,F3*%
X108999999Y-93819999D03*
%TD*%
D10*
%TO.P,J5,1,Pin_1*%
%TO.N,F7*%
X100999999Y-86199999D03*
D11*
%TO.P,J5,2,Pin_2*%
%TO.N,F6*%
X100999999Y-88739999D03*
%TO.P,J5,3,Pin_3*%
%TO.N,F5*%
X100999999Y-91279999D03*
%TO.P,J5,4,Pin_4*%
%TO.N,F4*%
X100999999Y-93819999D03*
%TD*%
D10*
%TO.P,J6,1,Pin_1*%
%TO.N,SCL1*%
X104999999Y-86199999D03*
D11*
%TO.P,J6,2,Pin_2*%
%TO.N,SDA1*%
X104999999Y-88739999D03*
%TO.P,J6,3,Pin_3*%
%TO.N,L1*%
X104999999Y-91279999D03*
%TO.P,J6,4,Pin_4*%
%TO.N,L0*%
X104999999Y-93819999D03*
%TD*%
D10*
%TO.P,J7,1,Pin_1*%
%TO.N,+5V*%
X106289999Y-99999999D03*
D11*
%TO.P,J7,2,Pin_2*%
%TO.N,GND*%
X103749999Y-99999999D03*
%TD*%
D10*
%TO.P,J2,1,Pin_1*%
%TO.N,+5V*%
X106274999Y-97499999D03*
D11*
%TO.P,J2,2,Pin_2*%
%TO.N,GND*%
X103734999Y-97499999D03*
%TD*%
D12*
%TO.P,U1,1,D1/TX*%
%TO.N,unconnected-(U1-D1{slash}TX-Pad1)*%
X97499999Y-105109999D03*
D13*
%TO.P,U1,2,D0/RX*%
%TO.N,unconnected-(U1-D0{slash}RX-Pad2)*%
X97499999Y-102569999D03*
%TO.P,U1,3,GND*%
%TO.N,GND*%
X97499999Y-100029999D03*
%TO.P,U1,4,GND*%
X97499999Y-97489999D03*
%TO.P,U1,5,D2*%
%TO.N,SDA*%
X97499999Y-94949999D03*
%TO.P,U1,6,~D3*%
%TO.N,SCL*%
X97499999Y-92409999D03*
%TO.P,U1,7,D4/A6*%
%TO.N,F4*%
X97499999Y-89869999D03*
%TO.P,U1,8,~D5*%
%TO.N,unconnected-(U1-~D5-Pad8)*%
X97499999Y-87329999D03*
%TO.P,U1,9,~D6/A7*%
%TO.N,F5*%
X97499999Y-84789999D03*
%TO.P,U1,10,D7*%
%TO.N,unconnected-(U1-D7-Pad10)*%
X97499999Y-82249999D03*
%TO.P,U1,11,D8/A8*%
%TO.N,F6*%
X97499999Y-79709999D03*
%TO.P,U1,12,~D9/A9*%
%TO.N,F7*%
X97499999Y-77169999D03*
%TO.P,U1,13,~D10/A10*%
%TO.N,SCL1*%
X112739999Y-77169999D03*
%TO.P,U1,14,D16*%
%TO.N,SDA1*%
X112739999Y-79709999D03*
%TO.P,U1,15,D14*%
%TO.N,L1*%
X112739999Y-82249999D03*
%TO.P,U1,16,D15*%
%TO.N,L0*%
X112739999Y-84789999D03*
%TO.P,U1,17,D18/A0*%
%TO.N,F0*%
X112739999Y-87329999D03*
%TO.P,U1,18,D19/A1*%
%TO.N,F1*%
X112739999Y-89869999D03*
%TO.P,U1,19,D20/A2*%
%TO.N,F2*%
X112739999Y-92409999D03*
%TO.P,U1,20,D21/A3*%
%TO.N,F3*%
X112739999Y-94949999D03*
%TO.P,U1,21,VCC*%
%TO.N,unconnected-(U1-VCC-Pad21)*%
X112739999Y-97489999D03*
%TO.P,U1,22,RST*%
%TO.N,unconnected-(U1-RST-Pad22)*%
X112739999Y-100029999D03*
%TO.P,U1,23,GND*%
%TO.N,GND*%
X112739999Y-102569999D03*
%TO.P,U1,24,RAW*%
%TO.N,+5V*%
X112739999Y-105109999D03*
%TD*%
D14*
%TO.P,J1,1,Pin_1*%
%TO.N,GND*%
X118499999Y-87499999D03*
D15*
%TO.P,J1,2,Pin_2*%
%TO.N,+5V*%
X118500000Y-92500000D03*
%TD*%
D14*
%TO.P,J3,1,Pin_1*%
%TO.N,SCL*%
X91499999Y-87474999D03*
D15*
%TO.P,J3,2,Pin_2*%
%TO.N,SDA*%
X91500000Y-92475000D03*
%TD*%
D16*
%TO.N,F6*%
X101000000Y-88740000D02*
X100440000Y-88740000D01*
X99187000Y-87487000D02*
X99187000Y-81397000D01*
X99187000Y-81397000D02*
X97500000Y-79710000D01*
X100440000Y-88740000D02*
X99187000Y-87487000D01*
%TO.N,+5V*%
X109110000Y-105110000D02*
X112740000Y-105110000D01*
X118500000Y-100800000D02*
X114190000Y-105110000D01*
X114190000Y-105110000D02*
X112740000Y-105110000D01*
X106290000Y-100000000D02*
X106290000Y-102290000D01*
X106290000Y-102290000D02*
X109110000Y-105110000D01*
X106275000Y-97500000D02*
X106275000Y-99985000D01*
X118500000Y-92500000D02*
X118500000Y-100800000D01*
X106275000Y-99985000D02*
X106290000Y-100000000D01*
%TO.N,SCL1*%
X105000000Y-84910000D02*
X112740000Y-77170000D01*
X105000000Y-86200000D02*
X105000000Y-84910000D01*
%TO.N,L1*%
X106934000Y-89346000D02*
X106934000Y-85090000D01*
X106934000Y-85090000D02*
X109774000Y-82250000D01*
X109774000Y-82250000D02*
X112740000Y-82250000D01*
X105000000Y-91280000D02*
X106934000Y-89346000D01*
%TO.N,SDA*%
X97500000Y-94950000D02*
X93975000Y-94950000D01*
X93975000Y-94950000D02*
X91500000Y-92475000D01*
%TO.N,SCL*%
X96435000Y-92410000D02*
X91500000Y-87475000D01*
X97500000Y-92410000D02*
X96435000Y-92410000D01*
%TD*%
%TA.AperFunction,Conductor*%
%TO.N,GND*%
G36*
X105341262Y-71005495D02*
G01*
X105720209Y-71018535D01*
X105720928Y-71018564D01*
X106204192Y-71040583D01*
X106208458Y-71040851D01*
X106585290Y-71071160D01*
X106586156Y-71071235D01*
X107068956Y-71115321D01*
X107073151Y-71115778D01*
X107447100Y-71163193D01*
X107447805Y-71163286D01*
X107929344Y-71229472D01*
X107933527Y-71230122D01*
X108303578Y-71294400D01*
X108304591Y-71294582D01*
X108783611Y-71382799D01*
X108787850Y-71383658D01*
X109153329Y-71464561D01*
X109153900Y-71464690D01*
X109629961Y-71574978D01*
X109634281Y-71576062D01*
X109994055Y-71673200D01*
X109994962Y-71673449D01*
X110466678Y-71805618D01*
X110470979Y-71806909D01*
X110824490Y-71919982D01*
X110825479Y-71920303D01*
X111292031Y-72074247D01*
X111296237Y-72075721D01*
X111642780Y-72204358D01*
X111643399Y-72204590D01*
X112104218Y-72380279D01*
X112108399Y-72381963D01*
X112447032Y-72525653D01*
X112447638Y-72525913D01*
X112901612Y-72723102D01*
X112905737Y-72724986D01*
X113070104Y-72803810D01*
X113235444Y-72883101D01*
X113236352Y-72883541D01*
X113395035Y-72961233D01*
X113682506Y-73101982D01*
X113686565Y-73104066D01*
X114007006Y-73276232D01*
X114007464Y-73276480D01*
X114445240Y-73516112D01*
X114449301Y-73518437D01*
X114759551Y-73703940D01*
X114759882Y-73704139D01*
X115188284Y-73964656D01*
X115192287Y-73967197D01*
X115478762Y-74156837D01*
X115491363Y-74165178D01*
X115492048Y-74165635D01*
X115745476Y-74336016D01*
X115910110Y-74446700D01*
X115914041Y-74449455D01*
X116201534Y-74659340D01*
X116201965Y-74659657D01*
X116447698Y-74841634D01*
X116609123Y-74961177D01*
X116612957Y-74964134D01*
X116888014Y-75184962D01*
X116888624Y-75185455D01*
X117283982Y-75507103D01*
X117287657Y-75510215D01*
X117549697Y-75741127D01*
X117550175Y-75741551D01*
X117933154Y-76083243D01*
X117936762Y-76086594D01*
X118185064Y-76326499D01*
X118185463Y-76326886D01*
X118555342Y-76688440D01*
X118558822Y-76691981D01*
X118792762Y-76939731D01*
X118793228Y-76940226D01*
X119012860Y-77175395D01*
X119149260Y-77321443D01*
X119152594Y-77325162D01*
X119372007Y-77579985D01*
X119618344Y-77869073D01*
X119713604Y-77980866D01*
X119716799Y-77984774D01*
X119920777Y-78244896D01*
X119920922Y-78245081D01*
X120123987Y-78506625D01*
X120247279Y-78665423D01*
X120250317Y-78669506D01*
X120438385Y-78933418D01*
X120438706Y-78933872D01*
X120749117Y-79373623D01*
X120751988Y-79377874D01*
X120923610Y-79643702D01*
X120923889Y-79644136D01*
X121218109Y-80104043D01*
X121220804Y-80108456D01*
X121375517Y-80374077D01*
X121375755Y-80374487D01*
X121653232Y-80855092D01*
X121655743Y-80859660D01*
X121793272Y-81122827D01*
X121793472Y-81123211D01*
X122053616Y-81625266D01*
X122055933Y-81629981D01*
X122175745Y-81887345D01*
X122175642Y-81887392D01*
X122175911Y-81887700D01*
X122418391Y-82412895D01*
X122420508Y-82417749D01*
X122522512Y-82666018D01*
X122522644Y-82666342D01*
X122746819Y-83216382D01*
X122748718Y-83221345D01*
X122804641Y-83377459D01*
X122832403Y-83454963D01*
X122832343Y-83454984D01*
X122832507Y-83455254D01*
X123038204Y-84034030D01*
X123039895Y-84039135D01*
X123105103Y-84251356D01*
X123105181Y-84251612D01*
X123291940Y-84864136D01*
X123293407Y-84869352D01*
X123339878Y-85049655D01*
X123339934Y-85049875D01*
X123507504Y-85704998D01*
X123508740Y-85710315D01*
X123536206Y-85841498D01*
X123536244Y-85841681D01*
X123684428Y-86554785D01*
X123685428Y-86560192D01*
X123693878Y-86612375D01*
X123693901Y-86612519D01*
X123822089Y-87410108D01*
X123822858Y-87415701D01*
X123920462Y-88269485D01*
X123920975Y-88275107D01*
X123979617Y-89132426D01*
X123979874Y-89138065D01*
X123999435Y-89997176D01*
X123999435Y-90002822D01*
X123979874Y-90861934D01*
X123979617Y-90867573D01*
X123920975Y-91724892D01*
X123920462Y-91730514D01*
X123822858Y-92584298D01*
X123822089Y-92589891D01*
X123693901Y-93387480D01*
X123693878Y-93387625D01*
X123685428Y-93439807D01*
X123684428Y-93445213D01*
X123536244Y-94158318D01*
X123536206Y-94158501D01*
X123508740Y-94289683D01*
X123507504Y-94295000D01*
X123339934Y-94950124D01*
X123339878Y-94950344D01*
X123293407Y-95130646D01*
X123291940Y-95135862D01*
X123105181Y-95748387D01*
X123105103Y-95748643D01*
X123039895Y-95960863D01*
X123038204Y-95965968D01*
X122832537Y-96544659D01*
X122832434Y-96544950D01*
X122748727Y-96778632D01*
X122746819Y-96783616D01*
X122522644Y-97333657D01*
X122522511Y-97333981D01*
X122420507Y-97582249D01*
X122418391Y-97587103D01*
X122175942Y-98112229D01*
X122175777Y-98112584D01*
X122055933Y-98370017D01*
X122053616Y-98374732D01*
X121793472Y-98876787D01*
X121793272Y-98877171D01*
X121655743Y-99140338D01*
X121653232Y-99144906D01*
X121375755Y-99625511D01*
X121375517Y-99625921D01*
X121220804Y-99891542D01*
X121218109Y-99895955D01*
X120923889Y-100355862D01*
X120923610Y-100356296D01*
X120751988Y-100622124D01*
X120749117Y-100626375D01*
X120438706Y-101066126D01*
X120438385Y-101066580D01*
X120250317Y-101330492D01*
X120247279Y-101334575D01*
X119920999Y-101754818D01*
X119920631Y-101755289D01*
X119716799Y-102015224D01*
X119713604Y-102019132D01*
X119372156Y-102419840D01*
X119371740Y-102420325D01*
X119152602Y-102674827D01*
X119149260Y-102678555D01*
X118793228Y-103059772D01*
X118792762Y-103060267D01*
X118558822Y-103308017D01*
X118555342Y-103311558D01*
X118185463Y-103673112D01*
X118184945Y-103673615D01*
X117936762Y-103913404D01*
X117933154Y-103916755D01*
X117550175Y-104258447D01*
X117549604Y-104258953D01*
X117287682Y-104489762D01*
X117283956Y-104492917D01*
X116888639Y-104814531D01*
X116888014Y-104815036D01*
X116612957Y-105035864D01*
X116609123Y-105038821D01*
X116202102Y-105340240D01*
X116201421Y-105340741D01*
X115914041Y-105550543D01*
X115910110Y-105553298D01*
X115492100Y-105834328D01*
X115491363Y-105834820D01*
X115192287Y-106032801D01*
X115188269Y-106035351D01*
X114760171Y-106295684D01*
X114759376Y-106296163D01*
X114449306Y-106481558D01*
X114445212Y-106483902D01*
X114007678Y-106723402D01*
X114006826Y-106723863D01*
X113686615Y-106895906D01*
X113682454Y-106898042D01*
X113236352Y-107116457D01*
X113235444Y-107116897D01*
X112905782Y-107274991D01*
X112901565Y-107276917D01*
X112447828Y-107474003D01*
X112446862Y-107474418D01*
X112108439Y-107618019D01*
X112104177Y-107619735D01*
X111643581Y-107795339D01*
X111642559Y-107795723D01*
X111296282Y-107924261D01*
X111291985Y-107925767D01*
X110825568Y-108079666D01*
X110824490Y-108080016D01*
X110470979Y-108193089D01*
X110466657Y-108194386D01*
X109995066Y-108326520D01*
X109993933Y-108326831D01*
X109634289Y-108423934D01*
X109629953Y-108425022D01*
X109154186Y-108535243D01*
X109153000Y-108535511D01*
X108787901Y-108616329D01*
X108783559Y-108617209D01*
X108304718Y-108705393D01*
X108303481Y-108705615D01*
X107933602Y-108769864D01*
X107929266Y-108770538D01*
X107448098Y-108836673D01*
X107446811Y-108836843D01*
X107073213Y-108884213D01*
X107068891Y-108884684D01*
X106586411Y-108928741D01*
X106585076Y-108928856D01*
X106208473Y-108959146D01*
X106204176Y-108959416D01*
X105721321Y-108981417D01*
X105719942Y-108981473D01*
X105375751Y-108993317D01*
X105341262Y-108994504D01*
X105336999Y-108994577D01*
X104854540Y-108994577D01*
X104853119Y-108994569D01*
X104837158Y-108994385D01*
X104473320Y-108990214D01*
X104469098Y-108990093D01*
X103988069Y-108968176D01*
X103986608Y-108968101D01*
X103606523Y-108946287D01*
X103602352Y-108945977D01*
X103123610Y-108902262D01*
X103122113Y-108902116D01*
X102742612Y-108862815D01*
X102738500Y-108862320D01*
X102263082Y-108796975D01*
X102261553Y-108796755D01*
X101883403Y-108739969D01*
X101879359Y-108739293D01*
X101408192Y-108652522D01*
X101406633Y-108652225D01*
X101030743Y-108578016D01*
X101026774Y-108577165D01*
X100560675Y-108469185D01*
X100559092Y-108468807D01*
X100186346Y-108377282D01*
X100182460Y-108376261D01*
X99722433Y-108247367D01*
X99720830Y-108246906D01*
X99351996Y-108138190D01*
X99348199Y-108137004D01*
X98895117Y-107987503D01*
X98893497Y-107986956D01*
X98529483Y-107861254D01*
X98525784Y-107859911D01*
X98080487Y-107690139D01*
X98078855Y-107689503D01*
X97720450Y-107547030D01*
X97716854Y-107545535D01*
X97280278Y-107355903D01*
X97278639Y-107355177D01*
X96926625Y-107196188D01*
X96923139Y-107194548D01*
X96496104Y-106985466D01*
X96494463Y-106984647D01*
X96149653Y-106809456D01*
X96146282Y-106807678D01*
X95729656Y-106579623D01*
X95728018Y-106578710D01*
X95391151Y-106387638D01*
X95387900Y-106385728D01*
X94982524Y-106139213D01*
X94980894Y-106138205D01*
X94652731Y-105931632D01*
X94649605Y-105929598D01*
X94256167Y-105665087D01*
X94254552Y-105663982D01*
X93935902Y-105442371D01*
X93932905Y-105440220D01*
X93552299Y-105158364D01*
X93550703Y-105157162D01*
X93242145Y-104920865D01*
X93239300Y-104918619D01*
X92872208Y-104619967D01*
X92870637Y-104618668D01*
X92572999Y-104368273D01*
X92570274Y-104365912D01*
X92217333Y-104051021D01*
X92215792Y-104049622D01*
X92104737Y-103947141D01*
X91929786Y-103785696D01*
X91927202Y-103783242D01*
X91589146Y-103452796D01*
X91587692Y-103451351D01*
X91313815Y-103174315D01*
X91311389Y-103171791D01*
X90988940Y-102826532D01*
X90987478Y-102824938D01*
X90811953Y-102630298D01*
X90757577Y-102570000D01*
X96194532Y-102570000D01*
X96195004Y-102575395D01*
X96210260Y-102749778D01*
X96214365Y-102796692D01*
X96215762Y-102801907D01*
X96215764Y-102801916D01*
X96271858Y-103011263D01*
X96271861Y-103011271D01*
X96273261Y-103016496D01*
X96275549Y-103021403D01*
X96275550Y-103021405D01*
X96283064Y-103037518D01*
X96369432Y-103222734D01*
X96499953Y-103409139D01*
X96660861Y-103570047D01*
X96685463Y-103587273D01*
X96724600Y-103632114D01*
X96738334Y-103690028D01*
X96723501Y-103747669D01*
X96683517Y-103791758D01*
X96627595Y-103812138D01*
X96600230Y-103815079D01*
X96600223Y-103815080D01*
X96592517Y-103815909D01*
X96585252Y-103818618D01*
X96585246Y-103818620D01*
X96465980Y-103863104D01*
X96465978Y-103863104D01*
X96457669Y-103866204D01*
X96450572Y-103871516D01*
X96450568Y-103871519D01*
X96349550Y-103947141D01*
X96349546Y-103947144D01*
X96342454Y-103952454D01*
X96337144Y-103959546D01*
X96337141Y-103959550D01*
X96261519Y-104060568D01*
X96261516Y-104060572D01*
X96256204Y-104067669D01*
X96253104Y-104075978D01*
X96253104Y-104075980D01*
X96208620Y-104195247D01*
X96208619Y-104195250D01*
X96205909Y-104202517D01*
X96205079Y-104210227D01*
X96205079Y-104210232D01*
X96199855Y-104258819D01*
X96199854Y-104258831D01*
X96199500Y-104262127D01*
X96199500Y-104265448D01*
X96199500Y-104265449D01*
X96199500Y-105954560D01*
X96199500Y-105954578D01*
X96199501Y-105957872D01*
X96199853Y-105961150D01*
X96199854Y-105961161D01*
X96205079Y-106009768D01*
X96205080Y-106009773D01*
X96205909Y-106017483D01*
X96208619Y-106024749D01*
X96208620Y-106024753D01*
X96238318Y-106104376D01*
X96256204Y-106152331D01*
X96342454Y-106267546D01*
X96457669Y-106353796D01*
X96592517Y-106404091D01*
X96652127Y-106410500D01*
X98347872Y-106410499D01*
X98407483Y-106404091D01*
X98542331Y-106353796D01*
X98657546Y-106267546D01*
X98743796Y-106152331D01*
X98794091Y-106017483D01*
X98800500Y-105957873D01*
X98800499Y-104262128D01*
X98794091Y-104202517D01*
X98743796Y-104067669D01*
X98657546Y-103952454D01*
X98609858Y-103916755D01*
X98549431Y-103871519D01*
X98549430Y-103871518D01*
X98542331Y-103866204D01*
X98407483Y-103815909D01*
X98399770Y-103815079D01*
X98399767Y-103815079D01*
X98372402Y-103812137D01*
X98316480Y-103791757D01*
X98276497Y-103747667D01*
X98261665Y-103690025D01*
X98275400Y-103632112D01*
X98314536Y-103587273D01*
X98339139Y-103570047D01*
X98500047Y-103409139D01*
X98630568Y-103222734D01*
X98726739Y-103016496D01*
X98785635Y-102796692D01*
X98805468Y-102570000D01*
X98785635Y-102343308D01*
X98772708Y-102295063D01*
X98728141Y-102128736D01*
X98728140Y-102128734D01*
X98726739Y-102123504D01*
X98630568Y-101917266D01*
X98500047Y-101730861D01*
X98339139Y-101569953D01*
X98175052Y-101455059D01*
X98157173Y-101442540D01*
X98157171Y-101442539D01*
X98152734Y-101439432D01*
X98147831Y-101437145D01*
X98147823Y-101437141D01*
X98094134Y-101412106D01*
X98041958Y-101366349D01*
X98022539Y-101299723D01*
X98041959Y-101233098D01*
X98094135Y-101187341D01*
X98147585Y-101162417D01*
X98156912Y-101157032D01*
X98334381Y-101032767D01*
X98342647Y-101025830D01*
X98495830Y-100872647D01*
X98502767Y-100864381D01*
X98627032Y-100686912D01*
X98632421Y-100677579D01*
X98723977Y-100481234D01*
X98727669Y-100471092D01*
X98775179Y-100293780D01*
X98775547Y-100282551D01*
X98764605Y-100280000D01*
X96235395Y-100280000D01*
X96224452Y-100282551D01*
X96224820Y-100293780D01*
X96272330Y-100471092D01*
X96276022Y-100481234D01*
X96367579Y-100677579D01*
X96372967Y-100686912D01*
X96497232Y-100864381D01*
X96504169Y-100872647D01*
X96657352Y-101025830D01*
X96665618Y-101032767D01*
X96843087Y-101157032D01*
X96852423Y-101162422D01*
X96905864Y-101187342D01*
X96958040Y-101233098D01*
X96977460Y-101299723D01*
X96958041Y-101366348D01*
X96905866Y-101412106D01*
X96878868Y-101424695D01*
X96847266Y-101439432D01*
X96842833Y-101442535D01*
X96842826Y-101442540D01*
X96665296Y-101566847D01*
X96665291Y-101566850D01*
X96660861Y-101569953D01*
X96657037Y-101573776D01*
X96657031Y-101573782D01*
X96503782Y-101727031D01*
X96503776Y-101727037D01*
X96499953Y-101730861D01*
X96496850Y-101735291D01*
X96496847Y-101735296D01*
X96372540Y-101912826D01*
X96372535Y-101912833D01*
X96369432Y-101917266D01*
X96367144Y-101922172D01*
X96367142Y-101922176D01*
X96275550Y-102118594D01*
X96275547Y-102118599D01*
X96273261Y-102123504D01*
X96271862Y-102128724D01*
X96271858Y-102128736D01*
X96215764Y-102338083D01*
X96215762Y-102338094D01*
X96214365Y-102343308D01*
X96213893Y-102348693D01*
X96213893Y-102348698D01*
X96197445Y-102536702D01*
X96194532Y-102570000D01*
X90757577Y-102570000D01*
X90726412Y-102535441D01*
X90724131Y-102532839D01*
X90417927Y-102173493D01*
X90416570Y-102171871D01*
X90168807Y-101870411D01*
X90166708Y-101867784D01*
X89877356Y-101495105D01*
X89875997Y-101493321D01*
X89811182Y-101406644D01*
X89642166Y-101180620D01*
X89640176Y-101177880D01*
X89486379Y-100960000D01*
X92684341Y-100960000D01*
X92684813Y-100965395D01*
X92704279Y-101187893D01*
X92704937Y-101195408D01*
X92706336Y-101200630D01*
X92706337Y-101200634D01*
X92764694Y-101418430D01*
X92764697Y-101418438D01*
X92766097Y-101423663D01*
X92768385Y-101428570D01*
X92768386Y-101428572D01*
X92775099Y-101442967D01*
X92865965Y-101637829D01*
X93001505Y-101831401D01*
X93168599Y-101998495D01*
X93362171Y-102134035D01*
X93576337Y-102233903D01*
X93804592Y-102295063D01*
X93981034Y-102310500D01*
X94096258Y-102310500D01*
X94098966Y-102310500D01*
X94275408Y-102295063D01*
X94503663Y-102233903D01*
X94717829Y-102134035D01*
X94911401Y-101998495D01*
X95078495Y-101831401D01*
X95214035Y-101637830D01*
X95313903Y-101423663D01*
X95375063Y-101195408D01*
X95395659Y-100960000D01*
X95375063Y-100724592D01*
X95313903Y-100496337D01*
X95214035Y-100282171D01*
X95193295Y-100252551D01*
X102422688Y-100252551D01*
X102423056Y-100263780D01*
X102475168Y-100458263D01*
X102478856Y-100468397D01*
X102574113Y-100672676D01*
X102579501Y-100682008D01*
X102708784Y-100866643D01*
X102715721Y-100874909D01*
X102875090Y-101034278D01*
X102883356Y-101041215D01*
X103067991Y-101170498D01*
X103077323Y-101175886D01*
X103281602Y-101271143D01*
X103291736Y-101274831D01*
X103486219Y-101326943D01*
X103497448Y-101327311D01*
X103500000Y-101316369D01*
X103500000Y-100266326D01*
X103496549Y-100253450D01*
X103483674Y-100250000D01*
X102433631Y-100250000D01*
X102422688Y-100252551D01*
X95193295Y-100252551D01*
X95078495Y-100088599D01*
X94911401Y-99921505D01*
X94750295Y-99808698D01*
X94722268Y-99789073D01*
X94722266Y-99789072D01*
X94717829Y-99785965D01*
X94699564Y-99777448D01*
X96224452Y-99777448D01*
X96235395Y-99780000D01*
X97233674Y-99780000D01*
X97246549Y-99776549D01*
X97250000Y-99763674D01*
X97750000Y-99763674D01*
X97753450Y-99776549D01*
X97766326Y-99780000D01*
X98764605Y-99780000D01*
X98775547Y-99777448D01*
X98775179Y-99766219D01*
X98727669Y-99588907D01*
X98723977Y-99578765D01*
X98632420Y-99382419D01*
X98627032Y-99373087D01*
X98502767Y-99195618D01*
X98495830Y-99187352D01*
X98342647Y-99034169D01*
X98334381Y-99027232D01*
X98156912Y-98902967D01*
X98147576Y-98897577D01*
X98093544Y-98872382D01*
X98041368Y-98826625D01*
X98021948Y-98760000D01*
X98041368Y-98693375D01*
X98093544Y-98647618D01*
X98147576Y-98622422D01*
X98156912Y-98617032D01*
X98334381Y-98492767D01*
X98342647Y-98485830D01*
X98495830Y-98332647D01*
X98502767Y-98324381D01*
X98627032Y-98146912D01*
X98632420Y-98137580D01*
X98723977Y-97941234D01*
X98727669Y-97931092D01*
X98775179Y-97753780D01*
X98775219Y-97752551D01*
X102407688Y-97752551D01*
X102408056Y-97763780D01*
X102460168Y-97958263D01*
X102463856Y-97968397D01*
X102559113Y-98172676D01*
X102564501Y-98182008D01*
X102693784Y-98366643D01*
X102700721Y-98374909D01*
X102860090Y-98534278D01*
X102868356Y-98541215D01*
X103028968Y-98653677D01*
X103067833Y-98697995D01*
X103081844Y-98755252D01*
X103067833Y-98812509D01*
X103028968Y-98856827D01*
X102883352Y-98958788D01*
X102875092Y-98965719D01*
X102715719Y-99125092D01*
X102708784Y-99133357D01*
X102579508Y-99317982D01*
X102574110Y-99327332D01*
X102478856Y-99531602D01*
X102475168Y-99541736D01*
X102423056Y-99736219D01*
X102422688Y-99747448D01*
X102433631Y-99750000D01*
X103483674Y-99750000D01*
X103496549Y-99746549D01*
X103500000Y-99733674D01*
X103500000Y-98906326D01*
X103489225Y-98866114D01*
X103485000Y-98834020D01*
X103485000Y-98593674D01*
X103985000Y-98593674D01*
X103995775Y-98633886D01*
X104000000Y-98665980D01*
X104000000Y-101316369D01*
X104002551Y-101327311D01*
X104013780Y-101326943D01*
X104208263Y-101274831D01*
X104218397Y-101271143D01*
X104422676Y-101175886D01*
X104432008Y-101170498D01*
X104616643Y-101041215D01*
X104624902Y-101034284D01*
X104743133Y-100916053D01*
X104795880Y-100884757D01*
X104857173Y-100882568D01*
X104912018Y-100910021D01*
X104946997Y-100960401D01*
X104996204Y-101092331D01*
X105001518Y-101099430D01*
X105001519Y-101099431D01*
X105067328Y-101187341D01*
X105082454Y-101207546D01*
X105197669Y-101293796D01*
X105208835Y-101297960D01*
X105251070Y-101324399D01*
X105279488Y-101365330D01*
X105289500Y-101414142D01*
X105289500Y-102275722D01*
X105289460Y-102278863D01*
X105287691Y-102348698D01*
X105287243Y-102366363D01*
X105288351Y-102372548D01*
X105288352Y-102372554D01*
X105297648Y-102424420D01*
X105298957Y-102433748D01*
X105304289Y-102486180D01*
X105304290Y-102486185D01*
X105304926Y-102492438D01*
X105306807Y-102498435D01*
X105306810Y-102498447D01*
X105314032Y-102521466D01*
X105317772Y-102536702D01*
X105322031Y-102560464D01*
X105322035Y-102560478D01*
X105323142Y-102566653D01*
X105325471Y-102572483D01*
X105345020Y-102621425D01*
X105348179Y-102630298D01*
X105365841Y-102686588D01*
X105368891Y-102692083D01*
X105380603Y-102713184D01*
X105387337Y-102727363D01*
X105396290Y-102749778D01*
X105396292Y-102749783D01*
X105398623Y-102755617D01*
X105402082Y-102760866D01*
X105402085Y-102760871D01*
X105431080Y-102804867D01*
X105435961Y-102812923D01*
X105461536Y-102858999D01*
X105461538Y-102859002D01*
X105464591Y-102864502D01*
X105468689Y-102869275D01*
X105484404Y-102887581D01*
X105493855Y-102900116D01*
X105507133Y-102920263D01*
X105507138Y-102920269D01*
X105510598Y-102925519D01*
X105515045Y-102929966D01*
X105552300Y-102967221D01*
X105558705Y-102974131D01*
X105593041Y-103014128D01*
X105593044Y-103014131D01*
X105597134Y-103018895D01*
X105602103Y-103022742D01*
X105602106Y-103022744D01*
X105621192Y-103037518D01*
X105632972Y-103047893D01*
X108392431Y-105807351D01*
X108394624Y-105809600D01*
X108418597Y-105834820D01*
X108454941Y-105873053D01*
X108460100Y-105876644D01*
X108460104Y-105876647D01*
X108503362Y-105906755D01*
X108510871Y-105912416D01*
X108556593Y-105949698D01*
X108578574Y-105961180D01*
X108583556Y-105963782D01*
X108596980Y-105971915D01*
X108621951Y-105989295D01*
X108669657Y-106009767D01*
X108676163Y-106012559D01*
X108684673Y-106016601D01*
X108736951Y-106043909D01*
X108766195Y-106052276D01*
X108780979Y-106057539D01*
X108808942Y-106069540D01*
X108866727Y-106081414D01*
X108875869Y-106083657D01*
X108932582Y-106099886D01*
X108938857Y-106100363D01*
X108938858Y-106100364D01*
X108942331Y-106100628D01*
X108962915Y-106102195D01*
X108978459Y-106104376D01*
X109002096Y-106109234D01*
X109002100Y-106109234D01*
X109008259Y-106110500D01*
X109067244Y-106110500D01*
X109076660Y-106110858D01*
X109135476Y-106115337D01*
X109165651Y-106111493D01*
X109181317Y-106110500D01*
X111862412Y-106110500D01*
X111899699Y-106116239D01*
X111933533Y-106132924D01*
X112087266Y-106240568D01*
X112293504Y-106336739D01*
X112298734Y-106338140D01*
X112298736Y-106338141D01*
X112476334Y-106385728D01*
X112513308Y-106395635D01*
X112740000Y-106415468D01*
X112966692Y-106395635D01*
X113186496Y-106336739D01*
X113392734Y-106240568D01*
X113546466Y-106132924D01*
X113580301Y-106116239D01*
X113617588Y-106110500D01*
X114175722Y-106110500D01*
X114178862Y-106110539D01*
X114266363Y-106112757D01*
X114324458Y-106102344D01*
X114333739Y-106101042D01*
X114392438Y-106095074D01*
X114421464Y-106085966D01*
X114436713Y-106082224D01*
X114466653Y-106076858D01*
X114521423Y-106054980D01*
X114530303Y-106051818D01*
X114549994Y-106045640D01*
X114586588Y-106034159D01*
X114613194Y-106019390D01*
X114627362Y-106012662D01*
X114655617Y-106001377D01*
X114704891Y-105968902D01*
X114712910Y-105964043D01*
X114764502Y-105935409D01*
X114775961Y-105925570D01*
X114787583Y-105915594D01*
X114800125Y-105906137D01*
X114825519Y-105889402D01*
X114867238Y-105847681D01*
X114874122Y-105841301D01*
X114918895Y-105802866D01*
X114937520Y-105778802D01*
X114947879Y-105767040D01*
X119197409Y-101517510D01*
X119199579Y-101515394D01*
X119263053Y-101455059D01*
X119296763Y-101406624D01*
X119302405Y-101399141D01*
X119339697Y-101353408D01*
X119353781Y-101326443D01*
X119361909Y-101313025D01*
X119379295Y-101288049D01*
X119402568Y-101233815D01*
X119406595Y-101225336D01*
X119426155Y-101187893D01*
X119430997Y-101178624D01*
X119430997Y-101178622D01*
X119433909Y-101173049D01*
X119442275Y-101143808D01*
X119447539Y-101129019D01*
X119459540Y-101101058D01*
X119471421Y-101043238D01*
X119473650Y-101034155D01*
X119489886Y-100977418D01*
X119492195Y-100947082D01*
X119494376Y-100931539D01*
X119499234Y-100907901D01*
X119499233Y-100907901D01*
X119500500Y-100901741D01*
X119500500Y-100842756D01*
X119500858Y-100833340D01*
X119504095Y-100790830D01*
X119505337Y-100774524D01*
X119501493Y-100744348D01*
X119500500Y-100728683D01*
X119500500Y-94762642D01*
X119517768Y-94699521D01*
X119564762Y-94653980D01*
X119586088Y-94642255D01*
X119788795Y-94530816D01*
X120033162Y-94353274D01*
X120253349Y-94146504D01*
X120445885Y-93913768D01*
X120607733Y-93658736D01*
X120736341Y-93385430D01*
X120829681Y-93098160D01*
X120886280Y-92801457D01*
X120905246Y-92500000D01*
X120886280Y-92198543D01*
X120829681Y-91901840D01*
X120736341Y-91614570D01*
X120607733Y-91341264D01*
X120507741Y-91183702D01*
X120447975Y-91089525D01*
X120447973Y-91089522D01*
X120445885Y-91086232D01*
X120429173Y-91066031D01*
X120372446Y-90997459D01*
X120253349Y-90853496D01*
X120033162Y-90646726D01*
X120002424Y-90624394D01*
X119791944Y-90471472D01*
X119791945Y-90471472D01*
X119788795Y-90469184D01*
X119785391Y-90467313D01*
X119785387Y-90467310D01*
X119527521Y-90325546D01*
X119527514Y-90325542D01*
X119524104Y-90323668D01*
X119520478Y-90322232D01*
X119520473Y-90322230D01*
X119246890Y-90213911D01*
X119246884Y-90213909D01*
X119243262Y-90212475D01*
X119239484Y-90211505D01*
X119239481Y-90211504D01*
X118976972Y-90144104D01*
X118924837Y-90116150D01*
X118891586Y-90067223D01*
X118884787Y-90008459D01*
X118905986Y-89953232D01*
X118950360Y-89914111D01*
X119007809Y-89900000D01*
X120444518Y-89900000D01*
X120451114Y-89899646D01*
X120499667Y-89894426D01*
X120514641Y-89890888D01*
X120633777Y-89846452D01*
X120649189Y-89838037D01*
X120750092Y-89762501D01*
X120762501Y-89750092D01*
X120838037Y-89649189D01*
X120846452Y-89633777D01*
X120890888Y-89514641D01*
X120894426Y-89499667D01*
X120899646Y-89451114D01*
X120900000Y-89444518D01*
X120900000Y-87766326D01*
X120896549Y-87753450D01*
X120883674Y-87750000D01*
X116116326Y-87750000D01*
X116103450Y-87753450D01*
X116100000Y-87766326D01*
X116100000Y-89444518D01*
X116100353Y-89451114D01*
X116105573Y-89499667D01*
X116109111Y-89514641D01*
X116153547Y-89633777D01*
X116161962Y-89649189D01*
X116237498Y-89750092D01*
X116249907Y-89762501D01*
X116350810Y-89838037D01*
X116366222Y-89846452D01*
X116485358Y-89890888D01*
X116500332Y-89894426D01*
X116548885Y-89899646D01*
X116555482Y-89900000D01*
X117992191Y-89900000D01*
X118049640Y-89914111D01*
X118094014Y-89953232D01*
X118115213Y-90008459D01*
X118108414Y-90067223D01*
X118075163Y-90116150D01*
X118023028Y-90144104D01*
X117760518Y-90211504D01*
X117760511Y-90211506D01*
X117756738Y-90212475D01*
X117753120Y-90213907D01*
X117753109Y-90213911D01*
X117479526Y-90322230D01*
X117479515Y-90322234D01*
X117475896Y-90323668D01*
X117472491Y-90325539D01*
X117472478Y-90325546D01*
X117214612Y-90467310D01*
X117214600Y-90467317D01*
X117211205Y-90469184D01*
X117208061Y-90471467D01*
X117208055Y-90471472D01*
X116969994Y-90644432D01*
X116969983Y-90644440D01*
X116966838Y-90646726D01*
X116964003Y-90649387D01*
X116963996Y-90649394D01*
X116749488Y-90850831D01*
X116749481Y-90850838D01*
X116746651Y-90853496D01*
X116744176Y-90856487D01*
X116744172Y-90856492D01*
X116556598Y-91083229D01*
X116556588Y-91083241D01*
X116554115Y-91086232D01*
X116552033Y-91089511D01*
X116552024Y-91089525D01*
X116394352Y-91337977D01*
X116394345Y-91337988D01*
X116392267Y-91341264D01*
X116390614Y-91344774D01*
X116390611Y-91344782D01*
X116282140Y-91575296D01*
X116263659Y-91614570D01*
X116262457Y-91618267D01*
X116262455Y-91618274D01*
X116171524Y-91898130D01*
X116170319Y-91901840D01*
X116169590Y-91905660D01*
X116169588Y-91905669D01*
X116114449Y-92194716D01*
X116114446Y-92194732D01*
X116113720Y-92198543D01*
X116094754Y-92500000D01*
X116113720Y-92801457D01*
X116114447Y-92805269D01*
X116114449Y-92805283D01*
X116169588Y-93094330D01*
X116170319Y-93098160D01*
X116171523Y-93101867D01*
X116171524Y-93101869D01*
X116254597Y-93357542D01*
X116263659Y-93385430D01*
X116392267Y-93658736D01*
X116394349Y-93662017D01*
X116394352Y-93662022D01*
X116552024Y-93910474D01*
X116552028Y-93910480D01*
X116554115Y-93913768D01*
X116556594Y-93916765D01*
X116556598Y-93916770D01*
X116587217Y-93953782D01*
X116746651Y-94146504D01*
X116966838Y-94353274D01*
X117211205Y-94530816D01*
X117214612Y-94532689D01*
X117435238Y-94653980D01*
X117482232Y-94699521D01*
X117499500Y-94762642D01*
X117499500Y-100334217D01*
X117490061Y-100381670D01*
X117463181Y-100421898D01*
X113811899Y-104073181D01*
X113771671Y-104100061D01*
X113724218Y-104109500D01*
X113617588Y-104109500D01*
X113580301Y-104103761D01*
X113546465Y-104087075D01*
X113526622Y-104073181D01*
X113392734Y-103979432D01*
X113387831Y-103977145D01*
X113387823Y-103977141D01*
X113334134Y-103952106D01*
X113281958Y-103906349D01*
X113262539Y-103839723D01*
X113281959Y-103773098D01*
X113334135Y-103727341D01*
X113387585Y-103702417D01*
X113396912Y-103697032D01*
X113574381Y-103572767D01*
X113582647Y-103565830D01*
X113735830Y-103412647D01*
X113742767Y-103404381D01*
X113867032Y-103226912D01*
X113872420Y-103217580D01*
X113963977Y-103021234D01*
X113967669Y-103011092D01*
X114015179Y-102833780D01*
X114015547Y-102822551D01*
X114004605Y-102820000D01*
X111475395Y-102820000D01*
X111464452Y-102822551D01*
X111464820Y-102833780D01*
X111512330Y-103011092D01*
X111516022Y-103021234D01*
X111607579Y-103217580D01*
X111612967Y-103226912D01*
X111737232Y-103404381D01*
X111744169Y-103412647D01*
X111897352Y-103565830D01*
X111905618Y-103572767D01*
X112083087Y-103697032D01*
X112092423Y-103702422D01*
X112145864Y-103727342D01*
X112198040Y-103773098D01*
X112217460Y-103839723D01*
X112198041Y-103906348D01*
X112145865Y-103952106D01*
X112087266Y-103979432D01*
X112082833Y-103982535D01*
X112082826Y-103982540D01*
X111987023Y-104049622D01*
X111953378Y-104073181D01*
X111933535Y-104087075D01*
X111899699Y-104103761D01*
X111862412Y-104109500D01*
X109575783Y-104109500D01*
X109528330Y-104100061D01*
X109488102Y-104073181D01*
X107326819Y-101911899D01*
X107299939Y-101871671D01*
X107290500Y-101824218D01*
X107290500Y-101414142D01*
X107300512Y-101365330D01*
X107328930Y-101324399D01*
X107371164Y-101297960D01*
X107382331Y-101293796D01*
X107497546Y-101207546D01*
X107583796Y-101092331D01*
X107634091Y-100957483D01*
X107640500Y-100897873D01*
X107640499Y-99102128D01*
X107634091Y-99042517D01*
X107583796Y-98907669D01*
X107513894Y-98814292D01*
X107491995Y-98766339D01*
X107491995Y-98713622D01*
X107513895Y-98665670D01*
X107563478Y-98599436D01*
X107563481Y-98599431D01*
X107568796Y-98592331D01*
X107619091Y-98457483D01*
X107625500Y-98397873D01*
X107625499Y-96602128D01*
X107619091Y-96542517D01*
X107568796Y-96407669D01*
X107482546Y-96292454D01*
X107475125Y-96286899D01*
X107374431Y-96211519D01*
X107374430Y-96211518D01*
X107367331Y-96206204D01*
X107277470Y-96172688D01*
X107239752Y-96158620D01*
X107239750Y-96158619D01*
X107232483Y-96155909D01*
X107224770Y-96155079D01*
X107224767Y-96155079D01*
X107176180Y-96149855D01*
X107176169Y-96149854D01*
X107172873Y-96149500D01*
X107169550Y-96149500D01*
X105380439Y-96149500D01*
X105380420Y-96149500D01*
X105377128Y-96149501D01*
X105373850Y-96149853D01*
X105373838Y-96149854D01*
X105325231Y-96155079D01*
X105325225Y-96155080D01*
X105317517Y-96155909D01*
X105310252Y-96158618D01*
X105310246Y-96158620D01*
X105190980Y-96203104D01*
X105190978Y-96203104D01*
X105182669Y-96206204D01*
X105175572Y-96211516D01*
X105175568Y-96211519D01*
X105074550Y-96287141D01*
X105074546Y-96287144D01*
X105067454Y-96292454D01*
X105062144Y-96299546D01*
X105062141Y-96299550D01*
X104986519Y-96400568D01*
X104986516Y-96400572D01*
X104981204Y-96407669D01*
X104978104Y-96415978D01*
X104978105Y-96415978D01*
X104931997Y-96539599D01*
X104897018Y-96589978D01*
X104842173Y-96617431D01*
X104780880Y-96615242D01*
X104728134Y-96583946D01*
X104609909Y-96465721D01*
X104601643Y-96458784D01*
X104417008Y-96329501D01*
X104407676Y-96324113D01*
X104203397Y-96228856D01*
X104193263Y-96225168D01*
X103998780Y-96173056D01*
X103987551Y-96172688D01*
X103985000Y-96183631D01*
X103985000Y-98593674D01*
X103485000Y-98593674D01*
X103485000Y-97766326D01*
X103481549Y-97753450D01*
X103468674Y-97750000D01*
X102418631Y-97750000D01*
X102407688Y-97752551D01*
X98775219Y-97752551D01*
X98775547Y-97742551D01*
X98764605Y-97740000D01*
X97766326Y-97740000D01*
X97753450Y-97743450D01*
X97750000Y-97756326D01*
X97750000Y-99763674D01*
X97250000Y-99763674D01*
X97250000Y-97756326D01*
X97246549Y-97743450D01*
X97233674Y-97740000D01*
X96235395Y-97740000D01*
X96224452Y-97742551D01*
X96224820Y-97753780D01*
X96272330Y-97931092D01*
X96276022Y-97941234D01*
X96367579Y-98137580D01*
X96372967Y-98146912D01*
X96497232Y-98324381D01*
X96504169Y-98332647D01*
X96657352Y-98485830D01*
X96665618Y-98492767D01*
X96843087Y-98617032D01*
X96852419Y-98622420D01*
X96906456Y-98647618D01*
X96958632Y-98693375D01*
X96978051Y-98760000D01*
X96958632Y-98826625D01*
X96906456Y-98872382D01*
X96852419Y-98897579D01*
X96843087Y-98902967D01*
X96665618Y-99027232D01*
X96657352Y-99034169D01*
X96504169Y-99187352D01*
X96497232Y-99195618D01*
X96372967Y-99373087D01*
X96367579Y-99382419D01*
X96276022Y-99578765D01*
X96272330Y-99588907D01*
X96224820Y-99766219D01*
X96224452Y-99777448D01*
X94699564Y-99777448D01*
X94611149Y-99736219D01*
X94508572Y-99688386D01*
X94508570Y-99688385D01*
X94503663Y-99686097D01*
X94498438Y-99684697D01*
X94498430Y-99684694D01*
X94280634Y-99626337D01*
X94280630Y-99626336D01*
X94275408Y-99624937D01*
X94270020Y-99624465D01*
X94270017Y-99624465D01*
X94101664Y-99609736D01*
X94101662Y-99609735D01*
X94098966Y-99609500D01*
X93981034Y-99609500D01*
X93978338Y-99609735D01*
X93978335Y-99609736D01*
X93809982Y-99624465D01*
X93809977Y-99624465D01*
X93804592Y-99624937D01*
X93799371Y-99626335D01*
X93799365Y-99626337D01*
X93581569Y-99684694D01*
X93581557Y-99684698D01*
X93576337Y-99686097D01*
X93571432Y-99688383D01*
X93571427Y-99688386D01*
X93367081Y-99783675D01*
X93367077Y-99783677D01*
X93362171Y-99785965D01*
X93357738Y-99789068D01*
X93357731Y-99789073D01*
X93173034Y-99918399D01*
X93173029Y-99918402D01*
X93168599Y-99921505D01*
X93164775Y-99925328D01*
X93164769Y-99925334D01*
X93005336Y-100084767D01*
X93005330Y-100084773D01*
X93001505Y-100088599D01*
X92998406Y-100093023D01*
X92998399Y-100093033D01*
X92869066Y-100277740D01*
X92869061Y-100277747D01*
X92865965Y-100282170D01*
X92863683Y-100287061D01*
X92863678Y-100287072D01*
X92768386Y-100491427D01*
X92768383Y-100491432D01*
X92766097Y-100496337D01*
X92764698Y-100501557D01*
X92764694Y-100501569D01*
X92706337Y-100719365D01*
X92706335Y-100719371D01*
X92704937Y-100724592D01*
X92704465Y-100729977D01*
X92704465Y-100729982D01*
X92685236Y-100949767D01*
X92684341Y-100960000D01*
X89486379Y-100960000D01*
X89368274Y-100792683D01*
X89366991Y-100790830D01*
X89351691Y-100768284D01*
X89147584Y-100467503D01*
X89145749Y-100464718D01*
X89141619Y-100458263D01*
X88891759Y-100067696D01*
X88890550Y-100065767D01*
X88686117Y-99732593D01*
X88684446Y-99729785D01*
X88623912Y-99624937D01*
X88448829Y-99321686D01*
X88447723Y-99319727D01*
X88258679Y-98977347D01*
X88257145Y-98974479D01*
X88249013Y-98958784D01*
X88040446Y-98556268D01*
X88039400Y-98554200D01*
X87866182Y-98203371D01*
X87864794Y-98200464D01*
X87856273Y-98182008D01*
X87667416Y-97772959D01*
X87666496Y-97770914D01*
X87509420Y-97412228D01*
X87508226Y-97409402D01*
X87442220Y-97247448D01*
X102407688Y-97247448D01*
X102418631Y-97250000D01*
X103468674Y-97250000D01*
X103481549Y-97246549D01*
X103485000Y-97233674D01*
X103485000Y-96183631D01*
X103482448Y-96172688D01*
X103471219Y-96173056D01*
X103276736Y-96225168D01*
X103266602Y-96228856D01*
X103062332Y-96324110D01*
X103052982Y-96329508D01*
X102868357Y-96458784D01*
X102860092Y-96465719D01*
X102700719Y-96625092D01*
X102693784Y-96633357D01*
X102564508Y-96817982D01*
X102559110Y-96827332D01*
X102463856Y-97031602D01*
X102460168Y-97041736D01*
X102408056Y-97236219D01*
X102407688Y-97247448D01*
X87442220Y-97247448D01*
X87330561Y-96973480D01*
X87329685Y-96971269D01*
X87189189Y-96605681D01*
X87188147Y-96602864D01*
X87030518Y-96159336D01*
X87029776Y-96157180D01*
X86906139Y-95785388D01*
X86905219Y-95782498D01*
X86767983Y-95332401D01*
X86767335Y-95330194D01*
X86660842Y-94953012D01*
X86660046Y-94950049D01*
X86543484Y-94494348D01*
X86542910Y-94492002D01*
X86453807Y-94110271D01*
X86453187Y-94107462D01*
X86357474Y-93646868D01*
X86357004Y-93644477D01*
X86285479Y-93258970D01*
X86285003Y-93256224D01*
X86210358Y-92791781D01*
X86209996Y-92789361D01*
X86166469Y-92475000D01*
X89094754Y-92475000D01*
X89113720Y-92776457D01*
X89114447Y-92780269D01*
X89114449Y-92780283D01*
X89167393Y-93057823D01*
X89170319Y-93073160D01*
X89171523Y-93076864D01*
X89171524Y-93076869D01*
X89230692Y-93258970D01*
X89263659Y-93360430D01*
X89392267Y-93633736D01*
X89394349Y-93637017D01*
X89394352Y-93637022D01*
X89552024Y-93885474D01*
X89552028Y-93885480D01*
X89554115Y-93888768D01*
X89556594Y-93891765D01*
X89556598Y-93891770D01*
X89607899Y-93953782D01*
X89746651Y-94121504D01*
X89966838Y-94328274D01*
X90211205Y-94505816D01*
X90475896Y-94651332D01*
X90756738Y-94762525D01*
X91049302Y-94837642D01*
X91348973Y-94875500D01*
X91647133Y-94875500D01*
X91651027Y-94875500D01*
X91950698Y-94837642D01*
X92243262Y-94762525D01*
X92260186Y-94755824D01*
X92307129Y-94747123D01*
X92353884Y-94756804D01*
X92393514Y-94783435D01*
X93257450Y-95647371D01*
X93259643Y-95649620D01*
X93315603Y-95708490D01*
X93315605Y-95708492D01*
X93319941Y-95713053D01*
X93325105Y-95716647D01*
X93325107Y-95716649D01*
X93368348Y-95746746D01*
X93375869Y-95752417D01*
X93416715Y-95785722D01*
X93416724Y-95785727D01*
X93421593Y-95789698D01*
X93448556Y-95803782D01*
X93461980Y-95811915D01*
X93486951Y-95829295D01*
X93541163Y-95852559D01*
X93549673Y-95856601D01*
X93601951Y-95883909D01*
X93631199Y-95892277D01*
X93645975Y-95897538D01*
X93673942Y-95909540D01*
X93731718Y-95921413D01*
X93740866Y-95923658D01*
X93797582Y-95939887D01*
X93827916Y-95942196D01*
X93843463Y-95944377D01*
X93867095Y-95949234D01*
X93867102Y-95949234D01*
X93873259Y-95950500D01*
X93932242Y-95950500D01*
X93941657Y-95950858D01*
X94000477Y-95955337D01*
X94030652Y-95951493D01*
X94046318Y-95950500D01*
X96622412Y-95950500D01*
X96659699Y-95956239D01*
X96693533Y-95972924D01*
X96847266Y-96080568D01*
X96852175Y-96082857D01*
X96852180Y-96082860D01*
X96905864Y-96107893D01*
X96958040Y-96153649D01*
X96977460Y-96220274D01*
X96958041Y-96286899D01*
X96905866Y-96332657D01*
X96852416Y-96357581D01*
X96843087Y-96362967D01*
X96665618Y-96487232D01*
X96657352Y-96494169D01*
X96504169Y-96647352D01*
X96497232Y-96655618D01*
X96372967Y-96833087D01*
X96367579Y-96842419D01*
X96276022Y-97038765D01*
X96272330Y-97048907D01*
X96224820Y-97226219D01*
X96224452Y-97237448D01*
X96235395Y-97240000D01*
X98764605Y-97240000D01*
X98775547Y-97237448D01*
X98775179Y-97226219D01*
X98727669Y-97048907D01*
X98723977Y-97038765D01*
X98632420Y-96842419D01*
X98627032Y-96833087D01*
X98502767Y-96655618D01*
X98495830Y-96647352D01*
X98342647Y-96494169D01*
X98334381Y-96487232D01*
X98156912Y-96362967D01*
X98147579Y-96357579D01*
X98094134Y-96332657D01*
X98041958Y-96286899D01*
X98022539Y-96220274D01*
X98041959Y-96153649D01*
X98094131Y-96107894D01*
X98152734Y-96080568D01*
X98339139Y-95950047D01*
X98500047Y-95789139D01*
X98630568Y-95602734D01*
X98726739Y-95396496D01*
X98785635Y-95176692D01*
X98805468Y-94950000D01*
X98785635Y-94723308D01*
X98726739Y-94503504D01*
X98630568Y-94297266D01*
X98500047Y-94110861D01*
X98339139Y-93949953D01*
X98152734Y-93819432D01*
X98094724Y-93792381D01*
X98042549Y-93746625D01*
X98023130Y-93680000D01*
X98042549Y-93613375D01*
X98094725Y-93567618D01*
X98152734Y-93540568D01*
X98339139Y-93410047D01*
X98500047Y-93249139D01*
X98630568Y-93062734D01*
X98726739Y-92856496D01*
X98785635Y-92636692D01*
X98805468Y-92410000D01*
X98785635Y-92183308D01*
X98784062Y-92177436D01*
X98728141Y-91968736D01*
X98728140Y-91968734D01*
X98726739Y-91963504D01*
X98630568Y-91757266D01*
X98500047Y-91570861D01*
X98339139Y-91409953D01*
X98175202Y-91295164D01*
X98157173Y-91282540D01*
X98157171Y-91282539D01*
X98152734Y-91279432D01*
X98094724Y-91252381D01*
X98042549Y-91206625D01*
X98023130Y-91140000D01*
X98042549Y-91073375D01*
X98094725Y-91027618D01*
X98152734Y-91000568D01*
X98339139Y-90870047D01*
X98500047Y-90709139D01*
X98630568Y-90522734D01*
X98726739Y-90316496D01*
X98785635Y-90096692D01*
X98805468Y-89870000D01*
X98785635Y-89643308D01*
X98774544Y-89601916D01*
X98728141Y-89428736D01*
X98728140Y-89428734D01*
X98726739Y-89423504D01*
X98630568Y-89217266D01*
X98500047Y-89030861D01*
X98339139Y-88869953D01*
X98152734Y-88739432D01*
X98094724Y-88712381D01*
X98042549Y-88666625D01*
X98023130Y-88600000D01*
X98042549Y-88533375D01*
X98094725Y-88487618D01*
X98152734Y-88460568D01*
X98339139Y-88330047D01*
X98389452Y-88279734D01*
X98445037Y-88247641D01*
X98509225Y-88247640D01*
X98564813Y-88279734D01*
X99722450Y-89437371D01*
X99724643Y-89439620D01*
X99780603Y-89498490D01*
X99780605Y-89498492D01*
X99784941Y-89503053D01*
X99790105Y-89506647D01*
X99790107Y-89506649D01*
X99833348Y-89536746D01*
X99840869Y-89542417D01*
X99881715Y-89575722D01*
X99881724Y-89575727D01*
X99886593Y-89579698D01*
X99913556Y-89593782D01*
X99926980Y-89601915D01*
X99951951Y-89619295D01*
X99957730Y-89621775D01*
X99957732Y-89621776D01*
X99960597Y-89623006D01*
X99999380Y-89649276D01*
X100128599Y-89778495D01*
X100133032Y-89781599D01*
X100133038Y-89781604D01*
X100314158Y-89908425D01*
X100353024Y-89952743D01*
X100367035Y-90010000D01*
X100353024Y-90067257D01*
X100314159Y-90111575D01*
X100133041Y-90238395D01*
X100128599Y-90241505D01*
X100124775Y-90245328D01*
X100124769Y-90245334D01*
X99965334Y-90404769D01*
X99965328Y-90404775D01*
X99961505Y-90408599D01*
X99958402Y-90413029D01*
X99958399Y-90413034D01*
X99829073Y-90597731D01*
X99829068Y-90597738D01*
X99825965Y-90602171D01*
X99823677Y-90607077D01*
X99823675Y-90607081D01*
X99728386Y-90811427D01*
X99728383Y-90811432D01*
X99726097Y-90816337D01*
X99724698Y-90821557D01*
X99724694Y-90821569D01*
X99666337Y-91039365D01*
X99666335Y-91039371D01*
X99664937Y-91044592D01*
X99664465Y-91049977D01*
X99664465Y-91049982D01*
X99649865Y-91216862D01*
X99644341Y-91280000D01*
X99644813Y-91285395D01*
X99656045Y-91413782D01*
X99664937Y-91515408D01*
X99666336Y-91520630D01*
X99666337Y-91520634D01*
X99724694Y-91738430D01*
X99724697Y-91738438D01*
X99726097Y-91743663D01*
X99728385Y-91748570D01*
X99728386Y-91748572D01*
X99823678Y-91952927D01*
X99823681Y-91952933D01*
X99825965Y-91957830D01*
X99829064Y-91962257D01*
X99829066Y-91962259D01*
X99958399Y-92146966D01*
X99958402Y-92146970D01*
X99961505Y-92151401D01*
X100128599Y-92318495D01*
X100133032Y-92321599D01*
X100133038Y-92321604D01*
X100314158Y-92448425D01*
X100353024Y-92492743D01*
X100367035Y-92550000D01*
X100353024Y-92607257D01*
X100314159Y-92651575D01*
X100133041Y-92778395D01*
X100128599Y-92781505D01*
X100124775Y-92785328D01*
X100124769Y-92785334D01*
X99965334Y-92944769D01*
X99965328Y-92944775D01*
X99961505Y-92948599D01*
X99958402Y-92953029D01*
X99958399Y-92953034D01*
X99829073Y-93137731D01*
X99829068Y-93137738D01*
X99825965Y-93142171D01*
X99823677Y-93147077D01*
X99823675Y-93147081D01*
X99728386Y-93351427D01*
X99728383Y-93351432D01*
X99726097Y-93356337D01*
X99724698Y-93361557D01*
X99724694Y-93361569D01*
X99666337Y-93579365D01*
X99666335Y-93579371D01*
X99664937Y-93584592D01*
X99664465Y-93589977D01*
X99664465Y-93589982D01*
X99646757Y-93792380D01*
X99644341Y-93820000D01*
X99644813Y-93825395D01*
X99656045Y-93953782D01*
X99664937Y-94055408D01*
X99666336Y-94060630D01*
X99666337Y-94060634D01*
X99724694Y-94278430D01*
X99724697Y-94278438D01*
X99726097Y-94283663D01*
X99728385Y-94288570D01*
X99728386Y-94288572D01*
X99823678Y-94492927D01*
X99823681Y-94492933D01*
X99825965Y-94497830D01*
X99829064Y-94502257D01*
X99829066Y-94502259D01*
X99958399Y-94686966D01*
X99958402Y-94686970D01*
X99961505Y-94691401D01*
X100128599Y-94858495D01*
X100133031Y-94861598D01*
X100133033Y-94861600D01*
X100259459Y-94950124D01*
X100322170Y-94994035D01*
X100536337Y-95093903D01*
X100764592Y-95155063D01*
X101000000Y-95175659D01*
X101235408Y-95155063D01*
X101463663Y-95093903D01*
X101677830Y-94994035D01*
X101871401Y-94858495D01*
X102038495Y-94691401D01*
X102174035Y-94497830D01*
X102273903Y-94283663D01*
X102335063Y-94055408D01*
X102355659Y-93820000D01*
X103644341Y-93820000D01*
X103644813Y-93825395D01*
X103656045Y-93953782D01*
X103664937Y-94055408D01*
X103666336Y-94060630D01*
X103666337Y-94060634D01*
X103724694Y-94278430D01*
X103724697Y-94278438D01*
X103726097Y-94283663D01*
X103728385Y-94288570D01*
X103728386Y-94288572D01*
X103823678Y-94492927D01*
X103823681Y-94492933D01*
X103825965Y-94497830D01*
X103829064Y-94502257D01*
X103829066Y-94502259D01*
X103958399Y-94686966D01*
X103958402Y-94686970D01*
X103961505Y-94691401D01*
X104128599Y-94858495D01*
X104133031Y-94861598D01*
X104133033Y-94861600D01*
X104259459Y-94950124D01*
X104322170Y-94994035D01*
X104536337Y-95093903D01*
X104764592Y-95155063D01*
X105000000Y-95175659D01*
X105235408Y-95155063D01*
X105463663Y-95093903D01*
X105677830Y-94994035D01*
X105871401Y-94858495D01*
X106038495Y-94691401D01*
X106174035Y-94497830D01*
X106273903Y-94283663D01*
X106335063Y-94055408D01*
X106355659Y-93820000D01*
X106335063Y-93584592D01*
X106282641Y-93388949D01*
X106275305Y-93361569D01*
X106275304Y-93361567D01*
X106273903Y-93356337D01*
X106174035Y-93142171D01*
X106038495Y-92948599D01*
X105871401Y-92781505D01*
X105866968Y-92778401D01*
X105866961Y-92778395D01*
X105685842Y-92651575D01*
X105646976Y-92607257D01*
X105632965Y-92550000D01*
X105646976Y-92492743D01*
X105685842Y-92448425D01*
X105866961Y-92321604D01*
X105866961Y-92321603D01*
X105871401Y-92318495D01*
X106038495Y-92151401D01*
X106174035Y-91957830D01*
X106273903Y-91743663D01*
X106335063Y-91515408D01*
X106346043Y-91389900D01*
X106357189Y-91348305D01*
X106381887Y-91313032D01*
X107631390Y-90063528D01*
X107633560Y-90061412D01*
X107697053Y-90001059D01*
X107730752Y-89952641D01*
X107736428Y-89945113D01*
X107773698Y-89899407D01*
X107781256Y-89884938D01*
X107787782Y-89872444D01*
X107795919Y-89859013D01*
X107809704Y-89839208D01*
X107809703Y-89839208D01*
X107813295Y-89834049D01*
X107836568Y-89779815D01*
X107840598Y-89771331D01*
X107858778Y-89736529D01*
X107896566Y-89693073D01*
X107949909Y-89671373D01*
X108007302Y-89676110D01*
X108056365Y-89706261D01*
X108128599Y-89778495D01*
X108133032Y-89781599D01*
X108133038Y-89781604D01*
X108314158Y-89908425D01*
X108353024Y-89952743D01*
X108367035Y-90010000D01*
X108353024Y-90067257D01*
X108314159Y-90111575D01*
X108133041Y-90238395D01*
X108128599Y-90241505D01*
X108124775Y-90245328D01*
X108124769Y-90245334D01*
X107965334Y-90404769D01*
X107965328Y-90404775D01*
X107961505Y-90408599D01*
X107958402Y-90413029D01*
X107958399Y-90413034D01*
X107829073Y-90597731D01*
X107829068Y-90597738D01*
X107825965Y-90602171D01*
X107823677Y-90607077D01*
X107823675Y-90607081D01*
X107728386Y-90811427D01*
X107728383Y-90811432D01*
X107726097Y-90816337D01*
X107724698Y-90821557D01*
X107724694Y-90821569D01*
X107666337Y-91039365D01*
X107666335Y-91039371D01*
X107664937Y-91044592D01*
X107664465Y-91049977D01*
X107664465Y-91049982D01*
X107649865Y-91216862D01*
X107644341Y-91280000D01*
X107644813Y-91285395D01*
X107656045Y-91413782D01*
X107664937Y-91515408D01*
X107666336Y-91520630D01*
X107666337Y-91520634D01*
X107724694Y-91738430D01*
X107724697Y-91738438D01*
X107726097Y-91743663D01*
X107728385Y-91748570D01*
X107728386Y-91748572D01*
X107823678Y-91952927D01*
X107823681Y-91952933D01*
X107825965Y-91957830D01*
X107829064Y-91962257D01*
X107829066Y-91962259D01*
X107958399Y-92146966D01*
X107958402Y-92146970D01*
X107961505Y-92151401D01*
X108128599Y-92318495D01*
X108133032Y-92321599D01*
X108133038Y-92321604D01*
X108314158Y-92448425D01*
X108353024Y-92492743D01*
X108367035Y-92550000D01*
X108353024Y-92607257D01*
X108314159Y-92651575D01*
X108133041Y-92778395D01*
X108128599Y-92781505D01*
X108124775Y-92785328D01*
X108124769Y-92785334D01*
X107965334Y-92944769D01*
X107965328Y-92944775D01*
X107961505Y-92948599D01*
X107958402Y-92953029D01*
X107958399Y-92953034D01*
X107829073Y-93137731D01*
X107829068Y-93137738D01*
X107825965Y-93142171D01*
X107823677Y-93147077D01*
X107823675Y-93147081D01*
X107728386Y-93351427D01*
X107728383Y-93351432D01*
X107726097Y-93356337D01*
X107724698Y-93361557D01*
X107724694Y-93361569D01*
X107666337Y-93579365D01*
X107666335Y-93579371D01*
X107664937Y-93584592D01*
X107664465Y-93589977D01*
X107664465Y-93589982D01*
X107646757Y-93792380D01*
X107644341Y-93820000D01*
X107644813Y-93825395D01*
X107656045Y-93953782D01*
X107664937Y-94055408D01*
X107666336Y-94060630D01*
X107666337Y-94060634D01*
X107724694Y-94278430D01*
X107724697Y-94278438D01*
X107726097Y-94283663D01*
X107728385Y-94288570D01*
X107728386Y-94288572D01*
X107823678Y-94492927D01*
X107823681Y-94492933D01*
X107825965Y-94497830D01*
X107829064Y-94502257D01*
X107829066Y-94502259D01*
X107958399Y-94686966D01*
X107958402Y-94686970D01*
X107961505Y-94691401D01*
X108128599Y-94858495D01*
X108133031Y-94861598D01*
X108133033Y-94861600D01*
X108259459Y-94950124D01*
X108322170Y-94994035D01*
X108536337Y-95093903D01*
X108764592Y-95155063D01*
X109000000Y-95175659D01*
X109235408Y-95155063D01*
X109463663Y-95093903D01*
X109677830Y-94994035D01*
X109871401Y-94858495D01*
X110038495Y-94691401D01*
X110174035Y-94497830D01*
X110273903Y-94283663D01*
X110335063Y-94055408D01*
X110355659Y-93820000D01*
X110335063Y-93584592D01*
X110282641Y-93388949D01*
X110275305Y-93361569D01*
X110275304Y-93361567D01*
X110273903Y-93356337D01*
X110174035Y-93142171D01*
X110038495Y-92948599D01*
X109871401Y-92781505D01*
X109866968Y-92778401D01*
X109866961Y-92778395D01*
X109685842Y-92651575D01*
X109646976Y-92607257D01*
X109632965Y-92550000D01*
X109646976Y-92492743D01*
X109685842Y-92448425D01*
X109866961Y-92321604D01*
X109866961Y-92321603D01*
X109871401Y-92318495D01*
X110038495Y-92151401D01*
X110174035Y-91957830D01*
X110273903Y-91743663D01*
X110335063Y-91515408D01*
X110355659Y-91280000D01*
X110335063Y-91044592D01*
X110273903Y-90816337D01*
X110174035Y-90602171D01*
X110038495Y-90408599D01*
X109871401Y-90241505D01*
X109866968Y-90238401D01*
X109866961Y-90238395D01*
X109685842Y-90111575D01*
X109646976Y-90067257D01*
X109632965Y-90010000D01*
X109646976Y-89952743D01*
X109685842Y-89908425D01*
X109866961Y-89781604D01*
X109866961Y-89781603D01*
X109871401Y-89778495D01*
X110038495Y-89611401D01*
X110174035Y-89417830D01*
X110273903Y-89203663D01*
X110335063Y-88975408D01*
X110355659Y-88740000D01*
X110335063Y-88504592D01*
X110273903Y-88276337D01*
X110174035Y-88062171D01*
X110038495Y-87868599D01*
X109916569Y-87746673D01*
X109885273Y-87693927D01*
X109883084Y-87632634D01*
X109910537Y-87577789D01*
X109960916Y-87542810D01*
X110092331Y-87493796D01*
X110207546Y-87407546D01*
X110293796Y-87292331D01*
X110344091Y-87157483D01*
X110350500Y-87097873D01*
X110350499Y-85302128D01*
X110344091Y-85242517D01*
X110293796Y-85107669D01*
X110207546Y-84992454D01*
X110092331Y-84906204D01*
X109957483Y-84855909D01*
X109949770Y-84855079D01*
X109949767Y-84855079D01*
X109901180Y-84849855D01*
X109901169Y-84849854D01*
X109897873Y-84849500D01*
X109894551Y-84849500D01*
X108888782Y-84849500D01*
X108832487Y-84835985D01*
X108788464Y-84798385D01*
X108766309Y-84744898D01*
X108770851Y-84687182D01*
X108801101Y-84637819D01*
X109392300Y-84046621D01*
X110152101Y-83286819D01*
X110192330Y-83259939D01*
X110239783Y-83250500D01*
X111862412Y-83250500D01*
X111899699Y-83256239D01*
X111933533Y-83272924D01*
X112087266Y-83380568D01*
X112092172Y-83382855D01*
X112092176Y-83382858D01*
X112145274Y-83407618D01*
X112197450Y-83453375D01*
X112216869Y-83520000D01*
X112197450Y-83586625D01*
X112145274Y-83632382D01*
X112092176Y-83657141D01*
X112092163Y-83657148D01*
X112087266Y-83659432D01*
X112082833Y-83662535D01*
X112082826Y-83662540D01*
X111905296Y-83786847D01*
X111905291Y-83786850D01*
X111900861Y-83789953D01*
X111897037Y-83793776D01*
X111897031Y-83793782D01*
X111743782Y-83947031D01*
X111743776Y-83947037D01*
X111739953Y-83950861D01*
X111736850Y-83955291D01*
X111736847Y-83955296D01*
X111612540Y-84132826D01*
X111612535Y-84132833D01*
X111609432Y-84137266D01*
X111607144Y-84142172D01*
X111607142Y-84142176D01*
X111515550Y-84338594D01*
X111515547Y-84338599D01*
X111513261Y-84343504D01*
X111511862Y-84348724D01*
X111511858Y-84348736D01*
X111455764Y-84558083D01*
X111455762Y-84558094D01*
X111454365Y-84563308D01*
X111453893Y-84568693D01*
X111453893Y-84568698D01*
X111439555Y-84732582D01*
X111434532Y-84790000D01*
X111435004Y-84795395D01*
X111451779Y-84987141D01*
X111454365Y-85016692D01*
X111455762Y-85021907D01*
X111455764Y-85021916D01*
X111511858Y-85231263D01*
X111511861Y-85231271D01*
X111513261Y-85236496D01*
X111515549Y-85241403D01*
X111515550Y-85241405D01*
X111561983Y-85340980D01*
X111609432Y-85442734D01*
X111612539Y-85447171D01*
X111612540Y-85447173D01*
X111655098Y-85507953D01*
X111739953Y-85629139D01*
X111900861Y-85790047D01*
X112087266Y-85920568D01*
X112092172Y-85922855D01*
X112092176Y-85922858D01*
X112145274Y-85947618D01*
X112197450Y-85993375D01*
X112216869Y-86060000D01*
X112197450Y-86126625D01*
X112145274Y-86172382D01*
X112092176Y-86197141D01*
X112092163Y-86197148D01*
X112087266Y-86199432D01*
X112082833Y-86202535D01*
X112082826Y-86202540D01*
X111905296Y-86326847D01*
X111905291Y-86326850D01*
X111900861Y-86329953D01*
X111897037Y-86333776D01*
X111897031Y-86333782D01*
X111743782Y-86487031D01*
X111743776Y-86487037D01*
X111739953Y-86490861D01*
X111736850Y-86495291D01*
X111736847Y-86495296D01*
X111612540Y-86672826D01*
X111612535Y-86672833D01*
X111609432Y-86677266D01*
X111607144Y-86682172D01*
X111607142Y-86682176D01*
X111515550Y-86878594D01*
X111515547Y-86878599D01*
X111513261Y-86883504D01*
X111511862Y-86888724D01*
X111511858Y-86888736D01*
X111455764Y-87098083D01*
X111455762Y-87098094D01*
X111454365Y-87103308D01*
X111434532Y-87330000D01*
X111435004Y-87335395D01*
X111453262Y-87544091D01*
X111454365Y-87556692D01*
X111455762Y-87561907D01*
X111455764Y-87561916D01*
X111511858Y-87771263D01*
X111511861Y-87771271D01*
X111513261Y-87776496D01*
X111609432Y-87982734D01*
X111739953Y-88169139D01*
X111900861Y-88330047D01*
X112087266Y-88460568D01*
X112092172Y-88462855D01*
X112092176Y-88462858D01*
X112145274Y-88487618D01*
X112197450Y-88533375D01*
X112216869Y-88600000D01*
X112197450Y-88666625D01*
X112145274Y-88712382D01*
X112092176Y-88737141D01*
X112092163Y-88737148D01*
X112087266Y-88739432D01*
X112082833Y-88742535D01*
X112082826Y-88742540D01*
X111905296Y-88866847D01*
X111905291Y-88866850D01*
X111900861Y-88869953D01*
X111897037Y-88873776D01*
X111897031Y-88873782D01*
X111743782Y-89027031D01*
X111743776Y-89027037D01*
X111739953Y-89030861D01*
X111736850Y-89035291D01*
X111736847Y-89035296D01*
X111612540Y-89212826D01*
X111612535Y-89212833D01*
X111609432Y-89217266D01*
X111607144Y-89222172D01*
X111607142Y-89222176D01*
X111515550Y-89418594D01*
X111515547Y-89418599D01*
X111513261Y-89423504D01*
X111511862Y-89428724D01*
X111511858Y-89428736D01*
X111455764Y-89638083D01*
X111455762Y-89638094D01*
X111454365Y-89643308D01*
X111453893Y-89648693D01*
X111453893Y-89648698D01*
X111440553Y-89801181D01*
X111434532Y-89870000D01*
X111435004Y-89875395D01*
X111451789Y-90067257D01*
X111454365Y-90096692D01*
X111455762Y-90101907D01*
X111455764Y-90101916D01*
X111511858Y-90311263D01*
X111511861Y-90311271D01*
X111513261Y-90316496D01*
X111609432Y-90522734D01*
X111739953Y-90709139D01*
X111900861Y-90870047D01*
X112087266Y-91000568D01*
X112092172Y-91002855D01*
X112092176Y-91002858D01*
X112145274Y-91027618D01*
X112197450Y-91073375D01*
X112216869Y-91140000D01*
X112197450Y-91206625D01*
X112145274Y-91252382D01*
X112092176Y-91277141D01*
X112092166Y-91277147D01*
X112087266Y-91279432D01*
X112082833Y-91282535D01*
X112082826Y-91282540D01*
X111905296Y-91406847D01*
X111905291Y-91406850D01*
X111900861Y-91409953D01*
X111897037Y-91413776D01*
X111897031Y-91413782D01*
X111743782Y-91567031D01*
X111743776Y-91567037D01*
X111739953Y-91570861D01*
X111736850Y-91575291D01*
X111736847Y-91575296D01*
X111612540Y-91752826D01*
X111612535Y-91752833D01*
X111609432Y-91757266D01*
X111607144Y-91762172D01*
X111607142Y-91762176D01*
X111515550Y-91958594D01*
X111515547Y-91958599D01*
X111513261Y-91963504D01*
X111511862Y-91968724D01*
X111511858Y-91968736D01*
X111455764Y-92178083D01*
X111455762Y-92178094D01*
X111454365Y-92183308D01*
X111453893Y-92188693D01*
X111453893Y-92188698D01*
X111435576Y-92398064D01*
X111434532Y-92410000D01*
X111435004Y-92415395D01*
X111451789Y-92607257D01*
X111454365Y-92636692D01*
X111455762Y-92641907D01*
X111455764Y-92641916D01*
X111511858Y-92851263D01*
X111511861Y-92851271D01*
X111513261Y-92856496D01*
X111609432Y-93062734D01*
X111612539Y-93067171D01*
X111612540Y-93067173D01*
X111634237Y-93098160D01*
X111739953Y-93249139D01*
X111900861Y-93410047D01*
X112087266Y-93540568D01*
X112145276Y-93567618D01*
X112197449Y-93613373D01*
X112216869Y-93679997D01*
X112197451Y-93746622D01*
X112145276Y-93792380D01*
X112092178Y-93817141D01*
X112092173Y-93817143D01*
X112087266Y-93819432D01*
X112082833Y-93822535D01*
X112082826Y-93822540D01*
X111905296Y-93946847D01*
X111905291Y-93946850D01*
X111900861Y-93949953D01*
X111897037Y-93953776D01*
X111897031Y-93953782D01*
X111743782Y-94107031D01*
X111743776Y-94107037D01*
X111739953Y-94110861D01*
X111736850Y-94115291D01*
X111736847Y-94115296D01*
X111612540Y-94292826D01*
X111612535Y-94292833D01*
X111609432Y-94297266D01*
X111607144Y-94302172D01*
X111607142Y-94302176D01*
X111515550Y-94498594D01*
X111515547Y-94498599D01*
X111513261Y-94503504D01*
X111511862Y-94508724D01*
X111511858Y-94508736D01*
X111455764Y-94718083D01*
X111455762Y-94718094D01*
X111454365Y-94723308D01*
X111453893Y-94728693D01*
X111453893Y-94728698D01*
X111442266Y-94861600D01*
X111434532Y-94950000D01*
X111435004Y-94955395D01*
X111452472Y-95155063D01*
X111454365Y-95176692D01*
X111455762Y-95181907D01*
X111455764Y-95181916D01*
X111511858Y-95391263D01*
X111511861Y-95391271D01*
X111513261Y-95396496D01*
X111609432Y-95602734D01*
X111739953Y-95789139D01*
X111900861Y-95950047D01*
X112087266Y-96080568D01*
X112092172Y-96082855D01*
X112092176Y-96082858D01*
X112145274Y-96107618D01*
X112197450Y-96153375D01*
X112216869Y-96220000D01*
X112197450Y-96286625D01*
X112145274Y-96332382D01*
X112092176Y-96357141D01*
X112092163Y-96357148D01*
X112087266Y-96359432D01*
X112082833Y-96362535D01*
X112082826Y-96362540D01*
X111905296Y-96486847D01*
X111905291Y-96486850D01*
X111900861Y-96489953D01*
X111897037Y-96493776D01*
X111897031Y-96493782D01*
X111743782Y-96647031D01*
X111743776Y-96647037D01*
X111739953Y-96650861D01*
X111736850Y-96655291D01*
X111736847Y-96655296D01*
X111612540Y-96832826D01*
X111612535Y-96832833D01*
X111609432Y-96837266D01*
X111607144Y-96842172D01*
X111607142Y-96842176D01*
X111515550Y-97038594D01*
X111515547Y-97038599D01*
X111513261Y-97043504D01*
X111511862Y-97048724D01*
X111511858Y-97048736D01*
X111455764Y-97258083D01*
X111455762Y-97258094D01*
X111454365Y-97263308D01*
X111434532Y-97490000D01*
X111435004Y-97495395D01*
X111441480Y-97569422D01*
X111454365Y-97716692D01*
X111455762Y-97721907D01*
X111455764Y-97721916D01*
X111511858Y-97931263D01*
X111511861Y-97931271D01*
X111513261Y-97936496D01*
X111609432Y-98142734D01*
X111739953Y-98329139D01*
X111900861Y-98490047D01*
X112087266Y-98620568D01*
X112092172Y-98622855D01*
X112092176Y-98622858D01*
X112145274Y-98647618D01*
X112197450Y-98693375D01*
X112216869Y-98760000D01*
X112197450Y-98826625D01*
X112145274Y-98872382D01*
X112092176Y-98897141D01*
X112092163Y-98897148D01*
X112087266Y-98899432D01*
X112082833Y-98902535D01*
X112082826Y-98902540D01*
X111905296Y-99026847D01*
X111905291Y-99026850D01*
X111900861Y-99029953D01*
X111897037Y-99033776D01*
X111897031Y-99033782D01*
X111743782Y-99187031D01*
X111743776Y-99187037D01*
X111739953Y-99190861D01*
X111736850Y-99195291D01*
X111736847Y-99195296D01*
X111612540Y-99372826D01*
X111612535Y-99372833D01*
X111609432Y-99377266D01*
X111607144Y-99382172D01*
X111607142Y-99382176D01*
X111515550Y-99578594D01*
X111515547Y-99578599D01*
X111513261Y-99583504D01*
X111511862Y-99588724D01*
X111511858Y-99588736D01*
X111455764Y-99798083D01*
X111455762Y-99798094D01*
X111454365Y-99803308D01*
X111453893Y-99808693D01*
X111453893Y-99808698D01*
X111446259Y-99895955D01*
X111434532Y-100030000D01*
X111435004Y-100035395D01*
X111453779Y-100250000D01*
X111454365Y-100256692D01*
X111455762Y-100261907D01*
X111455764Y-100261916D01*
X111511858Y-100471263D01*
X111511861Y-100471271D01*
X111513261Y-100476496D01*
X111609432Y-100682734D01*
X111612539Y-100687171D01*
X111612540Y-100687173D01*
X111642515Y-100729982D01*
X111739953Y-100869139D01*
X111900861Y-101030047D01*
X112087266Y-101160568D01*
X112092175Y-101162857D01*
X112092180Y-101162860D01*
X112145864Y-101187893D01*
X112198040Y-101233649D01*
X112217460Y-101300274D01*
X112198041Y-101366899D01*
X112145866Y-101412657D01*
X112092416Y-101437581D01*
X112083087Y-101442967D01*
X111905618Y-101567232D01*
X111897352Y-101574169D01*
X111744169Y-101727352D01*
X111737232Y-101735618D01*
X111612967Y-101913087D01*
X111607579Y-101922419D01*
X111516022Y-102118765D01*
X111512330Y-102128907D01*
X111464820Y-102306219D01*
X111464452Y-102317448D01*
X111475395Y-102320000D01*
X114004605Y-102320000D01*
X114015547Y-102317448D01*
X114015179Y-102306219D01*
X113967669Y-102128907D01*
X113963977Y-102118765D01*
X113872420Y-101922419D01*
X113867032Y-101913087D01*
X113742767Y-101735618D01*
X113735830Y-101727352D01*
X113582647Y-101574169D01*
X113574381Y-101567232D01*
X113396912Y-101442967D01*
X113387579Y-101437579D01*
X113334134Y-101412657D01*
X113281958Y-101366899D01*
X113262539Y-101300274D01*
X113281959Y-101233649D01*
X113334131Y-101187894D01*
X113392734Y-101160568D01*
X113579139Y-101030047D01*
X113740047Y-100869139D01*
X113870568Y-100682734D01*
X113966739Y-100476496D01*
X114025635Y-100256692D01*
X114045468Y-100030000D01*
X114025635Y-99803308D01*
X113966739Y-99583504D01*
X113870568Y-99377266D01*
X113740047Y-99190861D01*
X113579139Y-99029953D01*
X113416367Y-98915980D01*
X113397173Y-98902540D01*
X113397171Y-98902539D01*
X113392734Y-98899432D01*
X113334724Y-98872381D01*
X113282549Y-98826625D01*
X113263130Y-98760000D01*
X113282549Y-98693375D01*
X113334725Y-98647618D01*
X113392734Y-98620568D01*
X113579139Y-98490047D01*
X113740047Y-98329139D01*
X113870568Y-98142734D01*
X113966739Y-97936496D01*
X114025635Y-97716692D01*
X114045468Y-97490000D01*
X114025635Y-97263308D01*
X113966739Y-97043504D01*
X113870568Y-96837266D01*
X113740047Y-96650861D01*
X113579139Y-96489953D01*
X113392734Y-96359432D01*
X113334724Y-96332381D01*
X113282549Y-96286625D01*
X113263130Y-96220000D01*
X113282549Y-96153375D01*
X113334725Y-96107618D01*
X113392734Y-96080568D01*
X113579139Y-95950047D01*
X113740047Y-95789139D01*
X113870568Y-95602734D01*
X113966739Y-95396496D01*
X114025635Y-95176692D01*
X114045468Y-94950000D01*
X114025635Y-94723308D01*
X113966739Y-94503504D01*
X113870568Y-94297266D01*
X113740047Y-94110861D01*
X113579139Y-93949953D01*
X113392734Y-93819432D01*
X113334724Y-93792381D01*
X113282549Y-93746625D01*
X113263130Y-93680000D01*
X113282549Y-93613375D01*
X113334725Y-93567618D01*
X113392734Y-93540568D01*
X113579139Y-93410047D01*
X113740047Y-93249139D01*
X113870568Y-93062734D01*
X113966739Y-92856496D01*
X114025635Y-92636692D01*
X114045468Y-92410000D01*
X114025635Y-92183308D01*
X114024062Y-92177436D01*
X113968141Y-91968736D01*
X113968140Y-91968734D01*
X113966739Y-91963504D01*
X113870568Y-91757266D01*
X113740047Y-91570861D01*
X113579139Y-91409953D01*
X113415202Y-91295164D01*
X113397173Y-91282540D01*
X113397171Y-91282539D01*
X113392734Y-91279432D01*
X113334724Y-91252381D01*
X113282549Y-91206625D01*
X113263130Y-91140000D01*
X113282549Y-91073375D01*
X113334725Y-91027618D01*
X113392734Y-91000568D01*
X113579139Y-90870047D01*
X113740047Y-90709139D01*
X113870568Y-90522734D01*
X113966739Y-90316496D01*
X114025635Y-90096692D01*
X114045468Y-89870000D01*
X114025635Y-89643308D01*
X114014544Y-89601916D01*
X113968141Y-89428736D01*
X113968140Y-89428734D01*
X113966739Y-89423504D01*
X113870568Y-89217266D01*
X113740047Y-89030861D01*
X113579139Y-88869953D01*
X113392734Y-88739432D01*
X113334724Y-88712381D01*
X113282549Y-88666625D01*
X113263130Y-88600000D01*
X113282549Y-88533375D01*
X113334725Y-88487618D01*
X113392734Y-88460568D01*
X113579139Y-88330047D01*
X113740047Y-88169139D01*
X113870568Y-87982734D01*
X113966739Y-87776496D01*
X114025635Y-87556692D01*
X114045468Y-87330000D01*
X114037041Y-87233674D01*
X116100000Y-87233674D01*
X116103450Y-87246549D01*
X116116326Y-87250000D01*
X118233674Y-87250000D01*
X118246549Y-87246549D01*
X118250000Y-87233674D01*
X118750000Y-87233674D01*
X118753450Y-87246549D01*
X118766326Y-87250000D01*
X120883674Y-87250000D01*
X120896549Y-87246549D01*
X120900000Y-87233674D01*
X120900000Y-85555482D01*
X120899646Y-85548885D01*
X120894426Y-85500332D01*
X120890888Y-85485358D01*
X120846452Y-85366222D01*
X120838037Y-85350810D01*
X120762501Y-85249907D01*
X120750092Y-85237498D01*
X120649189Y-85161962D01*
X120633777Y-85153547D01*
X120514641Y-85109111D01*
X120499667Y-85105573D01*
X120451114Y-85100353D01*
X120444518Y-85100000D01*
X118766326Y-85100000D01*
X118753450Y-85103450D01*
X118750000Y-85116326D01*
X118750000Y-87233674D01*
X118250000Y-87233674D01*
X118250000Y-85116326D01*
X118246549Y-85103450D01*
X118233674Y-85100000D01*
X116555482Y-85100000D01*
X116548885Y-85100353D01*
X116500332Y-85105573D01*
X116485358Y-85109111D01*
X116366222Y-85153547D01*
X116350810Y-85161962D01*
X116249907Y-85237498D01*
X116237498Y-85249907D01*
X116161962Y-85350810D01*
X116153547Y-85366222D01*
X116109111Y-85485358D01*
X116105573Y-85500332D01*
X116100353Y-85548885D01*
X116100000Y-85555482D01*
X116100000Y-87233674D01*
X114037041Y-87233674D01*
X114025635Y-87103308D01*
X113966739Y-86883504D01*
X113870568Y-86677266D01*
X113740047Y-86490861D01*
X113579139Y-86329953D01*
X113392734Y-86199432D01*
X113334724Y-86172381D01*
X113282549Y-86126625D01*
X113263130Y-86060000D01*
X113282549Y-85993375D01*
X113334725Y-85947618D01*
X113392734Y-85920568D01*
X113579139Y-85790047D01*
X113740047Y-85629139D01*
X113870568Y-85442734D01*
X113966739Y-85236496D01*
X114025635Y-85016692D01*
X114045468Y-84790000D01*
X114025635Y-84563308D01*
X113966739Y-84343504D01*
X113870568Y-84137266D01*
X113740047Y-83950861D01*
X113579139Y-83789953D01*
X113392734Y-83659432D01*
X113334724Y-83632381D01*
X113282549Y-83586625D01*
X113263130Y-83520000D01*
X113282549Y-83453375D01*
X113334725Y-83407618D01*
X113392734Y-83380568D01*
X113579139Y-83250047D01*
X113740047Y-83089139D01*
X113870568Y-82902734D01*
X113966739Y-82696496D01*
X114025635Y-82476692D01*
X114045468Y-82250000D01*
X114025635Y-82023308D01*
X113966739Y-81803504D01*
X113870568Y-81597266D01*
X113740047Y-81410861D01*
X113579139Y-81249953D01*
X113500032Y-81194562D01*
X113397173Y-81122540D01*
X113397171Y-81122539D01*
X113392734Y-81119432D01*
X113334724Y-81092381D01*
X113282549Y-81046625D01*
X113263130Y-80980000D01*
X113282549Y-80913375D01*
X113334725Y-80867618D01*
X113392734Y-80840568D01*
X113579139Y-80710047D01*
X113740047Y-80549139D01*
X113870568Y-80362734D01*
X113966739Y-80156496D01*
X114025635Y-79936692D01*
X114045468Y-79710000D01*
X114025635Y-79483308D01*
X113966739Y-79263504D01*
X113870568Y-79057266D01*
X113858478Y-79040000D01*
X114604341Y-79040000D01*
X114604813Y-79045395D01*
X114623895Y-79263504D01*
X114624937Y-79275408D01*
X114626336Y-79280630D01*
X114626337Y-79280634D01*
X114684694Y-79498430D01*
X114684697Y-79498438D01*
X114686097Y-79503663D01*
X114785965Y-79717829D01*
X114921505Y-79911401D01*
X115088599Y-80078495D01*
X115282171Y-80214035D01*
X115496337Y-80313903D01*
X115724592Y-80375063D01*
X115901034Y-80390500D01*
X116016258Y-80390500D01*
X116018966Y-80390500D01*
X116195408Y-80375063D01*
X116423663Y-80313903D01*
X116637829Y-80214035D01*
X116831401Y-80078495D01*
X116998495Y-79911401D01*
X117134035Y-79717830D01*
X117233903Y-79503663D01*
X117295063Y-79275408D01*
X117315659Y-79040000D01*
X117295063Y-78804592D01*
X117233903Y-78576337D01*
X117134035Y-78362171D01*
X116998495Y-78168599D01*
X116831401Y-78001505D01*
X116637829Y-77865965D01*
X116554640Y-77827173D01*
X116428572Y-77768386D01*
X116428570Y-77768385D01*
X116423663Y-77766097D01*
X116418438Y-77764697D01*
X116418430Y-77764694D01*
X116200634Y-77706337D01*
X116200630Y-77706336D01*
X116195408Y-77704937D01*
X116190020Y-77704465D01*
X116190017Y-77704465D01*
X116021664Y-77689736D01*
X116021662Y-77689735D01*
X116018966Y-77689500D01*
X115901034Y-77689500D01*
X115898338Y-77689735D01*
X115898335Y-77689736D01*
X115729982Y-77704465D01*
X115729977Y-77704465D01*
X115724592Y-77704937D01*
X115719371Y-77706335D01*
X115719365Y-77706337D01*
X115501569Y-77764694D01*
X115501557Y-77764698D01*
X115496337Y-77766097D01*
X115491432Y-77768383D01*
X115491427Y-77768386D01*
X115287081Y-77863675D01*
X115287077Y-77863677D01*
X115282171Y-77865965D01*
X115277738Y-77869068D01*
X115277731Y-77869073D01*
X115093034Y-77998399D01*
X115093029Y-77998402D01*
X115088599Y-78001505D01*
X115084775Y-78005328D01*
X115084769Y-78005334D01*
X114925336Y-78164767D01*
X114925330Y-78164773D01*
X114921505Y-78168599D01*
X114918406Y-78173023D01*
X114918399Y-78173033D01*
X114789066Y-78357740D01*
X114789061Y-78357747D01*
X114785965Y-78362170D01*
X114783683Y-78367061D01*
X114783678Y-78367072D01*
X114688386Y-78571427D01*
X114688383Y-78571432D01*
X114686097Y-78576337D01*
X114684698Y-78581557D01*
X114684694Y-78581569D01*
X114626337Y-78799365D01*
X114626335Y-78799371D01*
X114624937Y-78804592D01*
X114624465Y-78809977D01*
X114624465Y-78809982D01*
X114619474Y-78867031D01*
X114604341Y-79040000D01*
X113858478Y-79040000D01*
X113740047Y-78870861D01*
X113579139Y-78709953D01*
X113392734Y-78579432D01*
X113334724Y-78552381D01*
X113282549Y-78506625D01*
X113263130Y-78440000D01*
X113282549Y-78373375D01*
X113334725Y-78327618D01*
X113392734Y-78300568D01*
X113579139Y-78170047D01*
X113740047Y-78009139D01*
X113870568Y-77822734D01*
X113966739Y-77616496D01*
X114025635Y-77396692D01*
X114045468Y-77170000D01*
X114025635Y-76943308D01*
X113966739Y-76723504D01*
X113870568Y-76517266D01*
X113740047Y-76330861D01*
X113579139Y-76169953D01*
X113517224Y-76126600D01*
X113397173Y-76042540D01*
X113397171Y-76042539D01*
X113392734Y-76039432D01*
X113186496Y-75943261D01*
X113181271Y-75941861D01*
X113181263Y-75941858D01*
X112971916Y-75885764D01*
X112971907Y-75885762D01*
X112966692Y-75884365D01*
X112961304Y-75883893D01*
X112961301Y-75883893D01*
X112745395Y-75865004D01*
X112740000Y-75864532D01*
X112734605Y-75865004D01*
X112518698Y-75883893D01*
X112518693Y-75883893D01*
X112513308Y-75884365D01*
X112508094Y-75885762D01*
X112508083Y-75885764D01*
X112298736Y-75941858D01*
X112298724Y-75941862D01*
X112293504Y-75943261D01*
X112288599Y-75945547D01*
X112288594Y-75945550D01*
X112092176Y-76037142D01*
X112092172Y-76037144D01*
X112087266Y-76039432D01*
X112082833Y-76042535D01*
X112082826Y-76042540D01*
X111905296Y-76166847D01*
X111905291Y-76166850D01*
X111900861Y-76169953D01*
X111897037Y-76173776D01*
X111897031Y-76173782D01*
X111743782Y-76327031D01*
X111743776Y-76327037D01*
X111739953Y-76330861D01*
X111736850Y-76335291D01*
X111736847Y-76335296D01*
X111612540Y-76512826D01*
X111612535Y-76512833D01*
X111609432Y-76517266D01*
X111607144Y-76522172D01*
X111607142Y-76522176D01*
X111515550Y-76718594D01*
X111515547Y-76718599D01*
X111513261Y-76723504D01*
X111511862Y-76728724D01*
X111511858Y-76728736D01*
X111455764Y-76938083D01*
X111455762Y-76938094D01*
X111454365Y-76943308D01*
X111453894Y-76948689D01*
X111453893Y-76948696D01*
X111448959Y-77005094D01*
X111437813Y-77046690D01*
X111413112Y-77081966D01*
X104302646Y-84192432D01*
X104300398Y-84194624D01*
X104236947Y-84254941D01*
X104233359Y-84260095D01*
X104233352Y-84260104D01*
X104203244Y-84303361D01*
X104197574Y-84310881D01*
X104164274Y-84351721D01*
X104164271Y-84351724D01*
X104160302Y-84356593D01*
X104157396Y-84362155D01*
X104157388Y-84362168D01*
X104146210Y-84383566D01*
X104138082Y-84396982D01*
X104124300Y-84416784D01*
X104124295Y-84416792D01*
X104120705Y-84421951D01*
X104118228Y-84427721D01*
X104118225Y-84427728D01*
X104097439Y-84476165D01*
X104093399Y-84484671D01*
X104066091Y-84536951D01*
X104064363Y-84542989D01*
X104064360Y-84542997D01*
X104057720Y-84566201D01*
X104052459Y-84580978D01*
X104042942Y-84603157D01*
X104040460Y-84608942D01*
X104039194Y-84615097D01*
X104039192Y-84615107D01*
X104028587Y-84666712D01*
X104026342Y-84675859D01*
X104011842Y-84726534D01*
X104011839Y-84726547D01*
X104010113Y-84732582D01*
X104009636Y-84738842D01*
X104009635Y-84738849D01*
X104007801Y-84762929D01*
X104005622Y-84778463D01*
X103999501Y-84808256D01*
X103997155Y-84807774D01*
X103975994Y-84860784D01*
X103921210Y-84901152D01*
X103915986Y-84903100D01*
X103915974Y-84903106D01*
X103907669Y-84906204D01*
X103900572Y-84911516D01*
X103900568Y-84911519D01*
X103799550Y-84987141D01*
X103799546Y-84987144D01*
X103792454Y-84992454D01*
X103787144Y-84999546D01*
X103787141Y-84999550D01*
X103711519Y-85100568D01*
X103711516Y-85100572D01*
X103706204Y-85107669D01*
X103703104Y-85115978D01*
X103703104Y-85115980D01*
X103658620Y-85235247D01*
X103658619Y-85235250D01*
X103655909Y-85242517D01*
X103655079Y-85250227D01*
X103655079Y-85250232D01*
X103649855Y-85298819D01*
X103649854Y-85298831D01*
X103649500Y-85302127D01*
X103649500Y-85305448D01*
X103649500Y-85305449D01*
X103649500Y-87094560D01*
X103649500Y-87094578D01*
X103649501Y-87097872D01*
X103649853Y-87101150D01*
X103649854Y-87101161D01*
X103655079Y-87149768D01*
X103655080Y-87149773D01*
X103655909Y-87157483D01*
X103658619Y-87164749D01*
X103658620Y-87164753D01*
X103674785Y-87208093D01*
X103706204Y-87292331D01*
X103792454Y-87407546D01*
X103907669Y-87493796D01*
X104017405Y-87534725D01*
X104039082Y-87542810D01*
X104089462Y-87577789D01*
X104116915Y-87632633D01*
X104114726Y-87693926D01*
X104083431Y-87746672D01*
X103961505Y-87868599D01*
X103958402Y-87873029D01*
X103958399Y-87873034D01*
X103829073Y-88057731D01*
X103829068Y-88057738D01*
X103825965Y-88062171D01*
X103823677Y-88067077D01*
X103823675Y-88067081D01*
X103728386Y-88271427D01*
X103728383Y-88271432D01*
X103726097Y-88276337D01*
X103724698Y-88281557D01*
X103724694Y-88281569D01*
X103666337Y-88499365D01*
X103666335Y-88499371D01*
X103664937Y-88504592D01*
X103664465Y-88509977D01*
X103664465Y-88509982D01*
X103646757Y-88712382D01*
X103644341Y-88740000D01*
X103644813Y-88745395D01*
X103656045Y-88873782D01*
X103664937Y-88975408D01*
X103666336Y-88980630D01*
X103666337Y-88980634D01*
X103724694Y-89198430D01*
X103724697Y-89198438D01*
X103726097Y-89203663D01*
X103728385Y-89208570D01*
X103728386Y-89208572D01*
X103823678Y-89412927D01*
X103823681Y-89412933D01*
X103825965Y-89417830D01*
X103829064Y-89422257D01*
X103829066Y-89422259D01*
X103958399Y-89606966D01*
X103958402Y-89606970D01*
X103961505Y-89611401D01*
X104128599Y-89778495D01*
X104133032Y-89781599D01*
X104133038Y-89781604D01*
X104314158Y-89908425D01*
X104353024Y-89952743D01*
X104367035Y-90010000D01*
X104353024Y-90067257D01*
X104314159Y-90111575D01*
X104133041Y-90238395D01*
X104128599Y-90241505D01*
X104124775Y-90245328D01*
X104124769Y-90245334D01*
X103965334Y-90404769D01*
X103965328Y-90404775D01*
X103961505Y-90408599D01*
X103958402Y-90413029D01*
X103958399Y-90413034D01*
X103829073Y-90597731D01*
X103829068Y-90597738D01*
X103825965Y-90602171D01*
X103823677Y-90607077D01*
X103823675Y-90607081D01*
X103728386Y-90811427D01*
X103728383Y-90811432D01*
X103726097Y-90816337D01*
X103724698Y-90821557D01*
X103724694Y-90821569D01*
X103666337Y-91039365D01*
X103666335Y-91039371D01*
X103664937Y-91044592D01*
X103664465Y-91049977D01*
X103664465Y-91049982D01*
X103649865Y-91216862D01*
X103644341Y-91280000D01*
X103644813Y-91285395D01*
X103656045Y-91413782D01*
X103664937Y-91515408D01*
X103666336Y-91520630D01*
X103666337Y-91520634D01*
X103724694Y-91738430D01*
X103724697Y-91738438D01*
X103726097Y-91743663D01*
X103728385Y-91748570D01*
X103728386Y-91748572D01*
X103823678Y-91952927D01*
X103823681Y-91952933D01*
X103825965Y-91957830D01*
X103829064Y-91962257D01*
X103829066Y-91962259D01*
X103958399Y-92146966D01*
X103958402Y-92146970D01*
X103961505Y-92151401D01*
X104128599Y-92318495D01*
X104133032Y-92321599D01*
X104133038Y-92321604D01*
X104314158Y-92448425D01*
X104353024Y-92492743D01*
X104367035Y-92550000D01*
X104353024Y-92607257D01*
X104314159Y-92651575D01*
X104133041Y-92778395D01*
X104128599Y-92781505D01*
X104124775Y-92785328D01*
X104124769Y-92785334D01*
X103965334Y-92944769D01*
X103965328Y-92944775D01*
X103961505Y-92948599D01*
X103958402Y-92953029D01*
X103958399Y-92953034D01*
X103829073Y-93137731D01*
X103829068Y-93137738D01*
X103825965Y-93142171D01*
X103823677Y-93147077D01*
X103823675Y-93147081D01*
X103728386Y-93351427D01*
X103728383Y-93351432D01*
X103726097Y-93356337D01*
X103724698Y-93361557D01*
X103724694Y-93361569D01*
X103666337Y-93579365D01*
X103666335Y-93579371D01*
X103664937Y-93584592D01*
X103664465Y-93589977D01*
X103664465Y-93589982D01*
X103646757Y-93792380D01*
X103644341Y-93820000D01*
X102355659Y-93820000D01*
X102335063Y-93584592D01*
X102282641Y-93388949D01*
X102275305Y-93361569D01*
X102275304Y-93361567D01*
X102273903Y-93356337D01*
X102174035Y-93142171D01*
X102038495Y-92948599D01*
X101871401Y-92781505D01*
X101866968Y-92778401D01*
X101866961Y-92778395D01*
X101685842Y-92651575D01*
X101646976Y-92607257D01*
X101632965Y-92550000D01*
X101646976Y-92492743D01*
X101685842Y-92448425D01*
X101866961Y-92321604D01*
X101866961Y-92321603D01*
X101871401Y-92318495D01*
X102038495Y-92151401D01*
X102174035Y-91957830D01*
X102273903Y-91743663D01*
X102335063Y-91515408D01*
X102355659Y-91280000D01*
X102335063Y-91044592D01*
X102273903Y-90816337D01*
X102174035Y-90602171D01*
X102038495Y-90408599D01*
X101871401Y-90241505D01*
X101866968Y-90238401D01*
X101866961Y-90238395D01*
X101685842Y-90111575D01*
X101646976Y-90067257D01*
X101632965Y-90010000D01*
X101646976Y-89952743D01*
X101685842Y-89908425D01*
X101866961Y-89781604D01*
X101866961Y-89781603D01*
X101871401Y-89778495D01*
X102038495Y-89611401D01*
X102174035Y-89417830D01*
X102273903Y-89203663D01*
X102335063Y-88975408D01*
X102355659Y-88740000D01*
X102335063Y-88504592D01*
X102273903Y-88276337D01*
X102174035Y-88062171D01*
X102038495Y-87868599D01*
X101916569Y-87746673D01*
X101885273Y-87693927D01*
X101883084Y-87632634D01*
X101910537Y-87577789D01*
X101960916Y-87542810D01*
X102092331Y-87493796D01*
X102207546Y-87407546D01*
X102293796Y-87292331D01*
X102344091Y-87157483D01*
X102350500Y-87097873D01*
X102350499Y-85302128D01*
X102344091Y-85242517D01*
X102293796Y-85107669D01*
X102207546Y-84992454D01*
X102092331Y-84906204D01*
X101957483Y-84855909D01*
X101949770Y-84855079D01*
X101949767Y-84855079D01*
X101901180Y-84849855D01*
X101901169Y-84849854D01*
X101897873Y-84849500D01*
X101894550Y-84849500D01*
X101853234Y-84849500D01*
X100311499Y-84849500D01*
X100249500Y-84832888D01*
X100204113Y-84787501D01*
X100187500Y-84725501D01*
X100187500Y-81411238D01*
X100187540Y-81408097D01*
X100187567Y-81407031D01*
X100189756Y-81320637D01*
X100179349Y-81262572D01*
X100178042Y-81253253D01*
X100177706Y-81249953D01*
X100172074Y-81194562D01*
X100162966Y-81165536D01*
X100159223Y-81150284D01*
X100154967Y-81126533D01*
X100154965Y-81126529D01*
X100153858Y-81120347D01*
X100151526Y-81114508D01*
X100131976Y-81065565D01*
X100128816Y-81056689D01*
X100119036Y-81025519D01*
X100111159Y-81000412D01*
X100099829Y-80980000D01*
X100096396Y-80973814D01*
X100089660Y-80959631D01*
X100080708Y-80937220D01*
X100078377Y-80931383D01*
X100045917Y-80882131D01*
X100041036Y-80874073D01*
X100015463Y-80828000D01*
X100015462Y-80827999D01*
X100012409Y-80822498D01*
X99992591Y-80799413D01*
X99983140Y-80786879D01*
X99966402Y-80761481D01*
X99924692Y-80719771D01*
X99918287Y-80712860D01*
X99883960Y-80672874D01*
X99879866Y-80668105D01*
X99874896Y-80664258D01*
X99874891Y-80664253D01*
X99855805Y-80649479D01*
X99844026Y-80639105D01*
X98826887Y-79621966D01*
X98802186Y-79586689D01*
X98791040Y-79545092D01*
X98787845Y-79508572D01*
X98785635Y-79483308D01*
X98726739Y-79263504D01*
X98630568Y-79057266D01*
X98500047Y-78870861D01*
X98339139Y-78709953D01*
X98152734Y-78579432D01*
X98094724Y-78552381D01*
X98042549Y-78506625D01*
X98023130Y-78440000D01*
X98042549Y-78373375D01*
X98094725Y-78327618D01*
X98152734Y-78300568D01*
X98339139Y-78170047D01*
X98500047Y-78009139D01*
X98630568Y-77822734D01*
X98726739Y-77616496D01*
X98785635Y-77396692D01*
X98805468Y-77170000D01*
X98785635Y-76943308D01*
X98726739Y-76723504D01*
X98630568Y-76517266D01*
X98500047Y-76330861D01*
X98339139Y-76169953D01*
X98277224Y-76126600D01*
X98157173Y-76042540D01*
X98157171Y-76042539D01*
X98152734Y-76039432D01*
X97946496Y-75943261D01*
X97941271Y-75941861D01*
X97941263Y-75941858D01*
X97731916Y-75885764D01*
X97731907Y-75885762D01*
X97726692Y-75884365D01*
X97721304Y-75883893D01*
X97721301Y-75883893D01*
X97505395Y-75865004D01*
X97500000Y-75864532D01*
X97494605Y-75865004D01*
X97278698Y-75883893D01*
X97278693Y-75883893D01*
X97273308Y-75884365D01*
X97268094Y-75885762D01*
X97268083Y-75885764D01*
X97058736Y-75941858D01*
X97058724Y-75941862D01*
X97053504Y-75943261D01*
X97048599Y-75945547D01*
X97048594Y-75945550D01*
X96852176Y-76037142D01*
X96852172Y-76037144D01*
X96847266Y-76039432D01*
X96842833Y-76042535D01*
X96842826Y-76042540D01*
X96665296Y-76166847D01*
X96665291Y-76166850D01*
X96660861Y-76169953D01*
X96657037Y-76173776D01*
X96657031Y-76173782D01*
X96503782Y-76327031D01*
X96503776Y-76327037D01*
X96499953Y-76330861D01*
X96496850Y-76335291D01*
X96496847Y-76335296D01*
X96372540Y-76512826D01*
X96372535Y-76512833D01*
X96369432Y-76517266D01*
X96367144Y-76522172D01*
X96367142Y-76522176D01*
X96275550Y-76718594D01*
X96275547Y-76718599D01*
X96273261Y-76723504D01*
X96271862Y-76728724D01*
X96271858Y-76728736D01*
X96215764Y-76938083D01*
X96215762Y-76938094D01*
X96214365Y-76943308D01*
X96213893Y-76948693D01*
X96213894Y-76948696D01*
X96194532Y-77170000D01*
X96195004Y-77175395D01*
X96207781Y-77321443D01*
X96214365Y-77396692D01*
X96215762Y-77401907D01*
X96215764Y-77401916D01*
X96271858Y-77611263D01*
X96271861Y-77611271D01*
X96273261Y-77616496D01*
X96275549Y-77621403D01*
X96275550Y-77621405D01*
X96307414Y-77689736D01*
X96369432Y-77822734D01*
X96372539Y-77827171D01*
X96372540Y-77827173D01*
X96456600Y-77947224D01*
X96499953Y-78009139D01*
X96660861Y-78170047D01*
X96847266Y-78300568D01*
X96852172Y-78302855D01*
X96852176Y-78302858D01*
X96905274Y-78327618D01*
X96957450Y-78373375D01*
X96976869Y-78440000D01*
X96957450Y-78506625D01*
X96905274Y-78552382D01*
X96852176Y-78577141D01*
X96852163Y-78577148D01*
X96847266Y-78579432D01*
X96842833Y-78582535D01*
X96842826Y-78582540D01*
X96665296Y-78706847D01*
X96665291Y-78706850D01*
X96660861Y-78709953D01*
X96657037Y-78713776D01*
X96657031Y-78713782D01*
X96503782Y-78867031D01*
X96503776Y-78867037D01*
X96499953Y-78870861D01*
X96496850Y-78875291D01*
X96496847Y-78875296D01*
X96372540Y-79052826D01*
X96372535Y-79052833D01*
X96369432Y-79057266D01*
X96367144Y-79062172D01*
X96367142Y-79062176D01*
X96275550Y-79258594D01*
X96275547Y-79258599D01*
X96273261Y-79263504D01*
X96271862Y-79268724D01*
X96271858Y-79268736D01*
X96215764Y-79478083D01*
X96215762Y-79478094D01*
X96214365Y-79483308D01*
X96213893Y-79488693D01*
X96213893Y-79488698D01*
X96205320Y-79586689D01*
X96194532Y-79710000D01*
X96214365Y-79936692D01*
X96215762Y-79941907D01*
X96215764Y-79941916D01*
X96271858Y-80151263D01*
X96271861Y-80151271D01*
X96273261Y-80156496D01*
X96369432Y-80362734D01*
X96372539Y-80367171D01*
X96372540Y-80367173D01*
X96388708Y-80390263D01*
X96499953Y-80549139D01*
X96660861Y-80710047D01*
X96847266Y-80840568D01*
X96905276Y-80867618D01*
X96957449Y-80913373D01*
X96976869Y-80979997D01*
X96957451Y-81046622D01*
X96905276Y-81092380D01*
X96852178Y-81117141D01*
X96852173Y-81117143D01*
X96847266Y-81119432D01*
X96842833Y-81122535D01*
X96842826Y-81122540D01*
X96665296Y-81246847D01*
X96665291Y-81246850D01*
X96660861Y-81249953D01*
X96657037Y-81253776D01*
X96657031Y-81253782D01*
X96503782Y-81407031D01*
X96503776Y-81407037D01*
X96499953Y-81410861D01*
X96496850Y-81415291D01*
X96496847Y-81415296D01*
X96372540Y-81592826D01*
X96372535Y-81592833D01*
X96369432Y-81597266D01*
X96367144Y-81602172D01*
X96367142Y-81602176D01*
X96275550Y-81798594D01*
X96275547Y-81798599D01*
X96273261Y-81803504D01*
X96271862Y-81808724D01*
X96271858Y-81808736D01*
X96215764Y-82018083D01*
X96215762Y-82018094D01*
X96214365Y-82023308D01*
X96194532Y-82250000D01*
X96195004Y-82255395D01*
X96210330Y-82430578D01*
X96214365Y-82476692D01*
X96215762Y-82481907D01*
X96215764Y-82481916D01*
X96271858Y-82691263D01*
X96271861Y-82691271D01*
X96273261Y-82696496D01*
X96369432Y-82902734D01*
X96499953Y-83089139D01*
X96660861Y-83250047D01*
X96847266Y-83380568D01*
X96852172Y-83382855D01*
X96852176Y-83382858D01*
X96905274Y-83407618D01*
X96957450Y-83453375D01*
X96976869Y-83520000D01*
X96957450Y-83586625D01*
X96905274Y-83632382D01*
X96852176Y-83657141D01*
X96852163Y-83657148D01*
X96847266Y-83659432D01*
X96842833Y-83662535D01*
X96842826Y-83662540D01*
X96665296Y-83786847D01*
X96665291Y-83786850D01*
X96660861Y-83789953D01*
X96657037Y-83793776D01*
X96657031Y-83793782D01*
X96503782Y-83947031D01*
X96503776Y-83947037D01*
X96499953Y-83950861D01*
X96496850Y-83955291D01*
X96496847Y-83955296D01*
X96372540Y-84132826D01*
X96372535Y-84132833D01*
X96369432Y-84137266D01*
X96367144Y-84142172D01*
X96367142Y-84142176D01*
X96275550Y-84338594D01*
X96275547Y-84338599D01*
X96273261Y-84343504D01*
X96271862Y-84348724D01*
X96271858Y-84348736D01*
X96215764Y-84558083D01*
X96215762Y-84558094D01*
X96214365Y-84563308D01*
X96213893Y-84568693D01*
X96213893Y-84568698D01*
X96199555Y-84732582D01*
X96194532Y-84790000D01*
X96195004Y-84795395D01*
X96211779Y-84987141D01*
X96214365Y-85016692D01*
X96215762Y-85021907D01*
X96215764Y-85021916D01*
X96271858Y-85231263D01*
X96271861Y-85231271D01*
X96273261Y-85236496D01*
X96275549Y-85241403D01*
X96275550Y-85241405D01*
X96321983Y-85340980D01*
X96369432Y-85442734D01*
X96372539Y-85447171D01*
X96372540Y-85447173D01*
X96415098Y-85507953D01*
X96499953Y-85629139D01*
X96660861Y-85790047D01*
X96847266Y-85920568D01*
X96852172Y-85922855D01*
X96852176Y-85922858D01*
X96905274Y-85947618D01*
X96957450Y-85993375D01*
X96976869Y-86060000D01*
X96957450Y-86126625D01*
X96905274Y-86172382D01*
X96852176Y-86197141D01*
X96852163Y-86197148D01*
X96847266Y-86199432D01*
X96842833Y-86202535D01*
X96842826Y-86202540D01*
X96665296Y-86326847D01*
X96665291Y-86326850D01*
X96660861Y-86329953D01*
X96657037Y-86333776D01*
X96657031Y-86333782D01*
X96503782Y-86487031D01*
X96503776Y-86487037D01*
X96499953Y-86490861D01*
X96496850Y-86495291D01*
X96496847Y-86495296D01*
X96372540Y-86672826D01*
X96372535Y-86672833D01*
X96369432Y-86677266D01*
X96367144Y-86682172D01*
X96367142Y-86682176D01*
X96275550Y-86878594D01*
X96275547Y-86878599D01*
X96273261Y-86883504D01*
X96271862Y-86888724D01*
X96271858Y-86888736D01*
X96215764Y-87098083D01*
X96215762Y-87098094D01*
X96214365Y-87103308D01*
X96194532Y-87330000D01*
X96195004Y-87335395D01*
X96213262Y-87544091D01*
X96214365Y-87556692D01*
X96215762Y-87561907D01*
X96215764Y-87561916D01*
X96271858Y-87771263D01*
X96271861Y-87771271D01*
X96273261Y-87776496D01*
X96369432Y-87982734D01*
X96499953Y-88169139D01*
X96660861Y-88330047D01*
X96847266Y-88460568D01*
X96852172Y-88462855D01*
X96852176Y-88462858D01*
X96905274Y-88487618D01*
X96957450Y-88533375D01*
X96976869Y-88600000D01*
X96957450Y-88666625D01*
X96905274Y-88712382D01*
X96852176Y-88737141D01*
X96852163Y-88737148D01*
X96847266Y-88739432D01*
X96842833Y-88742535D01*
X96842826Y-88742540D01*
X96665296Y-88866847D01*
X96665291Y-88866850D01*
X96660861Y-88869953D01*
X96657037Y-88873776D01*
X96657031Y-88873782D01*
X96503782Y-89027031D01*
X96503776Y-89027037D01*
X96499953Y-89030861D01*
X96496850Y-89035291D01*
X96496847Y-89035296D01*
X96372540Y-89212826D01*
X96372535Y-89212833D01*
X96369432Y-89217266D01*
X96367144Y-89222172D01*
X96367142Y-89222176D01*
X96275550Y-89418594D01*
X96275547Y-89418599D01*
X96273261Y-89423504D01*
X96271862Y-89428724D01*
X96271858Y-89428736D01*
X96215764Y-89638083D01*
X96215762Y-89638094D01*
X96214365Y-89643308D01*
X96213893Y-89648693D01*
X96213893Y-89648698D01*
X96200553Y-89801181D01*
X96194532Y-89870000D01*
X96195004Y-89875395D01*
X96211789Y-90067257D01*
X96214365Y-90096692D01*
X96215762Y-90101907D01*
X96215764Y-90101916D01*
X96271858Y-90311263D01*
X96271861Y-90311271D01*
X96273261Y-90316496D01*
X96369432Y-90522734D01*
X96499953Y-90709139D01*
X96660861Y-90870047D01*
X96847266Y-91000568D01*
X96852172Y-91002855D01*
X96852176Y-91002858D01*
X96905274Y-91027618D01*
X96957450Y-91073375D01*
X96976869Y-91140000D01*
X96957450Y-91206625D01*
X96905274Y-91252382D01*
X96852164Y-91277147D01*
X96852154Y-91277152D01*
X96847266Y-91279432D01*
X96846972Y-91279637D01*
X96797718Y-91295164D01*
X96744504Y-91288156D01*
X96699237Y-91259316D01*
X93936818Y-88496898D01*
X93909938Y-88456670D01*
X93900499Y-88409217D01*
X93900499Y-85530439D01*
X93900499Y-85527128D01*
X93894091Y-85467517D01*
X93843796Y-85332669D01*
X93757546Y-85217454D01*
X93642331Y-85131204D01*
X93507483Y-85080909D01*
X93499770Y-85080079D01*
X93499767Y-85080079D01*
X93451180Y-85074855D01*
X93451169Y-85074854D01*
X93447873Y-85074500D01*
X93444550Y-85074500D01*
X89555439Y-85074500D01*
X89555420Y-85074500D01*
X89552128Y-85074501D01*
X89548850Y-85074853D01*
X89548838Y-85074854D01*
X89500231Y-85080079D01*
X89500225Y-85080080D01*
X89492517Y-85080909D01*
X89485252Y-85083618D01*
X89485246Y-85083620D01*
X89365980Y-85128104D01*
X89365978Y-85128104D01*
X89357669Y-85131204D01*
X89350572Y-85136516D01*
X89350568Y-85136519D01*
X89249550Y-85212141D01*
X89249546Y-85212144D01*
X89242454Y-85217454D01*
X89237144Y-85224546D01*
X89237141Y-85224550D01*
X89161519Y-85325568D01*
X89161516Y-85325572D01*
X89156204Y-85332669D01*
X89153104Y-85340978D01*
X89153104Y-85340980D01*
X89108620Y-85460247D01*
X89108619Y-85460250D01*
X89105909Y-85467517D01*
X89105079Y-85475227D01*
X89105079Y-85475232D01*
X89099855Y-85523819D01*
X89099854Y-85523831D01*
X89099500Y-85527127D01*
X89099500Y-85530448D01*
X89099500Y-85530449D01*
X89099500Y-89419560D01*
X89099500Y-89419578D01*
X89099501Y-89422872D01*
X89099853Y-89426150D01*
X89099854Y-89426161D01*
X89105079Y-89474768D01*
X89105080Y-89474773D01*
X89105909Y-89482483D01*
X89108619Y-89489749D01*
X89108620Y-89489753D01*
X89140685Y-89575722D01*
X89156204Y-89617331D01*
X89242454Y-89732546D01*
X89357669Y-89818796D01*
X89492517Y-89869091D01*
X89552127Y-89875500D01*
X90990247Y-89875499D01*
X91047694Y-89889610D01*
X91092067Y-89928730D01*
X91113267Y-89983958D01*
X91106468Y-90042722D01*
X91073217Y-90091649D01*
X91021083Y-90119603D01*
X90760514Y-90186505D01*
X90760506Y-90186507D01*
X90756738Y-90187475D01*
X90753120Y-90188907D01*
X90753109Y-90188911D01*
X90479526Y-90297230D01*
X90479515Y-90297234D01*
X90475896Y-90298668D01*
X90472491Y-90300539D01*
X90472478Y-90300546D01*
X90214612Y-90442310D01*
X90214600Y-90442317D01*
X90211205Y-90444184D01*
X90208061Y-90446467D01*
X90208055Y-90446472D01*
X89969994Y-90619432D01*
X89969983Y-90619440D01*
X89966838Y-90621726D01*
X89964003Y-90624387D01*
X89963996Y-90624394D01*
X89749488Y-90825831D01*
X89749481Y-90825838D01*
X89746651Y-90828496D01*
X89744176Y-90831487D01*
X89744172Y-90831492D01*
X89556598Y-91058229D01*
X89556588Y-91058241D01*
X89554115Y-91061232D01*
X89552033Y-91064511D01*
X89552024Y-91064525D01*
X89394352Y-91312977D01*
X89394345Y-91312988D01*
X89392267Y-91316264D01*
X89390614Y-91319774D01*
X89390611Y-91319782D01*
X89265315Y-91586050D01*
X89263659Y-91589570D01*
X89262457Y-91593267D01*
X89262455Y-91593274D01*
X89171524Y-91873130D01*
X89170319Y-91876840D01*
X89169590Y-91880660D01*
X89169588Y-91880669D01*
X89114449Y-92169716D01*
X89114446Y-92169732D01*
X89113720Y-92173543D01*
X89113475Y-92177434D01*
X89113475Y-92177436D01*
X89104600Y-92318495D01*
X89094754Y-92475000D01*
X86166469Y-92475000D01*
X86156213Y-92400928D01*
X86155858Y-92398124D01*
X86102439Y-91930847D01*
X86102189Y-91928418D01*
X86066266Y-91537879D01*
X86066036Y-91535007D01*
X86065053Y-91520632D01*
X86033947Y-91065886D01*
X86033805Y-91063397D01*
X86015822Y-90671576D01*
X86015729Y-90668862D01*
X86005026Y-90198818D01*
X86004995Y-90195997D01*
X86004995Y-89804003D01*
X86005027Y-89801181D01*
X86005544Y-89778495D01*
X86015729Y-89331132D01*
X86015822Y-89328428D01*
X86033805Y-88936592D01*
X86033946Y-88934127D01*
X86066039Y-88464951D01*
X86066268Y-88462095D01*
X86102191Y-88071562D01*
X86102437Y-88069170D01*
X86155861Y-87601854D01*
X86156210Y-87599093D01*
X86210000Y-87210610D01*
X86210354Y-87208246D01*
X86285008Y-86743744D01*
X86285473Y-86741058D01*
X86357011Y-86355486D01*
X86357467Y-86353166D01*
X86453195Y-85892501D01*
X86453799Y-85889762D01*
X86542921Y-85507953D01*
X86543473Y-85505694D01*
X86660066Y-85049875D01*
X86660831Y-85047027D01*
X86767350Y-84669753D01*
X86767967Y-84667652D01*
X86905233Y-84217453D01*
X86906124Y-84214657D01*
X87029795Y-83842760D01*
X87030493Y-83840732D01*
X87188166Y-83397081D01*
X87189169Y-83394369D01*
X87329711Y-83028663D01*
X87330532Y-83026590D01*
X87508249Y-82590540D01*
X87509396Y-82587826D01*
X87666529Y-82229010D01*
X87667380Y-82227119D01*
X87864828Y-81799461D01*
X87866153Y-81796688D01*
X88039441Y-81445715D01*
X88040401Y-81443819D01*
X88257191Y-81025432D01*
X88258645Y-81022715D01*
X88447773Y-80680182D01*
X88448776Y-80678406D01*
X88684492Y-80270134D01*
X88686077Y-80267471D01*
X88890608Y-79934137D01*
X88891698Y-79932399D01*
X89145808Y-79535189D01*
X89147538Y-79532563D01*
X89367077Y-79209042D01*
X89368195Y-79207428D01*
X89640237Y-78822032D01*
X89642115Y-78819447D01*
X89876079Y-78506568D01*
X89877270Y-78505005D01*
X90166764Y-78132143D01*
X90168749Y-78129658D01*
X90416663Y-77828016D01*
X90417834Y-77826616D01*
X90724209Y-77467069D01*
X90726349Y-77464628D01*
X90987546Y-77174985D01*
X90988873Y-77173538D01*
X91311438Y-76828155D01*
X91313746Y-76825754D01*
X91587806Y-76548533D01*
X91589088Y-76547258D01*
X91927228Y-76216730D01*
X91929725Y-76214359D01*
X92215945Y-75950236D01*
X92217181Y-75949114D01*
X92570339Y-75634029D01*
X92572933Y-75631781D01*
X92870778Y-75381212D01*
X92872047Y-75380163D01*
X93239385Y-75081311D01*
X93242076Y-75079186D01*
X93550821Y-74842746D01*
X93552109Y-74841776D01*
X93932976Y-74559726D01*
X93935863Y-74557654D01*
X94254552Y-74336016D01*
X94256137Y-74334930D01*
X94649670Y-74070357D01*
X94652665Y-74068408D01*
X94980979Y-73861740D01*
X94982429Y-73860843D01*
X95387973Y-73614226D01*
X95391078Y-73612402D01*
X95728185Y-73421194D01*
X95729483Y-73420471D01*
X96146375Y-73192270D01*
X96149559Y-73190591D01*
X96494584Y-73015290D01*
X96495984Y-73014591D01*
X96923222Y-72805410D01*
X96926542Y-72803849D01*
X97278795Y-72644751D01*
X97280109Y-72644169D01*
X97716922Y-72454434D01*
X97720382Y-72452996D01*
X98078992Y-72310441D01*
X98080353Y-72309910D01*
X98525894Y-72140046D01*
X98529375Y-72138782D01*
X98893572Y-72013016D01*
X98895039Y-72012520D01*
X99348320Y-71862955D01*
X99351894Y-71861839D01*
X99720900Y-71753071D01*
X99722318Y-71752664D01*
X100182516Y-71623722D01*
X100186291Y-71622730D01*
X100559227Y-71531158D01*
X100560539Y-71530845D01*
X101026831Y-71422820D01*
X101030686Y-71421994D01*
X101406732Y-71347754D01*
X101408083Y-71347496D01*
X101879390Y-71260699D01*
X101883373Y-71260033D01*
X102261687Y-71203223D01*
X102262940Y-71203043D01*
X102738574Y-71137668D01*
X102742538Y-71137191D01*
X103122316Y-71097862D01*
X103123409Y-71097755D01*
X103602387Y-71054018D01*
X103606489Y-71053713D01*
X103986824Y-71031885D01*
X103987810Y-71031835D01*
X104469207Y-71009901D01*
X104473214Y-71009787D01*
X104853119Y-71005430D01*
X104854539Y-71005423D01*
X105337000Y-71005423D01*
X105341262Y-71005495D01*
G37*
%TD.AperFunction*%
%TD*%
M02*
